<svg viewBox="0 0 100 100" xmlns="http://www.w3.org/2000/svg" id="Ad-Target-Browser--Streamline-Ux.svg" height="100" width="100"><desc>Ad Target Browser Streamline Illustration: https://streamlinehq.com</desc><path d="M1.661 50a40 40 0 1 0 80 0 40 40 0 1 0 -80 0Z" fill="#d9edff" stroke-width="1"></path><path d="M27.021 80.218a13.511 1.654 0 1 0 27.022 0 13.511 1.654 0 1 0 -27.022 0Z" fill="#ffd500" stroke-width="1"></path><path d="M69.225 72.856H11.838a2.917 2.917 0 0 1 -2.918 -2.918V30.059h63.223v39.879a2.917 2.917 0 0 1 -2.918 2.918Z" fill="#ffd500" stroke-width="1"></path><path d="M69.225 21.305H11.838a2.918 2.918 0 0 0 -2.918 2.918v5.836h63.223v-5.836a2.918 2.918 0 0 0 -2.918 -2.918Z" fill="#ffffff" stroke="#000000" stroke-linecap="round" stroke-linejoin="round" stroke-width="1"></path><path d="M69.225 72.856H11.838a2.917 2.917 0 0 1 -2.918 -2.918V30.059h63.223v39.879a2.917 2.917 0 0 1 -2.918 2.918Z" fill="none" stroke="#000000" stroke-linecap="round" stroke-linejoin="round" stroke-width="1"></path><path d="M18.777 54.375a20.859 20.859 0 1 0 41.718 0 20.859 20.859 0 1 0 -41.718 0Z" fill="#ffd500" stroke="#000000" stroke-linecap="round" stroke-linejoin="round" stroke-width="1"></path><path d="M25.73 54.375a13.906 13.906 0 1 0 27.812 0 13.906 13.906 0 1 0 -27.812 0Z" fill="#ffffff" stroke="#000000" stroke-linecap="round" stroke-linejoin="round" stroke-width="1"></path><path d="M32.683 54.375a6.953 6.953 0 1 0 13.906 0 6.953 6.953 0 1 0 -13.906 0Z" fill="#ffd500" stroke="#000000" stroke-linecap="round" stroke-linejoin="round" stroke-width="1"></path><path d="M89.335 27.5a19.3 19.3 0 0 0 -10.507 10.641 20.126 20.126 0 0 0 15.047 -0.03l4.464 -1.811 -4.41 -4.416 -0.149 -6.239Z" fill="#ffd500" stroke-width="1"></path><path d="m93.929 31.886 -0.149 -6.239 -4.445 1.853a19.3 19.3 0 0 0 -10.507 10.641Z" fill="#ffffff" stroke-width="1"></path><path d="M89.335 27.5a19.3 19.3 0 0 0 -10.507 10.641 20.126 20.126 0 0 0 15.047 -0.03l4.464 -1.811 -4.41 -4.416 -0.149 -6.239Z" fill="none" stroke="#000000" stroke-linecap="round" stroke-linejoin="round" stroke-width="1"></path><path d="M93.929 31.886 39.636 54.375" fill="none" stroke="#000000" stroke-linecap="round" stroke-linejoin="round" stroke-width="1"></path><path d="M11.838 25.682a1.459 1.459 0 1 0 2.918 0 1.459 1.459 0 1 0 -2.918 0Z" fill="#ffd500" stroke="#000000" stroke-linecap="round" stroke-linejoin="round" stroke-width="1"></path><path d="M17.528 25.682a1.459 1.459 0 1 0 2.918 0 1.459 1.459 0 1 0 -2.918 0Z" fill="#ffd500" stroke="#000000" stroke-linecap="round" stroke-linejoin="round" stroke-width="1"></path><path d="M23.218 25.682a1.459 1.459 0 1 0 2.918 0 1.459 1.459 0 1 0 -2.918 0Z" fill="#ffd500" stroke="#000000" stroke-linecap="round" stroke-linejoin="round" stroke-width="1"></path></svg>