<svg width="142" height="56" viewBox="0 0 142 56" fill="none" xmlns="http://www.w3.org/2000/svg">
<path d="M49.1016 38H50.7166V33L54.4966 33V31.2765H50.7166V29.347C50.7166 27.868 51.5156 27.205 52.7226 27.205C54.2586 27.205 54.4966 28 54.4966 28H55.9966C55.9966 28 55.6743 25.709 52.7226 25.709C50.4966 25.709 49.1016 26.916 49.1016 29.347V38ZM57.4146 38H59.0296V25.93H57.4146V38Z" fill="white"/>
<path d="M65.6565 38.221C68.1385 38.221 69.8045 36.776 69.8045 33.988V29.602H68.1895V33.988C68.1895 35.807 67.1865 36.725 65.6565 36.725C64.1265 36.725 63.1235 35.807 63.1235 33.988V29.602H61.5085V33.988C61.5085 36.793 63.1745 38.221 65.6565 38.221Z" fill="white"/>
<path d="M73.0844 28.276C73.7304 28.276 74.2064 27.783 74.2064 27.137C74.2064 26.491 73.7304 26.015 73.0844 26.015C72.4384 26.015 71.9624 26.491 71.9624 27.137C71.9624 27.783 72.4384 28.276 73.0844 28.276ZM72.2854 38H73.9004V29.602H72.2854V38Z" fill="white"/>
<path d="M80.5566 38.221C83.1576 38.221 85.0276 36.47 85.0276 33.733V25.93H83.4126V31.081C82.8006 29.993 81.6446 29.381 80.2846 29.381C78.0916 29.381 76.0176 30.962 76.0176 33.75C76.0176 36.385 77.8876 38.221 80.5566 38.221ZM80.5396 36.725C78.8056 36.725 77.6496 35.501 77.6496 33.801C77.6496 32.101 78.8056 30.877 80.5396 30.877C82.2566 30.877 83.4126 32.101 83.4126 33.801C83.4126 35.501 82.2566 36.725 80.5396 36.725Z" fill="white"/>
<path d="M91.3924 38.221C93.3474 38.221 94.8774 37.218 95.5234 35.654H93.7384C93.2454 36.385 92.4804 36.725 91.3924 36.725C89.9304 36.725 88.8084 35.892 88.5704 34.396H95.8804V33.801C95.8804 31.251 94.0444 29.381 91.3924 29.381C88.7404 29.381 86.8704 31.251 86.8704 33.801C86.8704 36.351 88.7404 38.221 91.3924 38.221ZM88.6214 32.951C88.9444 31.625 89.9984 30.877 91.3924 30.877C92.7524 30.877 93.8574 31.608 94.1804 32.951H88.6214Z" fill="white"/>
<path d="M100.894 38.221C103.002 38.221 104.379 37.116 104.379 35.416C104.379 33.495 102.594 33.223 101.132 33.036C100.095 32.9 99.2105 32.815 99.2105 32.016C99.2105 31.353 99.8225 30.843 100.894 30.843C101.914 30.843 102.509 31.319 102.56 31.965H104.158C104.124 30.52 102.883 29.381 100.877 29.381C98.8705 29.381 97.5785 30.503 97.5785 32.152C97.5785 34.073 99.3465 34.345 100.809 34.532C101.863 34.668 102.747 34.77 102.747 35.569C102.747 36.232 102.118 36.759 100.894 36.759C99.7205 36.759 99.0745 36.266 99.0405 35.569H97.4085C97.4595 37.099 98.7855 38.221 100.894 38.221Z" fill="white"/>
<path d="M107.348 28.276C107.994 28.276 108.47 27.783 108.47 27.137C108.47 26.491 107.994 26.015 107.348 26.015C106.702 26.015 106.226 26.491 106.226 27.137C106.226 27.783 106.702 28.276 107.348 28.276ZM106.549 38H108.164V29.602H106.549V38Z" fill="white"/>
<path d="M114.837 41.808C117.319 41.808 119.291 40.55 119.291 37.32V33.869C119.291 31.166 117.455 29.381 114.803 29.381C112.151 29.381 110.281 31.251 110.281 33.801C110.281 36.657 112.355 38.153 114.531 38.153C115.942 38.153 117.115 37.507 117.693 36.419V37.388C117.693 39.581 116.554 40.397 114.837 40.397C113.613 40.397 112.627 39.972 112.236 39.003H110.587C111.165 40.941 112.78 41.808 114.837 41.808ZM114.803 36.64C113.069 36.64 111.913 35.501 111.913 33.801C111.913 32.101 113.069 30.877 114.803 30.877C116.537 30.877 117.693 32.101 117.693 33.801C117.693 35.501 116.537 36.64 114.803 36.64Z" fill="white"/>
<path d="M121.474 38H123.089V33.631C123.089 31.812 124.092 30.877 125.622 30.877C127.152 30.877 128.155 31.812 128.155 33.631V38H129.77V33.631C129.77 30.809 128.104 29.381 125.622 29.381C123.14 29.381 121.474 30.826 121.474 33.631V38Z" fill="white"/>
<path d="M135.124 38.221C137.232 38.221 138.609 37.116 138.609 35.416C138.609 33.495 136.824 33.223 135.362 33.036C134.325 32.9 133.441 32.815 133.441 32.016C133.441 31.353 134.053 30.843 135.124 30.843C136.144 30.843 136.739 31.319 136.79 31.965H138.388C138.354 30.52 137.113 29.381 135.107 29.381C133.101 29.381 131.809 30.503 131.809 32.152C131.809 34.073 133.577 34.345 135.039 34.532C136.093 34.668 136.977 34.77 136.977 35.569C136.977 36.232 136.348 36.759 135.124 36.759C133.951 36.759 133.305 36.266 133.271 35.569H131.639C131.69 37.099 133.016 38.221 135.124 38.221Z" fill="white"/>
<path d="M62.1357 13.6789C61.4584 14.3623 60.7059 14.8939 59.8029 15.1976C54.159 17.5515 46.4833 17.3996 41.5919 26.5874C39.1086 31.2952 39.2591 35.0159 40.9147 38.8125C41.4414 40.1033 42.194 40.9386 42.796 41.4701C44.6773 43.2166 45.7308 42.4572 47.0101 43.9C47.9883 44.8871 47.9883 46.4816 47.0101 47.4688C46.0318 48.4559 44.4515 48.5318 43.4732 47.4688C40.7642 44.5074 38.8829 43.4444 36.8511 45.7983C36.6253 46.102 36.3243 46.3298 36.0985 46.6335C28.4229 54.4545 15.7805 54.5305 7.87909 46.6335C0.0528917 38.8125 0.052891 26.0559 7.80384 18.1589C14.2755 11.5528 24.2087 10.4139 31.8092 14.8179C40.8394 19.6776 46.1823 16.7162 49.4181 9.95826C50.8479 6.92097 51.6757 5.17453 53.858 3.27623C56.0403 1.37792 59.4266 1.52979 62.0604 4.18741C64.6943 6.76911 64.6943 11.0213 62.1357 13.6789Z" fill="white"/>
<path d="M30.654 26H28.6974V30.48C28.0202 30.0244 27.1924 29.7966 26.2894 29.7966C23.8813 29.7966 22 31.7708 22 34.1247C22 36.5546 23.9566 38.4529 26.2894 38.4529C28.6974 38.4529 30.5787 36.4786 30.5787 34.1247V26H30.654ZM26.2894 36.5546C25.0101 36.5546 23.8813 35.4915 23.8813 34.1247C23.8813 32.8339 24.9348 31.6949 26.2894 31.6949C27.5686 31.6949 28.6974 32.758 28.6974 34.1247C28.6974 35.4156 27.6439 36.5546 26.2894 36.5546Z" fill="#282828"/>
<path d="M15 38.291H16.615V33.291H20.395V31.5719H16.615V29.638C16.615 28.159 17.5 27.496 18.621 27.496C19.9041 27.496 20.395 28.291 20.395 28.291H21.895C21.895 28.291 21.6738 26 18.621 26C16.462 26 15 27.207 15 29.638V38.291Z" fill="#282828"/>
</svg>
