<svg width="151" height="126" viewBox="0 0 151 126" fill="none" xmlns="http://www.w3.org/2000/svg">
<path d="M128.089 17.4985C126.312 15.4214 123.451 13.9199 120.591 14.3836C117.658 14.8587 115.584 17.3432 114.789 19.9457C114.327 21.5182 114.109 23.1477 114.143 24.7813C114.149 26.2532 114.248 27.7233 114.439 29.1837C117.289 28.6803 120.184 28.4533 123.082 28.5061L123.098 28.5099L123.12 28.5061C126.47 28.5116 129.8 29.0153 132.989 29.9992C131.531 24.8278 130.619 20.4566 128.089 17.4985ZM123.969 24.5932C123.295 25.8442 121.525 26.3148 120.143 26.2737C120.099 26.2727 120.057 26.2625 120.018 26.2436C119.979 26.2248 119.946 26.1978 119.919 26.1647C119.893 26.1316 119.875 26.0933 119.866 26.0526C119.858 26.0119 119.859 25.9698 119.869 25.9295C120.144 25.1926 120.273 24.413 120.25 23.6308C120.091 23.6537 119.928 23.6925 119.779 23.707C118.998 23.7712 118.212 23.7397 117.439 23.6133C117.38 23.5968 117.327 23.5625 117.29 23.5153C117.252 23.4681 117.232 23.4107 117.231 23.3514C117.216 22.8205 117.317 22.2925 117.527 21.8012C118.494 19.5931 122.074 19.5414 123.567 21.2476C123.969 21.7062 124.221 22.2677 124.293 22.8626C124.364 23.4574 124.252 24.0592 123.969 24.5932Z" fill="black"/>
<path d="M103.663 86.0686C102.82 86.5006 101.891 86.7553 100.938 86.8156C100.577 86.8384 89.7115 86.8285 85.0347 86.8285C84.898 88.2645 84.8399 89.5962 84.8185 91.0764H102.691C102.766 91.0764 102.838 91.105 102.891 91.156C102.945 91.207 102.974 91.2761 102.974 91.3482C102.974 91.4203 102.945 91.4894 102.891 91.5404C102.838 91.5914 102.766 91.62 102.691 91.62H84.8098C84.8284 94.3439 85.0158 97.0644 85.3708 99.767C85.5464 101.527 85.7388 102.911 87.1987 104.582C90.7447 108.638 96.8226 108.48 101.445 105.882C102.311 105.406 103.1 104.812 103.787 104.119C103.597 103.795 103.453 103.449 103.357 103.089C102.943 101.595 103.251 99.3048 103.471 97.7721C103.483 97.6907 105.086 87.5739 106.616 83.6139C105.758 84.5621 104.764 85.3886 103.663 86.0686Z" fill="#2755A0"/>
<path d="M48.6185 91.0764H67.4079C66.8516 88.3978 65.9321 85.7466 63.8722 83.9192C61.9371 82.2023 59.2891 81.4759 56.746 80.8051L47.7777 78.4387C47.7348 78.4486 36.4864 81.0366 36.4133 81.0525C39.8699 84.2144 42.7478 87.9098 44.9271 91.9847C45.5304 93.0848 45.9175 94.2819 46.0691 95.5161C46.1213 96.0959 46.0876 96.6798 45.9689 97.2506C45.4288 99.3976 44.1997 101.328 42.4547 102.771C43.1581 103.412 43.1604 103.757 46.2407 112.229C47.2198 114.923 48.0749 115.788 51.6074 115.899C54.1846 115.982 56.7646 115.931 59.336 115.747C62.5482 115.514 66.815 114.795 68.3107 112.038C68.652 111.22 68.8143 110.344 68.7875 109.463C68.9981 103.491 68.572 97.5134 67.516 91.6238H48.6185C48.5473 91.6176 48.481 91.586 48.4327 91.5354C48.3845 91.4848 48.3578 91.4187 48.3578 91.3501C48.3578 91.2815 48.3845 91.2154 48.4327 91.1648C48.481 91.1142 48.5473 91.0826 48.6185 91.0764ZM62.247 84.8961C62.6608 85.6793 63.0743 86.4628 63.4876 87.2465C63.6521 87.5587 63.1625 87.8336 62.998 87.5206C62.5837 86.7374 62.1702 85.9539 61.7575 85.1702C61.5906 84.8565 62.0825 84.5816 62.247 84.8961Z" fill="#C0C195"/>
<path d="M139.212 74.7048C137.007 74.4336 134.84 73.9301 132.75 73.2033C132.951 74.2319 132.719 75.295 132.105 76.1606C131.522 76.795 130.732 77.2206 129.863 77.3676C128.994 77.5145 128.099 77.374 127.324 76.9692C126.858 76.6861 126.463 76.3076 126.167 75.8608C125.871 75.414 125.682 74.91 125.613 74.385C124.465 76.9479 120.348 77.471 118.813 75.0741C118.116 73.9749 117.76 72.7089 117.785 71.4232C116.533 73.3265 114.869 74.9508 112.907 76.1865C112.907 77.4862 112.943 77.5532 112.835 77.6613C112.782 77.7374 112.99 77.4953 107.643 82.634C106.306 85.5791 105.558 89.227 104.896 92.7698C104.419 95.3273 103.02 101.042 104.089 103.473C104.652 104.478 105.419 105.365 106.344 106.083C107.269 106.802 108.334 107.336 109.478 107.655C109.545 107.676 109.602 107.721 109.636 107.78C109.671 107.839 109.682 107.908 109.666 107.974C109.65 108.04 109.608 108.098 109.55 108.136C109.492 108.175 109.421 108.191 109.35 108.181C115.324 109.875 123.076 109.662 126.463 104.648C128.327 101.889 129.006 98.0204 131.269 92.967C132.402 90.4376 133.282 89.8787 135.056 88.3224C136.877 86.8886 138.313 85.0576 139.244 82.9827C140.267 80.3536 139.942 77.41 139.212 74.7048ZM110.005 85.4733C110.463 84.6883 110.931 83.9078 111.418 83.1388C111.455 83.0765 111.518 83.0312 111.59 83.0129C111.663 82.9945 111.741 83.0046 111.806 83.041C111.871 83.0773 111.918 83.1369 111.937 83.2067C111.956 83.2764 111.946 83.3506 111.908 83.4129C111.45 84.1982 110.979 84.9763 110.495 85.7474C110.457 85.8097 110.395 85.855 110.322 85.8733C110.249 85.8917 110.172 85.8816 110.107 85.8452C110.042 85.8089 109.994 85.7493 109.975 85.6795C109.956 85.6098 109.967 85.5356 110.005 85.4733Z" fill="#2755A0"/>
<path d="M145.996 38.9837C142.393 34.3136 137.222 30.9733 131.352 29.5233C128.662 28.8625 125.897 28.5209 123.12 28.506L123.098 28.5099C123.14 28.5131 123.18 28.525 123.216 28.5446C123.252 28.5642 123.284 28.5911 123.308 28.6234C123.333 28.6558 123.349 28.6928 123.357 28.7319C123.366 28.7711 123.365 28.8114 123.355 28.8502C123.239 29.8721 122.963 30.8714 122.536 31.8143C121.98 33.0234 121.088 33.2709 120.356 32.9435C119.017 32.3435 118.702 30.2999 118.747 28.8883C118.749 28.8218 118.775 28.7581 118.822 28.7091C118.869 28.6602 118.933 28.6294 119.002 28.6225C118.923 28.6096 116.944 28.7687 114.988 29.0847C108.321 30.1606 105.275 31.994 102.563 34.5523C98.1719 38.6705 94.5439 43.4741 91.8342 48.7578L91.8294 48.7715C91.8456 48.7422 91.8677 48.7163 91.8944 48.6952C91.9211 48.6741 91.9518 48.6583 91.9849 48.6486C92.0179 48.6389 92.0527 48.6355 92.0871 48.6387C92.1215 48.6419 92.1549 48.6516 92.1855 48.6672C92.6472 48.9024 104.854 54.2421 106.292 54.9038C106.348 54.9345 106.391 54.9835 106.412 55.042C106.434 55.1005 106.432 55.1644 106.408 55.222C106.434 55.1834 106.454 55.1417 106.469 55.0979C106.85 56.7014 107.097 58.3308 107.318 59.9625H110.109C110.474 59.9538 110.836 60.0155 111.175 60.1438C111.513 60.2721 111.822 60.4644 112.081 60.7093C112.341 60.9542 112.546 61.2467 112.686 61.5693C112.825 61.8919 112.894 62.238 112.891 62.5871C113.157 61.968 113.55 61.4064 114.046 60.9355C114.543 60.4647 115.133 60.0942 115.782 59.846C117.28 59.3449 118.87 59.1481 120.452 59.2681C127.905 59.7745 126.482 59.8338 133.354 60.682C133.09 57.4853 133.17 54.2711 133.592 51.0899C133.609 51.0329 133.644 50.9827 133.694 50.9468C133.743 50.9108 133.803 50.8911 133.865 50.8904C136.964 50.8493 144.347 50.5554 150.124 50.1526C150.186 50.1529 150.246 50.1724 150.295 50.2082C150.345 50.2441 150.38 50.2943 150.397 50.3514C149.862 46.2883 148.356 42.3982 145.996 38.9837Z" fill="#CCEAFF"/>
<path d="M123.564 21.2499C121.831 19.2703 117.157 19.5802 117.231 23.3537C117.232 23.4129 117.252 23.4704 117.29 23.5176C117.327 23.5647 117.38 23.5991 117.439 23.6156C117.964 23.6984 118.496 23.7414 119.028 23.7443C119.439 23.7524 119.849 23.7151 120.251 23.6331C120.274 24.4153 120.145 25.1948 119.87 25.9318C119.861 25.9669 119.859 26.0034 119.864 26.0393C119.869 26.0752 119.882 26.1097 119.901 26.1409C119.92 26.1721 119.946 26.1993 119.976 26.221C120.006 26.2428 120.041 26.2586 120.077 26.2675C120.905 26.3103 121.731 26.1677 122.491 25.8511C122.932 25.6693 123.322 25.3898 123.629 25.0355C123.935 24.6812 124.15 24.2623 124.255 23.8132C124.359 23.364 124.351 22.8975 124.231 22.4519C124.111 22.0063 123.882 21.5943 123.564 21.2499Z" fill="#FFD2D2"/>
<path d="M46.0691 95.5161C45.9176 94.2819 45.5305 93.0849 44.9271 91.9848C42.7448 87.9107 39.866 84.2153 36.4102 81.0518C34.2645 81.5087 31.6523 81.9609 29.7092 82.3013C23.3817 83.4091 14.8592 84.6951 8.46654 84.9738C7.73223 85.0058 6.93911 85.0408 6.14439 85.0119C6.07541 85.0098 6.00946 84.9842 5.95846 84.9397C5.90745 84.8951 5.87474 84.8346 5.86624 84.769C5.869 84.8649 5.87856 84.9606 5.89485 85.0553C5.97857 85.7395 6.15682 86.4101 6.42493 87.0494C7.95872 90.7467 11.8083 93.2319 15.5466 94.9801C13.505 95.7179 11.43 96.3704 9.42258 97.192C8.23052 97.5811 7.14325 98.2184 6.23896 99.0582C5.19312 100.189 5.16769 101.47 5.56664 102.934C6.39978 105.517 7.62511 107.968 9.20324 110.209C10.0774 111.483 11.7996 113.77 13.3222 114.228C13.9003 114.349 14.4976 114.36 15.0801 114.26C16.5275 113.992 17.9564 113.639 19.3589 113.203C27.0263 111.092 36.6097 108.09 42.4548 102.772C44.1998 101.329 45.4288 99.3984 45.969 97.2514C46.0877 96.6804 46.1214 96.0962 46.0691 95.5161ZM42.6082 93.6073C42.9674 94.4159 43.3269 95.2248 43.6866 96.0339C43.8288 96.3522 43.3393 96.6293 43.1971 96.308C42.8373 95.4994 42.4784 94.6903 42.1202 93.8806C41.9764 93.5631 42.4659 93.286 42.6082 93.6073ZM18.495 95.1864C19.5735 95.6056 20.5482 96.237 21.356 97.0397C21.6087 97.2917 21.2074 97.677 20.9539 97.4204C20.2179 96.681 19.3283 96.0977 18.3424 95.708C18.0102 95.5793 18.1573 95.0547 18.495 95.1864Z" fill="#C0C195"/>
<path d="M106.296 54.9038C105.198 54.3989 92.3532 48.7707 92.2149 48.6824C92.1843 48.6622 92.1497 48.6485 92.1133 48.642C92.0768 48.6356 92.0393 48.6366 92.0033 48.645C91.9673 48.6534 91.9335 48.669 91.9043 48.6908C91.875 48.7126 91.8508 48.7401 91.8334 48.7714C91.6745 48.9603 90.3346 51.7858 89.6678 53.3216C88.1542 47.2914 86.1535 41.3831 83.6836 35.6502C85.613 34.0276 87.3457 32.2022 88.8493 30.2085C89.388 29.6281 89.7413 28.9116 89.8673 28.1444C89.9619 26.6002 88.0395 25.9607 86.4977 26.4046C84.8701 26.8713 83.6725 28.0248 82.2969 28.9035C80.8862 29.8034 79.1792 30.2024 78.0213 29.0085C77.542 28.5067 77.1273 27.9515 76.7863 27.3548C76.7863 27.3548 72.6395 21.0671 71.8663 19.8276C70.3031 17.3195 67.88 17.0378 66.6434 18.32C66.2194 18.7787 65.92 19.3305 65.7717 19.9266C65.6234 20.5226 65.6307 21.1445 65.7931 21.7372C66.3137 23.2656 67.0299 24.7265 67.9253 26.0863C68.2225 26.6299 68.8495 27.4797 68.1399 27.9738C67.6217 28.3347 66.8898 27.8916 66.4201 27.6373C64.1703 26.419 62.1573 23.9148 59.5935 23.5189C57.1593 23.1382 55.9156 25.9157 57.0266 27.8725C58.4492 30.2013 60.3291 32.2439 62.5626 33.8876C63.184 34.3658 62.9766 34.7411 62.2232 34.7145C59.9043 34.633 57.2801 32.9678 54.8872 33.4559C53.3129 33.7772 52.9148 35.3845 53.5911 36.7421C54.3284 37.9916 55.5147 38.9416 56.9289 39.4154C58.4539 40.0245 60.0505 40.4303 61.4047 41.376C66.2381 44.752 66.7364 51.9944 68.1383 56.6801C70.2576 55.8099 72.4945 55.2306 74.7829 54.9593C75.3798 54.883 75.9852 55.0184 76.4851 55.34C76.6712 55.4955 76.8225 55.6855 76.9299 55.8986C77.0373 56.1116 77.0984 56.3433 77.1098 56.5796C77.2131 58.3932 75.2351 59.2719 73.7346 60.082L70.5288 61.8196C70.9005 62.337 71.31 62.8286 71.7542 63.2906C74.6533 63.3621 76.2968 63.0622 78.3503 63.1528C82.7888 63.3462 83.0725 66.8912 79.908 68.2206C81.7237 68.8414 83.6158 69.2338 85.5369 69.3879V62.5825C85.5375 62.2296 85.6123 61.8804 85.7569 61.5558C85.9015 61.2312 86.1129 60.9379 86.3785 60.6934C86.644 60.4488 86.9583 60.2581 87.3025 60.1325C87.6468 60.0069 88.0139 59.9491 88.382 59.9625H103.663C104.734 58.4912 105.649 56.9213 106.395 55.2761C106.401 55.2584 106.406 55.2403 106.41 55.222C106.434 55.1646 106.436 55.1009 106.415 55.0425C106.394 54.984 106.351 54.9348 106.296 54.9038ZM77.612 31.2859C77.2734 32.634 76.5822 33.8773 75.6035 34.8989C74.6249 35.9204 73.391 36.6865 72.0181 37.1251C71.6708 37.2362 71.523 36.7116 71.8679 36.6012C73.1464 36.1881 74.2942 35.4702 75.2034 34.5151C76.1126 33.5599 76.7533 32.3989 77.0653 31.1412C77.1495 30.8009 77.6971 30.9455 77.612 31.2859ZM89.3801 57.9494L89.2776 55.8357C89.2601 55.4855 89.8276 55.4878 89.845 55.8357L89.9476 57.9494C89.9619 58.2996 89.3976 58.2981 89.3801 57.9494Z" fill="#FFD2D2"/>
<path d="M48.4874 53.847C48.4874 53.847 48.4827 38.8885 48.4874 37.2957C48.5091 35.6367 47.8841 34.0297 46.7346 32.7888C45.5851 31.548 43.9939 30.7626 42.272 30.5862C41.2891 30.5165 40.303 30.4982 39.3181 30.5314C36.6574 30.5694 35.6163 30.5093 35.5233 30.5169C35.5937 30.5217 35.6596 30.5519 35.7078 30.6013C35.756 30.6507 35.7829 30.7158 35.7832 30.7834C35.377 33.9719 34.734 37.1285 33.8592 40.2293C33.759 40.5712 33.5786 41.4917 33.1439 41.0821C31.2287 39.2692 27.7645 32.5468 26.8085 30.8793C26.7858 30.8398 26.7736 30.7956 26.7732 30.7505C26.7727 30.7054 26.7839 30.6609 26.8058 30.621C26.8277 30.5811 26.8596 30.547 26.8986 30.5218C26.9376 30.4966 26.9826 30.481 27.0294 30.4766C26.8657 30.4606 13.3182 30.3943 12.9392 30.4004C17.0475 30.8617 20.9405 32.4101 24.182 34.8721C30.0056 39.5014 33.9736 46.5604 46.8678 53.1655C47.1905 53.3307 46.9036 53.7998 46.5817 53.6345C43.8326 52.2264 41.2004 50.6179 38.7085 48.8233C29.1314 41.9288 26.9825 36.3363 20.1448 33.0356C17.8811 31.9223 15.425 31.2126 12.8963 30.941C12.568 30.9083 12.5386 30.4606 12.8104 30.408C11.2543 30.4121 9.74446 30.9152 8.52159 31.8371C7.29873 32.7591 6.4333 34.0468 6.06332 35.4949C5.75179 37.055 5.85987 33.3897 5.85987 84.7446C5.86301 84.8158 5.89401 84.8834 5.94672 84.9337C5.99944 84.9841 6.07 85.0136 6.14438 85.0164C6.93909 85.0453 7.73937 85.0103 8.46653 84.9783C14.86 84.6997 23.3841 83.4137 29.7092 82.3058C36.0343 81.198 34.1008 81.5764 48.2451 78.3328C49.0376 78.494 49.8428 78.5915 50.6522 78.6244C50.5219 78.6024 50.3773 78.5034 50.3963 78.3595C51.6639 68.6318 51.5638 63.3934 52.8377 56.5431C52.8573 56.4769 52.9024 56.4203 52.964 56.3848C53.0255 56.3493 53.0989 56.3376 53.1691 56.352C51.4981 55.7224 49.9233 54.8798 48.4874 53.847ZM30.1797 66.0834C30.8557 66.925 31.7141 67.6162 32.6957 68.1095C33.0192 68.2732 32.7315 68.743 32.4096 68.5793C31.346 68.0357 30.4179 67.2777 29.6893 66.3575C29.4684 66.0789 29.9611 65.8093 30.1797 66.0834ZM25.8143 67.5742C30.1669 71.7338 38.1093 75.9542 46.8003 77.49C47.1595 77.5532 47.0069 78.077 46.6493 78.0138C39.8161 76.8453 33.3793 74.1108 27.8877 70.0435C22.9963 66.3606 21.6301 63.0698 17.3768 59.6184C15.595 58.1403 13.3633 57.252 11.0128 57.0852C10.6488 57.0631 10.648 56.5225 11.0128 56.5416C17.8759 56.8987 21.0341 63.0051 25.8143 67.5742ZM14.4642 73.0853C14.2711 72.7868 14.7606 72.515 14.9546 72.8104C16.8767 75.8703 19.6843 78.3301 23.0368 79.8914C23.3674 80.0437 23.0797 80.5074 22.7507 80.3612C19.318 78.7467 16.4417 76.2211 14.4642 73.0853ZM15.9956 70.8704C18.0599 73.823 20.9115 76.1925 24.2543 77.7328C24.5841 77.8851 24.2956 78.3534 23.9682 78.2019C20.5402 76.6157 17.6183 74.1788 15.5061 71.1445C15.3018 70.8528 15.7938 70.5818 15.9956 70.8704Z" fill="#43F7B2"/>
<path d="M81.9869 65.2923C81.7143 63.7078 79.7855 63.2152 78.3527 63.1528C75.7063 63.037 72.1794 63.6964 68.4879 62.9243L73.733 60.0805C75.2628 59.2506 77.2123 58.4001 77.1082 56.5781C77.0968 56.3417 77.0356 56.1101 76.9283 55.897C76.8209 55.684 76.6696 55.494 76.4835 55.3385C75.9836 55.0169 75.3781 54.8815 74.7812 54.9578C68.693 55.6819 67.0288 57.9212 62.3496 57.944C59.2205 57.9327 56.1181 57.3914 53.1857 56.3451H53.1683C53.098 56.3307 53.0247 56.3424 52.9631 56.3779C52.9016 56.4134 52.8565 56.47 52.8369 56.5362C51.559 63.4078 51.6758 68.526 50.3955 78.3526C50.3764 78.4965 50.5211 78.5955 50.6514 78.6176C50.6609 78.6176 50.6705 78.6236 50.6792 78.6244C55.0652 78.9967 59.5609 78.6061 63.8794 79.5282C67.8363 80.3733 68.7065 81.319 72.8525 81.7629C73.5528 81.8412 74.262 81.8034 74.9489 81.651C75.5481 81.4856 76.0793 81.1469 76.4698 80.6812C76.8603 80.2155 77.091 79.6455 77.1304 79.0493C77.1264 78.0983 76.3707 77.4062 75.7246 76.7696C73.7879 74.8661 72.4019 74.5418 69.8342 73.0243C69.4591 72.8027 68.8575 72.55 68.7645 72.0893C68.7428 71.8747 68.7853 71.6587 68.887 71.4664C68.9888 71.2741 69.1456 71.1136 69.3391 71.0036C69.9907 70.635 69.6569 70.7668 76.1513 69.2204C77.4289 68.9785 78.6852 68.6435 79.9095 68.2184C81.5967 67.5095 82.1578 66.2836 81.9869 65.2923ZM62.379 62.919L65.0921 62.5383C65.4497 62.4881 65.6023 63.0119 65.2423 63.0629L62.53 63.4436C62.1723 63.4939 62.019 62.9677 62.379 62.919ZM62.6881 71.7246H65.4052C65.4805 71.7246 65.5526 71.7532 65.6058 71.8042C65.659 71.8552 65.6889 71.9243 65.6889 71.9964C65.6889 72.0685 65.659 72.1377 65.6058 72.1886C65.5526 72.2396 65.4805 72.2682 65.4052 72.2682H62.6881C62.65 72.2695 62.612 72.2633 62.5764 72.2503C62.5407 72.2372 62.5082 72.2174 62.4807 72.192C62.4533 72.1667 62.4313 72.1363 62.4163 72.1027C62.4013 72.0691 62.3935 72.033 62.3933 71.9964C62.3924 71.9596 62.3996 71.9229 62.4142 71.8888C62.4289 71.8548 62.4508 71.8239 62.4785 71.7983C62.5061 71.7727 62.5391 71.7529 62.5751 71.7401C62.6112 71.7273 62.6497 71.7217 62.6881 71.7238V71.7246Z" fill="#FC9070"/>
<path d="M123.101 28.5098C123.022 28.4916 121.043 28.4725 119.034 28.6164C118.96 28.6189 118.889 28.6483 118.836 28.6988C118.784 28.7492 118.753 28.817 118.75 28.8883C118.713 29.8009 118.852 30.7124 119.16 31.5768C119.277 31.924 119.48 32.2392 119.752 32.4958C120.023 32.7524 120.354 32.943 120.718 33.0516C121.621 33.1871 122.201 32.5514 122.539 31.8143C122.966 30.8713 123.242 29.8721 123.358 28.8502C123.368 28.8114 123.369 28.7711 123.361 28.7319C123.353 28.6928 123.336 28.6558 123.311 28.6234C123.287 28.5911 123.256 28.5642 123.219 28.5446C123.183 28.525 123.143 28.5131 123.101 28.5098Z" fill="#FFD2D2"/>
<path d="M109.478 107.655C107.199 107.014 105.275 105.54 104.122 103.55C102.909 101.038 104.587 94.451 105.328 90.5587C105.794 87.8469 106.566 85.1917 107.632 82.6401L106.624 83.6064C106.015 85.2139 105.53 86.8622 105.173 88.5379C105.132 88.7184 103.29 98.5755 103.273 98.7331C103.095 100.276 102.949 102.374 103.609 103.78C104.837 105.908 106.889 107.489 109.323 108.178C109.395 108.195 109.471 108.185 109.535 108.149C109.599 108.113 109.646 108.055 109.665 107.987C109.685 107.918 109.676 107.846 109.64 107.783C109.605 107.721 109.545 107.675 109.474 107.654L109.478 107.655Z" fill="#2755A0"/>
<path d="M35.5241 30.5169C35.513 30.5169 27.1796 30.4606 27.0326 30.4743C26.9858 30.4787 26.9408 30.4943 26.9018 30.5195C26.8628 30.5447 26.8309 30.5788 26.809 30.6187C26.7871 30.6586 26.7759 30.7031 26.7764 30.7482C26.7768 30.7933 26.7889 30.8375 26.8117 30.877C27.9147 32.8034 31.2303 39.2677 33.1471 41.0798C33.3013 41.226 33.558 41.2024 33.6812 40.8293C33.7296 40.6831 33.999 39.7633 34.2112 38.9654C34.8995 36.2694 35.4244 33.5375 35.7832 30.7834C35.783 30.7159 35.7562 30.6509 35.7081 30.6015C35.6601 30.5521 35.5944 30.5219 35.5241 30.5169Z" fill="#FC9070"/>
<path d="M108.343 75.3025C107.911 75.409 109.244 75.3786 90.6835 75.3786C90.0335 75.3786 89.4101 75.1312 88.9504 74.6908C88.4908 74.2505 88.2326 73.6532 88.2326 73.0304V64.6588C88.2326 64.3505 88.296 64.0452 88.4192 63.7604C88.5423 63.4755 88.7229 63.2167 88.9505 62.9987C89.1781 62.7807 89.4483 62.6078 89.7456 62.4899C90.043 62.372 90.3617 62.3113 90.6835 62.3114H107.763C108.413 62.3114 109.037 62.5587 109.496 62.9989C109.956 63.4391 110.214 64.0362 110.214 64.6588V67.9565C110.948 66.3476 112.028 64.1495 112.896 62.5871C112.9 62.2381 112.83 61.892 112.691 61.5694C112.552 61.2469 112.346 60.9545 112.087 60.7096C111.827 60.4647 111.519 60.2723 111.18 60.144C110.841 60.0156 110.479 59.9539 110.115 59.9625H88.386C88.0179 59.9491 87.6508 60.0069 87.3065 60.1325C86.9623 60.2581 86.648 60.4488 86.3824 60.6934C86.1169 60.938 85.9055 61.2313 85.7609 61.5559C85.6163 61.8804 85.5415 62.2296 85.5409 62.5825V77.3042C85.3319 77.4762 79.9342 82.7497 78.2884 84.2679C77.3077 85.1732 77.6438 86.9983 79.9278 86.8285C79.9278 86.8285 99.9427 86.878 100.939 86.8156C101.893 86.7553 102.822 86.5006 103.664 86.0686C105.142 85.2113 105.015 85.1047 112.827 77.6757C112.944 77.5075 112.906 77.6483 112.906 76.1864C110.678 77.4009 108.928 76.6897 108.343 75.3025ZM102.139 83.4639H82.9072C82.832 83.4639 82.7598 83.4353 82.7066 83.3843C82.6534 83.3333 82.6235 83.2642 82.6235 83.1921C82.6235 83.12 82.6534 83.0509 82.7066 82.9999C82.7598 82.9489 82.832 82.9203 82.9072 82.9203H102.139C102.214 82.9203 102.287 82.9489 102.34 82.9999C102.393 83.0509 102.423 83.12 102.423 83.1921C102.423 83.2642 102.393 83.3333 102.34 83.3843C102.287 83.4353 102.214 83.4639 102.139 83.4639ZM105.135 80.5188H85.6641C85.5888 80.5188 85.5167 80.4902 85.4635 80.4392C85.4103 80.3882 85.3804 80.3191 85.3804 80.247C85.3804 80.1749 85.4103 80.1057 85.4635 80.0548C85.5167 80.0038 85.5888 79.9752 85.6641 79.9752H105.135C105.21 79.9752 105.282 80.0038 105.335 80.0548C105.388 80.1057 105.418 80.1749 105.418 80.247C105.418 80.3191 105.388 80.3882 105.335 80.4392C105.282 80.4902 105.21 80.5188 105.135 80.5188Z" fill="#F7DA31"/>
<path d="M110.214 64.6589C110.214 64.3505 110.15 64.0452 110.027 63.7604C109.904 63.4755 109.723 63.2167 109.496 62.9987C109.268 62.7807 108.998 62.6079 108.701 62.4899C108.403 62.372 108.084 62.3114 107.763 62.3115H90.6835C90.3617 62.3114 90.043 62.372 89.7456 62.4899C89.4483 62.6079 89.1781 62.7807 88.9505 62.9987C88.7229 63.2167 88.5424 63.4755 88.4192 63.7604C88.296 64.0452 88.2326 64.3505 88.2326 64.6589V73.0282C88.2323 73.3367 88.2955 73.6423 88.4185 73.9275C88.5415 74.2126 88.722 74.4718 88.9496 74.69C89.1772 74.9083 89.4475 75.0815 89.745 75.1997C90.0425 75.3178 90.3614 75.3786 90.6835 75.3786C109.136 75.3786 107.912 75.4106 108.343 75.3025C107.802 74.0484 108.322 72.3406 108.855 71.0836C109.794 68.8648 109.51 69.4991 110.214 67.9565V64.6589Z" fill="white"/>
<path d="M12.8963 30.9387C16.6879 31.3726 20.295 32.75 23.3587 34.9338C29.0679 39.1679 33.1964 46.7759 46.5818 53.6323C46.9036 53.7975 47.1905 53.3277 46.8679 53.1632C31.8502 45.4708 28.6658 36.8152 21.0842 32.8925C18.5529 31.5545 15.7716 30.7067 12.8987 30.3974C12.5411 30.3684 12.5331 30.9022 12.8963 30.9387Z" fill="#43F7B2"/>
<path d="M150.396 50.3476C150.379 50.2905 150.343 50.2403 150.294 50.2044C150.244 50.1686 150.184 50.1491 150.122 50.1489C143.741 50.5935 136.402 50.8532 133.863 50.8867C133.801 50.8873 133.741 50.9071 133.692 50.943C133.643 50.9789 133.607 51.0291 133.59 51.0862C133.17 54.2695 133.093 57.4858 133.359 60.6844C126.445 59.8308 127.926 59.7775 120.457 59.2704C118.875 59.1504 117.285 59.3472 115.787 59.8483C115.138 60.0963 114.547 60.4667 114.051 60.9376C113.554 61.4085 113.161 61.9702 112.896 62.5894C111.391 65.3503 110.042 68.1865 108.855 71.0858C108.559 71.7819 108.335 72.5041 108.187 73.2421C107.581 76.2999 110.412 78.3336 114.147 75.3489C115.574 74.2396 116.803 72.9143 117.784 71.4254C117.759 72.7101 118.114 73.9753 118.81 75.0741C120.377 77.5212 124.491 76.8839 125.61 74.385C125.679 74.91 125.868 75.414 126.163 75.8608C126.459 76.3076 126.855 76.6861 127.321 76.9692C128.096 77.374 128.991 77.5145 129.86 77.3676C130.728 77.2206 131.519 76.795 132.102 76.1606C132.716 75.2949 132.948 74.2319 132.747 73.2033C134.836 73.9303 137.004 74.4338 139.209 74.7048C140.995 74.9457 142.816 74.7357 144.492 74.0957C147.607 72.834 149.578 69.6224 150.148 66.5692C151.11 61.2072 151.193 55.7343 150.396 50.3476ZM144.59 71.7429C145.235 71.3271 145.819 70.8306 146.328 70.2666C146.607 69.9574 147.075 70.4082 146.796 70.715C146.248 71.3175 145.618 71.8472 144.924 72.2904C144.568 72.518 144.241 71.9691 144.59 71.7429ZM139.837 62.2254C138.025 61.8289 136.187 61.5521 134.335 61.397C133.913 61.3612 133.911 60.727 134.335 60.7628C136.246 60.9217 138.143 61.2061 140.013 61.614C140.426 61.7016 140.252 62.313 139.837 62.2224V62.2254ZM125.919 70.4729C126.334 69.6908 126.632 68.8564 126.804 67.9946C126.883 67.5933 127.524 67.7661 127.44 68.1636C127.252 69.0784 126.931 69.9634 126.486 70.7927C126.296 71.1536 125.724 70.8323 125.919 70.4699V70.4729ZM118.236 67.9816L119.2 65.4203C119.344 65.0396 119.983 65.204 119.836 65.5893C119.515 66.4431 119.193 67.2969 118.872 68.1506C118.73 68.526 118.095 68.3631 118.236 67.9786V67.9816Z" fill="#FFD2D2"/>
<path d="M46.8003 77.49C38.1379 75.9596 30.1852 71.7521 25.8143 67.5743C21.046 63.015 17.8672 56.9009 11.0128 56.5416C10.648 56.5225 10.6488 57.0631 11.0128 57.0852C13.3633 57.252 15.595 58.1403 17.3768 59.6184C21.6683 63.098 22.9732 66.3438 27.8877 70.0435C33.3799 74.1103 39.8168 76.8448 46.6501 78.0138C47.0069 78.077 47.1595 77.5532 46.8003 77.49Z" fill="#43F7B2"/>
<path d="M33.2711 21.0375C33.0613 19.5239 31.3121 18.7907 29.9086 19.0137C29.3399 19.157 28.8187 19.4369 28.3944 19.827C27.9701 20.2171 27.6567 20.7045 27.484 21.2431C27.125 21.9464 26.9853 22.7339 27.0818 23.5113C27.1471 23.7732 27.2665 24.0198 27.4331 24.2367C27.5996 24.4535 27.8099 24.6361 28.0514 24.7737C28.5744 25.121 29.1888 25.3202 29.8245 25.3488C30.4601 25.3773 31.0913 25.234 31.6459 24.9351C33.0398 24.1623 33.4578 22.389 33.2711 21.0375ZM31.3487 22.8916C31.2556 23.0926 31.1045 23.2639 30.9131 23.3853C30.7218 23.5067 30.4981 23.5732 30.2686 23.5768C30.0336 23.5305 29.8215 23.4103 29.666 23.2352C29.5105 23.0601 29.4205 22.8403 29.4104 22.6106C29.3508 22.268 29.8975 22.1218 29.9571 22.4659C29.9905 22.657 30.0557 22.9989 30.3076 23.037C30.5595 23.075 30.751 22.791 30.8583 22.6182C30.878 22.5878 30.9038 22.5614 30.9343 22.5406C30.9647 22.5198 30.9991 22.505 31.0356 22.4971C31.0721 22.4891 31.1098 22.4882 31.1466 22.4944C31.1834 22.5005 31.2186 22.5136 31.2501 22.5329C31.3106 22.5699 31.3543 22.6273 31.3726 22.6938C31.3908 22.7602 31.3823 22.8309 31.3487 22.8916Z" fill="#FC9070"/>
<path d="M33.4578 15.2075C34.549 14.4111 35.2944 14.019 35.1458 13.2347C35.0719 12.9505 34.9058 12.6961 34.6715 12.508C34.4372 12.3199 34.1467 12.2078 33.8417 12.1878C33.0138 12.1327 32.1929 12.3642 31.5283 12.8403C31.5513 12.7779 31.5775 12.717 31.599 12.6545C31.9455 11.8368 31.7317 10.78 30.7995 10.5683C29.8554 10.4366 29.2355 11.2056 28.9931 12.0789C28.6513 13.0722 28.3661 14.0825 28.1388 15.1055C27.9953 15.5582 27.9256 16.0295 27.9322 16.5027C27.9838 16.9252 28.1921 17.3159 28.5191 17.6036C28.8461 17.8914 29.2701 18.057 29.7139 18.0704C31.3534 18.1153 32.9993 18.1305 34.6412 18.0704C35.2038 18.0506 35.8642 18.0163 36.144 17.4613C36.7336 16.2818 35.2753 14.826 33.4578 15.2075Z" fill="black"/>
<path d="M19.8198 118.943C16.9647 118.246 14.2428 117.121 11.7551 115.609C10.0887 114.594 8.71624 113.193 7.76481 111.536C6.19333 108.875 4.88713 106.078 3.86357 103.183L3.85562 103.17C3.74039 102.883 3.28184 102.982 3.30647 103.253C3.30647 106.534 2.89163 109.999 4.06701 113.152C5.37431 116.662 8.46733 118.67 12.212 119.186C14.7044 119.547 17.2306 119.644 19.7451 119.475C20.0471 119.454 20.1488 119.02 19.8198 118.943Z" fill="black"/>
<path d="M102.691 91.62C102.766 91.62 102.838 91.5914 102.891 91.5404C102.945 91.4895 102.974 91.4203 102.974 91.3482C102.974 91.2761 102.945 91.207 102.891 91.156C102.838 91.105 102.766 91.0764 102.691 91.0764H48.6186C48.5433 91.0764 48.4711 91.105 48.4179 91.156C48.3647 91.207 48.3348 91.2761 48.3348 91.3482C48.3348 91.4203 48.3647 91.4895 48.4179 91.5404C48.4711 91.5914 48.5433 91.62 48.6186 91.62C66.5735 91.9315 84.6317 91.933 102.691 91.62Z" fill="#F7DA31"/>
<path d="M94.0944 125.428C93.256 125.272 78.6539 122.737 76.6481 122.403V94.3694C76.6481 94.2973 76.6182 94.2282 76.565 94.1772C76.5118 94.1262 76.4396 94.0976 76.3644 94.0976C76.2891 94.0976 76.2169 94.1262 76.1637 94.1772C76.1105 94.2282 76.0806 94.2973 76.0806 94.3694V122.407C75.0722 122.596 71.4125 123.412 58.5374 125.217C58.1774 125.267 58.3307 125.791 58.6884 125.741C61.6463 125.327 72.2684 123.769 76.385 122.904C81.0587 123.596 89.4978 125.124 93.9434 125.95C94.3002 126.019 94.4528 125.495 94.0944 125.428Z" fill="#F7DA31"/>
<path d="M134.997 3.50247C135.171 3.19791 134.68 2.92 134.507 3.22837L130.398 10.4914C130.224 10.7959 130.716 11.0738 130.888 10.7655C131.352 9.94544 134.827 3.80703 134.997 3.50247Z" fill="black"/>
<path d="M133.257 12.2845L139.44 8.02595C139.734 7.82342 139.451 7.35135 139.154 7.55616L132.971 11.8147C132.677 12.0172 132.96 12.487 133.257 12.2845Z" fill="black"/>
<path d="M12.8677 15.9932C13.5662 13.1722 16.0465 9.06064 18.7692 7.59495C18.8297 7.55644 18.8726 7.4972 18.889 7.42938C18.9054 7.36156 18.8941 7.29029 18.8574 7.2302C18.8207 7.17011 18.7614 7.12575 18.6916 7.10622C18.6219 7.08669 18.547 7.09347 18.4823 7.12517C17.1761 7.87953 16.0583 8.89881 15.2073 10.1114C13.8965 11.8443 12.9183 13.787 12.3185 15.8485C12.239 16.1889 12.7834 16.3343 12.8677 15.9932Z" fill="black"/>
<path d="M15.8104 5.41886C16.0663 5.16836 15.6634 4.78233 15.4131 5.03816C12.5577 8.07735 10.3044 11.5897 8.76371 15.4031C8.6453 15.7351 9.19126 15.8774 9.31047 15.5478C10.8231 11.8242 13.0251 8.39281 15.8104 5.41886Z" fill="black"/>
<path d="M15.9956 70.8704C15.7938 70.5803 15.3019 70.8529 15.5061 71.1445C17.6183 74.1788 20.5402 76.6157 23.9682 78.2019C24.2956 78.3542 24.5841 77.8851 24.2543 77.7329C20.9115 76.1924 18.06 73.823 15.9956 70.8704Z" fill="black"/>
<path d="M22.7507 80.3611C23.0797 80.5073 23.3674 80.0406 23.0368 79.8914C19.6846 78.3296 16.8771 75.8699 14.9545 72.8103C14.7606 72.5149 14.2711 72.7867 14.4642 73.0852C16.4417 76.2211 19.3179 78.7466 22.7507 80.3611Z" fill="black"/>
<path d="M122.987 49.0867C122.688 47.7527 120.105 36.2236 120.102 36.2068C120.039 35.9267 119.64 35.9716 119.555 36.2068C119.257 37.0261 114.831 49.1682 114.711 49.5313C114.608 49.8428 114.949 50.1526 115.125 50.3948C118.185 54.6883 117.995 54.4409 118.065 54.4873C118.089 54.5134 118.119 54.5343 118.152 54.5486C118.185 54.5629 118.221 54.5703 118.257 54.5703C118.293 54.5703 118.329 54.5629 118.362 54.5486C118.396 54.5343 118.425 54.5134 118.449 54.4873C119.414 53.4137 122.392 50.2996 122.877 49.7841C123.129 49.51 123.074 49.475 122.987 49.0867Z" fill="#2755A0"/>
<path d="M30.8584 22.6135C30.7511 22.7864 30.558 23.0704 30.3076 23.0323C30.0573 22.9942 29.9897 22.6516 29.9571 22.4613C29.8975 22.1171 29.3508 22.2633 29.4104 22.6059C29.4205 22.8356 29.5105 23.0555 29.666 23.2305C29.8215 23.4056 30.0337 23.5258 30.2687 23.5721C30.4982 23.5685 30.7218 23.5021 30.9131 23.3807C31.1045 23.2592 31.2556 23.0879 31.3487 22.8869C31.3818 22.8249 31.3888 22.7531 31.3685 22.6863C31.3481 22.6195 31.3018 22.5627 31.2391 22.5275C31.1763 22.4924 31.102 22.4815 31.0312 22.4972C30.9604 22.5129 30.8985 22.554 30.8584 22.612V22.6135Z" fill="black"/>
<path d="M71.2861 120.149C67.4339 118.449 63.282 117.46 59.0476 117.233C54.4901 117.107 49.9759 118.112 45.9428 120.149C45.8907 120.18 45.8505 120.227 45.8281 120.281C45.8058 120.336 45.8024 120.396 45.8185 120.453C45.8346 120.51 45.8694 120.56 45.9177 120.597C45.966 120.633 46.0252 120.654 46.0866 120.655H71.1431C71.4053 120.655 71.5539 120.264 71.2861 120.149Z" fill="black"/>
<path d="M123.158 114.813C117.992 112.597 111.944 111.298 106.31 112.14C104.056 111.311 101.714 110.721 99.3268 110.38C94.7654 109.646 90.0804 110.154 85.8055 111.846C84.8947 112.182 84.0045 112.567 83.1393 112.999C83.0871 113.031 83.0468 113.077 83.0243 113.132C83.0018 113.187 82.9983 113.248 83.0143 113.305C83.0303 113.362 83.065 113.413 83.1132 113.449C83.1614 113.486 83.2207 113.507 83.2823 113.509H100.871C99.8241 113.883 98.8026 114.318 97.8121 114.813C97.76 114.844 97.7198 114.891 97.6974 114.945C97.675 115 97.6717 115.061 97.6878 115.117C97.7039 115.174 97.7387 115.224 97.787 115.261C97.8353 115.297 97.8945 115.318 97.9559 115.319H123.016C123.277 115.319 123.426 114.928 123.158 114.813Z" fill="black"/>
<path d="M143.246 80.314C143.284 79.9661 142.718 79.9691 142.678 80.314C142.367 82.9121 141.428 85.4047 139.934 87.5935C138.44 89.7822 136.433 91.6065 134.074 92.9213C133.999 92.9815 133.939 93.0565 133.897 93.1411C133.855 93.2257 133.832 93.318 133.831 93.4116C135.393 99.0749 137.076 107.025 138.184 112.721C138.251 113.064 138.799 112.919 138.732 112.576C137.439 105.938 135.979 99.5074 134.403 93.3659C136.837 92.0016 138.904 90.1108 140.44 87.8446C141.975 85.5784 142.936 82.9995 143.246 80.314Z" fill="#F7DA31"/>
<path d="M5.88927 92.9509C6.1706 93.1687 6.57352 92.7872 6.28663 92.5702C4.13053 90.8786 2.49046 88.6612 1.53914 86.1516C0.587824 83.6419 0.360459 80.933 0.880994 78.31C0.952518 77.9681 0.404167 77.8219 0.333438 78.1653C-0.212891 80.8807 0.0147696 83.687 0.992469 86.289C1.97017 88.8909 3.66176 91.1923 5.88927 92.9509Z" fill="#F7DA31"/>
<path d="M110.495 85.7473C110.98 84.9773 111.451 84.1991 111.908 83.4128C111.946 83.3506 111.956 83.2764 111.937 83.2066C111.918 83.1369 111.871 83.0773 111.806 83.0409C111.741 83.0046 111.663 82.9944 111.59 83.0128C111.518 83.0311 111.455 83.0764 111.417 83.1387C110.931 83.9078 110.464 84.6882 110.004 85.4732C109.986 85.504 109.973 85.5381 109.968 85.5735C109.963 85.6089 109.966 85.6449 109.975 85.6794C109.985 85.714 110.001 85.7464 110.024 85.7748C110.046 85.8032 110.074 85.8271 110.107 85.8451C110.139 85.8631 110.174 85.8749 110.211 85.8797C110.248 85.8845 110.286 85.8823 110.322 85.8732C110.358 85.8642 110.392 85.8484 110.421 85.8268C110.451 85.8051 110.476 85.7781 110.495 85.7473Z" fill="#2755A0"/>
<path d="M62.9981 87.5191C63.1626 87.832 63.6521 87.5572 63.4876 87.245C63.0744 86.4618 62.6609 85.6783 62.2471 84.8946C62.0826 84.5816 61.593 84.8565 61.7575 85.1687C62.1708 85.9514 62.5843 86.7349 62.9981 87.5191Z" fill="#C0C195"/>
<path d="M18.495 95.1864C18.1572 95.0547 18.0102 95.5793 18.344 95.711C19.3298 96.1007 20.2194 96.6841 20.9554 97.4234C21.2089 97.677 21.6103 97.2917 21.3575 97.0427C20.5496 96.2387 19.5743 95.6063 18.495 95.1864Z" fill="#77751E"/>
<path d="M43.197 96.308C43.3393 96.6293 43.8328 96.3521 43.6866 96.0339C43.3274 95.2247 42.9679 94.4159 42.6081 93.6073C42.4659 93.286 41.9763 93.5631 42.1186 93.8814C42.4778 94.69 42.8373 95.4988 43.197 96.308Z" fill="#77751E"/>
<path d="M105.135 79.9752H85.6641C85.5888 79.9752 85.5167 80.0039 85.4635 80.0548C85.4103 80.1058 85.3804 80.1749 85.3804 80.247C85.3804 80.3191 85.4103 80.3883 85.4635 80.4392C85.5167 80.4902 85.5888 80.5189 85.6641 80.5189H105.135C105.21 80.5189 105.282 80.4902 105.335 80.4392C105.388 80.3883 105.418 80.3191 105.418 80.247C105.418 80.1749 105.388 80.1058 105.335 80.0548C105.282 80.0039 105.21 79.9752 105.135 79.9752Z" fill="white"/>
<path d="M102.139 82.9203H82.9072C82.8319 82.9203 82.7598 82.949 82.7066 83C82.6534 83.0509 82.6235 83.1201 82.6235 83.1922C82.6235 83.2643 82.6534 83.3334 82.7066 83.3844C82.7598 83.4353 82.8319 83.464 82.9072 83.464H102.139C102.214 83.464 102.287 83.4353 102.34 83.3844C102.393 83.3334 102.423 83.2643 102.423 83.1922C102.423 83.1201 102.393 83.0509 102.34 83C102.287 82.949 102.214 82.9203 102.139 82.9203Z" fill="white"/>
<path d="M77.0653 31.1412C76.7533 32.3989 76.1126 33.5599 75.2034 34.5151C74.2942 35.4702 73.1464 36.1881 71.8678 36.6012C71.5229 36.7116 71.6708 37.2362 72.0181 37.1251C73.391 36.6865 74.6249 35.9204 75.6035 34.8989C76.5822 33.8773 77.2734 32.634 77.612 31.2859C77.6971 30.9455 77.1495 30.8009 77.0653 31.1412Z" fill="#FF4848"/>
<path d="M62.53 63.4429L65.2424 63.0622C65.6024 63.0112 65.4498 62.4874 65.0922 62.5376L62.379 62.9183C62.019 62.9678 62.1724 63.4939 62.53 63.4429Z" fill="#FF4848"/>
<path d="M62.6882 71.7239C62.6129 71.7239 62.5408 71.7525 62.4875 71.8035C62.4343 71.8545 62.4044 71.9236 62.4044 71.9957C62.4044 72.0678 62.4343 72.1369 62.4875 72.1879C62.5408 72.2389 62.6129 72.2675 62.6882 72.2675H65.4053C65.4805 72.2675 65.5527 72.2389 65.6059 72.1879C65.6591 72.1369 65.689 72.0678 65.689 71.9957C65.689 71.9236 65.6591 71.8545 65.6059 71.8035C65.5527 71.7525 65.4805 71.7239 65.4053 71.7239H62.6882Z" fill="#FF4848"/>
<path d="M32.4096 68.5793C32.7315 68.743 33.0192 68.2747 32.6957 68.1095C31.7141 67.6162 30.8557 66.925 30.1797 66.0834C29.9603 65.8093 29.4644 66.0789 29.6893 66.3575C30.4179 67.2777 31.346 68.0357 32.4096 68.5793Z" fill="#43F7B2"/>
<path d="M118.236 67.9785C118.091 68.3592 118.73 68.529 118.872 68.1476C119.193 67.2933 119.514 66.4395 119.836 65.5862C119.981 65.201 119.342 65.0357 119.2 65.4172L118.236 67.9785Z" fill="#FC9070"/>
<path d="M127.443 68.1605C127.522 67.7616 126.887 67.5903 126.807 67.9915C126.635 68.8534 126.337 69.6877 125.922 70.4699C125.729 70.8323 126.299 71.1551 126.494 70.7897C126.937 69.9601 127.256 69.0751 127.443 68.1605Z" fill="#FC9070"/>
<path d="M140.013 61.611C138.143 61.2031 136.246 60.9187 134.335 60.7598C133.911 60.724 133.913 61.3582 134.335 61.394C136.187 61.5491 138.025 61.8259 139.837 62.2224C140.252 62.313 140.426 61.7016 140.013 61.611Z" fill="#FC9070"/>
<path d="M146.328 70.2666C145.819 70.8306 145.235 71.3271 144.59 71.7429C144.238 71.9713 144.568 72.518 144.924 72.2904C145.618 71.8472 146.248 71.3174 146.796 70.715C147.075 70.4082 146.607 69.9574 146.328 70.2666Z" fill="#FC9070"/>
<path d="M89.9476 57.9494L89.845 55.8358C89.8276 55.4878 89.2601 55.4856 89.2776 55.8358L89.3801 57.9494C89.3976 58.2982 89.9619 58.2997 89.9476 57.9494Z" fill="#FF4848"/>
<path d="M105.459 47.9034C105.668 49.646 105.918 51.384 106.209 53.1175C106.266 53.4624 106.814 53.3162 106.756 52.9728C106.473 51.2886 106.23 49.5988 106.027 47.9034C105.988 47.56 105.42 47.5555 105.459 47.9034Z" fill="#78B5FF"/>
<path d="M117.427 23.6597C118.204 23.7864 118.994 23.8184 119.779 23.7549C119.915 23.742 120.065 23.7084 120.211 23.6848C120.22 24.4458 120.089 25.2022 119.824 25.9196C119.811 25.9665 119.81 26.0157 119.82 26.0633C119.83 26.1108 119.851 26.1557 119.881 26.1944C119.912 26.233 119.951 26.2646 119.996 26.2866C120.041 26.3087 120.091 26.3206 120.142 26.3216C120.956 26.3468 121.767 26.1986 122.514 25.8876C122.961 25.702 123.357 25.4175 123.667 25.0574C123.977 24.6974 124.194 24.2719 124.3 23.816C124.406 23.3601 124.397 22.8866 124.275 22.4345C124.153 21.9824 123.921 21.5644 123.597 21.2149C121.778 19.1804 117.07 19.5931 117.184 23.3506C117.184 23.4204 117.208 23.4884 117.252 23.5442C117.295 23.6 117.357 23.6405 117.427 23.6597ZM119.392 20.8562C120.028 20.6201 120.723 20.5711 121.388 20.7154C122.054 20.8597 122.659 21.1908 123.127 21.6664C123.38 21.95 123.557 22.2875 123.646 22.6507C123.734 23.0139 123.73 23.392 123.634 23.7534C123.538 24.1147 123.353 24.4488 123.094 24.7274C122.836 25.006 122.511 25.2211 122.148 25.3546C121.643 25.5428 121.111 25.6548 120.571 25.6866C120.853 24.9079 120.935 24.0754 120.809 23.26C120.789 23.1937 120.748 23.1353 120.691 23.0934C120.633 23.0514 120.564 23.0282 120.492 23.027C120.038 23.0992 119.579 23.1421 119.119 23.1557C118.698 23.1585 118.276 23.1331 117.859 23.0795C117.849 22.6038 117.991 22.1366 118.265 21.7397C118.538 21.3427 118.931 21.0346 119.392 20.8562Z" fill="black"/>
<path d="M133.028 29.9649C131.439 24.3306 130.601 20.3637 128.122 17.4665C126.334 15.3757 123.455 13.8742 120.578 14.3402C117.629 14.8176 115.572 17.3264 114.74 19.9342C114.278 21.5105 114.06 23.1435 114.093 24.7805C114.092 26.2406 114.19 27.6993 114.387 29.1472C108.258 30.2284 105.34 31.8699 102.529 34.5204C101.585 35.4112 100.633 36.2868 99.7535 37.2401C97.7023 39.5527 95.8381 42.0118 94.1771 44.596C92.4559 47.3443 90.9524 50.2124 89.679 53.1762C88.1711 47.2012 86.1848 41.3465 83.7377 35.664C85.6632 34.0456 87.3911 32.2234 88.8882 30.2322C89.4282 29.6433 89.7831 28.92 89.9118 28.1459C89.9304 27.79 89.8326 27.4374 89.6322 27.1372C89.4318 26.8369 89.1387 26.604 88.7937 26.4708C86.2736 25.4407 83.996 27.7591 82.2707 28.8624C80.876 29.7532 79.1936 30.1507 78.0523 28.9743C77.5828 28.4695 77.1712 27.9179 76.8245 27.3289C76.0195 26.0247 72.6777 21.0421 71.9052 19.8025C70.3325 17.2838 67.8737 16.9792 66.6077 18.2881C66.1779 18.7526 65.8744 19.3115 65.724 19.9152C65.5735 20.519 65.5809 21.149 65.7454 21.7494C66.2671 23.2815 66.9846 24.7459 67.8816 26.1092C68.1653 26.6269 68.79 27.4576 68.1129 27.9365C67.6162 28.2875 66.893 27.8437 66.444 27.5992C64.183 26.3726 62.1525 23.8554 59.6055 23.4763C57.1872 23.0803 55.8433 25.816 56.9829 27.8969C58.3991 30.2343 60.2828 32.281 62.5261 33.9196C62.708 34.0597 62.9711 34.2196 62.8439 34.4792C62.7319 34.7077 62.441 34.6765 62.2193 34.6696C59.8447 34.5759 57.2833 32.9184 54.8706 33.4125C54.5164 33.4813 54.1874 33.6383 53.9168 33.8676C53.6461 34.097 53.4433 34.3907 53.3288 34.7191C53.1439 35.4041 53.2212 36.1299 53.5466 36.765C54.2904 38.0243 55.4865 38.9816 56.9122 39.4588C58.4341 40.0679 60.0251 40.4715 61.3769 41.4148C66.1857 44.7703 66.7086 52.044 68.0787 56.6482C66.2753 57.4271 64.3273 57.8519 62.3496 57.8976C57.5591 57.8976 52.4578 56.6672 48.5351 53.8219V37.2957C48.5589 35.6241 47.9297 34.0043 46.7708 32.7545C45.612 31.5046 44.0074 30.715 42.272 30.5405C41.2891 30.4716 40.303 30.4533 39.3181 30.4857C39.2044 30.4857 12.8542 30.3479 12.8081 30.3578C11.2434 30.3692 9.7272 30.8788 8.49797 31.8063C7.26875 32.7338 6.39634 34.0266 6.01804 35.4813C5.82944 36.4223 5.76086 37.3819 5.8138 38.3388C5.8138 88.3947 5.7391 84.7187 5.96798 85.7611C6.92163 90.0736 11.31 93.0355 15.4251 94.974C13.4144 95.6973 11.372 96.3445 9.39637 97.1524C8.19952 97.54 7.10844 98.1795 6.20321 99.0239C5.64577 99.6097 5.31991 100.364 5.28214 101.156C5.17406 104.278 8.71689 109.998 10.8793 112.433C11.515 113.23 12.35 113.86 13.3071 114.266C13.8889 114.392 14.4913 114.403 15.0778 114.299C15.8423 114.184 16.5971 114.016 17.3363 113.797C25.3685 111.612 35.819 108.68 42.2434 103.017C42.8363 103.584 42.6535 103.328 45.9325 112.345C46.1962 113.232 46.634 114.063 47.2223 114.793C48.5979 116.311 50.9837 116.214 52.8933 116.24C55.2803 116.28 57.6678 116.199 60.0458 115.997C63.0752 115.732 66.5568 115.031 68.306 112.662C68.8643 111.773 69.1404 110.747 69.1007 109.709C69.3411 103.668 68.9232 97.6183 67.8538 91.6596H67.1815C68.2488 97.6329 68.6696 103.696 68.4371 109.752C68.4762 110.768 68.1595 111.767 67.5375 112.59C66.258 114.062 64.1663 114.736 62.2654 115.078C58.8667 115.555 55.4288 115.725 51.9969 115.587C51.0317 115.597 50.0695 115.482 49.136 115.247C48.7007 115.105 48.2997 114.881 47.9571 114.587C47.6145 114.293 47.3373 113.936 47.142 113.538C46.2257 111.604 46.3473 111.253 43.6453 104.144C43.4446 103.57 43.1251 103.041 42.7059 102.589C44.3491 101.177 45.5016 99.317 46.0088 97.259C46.1279 96.6842 46.1621 96.0962 46.1105 95.5123C45.968 94.2682 45.5782 93.0617 44.9621 91.9581C42.7824 87.9107 39.9231 84.2341 36.4984 81.0754C38.37 80.6658 46.7923 78.7105 47.2048 78.6138L55.3562 80.7648C58.1472 81.501 61.245 82.1185 63.4789 84.0076C65.5777 85.7816 66.4988 88.41 67.0551 91.0277H48.6186C48.5336 91.0316 48.4535 91.0668 48.3948 91.1258C48.3361 91.1849 48.3034 91.2633 48.3034 91.3448C48.3034 91.4263 48.3361 91.5047 48.3948 91.5637C48.4535 91.6228 48.5336 91.6579 48.6186 91.6619H84.7637C84.7828 94.3711 84.9702 97.0768 85.3248 99.7647C85.3756 100.415 85.4714 101.062 85.6116 101.7C86.3174 104.618 89.4453 107.424 93.5008 107.743C95.3781 107.879 97.2642 107.634 99.0355 107.022C100.807 106.411 102.423 105.448 103.779 104.196C104.458 105.25 105.357 106.157 106.421 106.861C107.307 107.468 108.293 107.929 109.338 108.224C113.996 109.559 120.066 109.782 124.05 107.07C128.222 104.233 128.047 100.273 131.309 92.989C131.718 92.0104 132.281 91.0973 132.978 90.2815C134.425 88.6704 137.899 86.5735 139.289 82.9964C140.302 80.3894 139.999 77.4618 139.275 74.7565C141.049 74.9894 142.857 74.7761 144.52 74.1375C147.748 72.7876 149.642 69.5341 150.197 66.5844C151.499 59.6488 151.395 50.4161 148.559 43.4737C145.844 36.8343 139.911 32.1714 133.028 29.9649ZM114.776 23.8318C114.875 21.4654 115.39 18.981 117.019 17.1209C117.673 16.2973 118.551 15.6618 119.557 15.2838C120.563 14.9058 121.658 14.7999 122.722 14.9775C124.955 15.4457 126.908 16.734 128.161 18.566C130.068 21.2248 130.783 24.4135 132.278 29.738C128.877 28.8005 125.346 28.3686 121.808 28.4573C119.536 28.4821 117.269 28.6741 115.028 29.0314C114.792 27.308 114.708 25.5687 114.776 23.8318ZM122.695 29.0969C122.586 29.8314 122.394 30.5525 122.124 31.2479C121.911 31.771 121.54 32.629 120.817 32.4783C119.663 32.2377 119.35 30.3258 119.369 29.189C120.476 29.12 121.585 29.0893 122.695 29.0969ZM62.0206 41.0897C60.7282 40.1965 59.2852 39.5228 57.7546 39.0979C56.3149 38.6958 55.0658 37.8266 54.2213 36.6393C54.0484 36.3573 53.9409 36.0428 53.906 35.7174C53.8712 35.392 53.9099 35.0632 54.0195 34.7534C54.203 34.4687 54.4684 34.2408 54.7837 34.097C55.099 33.9532 55.4509 33.8995 55.7972 33.9425C57.8142 33.925 59.4529 35.0259 61.9356 35.2856C62.5364 35.3373 63.2071 35.3137 63.4638 34.694C63.5171 34.5662 63.5411 34.429 63.5342 34.2916C63.5274 34.1542 63.4898 34.0198 63.4241 33.8975C63.2317 33.6388 62.9888 33.4183 62.7088 33.2481C60.8673 31.8397 59.2737 30.1572 57.989 28.2647C57.6175 27.7873 57.3652 27.2345 57.2515 26.649C57.1888 26.1706 57.2556 25.6847 57.4455 25.2381C57.6198 24.7906 57.9724 24.4276 58.4258 24.2291C58.8793 24.0305 59.3965 24.0125 59.8638 24.179C61.1181 24.5909 62.2689 25.2488 63.2429 26.1107C64.2302 26.965 65.314 27.7109 66.4742 28.3348C66.7383 28.5085 67.0417 28.6198 67.3594 28.6595C67.6772 28.6992 68.0002 28.6662 68.302 28.5632C68.5886 28.4238 68.8178 28.196 68.9527 27.9166C69.0877 27.6372 69.1205 27.3223 69.0459 27.0229C68.3052 24.8392 65.0509 21.6344 66.7849 19.0845C67.0605 18.658 67.492 18.345 67.9953 18.2066C68.3168 18.1486 68.6473 18.1531 68.967 18.2198C69.2867 18.2865 69.5892 18.4141 69.8565 18.5949C70.4778 19.0135 70.9954 19.5578 71.3728 20.1893C76.8126 29.0116 76.7522 28.4657 77.3331 29.1685C77.7952 29.725 78.4388 30.1167 79.161 30.2809C81.6588 30.6959 83.4921 28.6149 85.4797 27.4637C87.5221 26.2828 89.2149 26.9825 89.2506 27.9883C89.148 28.7517 88.7906 29.4629 88.2318 30.0159C86.7391 31.9719 85.0204 33.7598 83.1083 35.3457C83.0665 35.3842 83.0364 35.433 83.0215 35.4866C83.0065 35.5403 83.0071 35.5969 83.0233 35.6503C85.6308 41.6836 87.7212 47.9104 89.2737 54.2688C89.3531 54.6031 89.8006 54.5345 89.9095 54.2688C90.6146 52.5968 91.3828 50.9524 92.2141 49.3357C92.2936 49.3692 105.231 55.0675 105.711 55.2853C104.945 56.9073 104.021 58.4559 102.949 59.91H88.3852C88.0196 59.8965 87.6547 59.9522 87.3116 60.0739C86.9684 60.1955 86.6536 60.3807 86.3851 60.6189C86.1166 60.8571 85.8997 61.1436 85.7469 61.4621C85.594 61.7806 85.5081 62.1249 85.494 62.4752V68.7857C83.8636 68.6463 82.2546 68.3325 80.6972 67.8499C82.9025 66.4908 82.6839 63.2883 78.3551 63.0995C76.4057 63.0142 75.2097 63.2419 72.5696 63.2518C72.0282 62.7299 71.533 62.1658 71.0891 61.5653C75.0841 59.4014 75.034 59.444 75.5077 59.1418C77.5342 57.8474 77.4802 56.0962 76.5201 55.3005C76.011 54.9711 75.3934 54.8324 74.7845 54.9107C72.6894 55.1348 70.6383 55.6437 68.693 56.422C67.2729 51.629 66.8747 44.8373 62.0206 41.0897ZM107.758 61.994C106.137 61.9764 91.4854 61.994 91.4854 61.994C90.736 61.9187 89.9795 62.0411 89.2975 62.348C88.8757 62.5842 88.5253 62.9214 88.2807 63.3266C88.036 63.7317 87.9055 64.1908 87.902 64.6589C87.902 64.6589 87.8639 72.4152 87.902 73.1546C87.9419 73.8591 88.2696 74.5203 88.8141 74.9953C89.3587 75.4702 90.0764 75.7209 90.8122 75.6931C109.25 75.5179 107.936 75.7311 108.443 75.604C108.837 76.2022 109.456 76.632 110.173 76.8039C110.889 76.9757 111.647 76.8765 112.289 76.5268V77.1359C112.289 77.1359 86.4048 77.1176 86.1505 77.1207V62.5825C86.1573 62.0443 86.3842 61.5301 86.7825 61.1504C87.1807 60.7707 87.7185 60.5558 88.2803 60.5519H109.807C110.135 60.534 110.464 60.5629 110.783 60.6379C111.227 60.7713 111.613 61.0389 111.885 61.4005C112.156 61.7621 112.298 62.1982 112.289 62.6434V63.6234C111.676 64.7822 111.096 65.957 110.54 67.1418V64.7952C110.557 64.4344 110.498 64.0741 110.366 63.7359C110.233 63.3977 110.031 63.0885 109.772 62.8269C109.512 62.5653 109.199 62.3567 108.853 62.2136C108.507 62.0705 108.135 61.9958 107.758 61.994ZM108.189 75.0139C107.831 75.0862 108.726 75.0626 91.5513 75.0619C90.9183 75.1337 90.2766 75.0518 89.6853 74.8236C89.3458 74.6468 89.0624 74.3855 88.865 74.0672C88.6676 73.7489 88.5636 73.3855 88.564 73.0152V64.6619C88.5642 64.3774 88.6264 64.096 88.7468 63.8359C88.8671 63.5758 89.0429 63.3426 89.2628 63.1514C89.4828 62.9602 89.742 62.8152 90.0239 62.7256C90.3057 62.636 90.6041 62.6039 90.8997 62.6313C90.8997 62.6313 107.609 62.6313 107.754 62.6313C108.056 62.6298 108.355 62.6898 108.631 62.8075C108.907 62.9251 109.154 63.0977 109.356 63.3137C109.557 63.5297 109.708 63.7842 109.799 64.0603C109.889 64.3365 109.918 64.628 109.882 64.9155V68.5702C108.685 71.2556 108.351 72.1213 108.142 73.2337C108.027 73.8227 108.043 74.4282 108.189 75.0109V75.0139ZM103.753 59.9207C104.469 58.908 106.296 55.9987 106.455 55.2419C106.815 56.7852 107.055 58.3514 107.268 59.9207H103.753ZM71.639 63.2449C70.6226 63.2219 69.6104 63.1103 68.6151 62.9114L70.5137 61.8828C70.8575 62.3589 71.2334 62.8129 71.639 63.2419V63.2449ZM60.9311 58.4908C66.9113 58.9803 69.2144 56.0017 74.7058 55.554C74.9705 55.4962 75.2456 55.4982 75.5094 55.5599C75.7731 55.6217 76.0182 55.7414 76.2253 55.9096C76.466 56.309 76.5342 56.7828 76.4154 57.2297C76.2966 57.6766 76.0003 58.0614 75.5895 58.3019C75.0624 58.6848 74.5004 59.0214 73.9103 59.3077C73.9103 59.3077 68.9497 61.9612 67.5526 62.7538C67.4979 62.7864 67.4542 62.8335 67.4266 62.8892C67.3991 62.945 67.3889 63.0073 67.3973 63.0685C67.4056 63.1297 67.4322 63.1872 67.4739 63.2343C67.5155 63.2814 67.5704 63.316 67.6321 63.334C73.5606 64.9474 80.5565 62.1759 81.3909 65.4492C81.3982 65.9033 81.2618 66.3489 80.9997 66.7272C80.7375 67.1056 80.3619 67.399 79.9223 67.5689C78.8921 67.9895 77.8152 68.296 76.7125 68.4826C69.5799 70.1813 70.2324 70.0123 69.8271 70.1417C67.7799 70.7996 67.7418 72.4952 68.8941 73.1515C71.2377 74.7367 73.4072 75.0938 75.7977 77.7131C76.1453 78.0182 76.3897 78.4159 76.4995 78.8552C76.5069 79.2701 76.3986 79.6794 76.1857 80.0408C75.9727 80.4022 75.663 80.7026 75.2883 80.9109C74.7539 81.1415 74.1686 81.2432 73.5837 81.2071C69.1333 81.1988 66.6021 78.6328 58.9014 78.3945C56.1048 78.2506 53.9026 78.2795 51.0464 78.0618C52.2528 68.8961 52.1153 63.9508 53.3702 57.0357C55.8053 57.8632 58.3513 58.3532 60.9311 58.4908ZM35.1204 31.0986C34.7068 34.198 34.0717 37.2666 33.2195 40.2826C30.9434 37.432 29.2673 34.0247 27.608 31.0598L35.1204 31.0986ZM44.0561 91.6231C44.7785 92.8229 45.2533 94.1445 45.4548 95.5161C45.6448 97.9153 44.3136 100.066 42.6463 101.754C36.2354 107.903 26.0742 110.764 17.5144 113.094C16.4654 113.441 15.3734 113.655 14.2664 113.73C14.0224 113.734 13.7785 113.715 13.5384 113.673C13.0168 113.487 12.5456 113.192 12.1596 112.808C10.2611 110.855 8.69881 108.625 7.53118 106.202C6.83039 104.912 6.32008 103.535 6.01486 102.111C5.85898 101.377 5.97208 100.615 6.33507 99.9518C6.69806 99.289 7.28869 98.7665 8.00721 98.4726C9.11831 97.9097 10.273 97.4297 11.461 97.0366C12.4695 96.6719 15.735 95.5481 16.3477 95.3197C16.5822 95.2321 16.7109 94.8674 16.4272 94.7395C14.5828 93.9373 12.835 92.9453 11.2147 91.7807C9.62688 90.6754 8.31123 89.2501 7.36031 87.6052C6.93195 86.8108 6.64891 85.9519 6.52348 85.0659C13.4041 85.1725 29.4756 82.5236 35.7403 81.2368C39.0544 84.2676 41.8594 87.7711 44.0561 91.6231ZM47.9653 77.7877C47.56 77.8829 38.966 79.8823 37.3655 80.2401C30.1336 81.8581 13.6505 84.5154 6.4758 84.4134V37.1883C6.46297 36.3745 6.61993 35.5665 6.93746 34.8116C7.25499 34.0567 7.7267 33.3701 8.3249 32.7922C8.9231 32.2144 9.63575 31.7568 10.421 31.4463C11.2063 31.1359 12.0484 30.9789 12.8979 30.9844C16.6835 31.407 20.2847 32.7831 23.3348 34.9726C29.4319 39.6103 33.2759 46.8703 46.5579 53.6719C46.9338 53.8645 47.2684 53.317 46.8925 53.1236C44.4255 51.8606 42.0524 50.4359 39.7901 48.8598C28.2446 40.805 26.8935 33.9029 16.4105 31.0019L26.8069 31.0552C28.839 34.6536 30.3656 37.9078 32.9111 40.9534C33.0446 41.1126 33.1495 41.2892 33.3879 41.2778C33.4597 41.2761 33.529 41.2527 33.5861 41.211C33.6432 41.1693 33.6851 41.1114 33.7058 41.0456C34.6887 37.7904 35.4004 34.4655 35.8341 31.1024L41.4439 31.1314C42.2823 31.1257 43.1136 31.2782 43.8904 31.5803C44.6672 31.8824 45.3743 32.3281 45.9714 32.8921C46.5684 33.456 47.0436 34.1271 47.3699 34.867C47.6962 35.6069 47.8672 36.4011 47.8731 37.2043V53.9262C47.854 53.9791 47.8545 54.0368 47.8745 54.0894C47.8944 54.1421 47.9327 54.1866 47.9828 54.2155C49.4355 55.2611 51.0212 56.1251 52.7018 56.7867C51.4827 63.5168 51.5098 69.1077 50.3479 78.0047C48.5741 77.841 48.354 77.6742 47.9653 77.7877ZM84.7716 91.0315H67.7346C66.9947 87.3988 65.6683 84.2801 62.3306 82.449C59.9679 81.2147 58.6614 80.9498 49.4658 78.5498C54.3405 79.1209 59.1748 78.5704 63.8715 79.5739C67.741 80.4008 68.7884 81.3731 72.8573 81.8102C73.5618 81.8849 74.2744 81.8466 74.9657 81.6967C75.5747 81.5289 76.1147 81.1846 76.5115 80.7112C76.9083 80.2378 77.1426 79.6584 77.1821 79.0524C77.1782 78.0877 76.42 77.3841 75.7628 76.74C73.8555 74.8555 72.3201 74.439 69.8628 72.9871C69.502 72.7739 68.902 72.5256 68.8154 72.0795C68.7972 71.8743 68.8398 71.6684 68.9382 71.4854C69.0365 71.3024 69.1868 71.1496 69.3717 71.0447C70.0218 70.6823 69.8088 70.782 76.1729 69.2669C77.4465 69.0247 78.6993 68.691 79.9207 68.2687C81.7206 68.8832 83.5957 69.2729 85.4996 69.4283V77.2874C85.173 77.5745 80.0646 82.5685 78.2614 84.236C78.0505 84.416 77.8939 84.6469 77.8078 84.9046C77.7217 85.1623 77.7094 85.4374 77.7721 85.7012C77.8347 85.965 77.9701 86.208 78.1641 86.4046C78.358 86.6013 78.6035 86.7445 78.8749 86.8194C79.224 86.8818 79.5801 86.9002 79.9342 86.8742L84.9902 86.8841C84.8479 88.3224 84.7963 89.6031 84.7716 91.0315ZM79.3287 86.24C79.0856 86.2429 78.8512 86.1538 78.6763 85.9922C78.5013 85.8305 78.3999 85.6093 78.3941 85.3765C78.3845 84.871 78.7565 84.6509 79.2802 84.1484L85.9264 77.7702C89.3587 77.7702 110.136 77.8014 111.824 77.8021C104.239 85.0263 104.539 84.9456 103.219 85.6263C102.554 85.949 101.831 86.1487 101.089 86.2149C100.545 86.2621 83.249 86.227 79.3287 86.24ZM103.514 96.7305C103.396 97.4402 103.2 98.8518 103.14 99.6581C102.965 100.966 103.076 102.294 103.466 103.558C102.114 104.941 100.406 105.958 98.5138 106.508C92.4072 108.468 87.6707 105.816 86.3189 101.788C86.1698 101.194 86.0673 100.591 86.0122 99.9825C85.6322 97.2257 85.435 94.4487 85.4217 91.668H102.692C102.777 91.664 102.857 91.6289 102.915 91.5698C102.974 91.5108 103.007 91.4324 103.007 91.3509C103.007 91.2694 102.974 91.191 102.915 91.1319C102.857 91.0729 102.777 91.0378 102.692 91.0338H85.4265C85.4487 89.649 85.5253 88.2671 85.6562 86.8879C91.6538 86.8971 100.292 86.9039 100.938 86.8628C101.899 86.8025 102.836 86.5457 103.686 86.1098C104.737 85.4699 105.686 84.6889 106.505 83.7906C106.112 84.8504 105.775 85.9286 105.495 87.0212C105.019 88.8554 103.527 96.6544 103.514 96.7305ZM139.276 79.2427C139.36 85.1519 134.563 87.5831 132.521 89.817C129.788 92.8139 128.437 100.14 126.136 104.045C124.901 105.884 123.027 107.245 120.844 107.887C118.479 108.557 115.992 108.732 113.55 108.401C111.948 108.223 110.369 107.886 108.839 107.398C106.677 106.644 104.122 104.636 103.801 102.22C103.5 99.5119 104.367 95.6227 104.937 92.7834C105.626 89.3571 106.214 85.8859 107.678 82.6622C108.619 81.7576 112.069 78.4562 112.853 77.7131C112.984 77.522 112.949 77.7405 112.949 76.2161C114.873 75.0119 116.508 73.4286 117.743 71.5716C117.747 72.8143 118.104 74.0326 118.777 75.0954C119.009 75.4597 119.314 75.7761 119.675 76.026C120.037 76.276 120.446 76.4545 120.88 76.5512C121.789 76.7588 122.744 76.6737 123.597 76.3089C124.45 75.9442 125.154 75.3201 125.599 74.5335C125.685 75.0378 125.881 75.5189 126.175 75.9452C126.469 76.3715 126.854 76.7332 127.305 77.0065C128.087 77.4206 128.994 77.5656 129.874 77.4172C130.754 77.2688 131.555 76.8361 132.143 76.191C132.757 75.3374 132.995 74.2866 132.807 73.2657C134.685 73.8962 136.616 74.369 138.579 74.6789C139.018 76.1646 139.253 77.6988 139.277 79.2427H139.276ZM150.296 59.3892C150.232 62.0783 149.91 64.756 149.333 67.3885C148.73 69.74 147.229 71.7893 145.125 73.1317C141.35 75.2286 136.675 73.817 132.516 72.5104C132.473 72.4996 132.429 72.497 132.386 72.5027C132.342 72.5084 132.3 72.5222 132.262 72.5434C132.225 72.5647 132.192 72.5929 132.165 72.6264C132.139 72.6599 132.12 72.6982 132.109 72.7388C132.029 73.0236 132.484 74.4771 131.812 75.5461C131.377 76.1495 130.719 76.5721 129.972 76.7286C129.317 76.9342 128.606 76.9029 127.974 76.6407C127.341 76.3785 126.831 75.9036 126.539 75.3055C126.205 74.5082 126.053 73.6513 126.095 72.7929C126.091 72.7115 126.054 72.6347 125.993 72.5785C125.931 72.5223 125.849 72.4909 125.764 72.4909C125.679 72.4909 125.597 72.5223 125.536 72.5785C125.474 72.6347 125.437 72.7115 125.433 72.7929C125.406 73.2624 125.281 73.722 125.067 74.1451C124.852 74.5682 124.553 74.9463 124.185 75.2575C123.706 75.5944 123.151 75.8189 122.565 75.9131C119.338 76.6197 118.11 73.3015 118.454 70.2026C118.452 70.134 118.427 70.0679 118.382 70.014C118.338 69.9602 118.277 69.9214 118.207 69.9035C118.138 69.8856 118.065 69.8894 117.998 69.9145C117.932 69.9396 117.875 69.9845 117.837 70.0427C117.094 71.5486 116.049 72.8996 114.762 74.0187C113.684 75.0086 112.366 76.1705 110.778 76.207C110.451 76.2239 110.124 76.1602 109.83 76.022C109.536 75.8838 109.283 75.6756 109.097 75.4174C108.777 74.8733 108.655 74.2423 108.75 73.6243C108.842 72.9461 109.02 72.2811 109.281 71.6447C110.083 69.6072 111.348 66.7999 112.772 64.0954C113.48 62.7477 114.158 61.1968 115.669 60.5237C117.023 59.9964 118.481 59.7577 119.941 59.824C125.542 60.0752 128.243 60.6501 133.662 61.3057C133.749 61.3052 133.833 61.2716 133.895 61.2122C133.957 61.1527 133.992 61.0722 133.992 60.9881C133.713 57.8157 133.766 54.6245 134.151 51.4623C139.194 51.358 144.826 51.0861 149.837 50.7496C150.258 53.6107 150.412 56.502 150.296 59.3892ZM133.863 50.8417C133.792 50.8423 133.722 50.8647 133.665 50.9058C133.608 50.9469 133.566 51.0045 133.546 51.0702C133.126 54.2402 133.046 57.4431 133.307 60.6288C128.234 59.9999 126.358 59.5521 120.456 59.2209C118.87 59.0946 117.274 59.2924 115.773 59.8011C114.503 60.2803 113.482 61.2228 112.935 62.4219C112.902 61.7328 112.587 61.084 112.059 60.6149C111.531 60.1459 110.832 59.8941 110.113 59.9138H107.949C107.699 57.9614 107.334 56.0241 106.855 54.1112C106.834 54.0466 106.791 53.9903 106.734 53.9504C106.677 53.9104 106.608 53.8889 106.537 53.8889C106.466 53.8889 106.398 53.9104 106.34 53.9504C106.283 53.9903 106.241 54.0466 106.219 54.1112C106.152 54.3038 106.066 54.4919 105.987 54.6784C104.997 54.2257 103.999 53.7942 102.992 53.384C102.992 53.384 92.5924 48.8111 92.5193 48.7806C93.7714 46.4004 95.1972 44.1077 96.7861 41.9196C98.5791 39.3891 100.662 37.0584 102.995 34.9711C104.482 33.5088 106.25 32.3369 108.203 31.5205C111.535 30.2187 115.067 29.4471 118.659 29.2362C118.64 30.0883 118.799 30.9353 119.127 31.7275C119.273 32.0802 119.508 32.3925 119.811 32.6365C120.114 32.8806 120.476 33.0486 120.863 33.1255C122.493 33.2976 123.194 30.6578 123.399 29.1038C131.837 29.2461 139.573 32.243 144.799 38.4248C147.068 41.2313 148.845 44.7977 149.734 50.1245C144.267 50.5006 138.25 50.7565 133.863 50.8417Z" fill="black"/>
<path d="M46.813 77.4457C38.1212 75.9145 30.248 71.7352 25.8477 67.5414C21.0445 62.9357 17.8815 56.8674 11.0128 56.4958C10.5868 56.4737 10.5876 57.1049 11.0128 57.1308C16.1784 57.4902 19.0307 61.0063 22.3716 64.7897C23.9982 66.7382 25.8396 68.5126 27.8639 70.0822C33.3826 74.1139 39.8135 76.8458 46.6374 78.0571C47.0538 78.1317 47.2318 77.5196 46.813 77.4457Z" fill="black"/>
<path d="M31.9781 19.2916C30.1502 18.4335 28.3375 19.0631 27.4387 21.2286C27.0771 21.9395 26.9372 22.7352 27.0358 23.5204C27.1024 23.7887 27.2246 24.0414 27.3949 24.2637C27.5652 24.4861 27.7804 24.6734 28.0276 24.8148C28.443 25.104 28.9234 25.2959 29.4302 25.3753C29.937 25.4546 30.4561 25.4192 30.946 25.2717C31.436 25.1243 31.883 24.869 32.2514 24.5263C32.6199 24.1835 32.8994 23.7629 33.0676 23.298C33.3317 22.572 33.4171 21.7973 33.3172 21.0344C33.2603 20.661 33.1083 20.3067 32.8748 20.0027C32.6413 19.6988 32.3333 19.4546 31.9781 19.2916ZM32.5733 22.6257C32.5115 23.0285 32.3485 23.4109 32.0982 23.7399C31.848 24.069 31.518 24.3348 31.1368 24.5146C30.7555 24.6944 30.3344 24.7827 29.9096 24.772C29.4848 24.7613 29.0691 24.6518 28.6983 24.4531C28.2694 24.2837 27.9249 23.9628 27.7359 23.5569C27.587 22.8203 27.7088 22.0571 28.0808 21.3968C28.3486 20.6743 28.8897 20.0743 29.5971 19.7157C30.1299 19.5088 30.7228 19.4939 31.2662 19.6736C31.8096 19.8533 32.2666 20.2156 32.5526 20.6933C32.7513 21.3224 32.7585 21.9928 32.5733 22.6257Z" fill="black"/>
<path d="M36.1837 17.484C36.7575 16.3465 35.4224 14.8541 33.6335 15.1374L34.2335 14.6988C34.7477 14.3242 35.3278 13.9237 35.1927 13.2225C35.1177 12.9292 34.947 12.6664 34.7055 12.4724C34.4639 12.2784 34.1642 12.1632 33.8496 12.1436C33.1954 12.0897 32.5392 12.2235 31.9646 12.5281C31.5831 12.726 31.5998 12.7854 31.6467 12.6666C31.9876 11.8002 31.7715 10.7441 30.8138 10.5248C29.8435 10.3855 29.1998 11.1652 28.9494 12.0666C28.6068 13.06 28.3213 14.0706 28.0943 15.094C27.9504 15.5506 27.8805 16.0256 27.8869 16.5026C27.9391 16.9367 28.1524 17.3384 28.4879 17.6344C28.8235 17.9305 29.2589 18.1011 29.7147 18.1152C31.3542 18.154 33.0001 18.1754 34.642 18.1152C35.2197 18.0977 35.8936 18.0573 36.1837 17.484ZM29.7155 17.484C29.4295 17.473 29.1563 17.3668 28.943 17.1839C28.7297 17.0009 28.5895 16.7525 28.5465 16.4812C28.5364 16.1268 28.5868 15.7731 28.6959 15.4343C28.9288 14.2291 29.2705 13.0455 29.7171 11.8969C29.7699 11.7408 29.8554 11.5968 29.9685 11.4735C30.0815 11.3503 30.2196 11.2506 30.3744 11.1804C30.4406 11.1551 30.5115 11.143 30.5827 11.1448C30.654 11.1465 30.7241 11.1621 30.7889 11.1906C30.8537 11.219 30.9118 11.2598 30.9596 11.3104C31.0075 11.361 31.0441 11.4204 31.0673 11.4849C31.1858 11.8643 31.1492 12.2726 30.9648 12.627C30.7916 13.0839 30.5993 13.5407 30.4165 13.9976C30.279 14.3394 30.8361 14.5435 31.0213 14.242C31.816 12.9575 33.4348 12.5105 34.1953 12.9072C34.3105 12.9651 34.4053 13.0543 34.4677 13.1636C34.53 13.273 34.5572 13.3976 34.5458 13.5217C34.4846 13.7935 34.1484 13.9785 33.9363 14.1308L31.9773 15.56C31.9093 15.5996 31.8584 15.6613 31.8339 15.7339C31.8094 15.8065 31.813 15.8851 31.8439 15.9554C31.8748 16.0257 31.931 16.083 32.0023 16.1169C32.0736 16.1508 32.1553 16.1591 32.2324 16.1401C33.0225 15.7644 33.9259 15.6686 34.7826 15.8698C35.0994 15.9917 35.3645 16.2114 35.536 16.4942C35.6174 16.5721 35.6732 16.6712 35.6966 16.7791C35.7201 16.8871 35.7101 16.9992 35.6678 17.1018C35.6256 17.2043 35.5531 17.2929 35.459 17.3564C35.365 17.42 35.2537 17.4559 35.1387 17.4596C33.3333 17.5781 31.5219 17.5852 29.7155 17.481V17.484Z" fill="black"/>
<path d="M19.8325 118.899C16.9771 118.216 14.2569 117.091 11.7789 115.57C10.1198 114.559 8.7532 113.164 7.80531 111.513C6.23797 108.848 4.93043 106.051 3.8993 103.156C3.87216 103.088 3.82142 103.031 3.75559 102.994C3.68977 102.958 3.61286 102.944 3.53777 102.956C3.46267 102.967 3.39397 103.003 3.34317 103.057C3.29237 103.111 3.26257 103.181 3.25876 103.253C3.25876 106.537 2.8328 110.011 4.0201 113.166C4.65203 114.811 5.75411 116.252 7.20044 117.325C8.64677 118.399 10.379 119.06 12.1993 119.235C14.6939 119.613 17.2261 119.71 19.7443 119.525C20.0979 119.496 20.2171 118.988 19.8325 118.899ZM13.2475 118.74C11.3625 118.63 9.53889 118.056 7.95233 117.074C6.54637 116.162 5.45252 114.872 4.80766 113.367C3.71493 110.587 3.82221 108.292 3.89692 104.97C4.97216 107.635 6.55602 111.21 8.49274 113.604C10.7179 116.216 14.4594 117.915 17.7654 118.97C16.2557 118.995 14.746 118.919 13.2475 118.74Z" fill="black"/>
<path d="M76.3524 94.0626C76.2693 94.0661 76.1906 94.0994 76.1317 94.1557C76.0729 94.2121 76.0382 94.2875 76.0345 94.3671V122.368C71.8496 123.243 62.7549 124.576 58.5262 125.17C58.442 125.193 58.3705 125.247 58.3273 125.32C58.284 125.393 58.2724 125.48 58.295 125.561C58.3203 125.641 58.3768 125.709 58.4526 125.75C58.5285 125.791 58.618 125.803 58.7027 125.783C61.6606 125.369 72.2922 123.809 76.3723 122.948C80.9292 123.616 89.3865 125.147 93.9354 125.993C94.3519 126.07 94.5299 125.46 94.1111 125.384C92.652 125.112 78.1103 122.567 76.6997 122.359V94.3694C76.6982 94.3274 76.688 94.286 76.6696 94.2478C76.6513 94.2095 76.6252 94.1751 76.5929 94.1466C76.5606 94.118 76.5227 94.0959 76.4815 94.0815C76.4402 94.0671 76.3963 94.0607 76.3524 94.0626Z" fill="black"/>
<path d="M134.466 3.20475C134.002 4.02401 130.528 10.1655 130.358 10.467C130.154 10.8264 130.726 11.1469 130.929 10.7875L135.038 3.52453C135.241 3.16592 134.669 2.84537 134.466 3.20475Z" fill="black"/>
<path d="M133.281 12.3233L139.464 8.06479C139.807 7.82876 139.476 7.27827 139.13 7.51659L132.947 11.7759C132.605 12.0119 132.934 12.5631 133.281 12.3233Z" fill="black"/>
<path d="M12.9129 16.0054C13.6655 13.112 16.0529 9.13374 18.7938 7.63378C19.1665 7.43581 18.8288 6.88075 18.4592 7.08633C17.1459 7.8445 16.022 8.86928 15.1667 10.0885C13.8492 11.8221 12.8697 13.7696 12.2756 15.8371C12.181 16.2345 12.8192 16.4036 12.9129 16.0054Z" fill="black"/>
<path d="M15.3758 5.00236C12.5054 8.04037 10.2469 11.5613 8.71449 15.3871C8.5778 15.7754 9.21675 15.9414 9.35026 15.5561C10.852 11.8363 13.052 8.4114 15.8415 5.45083C16.1435 5.15997 15.6754 4.71075 15.3758 5.00236Z" fill="black"/>
<path d="M24.2789 77.6933C20.9433 76.1567 18.0976 73.7931 16.037 70.8475C15.7986 70.5095 15.2272 70.827 15.4648 71.1673C17.5825 74.2074 20.5102 76.6498 23.9444 78.2415C24.3266 78.4181 24.6628 77.8707 24.2789 77.6933Z" fill="black"/>
<path d="M23.0607 79.8526C19.7152 78.296 16.9134 75.8425 14.9951 72.7898C14.7686 72.4449 14.1956 72.7632 14.4237 73.1104C16.4088 76.2513 19.2908 78.7821 22.7293 80.4038C23.1107 80.5713 23.4445 80.0231 23.0607 79.8526Z" fill="black"/>
<path d="M120.147 36.1946C120.074 35.868 119.609 35.9205 119.512 36.1946C119.214 37.0139 114.787 49.156 114.664 49.5191C114.556 49.8481 114.902 50.1618 115.084 50.4176C118.145 54.7119 117.956 54.4675 118.03 54.5185C118.058 54.5491 118.093 54.5736 118.131 54.5903C118.17 54.6071 118.212 54.6158 118.254 54.6158C118.297 54.6158 118.339 54.6071 118.377 54.5903C118.416 54.5736 118.451 54.5491 118.479 54.5185C119.443 53.4442 122.421 50.3308 122.907 49.8153C123.031 49.6828 123.137 49.5778 123.099 49.3752C123.101 49.3638 120.15 36.2053 120.147 36.1946ZM118.281 53.783C117.407 52.5548 115.435 49.7887 115.324 49.6326L119.752 37.4502L122.425 49.3798L118.281 53.783Z" fill="black"/>
<path d="M31.2549 22.4842C31.1813 22.4451 31.0948 22.4348 31.0135 22.4552C30.9321 22.4756 30.862 22.5252 30.8178 22.5938C30.6374 22.8847 30.3617 23.1519 30.1503 22.8808C30.0666 22.7514 30.0162 22.6047 30.0032 22.4529C29.9333 22.0509 29.2959 22.2245 29.3675 22.6212C29.3797 22.8607 29.4754 23.0893 29.6394 23.2705C29.8034 23.4516 30.0261 23.5747 30.2718 23.6202C30.5088 23.617 30.7399 23.5493 30.9382 23.425C31.1365 23.3007 31.2937 23.1249 31.3916 22.9182C31.4128 22.8812 31.4261 22.8405 31.4307 22.7985C31.4353 22.7565 31.4311 22.7141 31.4184 22.6737C31.4056 22.6333 31.3846 22.5957 31.3566 22.5631C31.3285 22.5306 31.2939 22.5037 31.2549 22.4842Z" fill="black"/>
<path d="M71.31 120.109C67.4487 118.411 63.2895 117.42 59.0476 117.189C54.482 117.061 49.9596 118.067 45.9197 120.109C45.8586 120.146 45.8114 120.2 45.785 120.264C45.7585 120.328 45.7544 120.398 45.7732 120.465C45.7919 120.531 45.8325 120.59 45.889 120.633C45.9455 120.675 46.0148 120.699 46.0866 120.701C69.3407 120.988 71.0533 120.701 71.1471 120.701C71.4491 120.701 71.6239 120.242 71.31 120.109ZM47.5139 120.067C50.2612 118.866 53.2017 118.121 56.2097 117.865C60.7566 117.645 65.2976 118.396 69.5044 120.064L47.5139 120.067Z" fill="black"/>
<path d="M97.9543 115.364H123.015C123.321 115.364 123.492 114.907 123.182 114.774C118.113 112.559 111.739 111.242 106.301 112.095C104.055 111.264 101.721 110.675 99.3395 110.337C94.7701 109.601 90.0768 110.108 85.7936 111.802C84.8787 112.139 83.9845 112.525 83.1154 112.96C83.0546 112.996 83.0077 113.05 82.9816 113.114C82.9554 113.178 82.9514 113.249 82.9703 113.315C82.9891 113.381 83.0296 113.44 83.086 113.482C83.1423 113.525 83.2115 113.549 83.2831 113.551H100.654C99.6744 113.9 98.7188 114.309 97.793 114.774C97.7324 114.81 97.6854 114.864 97.6589 114.927C97.6325 114.99 97.6279 115.06 97.646 115.126C97.6641 115.192 97.7037 115.251 97.7592 115.294C97.8147 115.337 97.8831 115.361 97.9543 115.364ZM84.712 112.916C88.3209 111.319 92.2686 110.551 96.2417 110.672C99.2342 110.839 102.189 111.392 105.027 112.317C104.206 112.482 103.394 112.681 102.593 112.916H84.712ZM110.916 112.486C114.507 112.68 118.041 113.438 121.376 114.729H99.3864C102.994 113.13 106.943 112.362 110.916 112.487V112.486Z" fill="black"/>
<path d="M143.293 80.314C143.292 80.2299 143.257 80.1495 143.195 80.0901C143.133 80.0307 143.049 79.9971 142.961 79.9965C142.874 79.9984 142.791 80.0325 142.729 80.0916C142.668 80.1508 142.632 80.2304 142.631 80.314C142.14 84.3915 140.108 88.1559 136.92 90.8974C134.648 92.8542 133.925 92.7248 133.895 93.1146C133.846 93.1502 133.81 93.1991 133.79 93.2549C133.77 93.3107 133.769 93.3709 133.785 93.4276C135.437 99.8644 136.888 106.301 138.139 112.736C138.218 113.137 138.854 112.964 138.775 112.568C137.556 106.309 136.107 99.8248 134.455 93.3918C136.888 92.0212 138.955 90.1253 140.489 87.8549C142.023 85.5846 142.983 83.0024 143.293 80.314Z" fill="black"/>
<path d="M5.85511 92.9829C5.91825 93.0407 6.00222 93.0729 6.08955 93.0729C6.17688 93.0729 6.26085 93.0407 6.32399 92.9829C6.38596 92.9234 6.42076 92.8427 6.42076 92.7586C6.42076 92.6746 6.38596 92.5939 6.32399 92.5344C4.17597 90.8475 2.54136 88.6378 1.59165 86.1372C0.64194 83.6366 0.412121 80.9371 0.926304 78.3221C1.01054 77.9231 0.370005 77.7533 0.290534 78.1531C-0.256374 80.8759 -0.0283209 83.6896 0.950765 86.2989C1.92985 88.9082 3.62388 91.2169 5.85511 92.9829Z" fill="black"/>
<path d="M111.816 83.0055C111.743 82.9673 111.656 82.9575 111.575 82.978C111.494 82.9985 111.424 83.0478 111.379 83.1159L109.966 85.4496C109.921 85.5223 109.909 85.6089 109.931 85.6904C109.953 85.7719 110.008 85.8415 110.084 85.884C110.16 85.9265 110.251 85.9384 110.336 85.9171C110.421 85.8957 110.493 85.8429 110.538 85.7702L111.951 83.4357C111.971 83.399 111.984 83.3588 111.989 83.3173C111.993 83.2758 111.989 83.2339 111.977 83.194C111.964 83.154 111.944 83.1168 111.916 83.0845C111.889 83.0522 111.855 83.0253 111.816 83.0055Z" fill="black"/>
<path d="M63.529 87.2221C63.1152 86.4389 62.7017 85.6554 62.2884 84.8717C62.0961 84.507 61.5247 84.8275 61.7162 85.1915C62.1305 85.9747 62.5441 86.7582 62.9568 87.5419C63.1491 87.9066 63.7205 87.5861 63.529 87.2221Z" fill="black"/>
<path d="M18.5077 95.143C18.4231 95.1212 18.333 95.1323 18.2568 95.1738C18.1806 95.2152 18.1246 95.2838 18.1008 95.3646C18.0793 95.4457 18.0914 95.5316 18.1345 95.6044C18.1776 95.6772 18.2484 95.7312 18.3321 95.7552C19.3102 96.1435 20.1925 96.724 20.9221 97.4592C21.2177 97.7546 21.6858 97.3069 21.3909 97.0115C20.5775 96.2016 19.5951 95.5649 18.5077 95.143Z" fill="black"/>
<path d="M43.1533 96.3308C43.1981 96.403 43.2707 96.4554 43.3554 96.4768C43.4402 96.4982 43.5303 96.4868 43.6063 96.445C43.6804 96.4011 43.7341 96.3316 43.7563 96.2508C43.7785 96.17 43.7675 96.0842 43.7255 96.011L42.6471 93.5844C42.6024 93.512 42.5296 93.4594 42.4447 93.438C42.3598 93.4167 42.2694 93.4282 42.1933 93.4702C42.1193 93.5143 42.0658 93.5838 42.0438 93.6646C42.0217 93.7453 42.0329 93.8311 42.0749 93.9042C42.4368 94.7128 42.7962 95.5217 43.1533 96.3308Z" fill="black"/>
<path d="M85.6657 80.5637H105.136C105.221 80.5598 105.301 80.5246 105.36 80.4656C105.419 80.4065 105.451 80.3281 105.451 80.2466C105.451 80.1651 105.419 80.0867 105.36 80.0277C105.301 79.9686 105.221 79.9335 105.136 79.9295H85.6657C85.5807 79.9335 85.5006 79.9686 85.4419 80.0277C85.3832 80.0867 85.3505 80.1651 85.3505 80.2466C85.3505 80.3281 85.3832 80.4065 85.4419 80.4656C85.5006 80.5246 85.5807 80.5598 85.6657 80.5637Z" fill="black"/>
<path d="M102.459 83.1814C102.456 83.1016 102.422 83.026 102.363 82.9696C102.304 82.9131 102.225 82.88 102.142 82.8768H82.9096C82.8246 82.8808 82.7445 82.916 82.6858 82.975C82.6271 83.034 82.5944 83.1124 82.5944 83.1939C82.5944 83.2755 82.6271 83.3539 82.6858 83.4129C82.7445 83.4719 82.8246 83.5071 82.9096 83.5111H102.142C102.229 83.5075 102.312 83.4708 102.372 83.4091C102.431 83.3473 102.463 83.2654 102.459 83.1814Z" fill="black"/>
<path d="M72.0308 37.1693C73.409 36.7241 74.6476 35.9525 75.6314 34.9261C76.6152 33.8997 77.3123 32.6517 77.6581 31.2982C77.7551 30.9007 77.1169 30.7317 77.0224 31.1291C76.7083 32.3776 76.0702 33.5298 75.1671 34.4787C74.264 35.4277 73.1253 36.1426 71.8567 36.5572C71.4522 36.6851 71.6247 37.2972 72.0308 37.1693Z" fill="black"/>
<path d="M62.5443 63.4871L65.2567 63.1064C65.341 63.0836 65.4126 63.0299 65.4558 62.9569C65.4991 62.884 65.5107 62.7976 65.4879 62.7165C65.4629 62.6365 65.4067 62.5688 65.3309 62.5275C65.2551 62.4863 65.1656 62.4746 65.081 62.495L62.3679 62.8757C62.2837 62.8986 62.2123 62.9523 62.169 63.0252C62.1257 63.0982 62.1141 63.1844 62.1366 63.2655C62.162 63.3455 62.2184 63.4131 62.2943 63.4543C62.3702 63.4955 62.4597 63.5073 62.5443 63.4871Z" fill="black"/>
<path d="M62.6882 71.679C62.6032 71.6829 62.5231 71.7181 62.4644 71.7771C62.4057 71.8362 62.373 71.9146 62.373 71.9961C62.373 72.0776 62.4057 72.156 62.4644 72.215C62.5231 72.2741 62.6032 72.3092 62.6882 72.3132H65.4053C65.4903 72.3092 65.5704 72.2741 65.6291 72.215C65.6877 72.156 65.7205 72.0776 65.7205 71.9961C65.7205 71.9146 65.6877 71.8362 65.6291 71.7771C65.5704 71.7181 65.4903 71.6829 65.4053 71.679H62.6882Z" fill="black"/>
<path d="M32.3858 68.6181C32.7617 68.8092 33.101 68.2618 32.7196 68.0707C31.7452 67.5811 30.8928 66.8954 30.221 66.0606C30.175 65.9895 30.1023 65.938 30.0178 65.9169C29.9333 65.8958 29.8436 65.9066 29.7672 65.9471C29.7297 65.9681 29.6968 65.996 29.6705 66.0292C29.6442 66.0624 29.625 66.1003 29.614 66.1406C29.603 66.1809 29.6004 66.2229 29.6064 66.2642C29.6124 66.3054 29.6268 66.3452 29.6488 66.3811C30.3812 67.308 31.315 68.0713 32.3858 68.6181Z" fill="black"/>
<path d="M119.2 65.4172C118.879 66.2704 118.557 67.1242 118.236 67.9785C118.091 68.3638 118.73 68.529 118.872 68.1468C119.194 67.2935 119.515 66.44 119.836 65.5862C119.983 65.2009 119.344 65.0349 119.2 65.4172Z" fill="black"/>
<path d="M126.804 67.993C126.632 68.8549 126.334 69.6892 125.919 70.4714C125.726 70.8338 126.297 71.1566 126.491 70.7912C126.936 69.962 127.257 69.0769 127.444 68.162C127.523 67.7646 126.885 67.5902 126.804 67.993Z" fill="black"/>
<path d="M134.335 61.394C136.187 61.5495 138.025 61.8263 139.837 62.2224C140.252 62.313 140.429 61.7016 140.013 61.6133C138.143 61.205 136.246 60.9206 134.335 60.762C133.909 60.724 133.913 61.3582 134.335 61.394Z" fill="black"/>
<path d="M144.924 72.2904C145.618 71.8472 146.248 71.3174 146.796 70.715C147.074 70.4105 146.607 69.9536 146.328 70.2666C145.82 70.8307 145.235 71.327 144.59 71.7421C144.241 71.9683 144.568 72.5188 144.924 72.2904Z" fill="black"/>
<path d="M89.9953 57.9494C89.9603 57.2448 89.9259 56.5403 89.892 55.8357C89.8721 55.4299 89.2101 55.4276 89.23 55.8357C89.2644 56.5408 89.2988 57.2454 89.3333 57.9494C89.3531 58.356 90.0151 58.3583 89.9953 57.9494Z" fill="black"/>
<path d="M106.076 47.9034C106.074 47.8198 106.039 47.7402 105.977 47.6811C105.915 47.6219 105.832 47.5879 105.745 47.5859C105.701 47.5859 105.658 47.5942 105.618 47.6101C105.578 47.6261 105.542 47.6495 105.511 47.679C105.48 47.7085 105.456 47.7435 105.439 47.782C105.423 47.8205 105.414 47.8618 105.414 47.9034C105.623 49.6506 105.873 51.3927 106.165 53.1297C106.189 53.2104 106.246 53.2789 106.322 53.3203C106.398 53.3617 106.488 53.3728 106.573 53.3513C106.656 53.3271 106.727 53.2732 106.77 53.2006C106.813 53.1281 106.825 53.0424 106.804 52.9614C106.522 51.2802 106.28 49.5943 106.076 47.9034Z" fill="black"/>
<path d="M93.3304 5.71051H71.2262C71.1927 5.7676 71.1578 5.82625 71.1272 5.88387C73.2516 8.12707 76.4163 9.75307 80.0548 10.4708C80.8148 10.613 81.5994 10.6754 82.3842 10.6562C82.3798 10.2582 82.3631 9.86013 82.3704 9.46209C82.374 9.41237 82.4039 9.36554 82.4541 9.33126C82.5043 9.29698 82.5709 9.27786 82.6401 9.27786C82.7093 9.27786 82.7758 9.29698 82.826 9.33126C82.8762 9.36554 82.9062 9.41237 82.9098 9.46209C82.9098 9.57941 82.9214 10.365 82.9236 10.641C85.0728 10.5142 87.1471 10.0139 88.9683 9.18311C90.7894 8.3523 92.3031 7.21583 93.3791 5.8713C93.3653 5.81736 93.3471 5.76341 93.3304 5.71051Z" fill="#FFD500"/>
<path d="M94.1715 5.62891C94.1697 5.65988 94.1591 5.69015 94.1403 5.71743C92.9941 7.29167 91.3764 8.62335 89.427 9.5974C87.4777 10.5715 85.2552 11.1586 82.9518 11.3081C82.9562 11.7658 82.9689 12.2241 82.9607 12.6819C82.957 12.7372 82.9264 12.7892 82.8753 12.8274C82.8241 12.8655 82.7562 12.8867 82.6856 12.8867C82.615 12.8867 82.5471 12.8655 82.4959 12.8274C82.4448 12.7892 82.4142 12.7372 82.4105 12.6819C82.4105 12.5514 82.3949 11.3203 82.3949 11.3203C81.3343 11.3355 80.2777 11.2155 79.2661 10.9651C75.6748 10.0139 72.5662 8.18567 70.3956 5.74829C70.364 5.72522 70.342 5.69518 70.3325 5.6621C70.3325 7.51343 70.4313 16.8743 70.435 17.1969C70.4543 17.0915 70.1298 17.346 75.2923 13.8134C75.5581 13.6317 75.9487 13.9357 75.6814 14.1186L70.9057 17.3868C70.8719 17.4087 70.8322 17.4243 70.7896 17.4325C70.747 17.4406 70.7026 17.4411 70.6598 17.4339C70.6169 17.4266 70.5767 17.4119 70.5421 17.3907C70.5076 17.3695 70.4796 17.3425 70.4602 17.3117C70.4801 17.3519 70.5149 17.3866 70.5602 17.4112C70.6055 17.4358 70.6591 17.4492 70.7142 17.4497C71.2599 17.4532 93.6985 17.5079 93.8797 17.512C93.9288 17.5138 93.9775 17.5035 94.0188 17.4827C94.0602 17.4618 94.0923 17.4313 94.1106 17.3955C94.0911 17.4246 94.0633 17.4496 94.0293 17.4688C93.9953 17.4879 93.9561 17.5005 93.9148 17.5057C93.8735 17.5108 93.8312 17.5083 93.7913 17.4984C93.7515 17.4885 93.7151 17.4714 93.6851 17.4485L89.2755 14.118C89.0201 13.9252 89.4092 13.6201 89.6646 13.8128C93.6154 16.7974 94.1061 17.1428 94.1551 17.2371C94.1514 13.22 94.1826 6.45295 94.1715 5.62891Z" fill="#FFD500"/>
<path d="M76.1309 14.9875C76.2047 14.9265 78.0101 13.4166 78.0918 13.3483C78.2016 13.2565 78.0412 13.1041 77.9321 13.1952C75.7925 14.9834 75.9461 14.8412 75.9376 14.8923C75.9355 14.9145 75.9405 14.9369 75.9517 14.9564C75.963 14.976 75.9801 14.9919 76.0008 15.0021C76.0216 15.0123 76.045 15.0164 76.0682 15.0138C76.0913 15.0112 76.1132 15.002 76.1309 14.9875Z" fill="black"/>
<path d="M83.8338 13.1964C83.729 13.0997 83.5689 13.2528 83.6741 13.3495C84.2034 13.8379 85.4168 14.9583 85.4848 15.02C85.5854 15.1111 85.7329 14.9729 85.6607 14.8897C85.5884 14.8064 85.2558 14.5085 83.8338 13.1964Z" fill="black"/>
<path d="M99.3811 65.1795L99.0914 66.1681H93.5686L93.8584 65.1795H99.3811ZM96.7902 71.8442L93.6709 68.0261L93.6539 67.3101H95.205C95.6084 67.3101 95.9522 67.2533 96.2362 67.1397C96.5203 67.0232 96.7377 66.8499 96.8882 66.6198C97.0388 66.3869 97.1141 66.0942 97.1141 65.742C97.1141 65.2221 96.9578 64.8144 96.6453 64.519C96.3328 64.2207 95.8527 64.0715 95.205 64.0715H93.5686L93.8584 63.117H95.205C95.8982 63.117 96.4664 63.232 96.9095 63.4621C97.3556 63.6894 97.6851 64.0019 97.8982 64.3996C98.1141 64.7945 98.222 65.242 98.222 65.742C98.222 66.1937 98.1226 66.6099 97.9237 66.9905C97.7277 67.3684 97.4124 67.6724 96.9777 67.9025C96.5459 68.1326 95.9749 68.2476 95.2647 68.2476H95.2391L98.1198 71.7761V71.8442H96.7902ZM99.3811 63.117L99.0914 64.1056L94.7448 64.0715L95.0345 63.117H99.3811Z" fill="black"/>
</svg>
