<svg width="71" height="80" viewBox="0 0 71 80" fill="none" xmlns="http://www.w3.org/2000/svg">
<path d="M49.9315 10.4786C49.198 10.0604 48.944 10.4893 49.5126 10.0267C51.6034 8.32717 49.4128 7.11106 47.5177 8.22052C47.5814 8.01662 47.5768 7.7975 47.5047 7.59644C47.4325 7.39537 47.2968 7.22333 47.118 7.10645C46.8296 6.96518 46.5116 6.89501 46.1906 6.90182C45.8695 6.90863 45.5548 6.99221 45.2727 7.14558C43.6762 7.75183 42.3476 8.90638 41.5246 10.4026C43.7819 9.41362 46.5885 11.8934 45.3694 14.064C46.6299 13.4217 47.9847 12.9845 49.3829 12.7689C49.6538 12.7468 49.9127 12.6473 50.1287 12.4823C50.3447 12.3173 50.5087 12.0937 50.6013 11.8382C50.6405 11.5704 50.5974 11.297 50.4778 11.0543C50.3582 10.8115 50.1677 10.6107 49.9315 10.4786Z" fill="black"/>
<path d="M9.26491 39.3778C9.24681 39.4439 9.25572 39.5145 9.28967 39.5741C9.32363 39.6337 9.37986 39.6773 9.44599 39.6954C9.51198 39.7123 9.58195 39.703 9.64119 39.6694C9.70043 39.6357 9.74432 39.5804 9.76364 39.5151L11.1294 36.2581L10.659 36.0532L9.26491 39.3778Z" fill="black"/>
<path d="M23.2637 45.1167C23.1179 45.4144 23.5629 45.6768 23.7095 45.3776L25.178 42.3852L24.7054 42.1788L23.2637 45.1167Z" fill="black"/>
<path d="M43.7795 10.4187C43.3827 10.2214 42.9417 10.1295 42.499 10.152C42.0564 10.1745 41.6269 10.3105 41.252 10.5469C40.8772 10.7834 40.5694 11.1123 40.3585 11.5021C40.1476 11.892 40.0405 12.3295 40.0476 12.7727C40.2778 14.6295 42.6233 15.742 44.131 15.1512C44.5099 15.0014 44.8452 14.7591 45.1064 14.4464C45.3676 14.1338 45.5464 13.7607 45.6264 13.3612C45.6927 12.7347 45.5468 12.1041 45.2119 11.5705C44.877 11.0369 44.3725 10.6313 43.7795 10.4187Z" fill="#FC9070"/>
<path d="M36.7635 42.8106C35.8282 41.4111 35.2659 40.3645 34.8231 39.7783L33.5057 42.7998C34.7372 42.8106 35.206 42.8106 36.7635 42.8106Z" fill="#FFD2D2"/>
<path d="M58.0449 26.7638C56.6754 23.6356 53.7176 21.2172 50.4605 19.9535C48.9833 19.3613 47.3922 19.1075 45.804 19.2108C43.908 19.2792 42.0294 19.5975 40.2168 20.1576C40.6889 22.3175 40.6845 24.5544 40.2037 26.7124C40.3156 26.861 40.3889 27.0349 40.417 27.2188C40.4568 27.7303 40.443 28.2446 40.3756 28.7533C40.274 29.5568 40.3555 30.3728 40.6142 31.1403C41.2197 32.4863 41.9533 33.771 42.8048 34.9766C43.372 35.8151 44.0686 36.5583 44.8687 37.1786C45.9682 38.0142 46.9587 37.9405 47.6309 36.7528C48.4503 35.308 48.2362 34.9075 48.85 32.9103C49.2419 31.9172 49.9503 31.0811 50.8656 30.5316C51.7809 29.982 52.8519 29.7497 53.9126 29.8707C54.9734 29.9917 55.9646 30.4592 56.7326 31.2007C57.5007 31.9422 58.0027 32.9164 58.1608 33.9722C58.2379 34.6586 58.2201 35.3524 58.1079 36.0339C57.9092 38.3708 57.3337 40.6603 56.4038 42.8134H59.8941C59.9621 42.8148 60.0269 42.8424 60.0751 42.8904C60.1233 42.9384 60.151 43.0032 60.1526 43.0712C59.8189 38.1155 60.0368 31.3114 58.0449 26.7638ZM50.4406 22.2638C49.081 22.6658 47.7319 23.1028 46.3948 23.5743C46.0802 23.6855 45.9459 23.186 46.2575 23.0763C47.5925 22.6052 48.9314 22.1203 50.3032 21.765C50.3694 21.7468 50.44 21.7556 50.4997 21.7895C50.5593 21.8234 50.6031 21.8796 50.6213 21.9457C50.6395 22.0119 50.6307 22.0825 50.5968 22.1422C50.5629 22.2018 50.5067 22.2456 50.4406 22.2638Z" fill="#FFD2D2"/>
<path d="M23.1086 16.3919C23.0319 16.3826 22.9541 16.3934 22.8829 16.4234C22.8117 16.4535 22.7496 16.5016 22.7028 16.563C22.3529 16.9252 22.3191 18.4191 23.2398 19.2753C23.3753 18.6371 23.4749 17.9919 23.5383 17.3426C23.559 17.0088 23.447 16.4495 23.1086 16.3919Z" fill="#F7DA31"/>
<path d="M27.2933 17.9034C27.3217 17.8067 27.3332 17.7101 27.2665 17.6587C27.1651 17.597 27.0483 17.565 26.9296 17.5666C26.4739 17.5919 26.3519 18.6277 26.368 19.0888C26.7797 18.7864 27.0999 18.3762 27.2933 17.9034Z" fill="#F7DA31"/>
<path d="M32.8544 21.7805C32.8816 21.7246 32.8949 21.663 32.893 21.6008C32.8911 21.5387 32.8742 21.4779 32.8436 21.4237C32.7362 21.2373 32.5145 21.4184 32.3833 21.525C31.8299 22.0336 31.306 22.5734 30.8142 23.1417C31.2448 23.0504 31.6551 22.8814 32.025 22.6429C32.385 22.4495 32.6752 22.1479 32.8544 21.7805Z" fill="#F7DA31"/>
<path d="M30.1661 19.9927C30.2326 19.8579 30.2675 19.7096 30.2681 19.5592C30.2796 19.5017 30.2275 19.4495 30.1776 19.4188C30.1353 19.4022 30.0901 19.3947 30.0448 19.3967C29.9995 19.3987 29.955 19.4101 29.9144 19.4303C29.1725 19.6996 28.9093 20.7408 28.9392 21.5073C29.4503 21.0946 29.8684 20.5784 30.1661 19.9927Z" fill="#F7DA31"/>
<path d="M31.5313 9.59863C27.9964 8.04894 24.0025 7.9108 20.369 9.21257C16.7355 10.5143 13.738 13.1573 11.9914 16.5992C11.7344 17.1063 11.6446 17.335 10.6356 19.649C10.8475 19.4968 11.0858 19.3855 11.3385 19.3206C11.5645 19.2649 11.8021 19.2785 12.0203 19.3594C12.2386 19.4404 12.4275 19.5851 12.5626 19.7747C12.6976 19.9643 12.7726 20.1902 12.7777 20.4229C12.7829 20.6556 12.7179 20.8846 12.5914 21.08C12.1963 21.838 11.7098 21.8848 10.9656 22.6076C10.3679 23.3135 11.5541 23.7892 12.0397 24.0117C12.6474 24.2894 13.4906 24.9155 13.1139 25.6912C12.9998 25.9218 12.8149 26.1098 12.5863 26.2278C12.3577 26.3459 12.0974 26.3877 11.8433 26.3473C10.6326 26.1639 9.49166 24.8265 9.28526 24.7958C9.31301 24.8615 9.3472 24.9242 9.38731 24.9831C10.127 26.3235 10.9986 26.9365 11.152 27.7414C11.2579 28.2915 10.9786 29.0035 10.3149 28.9398C9.61979 28.8731 9.06889 28.2831 8.18577 27.6792C8.11979 27.634 7.94792 27.4698 7.86966 27.5204C7.86045 27.5258 7.86045 27.5204 7.89651 27.568C7.93258 27.6155 8.23641 28.0575 8.42823 28.3675C8.72132 28.8409 9.19549 29.5437 9.02132 30.1322C8.96729 30.3058 8.87443 30.4649 8.74977 30.5973C8.62511 30.7297 8.47194 30.832 8.30186 30.8964C8.13178 30.9609 7.94926 30.9857 7.76816 30.969C7.58706 30.9524 7.41212 30.8948 7.25662 30.8005C6.86877 30.5268 6.50642 30.2186 6.174 29.8797C5.70674 30.9539 4.75227 33.1406 4.74152 33.1652C4.70794 33.2246 4.69884 33.2948 4.71618 33.3609C4.73351 33.4269 4.77591 33.4836 4.83436 33.5189L32.0615 45.3892C32.121 45.4228 32.1912 45.4319 32.2572 45.4146C32.3232 45.3972 32.3799 45.3548 32.4152 45.2964L34.8198 39.7805C34.6032 39.4299 34.3046 39.1372 33.9497 38.9276C33.5949 38.7181 33.1944 38.5979 32.7827 38.5774C32.1175 38.5667 31.2919 38.6396 30.8162 38.0634C30.6541 37.8693 30.5639 37.6252 30.5609 37.3724C30.5578 37.1195 30.642 36.8734 30.7994 36.6754C31.5168 36.0163 32.3845 35.9941 34.5014 35.6335C34.2854 35.5744 34.0637 35.5387 33.84 35.5268C33.1292 35.4947 32.4212 35.4178 31.7201 35.2966C31.2875 35.266 30.8707 35.1217 30.5116 34.8785C30.3583 34.7408 30.2443 34.5647 30.1814 34.3684C30.1185 34.1721 30.109 33.9626 30.1539 33.7614C30.1987 33.5602 30.2962 33.3746 30.4365 33.2236C30.5768 33.0725 30.7547 32.9615 30.952 32.902C32.0922 32.4416 32.7873 32.8115 34.4669 32.7631C34.5175 32.7631 34.6618 32.7808 34.6265 32.6864C34.5989 32.6097 34.4446 32.5912 34.374 32.5659C34.0165 32.4363 33.6605 32.302 33.3053 32.167C32.7973 31.9736 32.1643 31.8447 31.9288 31.2953C31.8377 31.0862 31.8128 30.8541 31.8576 30.6304C31.9023 30.4067 32.0144 30.202 32.1789 30.0439C32.6124 29.6327 33.3636 29.7301 33.9129 29.7462C35.1148 29.7718 36.2964 30.0612 37.374 30.5941C37.806 27.9155 37.8643 27.2135 38.459 26.5444C38.6256 26.4073 38.8256 26.317 39.0386 26.2826C39.2516 26.2482 39.47 26.2711 39.6712 26.3488C39.7004 26.3572 39.7219 26.3741 39.748 26.3848C39.926 26.4523 40.0819 26.5679 40.1983 26.7186C40.9644 23.3026 40.5186 19.7265 38.9374 16.6031C37.3562 13.4797 34.7379 11.0035 31.5313 9.59863ZM33.0106 22.4848C32.3072 23.232 31.337 23.6711 30.3114 23.7063C25.9609 28.4738 22.3454 33.8632 19.5843 39.6969C19.4408 39.9977 18.9958 39.7352 19.1377 39.4368C21.8678 33.6723 25.4281 28.3391 29.7052 23.6073C29.4409 23.4941 29.2039 23.3255 29.0101 23.1129C28.8163 22.9004 28.6704 22.6488 28.582 22.3751L28.5705 22.382C28.3889 22.5074 28.177 22.5815 27.9569 22.5967C27.7369 22.6118 27.5168 22.5673 27.3198 22.468C26.5612 21.8554 26.0746 20.9686 25.9656 19.9997C25.611 20.2079 25.2119 20.3287 24.8014 20.352C24.3908 20.3754 23.9806 20.3006 23.6047 20.1339C22.3932 26.6042 19.8763 32.7598 16.2075 38.2253C16.0226 38.5007 15.5753 38.2414 15.761 37.9644C19.4338 32.498 21.9426 26.3344 23.1313 19.857C21.9328 18.9431 21.6505 17.1516 22.2597 16.2969C22.3741 16.1329 22.5362 16.0081 22.724 15.9395C22.9118 15.8708 23.1162 15.8617 23.3093 15.9132C23.9684 16.0981 24.1004 16.9759 24.0421 17.5544C23.9694 18.2468 23.8583 18.9345 23.7091 19.6145C24.0517 19.7935 24.4374 19.8733 24.8229 19.845C25.2085 19.8166 25.5784 19.6813 25.8912 19.4541C25.839 19.0033 25.8605 18.5469 25.9549 18.103C25.9846 17.9102 26.0546 17.7258 26.1604 17.5619C26.2662 17.398 26.4053 17.2582 26.5687 17.1516C26.7558 17.0605 26.9676 17.0329 27.1719 17.0727C27.3761 17.1126 27.5619 17.2178 27.7011 17.3726C28.2183 18.0447 27.1111 19.214 26.4313 19.7142C26.5266 20.5116 26.8616 21.2612 27.3919 21.8641C27.4841 21.9632 27.5978 22.0398 27.7242 22.0882C27.9857 22.0927 28.2416 22.0119 28.4531 21.858C28.2298 20.17 29.1505 18.8971 30.0689 18.8795C30.6827 18.868 30.8876 19.4795 30.7242 19.9674C30.3707 20.8218 29.7832 21.5591 29.0293 22.0943C29.0855 22.356 29.2149 22.5963 29.4025 22.7872C29.5902 22.978 29.8282 23.1116 30.0889 23.1723C30.652 22.5485 31.2129 21.9079 31.8244 21.3309C32.0504 21.0723 32.3545 20.8946 32.6907 20.8245C33.4533 20.7815 33.6505 21.891 33.0106 22.4848Z" fill="#F7DA31"/>
<path d="M63.814 65.2596C60.982 62.9256 55.5582 58.3051 53.2395 55.4471C48.2684 58.5376 43.6894 61.4716 40.7584 66.5724C44.1459 70.6431 48.4751 73.8262 53.3707 75.8456C53.4148 75.8576 53.4613 75.8578 53.5055 75.8461C53.5497 75.8344 53.59 75.8112 53.6224 75.7788C56.1405 73.3113 62.9163 66.5279 63.814 65.6249C63.8621 65.5763 63.8891 65.5106 63.8891 65.4422C63.8891 65.3738 63.8621 65.3082 63.814 65.2596Z" fill="#FF4848"/>
<path d="M12.0422 24.0123C11.555 23.7898 10.3688 23.3141 10.9681 22.6082C11.2414 22.3424 11.5415 22.1056 11.8635 21.9016C13.6919 20.5972 12.4006 18.4205 10.6358 19.6496C10.2952 19.8867 9.97753 20.1798 9.69748 20.4085C8.22916 21.4653 6.90224 22.7058 5.74914 24.0998C5.19952 24.8209 4.88258 25.6923 4.8405 26.5981C4.79842 27.5038 5.0332 28.4009 5.51359 29.1699C5.76813 29.4993 6.06099 29.7973 6.38597 30.0576C6.65383 30.3322 6.94751 30.5804 7.26295 30.7988C7.41842 30.8932 7.59337 30.951 7.77452 30.9677C7.95567 30.9844 8.13824 30.9596 8.30836 30.8952C8.47849 30.8308 8.63169 30.7284 8.75633 30.5959C8.88096 30.4634 8.97376 30.3042 9.02766 30.1305C9.20413 29.5435 8.72766 28.8407 8.43456 28.3658C8.24275 28.055 7.94275 27.6177 7.90285 27.5663C7.86295 27.5149 7.86679 27.5241 7.876 27.5187C7.95272 27.4681 8.12612 27.6323 8.19211 27.6775C9.08904 28.2913 9.62689 28.8714 10.3213 28.9381C10.9849 29.0018 11.2642 28.2898 11.1584 27.7397C10.9771 27.1904 10.6717 26.6903 10.266 26.278C9.90169 25.8104 9.57557 25.3141 9.29083 24.7941C9.49799 24.8248 10.6458 26.1637 11.8489 26.3456C12.103 26.386 12.3633 26.3442 12.5919 26.2261C12.8205 26.1081 13.0053 25.9201 13.1195 25.6895C13.4931 24.9154 12.6491 24.2893 12.0422 24.0123ZM7.8384 22.6312C7.8748 22.6364 7.90955 22.6498 7.94 22.6704C7.97044 22.691 7.99579 22.7183 8.0141 22.7501C8.21436 23.0947 8.43303 23.4276 8.62791 23.7729C8.65855 23.8318 8.66539 23.9002 8.647 23.9639C8.62862 24.0277 8.58642 24.0819 8.52915 24.1155C8.47187 24.149 8.40391 24.1592 8.33932 24.144C8.27472 24.1288 8.21844 24.0893 8.18213 24.0338C7.97267 23.6954 7.77088 23.3517 7.56832 23.011C7.54543 22.9683 7.53491 22.9201 7.53796 22.8717C7.54101 22.8234 7.5575 22.7768 7.58557 22.7374C7.61365 22.6979 7.6522 22.667 7.69687 22.6483C7.74154 22.6295 7.79055 22.6236 7.8384 22.6312ZM6.05451 27.3207L5.48213 26.5297C5.28648 26.2604 5.73456 26.0026 5.92791 26.2696L6.50029 27.0599C6.69594 27.3292 6.24786 27.587 6.05451 27.32V27.3207Z" fill="#FC9070"/>
<path d="M60.1538 43.0666C60.152 42.9987 60.1242 42.934 60.0761 42.886C60.028 42.838 59.9632 42.8104 59.8952 42.8088H56.4049C55.7507 44.3212 54.7914 45.6823 53.5869 46.8069C52.3825 47.9315 50.9589 48.7953 49.4052 49.3444C46.2993 50.3027 42.5328 49.4902 39.1392 45.8495C38.2652 44.9022 37.4697 43.8852 36.7607 42.8088C36.7607 42.8088 33.9402 42.8027 33.5029 42.7981L32.4157 45.2925C32.3804 45.3509 32.3237 45.3933 32.2576 45.4107C32.1916 45.428 32.1214 45.4189 32.0619 45.3853C32.0619 45.3853 31.6077 45.1881 31.4205 45.1053C31.7359 47.0005 32.2476 48.8579 32.9474 50.6472C29.8722 53.2904 25.6791 57.3723 24.0532 61.082C22.2955 65.5229 21.2844 70.2239 21.0609 74.9948C21.0615 75.0631 21.0888 75.1284 21.137 75.1767C21.1852 75.2251 21.2505 75.2526 21.3187 75.2534H37.7044C37.761 75.253 37.8159 75.2342 37.8609 75.1999C37.9059 75.1656 37.9385 75.1176 37.9538 75.0631C38.2869 72.1571 39.1956 69.3466 40.6269 66.7956C42.0583 64.2447 43.9834 62.0045 46.2901 60.2058C48.4931 58.4623 50.8137 56.8729 53.2354 55.4488C55.9975 53.7999 58.3446 51.7881 59.4502 48.7851C59.7904 47.8437 60.0158 46.8648 60.1216 45.8695C60.1835 44.9365 60.1942 44.0008 60.1538 43.0666ZM30.5182 56.5705C30.0129 57.1227 29.563 57.723 29.1747 58.3628C29.1389 58.4193 29.0826 58.4598 29.0176 58.4756C28.9526 58.4915 28.884 58.4816 28.8262 58.4479C28.7683 58.4142 28.7258 58.3594 28.7076 58.2951C28.6893 58.2307 28.6967 58.1618 28.7282 58.1027C29.1292 57.418 29.6072 56.7813 30.153 56.2053C30.3793 55.9613 30.7438 56.3273 30.5182 56.5713V56.5705ZM36.8988 48.1198C36.809 48.3201 35.5361 48.9638 33.4806 50.8559C33.2504 51.0692 32.9128 50.7523 33.0885 50.5268C34.1688 49.5235 35.3255 48.6059 36.5481 47.7822C36.7791 47.6265 36.9916 47.9127 36.8988 48.1206V48.1198Z" fill="#FF4848"/>
<path d="M38.478 79.0482C33.9378 76.9301 28.8112 76.4224 23.9437 77.6088C22.6096 77.9442 21.3164 78.4253 20.0875 79.0436C20.0374 79.0712 19.9979 79.1145 19.975 79.1669C19.9521 79.2192 19.9471 79.2776 19.9608 79.3331C19.9746 79.3886 20.0063 79.4379 20.0509 79.4736C20.0956 79.5092 20.1508 79.529 20.2079 79.5301H38.3476C38.5893 79.5301 38.7182 79.161 38.478 79.0482Z" fill="black"/>
<path d="M67.3272 66.5034C63.8354 70.0021 63.2339 71.4354 61.0356 73.6259C59.2245 75.4507 57.036 76.857 54.6236 77.7461C54.5626 77.7577 54.5074 77.7901 54.4675 77.8378C54.4276 77.8854 54.4054 77.9454 54.4047 78.0075C54.404 78.0697 54.4248 78.1302 54.4635 78.1787C54.5023 78.2273 54.5567 78.2609 54.6175 78.274C57.2668 79.3083 61.0909 78.3001 63.84 74.2443C65.3814 71.9039 66.6856 69.4157 67.7331 66.8164C67.8405 66.5632 67.552 66.2786 67.3272 66.5034Z" fill="black"/>
<path d="M11.4377 9.70218C11.6947 9.90857 12.063 9.54873 11.8037 9.33696L8.71543 6.85793C8.45917 6.6523 8.09088 7.01138 8.35021 7.22391L11.4377 9.70218Z" fill="black"/>
<path d="M58.1621 33.9676C58.0039 32.9118 57.5019 31.9376 56.7339 31.1961C55.9658 30.4545 54.9746 29.987 53.9139 29.8661C52.8532 29.7451 51.7822 29.9774 50.8669 30.5269C49.9516 31.0765 49.2431 31.9126 48.8513 32.9057C48.2536 34.85 48.447 35.3119 47.6321 36.7482C46.9562 37.9405 45.9595 38.0027 44.87 37.174C44.0699 36.5537 43.3733 35.8105 42.806 34.972C42.0136 33.85 41.3204 32.6611 40.7344 31.4188C40.3774 30.5773 40.2526 29.6555 40.373 28.7494C40.4404 28.2408 40.4543 27.7265 40.4145 27.2149C40.3892 27.0283 40.3142 26.8519 40.1975 26.7041C40.0808 26.5563 39.9265 26.4426 39.7508 26.3748C39.7232 26.364 39.7017 26.3471 39.674 26.3387C39.4728 26.261 39.2544 26.2381 39.0414 26.2725C38.8284 26.3069 38.6284 26.3973 38.4618 26.5343C38.1683 26.8648 37.9706 27.2691 37.8902 27.7037C37.6485 28.7011 37.574 29.3725 37.3769 30.584C36.2992 30.0511 35.1176 29.7617 33.9157 29.7361C33.3664 29.72 32.6152 29.6226 32.1817 30.0338C32.0172 30.1919 31.9051 30.3966 31.8604 30.6203C31.8156 30.844 31.8405 31.0761 31.9316 31.2852C32.1671 31.8346 32.8001 31.9635 33.308 32.1569C33.6633 32.2919 34.0193 32.4262 34.3769 32.5558C34.4474 32.5812 34.6017 32.5965 34.6293 32.6763C34.6646 32.7737 34.5203 32.753 34.4697 32.753C32.8024 32.8014 32.0912 32.4331 30.9548 32.8919C30.7575 32.9515 30.5796 33.0624 30.4393 33.2135C30.299 33.3645 30.2015 33.5502 30.1567 33.7513C30.1118 33.9525 30.1213 34.162 30.1842 34.3583C30.2471 34.5546 30.3611 34.7307 30.5144 34.8684C30.8735 35.1116 31.2903 35.2559 31.7229 35.2865C32.424 35.4076 33.1321 35.4845 33.8428 35.5167C34.0664 35.5289 34.2881 35.5647 34.5042 35.6234C32.4096 35.9801 31.5119 36.0116 30.8022 36.6653C30.6448 36.8633 30.5606 37.1094 30.5637 37.3623C30.5667 37.6152 30.6569 37.8592 30.819 38.0533C31.2947 38.6295 32.1234 38.5558 32.7855 38.5674C35.1871 38.6088 35.3697 41.8014 39.1385 45.8433C42.5382 49.4894 46.3055 50.2935 49.4045 49.3382C50.9581 48.789 52.3816 47.925 53.586 46.8005C54.7904 45.6759 55.7498 44.3149 56.4043 42.8027C57.3487 40.6544 57.9248 38.3626 58.1083 36.0231C58.2203 35.3436 58.2384 34.652 58.1621 33.9676ZM40.4237 38.3602C40.584 38.4492 44.2546 40.553 44.2546 40.553C44.3137 40.5875 44.3567 40.6441 44.3741 40.7103C44.3915 40.7765 44.3819 40.8469 44.3475 40.906C44.313 40.9651 44.2564 41.0081 44.1902 41.0255C44.124 41.0429 44.0536 41.0333 43.9945 40.9988C43.8342 40.9098 40.1628 38.8067 40.1628 38.8067C40.1335 38.7896 40.1078 38.7669 40.0873 38.7398C40.0667 38.7128 40.0517 38.682 40.0431 38.6491C40.0345 38.6163 40.0324 38.582 40.037 38.5484C40.0416 38.5148 40.0528 38.4824 40.07 38.453C40.0871 38.4237 40.1098 38.3981 40.1369 38.3775C40.1639 38.357 40.1947 38.342 40.2276 38.3334C40.2604 38.3247 40.2946 38.3227 40.3283 38.3273C40.3619 38.3319 40.3943 38.3431 40.4237 38.3602ZM46.0285 47.3288C46.7875 47.5369 47.5901 47.525 48.3426 47.2942C48.661 47.1929 48.7961 47.6924 48.4799 47.7922C47.6401 48.0634 46.7381 48.0757 45.8912 47.8275C45.8584 47.8185 45.8278 47.8031 45.801 47.7822C45.7742 47.7614 45.7518 47.7354 45.735 47.7059C45.7011 47.6462 45.6923 47.5756 45.7105 47.5094C45.7287 47.4433 45.7725 47.3871 45.8321 47.3532C45.8917 47.3193 45.9624 47.3105 46.0285 47.3288ZM37.205 32.7446C37.5326 32.7983 37.393 33.2963 37.0677 33.2433L35.7748 33.0338C35.4472 32.9809 35.5868 32.4829 35.9121 32.5351L37.205 32.7446ZM35.9183 35.6748C36.3839 35.8129 36.8648 35.8933 37.35 35.9142C37.6822 35.928 37.683 36.4451 37.35 36.4305C36.8183 36.4108 36.2912 36.3245 35.7809 36.1735C35.7482 36.1645 35.7175 36.1491 35.6907 36.1282C35.6639 36.1074 35.6415 36.0814 35.6247 36.0519C35.608 36.0224 35.5972 35.9898 35.593 35.9561C35.5888 35.9224 35.5912 35.8882 35.6003 35.8555C35.6093 35.8227 35.6247 35.7921 35.6455 35.7653C35.6664 35.7385 35.6923 35.716 35.7218 35.6992C35.7514 35.6825 35.7839 35.6717 35.8176 35.6675C35.8513 35.6633 35.8855 35.6658 35.9183 35.6748Z" fill="#FC9070"/>
<path d="M24.4022 4.39746L23.7638 0.281855C23.7124 -0.0457672 23.2144 0.0938742 23.2651 0.419194L23.9034 4.5348C23.9541 4.86243 24.4528 4.72278 24.4022 4.39746Z" fill="black"/>
<path d="M36.3086 6.14726L38.4439 1.79763C38.5896 1.5007 38.1439 1.2383 37.9973 1.53753L35.8628 5.88639C35.7162 6.18332 36.162 6.44572 36.3086 6.14726Z" fill="black"/>
<path d="M46.3946 23.5743C47.7296 23.1032 49.08 22.6659 50.4404 22.2638C50.4731 22.2548 50.5038 22.2394 50.5306 22.2185C50.5574 22.1977 50.5798 22.1717 50.5966 22.1422C50.6134 22.1127 50.6242 22.0801 50.6284 22.0464C50.6326 22.0127 50.6301 21.9785 50.6211 21.9458C50.6121 21.913 50.5967 21.8824 50.5758 21.8556C50.555 21.8288 50.529 21.8063 50.4995 21.7896C50.47 21.7728 50.4374 21.762 50.4037 21.7578C50.37 21.7536 50.3358 21.7561 50.3031 21.7651C48.9312 22.1203 47.5923 22.6052 46.2573 23.0763C45.9481 23.1861 46.08 23.6855 46.3946 23.5743Z" fill="black"/>
<path d="M0.417366 18.6307C0.351335 18.6126 0.280809 18.6214 0.221259 18.6552C0.161709 18.689 0.117998 18.745 0.0997171 18.811C0.0828201 18.877 0.0921697 18.947 0.125796 19.0062C0.159422 19.0654 0.214705 19.1093 0.280025 19.1286L4.2698 20.8028C4.33583 20.8209 4.40636 20.8121 4.46591 20.7783C4.52545 20.7445 4.56917 20.6885 4.58745 20.6225C4.60434 20.5565 4.595 20.4866 4.56137 20.4273C4.52775 20.3681 4.47246 20.3242 4.40714 20.3049L0.417366 18.6307Z" fill="black"/>
<path d="M70.0837 38.5015H65.7279C65.6593 38.5015 65.5936 38.5287 65.5451 38.5772C65.4966 38.6257 65.4694 38.6915 65.4694 38.76C65.4694 38.8286 65.4966 38.8944 65.5451 38.9429C65.5936 38.9914 65.6593 39.0186 65.7279 39.0186H70.0837C70.1523 39.0186 70.218 38.9914 70.2665 38.9429C70.315 38.8944 70.3423 38.8286 70.3423 38.76C70.3423 38.6915 70.315 38.6257 70.2665 38.5772C70.218 38.5287 70.1523 38.5015 70.0837 38.5015Z" fill="black"/>
<path d="M61.3698 28.326H64.5378C64.6064 28.326 64.6722 28.2987 64.7206 28.2502C64.7691 28.2017 64.7964 28.136 64.7964 28.0674C64.7964 27.9988 64.7691 27.9331 64.7206 27.8846C64.6722 27.8361 64.6064 27.8088 64.5378 27.8088H61.3698C61.3012 27.8088 61.2354 27.8361 61.1869 27.8846C61.1385 27.9331 61.1112 27.9988 61.1112 28.0674C61.1112 28.136 61.1385 28.2017 61.1869 28.2502C61.2354 28.2987 61.3012 28.326 61.3698 28.326Z" fill="black"/>
<path d="M70.479 23.1929H64.1875C64.1214 23.1965 64.0593 23.2252 64.0138 23.2733C63.9683 23.3213 63.943 23.3849 63.943 23.4511C63.943 23.5172 63.9683 23.5808 64.0138 23.6288C64.0593 23.6769 64.1214 23.7056 64.1875 23.7092H70.479C70.5451 23.7056 70.6072 23.6769 70.6527 23.6288C70.6982 23.5808 70.7235 23.5172 70.7235 23.4511C70.7235 23.3849 70.6982 23.3213 70.6527 23.2733C70.6072 23.2252 70.5451 23.1965 70.479 23.1929Z" fill="black"/>
<path d="M44.2604 40.5494C44.2604 40.5494 40.5898 38.4456 40.4294 38.3566C40.3702 38.322 40.2997 38.3124 40.2333 38.3298C40.167 38.3472 40.1103 38.3902 40.0757 38.4494C40.0411 38.5087 40.0315 38.5792 40.0489 38.6455C40.0663 38.7119 40.1093 38.7686 40.1686 38.8031C40.1686 38.8031 43.8399 40.9062 44.0003 40.9952C44.059 41.0247 44.1269 41.0307 44.1899 41.012C44.2529 40.9933 44.3065 40.9513 44.3396 40.8945C44.3728 40.8377 44.383 40.7704 44.3683 40.7063C44.3536 40.6422 44.315 40.5861 44.2604 40.5494Z" fill="black"/>
<path d="M48.3452 47.2903C47.5928 47.5211 46.7902 47.5331 46.0312 47.3249C45.9984 47.3158 45.9642 47.3134 45.9305 47.3176C45.8968 47.3218 45.8643 47.3326 45.8347 47.3493C45.7751 47.3832 45.7314 47.4394 45.7131 47.5056C45.6949 47.5717 45.7037 47.6423 45.7376 47.702C45.7715 47.7616 45.8277 47.8054 45.8938 47.8236C46.7398 48.0712 47.6406 48.0589 48.4795 47.7883C48.7987 47.6885 48.6637 47.1891 48.3452 47.2903Z" fill="#FF4848"/>
<path d="M35.7756 33.03L37.0684 33.2395C37.3937 33.2924 37.5334 32.7945 37.2058 32.7408L35.9129 32.5313C35.5899 32.4791 35.448 32.9771 35.7756 33.03Z" fill="#FF4848"/>
<path d="M37.3501 35.9172C36.8647 35.8954 36.3839 35.8139 35.9184 35.6748C35.8856 35.6657 35.8514 35.6633 35.8177 35.6675C35.784 35.6717 35.7515 35.6825 35.7219 35.6992C35.6924 35.716 35.6665 35.7384 35.6456 35.7652C35.6247 35.792 35.6094 35.8227 35.6003 35.8554C35.5913 35.8882 35.5889 35.9224 35.5931 35.9561C35.5973 35.9898 35.608 36.0223 35.6248 36.0519C35.6416 36.0814 35.664 36.1073 35.6908 36.1282C35.7176 36.1491 35.7483 36.1645 35.781 36.1735C36.2912 36.3248 36.8183 36.4112 37.3501 36.4305C37.6831 36.4482 37.6823 35.931 37.3501 35.9172Z" fill="#FF4848"/>
<path d="M36.548 47.7829C35.3406 48.6027 34.1932 49.5075 33.1145 50.4906C33.071 50.5401 33.0481 50.6042 33.0502 50.6701C33.0523 50.7359 33.0794 50.7985 33.126 50.8451C33.1726 50.8916 33.2351 50.9187 33.301 50.9209C33.3668 50.923 33.431 50.9 33.4805 50.8565C34.5244 49.9006 35.6369 49.0223 36.8089 48.2287C37.0705 48.0514 36.8296 47.5934 36.548 47.7829Z" fill="#FC9070"/>
<path d="M30.1531 56.2061C29.6073 56.7822 29.1293 57.4188 28.7283 58.1036C28.6968 58.1626 28.6894 58.2315 28.7077 58.2959C28.726 58.3603 28.7685 58.415 28.8263 58.4487C28.8841 58.4824 28.9527 58.4924 29.0177 58.4765C29.0827 58.4606 29.1391 58.4202 29.1749 58.3637C29.5631 57.7238 30.0131 57.1235 30.5183 56.5713C30.7439 56.3274 30.3795 55.9614 30.1531 56.2061Z" fill="#FC9070"/>
<path d="M5.92753 26.2687C5.73418 26.0017 5.28609 26.2595 5.48175 26.5288L6.05413 27.3199C6.24748 27.5869 6.69556 27.3291 6.49991 27.059L5.92753 26.2687Z" fill="#FF4848"/>
<path d="M8.18407 24.0331C8.22038 24.0887 8.27665 24.1281 8.34125 24.1433C8.40584 24.1585 8.47381 24.1483 8.53108 24.1148C8.58835 24.0813 8.63055 24.027 8.64893 23.9633C8.66732 23.8995 8.66048 23.8311 8.62984 23.7722C8.43266 23.427 8.21399 23.094 8.01603 22.7495C7.98144 22.6903 7.92474 22.6472 7.8584 22.6298C7.79207 22.6124 7.72154 22.6221 7.66233 22.6566C7.60311 22.6912 7.56006 22.7479 7.54265 22.8143C7.52524 22.8806 7.53489 22.9511 7.56949 23.0104C7.77281 23.351 7.9746 23.6948 8.18407 24.0331Z" fill="#FF4848"/>
<path d="M40.7582 14.3697C42.1883 15.7369 44.4687 15.852 45.4385 14.1395C46.6842 13.5078 48.0224 13.0779 49.4029 12.8658C51.4676 12.4285 50.8155 10.4513 49.4536 10.1981C51.7277 8.48553 49.7267 7.00778 47.6444 8.04512C47.6698 7.84845 47.6388 7.64859 47.555 7.46886C47.4712 7.28913 47.338 7.13693 47.171 7.03003C46.8704 6.87798 46.5374 6.80119 46.2006 6.80627C45.8638 6.81135 45.5333 6.89814 45.2374 7.05919C43.6306 7.67031 42.2913 8.82926 41.4556 10.3316C41.0775 10.4879 40.7452 10.7374 40.4896 11.0568C40.2339 11.3763 40.0634 11.7552 39.9937 12.1584C39.9241 12.5615 39.9577 12.9757 40.0913 13.3624C40.225 13.7491 40.4544 14.0956 40.7582 14.3697ZM46.8057 8.7863C46.8076 8.85523 46.8293 8.92216 46.8684 8.97901C46.9074 9.03586 46.962 9.08022 47.0257 9.10673C47.0893 9.13325 47.1593 9.14079 47.2271 9.12845C47.295 9.11612 47.3578 9.08443 47.408 9.0372C48.4193 8.10651 50.5017 8.21699 49.4881 9.23055C48.935 9.76146 48.2886 10.1857 47.5814 10.482C47.1978 10.6462 47.4594 11.263 47.8484 11.1334L47.8907 11.1196C48.4899 10.9216 49.3101 10.6508 49.8034 11.1541C49.8859 11.2255 49.9473 11.3183 49.9807 11.4222C50.0141 11.5261 50.0183 11.6372 49.993 11.7433C49.5986 12.4339 48.4845 11.9643 45.7469 13.2011C45.9318 11.5285 44.1924 9.9863 42.4477 10.0868C43.3398 8.81196 44.6596 7.8994 46.1674 7.51494C46.3022 7.4755 46.4457 7.47784 46.5792 7.52168C46.7126 7.56551 46.8296 7.64877 46.9147 7.76047C47.0075 8.04052 46.8525 8.19704 46.8057 8.7863ZM44.3359 14.3451C42.8605 15.4538 39.9234 13.7252 40.8218 11.8753C41.7142 10.0377 44.4472 10.6554 45.0142 12.6265C45.0746 12.9477 45.043 13.2796 44.923 13.5837C44.803 13.8878 44.5995 14.1517 44.3359 14.3451Z" fill="black"/>
<path d="M38.5165 78.9615C35.6334 77.5974 32.4841 76.8885 29.2946 76.8858C26.1051 76.883 22.9546 77.5863 20.0692 78.9454C19.9956 78.9774 19.935 79.0334 19.8973 79.1043C19.8597 79.1752 19.8471 79.2567 19.8617 79.3356C19.8763 79.4145 19.9172 79.4862 19.9777 79.5389C20.0382 79.5916 20.1148 79.6223 20.195 79.6259H38.3454C38.4232 79.6245 38.4984 79.5976 38.5595 79.5493C38.6206 79.5011 38.6642 79.4341 38.6836 79.3587C38.703 79.2834 38.6972 79.2037 38.667 79.1319C38.6368 79.0602 38.5839 79.0003 38.5165 78.9615ZM36.5784 78.917H21.8807C26.6223 77.1597 31.8367 77.1597 36.5784 78.917Z" fill="black"/>
<path d="M67.2593 66.4354C63.8534 69.8482 63.0954 71.438 60.9678 73.5579C59.1727 75.373 57 76.7705 54.6041 77.6513C54.5228 77.6671 54.4493 77.7102 54.3957 77.7733C54.3421 77.8364 54.3115 77.9159 54.309 77.9987C54.3065 78.0815 54.3322 78.1627 54.3819 78.2289C54.4316 78.2952 54.5024 78.3425 54.5826 78.3633C57.2097 79.3899 61.0897 78.4715 63.9194 74.2968C65.4677 71.9538 66.7751 69.4603 67.8217 66.8543C67.8606 66.7795 67.8716 66.6933 67.8527 66.6111C67.8338 66.5289 67.7863 66.4561 67.7187 66.4057C67.6511 66.3553 67.5677 66.3306 67.4835 66.3361C67.3994 66.3415 67.3199 66.3767 67.2593 66.4354ZM66.3731 68.408C65.6035 70.0974 64.722 71.7335 63.7345 73.3055C62.256 75.6725 60.5849 77.0881 58.4741 77.7602C57.6001 78.0382 56.6725 78.104 55.768 77.952C61.0721 75.6403 62.9811 72.1462 66.3731 68.408Z" fill="black"/>
<path d="M8.28956 7.29844C11.6356 9.98387 11.4254 9.85957 11.6057 9.85957C11.6774 9.8656 11.7492 9.84892 11.8109 9.8119C11.8726 9.77489 11.921 9.7194 11.9495 9.6533C11.9779 9.5872 11.9848 9.51384 11.9692 9.44359C11.9537 9.37334 11.9164 9.30977 11.8627 9.26187L8.77447 6.78361C8.41999 6.49819 7.92895 7.00918 8.28956 7.29844Z" fill="black"/>
<path d="M23.8086 4.54931C23.8784 5.00353 24.5659 4.8355 24.4991 4.38205L23.8607 0.267205C23.7917 -0.183179 23.1035 -0.0212852 23.1702 0.433703L23.8086 4.54931Z" fill="black"/>
<path d="M36.3942 6.18975L38.5288 1.84012C38.7298 1.43117 38.1144 1.07976 37.9103 1.49485L35.775 5.84448C35.574 6.2542 36.1894 6.60484 36.3942 6.18975Z" fill="black"/>
<path d="M50.2781 21.6731C48.9062 22.0276 47.5581 22.5171 46.2254 22.9859C46.148 23.0127 46.082 23.065 46.0382 23.1342C45.9944 23.2034 45.9754 23.2854 45.9843 23.3668C45.9932 23.4482 46.0295 23.5242 46.0873 23.5822C46.145 23.6403 46.2208 23.677 46.3021 23.6864C46.4602 23.6864 47.5865 23.2069 50.463 22.356C50.5505 22.3283 50.6238 22.2678 50.6676 22.1872C50.7113 22.1065 50.7221 22.012 50.6977 21.9236C50.6732 21.8352 50.6155 21.7597 50.5365 21.713C50.4575 21.6662 50.3635 21.652 50.2742 21.6731H50.2781Z" fill="black"/>
<path d="M0.242084 19.2177C4.5848 21.04 4.24107 20.9057 4.33467 20.9057C4.41243 20.9058 4.48805 20.8803 4.54989 20.8332C4.61172 20.786 4.65635 20.7199 4.67688 20.6449C4.69992 20.5564 4.68829 20.4625 4.64435 20.3823C4.60042 20.3022 4.52752 20.2418 4.44056 20.2137L0.441575 18.5356C0.352656 18.5131 0.25846 18.5259 0.178787 18.5714C0.0991154 18.6168 0.0401732 18.6914 0.0143436 18.7794C-0.0114861 18.8675 -0.00218905 18.9621 0.0402816 19.0434C0.0827522 19.1247 0.155086 19.1864 0.242084 19.2154V19.2177Z" fill="black"/>
<path d="M70.084 38.4064H65.7236C65.6326 38.4106 65.5466 38.4498 65.4837 38.5157C65.4207 38.5817 65.3856 38.6693 65.3856 38.7605C65.3856 38.8516 65.4207 38.9393 65.4837 39.0052C65.5466 39.0712 65.6326 39.1103 65.7236 39.1146H70.0801C70.128 39.1168 70.1759 39.1093 70.2208 39.0925C70.2657 39.0757 70.3067 39.05 70.3414 39.0169C70.3761 38.9838 70.4037 38.944 70.4225 38.8999C70.4414 38.8559 70.4511 38.8084 70.4511 38.7605C70.4511 38.7125 70.4414 38.6651 70.4225 38.621C70.4037 38.577 70.3761 38.5372 70.3414 38.5041C70.3067 38.471 70.2657 38.4452 70.2208 38.4285C70.1759 38.4117 70.128 38.4042 70.0801 38.4064H70.084Z" fill="black"/>
<path d="M61.3689 28.4211H64.5446C64.6356 28.4169 64.7216 28.3777 64.7845 28.3118C64.8475 28.2459 64.8826 28.1582 64.8826 28.067C64.8826 27.9759 64.8475 27.8882 64.7845 27.8223C64.7216 27.7563 64.6356 27.7172 64.5446 27.713H61.3689C61.2778 27.7172 61.1919 27.7563 61.1289 27.8223C61.066 27.8882 61.0309 27.9759 61.0309 28.067C61.0309 28.1582 61.066 28.2459 61.1289 28.3118C61.1919 28.3777 61.2778 28.4169 61.3689 28.4211Z" fill="black"/>
<path d="M70.481 23.0972H64.1817C64.0907 23.1014 64.0048 23.1406 63.9418 23.2065C63.8789 23.2724 63.8438 23.3601 63.8438 23.4513C63.8438 23.5424 63.8789 23.6301 63.9418 23.696C64.0048 23.762 64.0907 23.8011 64.1817 23.8054H70.4794C70.5705 23.8011 70.6564 23.762 70.7194 23.696C70.7823 23.6301 70.8174 23.5424 70.8174 23.4513C70.8174 23.3601 70.7823 23.2724 70.7194 23.2065C70.6564 23.1406 70.5705 23.1014 70.4794 23.0972H70.481Z" fill="black"/>
<path d="M40.1161 38.8851C40.1161 38.8851 43.7905 40.9905 43.9524 41.0795C44.004 41.1084 44.0621 41.1234 44.1212 41.1232C44.1985 41.1232 44.2737 41.098 44.3353 41.0514C44.397 41.0047 44.4418 40.9393 44.4629 40.8649C44.4839 40.7905 44.4802 40.7113 44.4522 40.6393C44.4242 40.5672 44.3734 40.5063 44.3077 40.4657C43.0309 39.7312 41.7522 39.0002 40.4713 38.2729C40.4304 38.2504 40.3855 38.2362 40.3391 38.2313C40.2927 38.2263 40.2458 38.2306 40.201 38.2438C40.1563 38.2571 40.1146 38.2791 40.0784 38.3086C40.0423 38.3381 40.0123 38.3744 39.9903 38.4156C39.9482 38.4953 39.9378 38.588 39.9611 38.675C39.9844 38.7621 40.0398 38.8371 40.1161 38.8851Z" fill="black"/>
<path d="M45.8651 47.9159C46.7304 48.1706 47.6525 48.158 48.5106 47.8799C48.5968 47.8505 48.6684 47.7891 48.7105 47.7084C48.7527 47.6277 48.7622 47.5339 48.737 47.4464C48.7119 47.3588 48.654 47.2844 48.5754 47.2384C48.4968 47.1924 48.4036 47.1784 48.3149 47.1993C47.5796 47.4245 46.7955 47.4362 46.0538 47.2331C45.9645 47.2119 45.8705 47.2262 45.7916 47.2729C45.7126 47.3196 45.6548 47.3951 45.6304 47.4835C45.6059 47.572 45.6167 47.6664 45.6605 47.7471C45.7043 47.8277 45.7776 47.8882 45.8651 47.9159Z" fill="black"/>
<path d="M35.7592 33.1245C37.072 33.3378 37.0636 33.3394 37.115 33.3394C37.5201 33.3394 37.6521 32.7163 37.2201 32.6488L35.9273 32.4394C35.4776 32.3649 35.3035 33.0509 35.7592 33.1245Z" fill="black"/>
<path d="M37.354 35.8214C36.875 35.8006 36.4003 35.7209 35.9407 35.5844C35.8508 35.5617 35.7555 35.5752 35.6754 35.6219C35.5953 35.6687 35.5367 35.745 35.5122 35.8345C35.4877 35.9239 35.4993 36.0194 35.5444 36.1005C35.5895 36.1815 35.6646 36.2417 35.7535 36.268C36.2704 36.4248 36.8057 36.5128 37.3456 36.5296C37.8144 36.545 37.8029 35.8406 37.354 35.8214Z" fill="black"/>
<path d="M30.0811 56.141C29.5299 56.723 29.0477 57.3666 28.644 58.0591C28.6144 58.1132 28.5994 58.174 28.6005 58.2356C28.6015 58.2972 28.6186 58.3574 28.65 58.4104C28.6815 58.4634 28.7262 58.5072 28.7798 58.5377C28.8333 58.5681 28.8939 58.5841 28.9555 58.5839C29.3729 58.5839 29.2709 58.0599 30.5875 56.6397C30.8982 56.3006 30.3941 55.8026 30.0811 56.141Z" fill="black"/>
</svg>
