<svg width="84" height="92" viewBox="0 0 84 92" fill="none" xmlns="http://www.w3.org/2000/svg">
<path d="M29.0706 35.057C28.964 31.9658 27.9476 29.583 28.1097 25.0138C28.3575 18.0296 33.4349 14.155 39.6597 13.2314C47.1512 12.1205 55.429 13.9071 61.9125 17.5719C61.7678 18.0861 61.6612 18.6122 61.5938 19.1451C61.5072 19.8186 61.3838 20.6792 61.7378 21.2942C61.8168 21.4329 61.9276 21.5465 62.0591 21.6236C62.1907 21.7008 62.3384 21.7388 62.4875 21.734C62.671 21.7167 62.8477 21.6503 63.0021 21.5404C63.1565 21.4306 63.2839 21.2808 63.3729 21.1043C63.6159 20.3875 63.8183 19.655 63.9789 18.911C67.8723 21.7423 69.5721 25.3616 69.6968 28.6354C69.8111 31.6438 68.3919 34.2363 66.4372 36.2295C62.2935 40.4542 56.0498 41.9211 55.7927 49.3855C51.5054 49.1758 62.834 49.7314 47.1445 48.9614C47.1731 48.908 47.2025 48.8551 47.2285 48.8018C47.2465 48.7669 47.2513 48.7256 47.2421 48.6869C47.2329 48.6481 47.2102 48.6147 47.1789 48.5939C46.2662 47.9801 45.3104 47.4468 44.3204 46.999C44.2938 46.9827 44.2631 46.9762 44.2328 46.9805C44.2025 46.9849 44.1743 46.9997 44.1524 47.023C43.7531 47.5768 43.3851 48.1569 43.0503 48.7599C37.7562 48.5005 33.552 48.2079 28.4919 49.4812C27.1285 47.4308 25.5688 45.5459 23.8395 43.8586C26.0219 40.8732 29.2386 39.9178 29.0706 35.057ZM44.8358 46.2488C45.8229 46.7026 46.7787 47.2344 47.6955 47.8399C47.7272 47.8602 47.765 47.8659 47.8005 47.8557C47.836 47.8455 47.8664 47.8203 47.885 47.7856C48.1769 47.3095 48.333 46.7491 48.3335 46.1756C48.2986 45.7762 48.1241 45.4069 47.8465 45.1449C47.5689 44.883 47.2097 44.7486 46.8438 44.7699C46.4408 44.7951 46.0482 44.9199 45.6956 45.135C45.3429 45.3501 45.0394 45.6499 44.8076 46.0119L44.803 46.022C44.7896 46.0384 44.7797 46.0578 44.7741 46.0789C44.7684 46.1 44.7671 46.1222 44.7702 46.1439C44.7733 46.1656 44.7808 46.1863 44.7922 46.2044C44.8035 46.2226 44.8184 46.2377 44.8358 46.2488ZM43.4283 37.0686C43.4335 37.0723 43.439 37.0756 43.4447 37.0782C43.4483 37.0833 43.4522 37.0881 43.4565 37.0925C43.8975 37.4605 44.3431 37.2259 44.6405 36.7153C44.9242 36.2065 45.1282 35.6492 45.244 35.0666C45.5455 33.7854 45.6836 32.4646 45.6543 31.1419C45.6603 30.7365 45.5252 30.3437 45.2763 30.0434C44.9891 29.7605 44.6854 29.9974 44.5002 30.2803C44.2445 30.7346 44.0483 31.2259 43.9172 31.7399C43.5775 32.9572 43.3256 34.2018 43.1637 35.4622C43.1012 35.9802 43.0121 36.7001 43.4283 37.0686ZM42.9474 22.2487C43.808 21.7386 44.0067 19.2518 43.9382 18.1897C43.9139 17.8134 43.7702 17.462 43.388 17.4229C42.2498 17.307 42.1562 19.6925 41.9625 20.6392C41.7126 21.584 42.2368 22.6687 42.9458 22.2487H42.9474ZM36.8343 33.6894C36.9797 34.2607 37.3266 34.2837 37.5038 34.0114C37.9213 33.3674 37.8902 32.366 37.2602 32.0964C36.7453 31.9428 36.6899 33.1241 36.8343 33.6894ZM33.3836 43.8094C33.4504 43.9345 33.5412 44.0423 33.6497 44.1252C33.7582 44.2082 33.8819 44.2643 34.0121 44.2898C34.1424 44.3153 34.2761 44.3096 34.4042 44.2729C34.5322 44.2363 34.6514 44.1696 34.7537 44.0776C35.0637 43.7903 35.3219 43.4421 35.5151 43.0509C35.7696 42.5623 35.9932 42.0551 36.1842 41.5329C36.4362 40.8222 36.7638 39.8488 36.3581 39.1312C35.9801 38.4605 35.164 38.5461 34.6361 38.9408C34.2762 39.2438 33.9881 39.6371 33.7961 40.0875C33.2379 41.1497 32.8313 42.7408 33.3828 43.8103L33.3836 43.8094Z" fill="#E6DEFF"/>
<path d="M21.1794 68.2207C21.5427 65.8991 22.8149 63.9344 23.6994 61.8134C23.7969 61.8322 24.3336 61.9279 24.505 61.9555C24.1368 62.9704 23.8692 64.0257 23.707 65.1033C23.6087 65.7933 23.6877 66.6811 24.1598 67.183C24.5798 67.5781 25.1027 67.6218 25.7377 67.8145C25.8668 67.8387 25.9888 67.8966 26.0932 67.9834C26.1976 68.0701 26.2814 68.183 26.3375 68.3127C26.4534 68.7196 26.4844 69.1499 26.4282 69.5717C26.372 69.9276 26.4107 70.2936 26.5395 70.6261C26.6511 70.7861 26.8066 70.9027 26.9832 70.9588C27.1598 71.0148 27.3482 71.0074 27.5206 70.9375C28.1766 70.7613 28.7004 69.5943 28.8919 68.8817C29.0229 68.5031 29.0549 68.0919 28.9843 67.6945C28.9161 67.4857 28.8104 67.294 28.6733 67.1309C28.5362 66.9677 28.3706 66.8363 28.1863 66.7446C27.8111 66.5776 27.4717 66.3269 27.1896 66.0086C27.0347 65.7752 26.9584 65.4902 26.9738 65.2022C27.0158 64.2537 27.5588 63.6235 27.9221 62.2393C30.5681 62.2462 31.5455 61.5866 36.2608 61.4214C34.551 65.3029 34.0869 66.4759 33.0008 69.1458C32.6879 69.9154 32.3905 71.1357 33.0453 71.5309C33.5241 71.8202 34.1285 71.5051 34.4859 71.1403C34.7296 70.8814 34.9511 70.5983 35.1474 70.2949C36.7478 67.9053 38.2155 65.4125 39.5427 62.83C39.9778 64.3933 40.6892 65.8478 41.6364 67.1107C41.8726 67.4826 42.174 67.7993 42.523 68.0422C43.337 68.5022 43.825 67.4934 43.9145 66.7464C43.9652 65.9582 43.8384 65.1684 43.5453 64.4464C46.1279 66.2673 48.7954 67.9394 51.537 69.4558C49.8762 70.7167 48.3319 72.1524 46.9263 73.7425C46.1115 74.6839 45.4149 75.74 44.8548 76.883C44.7927 76.871 35.2066 75.0715 34.6875 74.9845C35.4288 74.4072 37.9282 72.432 38.4482 72.0406C39.1559 71.5074 40.179 70.7066 40.176 69.816C40.173 69.5592 40.0918 69.3108 39.9454 69.1102C39.7989 68.9096 39.5956 68.7681 39.3675 68.7083C38.8535 68.6177 38.3266 68.7171 37.8698 68.9907C37.3275 69.2857 36.8378 69.6845 36.4238 70.1683C35.3011 71.4287 33.8941 73.001 33.2439 74.7467C30.0309 74.2361 26.9087 73.824 23.5558 73.5553C22.994 73.4707 22.4256 73.4499 21.8598 73.4932C21.3894 71.9394 20.8346 70.4232 21.1794 68.2207ZM40.1744 73.9247C40.0929 74.031 40.1685 74.232 40.3092 74.1782C40.6508 74.0469 40.9895 73.9064 41.3247 73.7568C42.959 73.0319 43.3941 72.9785 43.8351 72.7802C44.0354 72.6882 44.2971 72.5222 44.3214 72.2591C44.3777 71.667 43.426 71.799 43.1278 71.8478C41.9039 72.0516 40.9757 72.88 40.1744 73.9247ZM32.3561 73.6947C32.5339 73.2654 32.7117 72.8351 32.8895 72.4039C32.9625 72.2273 32.7215 72.0732 32.6501 72.2508L32.1171 73.5415C32.044 73.7168 32.2826 73.8709 32.3561 73.6919V73.6947Z" fill="#E6DEFF"/>
<path d="M68.1505 44.0643C69.5953 43.125 71.9359 43.7989 73.0577 45.8165C73.4946 46.6053 73.7505 47.4983 73.8037 48.4191C75.2648 45.8864 79.6811 48.2646 78.9146 51.4804C78.7067 52.327 78.3491 53.1206 77.8621 53.8163C78.3368 53.6844 78.8326 53.6721 79.3123 53.7801C79.792 53.8882 80.2431 54.114 80.6317 54.4404C81.0203 54.7669 81.3363 55.1855 81.556 55.6649C81.7757 56.1443 81.8933 56.672 81.9 57.2084C81.9047 57.5675 81.8303 57.9225 81.6831 58.2434C81.5359 58.5644 81.3203 58.8417 81.0545 59.052C80.6431 59.3745 80.1832 59.6155 79.6958 59.7641C79.9909 59.8644 80.2633 60.0319 80.495 60.2556C80.7267 60.4794 80.9126 60.7543 81.0404 61.0624C81.1682 61.3704 81.235 61.7046 81.2364 62.043C81.2378 62.3813 81.1738 62.7162 81.0487 63.0255C80.4317 64.5021 78.7685 64.9764 77.4094 64.389C76.7395 64.1003 76.136 63.6533 75.642 63.0798C75.5138 60.7385 75.2249 58.4111 74.7776 56.1172C74.0254 52.566 71.6587 50.8148 68.3819 50.1832C67.8281 49.1798 67.4468 48.0738 67.2567 46.92C67.1219 45.8712 67.2395 44.6573 68.1505 44.0643ZM70.0094 49.3C70.3859 49.3679 70.7718 49.2747 71.0873 49.0397C71.4028 48.8047 71.6238 48.4458 71.7045 48.0373C71.7709 47.7231 71.7701 47.3962 71.7022 47.0823C71.6343 46.7684 71.5011 46.476 71.3131 46.2277C71.0995 45.996 70.8273 45.8397 70.5318 45.7791C70.2363 45.7185 69.931 45.7564 69.6553 45.8878C69.3574 46.0133 69.103 46.238 68.9279 46.5303C68.7529 46.8227 68.666 47.1678 68.6797 47.5171C68.6933 47.9325 68.8307 48.3316 69.0708 48.6535C69.3108 48.9754 69.6405 49.2024 70.0094 49.3Z" fill="black"/>
<path d="M12.0333 41.9607C12.3348 41.0435 12.9205 40.2713 13.6885 39.7785C14.4038 39.2528 15.2312 38.9391 16.0901 38.8677C17.5034 38.7605 18.5798 39.324 19.626 40.215C21.5337 41.8398 25.2414 44.5055 28.4922 49.4808L28.4234 49.4997C28.0384 48.9611 27.5113 48.5654 26.9139 48.3662C22.26 46.2763 17.2627 45.2597 12.2341 45.3799C11.8218 44.2964 11.7511 43.0932 12.0333 41.9607Z" fill="#A982F4"/>
<path d="M7.93784 46.4393C9.11384 45.5874 10.4305 45.4406 11.8438 45.3891C15.9961 45.2441 20.1407 45.8727 24.1007 47.248C25.3073 47.6557 26.4872 48.153 27.6321 48.7365C27.947 48.9184 28.2177 49.18 28.4217 49.4997C28.3725 49.5126 28.3242 49.5273 28.2751 49.5406C27.046 49.2 25.7696 49.1131 24.5115 49.2844C23.7156 49.4472 22.9364 49.6956 22.1851 50.0259C18.4819 51.4133 14.1631 53.2947 11.113 56.0096C10.104 55.7796 9.11275 55.4641 8.14826 55.0661C7.35283 54.7759 6.67689 54.1866 6.2402 53.4028C5.14904 51.1755 5.97308 47.8653 7.93784 46.4393Z" fill="#A982F4"/>
<path d="M50.6488 49.1321C62.6747 49.7219 67.813 49.9141 68.3363 50.174C68.303 50.1674 68.2686 50.1746 68.2398 50.1942C68.2111 50.2139 68.1901 50.2446 68.1809 50.2803C67.9028 51.5493 67.7247 52.842 67.6483 54.1443C67.6122 54.7758 67.6177 55.4093 67.6647 56.04C67.6571 56.1593 67.6724 56.279 67.7097 56.3914C67.7246 56.4164 67.7458 56.4362 67.7708 56.4482C67.7958 56.4602 67.8235 56.4641 67.8504 56.4592C67.8773 56.4543 67.9024 56.441 67.9225 56.4208C67.9426 56.4005 67.957 56.3744 67.9638 56.3454C67.9743 56.3219 68.1166 56.0404 68.128 56.0174C68.9415 54.3927 69.9466 52.9474 71.0188 51.2394C71.0365 51.2056 71.0416 51.1658 71.0333 51.1279C71.0249 51.0901 71.0037 51.0573 70.9739 51.0361L70.9848 51.0393C71.9471 51.483 72.7958 52.1777 73.4569 53.0628C74.118 53.9479 74.5715 54.9967 74.7778 56.1177C75.6598 60.2899 76.0189 66.9815 75.5758 71.5001C75.4846 72.5144 75.2208 73.5011 74.798 74.4091C73.8291 76.4456 71.782 77.073 69.745 76.7022C68.9241 76.5616 68.1109 76.3718 67.309 76.1337C67.3449 76.1437 67.3831 76.1378 67.4151 76.1171C67.447 76.0964 67.4702 76.0627 67.4795 76.0233C67.4896 75.9796 67.4862 63.0513 67.4837 62.9533C67.4778 62.7486 67.2565 62.6681 67.1154 62.5697C61.8856 58.9189 56.4229 55.6851 50.7694 52.8931V49.283C50.7686 49.2451 50.755 49.2089 50.7313 49.1813C50.7075 49.1537 50.6753 49.1367 50.6408 49.1335L50.6488 49.1321ZM73.1134 73.3815C73.2301 73.2348 73.0344 73.019 72.9177 73.1671C72.6184 73.5467 72.2819 73.889 71.9143 74.1879C71.7723 74.3029 71.9105 74.566 72.0541 74.4501C72.4421 74.1377 72.7973 73.7793 73.1134 73.3815ZM71.4477 65.2892C70.3531 64.6663 69.2826 63.997 68.2359 63.2813C68.0843 63.1773 67.9453 63.44 68.0961 63.5435C69.1421 64.2589 70.2127 64.9282 71.3078 65.5514C71.4661 65.642 71.606 65.3793 71.4477 65.2892ZM61.2181 57.9246L61.7822 56.0524C61.8385 55.8661 61.5722 55.787 61.5151 55.9719L60.951 57.8436C60.8947 58.0299 61.1623 58.109 61.2181 57.9246Z" fill="#F7DA31"/>
<path d="M47.1443 48.9601C50.7467 49.1367 50.5993 49.1234 50.6413 49.1335C50.6757 49.1367 50.7079 49.1537 50.7317 49.1813C50.7554 49.2089 50.769 49.2451 50.7698 49.283V52.8931C49.0856 52.1005 47.4984 51.5131 45.6668 51.715C46.4421 50.2439 46.894 49.4284 47.1443 48.9601Z" fill="#FFD2D2"/>
<path d="M19.773 55.8656C19.801 55.6439 19.8694 55.4307 19.9742 55.2386C20.079 55.0465 20.2179 54.8794 20.3828 54.7473C22.0487 53.1607 23.9317 51.8704 25.9629 50.9233C27.9369 49.9573 28.33 49.8938 28.3989 49.8193C28.4177 49.8018 28.4319 49.7791 28.4398 49.7535C28.4478 49.7279 28.4492 49.7004 28.4441 49.674C28.4389 49.6476 28.4273 49.6232 28.4105 49.6034C28.3936 49.5836 28.3722 49.5692 28.3485 49.5617C28.3242 49.5544 28.2994 49.5488 28.275 49.5424C33.315 48.1886 37.872 48.5069 43.049 48.7604C42.1573 50.312 41.2509 52.1133 40.4731 53.7528C38.5038 54.7973 36.5613 55.8996 34.6456 57.0597C34.0286 57.3775 33.5082 57.8831 33.1466 58.5161C33.0233 58.7736 32.9716 59.0651 32.9978 59.3544C33.024 59.6438 33.127 59.9185 33.294 60.1445C33.932 61.0001 35.3798 61.15 36.3869 61.1505C36.3449 61.2425 36.3029 61.3317 36.2634 61.4233C34.5612 61.4787 32.8634 61.6424 31.1785 61.9136C30.1059 62.1363 29.0164 62.246 27.9248 62.2412C28.1787 61.3372 28.2362 60.3807 28.0927 59.448C28.0309 59.1754 27.8833 58.9352 27.676 58.7698C27.4686 58.6043 27.2147 58.5241 26.9587 58.5432C26.6931 58.5698 26.4364 58.6624 26.2083 58.8138C25.9802 58.9652 25.7865 59.1716 25.6421 59.4172C25.1753 60.2141 24.7924 61.0662 24.5005 61.9573C23.6078 61.8194 22.7232 61.625 21.8511 61.375C24.1267 59.6915 26.3125 57.8671 28.3981 55.9106C28.4218 55.8979 28.4414 55.8776 28.4543 55.8523C28.4672 55.827 28.4727 55.798 28.4702 55.7692C28.4676 55.7404 28.4571 55.7132 28.44 55.6911C28.4229 55.669 28.4001 55.6532 28.3746 55.6457C28.2965 55.6024 28.6766 55.585 22.1393 56.5933C21.6288 56.7062 21.1074 56.7485 20.5874 56.7193C20.3332 56.7051 20.0919 56.5928 19.9061 56.4024C19.8518 56.3275 19.8119 56.2413 19.789 56.149C19.7661 56.0567 19.7607 55.9603 19.773 55.8656Z" fill="#FFD2D2"/>
<path d="M67.6485 54.142C67.7248 52.8397 67.903 51.5469 68.181 50.278C68.1913 50.2396 68.2148 50.2071 68.2465 50.1874C68.2783 50.1677 68.3158 50.1622 68.3511 50.1722C69.2451 50.3376 70.1174 50.622 70.9484 51.019C70.9671 51.0269 70.984 51.0392 70.9979 51.0549C71.0119 51.0706 71.0226 51.0894 71.0293 51.1101C71.036 51.1307 71.0385 51.1527 71.0367 51.1746C71.035 51.1964 71.0289 51.2176 71.019 51.2366C69.7732 53.2293 69.0227 54.2266 67.9639 56.3426C67.9571 56.3716 67.9428 56.3978 67.9227 56.418C67.9025 56.4382 67.8775 56.4515 67.8505 56.4564C67.8236 56.4613 67.796 56.4575 67.771 56.4454C67.746 56.4334 67.7247 56.4136 67.7098 56.3886C67.6725 56.2762 67.6572 56.1565 67.6648 56.0372C67.6178 55.4067 67.6124 54.7733 67.6485 54.142Z" fill="#A982F4"/>
<path d="M9.59 58.4158C9.87686 57.1858 10.4695 56.5427 11.3868 55.7685C14.4826 53.1557 18.5406 51.3916 22.1866 50.0259C22.938 49.6956 23.7172 49.4472 24.513 49.2843C25.7007 49.121 26.9054 49.1903 28.0708 49.489C28.1128 49.4996 28.2426 49.5277 28.3501 49.5599C28.3739 49.5673 28.3955 49.5816 28.4124 49.6014C28.4293 49.6211 28.441 49.6456 28.4462 49.6721C28.4513 49.6986 28.4498 49.7261 28.4418 49.7517C28.4338 49.7773 28.4195 49.8001 28.4005 49.8175C28.2716 49.9555 23.4996 51.5866 20.3827 54.7473C20.2172 54.8787 20.0778 55.0456 19.973 55.2379C19.8682 55.4301 19.8001 55.6436 19.7729 55.8656C19.7615 55.9603 19.7679 56.0567 19.7917 56.1486C19.8154 56.2406 19.8561 56.3263 19.9111 56.4005C20.0969 56.591 20.3382 56.7033 20.5923 56.7175C21.1124 56.7467 21.6338 56.7044 22.1442 56.5914C28.7109 55.5794 28.3094 55.5928 28.4073 55.6586C28.4281 55.6708 28.4454 55.6891 28.4573 55.7114C28.4692 55.7338 28.4753 55.7592 28.4748 55.7851C28.4744 55.8109 28.4675 55.8362 28.4548 55.858C28.4422 55.8798 28.4243 55.8974 28.4031 55.9088C24.8158 59.1362 20.6776 62.9307 16.2231 64.3213C14.7228 64.79 12.9332 65.1106 11.4985 64.2403C9.78614 63.2039 9.06626 60.6624 9.59 58.4158Z" fill="#2755A0"/>
<path d="M44.786 46.0413C44.7978 46.0229 44.7986 46.0289 44.8074 46.0105C45.0392 45.6486 45.3427 45.3488 45.6954 45.1337C46.048 44.9186 46.4406 44.7937 46.8436 44.7685C47.2095 44.7474 47.5687 44.8818 47.8462 45.1437C48.1238 45.4056 48.2983 45.7748 48.3333 46.1743C48.3328 46.7478 48.1767 47.3082 47.8848 47.7843C47.8662 47.819 47.8358 47.8441 47.8003 47.8543C47.7648 47.8645 47.727 47.8588 47.6953 47.8386C46.7785 47.2337 45.8227 46.7025 44.8356 46.2493C44.8039 46.2288 44.7809 46.1955 44.7716 46.1565C44.7623 46.1175 44.7675 46.0761 44.786 46.0413Z" fill="#2755A0"/>
<path d="M44.154 47.0216C44.176 46.9984 44.2041 46.9835 44.2344 46.9792C44.2647 46.9749 44.2954 46.9814 44.322 46.9977C45.312 47.4454 46.2678 47.9787 47.1805 48.5925C47.2118 48.6134 47.2345 48.6467 47.2437 48.6855C47.253 48.7243 47.2481 48.7655 47.2301 48.8004C47.202 48.8538 45.7601 51.5347 45.6664 51.715C43.8512 51.9119 42.2224 52.8245 40.4744 53.7519C41.2892 52.0356 43.028 48.5267 44.154 47.0216Z" fill="#2755A0"/>
<path d="M33.0053 69.1467C33.1565 68.7755 34.0604 66.5477 34.3703 65.8094C34.8915 64.5674 36.3468 61.2398 36.3888 61.1496C37.3202 61.1538 38.2479 61.022 39.1474 60.7577C39.2319 61.459 39.3656 62.1521 39.5472 62.8309C38.221 65.414 36.7532 67.9069 35.1519 70.2958C34.9556 70.5993 34.7342 70.8823 34.4904 71.1413C34.133 71.506 33.5286 71.8211 33.0498 71.5318C32.3921 71.1348 32.6958 69.908 33.0053 69.1467Z" fill="#2755A0"/>
<path d="M33.1482 58.5152C33.5101 57.8824 34.0304 57.3769 34.6472 57.0588C36.5598 55.8935 38.5023 54.7912 40.4747 53.7519C42.6167 52.6161 44.8128 51.3599 47.2925 51.7366C48.392 51.9139 49.4639 52.2566 50.4778 52.7551C56.2322 55.584 61.7927 58.8639 67.1161 62.5692C67.2572 62.6676 67.4786 62.7481 67.4844 62.9528C67.4903 63.1575 67.4844 63.3617 67.4844 63.5655V75.9855C67.4841 76.0087 67.4789 76.0315 67.4694 76.0521C67.4599 76.0728 67.4462 76.0909 67.4294 76.1049C67.4126 76.119 67.3931 76.1287 67.3724 76.1334C67.3516 76.138 67.3302 76.1375 67.3097 76.1318C58.8945 73.5809 50.8831 69.6411 43.5512 64.4478C43.8443 65.1698 43.9711 65.9596 43.9203 66.7478C43.8321 67.4948 43.3429 68.5027 42.5289 68.0436C42.1798 67.8006 41.8784 67.484 41.6423 67.1121C40.2779 65.2958 39.4131 63.0922 39.1487 60.7581C38.3539 60.9936 37.5359 61.1224 36.7127 61.1418C35.6111 61.1754 33.9903 61.0728 33.2977 60.144C33.1302 59.9182 33.0268 59.6436 33.0002 59.3541C32.9737 59.0647 33.0251 58.773 33.1482 58.5152ZM39.2134 59.9752C39.2407 60.1684 39.512 60.0856 39.4805 59.8947C39.3869 59.3239 39.9501 58.9352 40.3978 58.8938C40.9334 58.8918 41.465 58.995 41.9673 59.1983C43.5173 59.727 45.027 60.3884 46.4823 61.1763C46.6428 61.2586 46.7831 60.9973 46.6218 60.9145C44.9814 60.0124 43.2654 59.2853 41.4978 58.7433C41.3764 58.7093 41.3949 58.7295 41.4041 58.6973C41.4348 58.3445 41.5397 58.0042 41.7105 57.7031C41.8813 57.402 42.1134 57.1483 42.3886 56.9618C42.6144 56.8623 42.8569 56.8163 43.1001 56.827C44.7504 56.8583 46.3912 57.109 47.9864 57.5736C48.0213 57.5827 48.0582 57.5767 48.0892 57.5567C48.1201 57.5366 48.1428 57.5042 48.1523 57.4662C48.1619 57.4282 48.1576 57.3877 48.1403 57.3531C48.1231 57.3186 48.0942 57.2927 48.0599 57.281C46.2408 56.7051 43.4772 56.4378 42.6809 56.5537C41.7632 56.6876 41.2874 57.7074 41.137 58.6164C41.1355 58.6297 41.1355 58.6431 41.137 58.6564C40.7072 58.5262 40.2498 58.5597 39.8396 58.7512C39.627 58.8515 39.4504 59.0257 39.3372 59.247C39.224 59.4683 39.1805 59.7242 39.2134 59.9752Z" fill="#FF4848"/>
<path d="M32.6503 72.2494C32.7238 72.0719 32.9628 72.226 32.8897 72.4026C32.7119 72.832 32.5341 73.2622 32.3563 73.6934C32.2828 73.8709 32.0442 73.7168 32.1173 73.5402L32.6503 72.2494Z" fill="#2755A0"/>
<path d="M69.6558 45.8877C69.9315 45.7563 70.2368 45.7185 70.5323 45.7791C70.8278 45.8397 71.1 45.996 71.3136 46.2277C71.5016 46.476 71.6348 46.7684 71.7027 47.0823C71.7706 47.3962 71.7714 47.723 71.705 48.0373C71.6243 48.4458 71.4033 48.8046 71.0878 49.0397C70.7723 49.2747 70.3864 49.3679 70.0099 49.3C69.641 49.2024 69.3114 48.9754 69.0713 48.6535C68.8312 48.3315 68.6938 47.9325 68.6802 47.5171C68.6666 47.1678 68.7535 46.8227 68.9285 46.5304C69.1036 46.2381 69.358 46.0133 69.6558 45.8877Z" fill="#FF4848"/>
<path d="M20.8867 74.9708C20.9134 74.597 21.0264 74.2367 21.2152 73.9238C21.3751 73.6968 21.6067 73.5434 21.8645 73.4937C22.1165 73.4436 22.2946 73.4266 24.975 73.6777C27.7126 73.9358 30.5408 74.3116 33.249 74.7463C33.1007 75.139 33.0269 75.5606 33.0323 75.9856C33.0325 76.0123 33.0391 76.0386 33.0515 76.0617C33.0639 76.0848 33.0816 76.1039 33.1029 76.1172C33.1241 76.1305 33.1482 76.1374 33.1726 76.1373C33.1971 76.1372 33.2211 76.1301 33.2423 76.1167C33.6203 75.82 34.656 75.0127 34.6942 74.9851C35.2133 75.072 45.6701 77.038 46.072 77.1268C46.314 77.1789 46.5307 77.325 46.6821 77.5381C46.8335 77.7513 46.9095 78.0172 46.8961 78.2869C46.8952 78.3269 46.8803 78.365 46.8545 78.3932C46.8287 78.4215 46.794 78.4378 46.7575 78.4387H21.0388C21.0022 78.438 20.9674 78.4218 20.9416 78.3935C20.9158 78.3651 20.9011 78.3269 20.9006 78.2869C20.8 77.1845 20.7954 76.0742 20.8867 74.9708Z" fill="#A982F4"/>
<path d="M20.9763 78.798H46.695C46.7317 78.798 46.767 78.814 46.793 78.8424C46.819 78.8709 46.8336 78.9095 46.8336 78.9498C46.8336 78.99 46.819 79.0286 46.793 79.0571C46.767 79.0856 46.7317 79.1016 46.695 79.1016H20.9763C20.9395 79.1016 20.9042 79.0856 20.8783 79.0571C20.8523 79.0286 20.8377 78.99 20.8377 78.9498C20.8377 78.9095 20.8523 78.8709 20.8783 78.8424C20.9042 78.814 20.9395 78.798 20.9763 78.798Z" fill="#A982F4"/>
<path d="M33.7967 40.0894C33.9887 39.6389 34.2768 39.2456 34.6367 38.9426C35.1646 38.5479 35.9807 38.4624 36.3587 39.133C36.7644 39.8506 36.4372 40.824 36.1848 41.5347C35.9938 42.0569 35.7703 42.5641 35.5158 43.0527C35.3226 43.4439 35.0643 43.7921 34.7543 44.0794C34.6521 44.1716 34.5329 44.2384 34.4049 44.2751C34.2768 44.3118 34.143 44.3177 34.0127 44.2922C33.8824 44.2666 33.7587 44.2104 33.6502 44.1274C33.5417 44.0443 33.4509 43.9365 33.3843 43.8112C32.8311 42.7408 33.2377 41.1497 33.7967 40.0894Z" fill="#A982F4"/>
<path d="M43.1637 35.4632C43.3253 34.2024 43.5772 32.9574 43.9171 31.7399C44.0484 31.2251 44.2451 30.733 44.5014 30.278C44.6866 29.9942 44.9902 29.7582 45.2775 30.0411C45.5263 30.3414 45.6615 30.7342 45.6555 31.1396C45.6838 32.463 45.5446 33.7842 45.2418 35.0657C45.1261 35.6483 44.9221 36.2056 44.6383 36.7144C44.3409 37.225 43.8953 37.4609 43.4543 37.0916C43.4501 37.0871 43.4461 37.0824 43.4425 37.0773C43.4368 37.0746 43.4313 37.0714 43.4262 37.0676C43.012 36.7001 43.1011 35.9802 43.1637 35.4632Z" fill="#A982F4"/>
<path d="M41.9604 20.6392C42.1557 19.6834 42.2489 17.307 43.3858 17.4229C43.7689 17.462 43.9117 17.8135 43.936 18.1897C44.0045 19.2533 43.8063 21.7382 42.9453 22.2488C42.2321 22.6711 41.713 21.5809 41.9604 20.6392Z" fill="#A982F4"/>
<path d="M61.5938 19.1465C61.7684 17.8251 62.162 16.5498 62.7551 15.3832C62.9009 15.0028 63.1472 14.6787 63.4624 14.4527C63.5469 14.3949 63.6429 14.36 63.7422 14.3509C63.8415 14.3419 63.9414 14.3589 64.0335 14.4006C64.1256 14.4423 64.2073 14.5075 64.2718 14.5907C64.3364 14.6739 64.3818 14.7728 64.4044 14.8791C64.478 15.239 64.496 15.6098 64.4578 15.9762C64.2872 17.7556 63.9103 19.5041 63.3364 21.1792C63.2417 21.3357 63.1161 21.4668 62.969 21.5631C62.8219 21.6593 62.6569 21.7182 62.4863 21.7354C62.3371 21.7402 62.1894 21.7022 62.0579 21.625C61.9264 21.5478 61.8156 21.4343 61.7366 21.2956C61.383 20.6806 61.5073 19.8199 61.5938 19.1465Z" fill="#A982F4"/>
<path d="M37.2589 32.0955C37.8969 32.3688 37.9145 33.3762 37.5025 34.0105C37.332 34.2736 36.983 34.2791 36.833 33.6885C36.6894 33.125 36.7444 31.9428 37.2589 32.0955Z" fill="#A982F4"/>
<path d="M23.7094 65.1032C24.0233 63.0908 24.6806 61.1612 25.6469 59.4153C25.7913 59.1697 25.985 58.9633 26.2131 58.8119C26.4413 58.6605 26.6979 58.5679 26.9636 58.5413C27.2195 58.5222 27.4734 58.6024 27.6808 58.7679C27.8882 58.9333 28.0357 59.1735 28.0976 59.4462C28.1648 59.747 28.193 60.0567 28.1816 60.3662C28.1674 61.423 27.9438 62.4639 27.5264 63.4169C27.1748 64.2509 26.6906 65.2679 27.1941 66.009C27.675 66.7165 28.6331 66.607 28.9871 67.694C29.0577 68.0914 29.0257 68.5026 28.8947 68.8812C28.7028 69.5942 28.1807 70.7608 27.5234 70.937C27.351 71.0068 27.1626 71.0143 26.986 70.9582C26.8094 70.9022 26.6539 70.7856 26.5423 70.6255C26.4135 70.2931 26.3748 69.9271 26.431 69.5712C26.4872 69.1494 26.4562 68.7191 26.3403 68.3122C26.2842 68.1825 26.2004 68.0696 26.096 67.9828C25.9916 67.8961 25.8697 67.8382 25.7405 67.814C24.9476 67.5734 24.116 67.538 23.819 66.5992C23.6715 66.1178 23.6339 65.6042 23.7094 65.1032Z" fill="#A982F4"/>
<path d="M33.8207 73.5507C34.576 72.3238 35.4502 71.1899 36.4281 70.1688C36.8424 69.6853 37.3321 69.2866 37.8741 68.9912C38.3309 68.7175 38.8578 68.6182 39.3719 68.7088C39.5999 68.7686 39.8032 68.91 39.9497 69.1106C40.0961 69.3113 40.1773 69.5596 40.1804 69.8164C40.1395 70.2978 39.9275 70.7424 39.5903 71.0543C39.0291 71.6592 38.9897 71.5847 33.2399 76.1175C33.2187 76.131 33.1947 76.1381 33.1702 76.1382C33.1458 76.1383 33.1217 76.1314 33.1005 76.1181C33.0792 76.1048 33.0615 76.0857 33.0491 76.0626C33.0367 76.0395 33.0301 76.0132 33.0299 75.9864C33.069 75.107 33.3441 74.2598 33.8207 73.5507Z" fill="#A982F4"/>
<path d="M40.1742 73.9247C40.9768 72.8782 41.905 72.0516 43.1276 71.8478C43.4258 71.7981 44.3776 71.667 44.3213 72.2591C44.2961 72.5222 44.0353 72.6896 43.8349 72.7802C43.3973 72.9771 42.95 73.036 41.3246 73.7568C40.9886 73.9063 40.6526 74.0471 40.309 74.1782C40.1683 74.232 40.0927 74.031 40.1742 73.9247Z" fill="#A982F4"/>
<path d="M39.839 58.7507C40.2476 58.5625 40.7012 58.526 41.1305 58.6468C41.2754 57.7304 41.7513 56.6885 42.6795 56.5533C42.9566 56.5187 43.2362 56.5124 43.5144 56.5344C43.8034 56.5524 44.0928 56.5653 44.3817 56.591C45.624 56.6973 46.8547 56.9282 48.0584 57.281C48.0927 57.2927 48.1216 57.3186 48.1388 57.3532C48.1561 57.3877 48.1604 57.4283 48.1509 57.4662C48.1413 57.5042 48.1187 57.5367 48.0877 57.5567C48.0567 57.5767 48.0199 57.5828 47.9849 57.5736C46.3896 57.1095 44.7489 56.8588 43.0986 56.827C42.8816 56.8061 42.6633 56.8421 42.4615 56.9319C42.2597 57.0217 42.0803 57.1628 41.9382 57.3436C41.645 57.7387 41.4585 58.2158 41.3997 58.7208C43.2032 59.2569 44.9522 59.9924 46.6199 60.9159C46.7816 60.9987 46.6409 61.26 46.4805 61.1777C45.0251 60.3899 43.5154 59.7286 41.9655 59.1997C41.4631 58.9964 40.9315 58.8932 40.3959 58.8952C39.9482 58.9366 39.3854 59.3248 39.4786 59.8961C39.5101 60.087 39.2388 60.1698 39.2115 59.9766C39.1783 59.7251 39.2218 59.4687 39.3353 59.247C39.4487 59.0254 39.6258 58.8509 39.839 58.7507Z" fill="#FC9070"/>
<path d="M68.2365 63.2812C69.2823 63.9964 70.3529 64.6657 71.4483 65.2891C71.6066 65.3811 71.4667 65.641 71.3084 65.5513C70.2144 64.9285 69.1439 64.2592 68.0967 63.5434C67.9459 63.4399 68.0849 63.1773 68.2365 63.2812Z" fill="#FC9070"/>
<path d="M72.9183 73.1671C73.0351 73.019 73.2308 73.2347 73.114 73.3814C72.798 73.7793 72.4427 74.1377 72.0548 74.45C71.9112 74.5659 71.773 74.3028 71.9149 74.1878C72.2826 73.8889 72.619 73.5466 72.9183 73.1671Z" fill="#FC9070"/>
<path d="M2.27402 45.073L5.77178 45.7023C5.94734 45.7336 5.873 46.0243 5.69828 45.9949L2.20052 45.3656C2.02496 45.3343 2.10014 45.0417 2.27402 45.073Z" fill="black"/>
<path d="M6.40178 60.6237C6.54794 60.511 6.68612 60.7742 6.54122 60.8855L3.50631 63.2227C3.36015 63.3354 3.22154 63.0723 3.36644 62.9605L6.40178 60.6237Z" fill="black"/>
<path d="M13.7384 72.3184C13.7278 72.356 13.7041 72.3876 13.6726 72.4065C13.641 72.4254 13.604 72.4301 13.5693 72.4197C13.5347 72.4092 13.5051 72.3844 13.4868 72.3505C13.4685 72.3166 13.4629 72.2762 13.4713 72.2379C13.7351 71.104 14.3848 68.5243 14.4277 68.3629C14.4384 68.3253 14.462 68.2937 14.4935 68.2748C14.5251 68.2559 14.5621 68.2512 14.5968 68.2616C14.6314 68.2721 14.6611 68.2969 14.6793 68.3308C14.6976 68.3647 14.7032 68.4051 14.6948 68.4434C14.431 69.5768 13.7813 72.1569 13.7384 72.3184Z" fill="black"/>
<path d="M61.2186 57.9245C61.1628 58.1085 60.8952 58.0299 60.9515 57.8436L61.5156 55.9718C61.5714 55.7878 61.839 55.866 61.7827 56.0523L61.2186 57.9245Z" fill="#FC9070"/>
<path d="M10.6978 37.8925L8.53604 35.2484C8.41718 35.103 8.61247 34.8877 8.73175 35.0336L10.8935 37.6781C11.0124 37.823 10.8171 38.0383 10.6978 37.8925Z" fill="black"/>
<path d="M20.814 37.1513C20.8048 37.1685 20.7926 37.1836 20.7781 37.1957C20.7636 37.2077 20.7471 37.2165 20.7295 37.2216C20.7119 37.2267 20.6935 37.2279 20.6755 37.2252C20.6574 37.2225 20.6401 37.2159 20.6243 37.2058C20.6086 37.1958 20.5949 37.1824 20.5839 37.1666C20.5729 37.1507 20.5648 37.1326 20.5602 37.1133C20.5556 37.094 20.5545 37.0739 20.5569 37.0542C20.5594 37.0344 20.5654 37.0154 20.5746 36.9982C21.0416 36.097 22.2327 33.9484 22.2327 33.9484C22.2526 33.9145 22.2839 33.8907 22.3198 33.8821C22.3557 33.8735 22.3933 33.8807 22.4243 33.9023C22.4541 33.9228 22.4757 33.9549 22.4846 33.9922C22.4935 34.0295 22.4891 34.0691 22.4721 34.1029C22.0022 35.0087 21.6464 35.6651 20.814 37.1513Z" fill="black"/>
<path d="M81.0544 59.052C80.6423 59.3734 80.1826 59.6143 79.6957 59.7641C80.25 59.9522 80.7134 60.3737 80.9841 60.936C81.2547 61.4982 81.3103 62.1552 81.1388 62.7624C80.6852 64.3568 78.9086 65.0422 77.4092 64.389C76.7441 64.1005 76.142 63.6616 75.6422 63.1009C75.8368 65.8972 75.8148 68.7065 75.5763 71.4987C75.4826 72.5125 75.2189 73.4987 74.7985 74.4077C73.7951 76.4593 71.7829 77.0711 69.7454 76.7008C68.9248 76.5586 68.1117 76.3688 67.3094 76.1323C61.8632 74.49 56.5812 72.2535 51.5426 69.4563C49.8884 70.7265 48.3449 72.1616 46.9319 73.7431C46.1217 74.6886 45.4256 75.744 44.8604 76.8835C45.2645 76.9626 45.6694 77.0376 46.0709 77.1268C46.3128 77.1791 46.5293 77.3252 46.6807 77.5383C46.8321 77.7514 46.9082 78.0173 46.8949 78.2869C46.8941 78.3269 46.8792 78.365 46.8534 78.3932C46.8276 78.4215 46.7928 78.4378 46.7563 78.4387H21.0376C21.0012 78.4378 20.9665 78.4215 20.9407 78.3932C20.915 78.3649 20.9002 78.3269 20.8994 78.2869C20.7935 77.1845 20.7895 76.0732 20.8877 74.9699C20.9122 74.5956 21.0253 74.2348 21.2157 73.9229C21.3771 73.6975 21.6079 73.5441 21.865 73.4914C21.7033 72.962 21.529 72.4362 21.3904 71.8998C20.2648 67.7456 22.39 64.9538 23.7004 61.8125C23.0797 61.6978 22.4642 61.5509 21.8562 61.3723L21.8612 61.369C19.1699 63.2679 14.2954 65.9355 11.499 64.2395C9.357 62.9409 8.83746 59.2968 10.0773 57.1835C10.3634 56.7334 10.7139 56.3367 11.1151 56.0087C10.1056 55.7808 9.1142 55.4653 8.15034 55.0652C7.35765 54.7697 6.68332 54.1817 6.2427 53.4019C5.14272 51.1607 5.97558 47.8625 7.94034 46.4384C9.22722 45.5055 10.6909 45.4167 12.2344 45.3804C11.8144 44.2988 11.7438 43.0927 12.0341 41.9612C12.3338 41.043 12.9199 40.2702 13.6889 39.779C14.3844 39.2546 15.1951 38.9431 16.0373 38.8764C16.8794 38.8096 17.7226 38.9902 18.4798 39.3995C19.1573 39.7854 19.3618 40.0002 20.7869 41.176C21.8461 42.0537 22.8537 42.9028 23.8378 43.8582C25.1246 42.0978 26.5652 41.2321 27.7761 39.6115C29.929 36.7305 28.8526 33.3647 28.3901 29.9469C28.1445 28.3172 28.0499 26.6644 28.1079 25.0139C28.3578 18.0877 33.3062 14.2062 39.6579 13.2314C47.305 12.2228 55.053 13.734 61.912 17.572C62.1162 16.8094 62.3988 16.0746 62.7545 15.3819C62.9008 15.0021 63.147 14.6786 63.4618 14.4527C63.5464 14.3949 63.6423 14.3601 63.7416 14.351C63.841 14.342 63.9408 14.359 64.0329 14.4007C64.1251 14.4424 64.2068 14.5075 64.2713 14.5908C64.3358 14.674 64.3813 14.7728 64.4039 14.8792C64.4787 15.2389 64.4967 15.6099 64.4572 15.9763C64.3757 16.9683 64.2157 17.9507 63.9788 18.9124C67.8848 21.752 69.5732 25.3888 69.6967 28.6355C69.811 31.6439 68.3918 34.2364 66.4371 36.2296C62.2791 40.4699 56.0497 41.9161 55.793 49.3856C61.9133 49.6869 66.5984 49.8378 68.3825 50.1823C67.8286 49.1796 67.4471 48.0742 67.2569 46.9209C67.1221 45.8726 67.2397 44.6586 68.1507 44.0657C68.5704 43.825 69.0321 43.6851 69.505 43.6554C69.9779 43.6256 70.4512 43.7067 70.8933 43.8932C71.7319 44.2495 72.4556 44.8693 72.9734 45.6749C73.4913 46.4804 73.78 47.4357 73.8035 48.4205C75.2533 45.9085 79.6461 48.2163 78.9149 51.4818C78.7013 52.326 78.3442 53.1185 77.8624 53.8177C81.1018 52.9386 83.1392 57.3877 81.0544 59.052ZM67.2053 75.7864C67.2053 75.7864 67.1927 63.1424 67.199 62.9896C62.2855 59.5424 57.1654 56.4618 51.8736 53.7689C50.8357 53.2082 49.7595 52.7368 48.6547 52.359C46.7563 51.715 44.7748 51.7712 41.9977 53.2901C39.5617 54.5238 37.0896 55.924 34.7867 57.3206C34.0139 57.7935 32.6733 58.8804 33.5179 59.9642C33.8763 60.3499 34.336 60.603 34.8325 60.6878C36.2959 60.9621 37.7969 60.8718 39.224 60.4238C39.2446 60.418 39.2661 60.4174 39.2869 60.422C39.3077 60.4266 39.3272 60.4363 39.3441 60.4504C39.361 60.4645 39.3748 60.4825 39.3844 60.5033C39.394 60.524 39.3992 60.5468 39.3996 60.57C39.656 63.0386 40.5962 65.362 42.0939 67.2281C42.3173 67.5041 42.689 67.9912 43.078 67.8339C43.4077 67.7005 43.561 67.1954 43.624 66.8546C43.792 65.9272 43.445 64.957 43.1334 64.1111C43.088 63.9874 43.2413 63.8719 43.3371 63.94C50.6932 69.2023 58.7429 73.1976 67.2053 75.7864ZM45.6664 51.715C47.3074 51.531 48.9773 52.0476 50.4922 52.762C50.4922 49.7361 50.4842 49.404 50.4813 49.4275L46.9844 49.2559C46.64 49.8957 45.7609 51.5347 45.6664 51.715ZM46.9193 48.7756C46.079 48.2183 45.2021 47.73 44.296 47.3147C43.2355 48.7669 41.6852 51.8779 40.894 53.5279C42.3526 52.7689 43.7235 52.0168 45.3208 51.7624C46.7068 49.1243 46.4842 49.5599 46.9193 48.7756ZM33.3478 69.0377C33.1994 69.3834 33.0807 69.7434 32.9933 70.1132C32.929 70.3679 32.918 70.6352 32.9614 70.8952C32.9736 70.9777 33.0029 71.056 33.0471 71.1241C33.0913 71.1923 33.1492 71.2483 33.2164 71.288C33.4083 71.3611 33.6184 71.3519 33.8044 71.2623C34.1859 71.0656 34.5112 70.7586 34.7452 70.3745C36.4726 67.8373 38.0407 65.1745 39.4387 62.4045C39.3076 61.8641 39.2094 61.3147 39.1447 60.76C38.3497 60.9948 37.5318 61.1236 36.7087 61.1437C36.2093 62.2086 34.7582 65.5206 33.3478 69.0377ZM21.2745 74.44C21.2198 74.612 21.1822 74.7899 21.1624 74.9708C21.0668 76.0233 21.0668 77.0836 21.1624 78.136C21.1624 78.136 46.3099 78.1186 46.6076 78.1319C46.593 77.9893 46.5443 77.8535 46.4666 77.738C46.3888 77.6225 46.2846 77.5315 46.1645 77.4741C45.9715 77.405 45.7723 77.3588 45.5702 77.3361C45.3455 77.2901 35.1988 75.3714 34.3722 75.2348C33.9942 75.5288 33.6162 75.8218 33.2382 76.1185C33.217 76.1319 33.193 76.1391 33.1686 76.1391C33.1441 76.1392 33.12 76.1323 33.0988 76.119C33.0775 76.1058 33.0598 76.0866 33.0474 76.0635C33.0351 76.0404 33.0284 76.0142 33.0282 75.9874C33.021 75.6667 33.0627 75.3468 33.1517 75.0412C27.1037 74.0816 24.8185 74.0007 23.3035 73.8401C22.8787 73.7832 22.4508 73.76 22.0229 73.7707C21.8503 73.7834 21.6855 73.8547 21.5515 73.9746C21.4174 74.0946 21.3208 74.2572 21.2749 74.44H21.2745ZM38.8948 71.3184C39.4286 70.8768 40.3265 69.9623 39.6638 69.2245C39.2744 68.7916 38.6138 68.983 38.1669 69.184C37.583 69.4644 37.0576 69.8727 36.623 70.3837C35.4751 71.6717 33.5221 73.83 33.3184 75.6843C34.5658 74.704 38.1493 71.9348 38.8952 71.3184H38.8948ZM21.8008 66.8642C20.9864 69.2562 21.3514 71.0829 22.1435 73.4625C22.5597 73.4546 23.1154 73.52 23.5585 73.5545C26.7702 73.8121 30.0685 74.2362 33.247 74.7463C33.8968 73.0025 35.347 71.3741 36.4268 70.1679C36.8412 69.6844 37.3308 69.2857 37.8729 68.9903C38.3301 68.7179 38.8566 68.6186 39.3706 68.7079C39.5984 68.7682 39.8015 68.9098 39.9478 69.1103C40.0942 69.3108 40.1755 69.5589 40.1791 69.8156C40.1821 70.7103 39.1631 71.5033 38.4512 72.0401C37.9313 72.4325 35.4319 74.4082 34.6906 74.9841C35.7007 75.153 43.34 76.6056 44.5639 76.8301C45.1528 75.6304 45.8822 74.5201 46.7336 73.5273C48.1236 71.9705 49.6402 70.5557 51.2646 69.3004C48.6193 67.8267 46.0441 66.2064 43.5492 64.446C43.8423 65.168 43.9691 65.9578 43.9184 66.746C43.8306 67.493 43.3409 68.5009 42.5269 68.0418C42.1779 67.7988 41.8765 67.4822 41.6403 67.1103C40.6924 65.8477 39.981 64.3929 39.5466 62.8291C38.2208 65.4126 36.753 67.9057 35.1513 70.2944C34.955 70.598 34.7334 70.8811 34.4894 71.1399C34.1324 71.5047 33.528 71.8198 33.0492 71.5309C32.4037 71.1408 32.6926 69.8887 33.0047 69.1453C33.9152 66.8315 35.2609 63.6994 36.2647 61.421C34.5627 61.4804 32.8651 61.6441 31.1798 61.9114C30.1072 62.1351 29.0174 62.2448 27.9256 62.2389C27.5627 63.6244 27.0096 64.2592 26.9777 65.2018C26.9627 65.4898 27.0389 65.7746 27.1936 66.0082C27.6854 66.7129 28.6342 66.613 28.9865 67.6931C29.0571 68.0906 29.0251 68.5018 28.8941 68.8804C28.703 69.5897 28.1764 70.7604 27.5228 70.9361C27.3504 71.006 27.162 71.0135 26.9854 70.9574C26.8088 70.9014 26.6533 70.7847 26.5417 70.6247C26.4132 70.2922 26.3746 69.9263 26.4304 69.5704C26.4867 69.1486 26.4557 68.7183 26.3397 68.3114C26.2836 68.1817 26.1998 68.0687 26.0954 67.982C25.991 67.8953 25.8691 67.8374 25.7399 67.8132C24.9025 67.5593 24.1271 67.5372 23.8184 66.5983C23.6719 66.1166 23.6345 65.6031 23.7092 65.102C23.8706 64.0242 24.1381 62.9688 24.5072 61.9542C24.3359 61.9266 24.1654 61.8944 23.9944 61.8622C23.301 63.5481 22.3661 65.1502 21.8016 66.8642H21.8008ZM26.9218 70.6201C27.0694 70.6829 27.2304 70.6976 27.3855 70.6623C27.5405 70.627 27.6829 70.5434 27.7954 70.4214C28.323 69.8029 28.6566 69.0162 28.7476 68.1757C28.8593 66.9797 27.548 67.0289 26.9558 66.1627C26.2511 65.1319 27.1129 63.8052 27.4674 62.8121C27.8003 61.8898 27.9455 60.8991 27.8929 59.909C27.8825 59.6275 27.7947 59.356 27.6409 59.1302C27.4677 58.9571 27.2447 58.8558 27.0106 58.8438C26.7764 58.8318 26.5458 58.9098 26.3586 59.0645C25.9255 59.4445 25.5908 59.9419 25.3876 60.5075C24.846 61.7197 24.425 62.9922 24.1318 64.3029C24.0123 64.8161 23.9551 65.3443 23.9617 65.8738C23.962 66.0917 24.0035 66.3071 24.0836 66.5065C24.1637 66.706 24.2806 66.8851 24.427 67.0326C25.2099 67.5501 25.5715 67.2948 26.2603 67.7336C27.1738 68.4434 26.3405 70.299 26.9218 70.6201ZM24.6118 61.6634C24.8813 60.8746 25.2293 60.1207 25.6496 59.4154C25.7931 59.1688 25.9865 58.9616 26.2148 58.8101C26.4432 58.6585 26.7003 58.5666 26.9663 58.5414C27.2223 58.5223 27.4762 58.6025 27.6836 58.768C27.8909 58.9334 28.0385 59.1736 28.1003 59.4463C28.231 60.2745 28.1994 61.1238 28.0075 61.9376C30.4901 61.9574 31.4251 61.3217 36.0257 61.1372C35.1152 61.1096 33.88 60.9187 33.2999 60.1427C33.1321 59.9171 33.0287 59.6424 33.0024 59.3528C32.9762 59.0632 33.0284 58.7716 33.1525 58.5143C33.5126 57.8799 34.0334 57.3738 34.6515 57.0579C37.2479 55.4838 39.8288 54.0928 40.4807 53.7459C41.033 52.555 41.9986 50.6359 42.8885 49.0539C37.9082 48.7812 34.2063 48.6082 29.9084 49.4762C29.2387 49.5608 28.5819 49.7404 27.9546 50.0107C27.6005 50.1524 26.9924 50.4105 25.9672 50.9229C24.3585 51.6938 22.8322 52.6564 21.416 53.7933C20.9278 54.1935 20.4706 54.6374 20.0494 55.1204C19.8987 55.3371 19.8046 55.5945 19.7772 55.8652C19.7653 55.9599 19.7715 56.0563 19.7953 56.1482C19.819 56.2402 19.8599 56.3258 19.9154 56.3997C20.1009 56.5906 20.3424 56.7031 20.5966 56.7171C21.1167 56.7465 21.6381 56.7042 22.1485 56.591C28.6854 55.5818 28.3074 55.6011 28.3838 55.6434C28.4092 55.6511 28.4318 55.6671 28.4488 55.6891C28.4657 55.7112 28.4761 55.7384 28.4787 55.7671C28.4812 55.7958 28.4758 55.8246 28.463 55.8499C28.4503 55.8751 28.4309 55.8955 28.4074 55.9084C26.4125 57.7736 24.3304 59.524 22.1695 61.1524C22.9741 61.3687 23.7883 61.5393 24.6089 61.6634H24.6118ZM10.386 57.2309C9.84679 58.1935 9.61245 59.324 9.71929 60.4473C9.82612 61.5705 10.2682 62.6239 10.9769 63.4441C12.1345 64.6498 13.809 64.5909 15.2719 64.2606C16.7716 63.8991 18.2173 63.3079 19.5664 62.5043C22.6781 60.6685 25.091 58.5023 27.8685 56.0013C27.2099 56.1062 23.8243 56.6136 22.7945 56.7953C22.2065 56.8992 21.6151 56.9926 21.02 57.0372C20.6578 57.069 20.2944 56.9964 19.9658 56.8266C19.7708 56.7009 19.6222 56.5044 19.546 56.2711C19.4698 56.0378 19.4708 55.7826 19.5487 55.5501C19.7558 54.9843 20.1114 54.4984 20.5706 54.154C22.5059 52.3176 25.4384 50.7265 27.8328 49.7416C26.3926 49.3759 24.8908 49.421 23.4711 49.8727C19.4013 51.3549 15.6935 52.8512 12.2243 55.482C11.5225 55.9434 10.8994 56.5352 10.3831 57.2309H10.386ZM11.8438 45.6927C10.9224 45.6897 10.0058 45.8375 9.12432 46.1311C8.38091 46.403 7.72116 46.8959 7.21878 47.5548C5.7387 49.4868 5.77608 52.1341 6.6039 53.4699C7.28976 54.5767 8.68458 54.9958 9.84042 55.3435C10.3524 55.4981 10.8677 55.6379 11.3852 55.7686C14.4558 53.1769 18.4966 51.4073 22.1851 50.0259C22.9374 49.6992 23.7161 49.4509 24.511 49.2844C25.6988 49.1216 26.9036 49.191 28.0693 49.4891C27.8957 49.2805 27.6898 49.1071 27.4611 48.9771C27.1297 48.7891 26.788 48.6237 26.438 48.4817C22.2679 46.6697 17.828 45.7173 13.342 45.6725C12.8438 45.6674 12.3445 45.6844 11.8438 45.6927ZM19.639 40.6047C18.9956 39.9865 18.2316 39.5378 17.4055 39.2927C16.5933 39.0993 15.7488 39.1456 14.9584 39.4269C14.168 39.7083 13.46 40.2146 12.9068 40.894C12.6252 41.2498 12.4119 41.6642 12.2798 42.1123C12.1476 42.5604 12.0993 43.0332 12.1378 43.5022C12.1786 44.1436 12.3083 44.7744 12.5225 45.373C16.4482 45.3154 20.3569 45.9485 24.0994 47.248C25.3068 47.6537 26.4869 48.1511 27.6312 48.7365C24.6841 44.5639 22.1716 42.768 19.6403 40.6047H19.639ZM64.0179 14.7232C63.6819 14.4895 63.3459 14.8727 63.1464 15.2495C63.0515 15.4293 62.9553 15.6083 62.8671 15.7918C62.1837 17.2066 61.8136 18.7776 61.7869 20.378C61.7866 20.6688 61.8648 20.9531 62.0116 21.1954C62.0917 21.2812 62.1896 21.3444 62.2969 21.3797C62.4043 21.4149 62.5178 21.4212 62.6278 21.3978C62.7378 21.3745 62.841 21.3223 62.9285 21.2457C63.0161 21.1691 63.0854 21.0704 63.1304 20.9581C63.4072 20.3725 64.6546 15.3424 64.0179 14.7232ZM56.8603 44.4121C58.3689 41.7666 60.9469 40.2436 63.2443 38.5531C65.4434 36.9343 67.6963 35 68.7946 32.2764C69.9958 29.2988 69.3435 25.9067 67.7349 23.2728C66.7122 21.6622 65.4109 20.2869 63.9049 19.2248C63.7629 19.8625 63.5852 20.4901 63.3728 21.1039C63.1317 21.7309 62.1548 22.0368 61.7377 21.2939C61.3765 20.6834 61.5071 19.8182 61.5937 19.1447C61.6488 18.7173 61.7276 18.2939 61.8297 17.877C55.7329 14.453 48.9146 12.8655 42.0733 13.277C38.9683 13.4683 35.788 14.1349 33.1374 16.0075C31.9036 16.826 30.8499 17.9324 30.0513 19.248C29.2527 20.5636 28.729 22.056 28.5174 23.6187C27.7194 30.1309 30.5284 34.6201 28.7576 38.5227C27.7366 40.7716 25.4846 42.0762 24.0385 44.0491C25.6885 45.6873 27.1812 47.5061 28.493 49.4771C33.575 48.1979 37.7368 48.4946 43.0515 48.7559C43.3871 48.1526 43.7559 47.5723 44.1557 47.018C44.1775 46.9945 44.2058 46.9796 44.2361 46.9753C44.2664 46.9711 44.2972 46.9778 44.3237 46.9945C45.3142 47.4406 46.2702 47.9738 47.1822 48.5889C47.2134 48.6098 47.236 48.6431 47.2452 48.6819C47.2544 48.7207 47.2496 48.7618 47.2318 48.7968L47.1478 48.9564L55.5209 49.3672C55.5747 47.6175 56.0358 45.9119 56.8603 44.4121ZM50.7875 49.4422V52.9C56.4349 55.6901 61.8917 58.9215 67.1158 62.5692C67.2569 62.6676 67.4783 62.7481 67.4842 62.9528C67.49 63.1575 67.4842 63.3618 67.4842 63.5656V75.8765C68.0021 76.0315 68.5259 76.1616 69.0541 76.2666C70.0269 76.5241 71.0382 76.5554 72.0227 76.3586C72.9443 76.1494 73.7583 75.5627 74.2982 74.7182C74.8002 73.8926 75.121 72.951 75.2357 71.967C75.6914 68.626 75.5561 61.8755 74.6897 57.0662C74.2478 54.0946 72.9799 52.4202 70.9613 51.3622C69.9189 53.021 68.8429 54.6563 67.9533 56.425C67.9358 56.4541 67.9105 56.4765 67.8808 56.4892C67.8512 56.5019 67.8186 56.5041 67.7878 56.4957C67.7569 56.4873 67.7291 56.4685 67.7084 56.4421C67.6876 56.4157 67.6749 56.3829 67.6719 56.3482C67.5188 54.365 67.6726 52.3679 68.1268 50.4408C66.2846 50.1552 67.0713 50.2421 50.7875 49.4422ZM67.926 55.798C68.7442 54.177 69.69 52.8241 70.6879 51.2325C69.9595 50.8958 69.1987 50.6501 68.4199 50.5002C68.0301 52.2322 67.8639 54.0155 67.926 55.798ZM79.728 54.2294C79.0269 53.9411 78.2535 53.9445 77.5545 54.2391C77.5281 54.2464 77.5002 54.2451 77.4745 54.2353C77.4487 54.2255 77.4261 54.2077 77.4095 54.184C77.3928 54.1604 77.3828 54.1319 77.3808 54.1021C77.3787 54.0723 77.3846 54.0426 77.3978 54.0164C78.19 52.7901 79.1652 51.1764 78.4982 49.6354C77.788 48.0921 76.1366 47.3878 75.0425 47.7494C74.7154 47.8474 74.4227 48.0507 74.2022 48.3329C73.9817 48.615 73.8435 48.9632 73.8056 49.3322C73.7938 49.5259 73.5187 49.5282 73.5284 49.3322C73.7552 45.5501 71.0147 43.2731 68.6261 44.1545C68.4124 44.2331 68.2159 44.3596 68.0491 44.5259C67.8824 44.6922 67.7491 44.8947 67.6576 45.1205C67.1003 46.7305 67.9747 48.7738 68.7404 50.2656C69.6419 50.4594 70.516 50.7833 71.3398 51.2288C72.2164 51.7019 72.9822 52.3892 73.578 53.2376C74.1739 54.086 74.584 55.0729 74.7766 56.1223C75.2012 58.2643 75.4797 60.438 75.6099 62.6253C77.2479 64.6691 79.2639 64.7252 80.3647 63.5816C80.6341 63.2929 80.8206 62.9242 80.9013 62.5209C80.9819 62.1176 80.9533 61.6973 80.8188 61.3116C80.6843 60.926 80.4499 60.5917 80.1444 60.35C79.8388 60.1082 79.4754 59.9695 79.0988 59.9509C79.066 59.9498 79.0345 59.9359 79.01 59.9118C78.9856 59.8877 78.9697 59.8549 78.9653 59.8192C78.9609 59.7835 78.9681 59.7472 78.9858 59.7168C79.0035 59.6865 79.0305 59.6639 79.0619 59.6533C80.0905 59.3285 81.4559 58.8713 81.6071 57.5078C81.6578 56.8125 81.5026 56.1178 81.1643 55.5268C80.826 54.9358 80.3228 54.48 79.7293 54.2271L79.728 54.2294Z" fill="black"/>
<path d="M47.6953 47.8401C46.782 47.2283 45.8257 46.6969 44.8356 46.2508C44.8177 46.2398 44.8024 46.2246 44.7907 46.2062C44.779 46.1877 44.7713 46.1667 44.7682 46.1445C44.765 46.1224 44.7665 46.0997 44.7725 46.0783C44.7785 46.0569 44.7889 46.0372 44.8028 46.0208L44.8074 46.0112C45.3198 45.3368 46.0019 44.7402 46.8436 44.7692C47.209 44.7498 47.5674 44.8849 47.8446 45.1465C48.1218 45.408 48.2967 45.7762 48.3333 46.1749C48.332 46.7483 48.1759 47.3084 47.8848 47.7849C47.8661 47.8195 47.8358 47.8446 47.8003 47.8549C47.7649 47.8653 47.7272 47.8599 47.6953 47.8401ZM47.6853 45.3902C47.4371 45.1977 47.1437 45.0871 46.84 45.0715C46.5362 45.056 46.2347 45.136 45.9712 45.3023C45.6533 45.5006 45.3697 45.7587 45.1338 46.065C46.024 46.4741 46.886 46.9535 47.713 47.4993C48.0343 46.8382 48.3001 45.9403 47.6853 45.3883V45.3902Z" fill="black"/>
<path d="M32.6498 72.2494C32.7233 72.0719 32.9623 72.226 32.8892 72.4026C32.7111 72.832 32.5333 73.2622 32.3558 73.6934C32.2823 73.8709 32.0438 73.7168 32.1164 73.5402L32.6498 72.2494Z" fill="black"/>
<path d="M70.009 49.3001C69.6415 49.1997 69.3134 48.9718 69.0738 48.6505C68.8342 48.3292 68.6958 47.9316 68.6793 47.5171C68.6651 47.1676 68.7517 46.8222 68.9268 46.5296C69.1019 46.2371 69.3567 46.0124 69.655 45.8873C69.9305 45.755 70.2361 45.7167 70.5318 45.7775C70.8275 45.8382 71.0996 45.9951 71.3127 46.2277C71.5007 46.476 71.6339 46.7685 71.7018 47.0824C71.7697 47.3963 71.7705 47.7231 71.7042 48.0374C71.6211 48.4444 71.3995 48.8014 71.0847 49.036C70.7698 49.2705 70.3852 49.365 70.009 49.3001ZM71.214 46.5838C71.0603 46.3755 70.8552 46.2201 70.6231 46.1361C70.391 46.052 70.1417 46.0428 69.905 46.1096C69.6683 46.1765 69.4541 46.3164 69.288 46.5129C69.1219 46.7094 69.0109 46.954 68.9683 47.2176C68.9168 47.6144 69.0026 48.018 69.2087 48.3491C69.4149 48.6802 69.7265 48.915 70.0825 49.0075C70.3635 49.051 70.6494 48.9848 70.8902 48.8206C71.1311 48.6563 71.3114 48.4044 71.3997 48.1091C71.4701 47.8551 71.49 47.5875 71.4579 47.3244C71.4259 47.0613 71.3427 46.8087 71.214 46.5838Z" fill="black"/>
<path d="M20.9759 79.0993C20.9405 79.0972 20.9072 79.0803 20.8829 79.0521C20.8585 79.0239 20.8449 78.9866 20.8449 78.9478C20.8449 78.909 20.8585 78.8716 20.8829 78.8434C20.9072 78.8152 20.9405 78.7983 20.9759 78.7962H46.6946C46.73 78.7983 46.7633 78.8152 46.7876 78.8434C46.812 78.8716 46.8256 78.909 46.8256 78.9478C46.8256 78.9866 46.812 79.0239 46.7876 79.0521C46.7633 79.0803 46.73 79.0972 46.6946 79.0993H20.9759Z" fill="black"/>
<path d="M35.5137 43.052C35.3205 43.4432 35.0623 43.7914 34.7522 44.0787C34.65 44.1707 34.5308 44.2374 34.4027 44.274C34.2747 44.3107 34.1409 44.3164 34.0107 44.2909C33.8804 44.2654 33.7568 44.2093 33.6482 44.1263C33.5397 44.0434 33.449 43.9356 33.3822 43.8105C32.829 42.7746 33.2394 41.1466 33.7963 40.0896C33.9883 39.6391 34.2764 39.2458 34.6363 38.9428C35.1642 38.5481 35.9803 38.4625 36.3583 39.1332C36.764 39.8508 36.4385 40.8246 36.1848 41.5349C35.9935 42.057 35.7693 42.5639 35.5137 43.052ZM36.2487 39.7022C36.2377 39.5545 36.1923 39.4123 36.1168 39.2893C36.0413 39.1663 35.9381 39.0666 35.8173 38.9998C35.5367 38.9249 35.2414 38.951 34.9753 39.0743C34.7093 39.1976 34.4865 39.4115 34.3402 39.6843C34.0358 40.1737 33.7922 40.7052 33.6157 41.2649C33.4043 41.8805 33.3529 42.5483 33.467 43.1941C33.5388 43.8896 34.1331 44.2369 34.6124 43.8165C34.8418 43.6007 35.0359 43.3436 35.1861 43.0561C35.6005 42.3244 35.924 41.5355 36.1479 40.7101C36.2436 40.3851 36.2779 40.0422 36.2487 39.7022Z" fill="black"/>
<path d="M43.7074 37.2384C43.6049 37.2013 43.5097 37.1438 43.4264 37.0687C43.0114 36.7007 43.1009 35.9803 43.1635 35.4633C43.3253 34.2025 43.5772 32.9576 43.9169 31.74C44.0482 31.2252 44.2449 30.7331 44.5012 30.2782C44.6864 29.9943 44.99 29.7584 45.2769 30.0413C45.526 30.3413 45.6612 30.7342 45.6549 31.1397C45.6878 32.4633 45.5486 33.7852 45.2416 35.0658C45.043 35.9789 44.5201 37.5227 43.7074 37.2384ZM45.279 30.59C45.0791 30.1112 44.8976 30.0026 44.5385 30.8141C43.9741 32.1071 43.6452 34.1721 43.4885 35.1178C43.4245 35.4766 43.393 35.8415 43.3945 36.2071C43.3785 36.6179 43.6439 37.0609 44.0077 36.9505C44.413 36.8276 44.7779 35.7779 44.8897 35.328C45.2112 34.0989 45.3807 32.8281 45.3937 31.5496C45.4061 31.2249 45.3673 30.9003 45.279 30.59Z" fill="black"/>
<path d="M42.9456 22.2488C42.806 22.3315 42.6429 22.3528 42.4895 22.3083C42.3361 22.2639 42.2039 22.1571 42.1199 22.0096C42.0097 21.8051 41.9388 21.578 41.9114 21.3424C41.8841 21.1068 41.9008 20.8676 41.9607 20.6393C42.1568 19.6793 42.2492 17.3071 43.3862 17.423C43.7692 17.4621 43.9091 17.8135 43.9364 18.1898C43.9985 19.2897 43.8062 21.7382 42.9456 22.2488ZM43.6667 18.4055C43.6667 18.1645 43.6697 17.7717 43.3862 17.7266C42.5042 17.5886 42.4202 19.8886 42.2278 20.7203C42.1416 21.0728 42.1714 21.4473 42.3118 21.7783C42.3473 21.8748 42.4158 21.9523 42.5027 21.9943C42.5897 22.0363 42.6881 22.0395 42.7772 22.0032C43.0703 21.7862 43.2751 21.4531 43.3484 21.074C43.5912 20.2106 43.6989 19.3083 43.6667 18.4055Z" fill="black"/>
<path d="M37.1464 34.1652C36.9637 34.104 36.8797 33.8703 36.8335 33.6896C36.6903 33.1265 36.7428 31.9416 37.2594 32.0961C37.8894 32.3657 37.9255 33.38 37.5034 34.0106C37.4645 34.0722 37.4099 34.1198 37.3463 34.1473C37.2828 34.1748 37.2132 34.181 37.1464 34.1652ZM37.3472 32.5317C37.1829 32.3247 37.1372 32.3404 37.0809 32.6063C37.023 32.9464 37.0321 33.2961 37.1073 33.6321C37.1813 33.915 37.2527 33.9623 37.3858 33.6477C37.4651 33.4575 37.5048 33.2504 37.5021 33.0414C37.5084 32.9494 37.498 32.857 37.4714 32.7695C37.4448 32.682 37.4026 32.6012 37.3472 32.5317Z" fill="black"/>
<path d="M41.6245 72.4759C42.0802 72.1543 42.5921 71.9404 43.1276 71.848C43.4263 71.802 44.3776 71.6667 44.3213 72.2592C44.2755 72.739 43.4855 72.9055 43.0499 73.0628C41.5841 73.5937 41.3926 73.7629 40.309 74.1783C40.1683 74.2321 40.0915 74.0297 40.1746 73.9249C40.5901 73.3663 41.0787 72.8781 41.6245 72.4759ZM43.0617 72.7399C43.2976 72.6654 43.5309 72.5812 43.761 72.4874C43.8548 72.4481 43.9387 72.385 44.0059 72.3034C44.084 72.2058 44.0218 72.1654 43.9277 72.1391C43.1655 72.0629 42.4023 72.2739 41.7643 72.7371C41.3936 73.0038 41.0542 73.3195 40.7538 73.6769C41.2255 73.4805 42.4166 72.952 43.0617 72.7399Z" fill="black"/>
<path d="M40.3977 58.8939C39.95 58.9353 39.3868 59.3235 39.4805 59.8948C39.5115 60.0843 39.2406 60.1708 39.2133 59.9753C39.1817 59.7244 39.2256 59.469 39.3386 59.248C39.4515 59.027 39.6273 58.8524 39.8391 58.7508C40.25 58.5623 40.7064 58.529 41.1365 58.656C41.1351 58.6427 41.1351 58.6293 41.1365 58.616C41.2869 57.7071 41.7627 56.6872 42.6804 56.5534C42.9576 56.5188 43.2371 56.5125 43.5154 56.5345C44.3889 56.5703 45.2593 56.6672 46.1215 56.8248C46.7751 56.9347 47.4222 57.087 48.0594 57.2806C48.0937 57.2923 48.1226 57.3182 48.1398 57.3528C48.1571 57.3873 48.1614 57.4279 48.1518 57.4658C48.1423 57.5038 48.1196 57.5363 48.0887 57.5563C48.0577 57.5763 48.0209 57.5824 47.9859 57.5732C46.3908 57.1082 44.75 56.8575 43.0996 56.8266C42.8826 56.8057 42.6642 56.8416 42.4624 56.9314C42.2606 57.0212 42.0812 57.1624 41.9391 57.3432C41.6534 57.7431 41.4663 58.2167 41.3957 58.7186C43.1998 59.2579 44.95 59.9941 46.62 60.916C46.7813 60.9988 46.641 61.2601 46.4806 61.1778C45.0252 60.3899 43.5156 59.7285 41.9656 59.1998C41.4638 58.9962 40.9328 58.8926 40.3977 58.8939Z" fill="black"/>
<path d="M68.2359 63.2813C69.2817 63.9964 70.3523 64.6657 71.4476 65.2892C71.6055 65.3812 71.4657 65.6411 71.3078 65.5514C70.2132 64.9285 69.1427 64.2592 68.096 63.5435C67.9452 63.44 68.0843 63.1773 68.2359 63.2813Z" fill="black"/>
<path d="M71.9142 74.1879C72.2819 73.8891 72.6184 73.5468 72.9176 73.1672C73.0343 73.0195 73.2296 73.2348 73.1133 73.3815C72.7972 73.7794 72.442 74.1378 72.054 74.4501C71.9108 74.566 71.7722 74.3029 71.9142 74.1879Z" fill="black"/>
<path d="M2.27402 45.0731L5.77178 45.7024C5.94734 45.7336 5.873 46.0244 5.69828 45.9949L2.2001 45.3656C2.02496 45.3344 2.10014 45.0418 2.27402 45.0731Z" fill="black"/>
<path d="M3.36645 62.9607L6.40137 60.6239C6.54795 60.5112 6.68614 60.7743 6.54124 60.8857L3.50632 63.2229C3.36016 63.3356 3.22197 63.0725 3.36645 62.9607Z" fill="black"/>
<path d="M13.566 72.4183C13.5325 72.4067 13.5043 72.3817 13.4869 72.3483C13.4695 72.3148 13.4643 72.2755 13.4723 72.238C13.889 70.5526 14.3812 68.5415 14.4291 68.363C14.4398 68.3254 14.4634 68.2938 14.4949 68.2749C14.5265 68.256 14.5635 68.2513 14.5982 68.2617C14.6329 68.2722 14.6625 68.297 14.6808 68.3309C14.699 68.3648 14.7046 68.4052 14.6962 68.4435C14.4173 69.5728 13.7827 72.1571 13.7399 72.3185C13.7345 72.3376 13.7257 72.3554 13.7141 72.3708C13.7024 72.3862 13.6881 72.3988 13.6719 72.4081C13.6557 72.4174 13.6381 72.4231 13.6199 72.4248C13.6017 72.4266 13.5834 72.4244 13.566 72.4183Z" fill="black"/>
<path d="M61.2186 57.9242C61.1628 58.1082 60.8952 58.03 60.9511 57.8437L61.516 55.972C61.5714 55.788 61.839 55.8662 61.7827 56.0525C61.5951 56.6769 61.4071 57.3008 61.2186 57.9242Z" fill="black"/>
<path d="M8.73175 35.0336L10.8935 37.6782C11.0124 37.8231 10.8171 38.0383 10.6978 37.8925L8.53604 35.2484C8.41718 35.1031 8.61247 34.8878 8.73175 35.0336Z" fill="black"/>
<path d="M22.4243 33.902C22.4541 33.9224 22.4757 33.9545 22.4846 33.9918C22.4935 34.0291 22.4891 34.0687 22.4721 34.1025C22.0043 35.0083 21.6481 35.6619 20.814 37.1523C20.7946 37.185 20.7644 37.2083 20.7297 37.2173C20.695 37.2263 20.6585 37.2203 20.6278 37.2006C20.597 37.1809 20.5744 37.149 20.5645 37.1114C20.5547 37.0739 20.5585 37.0337 20.575 36.9991L22.2327 33.9493C22.2524 33.9153 22.2837 33.8912 22.3196 33.8823C22.3555 33.8734 22.3931 33.8805 22.4243 33.902Z" fill="black"/>
</svg>
