<svg width="111" height="111" viewBox="0 0 111 111" fill="none" xmlns="http://www.w3.org/2000/svg">
<path d="M35.1083 6.9246C32.9907 6.43585 31.7827 10.6391 34.1687 11.8512C34.4694 11.974 34.8136 12.003 35.1381 11.9329C35.4626 11.8628 35.7456 11.6982 35.9354 11.4694C36.3711 10.9115 36.5999 10.2603 36.5935 9.59605C36.654 8.63292 36.4455 7.2328 35.1083 6.9246Z" fill="#FFD2D2"/>
<path d="M60.2569 18.9777C57.5892 17.4952 54.6165 16.4285 51.4853 15.8302C47.4605 14.9759 43.2272 15.0701 39.2637 16.1022C39.2568 16.1022 39.2526 16.1091 39.2457 16.1119C39.2914 16.1033 39.3389 16.1041 39.3842 16.1141C39.4295 16.1241 39.4712 16.1431 39.5056 16.1694C40.1328 16.6549 40.6706 17.2138 41.102 17.8283C41.7212 18.723 42.5365 20.4394 40.9359 20.9586C40.2608 21.1543 39.5275 21.1648 38.8446 20.9885C37.0481 20.5285 35.7964 19.57 34.2722 18.5011C34.2427 18.4768 34.2202 18.4474 34.2062 18.415C34.1923 18.3826 34.1873 18.3481 34.1916 18.3139C34.1959 18.2797 34.2095 18.2467 34.2313 18.2174C34.253 18.1881 34.2825 18.1632 34.3174 18.1446L34.3035 18.1497C31.9177 19.5315 29.9799 21.3781 28.6615 23.5266C25.5555 28.6228 27.0074 33.8288 29.7735 39.0297C31.3251 42.0303 33.4616 44.7998 36.098 47.2275C36.672 45.8888 37.4063 44.6009 38.29 43.383C39.8885 41.1929 42.9146 38.5065 45.9218 38.0821C46.7858 37.9712 47.6678 38.0042 48.516 38.1794C49.3643 38.3546 50.1616 38.6683 50.8612 39.1022C52.9865 40.3804 54.5509 42.4757 55.8548 44.3876C56.9527 40.9227 58.4501 37.5531 60.3264 34.3251C62.5751 30.4001 65.6523 26.8387 69.4135 23.8083C66.4079 22.1416 63.3557 20.5314 60.2569 18.9777ZM48.5309 37.8952C44.8745 34.5252 41.1326 31.1033 36.3065 28.9712C35.9854 28.8292 36.2711 28.4256 36.5914 28.5687C41.4829 30.733 45.2366 34.1583 48.9333 37.5663C49.173 37.79 48.7741 38.1201 48.5309 37.8958V37.8952Z" fill="#FC9070"/>
<path d="M40.3375 3.56142C40.0095 3.37972 40.0067 3.53669 40.1839 3.34579C40.308 3.21107 40.3731 3.04547 40.3686 2.87613C40.364 2.70679 40.2901 2.54375 40.1589 2.41372C39.9215 2.26462 39.6332 2.18143 39.3353 2.17606C39.0373 2.17069 38.7449 2.24341 38.4999 2.38382C38.821 2.03882 39.0941 1.66679 38.8099 1.22634C38.3804 0.559344 37.4275 0.976219 36.9619 1.36147C35.8293 2.19324 34.8431 3.15205 34.0318 4.21002C33.9235 4.35011 33.8581 4.5099 33.8411 4.6756C33.8241 4.84129 33.8562 5.00791 33.9345 5.16107C34.0476 5.27148 34.1902 5.35869 34.3509 5.41585C34.5116 5.47302 34.6862 5.49859 34.8609 5.49054C36.4247 5.45341 37.9789 5.27623 39.4966 4.96212C39.9831 4.88047 40.6496 4.86609 40.7573 4.37389C40.7902 4.21937 40.7681 4.06025 40.6935 3.91597C40.619 3.77169 40.4953 3.64849 40.3375 3.56142Z" fill="black"/>
<path d="M39.5035 16.17C39.4592 16.1366 39.4042 16.1147 39.345 16.1068C39.2859 16.0989 39.2253 16.1055 39.1706 16.1257C37.4456 16.5956 35.8129 17.2717 34.3244 18.1325L34.3119 18.1428C34.2769 18.1615 34.2475 18.1864 34.2257 18.2157C34.2039 18.245 34.1904 18.2779 34.1861 18.3121C34.1817 18.3463 34.1867 18.3809 34.2007 18.4133C34.2146 18.4457 34.2372 18.4751 34.2667 18.4993C35.8812 19.6309 38.1712 21.3829 40.3827 21.0822C43.162 20.7062 41.5579 17.78 39.5035 16.17Z" fill="#2755A0"/>
<path d="M31.8828 14.7354C31.7522 14.725 28.232 15.4374 26.2533 13.456C24.6771 11.8782 25.1907 8.9986 28.7553 7.17067C29.0632 7.01255 28.7783 6.60545 28.4697 6.76817C24.5951 8.7985 24.1642 11.804 25.6139 13.525C26.2203 14.1713 27.0203 14.6754 27.9345 14.9873C28.8488 15.2993 29.8456 15.4082 30.8264 15.3035C21.3654 21.2087 19.9149 32.3091 25.9614 41.0888C27.5924 43.2883 29.3618 45.4154 31.2622 47.4615H31.9662C30.1566 45.5375 28.4644 43.5397 26.8962 41.4757C20.3215 32.623 21.7601 20.9425 32.0246 15.1735C32.0739 15.1453 32.1115 15.1051 32.1322 15.0585C32.1528 15.0119 32.1556 14.9611 32.1401 14.9132C32.1246 14.8652 32.0915 14.8224 32.0455 14.7906C31.9994 14.7587 31.9426 14.7395 31.8828 14.7354Z" fill="#A982F4"/>
<path d="M14.6711 95.5684C14.6253 95.5517 14.5759 95.5413 14.528 95.527C14.1367 95.4127 13.7135 95.3961 13.3109 95.4792C12.9084 95.5623 12.5442 95.7415 12.2637 95.9944H15.3481C15.1652 95.8111 14.9335 95.6652 14.6711 95.5684Z" fill="#E6DEFF"/>
<path d="M90.4838 52.4899C89.3968 52.613 88.0958 52.6624 87.1298 52.1512C86.6798 51.915 86.3574 51.5443 86.2297 51.1162C86.1978 50.9281 86.2138 50.7365 86.2767 50.5538C86.3397 50.3711 86.4482 50.2013 86.5953 50.0554C87.3897 49.1641 88.8735 48.4781 90.1732 47.9359C88.8082 47.9319 53.9456 47.9313 53.9456 47.9313C53.8698 48.2188 53.8761 48.2568 53.8191 48.3189C53.5565 49.2461 53.1615 50.1443 52.6425 50.9943C52.2693 51.5521 51.5187 52.1236 50.6965 51.8264C50.3978 51.6896 50.135 51.5051 49.9235 51.2834C49.7119 51.0618 49.5558 50.8076 49.4642 50.5355C49.2903 50.0802 49.1483 49.6169 49.0389 49.148C48.9736 50.0163 48.8165 51.2082 48.0728 51.8108C47.7616 52.0729 47.3379 52.2226 46.8938 52.2274C46.4498 52.2321 46.0215 52.0915 45.7022 51.8361C45.18 51.2983 44.813 50.669 44.6291 49.9961C44.4871 49.6317 44.3686 49.2612 44.274 48.8864C44.0609 49.84 43.5684 50.7357 42.8395 51.4952C42.3704 51.958 41.5308 52.257 40.9366 51.7493C40.7171 51.5369 40.561 51.2848 40.4807 51.0133C40.169 50.0073 40.0893 48.9617 40.2458 47.9313H36.1946C36.1512 47.931 36.1085 47.9224 36.0698 47.9063C36.031 47.8902 35.9972 47.8669 35.971 47.8384C35.9448 47.8098 35.9268 47.7766 35.9185 47.7414C35.9101 47.7062 35.9116 47.6699 35.9229 47.6352C35.9465 47.5777 35.975 47.5202 35.9993 47.4627H23.3656C23.3091 47.4608 23.2535 47.4743 23.2072 47.5011C23.1608 47.5279 23.1264 47.5665 23.1091 47.611C23.0626 47.6685 23.3114 47.1177 14.0269 69.0551H44.1941C44.2687 69.0557 44.34 69.0805 44.3928 69.1241C44.4455 69.1678 44.4755 69.2268 44.4762 69.2885C44.4825 69.9952 44.3866 79.0129 44.4762 88.597C44.4746 88.6585 44.4444 88.7172 44.3918 88.7607C44.3392 88.8042 44.2684 88.8292 44.1941 88.8305H5.657C3.28427 94.4379 8.69901 81.6522 2.75051 95.6977C2.73952 95.7324 2.73823 95.7687 2.74672 95.8038C2.75522 95.8389 2.77329 95.872 2.79956 95.9005C2.82582 95.929 2.85959 95.9522 2.8983 95.9682C2.93701 95.9843 2.97964 95.9929 3.02295 95.9933H8.16595C6.92398 94.6081 7.74895 92.5381 7.97899 91.0448C8.02347 90.7498 8.5892 90.7475 8.54403 91.0448C8.29383 92.6836 7.4494 94.8611 8.9089 95.9933H11.4109C12.0628 95.5482 12.7807 94.7754 14.2958 94.991C14.6554 95.0423 14.9968 95.1587 15.2955 95.332C15.5942 95.5053 15.8429 95.7311 16.0236 95.9933H74.1666C74.2282 95.9918 74.2877 95.9743 74.3367 95.9434C74.3857 95.9124 74.4217 95.8695 74.4398 95.8208C75.0743 94.2021 77.0606 89.628 77.3518 88.9403H74.8171C74.7446 88.9373 74.6763 88.9114 74.6262 88.8679C74.5762 88.8244 74.5483 88.7666 74.5483 88.7066C74.5483 88.6465 74.5762 88.5888 74.6262 88.5453C74.6763 88.5017 74.7446 88.4758 74.8171 88.4728C74.8171 88.4728 77.3886 88.4728 77.5513 88.4682L88.2974 63.0797C88.2119 63.0607 88.1243 63.0458 88.0423 63.0222C87.971 63.0045 87.9107 62.9648 87.8739 62.9112C87.8371 62.8576 87.8268 62.7944 87.8449 62.7347L92.3179 52.1662C91.7168 52.3106 91.1038 52.4188 90.4838 52.4899Z" fill="#E6DEFF"/>
<path d="M75.1042 97.7861V109.884C75.1078 109.943 75.1391 110 75.1917 110.041C75.2443 110.083 75.3141 110.106 75.3867 110.106C75.4593 110.106 75.5291 110.083 75.5817 110.041C75.6343 110 75.6656 109.943 75.6692 109.884V97.7861C75.6656 97.7261 75.6343 97.6696 75.5817 97.6281C75.5291 97.5867 75.4593 97.5637 75.3867 97.5637C75.3141 97.5637 75.2443 97.5867 75.1917 97.6281C75.1391 97.6696 75.1078 97.7261 75.1042 97.7861Z" fill="#E6DEFF"/>
<path d="M101.04 49.9593C100.542 48.7117 99.8343 47.5281 98.9385 46.4432C97.3114 44.4259 95.5561 42.4814 93.6801 40.6179C92.9956 43.3445 92.4048 45.2604 91.7244 47.7594C91.6904 47.8853 91.5701 47.9261 91.4131 47.9319C90.9961 47.9451 90.5791 47.9457 90.1621 47.9428C88.8951 48.4741 87.3709 49.1825 86.5932 50.0553C86.4461 50.2012 86.3376 50.371 86.2746 50.5537C86.2117 50.7365 86.1957 50.9281 86.2277 51.1162C86.3554 51.5442 86.6778 51.915 87.1277 52.1512C88.0937 52.6653 89.3955 52.6112 90.4818 52.4899C91.1012 52.4199 91.7137 52.3131 92.3145 52.1702L87.8415 62.7387C87.8233 62.7984 87.8337 62.8616 87.8704 62.9152C87.9072 62.9687 87.9675 63.0085 88.0388 63.0262C88.5425 63.1913 89.0896 63.2447 89.6259 63.1813C90.1622 63.1179 90.6692 62.9397 91.0968 62.6645C91.0399 62.9611 91.1238 63.2644 91.3311 63.5109C91.5384 63.7575 91.8529 63.9281 92.2088 63.987C92.8941 64.0744 93.2993 63.5926 93.61 63.1671C93.7193 63.0176 93.8215 62.8642 93.9164 62.7071C93.9209 63.1814 94.0846 63.6454 94.389 64.0474C95.0417 64.692 95.8916 63.9468 96.1759 63.4264C96.506 62.8232 98.9427 58.279 99.7955 56.5983C100.857 54.5191 101.76 52.2191 101.04 49.9593ZM93.9783 51.6912L95.7943 50.9293C96.1175 50.7931 96.4038 51.1967 96.0793 51.3318L94.2639 52.0937C93.9401 52.2311 93.6544 51.8275 93.9783 51.6912ZM95.0743 56.493L93.7406 58.8304C93.5849 59.103 93.0984 58.8649 93.2541 58.5947C93.6985 57.8157 94.143 57.0366 94.5878 56.2573C94.7421 55.9847 95.2293 56.2222 95.0743 56.493ZM97.2337 56.493C96.7449 57.4215 96.2558 58.3503 95.7665 59.2795C95.6213 59.5549 95.1341 59.3169 95.28 59.0437L96.7479 56.2573C96.891 55.9819 97.3782 56.2199 97.2337 56.493Z" fill="#FFD2D2"/>
<path d="M92.3325 66.0001V95.3475C92.3361 95.4075 92.3675 95.464 92.4201 95.5054C92.4726 95.5468 92.5425 95.5699 92.615 95.5699C92.6876 95.5699 92.7575 95.5468 92.8101 95.5054C92.8626 95.464 92.894 95.4075 92.8976 95.3475V66.0001C92.894 65.9401 92.8626 65.8835 92.8101 65.8421C92.7575 65.8007 92.6876 65.7776 92.615 65.7776C92.5425 65.7776 92.4726 65.8007 92.4201 65.8421C92.3675 65.8835 92.3361 65.9401 92.3325 66.0001Z" fill="#E6DEFF"/>
<path d="M2.738 100.126V109.883C2.7416 109.943 2.77293 110 2.82552 110.041C2.87811 110.083 2.94792 110.106 3.02052 110.106C3.09311 110.106 3.16293 110.083 3.21551 110.041C3.2681 110 3.29944 109.943 3.30303 109.883V100.126C3.29944 100.066 3.2681 100.009 3.21551 99.9678C3.16293 99.9264 3.09311 99.9033 3.02052 99.9033C2.94792 99.9033 2.87811 99.9264 2.82552 99.9678C2.77293 100.009 2.7416 100.066 2.738 100.126Z" fill="#E6DEFF"/>
<path d="M44.4762 69.2897C44.4755 69.2279 44.4455 69.1689 44.3928 69.1253C44.34 69.0816 44.2687 69.0568 44.1941 69.0562H1.03455C0.960054 69.0571 0.888908 69.082 0.836222 69.1256C0.783537 69.1692 0.753461 69.228 0.752384 69.2897V88.5982C0.75275 88.66 0.782595 88.7192 0.835433 88.7629C0.888272 88.8066 0.959831 88.8313 1.03455 88.8316C12.1219 88.8178 44.0022 88.8425 44.0933 88.8316C44.5381 88.7891 44.4797 88.6838 44.4776 88.2325C44.4491 84.154 44.5075 72.8679 44.4762 69.2897Z" fill="#FFD500"/>
<path d="M96.1745 27.0375C96.0091 23.4294 93.455 21.1898 90.9439 20.7125C89.8455 20.5089 88.6976 20.5943 87.6607 20.9569C86.3645 21.4098 85.1904 22.0721 84.2073 22.905C83.6607 22.0966 82.8878 21.4085 81.9534 20.8982C81.019 20.388 79.9503 20.0705 78.837 19.9725C71.609 19.5211 63.5366 28.7976 60.334 34.321C58.4577 37.5491 56.9603 40.9187 55.8624 44.3835C56.5871 45.4324 57.2335 46.5169 57.798 47.6311C57.8093 47.6658 57.8108 47.7022 57.8024 47.7374C57.794 47.7726 57.776 47.8058 57.7496 47.8343C57.7233 47.8629 57.6894 47.8861 57.6506 47.9021C57.6117 47.9181 57.5689 47.9265 57.5255 47.9267C76.5268 47.9267 91.4221 47.9359 91.486 47.9215C91.5425 47.9199 91.5967 47.9027 91.6399 47.8725C91.6832 47.8424 91.7129 47.8011 91.7244 47.7553C92.6919 44.207 94.2959 39.1574 95.8979 30.4651C96.1201 29.3323 96.2127 28.1847 96.1745 27.0375Z" fill="#C0C195"/>
<path d="M81.9228 25.2378C82.0347 25.5253 82.581 25.4011 82.4677 25.1136L81.6066 22.9286C81.4947 22.6411 80.9484 22.7653 81.0617 23.0528L81.9228 25.2378Z" fill="#77751E"/>
<path d="M57.798 47.6351C56.8535 45.7976 55.7119 44.0337 54.3869 42.3647C53.4636 41.1094 52.2714 40.0038 50.8688 39.1021C50.1693 38.6683 49.3719 38.3546 48.5237 38.1794C47.6754 38.0042 46.7934 37.9711 45.9295 38.0821C42.9222 38.5064 39.9017 41.1825 38.2977 43.383C37.3272 44.7272 36.5311 46.1525 35.9229 47.6351C35.9116 47.6698 35.9101 47.7061 35.9185 47.7413C35.9268 47.7766 35.9448 47.8097 35.971 47.8383C35.9972 47.8669 36.031 47.8901 36.0698 47.9062C36.1085 47.9224 36.1512 47.9309 36.1946 47.9313H40.2472C40.0925 48.9617 40.1721 50.007 40.4821 51.0133C40.5624 51.2847 40.7185 51.5368 40.938 51.7493C41.5322 52.257 42.3718 51.958 42.8409 51.4951C43.5699 50.7361 44.0627 49.8407 44.2761 48.8875C44.3706 49.2623 44.4892 49.6328 44.6312 49.9972C44.815 50.6701 45.1821 51.2994 45.7043 51.8372C46.0236 52.0926 46.4519 52.2332 46.8959 52.2285C47.3399 52.2237 47.7637 52.074 48.0749 51.8119C48.813 51.2139 48.9743 50.0358 49.041 49.1491C49.1507 49.6179 49.2928 50.0812 49.4663 50.5366C49.5579 50.8087 49.714 51.0629 49.9255 51.2845C50.1371 51.5062 50.3999 51.6907 50.6986 51.8275C51.5187 52.1247 52.2693 51.5532 52.6446 50.9954C53.1633 50.1447 53.558 49.246 53.8205 48.3182C53.7768 48.3557 53.7195 48.3804 53.6574 48.3886C53.5952 48.3968 53.5315 48.3881 53.4759 48.3638C53.4202 48.3395 53.3756 48.3009 53.3488 48.2538C53.3219 48.2067 53.3143 48.1536 53.3271 48.1026C53.6341 46.9907 53.8224 45.8585 53.89 44.7193C53.9074 44.4192 54.4724 44.4186 54.455 44.7193C54.3944 45.7997 54.2238 46.874 53.9449 47.9307C55.2737 47.914 55.3349 47.8956 57.5249 47.9307C57.5684 47.9307 57.6113 47.9225 57.6503 47.9065C57.6893 47.8906 57.7234 47.8674 57.7498 47.8388C57.7762 47.8102 57.7943 47.777 57.8027 47.7416C57.811 47.7063 57.8094 47.6699 57.798 47.6351ZM48.7199 45.6801C48.6939 45.02 48.6685 44.3599 48.6434 43.6998C48.6316 43.3985 49.1994 43.3997 49.2085 43.6998L49.2849 45.6801C49.2967 45.982 48.7317 45.9803 48.7199 45.6807V45.6801ZM43.7958 45.6801C43.7815 45.02 43.7815 44.3599 43.7958 43.6998C43.7994 43.6399 43.8308 43.5833 43.8833 43.5419C43.9359 43.5005 44.0057 43.4774 44.0783 43.4774C44.1509 43.4774 44.2207 43.5005 44.2733 43.5419C44.3259 43.5833 44.3573 43.6399 44.3609 43.6998C44.3748 44.3599 44.3748 45.02 44.3609 45.6801C44.3573 45.7401 44.3259 45.7967 44.2733 45.8381C44.2207 45.8795 44.1509 45.9026 44.0783 45.9026C44.0057 45.9026 43.9359 45.8795 43.8833 45.8381C43.8308 45.7967 43.7994 45.7401 43.7958 45.6801Z" fill="#FFD2D2"/>
<path d="M54.4557 44.7193C54.4731 44.4186 53.9081 44.4192 53.8907 44.7193C53.8224 45.8586 53.6333 46.9907 53.3257 48.1026C53.3178 48.1335 53.3174 48.1654 53.3245 48.1964C53.3316 48.2274 53.346 48.257 53.367 48.2834C53.3879 48.3097 53.4149 48.3325 53.4464 48.3502C53.478 48.3679 53.5135 48.3803 53.5508 48.3867C53.5845 48.3937 53.6196 48.3952 53.6539 48.3909C53.6883 48.3867 53.7213 48.3768 53.751 48.362C53.7807 48.3471 53.8066 48.3275 53.8271 48.3043C53.8476 48.2811 53.8624 48.2548 53.8705 48.2268C54.1917 47.0745 54.3876 45.9006 54.4557 44.7193Z" fill="#FF4848"/>
<path d="M43.793 43.7005C43.7801 44.3606 43.7801 45.0207 43.793 45.6808C43.7966 45.7407 43.828 45.7973 43.8806 45.8387C43.9331 45.8801 44.003 45.9032 44.0756 45.9032C44.1482 45.9032 44.218 45.8801 44.2706 45.8387C44.3231 45.7973 44.3545 45.7407 44.3581 45.6808C44.3715 45.0207 44.3715 44.3606 44.3581 43.7005C44.3545 43.6405 44.3231 43.5839 44.2706 43.5425C44.218 43.5011 44.1482 43.478 44.0756 43.478C44.003 43.478 43.9331 43.5011 43.8806 43.5425C43.828 43.5839 43.7966 43.6405 43.793 43.7005Z" fill="#FF4848"/>
<path d="M48.6434 43.7005C48.6694 44.3606 48.6949 45.0207 48.7199 45.6808C48.7317 45.9803 49.2968 45.9821 49.2849 45.6808L49.2085 43.7005C49.1967 43.4003 48.6316 43.3992 48.6434 43.7005Z" fill="#FF4848"/>
<path d="M31.8974 92.415H28.6671V89.95C28.6635 89.89 28.6321 89.8334 28.5795 89.792C28.527 89.7506 28.4571 89.7275 28.3845 89.7275C28.3119 89.7275 28.2421 89.7506 28.1895 89.792C28.137 89.8334 28.1056 89.89 28.102 89.95V92.415H17.1245V89.95C17.1209 89.89 17.0896 89.8334 17.037 89.792C16.9844 89.7506 16.9146 89.7275 16.842 89.7275C16.7694 89.7275 16.6996 89.7506 16.647 89.792C16.5944 89.8334 16.5631 89.89 16.5595 89.95V92.415H13.2019C13.1294 92.418 13.0611 92.4439 13.011 92.4874C12.961 92.5309 12.9331 92.5887 12.9331 92.6487C12.9331 92.7088 12.961 92.7665 13.011 92.8101C13.0611 92.8536 13.1294 92.8795 13.2019 92.8825H31.8974C32.418 92.8802 32.2679 92.3236 31.8974 92.415Z" fill="#77751E"/>
<path d="M18.2212 81.7729H24.6201C24.6926 81.7699 24.7609 81.744 24.811 81.7005C24.861 81.657 24.8889 81.5992 24.8889 81.5392C24.8889 81.4791 24.861 81.4213 24.811 81.3778C24.7609 81.3343 24.6926 81.3084 24.6201 81.3054H18.2212C18.1487 81.3084 18.0804 81.3343 18.0303 81.3778C17.9803 81.4213 17.9524 81.4791 17.9524 81.5392C17.9524 81.5992 17.9803 81.657 18.0303 81.7005C18.0804 81.744 18.1487 81.7699 18.2212 81.7729Z" fill="#77751E"/>
<path d="M18.2212 83.6417H24.6201C24.6926 83.6387 24.7609 83.6128 24.811 83.5693C24.861 83.5258 24.8889 83.468 24.8889 83.4079C24.8889 83.3479 24.861 83.2901 24.811 83.2466C24.7609 83.2031 24.6926 83.1772 24.6201 83.1742H18.2212C18.1487 83.1772 18.0804 83.2031 18.0303 83.2466C17.9803 83.2901 17.9524 83.3479 17.9524 83.4079C17.9524 83.468 17.9803 83.5258 18.0303 83.5693C18.0804 83.6128 18.1487 83.6387 18.2212 83.6417Z" fill="#77751E"/>
<path d="M18.2212 85.6157H24.6201C24.6926 85.6127 24.7609 85.5868 24.811 85.5433C24.861 85.4998 24.8889 85.442 24.8889 85.3819C24.8889 85.3219 24.861 85.2641 24.811 85.2206C24.7609 85.1771 24.6926 85.1512 24.6201 85.1482H18.2212C18.1487 85.1512 18.0804 85.1771 18.0303 85.2206C17.9803 85.2641 17.9524 85.3219 17.9524 85.3819C17.9524 85.442 17.9803 85.4998 18.0303 85.5433C18.0804 85.5868 18.1487 85.6127 18.2212 85.6157Z" fill="#77751E"/>
<path d="M24.7139 62.3638V67.8366C24.7175 67.8966 24.7488 67.9532 24.8014 67.9946C24.854 68.036 24.9238 68.0591 24.9964 68.0591C25.069 68.0591 25.1388 68.036 25.1914 67.9946C25.244 67.9532 25.2753 67.8966 25.2789 67.8366V62.3741C25.0907 62.3876 24.9012 62.3842 24.7139 62.3638Z" fill="#A982F4"/>
<path d="M72.867 53.9136L77.782 63.7231L85.2032 61.1781C85.0225 60.817 80.8247 52.4456 80.2889 51.368L72.867 53.9136Z" fill="white"/>
<path d="M85.8426 61.2414L80.7128 51.0029C80.66 50.8977 80.5203 50.7867 80.3653 50.8396L78.2963 51.5492L71.2942 52.2133C71.1552 52.2265 70.9933 52.3099 71.012 52.4467C71.1851 53.6922 72.541 63.4574 72.541 63.4574C72.557 63.5724 72.6578 63.707 72.8232 63.6909C73.7135 63.6063 76.2475 63.3591 76.9564 63.2884L77.3553 64.0859C77.4081 64.1911 77.5485 64.3027 77.7028 64.2492C86.1498 61.3523 85.6425 61.5317 85.6856 61.5024C85.7187 61.4966 85.7498 61.4846 85.7766 61.4674C85.8033 61.4503 85.8251 61.4283 85.8402 61.4032C85.8553 61.3781 85.8633 61.3506 85.8638 61.3225C85.8642 61.2945 85.857 61.2668 85.8426 61.2414ZM77.7806 63.7231L72.8656 53.9136L80.2875 51.368L85.2018 61.1781L77.7806 63.7231Z" fill="#78B5FF"/>
<path d="M76.5255 56.0555C77.684 55.6455 78.8461 55.2361 80.0269 54.8704C80.3639 54.7658 80.218 54.3138 79.8767 54.4196C78.6501 54.7991 77.4442 55.2246 76.2398 55.6518C75.9069 55.7697 76.1946 56.1722 76.5255 56.0555Z" fill="#78B5FF"/>
<path d="M77.3935 58.0944C78.5521 57.6845 79.7141 57.2751 80.8949 56.9094C81.232 56.8047 81.086 56.3528 80.7448 56.4586C79.5181 56.8381 78.3123 57.2636 77.1086 57.6908C76.775 57.8087 77.0627 58.2112 77.3935 58.0944Z" fill="#78B5FF"/>
<path d="M78.5159 59.9678C79.6745 59.5578 80.8365 59.1484 82.0173 58.7827C82.3544 58.6786 82.2085 58.2261 81.8665 58.3319C80.6405 58.712 79.434 59.1369 78.2303 59.5641C77.8974 59.682 78.1844 60.0851 78.5159 59.9678Z" fill="#78B5FF"/>
<path d="M26.318 54.0505C24.7049 53.3835 23.0049 54.108 22.1681 55.3615C19.7829 58.9265 22.7026 63.0228 25.8044 62.2971C29.4753 61.4386 29.8312 55.5029 26.318 54.0505ZM24.7139 60.985V57.2475C24.7175 57.1875 24.7488 57.1309 24.8014 57.0895C24.854 57.0481 24.9238 57.025 24.9964 57.025C25.069 57.025 25.1388 57.0481 25.1914 57.0895C25.244 57.1309 25.2753 57.1875 25.2789 57.2475V60.985C25.2753 61.045 25.244 61.1015 25.1914 61.1429C25.1388 61.1843 25.069 61.2074 24.9964 61.2074C24.9238 61.2074 24.854 61.1843 24.8014 61.1429C24.7488 61.1015 24.7175 61.045 24.7139 60.985Z" fill="white"/>
<path d="M81.5927 77.6375C58.3755 77.9486 59.5 77.4075 59.2436 77.8169L51.1698 86.9019C51.3783 86.8266 50.1891 86.8519 73.4049 86.8519C73.4516 86.8539 73.497 86.8651 73.5374 86.8845C73.5778 86.904 73.612 86.931 73.6372 86.9636C73.6625 86.9961 73.678 87.0331 73.6826 87.0716C73.6872 87.11 73.6806 87.1489 73.6635 87.1848C73.9741 86.8553 76.0202 84.5352 81.8366 77.9917C81.9868 77.8422 81.788 77.6375 81.5927 77.6375Z" fill="#A982F4"/>
<path d="M73.4049 86.8502C49.8666 86.8502 51.3922 86.833 51.2136 86.8824C51.0787 86.929 51.6139 86.7099 47.1777 88.6005C47.1262 88.6272 47.0864 88.6668 47.064 88.7136C47.0417 88.7604 47.038 88.8118 47.0535 88.8605C47.0691 88.9091 47.103 88.9523 47.1503 88.9839C47.1977 89.0154 47.256 89.0336 47.3167 89.0358H69.3656C69.4663 89.0358 69.1835 89.1215 73.5439 87.2861C73.5957 87.2594 73.6358 87.2198 73.6584 87.1729C73.6809 87.126 73.6847 87.0744 73.6691 87.0256C73.6536 86.9768 73.6195 86.9335 73.5719 86.9019C73.5244 86.8703 73.4658 86.8522 73.4049 86.8502Z" fill="#A982F4"/>
<path d="M67.5773 81.3354C65.828 82.6642 64.2664 83.7435 64.1767 83.8435C64.1531 83.8636 64.1348 83.8876 64.1229 83.9138C64.111 83.9401 64.1058 83.9681 64.1076 83.9961C64.1093 84.0241 64.118 84.0515 64.1332 84.0766C64.1483 84.1017 64.1695 84.1239 64.1955 84.1419C64.3393 84.2897 64.4498 84.265 67.6517 84.2403C67.7262 84.2392 67.7973 84.2143 67.8501 84.1708C67.9028 84.1272 67.9331 84.0684 67.9346 84.0068C67.9644 83.1713 68.018 82.3359 68.0597 81.5004C68.0582 81.4547 68.0408 81.4103 68.0094 81.3727C67.9781 81.3351 67.9343 81.3057 67.8833 81.2883C67.8322 81.2708 67.7762 81.266 67.7219 81.2743C67.6676 81.2827 67.6174 81.3039 67.5773 81.3354Z" fill="black"/>
<path d="M51.2601 89.9477V92.8923C51.2637 92.9523 51.2951 93.0088 51.3476 93.0502C51.4002 93.0916 51.47 93.1147 51.5426 93.1147C51.6152 93.1147 51.685 93.0916 51.7376 93.0502C51.7902 93.0088 51.8216 92.9523 51.8252 92.8923V89.9477C51.8216 89.8877 51.7902 89.8312 51.7376 89.7898C51.685 89.7484 51.6152 89.7253 51.5426 89.7253C51.47 89.7253 51.4002 89.7484 51.3476 89.7898C51.2951 89.8312 51.2637 89.8877 51.2601 89.9477Z" fill="#A982F4"/>
<path d="M72.8246 89.9477V92.8923C72.8282 92.9523 72.8595 93.0088 72.9121 93.0502C72.9647 93.0916 73.0345 93.1147 73.1071 93.1147C73.1797 93.1147 73.2495 93.0916 73.3021 93.0502C73.3547 93.0088 73.386 92.9523 73.3896 92.8923V89.9477C73.386 89.8877 73.3547 89.8312 73.3021 89.7898C73.2495 89.7484 73.1797 89.7253 73.1071 89.7253C73.0345 89.7253 72.9647 89.7484 72.9121 89.7898C72.8595 89.8312 72.8282 89.8877 72.8246 89.9477Z" fill="#A982F4"/>
<path d="M36.5887 28.5676C36.2683 28.4256 35.9826 28.8292 36.3037 28.9701C41.1486 31.1091 44.9099 34.5562 48.5309 37.8947C48.7741 38.1189 49.173 37.7872 48.9305 37.5641C45.2442 34.1675 41.4836 30.7336 36.5887 28.5676Z" fill="#FF4848"/>
<path d="M24.7139 57.248V60.9855C24.7175 61.0455 24.7488 61.102 24.8014 61.1434C24.854 61.1848 24.9238 61.2079 24.9964 61.2079C25.069 61.2079 25.1388 61.1848 25.1914 61.1434C25.244 61.102 25.2753 61.0455 25.2789 60.9855V57.248C25.2753 57.188 25.244 57.1315 25.1914 57.0901C25.1388 57.0487 25.069 57.0256 24.9964 57.0256C24.9238 57.0256 24.854 57.0487 24.8014 57.0901C24.7488 57.1315 24.7175 57.188 24.7139 57.248Z" fill="#A982F4"/>
<path d="M107.021 48.6333C106.882 48.071 106.715 47.515 106.574 46.9532C106.501 46.6588 105.949 46.7841 106.03 47.0774C106.868 50.1605 107.356 52.51 105.956 55.4856C105.418 56.6069 104.65 57.6427 103.685 58.5475C103.448 58.7729 103.845 59.1052 104.085 58.8775C107.185 55.9387 107.944 52.4117 107.021 48.6333Z" fill="black"/>
<path d="M107.14 60.3708C110.697 56.9996 111.622 52.9252 110.53 48.4879C110.373 47.8439 110.179 47.2068 110.019 46.5634C109.949 46.269 109.393 46.3943 109.474 46.6876C110.447 50.2675 111.017 52.9873 109.398 56.4482C108.771 57.764 107.872 58.9795 106.741 60.0402C106.501 60.2662 106.9 60.598 107.14 60.3708Z" fill="black"/>
<path d="M68.4655 40.2723C70.0585 36.6241 72.0717 33.1109 74.4773 29.7814C74.5087 29.7284 74.5148 29.6675 74.4943 29.611C74.4737 29.5544 74.4281 29.5064 74.3666 29.4765C74.305 29.4466 74.2321 29.437 74.1624 29.4498C74.0927 29.4625 74.0314 29.4966 73.9908 29.5451C69.9862 35.0391 67.0858 41.0343 65.4027 47.2971C65.3864 47.3559 65.3982 47.4175 65.4356 47.4693C65.473 47.521 65.533 47.5589 65.6033 47.5749C65.6735 47.5909 65.7485 47.5839 65.8127 47.5552C65.8768 47.5266 65.9251 47.4786 65.9475 47.4213C66.6078 44.9976 67.4487 42.61 68.4655 40.2723Z" fill="#77751E"/>
<path d="M65.4666 54.7565H34.3181C34.2435 54.7571 34.1721 54.7819 34.1194 54.8256C34.0666 54.8692 34.0367 54.9283 34.0359 54.99V63.243C34.0367 63.3047 34.0666 63.3637 34.1194 63.4074C34.1721 63.451 34.2435 63.4758 34.3181 63.4764C65.9927 63.6621 65.5597 63.5218 65.6793 63.3925C65.7842 63.3005 65.8252 63.8254 65.7488 54.99C65.7479 54.9283 65.7179 54.8693 65.6651 54.8257C65.6124 54.7821 65.5412 54.7573 65.4666 54.7565ZM34.569 58.8827C35.1472 58.8747 40.8143 58.8827 41.3925 58.8827V55.9675C41.3961 55.9075 41.4274 55.8509 41.48 55.8095C41.5326 55.7681 41.6024 55.7451 41.675 55.7451C41.7476 55.7451 41.8174 55.7681 41.87 55.8095C41.9226 55.8509 41.9539 55.9075 41.9575 55.9675V58.8827H49.3419V55.9675C49.3455 55.9075 49.3769 55.8509 49.4294 55.8095C49.482 55.7681 49.5518 55.7451 49.6244 55.7451C49.697 55.7451 49.7668 55.7681 49.8194 55.8095C49.872 55.8509 49.9034 55.9075 49.907 55.9675V58.8827H56.8785V55.9675C56.8821 55.9075 56.9134 55.8509 56.966 55.8095C57.0186 55.7681 57.0884 55.7451 57.161 55.7451C57.2336 55.7451 57.3034 55.7681 57.356 55.8095C57.4086 55.8509 57.4399 55.9075 57.4435 55.9675V58.8827H64.454C64.5265 58.8857 64.5949 58.9116 64.6449 58.9551C64.6949 58.9986 64.7228 59.0564 64.7228 59.1165C64.7228 59.1765 64.6949 59.2343 64.6449 59.2778C64.5949 59.3213 64.5265 59.3472 64.454 59.3502C63.9675 59.3571 57.921 59.3502 57.438 59.3502V62.2655C57.4344 62.3254 57.403 62.382 57.3505 62.4234C57.2979 62.4648 57.2281 62.4879 57.1555 62.4879C57.0829 62.4879 57.0131 62.4648 56.9605 62.4234C56.9079 62.382 56.8765 62.3254 56.8729 62.2655V59.3525H49.907V62.2678C49.9034 62.3277 49.872 62.3843 49.8194 62.4257C49.7668 62.4671 49.697 62.4902 49.6244 62.4902C49.5518 62.4902 49.482 62.4671 49.4294 62.4257C49.3769 62.3843 49.3455 62.3277 49.3419 62.2678V59.3525H41.9603V62.2678C41.9567 62.3277 41.9254 62.3843 41.8728 62.4257C41.8202 62.4671 41.7504 62.4902 41.6778 62.4902C41.6052 62.4902 41.5354 62.4671 41.4828 62.4257C41.4302 62.3843 41.3989 62.3277 41.3953 62.2678V59.3525H34.569C34.4965 59.3495 34.4281 59.3236 34.3781 59.2801C34.3281 59.2366 34.3002 59.1788 34.3002 59.1188C34.3002 59.0587 34.3281 59.0009 34.3781 58.9574C34.4281 58.9139 34.4965 58.888 34.569 58.885V58.8827Z" fill="#2755A0"/>
<path d="M90.4116 64.0617C90.5325 63.7742 89.9869 63.6552 89.8667 63.9375L79.327 88.6706C79.5044 88.7243 79.6768 88.7889 79.8427 88.8638C79.9761 88.5441 90.3664 64.1664 90.4116 64.0617Z" fill="#E6DEFF"/>
<path d="M76.0605 96.3377C75.9396 96.6252 76.4851 96.7442 76.6054 96.4619C76.7256 96.1796 79.5939 89.4509 79.6578 89.3003C79.4931 89.2234 79.32 89.1597 79.1407 89.1099C79.1004 89.195 76.0841 96.2733 76.0605 96.3377Z" fill="#E6DEFF"/>
<path d="M3.02225 97.5526C2.94975 97.5556 2.8814 97.5815 2.83136 97.6251C2.78132 97.6686 2.75341 97.7263 2.75341 97.7864C2.75341 97.8464 2.78132 97.9042 2.83136 97.9477C2.8814 97.9912 2.94975 98.0171 3.02225 98.0201H15.5135C15.6261 97.8754 15.7127 97.7179 15.7706 97.5526C-1.5856 97.5526 4.2531 97.5325 3.02225 97.5526Z" fill="#E6DEFF"/>
<path d="M73.4049 98.0201C73.4774 98.0171 73.5458 97.9912 73.5958 97.9477C73.6458 97.9042 73.6738 97.8464 73.6738 97.7864C73.6738 97.7263 73.6458 97.6685 73.5958 97.625C73.5458 97.5815 73.4774 97.5556 73.4049 97.5526H16.3329C16.2927 97.7138 16.2305 97.8706 16.1473 98.0201C84.0043 98.0201 71.9788 98.0402 73.4049 98.0201Z" fill="#E6DEFF"/>
<path d="M64.454 58.8827H57.4408V55.9675C57.438 55.9055 57.4057 55.847 57.3508 55.8047C57.296 55.7624 57.2231 55.7399 57.1482 55.7421C57.0764 55.7433 57.0079 55.7674 56.9571 55.8094C56.9063 55.8514 56.8771 55.9081 56.8757 55.9675C56.8597 56.7368 56.8514 57.804 56.85 58.8827H49.907V55.9675C49.9034 55.9075 49.872 55.851 49.8194 55.8096C49.7668 55.7682 49.697 55.7451 49.6244 55.7451C49.5518 55.7451 49.482 55.7682 49.4294 55.8096C49.3769 55.851 49.3455 55.9075 49.3419 55.9675C49.3252 56.7368 49.3176 57.804 49.3169 58.8827H41.9603V55.9675C41.9567 55.9075 41.9254 55.851 41.8728 55.8096C41.8202 55.7682 41.7504 55.7451 41.6778 55.7451C41.6052 55.7451 41.5354 55.7682 41.4828 55.8096C41.4302 55.851 41.3989 55.9075 41.3953 55.9675C41.3793 56.7368 41.371 57.804 41.3703 58.8827H34.601C34.5639 58.8812 34.5268 58.8856 34.4917 58.8959C34.4567 58.9062 34.4245 58.9221 34.3969 58.9427C34.3693 58.9632 34.3469 58.9881 34.331 59.0159C34.315 59.0436 34.3058 59.0737 34.3039 59.1044C34.3019 59.1351 34.3074 59.1658 34.3198 59.1948C34.3322 59.2237 34.3514 59.2504 34.3763 59.2732C34.4012 59.296 34.4312 59.3146 34.4648 59.3278C34.4983 59.341 34.5347 59.3486 34.5718 59.3502H41.3703C41.3703 60.4571 41.38 61.5352 41.3953 62.2655C41.3989 62.3254 41.4302 62.382 41.4828 62.4234C41.5354 62.4648 41.6052 62.4879 41.6778 62.4879C41.7504 62.4879 41.8202 62.4648 41.8728 62.4234C41.9254 62.382 41.9567 62.3254 41.9603 62.2655V59.3525H49.3169C49.3169 60.4594 49.3266 61.5375 49.3419 62.2678C49.3455 62.3277 49.3769 62.3843 49.4294 62.4257C49.482 62.4671 49.5518 62.4902 49.6244 62.4902C49.697 62.4902 49.7668 62.4671 49.8194 62.4257C49.872 62.3843 49.9034 62.3277 49.907 62.2678V59.3525H56.85C56.85 60.4594 56.8604 61.5375 56.8757 62.2678C56.8793 62.3277 56.9107 62.3843 56.9632 62.4257C57.0158 62.4671 57.0856 62.4902 57.1582 62.4902C57.2308 62.4902 57.3006 62.4671 57.3532 62.4257C57.4058 62.3843 57.4372 62.3277 57.4408 62.2678V59.3525C58.5562 59.3525 64.0572 59.3583 64.4568 59.3525C64.5293 59.3495 64.5976 59.3236 64.6477 59.2801C64.6977 59.2366 64.7256 59.1788 64.7256 59.1188C64.7256 59.0587 64.6977 59.001 64.6477 58.9574C64.5976 58.9139 64.5293 58.888 64.4568 58.885L64.454 58.8827Z" fill="black"/>
<path d="M93.7406 58.8304C94.1854 58.0515 94.63 57.2724 95.0743 56.4931C95.2293 56.2228 94.7421 55.9848 94.5878 56.2573L93.2541 58.5947C93.0984 58.8649 93.5849 59.1024 93.7406 58.8304Z" fill="#FF4848"/>
<path d="M95.7665 59.2795C96.2558 58.351 96.7449 57.4222 97.2337 56.493C97.3776 56.2199 96.891 55.9818 96.7472 56.2573L95.2793 59.0437C95.1348 59.3168 95.6213 59.5549 95.7665 59.2795Z" fill="#FF4848"/>
<path d="M94.2639 52.0948L96.0793 51.333C96.4038 51.1967 96.1182 50.793 95.7943 50.9305L93.9783 51.6923C93.6544 51.8275 93.9401 52.2311 94.2639 52.0948Z" fill="#FF4848"/>
<path d="M85.256 29.4525C85.1379 31.465 84.6472 34.5125 84.274 36.4882C83.5546 40.2476 82.5713 43.9691 81.3293 47.634C81.3204 47.6641 81.3189 47.6954 81.3248 47.7261C81.3307 47.7567 81.3439 47.786 81.3636 47.8124C81.3833 47.8388 81.4092 47.8617 81.4397 47.8797C81.4702 47.8977 81.5047 47.9106 81.5413 47.9175C81.6108 47.9316 81.6842 47.9229 81.7462 47.8934C81.8082 47.8638 81.854 47.8156 81.8742 47.7588C83.3645 43.3702 84.4793 38.9002 85.2102 34.382C85.6863 31.423 86.2826 27.7861 85.3269 24.9807C85.3136 24.9471 85.2913 24.9165 85.2617 24.891C85.2321 24.8654 85.1959 24.8458 85.1559 24.8333C85.1159 24.8209 85.073 24.8161 85.0305 24.8192C84.9879 24.8223 84.9467 24.8333 84.9099 24.8513C84.4207 25.098 85.4805 25.6621 85.256 29.4525Z" fill="#77751E"/>
<path d="M93.6287 25.8116C93.792 26.0807 94.2792 25.8444 94.1152 25.5758L92.858 23.5007C92.6946 23.2316 92.2074 23.4679 92.3715 23.7364L93.6287 25.8116Z" fill="#77751E"/>
<path d="M34.1687 11.8511C34.4695 11.9734 34.8135 12.0022 35.1379 11.9321C35.4622 11.862 35.7453 11.6977 35.9354 11.4693C36.3718 10.9117 36.6004 10.2602 36.5928 9.59597C36.6554 8.63285 36.4469 7.23272 35.1083 6.92452C33.031 6.44497 31.7584 10.612 34.1687 11.8511ZM35.273 7.5047C35.4832 7.64352 35.655 7.81799 35.7768 8.01636C35.8986 8.21473 35.9676 8.4324 35.9792 8.6547C36.1002 9.31542 36.043 9.99012 35.8117 10.6304C35.6602 11.1646 35.0847 11.6993 34.4543 11.4452C32.3832 10.3831 33.7892 6.5502 35.273 7.5047Z" fill="black"/>
<path d="M38.8085 1.2263C38.379 0.559296 37.4289 0.979046 36.9605 1.36142C35.8285 2.19333 34.8427 3.15214 34.0318 4.20997C33.9235 4.35006 33.858 4.50986 33.8411 4.67555C33.8241 4.84124 33.8562 5.00786 33.9345 5.16102C34.0476 5.27143 34.1902 5.35864 34.3509 5.41581C34.5116 5.47297 34.6862 5.49854 34.8609 5.4905C36.4245 5.45144 37.9785 5.27429 39.4966 4.96207C39.983 4.88042 40.6496 4.86605 40.7573 4.37385C40.7888 4.21945 40.7657 4.06081 40.6909 3.91698C40.6161 3.77316 40.4926 3.65028 40.3354 3.5631C40.0095 3.38657 40.0039 3.53435 40.1818 3.34747C40.3052 3.2125 40.3699 3.04701 40.3653 2.87783C40.3608 2.70865 40.2873 2.5457 40.1568 2.4154C39.9195 2.26621 39.6312 2.18297 39.3332 2.1776C39.0352 2.17223 38.7428 2.245 38.4978 2.3855C38.8189 2.03992 39.0921 1.66675 38.8085 1.2263ZM39.5334 2.65057C39.801 2.68737 39.8663 2.88057 39.7315 3.06342C39.523 3.26334 39.2347 3.39474 38.919 3.43372C38.8497 3.45228 38.7917 3.49225 38.7571 3.54531C38.7225 3.59837 38.714 3.66043 38.7334 3.71854C38.7527 3.77666 38.7984 3.82636 38.861 3.85728C38.9235 3.8882 38.9981 3.89796 39.0691 3.88452C39.3777 3.85002 39.8663 3.78332 40.0991 4.00642C40.1695 4.0721 40.2088 4.15667 40.2096 4.24447C40.2013 4.3796 40.0532 4.39857 39.9163 4.42042C39.0928 4.5498 35.1208 5.30937 34.4258 4.92585C34.0839 4.28127 36.907 2.07442 37.3629 1.69205C37.5658 1.52645 38.3144 1.05955 38.3505 1.57705C38.379 1.98415 37.832 2.29925 37.586 2.61205C37.562 2.64772 37.5496 2.68791 37.55 2.72871C37.5503 2.76952 37.5634 2.80957 37.5879 2.84497C37.6124 2.88036 37.6476 2.90992 37.69 2.93077C37.7324 2.95161 37.7806 2.96304 37.8299 2.96395C38.657 2.99385 38.8085 2.62412 39.5327 2.65057H39.5334Z" fill="black"/>
<path d="M75.1042 97.786V109.883C75.1078 109.943 75.1391 110 75.1917 110.041C75.2443 110.083 75.3141 110.106 75.3867 110.106C75.4593 110.106 75.5291 110.083 75.5817 110.041C75.6343 110 75.6656 109.943 75.6692 109.883V97.786C75.6656 97.726 75.6343 97.6695 75.5817 97.6281C75.5291 97.5867 75.4593 97.5636 75.3867 97.5636C75.3141 97.5636 75.2443 97.5867 75.1917 97.6281C75.1391 97.6695 75.1078 97.726 75.1042 97.786Z" fill="black"/>
<path d="M92.3325 66.0001V95.3475C92.3361 95.4075 92.3675 95.464 92.4201 95.5054C92.4726 95.5468 92.5425 95.5699 92.615 95.5699C92.6876 95.5699 92.7575 95.5468 92.8101 95.5054C92.8626 95.464 92.894 95.4075 92.8976 95.3475V66.0001C92.894 65.9401 92.8626 65.8835 92.8101 65.8421C92.7575 65.8007 92.6876 65.7776 92.615 65.7776C92.5425 65.7776 92.4726 65.8007 92.4201 65.8421C92.3675 65.8835 92.3361 65.9401 92.3325 66.0001Z" fill="black"/>
<path d="M3.30512 100.126C3.30152 100.066 3.27019 100.009 3.2176 99.9678C3.16501 99.9264 3.0952 99.9033 3.0226 99.9033C2.95001 99.9033 2.88019 99.9264 2.82761 99.9678C2.77502 100.009 2.74368 100.066 2.74009 100.126V109.883C2.74368 109.943 2.77502 110 2.82761 110.041C2.88019 110.083 2.95001 110.106 3.0226 110.106C3.0952 110.106 3.16501 110.083 3.2176 110.041C3.27019 110 3.30152 109.943 3.30512 109.883V100.126Z" fill="black"/>
<path d="M93.6287 25.8116C93.792 26.0807 94.2792 25.8438 94.1152 25.5759L92.858 23.5007C92.6946 23.2316 92.2067 23.4685 92.3715 23.7364L93.6287 25.8116Z" fill="black"/>
<path d="M81.9228 25.2378C82.0347 25.5253 82.581 25.4005 82.4677 25.1136L81.6066 22.9286C81.494 22.6411 80.9484 22.7653 81.0617 23.0528L81.9228 25.2378Z" fill="black"/>
<path d="M44.0655 43.475C43.9937 43.4762 43.9252 43.5003 43.8744 43.5423C43.8236 43.5843 43.7945 43.641 43.793 43.7004C43.7801 44.3605 43.7801 45.0204 43.793 45.6801C43.7966 45.7401 43.828 45.7966 43.8806 45.8381C43.9331 45.8795 44.003 45.9025 44.0756 45.9025C44.1482 45.9025 44.218 45.8795 44.2706 45.8381C44.3231 45.7966 44.3545 45.7401 44.3581 45.6801C44.3715 45.0208 44.3715 44.3609 44.3581 43.7004C44.3574 43.6695 44.3492 43.6391 44.334 43.6109C44.3188 43.5827 44.2969 43.5574 44.2696 43.5363C44.2423 43.5153 44.2101 43.499 44.1751 43.4885C44.14 43.478 44.1027 43.4734 44.0655 43.475Z" fill="black"/>
<path d="M48.6434 43.7004C48.6685 44.3605 48.6939 45.0204 48.7199 45.6801C48.7317 45.9803 49.2967 45.982 49.2856 45.6801L49.2085 43.7004C49.1967 43.4002 48.6316 43.3991 48.6434 43.7004Z" fill="black"/>
<path d="M31.8974 92.415H28.6671V89.95C28.6635 89.89 28.6321 89.8334 28.5795 89.792C28.527 89.7506 28.4571 89.7275 28.3845 89.7275C28.3119 89.7275 28.2421 89.7506 28.1895 89.792C28.137 89.8334 28.1056 89.89 28.102 89.95V92.415H17.1245V89.95C17.1209 89.89 17.0896 89.8334 17.037 89.792C16.9844 89.7506 16.9146 89.7275 16.842 89.7275C16.7694 89.7275 16.6996 89.7506 16.647 89.792C16.5944 89.8334 16.5631 89.89 16.5595 89.95V92.415H13.2019C13.1294 92.418 13.0611 92.4439 13.011 92.4874C12.961 92.5309 12.9331 92.5887 12.9331 92.6487C12.9331 92.7088 12.961 92.7665 13.011 92.8101C13.0611 92.8536 13.1294 92.8795 13.2019 92.8825H31.8974C32.4145 92.8802 32.2755 92.3224 31.8974 92.415Z" fill="black"/>
<path d="M24.6201 81.3054H18.2212C18.1487 81.3084 18.0804 81.3343 18.0303 81.3778C17.9803 81.4213 17.9524 81.4791 17.9524 81.5392C17.9524 81.5992 17.9803 81.657 18.0303 81.7005C18.0804 81.744 18.1487 81.7699 18.2212 81.7729H24.6201C24.6926 81.7699 24.7609 81.744 24.811 81.7005C24.861 81.657 24.8889 81.5992 24.8889 81.5392C24.8889 81.4791 24.861 81.4213 24.811 81.3778C24.7609 81.3343 24.6926 81.3084 24.6201 81.3054Z" fill="black"/>
<path d="M24.6201 83.1741H18.2212C18.1487 83.1771 18.0804 83.203 18.0303 83.2465C17.9803 83.2901 17.9524 83.3478 17.9524 83.4079C17.9524 83.4679 17.9803 83.5257 18.0303 83.5692C18.0804 83.6127 18.1487 83.6386 18.2212 83.6416H24.6201C24.6926 83.6386 24.7609 83.6127 24.811 83.5692C24.861 83.5257 24.8889 83.4679 24.8889 83.4079C24.8889 83.3478 24.861 83.2901 24.811 83.2465C24.7609 83.203 24.6926 83.1771 24.6201 83.1741Z" fill="black"/>
<path d="M24.6201 85.1481H18.2212C18.1487 85.1511 18.0804 85.177 18.0303 85.2205C17.9803 85.2641 17.9524 85.3218 17.9524 85.3819C17.9524 85.4419 17.9803 85.4997 18.0303 85.5432C18.0804 85.5867 18.1487 85.6126 18.2212 85.6156H24.6201C24.6926 85.6126 24.7609 85.5867 24.811 85.5432C24.861 85.4997 24.8889 85.4419 24.8889 85.3819C24.8889 85.3218 24.861 85.2641 24.811 85.2205C24.7609 85.177 24.6926 85.1511 24.6201 85.1481Z" fill="black"/>
<path d="M72.5431 63.4574C72.5591 63.5724 72.6599 63.707 72.8253 63.6909L76.9612 63.2976L77.3574 64.0882C77.4102 64.1934 77.5506 64.305 77.7049 64.2515C86.1317 61.3627 85.6452 61.534 85.6876 61.5047C85.721 61.4988 85.7522 61.4866 85.779 61.4692C85.8058 61.4518 85.8275 61.4296 85.8425 61.4042C85.8574 61.3788 85.8651 61.351 85.8652 61.3228C85.8652 61.2946 85.8575 61.2667 85.8426 61.2414C85.2282 60.0954 80.9248 51.4261 80.7128 51.0029C80.66 50.8977 80.5203 50.7867 80.3653 50.8396L78.3067 51.5457L71.2942 52.2133C71.1552 52.2265 70.9933 52.3099 71.012 52.4467C71.4672 55.7202 72.0712 60.0747 72.5431 63.4574ZM80.2889 51.368C80.8282 52.4456 85.0225 60.817 85.2032 61.1781L77.782 63.7225L72.867 53.913L80.2889 51.368ZM76.4198 52.1926L72.4256 53.5622C72.2985 53.6059 72.1643 53.7221 72.2283 53.8497C72.8079 55.0078 76.7381 62.8514 76.7381 62.8514L73.072 63.1998C73.072 63.1998 71.6591 53.0384 71.6055 52.6509L76.4198 52.1926Z" fill="black"/>
<path d="M26.318 54.0504C24.7243 53.384 23.0091 54.101 22.1681 55.3614C20.1005 58.4474 22.0514 62.074 24.7139 62.3638V67.8366C24.7175 67.8966 24.7488 67.9531 24.8014 67.9945C24.854 68.0359 24.9238 68.059 24.9964 68.059C25.069 68.059 25.1388 68.0359 25.1914 67.9945C25.244 67.9531 25.2753 67.8966 25.2789 67.8366V62.3741C27.5655 62.2281 28.7609 60.027 28.7734 58.0904C28.7637 56.5885 28.0666 54.7646 26.318 54.0504ZM28.2084 58.0904C28.1993 59.4129 27.6322 61.0125 26.1282 61.6858C24.7834 62.2948 23.3239 61.6404 22.624 60.5387C20.6051 57.4337 22.9931 53.7048 25.6542 54.3345C26.4414 54.5603 27.0928 55.0289 27.4724 55.6426C27.9676 56.3927 28.221 57.2357 28.2084 58.0904Z" fill="black"/>
<path d="M76.5254 56.0554C77.684 55.6455 78.846 55.2361 80.0269 54.8704C80.3639 54.7657 80.218 54.3138 79.876 54.4196C78.6501 54.7991 77.4435 55.2246 76.2398 55.6518C75.9069 55.7697 76.1939 56.1722 76.5254 56.0554Z" fill="black"/>
<path d="M77.3935 58.0944C78.5521 57.6838 79.7141 57.275 80.8949 56.9093C81.232 56.8046 81.086 56.3527 80.7448 56.4585C79.5181 56.838 78.3123 57.2635 77.1079 57.6901C76.7749 57.8086 77.062 58.2111 77.3935 58.0944Z" fill="black"/>
<path d="M78.5159 59.9677C79.6745 59.5578 80.8365 59.1484 82.0166 58.7827C82.3544 58.6786 82.2085 58.2266 81.8672 58.3319C80.6405 58.7119 79.4347 59.1369 78.2303 59.5641C77.8974 59.682 78.1851 60.085 78.5159 59.9677Z" fill="black"/>
<path d="M67.7664 81.2704C67.585 81.2744 67.7879 81.2002 64.1941 83.8239L64.1767 83.8435C64.153 83.8636 64.1346 83.8875 64.1227 83.9138C64.1107 83.94 64.1055 83.9681 64.1072 83.9961C64.109 84.0241 64.1177 84.0515 64.1329 84.0766C64.1481 84.1017 64.1694 84.1239 64.1955 84.1419C64.3393 84.2897 64.4463 84.265 67.6517 84.2408C67.7264 84.2399 67.7977 84.215 67.8505 84.1713C67.9033 84.1276 67.9335 84.0686 67.9346 84.0068C67.9763 83.1711 68.0177 82.3356 68.059 81.5004C68.0581 81.4693 68.0498 81.4388 68.0346 81.4104C68.0194 81.3821 67.9975 81.3565 67.9704 81.3351C67.9432 81.3137 67.9112 81.297 67.8762 81.2859C67.8412 81.2748 67.8038 81.2695 67.7664 81.2704ZM67.3813 83.7733H65.1094L67.4675 82.0386L67.3813 83.7733Z" fill="black"/>
<path d="M51.5332 89.7217C51.4616 89.7237 51.3935 89.7481 51.3428 89.7901C51.2921 89.832 51.2625 89.8884 51.2601 89.9477V92.8922C51.2637 92.9522 51.295 93.0088 51.3476 93.0502C51.4002 93.0916 51.47 93.1147 51.5426 93.1147C51.6152 93.1147 51.685 93.0916 51.7376 93.0502C51.7902 93.0088 51.8216 92.9522 51.8251 92.8922V89.9477C51.8226 89.8857 51.7904 89.8271 51.7357 89.7847C51.681 89.7423 51.6082 89.7197 51.5332 89.7217Z" fill="black"/>
<path d="M73.097 89.7217C73.0255 89.7238 72.9576 89.7483 72.907 89.7903C72.8565 89.8322 72.827 89.8885 72.8246 89.9477V92.8922C72.8282 92.9522 72.8595 93.0088 72.9121 93.0502C72.9647 93.0916 73.0345 93.1147 73.1071 93.1147C73.1797 93.1147 73.2495 93.0916 73.3021 93.0502C73.3547 93.0088 73.386 92.9522 73.3896 92.8922V89.9477C73.3869 89.8856 73.3546 89.827 73.2997 89.7847C73.2449 89.7423 73.172 89.7197 73.097 89.7217Z" fill="black"/>
<path d="M48.5309 37.8958C48.7741 38.12 49.173 37.7882 48.9305 37.5651C45.1928 34.1192 41.494 30.7433 36.5894 28.5675C36.2683 28.4261 35.9826 28.8292 36.3037 28.97C41.1083 31.0912 44.9141 34.559 48.5309 37.8958Z" fill="black"/>
<path d="M24.987 57.0226C24.9154 57.0244 24.8474 57.0488 24.7966 57.0906C24.7459 57.1325 24.7163 57.1887 24.7139 57.248V60.9855C24.7175 61.0455 24.7488 61.102 24.8014 61.1434C24.854 61.1848 24.9238 61.2079 24.9964 61.2079C25.069 61.2079 25.1388 61.1848 25.1914 61.1434C25.244 61.102 25.2753 61.0455 25.2789 60.9855V57.248C25.2762 57.1861 25.244 57.1276 25.1893 57.0854C25.1346 57.0432 25.0618 57.0206 24.987 57.0226Z" fill="black"/>
<path d="M107.021 48.6333C106.889 48.0698 106.715 47.5149 106.574 46.9532C106.501 46.6588 105.957 46.7807 106.03 47.0774C106.358 48.1872 106.604 49.3127 106.767 50.4474C106.959 51.9004 106.784 53.3705 106.253 54.7646C105.723 56.1588 104.848 57.4467 103.685 58.5469C103.448 58.774 103.847 59.1058 104.085 58.8781C107.105 56.041 107.974 52.395 107.021 48.6333Z" fill="black"/>
<path d="M107.14 60.3708C110.681 57.045 111.629 52.7894 110.53 48.4878C110.378 47.8427 110.179 47.2067 110.019 46.5633C109.945 46.2689 109.401 46.3908 109.474 46.6875C109.853 47.9718 110.139 49.2739 110.329 50.5866C110.556 52.2821 110.354 53.9981 109.736 55.6255C109.118 57.253 108.098 58.7564 106.741 60.0402C106.502 60.2667 106.902 60.5985 107.14 60.3708Z" fill="black"/>
<path d="M65.4131 63.4763H65.4666C65.5411 63.4753 65.6123 63.4504 65.665 63.4069C65.7178 63.3633 65.7481 63.3045 65.7495 63.2429V54.9899C65.7484 54.9282 65.7182 54.8692 65.6654 54.8256C65.6126 54.782 65.5412 54.7572 65.4666 54.7565H34.3188C34.2442 54.7572 34.1729 54.782 34.12 54.8256C34.0672 54.8692 34.037 54.9282 34.0359 54.9899V63.2429C34.0367 63.3047 34.0667 63.3638 34.1196 63.4075C34.1725 63.4512 34.2441 63.4759 34.3188 63.4763C67.651 63.6724 65.01 63.4873 65.4131 63.4763ZM34.601 62.9979V59.3524H41.3953V62.2677C41.3989 62.3277 41.4302 62.3842 41.4828 62.4256C41.5354 62.467 41.6052 62.4901 41.6778 62.4901C41.7504 62.4901 41.8202 62.467 41.8728 62.4256C41.9254 62.3842 41.9567 62.3277 41.9603 62.2677V59.3524H49.3419V62.2677C49.3455 62.3277 49.3769 62.3842 49.4294 62.4256C49.482 62.467 49.5518 62.4901 49.6244 62.4901C49.697 62.4901 49.7668 62.467 49.8194 62.4256C49.872 62.3842 49.9034 62.3277 49.907 62.2677V59.3524H56.8785V62.2677C56.8821 62.3277 56.9134 62.3842 56.966 62.4256C57.0186 62.467 57.0884 62.4901 57.161 62.4901C57.2336 62.4901 57.3034 62.467 57.356 62.4256C57.4086 62.3842 57.4399 62.3277 57.4435 62.2677V59.3524C57.8772 59.3524 64.0273 59.3588 64.4596 59.3524C64.5321 59.3495 64.6004 59.3235 64.6505 59.28C64.7005 59.2365 64.7284 59.1788 64.7284 59.1187C64.7284 59.0586 64.7005 59.0009 64.6505 58.9574C64.6004 58.9139 64.5321 58.8879 64.4596 58.885H57.4408V55.9697C57.4372 55.9097 57.4058 55.8532 57.3532 55.8118C57.3006 55.7704 57.2308 55.7473 57.1582 55.7473C57.0856 55.7473 57.0158 55.7704 56.9632 55.8118C56.9107 55.8532 56.8793 55.9097 56.8757 55.9697V58.885H49.907V55.9697C49.9034 55.9097 49.872 55.8532 49.8194 55.8118C49.7668 55.7704 49.697 55.7473 49.6244 55.7473C49.5518 55.7473 49.482 55.7704 49.4294 55.8118C49.3769 55.8532 49.3455 55.9097 49.3419 55.9697V58.885H41.9603V55.9697C41.9567 55.9097 41.9254 55.8532 41.8728 55.8118C41.8202 55.7704 41.7504 55.7473 41.6778 55.7473C41.6052 55.7473 41.5354 55.7704 41.4828 55.8118C41.4302 55.8532 41.3989 55.9097 41.3953 55.9697V58.885H34.601V55.2239C34.601 55.2239 64.8557 55.2452 65.1844 55.2354V63.0089C65.1844 63.0089 34.9297 62.9876 34.601 62.9979Z" fill="black"/>
<path d="M94.5864 56.2572C94.1421 57.0366 93.6975 57.8157 93.2527 58.5946C93.0984 58.8649 93.5849 59.1023 93.7392 58.8304L95.0729 56.493C95.2293 56.2222 94.7421 55.9847 94.5864 56.2572Z" fill="black"/>
<path d="M95.7665 59.2795C96.2558 58.351 96.7449 57.4222 97.2337 56.493C97.3775 56.2199 96.891 55.9818 96.7472 56.2573L95.2786 59.0437C95.1341 59.3168 95.6213 59.5549 95.7665 59.2795Z" fill="black"/>
<path d="M94.2639 52.0948L96.0793 51.333C96.4038 51.1967 96.1175 50.793 95.7943 50.9305L93.9783 51.6923C93.6544 51.8275 93.9401 52.2311 94.2639 52.0948Z" fill="black"/>
</svg>
