<svg width="86" height="86" viewBox="0 0 86 86" fill="none" xmlns="http://www.w3.org/2000/svg">
<path d="M65.6158 75.4917L69.0133 62.799C67.3077 62.799 67.9364 62.8216 67.0832 62.799C67.0442 62.7957 67.0074 62.7711 66.9805 62.7292C66.9535 62.6874 66.9386 62.6322 66.9386 62.5744C66.9386 62.5173 66.9535 62.4621 66.9805 62.4202C67.0074 62.3784 67.0442 62.3538 67.0832 62.3505H76.4297C76.4688 62.3538 76.5056 62.3784 76.5324 62.4202C76.5594 62.4621 76.5744 62.5173 76.5744 62.5744C76.5744 62.6322 76.5594 62.6874 76.5324 62.7292C76.5056 62.7711 76.4688 62.7957 76.4297 62.799H74.6128C74.7033 63.1313 78.0026 75.4824 78.0049 75.4917C78.0764 75.7608 77.7785 75.8771 77.7097 75.6113C77.7097 75.6113 74.315 62.924 74.2837 62.801H69.3401L65.9105 75.6113C65.8394 75.8771 65.5429 75.7628 65.6158 75.4917Z" fill="black"/>
<path d="M7.39147 84.344C7.50644 83.9147 10.688 72.0687 10.8021 71.6513C9.39891 71.6513 9.59309 71.6706 8.85891 71.6513C8.81998 71.648 8.78287 71.6234 8.75616 71.5815C8.72946 71.5397 8.71407 71.4845 8.71407 71.4274C8.71407 71.3696 8.72946 71.3144 8.75616 71.2725C8.78287 71.2307 8.81998 71.2061 8.85891 71.2028H18.2054C18.2443 71.2061 18.2814 71.2307 18.3081 71.2725C18.3353 71.3144 18.3502 71.3696 18.3502 71.4274C18.3502 71.4845 18.3353 71.5397 18.3081 71.5815C18.2814 71.6234 18.2443 71.648 18.2054 71.6513H16.3921C16.4772 71.971 19.7783 84.3347 19.7805 84.344C19.8525 84.6131 19.5569 84.7294 19.4859 84.4629C19.3709 84.0343 16.0938 71.7703 16.0631 71.6533H11.1293C11.0311 72.0095 7.68613 84.4629 7.68613 84.4629C7.61507 84.7294 7.31904 84.6131 7.39147 84.344Z" fill="black"/>
<path d="M56.1598 39.4266C55.8597 40.1443 55.6967 41.2992 56.2204 41.8973C56.3636 42.0352 56.5241 42.1294 56.6926 42.1741C56.861 42.2189 57.0339 42.2134 57.2008 42.1578C57.9853 41.989 57.7549 41.7524 57.4004 42.6516C57.2393 42.8343 51.6837 48.8756 51.0147 49.5814L45.7786 43.7686C45.9873 43.5381 45.7736 43.7633 50.0008 39.4252C50.2031 39.4217 50.4 39.3288 50.5658 39.1586C50.7317 38.9884 50.8587 38.7487 50.9305 38.471L52.4975 36.8628C52.588 36.9957 52.6826 37.1233 52.784 37.2409C52.9185 37.3666 53.07 37.4474 53.228 37.4777C53.386 37.508 53.5466 37.4872 53.6985 37.4165C53.8504 37.3459 53.9899 37.2272 54.1072 37.0688C54.2244 36.9105 54.3167 36.7163 54.3773 36.4999L56.411 38.9115C56.3198 39.0752 56.2359 39.2471 56.1598 39.4266ZM54.1818 42.0488L52.6202 40.3523C52.4613 40.1795 52.3092 40.5696 52.4658 40.7397L54.0274 42.4369C54.1881 42.609 54.3406 42.2189 54.1818 42.0488ZM49.8387 43.6324C49.6803 43.4603 49.5278 43.8504 49.6844 44.0198L51.246 45.7171C51.4048 45.8892 51.5569 45.4998 51.4003 45.3296L49.8387 43.6324ZM50.7368 42.5731C50.5783 42.401 50.4262 42.7905 50.5824 42.9606L52.1449 44.6578C52.3033 44.8299 52.4554 44.4398 52.2993 44.2704L50.7368 42.5731ZM51.5673 41.799L53.1294 43.4962C53.2878 43.6683 53.4399 43.2782 53.2837 43.1081L51.7217 41.4115C51.5655 41.2394 51.4134 41.6288 51.5696 41.799H51.5673Z" fill="white"/>
<path d="M54.1193 34.0013C55.3624 34.8884 56.4892 36.0903 57.448 37.5519C57.0542 37.9184 56.7039 38.377 56.411 38.9096L54.3773 36.4979C54.4802 36.0834 54.5105 35.6375 54.4654 35.2013C54.4204 34.765 54.3013 34.3524 54.1193 34.0013Z" fill="#F7DA31"/>
<path d="M44.0133 33.8205C43.8871 35.3113 44.0318 36.8245 44.4329 38.2065C44.6592 38.972 45.0802 39.8386 45.7324 39.6644C46.343 39.501 46.4521 38.3852 46.4978 37.635C46.5695 38.0953 46.6684 38.5456 46.7934 38.9806C46.8795 39.216 47.0073 39.4129 47.1633 39.5503C47.3193 39.6878 47.4978 39.7609 47.6797 39.7618C47.8617 39.7627 48.0404 39.6914 48.197 39.5554C48.3537 39.4194 48.4824 39.2238 48.5695 38.9893C48.6786 38.5558 48.7398 38.0995 48.7506 37.6376C48.8167 36.7199 48.7587 36.8176 48.8628 37.3718C48.9986 38.0981 49.153 38.9168 49.6065 39.2837C49.7276 39.3816 49.8644 39.4298 50.0026 39.4232C49.5499 39.8884 45.8302 43.7115 45.7804 43.7666L51.0133 49.58C51.6827 48.8749 57.2379 42.833 57.3991 42.6502C57.2855 42.9168 57.2094 43.2137 57.1752 43.5248C57.141 43.8351 57.1494 44.1521 57.1999 44.4578C57.2601 44.7236 57.3795 44.9522 57.539 45.1063C57.6985 45.2612 57.8887 45.3316 58.0789 45.3077C58.6406 45.1954 59.189 44.9695 59.7084 44.6365C59.2825 45.2658 58.7014 46.1138 58.8598 46.9026C59.0589 47.8934 60.0017 47.7618 60.6743 47.4389C60.9482 50.6253 60.6151 53.861 59.7119 56.7863C58.8088 59.7116 57.371 62.2115 55.5582 64.0098C53.7454 65.8074 51.6287 66.8321 49.4432 66.9703C47.2576 67.1079 45.0888 66.3536 43.1775 64.7913C41.2663 63.2289 39.6875 60.919 38.6166 58.118C37.5456 55.3176 37.0247 52.1358 37.1111 48.9268C37.1976 45.7177 37.8883 42.6066 39.1068 39.939C40.3248 37.2714 42.0231 35.1519 44.0124 33.8159L44.0133 33.8205Z" fill="#F7DA31"/>
<path d="M52.1449 44.6578L50.5828 42.9606C50.4267 42.7905 50.5788 42.4011 50.7372 42.5732L52.2992 44.2704C52.4572 44.4399 52.3051 44.8299 52.1449 44.6578Z" fill="black"/>
<path d="M51.2483 45.717L49.6867 44.0198C49.5301 43.8504 49.6826 43.4603 49.841 43.6324L51.4026 45.327C51.5592 45.4997 51.4072 45.8892 51.2483 45.717Z" fill="black"/>
<path d="M52.6224 40.3523L54.1818 42.0488C54.3384 42.219 54.1858 42.609 54.0274 42.4369L52.4658 40.7397C52.3115 40.5696 52.4617 40.1795 52.6224 40.3523Z" fill="black"/>
<path d="M53.1317 43.4962L51.5697 41.799C51.4135 41.6288 51.5656 41.2394 51.724 41.4115L53.2861 43.1081C53.4422 43.2782 53.2902 43.6657 53.1317 43.4962Z" fill="black"/>
<path d="M51.9454 51.5311C52.7483 51.1736 58.7951 48.5985 59.0893 48.4802C59.1284 48.4649 59.1699 48.4729 59.2051 48.5021C59.2403 48.5314 59.2663 48.5792 59.2776 48.6364C59.5397 49.9342 59.5392 49.8671 59.527 49.9502C59.5255 49.9927 59.5136 50.0339 59.4934 50.0645C59.4732 50.0957 59.4461 50.115 59.417 50.1189L52.0268 51.9637C51.9884 51.977 51.948 51.9677 51.914 51.9378C51.8801 51.9085 51.8553 51.8607 51.8447 51.8049C51.8342 51.7491 51.8388 51.6893 51.8576 51.6381C51.8763 51.5869 51.9078 51.549 51.9454 51.5311Z" fill="black"/>
<path d="M40.0071 63.1931C40.0193 63.1386 40.0456 63.0927 40.08 63.0655C40.1148 63.0382 40.1551 63.0316 40.1931 63.0469C40.2307 63.0621 40.2633 63.098 40.2837 63.1472C40.3036 63.1971 40.3104 63.2555 40.3018 63.312C40.0569 64.6703 39.4227 67.7418 39.3834 67.9325C39.3711 67.9877 39.3453 68.0342 39.3105 68.0615C39.2756 68.0887 39.2349 68.096 39.1969 68.0801C39.1589 68.0648 39.1263 68.0282 39.1064 67.9784C39.086 67.9286 39.0796 67.8694 39.0887 67.8129C39.3354 66.4546 39.9691 63.3831 40.0071 63.1931Z" fill="black"/>
<path d="M58.5972 64.5388C58.5153 64.2783 58.7782 64.0497 58.8615 64.3121L64.9974 83.7206C65.0798 83.9811 64.8164 84.2091 64.7335 83.9472L58.5972 64.5388Z" fill="black"/>
<path d="M44.7375 65.8645C47.5092 67.4082 50.5744 67.3684 53.3271 65.7535L52.5174 74.8012H44.2568C44.2163 74.8012 44.1775 74.7773 44.1489 74.7348C44.1202 74.6929 44.104 74.6364 44.1038 74.5766L44.7375 65.8645Z" fill="#2755A0"/>
<path d="M44.0848 77.7225C46.6823 75.9442 49.5816 75.3415 52.4133 75.9907L52.2449 77.884C51.948 77.8993 45.0933 78.0874 44.1636 78.1405C44.1303 78.1399 44.0981 78.1232 44.0718 78.0933C44.0455 78.0634 44.0264 78.0222 44.0175 77.975C44.0087 77.9279 44.0104 77.878 44.0226 77.8322C44.0347 77.787 44.0566 77.7484 44.0848 77.7225Z" fill="black"/>
<path d="M60.5186 1.70938C61.1677 0.8302 62.063 1.42031 62.6913 2.3387C63.3699 3.34076 63.9708 4.44994 64.4833 5.6461C63.2693 4.05454 62.0354 4.53566 61.7009 6.16178C61.4259 5.74665 61.1672 5.30892 60.926 4.85065C60.6341 4.38202 60.4168 3.82381 60.2901 3.21656C60.2401 2.95719 60.2349 2.68366 60.2748 2.42064C60.3147 2.15755 60.3985 1.91313 60.5186 1.70938Z" fill="black"/>
<path d="M64.1687 5.28596C65.1971 6.32662 65.776 8.25245 64.916 9.51773C64.6984 9.00697 64.4189 8.55901 64.0913 8.19597C63.1336 6.89481 62.0092 7.33872 61.8155 8.51761C61.075 5.79832 62.4297 3.52759 64.1687 5.28596Z" fill="#FFD2D2"/>
<path d="M53.3272 65.7536C55.7618 64.3294 57.8048 61.7577 59.1349 58.4423C60.4651 55.1269 61.007 51.2567 60.6752 47.4402C61.2533 47.1704 61.8054 46.7936 62.3183 46.3185C65.958 51.3351 70.4533 54.8146 75.3289 56.3896C73.2499 60.0173 69.4899 61.8328 66.2626 62.0228L63.7432 79.754L58.8615 64.3122C58.7787 64.0497 58.5148 64.2783 58.5972 64.5388L63.6391 80.4877L63.468 81.6925C63.4588 81.7397 63.4395 81.7809 63.413 81.8108C63.3865 81.84 63.3543 81.8566 63.3209 81.8573H52.0657C52.0252 81.8566 51.9864 81.8334 51.9578 81.7908C51.9291 81.749 51.913 81.6918 51.9127 81.6327C52.0267 80.3342 51.828 82.5464 53.3272 65.7536Z" fill="#2755A0"/>
<path d="M53.6816 21.4428C54.0495 19.8527 54.6701 18.4141 55.4922 17.2463C56.9777 15.0905 58.9059 13.6996 61.6154 13.368C61.649 13.3678 61.6816 13.3839 61.7083 13.4136C61.735 13.4435 61.7542 13.4853 61.763 13.5328C62.0504 16.3432 62.2672 21.5884 62.4727 23.4577C62.8682 20.1116 63.4165 16.8082 64.114 13.5701C64.1233 13.5231 64.1426 13.4819 64.1691 13.4522C64.1956 13.4226 64.2278 13.4061 64.2611 13.4053C67.2137 13.906 70.0446 15.4205 72.5244 17.8264C76.5872 21.7572 78.51 25.7431 81.5083 31.4867C83.2889 34.8984 84.1815 36.5744 84.8514 38.4158C86.6511 43.3626 86.1695 48.9075 84.5554 52.0049C83.8067 53.2901 82.901 54.3587 81.8849 55.1555C79.0333 57.4415 76.5021 57.0115 73.4328 55.6745C70.6927 54.481 68.0939 52.6768 65.7272 50.3243C65.6714 50.2771 65.6183 50.2233 65.5683 50.1642C65.6041 50.1934 65.6465 50.2014 65.6861 50.1848C65.7257 50.1688 65.7593 50.1303 65.7797 50.0778C65.8055 50.0113 68.5883 40.2034 69.1853 37.3412C71.5763 38.4709 73.9131 39.8345 76.1799 41.4228C76.3577 41.5404 76.513 41.1537 76.3342 41.0354C75.8155 40.6925 73.9511 39.483 73.5365 39.2245C72.1637 36.3688 71.0845 33.232 70.3336 29.915C70.2721 29.6419 69.9765 29.7595 70.039 30.0346C70.7507 33.1782 71.7531 36.1633 73.0182 38.9062C70.7549 37.424 68.3696 36.3817 65.9227 35.8055C63.325 35.226 59.8452 35.4639 57.448 37.5519C56.4893 36.0897 55.3625 34.8871 54.1193 33.9993C53.55 32.8341 52.9316 31.7223 52.2676 30.6706C52.5436 27.5371 53.0169 24.4479 53.6816 21.4428ZM83.5166 48.6689C83.3971 49.2916 83.2164 49.8857 82.9803 50.432C82.8707 50.6732 83.1364 50.8971 83.2446 50.6586C83.4943 50.0784 83.6851 49.4484 83.8113 48.7879C83.8692 48.5108 83.5741 48.3938 83.5166 48.6689ZM61.8603 34.61C62.0715 31.686 62.271 28.7599 62.4587 25.8314C62.4772 25.543 62.1713 25.5457 62.1531 25.8314C61.9667 28.7594 61.7672 31.6856 61.5548 34.61C61.5339 34.8977 61.8399 34.8937 61.8603 34.61Z" fill="#FC9070"/>
<path d="M51.1324 34.5941C51.6172 35.3317 52.0191 36.1889 52.4976 36.8628L50.9305 38.471C51.1166 37.1979 51.1845 35.8938 51.1324 34.5941Z" fill="#F7DA31"/>
<path d="M46.1276 28.9129C47.9382 27.6237 49.9103 27.6955 51.538 29.6745C52.3701 30.7707 53.1239 31.9886 53.7876 33.3095C54.2035 34.079 54.5991 35.0851 54.4765 36.042C54.4364 36.3914 54.3259 36.715 54.1593 36.9712C53.9926 37.2274 53.7776 37.4044 53.5418 37.4794C53.3457 37.5314 53.1437 37.5009 52.959 37.3916C52.7742 37.2823 52.6142 37.0985 52.4975 36.8614C52.0105 36.1723 51.6145 35.3224 51.1324 34.5927C51.1609 35.4566 51.16 38.1207 50.8083 38.8165C50.675 39.0859 50.4824 39.2793 50.263 39.3641C50.0437 39.4489 49.8112 39.4198 49.6048 39.2817C49.1521 38.9148 48.9973 38.0948 48.8611 37.3698C48.757 36.8156 48.8158 36.7185 48.7488 37.6356C48.738 38.0975 48.6769 38.5538 48.5678 38.9873C48.4807 39.222 48.3521 39.4178 48.1954 39.5539C48.0388 39.69 47.86 39.7615 47.6779 39.7605C47.4959 39.7597 47.3175 39.6865 47.1614 39.5489C47.0054 39.4113 46.8776 39.2142 46.7916 38.9786C46.6666 38.5436 46.5677 38.0933 46.4961 37.6329C46.4508 38.3832 46.3413 39.499 45.7306 39.6624C43.8667 40.1648 42.7967 31.2846 46.1276 28.9129ZM46.3919 33.6397C46.3585 33.1214 46.3507 32.6001 46.3684 32.0801C46.3784 31.7903 46.0724 31.7923 46.0624 32.0801C46.0449 32.6001 46.0528 33.1213 46.086 33.6397C46.1045 33.9268 46.4101 33.9288 46.3919 33.6411V33.6397ZM48.346 33.2045C48.365 33.4896 48.671 33.4916 48.6515 33.2045L48.5479 31.6448C48.5288 31.3597 48.2229 31.3577 48.2419 31.6448L48.346 33.2045Z" fill="#FFD2D2"/>
<path d="M69.1382 36.8534C70.4495 37.4299 71.7385 38.1112 72.9992 38.8942C71.7464 36.1492 70.7508 33.1693 70.0389 30.0346C69.9765 29.7602 70.272 29.6419 70.3336 29.915C71.0846 33.236 72.1668 36.375 73.545 39.2298C73.9569 39.4863 75.8159 40.6918 76.3342 41.0354C76.5152 41.1537 76.3577 41.5404 76.1798 41.4228C68.7675 36.5272 69.1214 37.7187 69.2341 37.1213C69.2439 37.0671 69.2394 37.0096 69.2216 36.96C69.2039 36.9104 69.1741 36.8724 69.1382 36.8534Z" fill="#FC9070"/>
<path d="M56.1599 39.4266C57.7586 35.6055 62.8349 35.1183 65.9227 35.8055C67.0091 36.0457 68.0829 36.3959 69.1364 36.8535C69.1721 36.8723 69.2017 36.9099 69.2195 36.9591C69.2372 37.0083 69.2418 37.0654 69.2324 37.1193C68.782 39.5044 66.4397 47.6509 65.7924 50.0292C65.7858 50.0625 65.7741 50.093 65.7584 50.1183C65.7426 50.1442 65.723 50.1641 65.7013 50.1768C65.6794 50.1894 65.6559 50.1947 65.6325 50.1921C65.6091 50.1901 65.5863 50.1794 65.5661 50.1621C64.4189 49.0005 63.3324 47.7153 62.3156 46.3158C61.715 46.87 61.0619 47.2907 60.3775 47.5645C59.7891 47.7904 59.0282 47.7479 58.858 46.8999C58.7004 46.1144 59.2712 45.2771 59.7067 44.6339C59.1875 44.9681 58.6391 45.1941 58.0772 45.305C57.2688 45.3961 56.8365 44.0663 57.3983 42.647C57.7558 41.7425 57.9794 41.9824 57.1986 42.1531C57.0317 42.2087 56.8588 42.2142 56.6903 42.1694C56.5219 42.1247 56.3613 42.0305 56.2182 41.8927C55.6968 41.2993 55.8598 40.1436 56.1599 39.4266ZM63.0245 41.7252L61.8608 42.3805C61.6797 42.4828 61.758 42.9168 61.9423 42.8131L63.106 42.1579C63.288 42.0555 63.2083 41.6216 63.0245 41.7252ZM60.5024 39.5755C60.8947 39.2114 61.3255 38.9453 61.777 38.788C61.9685 38.7215 61.887 38.2869 61.6955 38.3547C61.2183 38.5219 60.763 38.8034 60.3481 39.188C60.1824 39.3422 60.3377 39.7303 60.5024 39.5755Z" fill="#FFD2D2"/>
<path d="M61.5547 34.61C61.7675 31.686 61.967 28.7599 62.1531 25.8315C62.1712 25.5457 62.4772 25.5431 62.4587 25.8315C62.2728 28.7594 62.0733 31.6856 61.8603 34.61C61.8399 34.8938 61.5339 34.8977 61.5547 34.61Z" fill="#FC9070"/>
<path d="M83.5166 48.6689C83.5741 48.3938 83.8692 48.5108 83.8112 48.7879C83.6851 49.4484 83.4942 50.0784 83.2446 50.6586C83.1364 50.8971 82.8707 50.6732 82.9802 50.432C83.2164 49.8857 83.397 49.2916 83.5166 48.6689Z" fill="#FC9070"/>
<path d="M62.0966 8.6937C62.129 8.5269 62.1859 8.37246 62.2632 8.24134C62.3405 8.11016 62.4364 8.00537 62.5442 7.9344C62.652 7.86336 62.7691 7.82774 62.8872 7.83013C63.0054 7.83252 63.1217 7.87279 63.2282 7.94808C64.1746 8.48636 65.2261 10.4029 65.0509 11.6828C64.8495 13.1541 63.2481 13.1833 62.2898 10.3537C62.1105 9.84282 62.0431 9.26307 62.0966 8.6937Z" fill="white"/>
<path d="M59.8963 11.6827C59.8538 11.9847 59.7365 12.2528 59.5672 12.4351C59.398 12.6176 59.1886 12.7014 58.9797 12.6703C58.5607 12.6067 58.1713 12.3236 57.8829 11.8728C57.3312 11.1106 56.8206 9.84663 56.9415 8.69632C56.9739 8.52952 57.0307 8.37515 57.108 8.24397C57.1854 8.11279 57.2813 8.00806 57.3891 7.93702C57.4969 7.86598 57.6139 7.83042 57.7321 7.83275C57.8503 7.83514 57.9666 7.87541 58.073 7.95071C59.0195 8.48632 60.0714 10.4028 59.8963 11.6827Z" fill="white"/>
<path d="M56.6169 8.88641C56.645 7.38921 57.9128 6.80641 58.9358 8.19596C59.3186 8.60824 59.6345 9.13973 59.8609 9.7523L61.8435 9.87591C61.4044 7.46031 62.9479 6.64227 64.0913 8.19596C65.3365 9.60411 65.9403 12.2935 64.6417 12.9999C63.5472 13.6066 62.3862 11.8848 61.9458 10.3311L60.0139 10.2108C60.8893 12.766 58.7837 14.6945 57.1411 11.2781C56.7988 10.582 56.6154 9.74486 56.6169 8.88641ZM62.2925 10.3564C63.243 13.1654 64.839 13.1527 65.0536 11.6854C65.2233 10.375 64.1673 8.48304 63.2308 7.95074C63.1244 7.87545 63.008 7.83518 62.8899 7.83279C62.7717 7.83039 62.6547 7.86601 62.5469 7.93705C62.4391 8.00803 62.3431 8.11282 62.2658 8.244C62.1885 8.37518 62.1316 8.52955 62.0992 8.69635C62.0474 9.26566 62.1148 9.84467 62.2925 10.3564ZM57.1365 10.3564C58.0871 13.1647 59.6831 13.1567 59.8976 11.6854C60.0673 10.3717 59.0091 8.48237 58.0748 7.95074C57.9684 7.87545 57.8521 7.83518 57.7339 7.83279C57.6157 7.83039 57.4987 7.86601 57.3909 7.93705C57.2831 8.00803 57.1872 8.11282 57.1099 8.244C57.0325 8.37518 56.9757 8.52955 56.9433 8.69635C56.8912 9.26566 56.9586 9.84481 57.1365 10.3564Z" fill="black"/>
<path d="M66.6817 8.08433C68.3067 6.50207 69.269 7.03835 70.1091 9.37287C70.1996 9.62872 69.9394 9.85333 69.8448 9.59948C69.4994 8.66913 69.0409 7.57729 68.2194 7.63245C67.4689 7.76536 67.1425 8.17471 65.7941 9.4772C65.6294 9.63669 65.4773 9.24794 65.6398 9.08978C65.987 8.75419 66.3355 8.42192 66.6817 8.08433Z" fill="black"/>
<path d="M51.3782 85.1707C54.1588 83.2741 57.2769 82.7172 60.2861 83.5811C61.1157 83.8223 61.9308 84.1599 62.7235 84.5925C62.7579 84.6091 62.7871 84.643 62.8062 84.6882C62.8254 84.7334 62.8332 84.7872 62.8283 84.8397C62.8234 84.8922 62.8062 84.9407 62.7795 84.9766C62.7528 85.0125 62.7185 85.0338 62.6823 85.0364C57.5589 85.6086 55.5194 85.3561 51.457 85.5887C51.4239 85.5873 51.3919 85.5707 51.3658 85.5408C51.3397 85.5109 51.3209 85.4697 51.312 85.4225C51.3032 85.376 51.3049 85.3262 51.3168 85.2803C51.3287 85.2351 51.3502 85.1966 51.3782 85.1707Z" fill="black"/>
<path d="M48.6515 33.2058C48.6709 33.4929 48.3649 33.4909 48.3459 33.2058L48.2418 31.6461C48.2228 31.3591 48.5288 31.3611 48.5478 31.6461L48.6515 33.2058Z" fill="#FF4848"/>
<path d="M46.3919 33.6411C46.41 33.9288 46.1045 33.9268 46.0859 33.6411C46.0528 33.1227 46.0449 32.6015 46.0624 32.0814C46.0724 31.7937 46.3793 31.7917 46.3684 32.0814C46.3506 32.6015 46.3585 33.1227 46.3919 33.6411Z" fill="#FF4848"/>
<path d="M61.8608 42.3804L63.0245 41.7252C63.2083 41.6215 63.288 42.0574 63.106 42.1578L61.9423 42.813C61.758 42.9167 61.6788 42.4827 61.8608 42.3804Z" fill="#FF4848"/>
<path d="M61.7769 38.7879C61.3254 38.9453 60.8946 39.2114 60.5023 39.5754C60.3357 39.7302 60.1823 39.3421 60.3479 39.188C60.7629 38.8034 61.2182 38.5219 61.6954 38.3546C61.8869 38.2869 61.967 38.7201 61.7769 38.7879Z" fill="#FF4848"/>
<path d="M0.00818068 31.2627C0.0683812 30.5742 0.220014 29.9098 0.454931 29.3075C0.689849 28.7051 1.00352 28.1766 1.3774 27.7522C1.75173 27.3277 2.17902 27.0156 2.63528 26.8337C3.09153 26.6518 3.5677 26.6037 4.03663 26.692C2.79098 22.946 5.19538 18.705 8.40095 19.8752C7.68578 15.3158 11.3041 11.4582 13.6343 15.0294C15.3887 17.7175 16.2596 23.4491 16.5923 27.118C13.0866 25.3497 9.62804 24.505 7.0186 28.3713C6.15633 29.6827 5.47284 31.2237 5.00437 32.9114C4.61465 34.2189 4.30369 35.5739 4.07511 36.9611C1.73679 36.7186 -0.139378 33.9727 0.00818068 31.2627ZM10.7307 19.3011C10.7985 19.7353 10.9303 20.1425 11.1163 20.4942C11.3028 20.8458 11.5391 21.1335 11.8088 21.3371C12.0786 21.5405 12.376 21.655 12.6788 21.6724C12.9821 21.6897 13.2844 21.6096 13.5642 21.4375C14.765 20.6853 14.645 17.9394 13.6746 16.5984C12.4149 14.854 10.4269 16.7399 10.7288 19.2991L10.7307 19.3011Z" fill="black"/>
<path d="M11.645 16.3047C13.1229 14.971 14.7125 17.2935 14.3839 19.9058C14.0874 22.2623 11.5572 22.3134 10.8393 19.7968C10.6727 19.1685 10.6623 18.4742 10.8099 17.8356C10.957 17.1972 11.2526 16.6551 11.645 16.3047Z" fill="#FF4848"/>
<path d="M21.9705 35.6141C22.3299 34.6087 22.6006 33.5398 22.7757 32.4336C22.8052 32.2449 22.6852 32.1858 22.7305 32.209C22.9414 32.4443 23.1505 32.6828 23.3601 32.9207C22.3982 28.1965 21.588 23.5335 22.1022 18.8398C22.1728 18.1939 22.2552 17.3931 22.7531 17.1785C22.9618 17.1108 23.179 17.1372 23.3773 17.2543C23.5751 17.3713 23.7448 17.5735 23.863 17.8344C24.1237 18.532 24.2672 19.311 24.2812 20.1065C24.3378 20.8389 24.3649 21.5756 24.3631 22.3127L28.1748 17.7826C28.669 17.1951 29.3969 16.4163 30.0455 16.9512C30.6647 17.4616 30.6819 18.679 30.3456 19.5768C29.4996 21.8296 28.9922 21.4216 30.3795 20.8149C30.6253 20.6766 30.8874 20.6113 31.1508 20.6227C31.4138 20.6342 31.6727 20.722 31.9126 20.8813C32.1552 21.0962 32.3349 21.4357 32.4169 21.8339C32.4992 22.232 32.4775 22.6608 32.3567 23.0371C32.0122 24.3156 30.6158 25.4573 29.7626 25.9803C30.3719 25.9006 30.9775 25.7185 31.5908 25.7145C32.2879 25.7078 33.2049 25.9657 33.3357 27.1645C33.385 27.6161 33.3398 28.0789 33.2054 28.4917C33.0714 28.9044 32.855 29.2476 32.5852 29.4758C32.0901 29.7984 31.5559 29.9724 31.0146 29.9875C30.5027 30.0646 29.9889 30.0978 29.4756 30.133C30.1365 32.0156 30.6647 33.9925 31.0517 36.0328C27.7022 33.7115 24.4007 34.4233 22.878 36.0799C22.1312 36.9446 21.4255 37.8836 20.766 38.8903C21.101 38.0736 21.7062 36.3644 21.9705 35.6141Z" fill="#FFD2D2"/>
<path d="M27.0006 44.8279C27.2889 44.9057 27.584 44.917 27.8746 44.8618C28.5988 44.808 28.8578 43.5693 28.5178 42.6934C28.1919 41.9433 27.8054 41.2538 27.3668 40.64C27.7674 40.9444 28.172 41.2381 28.5839 41.5099C29.0945 41.8461 29.6997 42.2728 30.2654 41.9631C30.3845 41.9138 30.4954 41.8286 30.5909 41.7132C30.6859 41.5976 30.7643 41.4542 30.8199 41.292C30.8756 41.1299 30.9077 40.9525 30.9141 40.7712C30.9204 40.5898 30.9014 40.4085 30.8575 40.2386C30.7375 39.8854 30.5692 39.5727 30.3623 39.3202C29.1402 37.6376 28.9686 38.0961 30.5941 38.7693C30.8901 38.901 31.2006 38.9462 31.5084 38.9022C31.8533 41.6866 32.0339 45.1981 31.1164 47.7027C29.6268 46.3072 28.0584 46.2759 26.3674 47.0116C26.5796 46.2832 26.7974 45.5609 27.0006 44.8279Z" fill="#FFD2D2"/>
<path d="M3.3748 53.9659C3.37751 54.0125 3.38928 54.057 3.40874 54.0935C3.42821 54.1301 3.45446 54.158 3.48479 54.1726C5.20163 55.1521 7.02575 55.6638 8.86752 55.6824C10.1019 57.4189 11.5688 58.7586 13.1753 59.6158C14.8568 60.4797 17.2304 60.2325 18.7639 59.6291C20.1639 58.9606 21.4444 57.8402 22.5109 56.3503L23.6117 56.9404C23.7524 58.2602 25.1262 70.1647 25.1443 70.3142C15.4049 70.3142 14.7414 70.4172 13.1495 69.9155C10.7401 69.1559 8.53801 67.365 6.82116 64.7693C5.10477 62.173 3.95055 58.8888 3.5047 55.3302C3.49882 55.2644 3.36348 54.0517 3.3748 53.9659Z" fill="#78B5FF"/>
<path d="M26.5497 72.9717L36.3869 71.6134C36.4611 71.6035 36.5494 71.5177 36.5399 71.3895C36.1873 66.6487 35.6518 61.9417 34.9366 57.29C35.6464 59.1673 42.6124 77.7298 42.6169 77.7418C42.6369 77.7943 42.6418 77.8567 42.6305 77.9146C42.6197 77.973 42.593 78.0222 42.5572 78.0515C42.5119 78.0893 42.5925 78.0368 31.3721 83.8329C31.3395 83.8456 31.3051 83.8422 31.2739 83.8236C31.2431 83.805 31.2169 83.7725 31.1997 83.7299C30.3496 81.7363 28.0765 76.4905 27.7977 75.8492C31.2522 77.04 34.0105 78.1943 36.9042 78.8536C36.94 78.8662 36.978 78.8602 37.0111 78.8356C37.0441 78.811 37.0699 78.7698 37.0839 78.7193C37.098 78.6695 37.0993 78.6137 37.0876 78.5618C37.0758 78.5107 37.0518 78.4668 37.0201 78.4389C34.1681 75.485 30.7 74.0975 27.2215 74.5181L26.5497 72.9717Z" fill="#78B5FF"/>
<path d="M4.07507 36.9611C4.30275 35.5741 4.6128 34.2191 5.00162 32.9114C6.51387 27.6616 9.16586 24.8519 13.1038 25.8089C16.6352 26.6276 19.9513 28.8285 22.7028 32.1798C22.7304 32.207 22.7517 32.2458 22.7644 32.291C22.7766 32.3362 22.7798 32.3859 22.773 32.4336C22.5978 33.5398 22.3271 34.6087 21.9677 35.6141C21.6029 36.6501 21.2327 37.6888 20.8398 38.7022C20.6424 39.2106 21.0584 38.1706 16.0509 46.3683C14.6133 42.2216 14.7564 42.9712 14.698 42.7486C13.2178 39.3362 11.439 35.949 9.03414 33.9441C8.99929 33.9141 8.95719 33.9057 8.91827 33.9209C8.87889 33.936 8.84539 33.9734 8.82457 34.0249C8.8042 34.0764 8.79877 34.1377 8.80873 34.1953C8.81914 34.253 8.84494 34.3022 8.8798 34.3322C11.2607 36.478 12.8562 39.3462 14.3952 42.8795C12.3832 46.7764 10.2984 50.2864 8.06234 53.9148C6.22645 51.1138 4.82011 47.7692 3.93702 44.1049C3.92571 44.0571 3.90398 44.0159 3.87546 43.988C3.84649 43.96 3.81254 43.9468 3.77814 43.9501C3.74374 43.9541 3.71115 43.974 3.6849 44.0072C3.6591 44.0405 3.64144 44.085 3.63466 44.1348C3.62922 44.2132 3.65005 44.2445 3.75596 44.6591C4.82645 48.8883 6.58086 52.6715 8.86803 55.6845C7.0258 55.6685 5.20168 55.1568 3.48529 54.1747C3.45496 54.16 3.42871 54.1321 3.40925 54.0956C3.38979 54.059 3.37801 54.0145 3.3753 53.968C3.23091 53.3765 3.25444 42.2974 4.07507 36.9611ZM19.1333 37.0203C19.1537 37.0718 19.1872 37.1092 19.2266 37.1243C19.266 37.1394 19.3076 37.1311 19.3425 37.101C19.3778 37.071 19.4031 37.0217 19.4135 36.9641C19.4239 36.9064 19.418 36.8452 19.3977 36.7937C18.6635 34.9395 17.8438 33.1614 16.9439 31.4721C16.8258 31.2455 16.5601 31.4721 16.6796 31.6987C17.5595 33.4091 18.3788 35.1853 19.1333 37.0203ZM13.6112 29.4565C13.623 29.523 15.2964 39.1966 15.352 39.2996C15.4235 39.3747 15.1606 39.1933 17.3975 40.6194C17.526 40.6812 17.6034 40.6015 17.6238 40.4865C18.1819 37.0568 18.2321 37.2137 18.1448 37.0362C18.109 36.9638 17.7899 36.3883 13.8687 29.2392C13.766 29.0538 13.5759 29.2545 13.6112 29.4559V29.4565Z" fill="#C0C195"/>
<path d="M8.88254 34.3322C8.84769 34.3021 8.82189 34.2529 8.81148 34.1952C8.80152 34.1376 8.80695 34.0763 8.82731 34.0248C8.84814 33.9734 8.88163 33.936 8.92101 33.9208C8.95994 33.9057 9.00204 33.9141 9.03689 33.9441C10.9176 35.6435 12.5199 37.9312 13.7298 40.644C13.7837 40.7569 14.6627 42.603 14.7057 42.7658C14.6908 42.7356 14.6713 42.7111 14.6487 42.6945C14.626 42.678 14.6007 42.6699 14.5753 42.6709C14.55 42.672 14.5251 42.6822 14.5034 42.7006C14.4812 42.719 14.4626 42.745 14.4491 42.7765C14.4314 42.8117 14.4124 42.8429 14.3947 42.8795C12.8413 39.3149 11.2462 36.4647 8.88254 34.3322Z" fill="#77751E"/>
<path d="M3.93657 44.1049C4.81966 47.7692 6.226 51.1138 8.06189 53.9148C8.02613 53.9726 7.99173 54.0318 7.95552 54.0889C7.92972 54.1301 7.91478 54.1833 7.91342 54.2391C7.91252 54.2949 7.92519 54.3494 7.94964 54.3926L7.94149 54.3847C6.02911 51.4886 4.56302 48.0237 3.64146 44.2239C3.57447 43.9501 3.8732 43.8384 3.93657 44.1049Z" fill="#77751E"/>
<path d="M26.3673 47.0102C28.41 46.1218 29.8829 46.5451 31.1163 47.7014C32.9228 49.3973 33.8706 52.3245 34.5383 55.291C35.4816 59.4836 36.2085 67.074 36.5398 71.3915C36.5493 71.5197 36.4611 71.6054 36.3868 71.6154L25.6032 73.1046C25.5698 73.1046 25.5372 73.0887 25.5105 73.0588C25.4838 73.0289 25.4647 72.987 25.4557 72.9398C25.3511 72.0633 23.7542 58.2622 23.6117 56.9424L22.5108 56.3523C24.8722 53.2257 25.1307 51.2573 26.3673 47.0102ZM30.2935 48.8098L29.0555 47.8848C28.8803 47.7519 28.726 48.1413 28.9012 48.2722L30.1396 49.1972C30.3147 49.3281 30.4691 48.9407 30.2935 48.8098Z" fill="#CCEAFF"/>
<path d="M7.95554 54.0889C9.92722 50.9596 12.5475 46.4713 14.4491 42.7765C14.4626 42.7452 14.4812 42.7193 14.5034 42.7009C14.5255 42.6827 14.55 42.6726 14.5753 42.6715C14.6007 42.6704 14.626 42.6785 14.6487 42.695C14.6713 42.7114 14.6908 42.7358 14.7057 42.7659C14.9003 43.039 16.0306 46.3012 16.0536 46.3683C17.7148 43.6497 21.1354 37.9739 22.878 36.0786C24.3183 34.5116 27.3845 33.7348 30.691 35.7949C31.1599 36.0651 31.6035 36.4224 32.0104 36.8581C32.8152 37.7951 32.186 39.4305 30.5941 38.772C28.9673 38.0988 29.1411 37.6423 30.3623 39.3229C30.5692 39.5753 30.7376 39.8881 30.8575 40.2413C30.9014 40.4111 30.9204 40.5925 30.9141 40.7738C30.9078 40.9552 30.8756 41.1326 30.82 41.2947C30.7643 41.4569 30.686 41.6003 30.5909 41.7158C30.4954 41.8313 30.3845 41.9165 30.2655 41.9658C29.7001 42.2754 29.0945 41.8488 28.5839 41.5125C28.172 41.2407 27.7692 40.947 27.3668 40.6427C27.8059 41.2548 28.1924 41.9435 28.5174 42.6934C28.8551 43.5626 28.6034 44.8073 27.8742 44.8618C27.5836 44.917 27.2885 44.9057 27.0002 44.8279C26.7286 45.8247 26.4117 46.8315 26.1737 47.6854C25.4748 50.1981 24.942 52.4336 23.753 54.5109C23.3669 55.1648 22.9518 55.7802 22.5105 56.3543C21.4386 57.8336 20.1599 58.9527 18.7636 59.6332C17.23 60.2366 14.8582 60.4871 13.1749 59.6199C11.554 58.7852 9.8883 57.3199 7.95509 54.4086L7.94921 54.3946C7.92477 54.3514 7.91164 54.2963 7.913 54.2398C7.9139 54.1839 7.92929 54.1301 7.95554 54.0889ZM16.9078 57.7279H14.9356C14.8967 57.7312 14.8596 57.7558 14.8329 57.7977C14.8062 57.8396 14.7908 57.8947 14.7908 57.9525C14.7908 58.0097 14.8062 58.0648 14.8329 58.1067C14.8596 58.1486 14.8967 58.1732 14.9356 58.1765H16.9078C16.9467 58.1732 16.9838 58.1486 17.0105 58.1067C17.0377 58.0648 17.0526 58.0097 17.0526 57.9525C17.0526 57.8947 17.0377 57.8396 17.0105 57.7977C16.9838 57.7558 16.9467 57.7312 16.9078 57.7279ZM23.9426 39.4571C24.383 39.491 24.8216 39.5683 25.2553 39.6884C25.4476 39.7416 25.5296 39.3089 25.3363 39.2551C24.876 39.1272 24.4097 39.0448 23.9417 39.0086C23.7457 38.9933 23.7471 39.4425 23.9426 39.4571ZM26.7449 37.0502C26.9377 37.098 27.0201 36.6654 26.8264 36.6176C26.3488 36.4997 25.8681 36.4165 25.3847 36.3677C25.1883 36.3484 25.1896 36.7977 25.3847 36.8169C25.841 36.8639 26.2945 36.9417 26.7449 37.0502ZM26.8042 44.4192C26.7535 43.9673 26.2968 44.6392 24.6424 42.6489C24.4912 42.4675 24.2739 42.7818 24.426 42.9666C25.0443 43.8079 25.7989 44.4033 26.6181 44.6943C26.6439 44.7023 26.6702 44.7003 26.6955 44.689C26.7204 44.6777 26.7431 44.6578 26.7616 44.6306C26.7802 44.6033 26.7938 44.5694 26.801 44.5329C26.8087 44.4957 26.8096 44.4571 26.8042 44.4192Z" fill="#FF4848"/>
<path d="M13.867 29.2372C14.11 29.6811 18.1186 36.985 18.143 37.0342C18.1765 37.1007 18.191 37.1046 18.1552 37.3332C18.1054 37.6562 17.9561 38.4311 17.622 40.4845C17.6148 40.5354 17.594 40.58 17.5645 40.609C17.5351 40.6379 17.4994 40.6488 17.4645 40.6393C17.3853 40.6267 17.4989 40.6832 15.5779 39.4584C15.4969 39.4247 15.4204 39.3708 15.3516 39.299C15.3009 39.2046 14.1996 32.8024 13.6108 29.4558C13.5759 29.2545 13.766 29.0538 13.867 29.2372Z" fill="black"/>
<path d="M26.6163 44.691C25.797 44.3993 25.0424 43.8045 24.4241 42.9632C24.2721 42.7798 24.4893 42.4641 24.6405 42.6455C24.942 43.0177 25.2651 43.3513 25.6055 43.6424C26.4587 44.3527 26.7683 44.1155 26.8023 44.4152C26.8077 44.4531 26.8068 44.4923 26.7996 44.5288C26.7919 44.5661 26.7788 44.5993 26.7602 44.6272C26.7416 44.6544 26.719 44.6744 26.6937 44.6857C26.6688 44.697 26.6421 44.699 26.6163 44.691Z" fill="#FC9070"/>
<path d="M28.4409 9.66657C28.4993 9.39145 28.7944 9.50908 28.7356 9.78619L27.7706 14.323C27.7122 14.5974 27.417 14.4805 27.4759 14.2034L28.4409 9.66657Z" fill="black"/>
<path d="M23.2568 0.3039C23.2496 0.275657 23.2464 0.245552 23.2473 0.215448C23.2482 0.185278 23.2532 0.155708 23.2623 0.128462C23.2709 0.101216 23.2835 0.0768942 23.2985 0.0568252C23.3139 0.0368226 23.332 0.0215386 23.3514 0.0118363C23.3709 0.00220055 23.3917 -0.00158926 23.4121 0.000603717C23.4325 0.00286314 23.4524 0.0111048 23.4709 0.0249271C23.489 0.0386831 23.5053 0.057754 23.5185 0.0808799C23.5316 0.104072 23.5415 0.130855 23.5474 0.159696C23.6316 0.64215 26.0749 14.6646 26.0763 14.6732C26.0849 14.7295 26.0781 14.7884 26.0582 14.8377C26.0378 14.8871 26.0052 14.9232 25.9677 14.9385C25.9297 14.9538 25.8894 14.9471 25.8545 14.9199C25.8201 14.8926 25.7939 14.8469 25.7816 14.7921C22.4765 -4.17508 23.4103 1.34257 23.2568 0.3039Z" fill="black"/>
<path d="M24.1888 15.5637L21.76 11.7093C21.6265 11.4974 21.8419 11.1777 21.9759 11.3917L24.4047 15.246C24.5383 15.458 24.3228 15.7763 24.1888 15.5637Z" fill="black"/>
<path d="M33.8273 85.582C36.6078 83.6854 39.726 83.1292 42.7352 83.9924C43.5646 84.2336 44.3795 84.5712 45.1721 85.0038C45.2063 85.0211 45.2354 85.055 45.2543 85.1002C45.2733 85.1454 45.281 85.1986 45.2762 85.251C45.2713 85.3035 45.2542 85.3521 45.2277 85.3879C45.2012 85.4238 45.167 85.4451 45.131 85.4484C39.9917 86.0226 38.0155 85.7647 33.9056 86C33.8726 85.9993 33.8404 85.9827 33.8142 85.9528C33.7879 85.9229 33.7689 85.881 33.7598 85.8338C33.7512 85.7867 33.7531 85.7368 33.7653 85.6916C33.777 85.6464 33.7992 85.6079 33.8273 85.582Z" fill="black"/>
<path d="M25.9441 74.8012C27.8624 74.2995 29.83 74.3633 31.7315 74.9886C33.633 75.6133 35.4304 76.7882 37.0201 78.4429C37.1681 78.5313 37.088 78.9081 36.9295 78.8669C33.2836 77.9917 28.9315 76.1888 25.945 75.2345C25.9255 75.2345 25.9065 75.2292 25.8884 75.2186C25.8708 75.2073 25.8545 75.1913 25.8404 75.1714C25.8269 75.1515 25.816 75.1275 25.8083 75.1016C25.8011 75.075 25.797 75.0471 25.797 75.0185C25.797 74.99 25.8006 74.9621 25.8079 74.9355C25.8155 74.9096 25.8264 74.8856 25.84 74.865C25.8536 74.8451 25.8699 74.8292 25.8875 74.8179C25.9056 74.8072 25.9246 74.8012 25.9441 74.8012Z" fill="black"/>
<path d="M16.9439 31.4714C17.8437 33.1608 18.6634 34.9389 19.3976 36.793C19.4076 36.8185 19.4144 36.8467 19.4171 36.8759C19.4198 36.9052 19.4184 36.9349 19.4135 36.9634C19.4085 36.9919 19.3994 37.0187 19.3872 37.0422C19.375 37.0657 19.3601 37.0854 19.3429 37.1003C19.3252 37.1152 19.3062 37.1249 19.2863 37.129C19.2664 37.133 19.246 37.1312 19.2265 37.1237C19.2071 37.1161 19.189 37.1031 19.1731 37.0852C19.1568 37.0674 19.1432 37.0451 19.1333 37.0196C18.3787 35.1846 17.5595 33.4084 16.6795 31.698C16.56 31.4687 16.8257 31.2448 16.9439 31.4714Z" fill="#77751E"/>
<path d="M30.2936 48.8098C30.4692 48.9427 30.3148 49.3281 30.1397 49.1972L28.9013 48.2722C28.7261 48.1393 28.8804 47.7539 29.0556 47.8848L30.2936 48.8098Z" fill="#78B5FF"/>
<path d="M14.9356 57.7279H16.9078C16.9467 57.7312 16.9838 57.7558 17.0105 57.7977C17.0377 57.8395 17.0526 57.8947 17.0526 57.9525C17.0526 58.0097 17.0377 58.0648 17.0105 58.1067C16.9838 58.1486 16.9467 58.1731 16.9078 58.1765H14.9356C14.8967 58.1731 14.8596 58.1486 14.8329 58.1067C14.8062 58.0648 14.7908 58.0097 14.7908 57.9525C14.7908 57.8947 14.8062 57.8395 14.8329 57.7977C14.8596 57.7558 14.8967 57.7312 14.9356 57.7279Z" fill="#FC9070"/>
<path d="M24.7605 23.8312C25.1593 24.7529 25.3969 25.8046 25.453 26.8934C25.9356 27.2277 26.3705 27.6936 26.7345 28.2663C26.8703 28.4776 26.653 28.7979 26.5186 28.5839C26.1877 28.0429 25.783 27.6094 25.3313 27.3113C25.205 27.2183 25.1416 27.1552 25.157 27.0342C25.109 25.9768 24.8823 24.9538 24.4966 24.0578C24.3776 23.8258 24.6428 23.6012 24.7605 23.8312Z" fill="#FF4848"/>
<path d="M25.2561 39.6884C24.8225 39.5683 24.3839 39.491 23.9435 39.4571C23.7479 39.4425 23.7466 38.992 23.9435 39.0086C24.4115 39.0448 24.8777 39.1272 25.338 39.2551C25.53 39.3089 25.4485 39.7449 25.2561 39.6884Z" fill="#FC9070"/>
<path d="M26.7449 37.0501C26.2945 36.939 25.8419 36.8612 25.387 36.8169C25.1919 36.7976 25.1905 36.3517 25.387 36.3677C25.8699 36.416 26.3502 36.4992 26.8286 36.6175C27.0201 36.6654 26.9377 37.098 26.7449 37.0501Z" fill="#FC9070"/>
<path d="M52.1449 44.6578L50.5828 42.9605C50.4267 42.7904 50.5788 42.401 50.7372 42.5731L52.2992 44.2703C52.4572 44.4398 52.3051 44.8299 52.1449 44.6578Z" fill="black"/>
<path d="M51.2483 45.717L49.6867 44.0198C49.5301 43.8504 49.6826 43.4603 49.841 43.6324L51.4026 45.327C51.5592 45.4997 51.4072 45.8892 51.2483 45.717Z" fill="black"/>
<path d="M52.6224 40.3523L54.1818 42.0488C54.3384 42.219 54.1858 42.609 54.0274 42.4369L52.4658 40.7397C52.3115 40.5696 52.4617 40.1795 52.6224 40.3523Z" fill="black"/>
<path d="M53.1317 43.4962L51.5697 41.799C51.4135 41.6288 51.5656 41.2394 51.724 41.4115L53.2861 43.1081C53.4422 43.2782 53.2902 43.6657 53.1317 43.4962Z" fill="black"/>
<path d="M52.0269 51.9637C51.9884 51.977 51.948 51.9677 51.9141 51.9378C51.8801 51.9085 51.8553 51.8607 51.8448 51.8049C51.8342 51.7491 51.8388 51.6893 51.8576 51.6381C51.8764 51.5869 51.9078 51.549 51.9454 51.5311C52.7484 51.1736 58.7951 48.5985 59.0893 48.4802C59.1284 48.4649 59.1699 48.4729 59.2052 48.5021C59.2403 48.5314 59.2663 48.5792 59.2776 48.6364C59.3586 49.0391 59.4415 49.4411 59.5239 49.8432C59.5312 49.8717 59.5341 49.9016 59.5325 49.9322C59.5309 49.9621 59.5248 49.9914 59.5146 50.0179C59.5044 50.0445 59.4904 50.0671 59.4735 50.0844C59.4566 50.1017 59.4374 50.1136 59.417 50.1189L52.0269 51.9637ZM54.5802 50.8732L59.1808 49.7249L59.0273 48.9739L54.5802 50.8732Z" fill="black"/>
<path d="M40.0071 63.1931C40.0193 63.1386 40.0456 63.0927 40.08 63.0655C40.1148 63.0382 40.1551 63.0316 40.1931 63.0469C40.2307 63.0621 40.2633 63.098 40.2837 63.1472C40.3036 63.1971 40.3104 63.2555 40.3018 63.312C40.0569 64.6703 39.4227 67.7418 39.3834 67.9325C39.3711 67.9877 39.3453 68.0342 39.3105 68.0615C39.2756 68.0887 39.2349 68.096 39.1969 68.0801C39.1589 68.0648 39.1263 68.0282 39.1064 67.9784C39.086 67.9286 39.0796 67.8694 39.0887 67.8129C39.3354 66.4546 39.9691 63.3831 40.0071 63.1931Z" fill="black"/>
<path d="M46.3919 33.6411C46.41 33.9288 46.1045 33.9268 46.0859 33.6411C46.0528 33.1227 46.0449 32.6015 46.0624 32.0814C46.0724 31.7937 46.3793 31.7917 46.3684 32.0814C46.3506 32.6015 46.3585 33.1227 46.3919 33.6411Z" fill="black"/>
<path d="M65.6158 75.4917L69.0128 62.8043H67.0995C67.0793 62.8063 67.0591 62.8023 67.04 62.7924C67.0208 62.7831 67.0032 62.7678 66.988 62.7478C66.9729 62.7286 66.9606 62.7047 66.9519 62.6774C66.9431 62.6508 66.938 62.6216 66.9369 62.5924C66.9359 62.5624 66.9388 62.5325 66.9456 62.5046C66.9524 62.4767 66.9629 62.4508 66.9765 62.4289C66.9901 62.4069 67.0065 62.3897 67.0248 62.377C67.0432 62.3644 67.063 62.3571 67.0832 62.3558H76.4297C76.4688 62.3591 76.5056 62.3837 76.5324 62.4255C76.5594 62.4674 76.5744 62.5226 76.5744 62.5797C76.5744 62.6375 76.5594 62.6927 76.5324 62.7346C76.5056 62.7764 76.4688 62.801 76.4297 62.8043C75.9259 62.8176 75.2981 62.8043 74.6128 62.8043L78.0049 75.497C78.0768 75.7661 77.7786 75.8824 77.7098 75.6166L74.286 62.8043H69.3396L65.9105 75.6133C65.8394 75.8771 65.5429 75.7628 65.6158 75.4917Z" fill="black"/>
<path d="M44.0156 33.8238C44.1763 31.8236 44.8055 29.8546 46.1276 28.9142C47.9381 27.625 49.9103 27.6968 51.5379 29.6758C51.7932 29.9881 52.0365 30.3209 52.2667 30.6726C52.5454 27.5382 53.0191 24.4478 53.6816 21.4402C54.0495 19.85 54.6701 18.4115 55.4922 17.2436C56.9777 15.0905 58.9059 13.6996 61.6154 13.368C61.649 13.3678 61.6816 13.3839 61.7083 13.4136C61.735 13.4435 61.7542 13.4853 61.763 13.5328C62.0504 16.3432 62.2672 21.5884 62.4727 23.4577C62.8682 20.1114 63.4165 16.8078 64.114 13.5694C64.1235 13.5227 64.1429 13.4815 64.1693 13.452C64.1957 13.4223 64.2278 13.4058 64.2611 13.4046C67.2137 13.9059 70.0445 15.4207 72.5244 17.8264C76.5872 21.7572 78.51 25.7431 81.5083 31.4867C83.2889 34.8977 84.1815 36.5744 84.8514 38.4158C86.6511 43.3626 86.1695 48.9075 84.5554 52.0049C83.8067 53.2901 82.901 54.3587 81.8849 55.1555C79.8858 56.7703 77.5437 57.2116 75.3316 56.3895C73.2146 60.0631 69.3844 61.8387 66.2622 62.0222L63.7451 79.7593L64.9971 83.72C65.0794 83.9805 64.816 84.2084 64.7332 83.9466L63.641 80.491C63.617 80.6485 63.5685 80.9801 63.4676 81.6872C63.4585 81.7343 63.4394 81.7762 63.4128 81.8054C63.3863 81.8354 63.3539 81.852 63.3205 81.852H52.0657C52.0252 81.8513 51.9864 81.828 51.9578 81.7855C51.9292 81.7436 51.913 81.6872 51.9127 81.6273L52.2454 77.888C50.9826 77.9272 45.0114 78.0874 44.1623 78.1365C44.1291 78.1352 44.0971 78.1186 44.071 78.0887C44.0448 78.0588 44.0261 78.0169 44.0174 77.9697C44.0086 77.9232 44.0105 77.8734 44.0227 77.8275C44.0348 77.7823 44.0567 77.7445 44.0849 77.7185C46.6854 75.9555 49.5831 75.3601 52.4133 76.0087L52.5211 74.7972H44.2569C44.2163 74.7966 44.1776 74.7733 44.1489 74.7308C44.1203 74.6889 44.1041 74.6324 44.1039 74.5726L44.7421 65.8605C42.5599 64.6451 40.6715 62.5099 39.3141 59.7229C37.9566 56.9358 37.1908 53.6217 37.1134 50.1974C37.0355 46.773 37.6497 43.3912 38.8777 40.4779C40.1057 37.5645 41.8936 35.2494 44.0156 33.8238ZM51.8077 30.6241C51.2858 29.8355 50.6523 29.2248 49.9519 28.8352C49.2789 28.5327 48.5697 28.4451 47.8717 28.5783C47.1738 28.7115 46.5033 29.0624 45.9054 29.6074C44.3913 31.0148 43.6834 35.0492 44.8706 38.4896C44.9311 38.671 45.0178 38.831 45.1245 38.9585C45.2313 39.0859 45.3556 39.1778 45.4889 39.2279C45.6178 39.2547 45.7487 39.2083 45.8549 39.0981C45.9612 38.988 46.0348 38.8223 46.0606 38.6351C46.2564 37.3604 46.2727 36.0405 46.1086 34.7562C46.0796 34.5216 46.3571 34.4239 46.4091 34.6964C46.4933 35.6174 46.8618 38.3374 47.137 38.97C47.2064 39.0852 47.292 39.1769 47.3879 39.2388C47.4838 39.3007 47.5877 39.3313 47.6924 39.3285C47.7971 39.3257 47.9003 39.2896 47.9945 39.2227C48.0889 39.1558 48.1722 39.0596 48.2387 38.9408C48.3737 38.5659 48.4424 38.1473 48.4388 37.7233C48.5244 36.7394 48.5396 35.7449 48.484 34.7562C48.4686 34.5063 48.7588 34.4458 48.7846 34.6964C48.8561 35.3855 48.9543 36.0693 49.0684 36.7458C49.136 37.3985 49.2893 38.0256 49.5196 38.5926C49.8175 39.2963 50.6512 39.0199 50.7119 37.8862C50.8427 36.6085 50.8722 35.3129 50.7997 34.0252C50.7879 33.8172 50.9722 33.7448 51.0609 33.8664C51.9168 35.0413 52.0503 35.6606 52.8646 36.7598C52.9348 36.8854 53.0278 36.9791 53.1329 37.03C53.238 37.0809 53.3507 37.0871 53.458 37.0475C53.6374 37.0003 53.8027 36.8742 53.932 36.6858C54.0614 36.4975 54.1487 36.2558 54.1822 35.9929C54.2209 35.4197 54.1249 34.8442 53.9102 34.3621C53.2834 33.0303 52.58 31.7797 51.8077 30.6241ZM60.9093 43.7467C60.3646 44.2943 59.8768 44.9548 59.4609 45.7078C59.3072 45.939 59.1978 46.2261 59.144 46.5398C59.0942 47.0614 59.4668 47.2269 59.7492 47.2369C60.6499 47.078 61.5109 46.6009 62.2582 45.846C62.5297 45.62 62.6461 46.6208 65.5778 49.6245C66.8542 44.9548 68.2936 40.0805 68.8915 37.2156C65.561 35.757 61.6421 35.3503 58.3904 37.326C57.5938 37.802 56.9098 38.6107 56.4232 39.6518C56.2019 40.1948 55.9991 41.2002 56.4685 41.6042C56.73 41.7716 57.0233 41.7984 57.2968 41.68C57.6439 41.581 57.9851 41.4414 58.3171 41.2627C58.4918 41.169 58.5651 41.5345 58.4348 41.6727C56.9678 43.2357 57.3733 45.0618 58.1374 44.8625C58.5741 44.7628 59.0011 44.5867 59.4093 44.3375C59.8755 44.0677 60.3255 43.7407 60.7545 43.3606C60.9261 43.2058 61.07 43.5846 60.9093 43.7467ZM54.4751 36.0321L56.6025 38.5779C56.7786 38.305 56.9708 38.0555 57.1769 37.8323C56.3447 36.5871 55.3934 35.5265 54.3529 34.6838C54.4785 35.1077 54.5209 35.5747 54.4751 36.0321ZM57.2009 42.1578C57.0339 42.2135 56.861 42.2191 56.6926 42.1743C56.5241 42.1296 56.3635 42.0353 56.2205 41.8973C55.6968 41.2992 55.8584 40.1443 56.1598 39.4266C56.2343 39.2489 56.3161 39.078 56.4047 38.9149L54.3796 36.492C54.3024 36.7416 54.1864 36.9611 54.0408 37.1328C53.8954 37.3046 53.7244 37.4238 53.5418 37.4808C53.3455 37.5326 53.1433 37.502 52.9584 37.3924C52.7735 37.2828 52.6134 37.0987 52.4966 36.8614C50.3828 39.0325 51.098 38.245 50.8083 38.8178C50.7134 39.0008 50.5918 39.1502 50.4525 39.2554C50.3132 39.3604 50.1596 39.4185 50.0031 39.4252C45.5758 43.9687 45.9592 43.5693 45.7786 43.7686L51.0133 49.58C51.6828 48.875 57.238 42.833 57.3991 42.6502C57.7576 41.7471 57.9817 41.9903 57.2009 42.1578ZM51.0319 37.821L52.2807 36.5358C51.8883 35.9158 51.542 35.2127 51.1333 34.594C51.1663 35.672 51.1324 36.7521 51.0319 37.821ZM78.5336 56.2613C80.6116 55.919 82.5417 54.5162 83.9869 52.2973C85.6327 49.8159 86.4588 44.3421 84.7641 39.1641C84.0598 37.2224 83.2249 35.3892 82.2719 33.6916C78.2991 25.9896 76.2518 21.8874 72.1917 18.0451C69.8355 15.795 67.1593 14.3682 64.3688 13.8744C64.2389 14.4679 63.5396 18.0982 63.3916 19.0625C63.1127 20.8813 62.9507 22.7374 62.6176 24.5376C62.6057 24.586 62.5841 24.6278 62.5554 24.6573C62.5268 24.6868 62.4928 24.7027 62.4578 24.7027C62.4228 24.7027 62.3887 24.6868 62.3601 24.6573C62.3315 24.6278 62.3098 24.586 62.298 24.5376C61.8205 20.6833 61.9187 18.2172 61.4832 13.8385C57.4973 14.2904 54.7928 17.8776 53.9745 21.5625C53.2905 24.667 52.808 27.8594 52.5333 31.0972C53.0958 32.0116 53.6215 32.9736 54.1076 33.978C55.3438 34.8975 56.4672 36.1128 57.4317 37.5738C59.6383 35.4646 63.4228 35.2479 65.9209 35.8062C68.358 36.3814 70.7341 37.4181 72.9897 38.8903C71.739 36.1468 70.7459 33.1683 70.0371 30.0353C69.9751 29.7609 70.2703 29.6426 70.3323 29.9157C71.0935 33.2387 72.1789 36.3821 73.5546 39.2478C74.3947 39.7841 75.9468 40.7762 76.3329 41.0354C76.5139 41.1537 76.3564 41.5404 76.1785 41.4228C71.1511 38.1001 69.5809 37.534 69.1871 37.3532C68.6539 39.9376 66.5125 47.4037 65.8344 49.8784C68.6196 52.6681 71.7296 54.6843 75.0103 55.8267C76.1592 56.2659 77.3508 56.4128 78.5336 56.2613ZM44.9381 77.6521C46.1987 77.5909 50.8336 77.5006 52.2862 77.4428L52.3735 76.4592C49.8665 75.8857 47.3007 76.2978 44.9372 77.6521H44.9381ZM52.2441 81.4067H63.1978L63.4291 79.8185L58.5972 64.5388C58.5153 64.2783 58.7783 64.0497 58.8616 64.3122L63.5301 79.0795L65.9906 61.7444C65.9998 61.6972 66.0192 61.656 66.0458 61.6261C66.0723 61.5962 66.1047 61.5802 66.1381 61.5796C67.3706 61.5032 68.5929 61.2174 69.7805 60.7276C71.773 60.0099 73.5829 58.4656 74.9944 56.2799C70.2459 54.6538 65.8734 51.2181 62.3184 46.3185C61.8046 46.7916 61.2527 47.1684 60.6753 47.4409C61.0025 51.1716 60.4938 54.9568 59.2261 58.2257C57.9585 61.4945 56.0008 64.0689 53.6486 65.5595C53.487 67.3777 52.2866 81.0352 52.2432 81.4067H52.2441ZM44.427 74.3527H52.5604L53.325 65.7595C50.6772 67.3345 47.7279 67.4295 45.0358 66.0253L44.427 74.3527ZM38.8596 57.8469C40.1573 61.2799 42.2281 63.9427 44.7169 65.3794C47.2055 66.8168 49.957 66.9384 52.5 65.7236C55.043 64.5089 57.219 62.0335 58.6551 58.7214C60.0912 55.4093 60.6981 51.4673 60.3716 47.5705C59.7859 47.7924 59.0304 47.7466 58.8611 46.9059C58.7036 46.1204 59.2744 45.2825 59.7098 44.6399C59.1907 44.9741 58.6422 45.2001 58.0803 45.311C57.4331 45.3841 57.0271 44.5468 57.1787 43.4816C56.5586 44.1753 51.337 49.7947 51.0903 50.0545C51.0671 50.0758 51.0404 50.0871 51.0131 50.0871C50.9858 50.0871 50.9591 50.0758 50.9359 50.0545L45.4382 43.9514C45.4158 43.9308 45.3972 43.9022 45.3844 43.8683C45.3716 43.8344 45.3648 43.7966 45.3648 43.758C45.3648 43.7188 45.3716 43.6809 45.3844 43.647C45.3972 43.6131 45.4158 43.5846 45.4382 43.564C45.7098 43.2982 49.0675 39.8426 49.6061 39.2883C49.1535 38.9222 48.9978 38.1035 48.8611 37.3758C48.757 36.8216 48.8158 36.7245 48.7488 37.6416C48.7379 38.1035 48.6768 38.5598 48.5678 38.9933C48.4807 39.228 48.352 39.4238 48.1954 39.5599C48.0388 39.696 47.86 39.7674 47.6779 39.7665C47.4959 39.7657 47.3174 39.6925 47.1614 39.5549C47.0054 39.4173 46.8776 39.2202 46.7916 38.9846C46.6666 38.5495 46.5676 38.0993 46.4956 37.6389C46.4503 38.3885 46.3412 39.505 45.7306 39.6684C44.6679 39.9522 43.8658 37.2043 43.9826 34.3448C42.5645 35.3448 41.2998 36.759 40.2669 38.501C39.2335 40.243 38.4532 42.2762 37.9738 44.4764C37.494 46.676 37.3252 48.9966 37.4777 51.2952C37.6298 53.5945 38.1001 55.824 38.8592 57.8469H38.8596Z" fill="black"/>
<path d="M61.5547 34.61C61.7675 31.686 61.967 28.7599 62.1531 25.8315C62.1712 25.5457 62.4772 25.5431 62.4587 25.8315C62.2728 28.7594 62.0733 31.6856 61.8603 34.61C61.8399 34.8938 61.5339 34.8977 61.5547 34.61Z" fill="black"/>
<path d="M83.5166 48.6689C83.5741 48.3938 83.8692 48.5108 83.8112 48.7879C83.6851 49.4484 83.4942 50.0784 83.2446 50.6586C83.1364 50.8971 82.8707 50.6732 82.9802 50.432C83.2164 49.8857 83.397 49.2916 83.5166 48.6689Z" fill="black"/>
<path d="M56.617 8.88648C56.6378 7.39127 57.9151 6.80913 58.9358 8.19602C59.3167 8.60684 59.6296 9.1386 59.851 9.7517L61.8426 9.87597C61.75 9.44143 61.7397 8.97805 61.8128 8.5356C61.5955 7.78667 61.5543 6.95294 61.6955 6.16586C61.4229 5.74833 61.166 5.30934 60.9261 4.85074C60.6394 4.37646 60.4228 3.82004 60.2901 3.21664C60.2288 2.95122 60.2198 2.66574 60.2643 2.39315C60.3087 2.12062 60.4047 1.87202 60.5412 1.67611C60.6777 1.4802 60.8492 1.34497 61.0358 1.28596C61.2224 1.22695 61.4166 1.24655 61.596 1.34264C62.007 1.54958 62.3808 1.89036 62.6895 2.33945C63.3651 3.34191 63.9636 4.45035 64.4743 5.64486C65.2623 6.67356 65.6855 8.33823 64.921 9.51779C65.5235 10.8827 65.6 12.475 64.6431 13.0006C63.5568 13.5987 62.3854 11.8988 61.9463 10.3318L60.0194 10.2122C60.8849 12.7375 58.7869 14.6992 57.1425 11.2755C56.7982 10.5818 56.614 9.74473 56.617 8.88648ZM61.8766 1.99921C61.7102 1.82025 61.5085 1.72622 61.3023 1.7314C61.0961 1.73652 60.8967 1.84065 60.7346 2.02778C60.2249 2.85513 60.8736 4.03801 61.2271 4.69391C61.4212 5.05409 61.7526 5.58904 61.83 5.6947C62.2441 4.50983 63.0521 4.45335 63.7876 4.96969C63.2994 3.79386 62.6483 2.78183 61.8766 1.99921ZM62.8724 5.12253C62.054 5.20095 61.7494 6.78388 62.006 7.97074C62.4338 7.19456 63.3445 7.18526 64.0882 8.19668C64.3283 8.46961 64.5444 8.78547 64.7314 9.13701C65.5737 7.66439 64.2502 5.12852 62.8724 5.12253ZM62.1323 8.51168C62.2245 8.83451 62.3658 9.12212 62.5453 9.35238C62.7249 9.58271 62.9379 9.74964 63.1682 9.84042C63.3985 9.9312 63.6399 9.94336 63.8739 9.87604C64.1079 9.80872 64.3282 9.66365 64.5182 9.452C64.3803 9.19176 64.2245 8.953 64.0533 8.73961C63.1295 7.4338 62.3414 7.75344 62.1346 8.51168H62.1323ZM63.0376 11.8736C63.3262 12.3242 63.7157 12.6073 64.1348 12.671C64.3437 12.7022 64.5531 12.6185 64.7224 12.436C64.8917 12.2536 65.009 11.9855 65.0514 11.6835C65.0911 11.0216 64.962 10.3616 64.6893 9.83145C64.2903 10.2613 63.7915 10.4418 63.3021 10.3331C62.8128 10.2245 62.3726 9.83577 62.078 9.25197C62.1878 10.2586 62.5261 11.1813 63.0381 11.8702L63.0376 11.8736ZM57.8821 11.8736C58.1705 12.3243 58.5598 12.6074 58.9788 12.671C59.1878 12.7022 59.3972 12.6185 59.5667 12.4361C59.736 12.2537 59.8534 11.9855 59.8959 11.6835C60.0747 10.379 59.0037 8.47779 58.0731 7.94881C57.9667 7.87312 57.8503 7.83258 57.7321 7.82999C57.6139 7.82747 57.4967 7.86295 57.3888 7.93406C57.2809 8.0051 57.185 8.11003 57.1077 8.24141C57.0305 8.37279 56.9737 8.52736 56.9415 8.69442C56.8188 9.85471 57.3389 11.12 57.8825 11.8702L57.8821 11.8736Z" fill="black"/>
<path d="M66.6817 8.08427C68.3067 6.50201 69.269 7.03829 70.1091 9.37281C70.1996 9.62866 69.9394 9.85327 69.8448 9.59942C69.4994 8.66906 69.0409 7.57723 68.2194 7.63239C67.4689 7.76529 67.1425 8.17465 65.7941 9.47714C65.6294 9.63663 65.4773 9.24788 65.6398 9.08972C65.987 8.75413 66.3355 8.42186 66.6817 8.08427Z" fill="black"/>
<path d="M51.4556 85.5887C51.4225 85.5873 51.3905 85.5707 51.3645 85.5401C51.3385 85.5102 51.3197 85.469 51.3111 85.4219C51.3024 85.3747 51.3043 85.3248 51.3165 85.2796C51.3287 85.2345 51.3505 85.1966 51.3787 85.1707C54.1591 83.2741 57.2771 82.7172 60.2861 83.5811C61.1157 83.8223 61.9308 84.1606 62.7235 84.5925C62.7579 84.6091 62.7871 84.643 62.8062 84.6882C62.8254 84.7334 62.8332 84.7872 62.8283 84.8397C62.8234 84.8922 62.8062 84.9407 62.7795 84.9766C62.7528 85.0125 62.7185 85.0338 62.6823 85.0364C57.5589 85.6086 55.5194 85.3561 51.4556 85.5887ZM52.2305 85.1002C55.2369 84.954 59.2464 85.0085 61.9721 84.6782C58.7891 83.1644 55.3473 83.3133 52.2305 85.1002Z" fill="black"/>
<path d="M48.6515 33.2058C48.6709 33.4929 48.3649 33.4909 48.3459 33.2058L48.2418 31.6461C48.2228 31.3591 48.5288 31.3611 48.5478 31.6461L48.6515 33.2058Z" fill="black"/>
<path d="M61.8608 42.3804L63.0245 41.7252C63.2083 41.6215 63.288 42.0574 63.106 42.1578L61.9423 42.813C61.758 42.9167 61.6788 42.4827 61.8608 42.3804Z" fill="black"/>
<path d="M61.7769 38.7879C61.3254 38.9453 60.8946 39.2114 60.5023 39.5754C60.3357 39.7302 60.1823 39.3421 60.3479 39.1873C60.763 38.8033 61.2182 38.522 61.6954 38.3546C61.8869 38.2869 61.967 38.7201 61.7769 38.7879Z" fill="black"/>
<path d="M13.5641 21.4355C13.2843 21.6084 12.982 21.6893 12.6787 21.6722C12.3755 21.6553 12.0781 21.541 11.8078 21.3373C11.5381 21.1337 11.3013 20.8457 11.1153 20.4936C10.9293 20.1414 10.798 19.7337 10.7306 19.2991C10.4269 16.7432 12.413 14.852 13.6727 16.5964C14.6404 17.9321 14.764 20.6839 13.5641 21.4355ZM12.0935 16.4967C11.8735 16.6348 11.6761 16.8405 11.515 17.0999C11.3534 17.3593 11.2321 17.6665 11.1583 18.0007C11.0845 18.3349 11.0605 18.6883 11.0877 19.0373C11.1153 19.3863 11.1932 19.7226 11.3163 20.0237C11.4394 20.3248 11.6051 20.5837 11.802 20.7828C11.9993 20.9821 12.2229 21.1169 12.4587 21.1784C12.6941 21.2399 12.9358 21.2265 13.1676 21.1394C13.3993 21.0521 13.6157 20.8929 13.8022 20.6727C14.6554 19.2838 13.6971 15.6707 12.0935 16.4967Z" fill="black"/>
<path d="M18.143 37.0342C18.224 37.199 18.1919 36.9804 17.622 40.4845C17.6138 40.5365 17.5921 40.5818 17.5618 40.6105C17.531 40.6392 17.4939 40.6491 17.4586 40.638C16.8177 40.2947 16.1898 39.9009 15.5779 39.4585C15.4969 39.4248 15.4204 39.3708 15.3516 39.299C15.3004 39.2046 14.1996 32.8025 13.6107 29.4559C13.5754 29.2565 13.7655 29.0538 13.8665 29.2372C19.5208 39.5455 17.8424 36.4222 18.143 37.0342ZM15.5901 38.98L17.3708 40.1157L17.8718 37.2515L14.0815 30.3404L15.5901 38.98Z" fill="black"/>
<path d="M7.39147 84.344L10.7772 71.6978C9.72254 71.6812 9.06396 71.6586 8.85891 71.6533C8.81998 71.65 8.78287 71.6254 8.75616 71.5835C8.72946 71.5416 8.71407 71.4865 8.71407 71.4293C8.71407 71.3715 8.72946 71.3164 8.75616 71.2745C8.78287 71.2326 8.81998 71.208 8.85891 71.2047H18.2054C18.2443 71.208 18.2814 71.2326 18.3081 71.2745C18.3353 71.3164 18.3502 71.3715 18.3502 71.4293C18.3502 71.4865 18.3353 71.5416 18.3081 71.5835C18.2814 71.6254 18.2443 71.65 18.2054 71.6533C17.5758 71.6692 16.9738 71.6819 16.3989 71.6912L19.7805 84.344C19.8525 84.6098 19.5569 84.7294 19.4859 84.4629L16.0712 71.6965C14.0067 71.727 12.3265 71.7197 11.1026 71.7031L7.68613 84.4622C7.61507 84.7294 7.31904 84.6131 7.39147 84.344Z" fill="black"/>
<path d="M28.4409 9.66657C28.4993 9.39145 28.7944 9.50908 28.7356 9.78619L27.7706 14.323C27.7122 14.5974 27.417 14.4805 27.4759 14.2034L28.4409 9.66657Z" fill="black"/>
<path d="M23.2568 0.3039C23.2496 0.275657 23.2464 0.245552 23.2473 0.215448C23.2482 0.185278 23.2532 0.155708 23.2623 0.128462C23.2709 0.101216 23.2835 0.0768942 23.2985 0.0568252C23.3139 0.0368226 23.332 0.0215386 23.3514 0.0118363C23.3709 0.00220055 23.3917 -0.00158926 23.4121 0.000603717C23.4325 0.00286314 23.4524 0.0111048 23.4709 0.0249271C23.489 0.0386831 23.5053 0.057754 23.5185 0.0808799C23.5316 0.104072 23.5415 0.130855 23.5474 0.159696L26.0763 14.6732C26.0849 14.7295 26.0781 14.7884 26.0582 14.8377C26.0378 14.8871 26.0052 14.9232 25.9677 14.9385C25.9297 14.9538 25.8894 14.9471 25.8545 14.9199C25.8201 14.8926 25.7939 14.8469 25.7816 14.7921C25.2507 11.7452 23.3017 0.606929 23.2568 0.3039Z" fill="black"/>
<path d="M24.1888 15.5637L21.76 11.7093C21.6265 11.4974 21.8419 11.1777 21.9759 11.3917L24.4047 15.246C24.5383 15.458 24.3228 15.7763 24.1888 15.5637Z" fill="black"/>
<path d="M33.8273 85.582C36.6078 83.6854 39.726 83.1292 42.7352 83.9924C43.5646 84.2336 44.3795 84.5712 45.1721 85.0038C45.2063 85.0211 45.2354 85.055 45.2543 85.1002C45.2733 85.1454 45.281 85.1986 45.2762 85.251C45.2713 85.3035 45.2542 85.3521 45.2277 85.3879C45.2012 85.4238 45.167 85.4451 45.131 85.4484C39.9917 86.0226 38.0155 85.7647 33.9056 86C33.8726 85.9993 33.8404 85.9827 33.8142 85.9528C33.7879 85.9229 33.7689 85.881 33.7598 85.8338C33.7512 85.7867 33.7531 85.7368 33.7653 85.6916C33.777 85.6464 33.7992 85.6079 33.8273 85.582ZM34.6792 85.5115C37.6856 85.3653 41.695 85.4198 44.4212 85.0896C41.2378 83.5764 37.796 83.7253 34.6792 85.5115Z" fill="black"/>
<path d="M0.00813147 31.2627C0.0678793 30.5742 0.219965 29.9098 0.454882 29.3074C0.6898 28.7051 1.00302 28.1766 1.37735 27.7522C1.75168 27.3277 2.17897 27.0157 2.63523 26.8339C3.09148 26.6522 3.56765 26.6042 4.03658 26.6927C2.79093 22.946 5.19488 18.705 8.4009 19.8752C7.68573 15.3158 11.3041 11.4582 13.6343 15.0294C15.381 17.7062 16.27 23.4531 16.6045 27.124C19.3384 28.4856 21.0444 30.2879 23.3632 32.9208C22.4014 28.1959 21.5911 23.5335 22.1053 18.8399C22.1759 18.1939 22.2583 17.3932 22.7562 17.1785C22.9649 17.1108 23.1822 17.1372 23.3804 17.2543C23.5782 17.3713 23.7479 17.5735 23.8661 17.8344C24.1268 18.5321 24.2703 19.311 24.2843 20.1065C24.3409 20.8389 24.3681 21.5756 24.3662 22.3127L28.1779 17.7826C28.6722 17.1951 29.4 16.4163 30.0486 16.9512C30.6678 17.4616 30.685 18.679 30.3487 19.5768C30.1143 20.2018 29.8309 20.7844 29.5041 21.3126C30.2161 20.8149 31.2345 20.3005 31.9158 20.8827C32.1584 21.0976 32.3381 21.437 32.42 21.8352C32.5024 22.2334 32.4806 22.6622 32.3598 23.0384C32.0153 24.317 30.6189 25.4587 29.7657 25.981C30.375 25.9019 30.9806 25.7198 31.5939 25.7152C32.291 25.7085 33.208 25.9664 33.3388 27.1652C33.3882 27.6167 33.3429 28.0796 33.2085 28.4923C33.0745 28.9051 32.8581 29.2483 32.5884 29.4765C32.0932 29.7988 31.5591 29.9727 31.0177 29.9881C30.5058 30.0652 29.992 30.0985 29.4788 30.1337C30.1373 32.0158 30.6642 33.9909 31.0517 36.0288C31.3925 36.2513 31.7152 36.5293 32.0135 36.8575C32.6128 37.5552 32.4404 38.7109 31.5188 38.9009C31.8583 41.6661 32.0221 45.2187 31.1227 47.7067C33.2795 49.7342 34.3238 53.754 34.9525 57.399C35.9542 60.0498 42.6156 77.7338 42.6201 77.7458C42.64 77.7983 42.645 77.8608 42.6337 77.9186C42.6228 77.9771 42.5961 78.0262 42.5604 78.0555C42.444 78.1512 43.5666 77.4747 31.3753 83.8369C31.3427 83.8496 31.3083 83.8463 31.2775 83.8277C31.2463 83.809 31.22 83.7765 31.2028 83.7339C30.4017 81.8121 28.2127 76.8314 27.7891 75.8598C27.1355 75.6292 26.5167 75.4166 25.9473 75.2345C25.9156 75.2206 25.888 75.1913 25.8685 75.1528C25.8486 75.1136 25.8382 75.0664 25.8382 75.0179C25.8382 74.9694 25.8486 74.9222 25.8685 74.883C25.888 74.8444 25.9156 74.8152 25.9473 74.8012C26.366 74.677 26.7892 74.5846 27.2147 74.5255L26.5679 72.9718L25.6074 73.1047C25.5739 73.1047 25.5413 73.0887 25.5146 73.0588C25.4879 73.0289 25.4689 72.987 25.4598 72.9399L25.1516 70.3163C15.4489 70.3163 14.741 70.4186 13.1567 69.9175C10.6731 69.1281 8.41221 67.2448 6.67635 64.5195C4.9405 61.7949 3.81208 58.3573 3.44137 54.6657C3.12453 51.5424 3.40968 41.3896 4.08049 36.9651C1.74398 36.7133 -0.138975 33.9674 0.00813147 31.2627ZM29.1017 30.0367C29.0886 30.0024 29.0823 29.9638 29.0823 29.9246C29.0823 29.8855 29.0895 29.847 29.1031 29.813C29.1162 29.7791 29.1352 29.7507 29.1583 29.7308C29.1809 29.7108 29.2072 29.6999 29.2339 29.6991C29.6983 29.6758 30.1622 29.6326 30.6262 29.5888C31.1571 29.5586 31.684 29.4368 32.1959 29.2259C32.9731 28.879 33.3633 27.2722 32.7481 26.5525C31.7306 25.6314 30.2265 26.6349 28.8795 26.4428C28.8433 26.4409 28.8084 26.4202 28.7817 26.3845C28.755 26.3487 28.7373 26.3002 28.7324 26.2474C28.7278 26.1946 28.7355 26.141 28.755 26.0961C28.7745 26.0511 28.8043 26.0176 28.8387 26.0016C29.8051 25.5696 31.3309 24.4525 31.8981 23.3368C32.19 22.7626 32.3009 21.8183 31.8415 21.3432C31.0671 20.5457 29.4525 21.726 28.6731 22.5274C28.5318 22.6729 28.3562 22.342 28.4879 22.1752C29.023 21.497 29.4923 20.7144 29.8825 19.8493C30.2731 19.0844 30.4709 17.976 29.9423 17.3825C29.3774 16.8469 28.6663 17.7739 28.2535 18.2644L24.3155 22.9447C24.3006 22.9652 24.2834 22.9812 24.2644 22.9918C24.2454 23.0024 24.225 23.0074 24.2047 23.0065C24.1843 23.0055 24.1644 22.9987 24.1458 22.9864C24.1273 22.9742 24.1105 22.9565 24.0965 22.9347C24.0059 22.7925 24.1128 22.8856 24.0087 20.5763C23.9887 19.8906 23.9095 19.2114 23.7733 18.5548C23.5044 17.3586 22.6684 17.3101 22.5186 18.1215C22.4548 18.4659 22.4068 18.8163 22.3751 19.1701C21.9306 24.119 22.8232 28.7521 23.79 33.4617C23.8385 33.6976 23.6447 33.8066 23.5343 33.6803C23.274 33.3826 23.0129 33.0869 22.7508 32.7932C22.2565 34.9411 21.588 36.9938 20.7592 38.9069C22.1538 36.8548 23.0907 35.4074 24.7424 34.8831C26.739 34.2327 28.8252 34.5522 30.6873 35.7935C30.2912 33.8015 29.7603 31.8728 29.1017 30.0367ZM31.9986 38.0776C32.3711 37.3466 31.0716 36.5066 30.499 36.1537C28.7536 35.0124 26.8087 34.7051 24.9379 35.2752C23.566 35.6739 22.8594 36.5498 21.8528 37.9646C19.8159 40.8221 17.9714 43.9056 16.1292 46.9179C16.1124 46.9418 16.0925 46.9598 16.0704 46.9711C16.0482 46.9817 16.0246 46.985 16.0015 46.9804C15.9785 46.9764 15.9563 46.9638 15.9368 46.9451C15.9174 46.9265 15.9011 46.9013 15.8893 46.8721C15.4679 45.6599 15.051 44.4432 14.5662 43.2836C12.5479 47.1777 10.5785 50.5024 8.27461 54.2371C9.52117 56.1649 11.0063 57.7266 12.6507 58.8384C13.9647 59.6478 15.4023 59.9302 16.8149 59.6558C17.2671 59.6132 17.717 59.5255 18.1611 59.3933C19.5964 58.8895 20.9217 57.8595 22.0121 56.3995C24.4215 53.2868 24.6899 51.9624 26.7005 44.7243C25.8563 44.4179 25.0755 43.8145 24.4255 42.9659C24.2735 42.7825 24.4907 42.4668 24.6419 42.6489C24.9438 43.0211 25.2665 43.3547 25.6069 43.6457C26.2967 44.2332 27.092 44.499 27.8868 44.4073C27.967 44.39 28.0439 44.3475 28.1118 44.283C28.1802 44.2179 28.2381 44.1328 28.282 44.0325C28.3259 43.9321 28.3544 43.8198 28.3662 43.7015C28.378 43.5839 28.3725 43.4636 28.3499 43.3493C28.215 42.7254 27.9651 42.1683 27.6284 41.7392C27.2744 41.1604 26.925 40.5756 26.5665 40.0034C26.5416 39.9642 26.5271 39.9133 26.5253 39.8599C26.524 39.8064 26.5353 39.7538 26.5575 39.7115C26.5796 39.6691 26.6113 39.6397 26.6471 39.6285C26.6828 39.6174 26.72 39.6252 26.7521 39.6505C27.5103 40.2768 28.291 40.843 29.0904 41.3464C29.3421 41.5171 29.6155 41.6088 29.8925 41.6156C30.2998 41.6109 30.7588 41.0932 30.5845 40.438C30.4759 40.1178 30.3207 39.8367 30.1296 39.6146C29.4905 38.7363 28.7731 37.9886 27.9977 37.3918C27.8475 37.2748 27.9525 36.8927 28.1154 36.9811C30.4035 38.2151 30.7905 38.5188 31.3653 38.4736C31.4835 38.4757 31.6003 38.4417 31.7089 38.3739C31.8175 38.306 31.9153 38.2058 31.9963 38.0796L31.9986 38.0776ZM31.211 38.9175C30.5891 38.8036 29.9825 38.5494 29.4136 38.164C29.7472 38.5182 30.0645 38.9037 30.3641 39.3183C30.5705 39.5709 30.7394 39.8836 30.8593 40.2366C30.9032 40.4065 30.9222 40.5879 30.9159 40.7691C30.9091 40.9504 30.8769 41.1278 30.8213 41.2899C30.7656 41.4521 30.6877 41.5955 30.5922 41.711C30.4972 41.8266 30.3863 41.9117 30.2672 41.9611C29.7019 42.2708 29.0963 41.8442 28.5857 41.5079C28.1738 41.2361 27.771 40.9424 27.3686 40.638C27.8072 41.2518 28.1928 41.942 28.5174 42.6934C28.855 43.5627 28.6034 44.8073 27.8742 44.8618C27.5836 44.917 27.2885 44.9057 27.0001 44.8279C26.801 45.5536 26.5837 46.268 26.3737 46.987C28.248 46.1896 29.682 46.5019 30.8548 47.4728C31.7089 45.1084 31.5392 41.5644 31.2087 38.9195L31.211 38.9175ZM36.2805 78.2462C33.4601 75.6033 30.1038 74.473 26.7806 75.0471C29.7227 76.024 33.5869 77.5571 36.2796 78.2482L36.2805 78.2462ZM27.556 74.4823C30.9254 74.1919 34.2618 75.5874 37.021 78.4409C37.1686 78.5293 37.0894 78.9061 36.9305 78.8649C34.1282 78.1924 30.9132 76.9729 28.2159 76.0074C28.6482 77.0042 31.3042 83.1266 31.3979 83.3452L42.2662 77.7285C42.0435 77.1304 36.1103 61.3809 35.21 59.0032C35.8247 63.1007 36.2936 68.1552 36.5417 71.3868C36.5512 71.5151 36.4629 71.6008 36.3887 71.6108L26.9078 72.9199L27.556 74.4823ZM25.73 72.6362C26.0469 72.593 36.1271 71.1948 36.218 71.1815C35.9917 68.2881 35.6984 65.4392 35.3807 62.6262C34.7081 56.6753 33.4696 48.538 29.4629 47.1425C28.3789 46.8681 27.2649 46.9963 26.223 47.5153C25.2385 50.9669 24.794 53.2795 22.7562 56.0214C23.8349 56.5996 23.8679 56.5696 23.896 56.7172C24.168 59.2823 25.6802 72.2295 25.7291 72.6395L25.73 72.6362ZM13.9765 69.681C15.0442 69.8969 14.994 69.9043 25.0945 69.8538C24.4522 64.3461 23.6855 57.6143 23.6126 56.9405L22.5018 56.359C21.4336 57.8369 20.1581 58.9527 18.7649 59.6292C17.2314 60.2326 14.8591 60.4831 13.1762 59.6159C11.5702 58.7566 10.1028 57.4183 8.86621 55.6858C7.10319 55.6719 5.35602 55.1974 3.70616 54.2843C4.04247 58.1426 5.22702 61.7344 7.08056 64.5135C8.9341 67.2933 11.3552 69.1081 13.9756 69.683L13.9765 69.681ZM3.6695 53.7919C5.22385 54.6631 6.86601 55.1482 8.52854 55.2286C6.42831 52.2701 4.79882 48.667 3.75776 44.6764C3.59391 47.7094 3.56404 50.7549 3.66769 53.7939L3.6695 53.7919ZM3.86413 42.7293C3.81479 43.5175 3.63781 43.3115 4.44531 45.9935C5.33248 48.9202 6.55731 51.6002 8.06639 53.9142C9.89413 51.0015 12.4773 46.5983 14.3974 42.8795C12.8503 39.3349 11.2385 36.4541 8.88476 34.3302C8.84991 34.3002 8.82411 34.251 8.81369 34.1933C8.80374 34.1357 8.80917 34.0744 8.82999 34.0229C8.85036 33.9715 8.88386 33.934 8.92323 33.9189C8.96216 33.9037 9.00425 33.9121 9.03911 33.9421C10.9194 35.6425 12.5208 37.9308 13.7298 40.644C14.6287 42.4373 15.4068 44.3541 16.0536 46.3677C20.613 38.9062 19.3443 41.2986 20.2762 39.1947C20.57 38.5301 20.7963 37.8848 21.4911 36.0049C21.9134 34.8882 22.2384 33.698 22.4579 32.4622C19.9802 29.4714 17.0431 27.4132 13.9009 26.4661C9.67868 25.0839 6.73067 27.2071 4.87848 34.5668C4.32446 37.2209 3.98363 39.9611 3.86322 42.7313L3.86413 42.7293ZM4.14974 36.5106C4.37289 35.2808 4.65805 34.077 5.00296 32.9095C5.47144 31.2216 6.15492 29.6806 7.01719 28.3693C9.55738 24.6054 12.8711 25.3198 16.2817 26.9645C15.8612 22.7055 14.592 14.3429 11.7101 14.0811C9.70403 13.899 8.06323 17.1911 8.76798 20.1284C8.77477 20.1666 8.77432 20.2067 8.76753 20.2448C8.76029 20.2828 8.74671 20.3175 8.7277 20.3453C8.70869 20.3732 8.6847 20.3932 8.6589 20.4036C8.6331 20.4139 8.60548 20.4141 8.57968 20.4042C8.06956 20.1567 7.53002 20.0702 6.99546 20.1504C6.46135 20.2305 5.94445 20.4756 5.47914 20.8694C5.13785 21.1613 4.84046 21.5514 4.60464 22.0162C4.36837 22.4811 4.19908 23.0112 4.10584 23.5746C4.01305 24.1381 3.99856 24.7233 4.06329 25.2953C4.12802 25.8672 4.27105 26.4139 4.48333 26.9027C4.56209 27.0675 4.43174 27.2822 4.31043 27.235C3.61111 26.9999 2.87874 27.1037 2.22333 27.5311C1.56791 27.9584 1.02429 28.6863 0.673955 29.6054C-0.541824 32.7407 1.54302 36.2707 4.14884 36.5126L4.14974 36.5106Z" fill="black"/>
<path d="M16.9439 31.4714C17.8437 33.161 18.6634 34.939 19.3976 36.793C19.4076 36.8185 19.4144 36.8467 19.4171 36.8759C19.4198 36.9052 19.4184 36.9349 19.4135 36.9634C19.4085 36.9919 19.3994 37.0187 19.3872 37.0422C19.375 37.0657 19.3601 37.0854 19.3429 37.1003C19.3252 37.1152 19.3062 37.1249 19.2863 37.129C19.2664 37.133 19.246 37.1312 19.2265 37.1237C19.2071 37.1161 19.189 37.1031 19.1731 37.0852C19.1568 37.0674 19.1432 37.0451 19.1333 37.0196C18.3787 35.1846 17.5595 33.4084 16.6795 31.698C16.56 31.4687 16.8257 31.2448 16.9439 31.4714Z" fill="black"/>
<path d="M30.2936 48.8098C30.4692 48.9427 30.3148 49.3281 30.1397 49.1972L28.9013 48.2722C28.7261 48.1393 28.8804 47.7539 29.0556 47.8848L30.2936 48.8098Z" fill="black"/>
<path d="M14.9356 57.7279H16.9078C16.9467 57.7312 16.9838 57.7558 17.0105 57.7977C17.0377 57.8395 17.0526 57.8947 17.0526 57.9525C17.0526 58.0097 17.0377 58.0648 17.0105 58.1067C16.9838 58.1486 16.9467 58.1731 16.9078 58.1765H14.9356C14.8967 58.1731 14.8596 58.1486 14.8329 58.1067C14.8062 58.0648 14.7908 58.0097 14.7908 57.9525C14.7908 57.8947 14.8062 57.8395 14.8329 57.7977C14.8596 57.7558 14.8967 57.7312 14.9356 57.7279Z" fill="black"/>
<path d="M24.7605 23.8312C25.1566 24.7507 25.3919 25.7992 25.4463 26.884C25.9306 27.2231 26.3674 27.6919 26.7345 28.2663C26.8703 28.4776 26.653 28.7979 26.5186 28.5839C26.1338 28.0033 25.6816 27.5277 25.1837 27.1791C25.172 27.1591 25.1634 27.1353 25.1584 27.1096C25.1539 27.0839 25.1534 27.057 25.157 27.0309C25.109 25.9746 24.8818 24.9527 24.4966 24.0578C24.3776 23.8258 24.6428 23.6012 24.7605 23.8312Z" fill="black"/>
<path d="M25.2561 39.6884C24.8225 39.5683 24.3839 39.491 23.9435 39.4571C23.7479 39.4425 23.7466 38.992 23.9435 39.0086C24.4115 39.0448 24.8777 39.1272 25.338 39.2551C25.53 39.3089 25.4485 39.7449 25.2561 39.6884Z" fill="black"/>
<path d="M26.7449 37.0501C26.2945 36.939 25.8419 36.8612 25.387 36.8169C25.1919 36.7976 25.1905 36.3517 25.387 36.3677C25.8699 36.416 26.3502 36.4992 26.8286 36.6175C27.0201 36.6654 26.9377 37.098 26.7449 37.0501Z" fill="black"/>
<path d="M47.8954 61.5557L48.2848 62.0178C48.389 61.8404 48.8538 61.023 49.4181 60.0306C49.9957 59.0147 50.6777 57.8155 51.1838 56.9315L50.9611 56.5136L51.286 56.6259C51.3109 56.4747 51.2968 56.3233 51.2602 56.1944C51.2246 56.0688 51.1671 55.9615 51.0978 55.8806C51.0962 55.8787 51.0946 55.8769 51.093 55.875L51.0922 55.8765C51.0593 55.838 51.0234 55.8048 50.9852 55.7779C50.9216 55.733 50.8501 55.7046 50.7752 55.7006C50.7747 55.7006 50.7742 55.7006 50.7737 55.7005L50.3272 55.6753C49.5774 54.7571 48.1552 53.0143 46.8611 51.4286C45.9958 50.3682 45.1877 49.3781 44.6763 48.7516L44.55 48.0548L44.5473 48.0401L44.5472 48.0401C44.5264 47.9366 44.4915 47.8427 44.4477 47.7629C44.4233 47.7185 44.3958 47.6778 44.3659 47.6416C44.3656 47.6413 44.3654 47.6411 44.3652 47.6408C44.3415 47.6122 44.3162 47.5865 44.2897 47.5638C44.2382 47.5198 44.1808 47.4868 44.1201 47.469C44.1097 47.466 44.0992 47.4634 44.0887 47.4613C44.0161 47.4466 43.9388 47.4538 43.8643 47.4907L44.0145 48.0433L44.0243 48.0714L44.0213 48.0682L43.992 48.0372L44.0172 48.1187L44.0245 48.1422L43.9785 48.0844L43.6267 47.7732C43.6401 47.7391 43.6547 47.7121 43.6603 47.7025C43.6524 47.7159 43.6233 47.7672 43.6014 47.8414C43.5558 47.9956 43.5706 48.1417 43.574 48.1755C43.5741 48.1767 43.5742 48.1778 43.5743 48.1787C43.5822 48.2595 43.6035 48.382 43.634 48.5533C43.6391 48.5817 43.6446 48.6127 43.6507 48.6462C43.1166 49.5617 42.0615 51.3717 41.4521 52.4229C41.3145 52.4404 41.1779 52.4646 41.0425 52.4954C40.9675 52.5034 40.8915 52.5381 40.8241 52.606L41.0663 53.0913L41.1064 53.1407L41.1182 53.1552L41.3814 53.4795C41.4443 53.3695 41.5425 53.1991 41.6656 52.9865C42.7468 52.8909 43.8935 53.2264 44.9828 53.9649C45.2795 54.1749 45.5626 54.4357 45.8246 54.74L45.5889 55.1446L45.7318 55.346L45.8529 55.5165L45.8685 55.5364L46.0386 55.7522L46.2805 55.3394C46.8438 56.1822 47.291 57.1575 47.5883 58.1938C47.8215 59.0066 47.9574 59.8394 47.9915 60.6538C47.8247 60.9464 47.7067 61.1525 47.6608 61.2308L47.9206 61.5585L47.9119 61.5564L47.8917 61.5514L47.8954 61.5557ZM47.8954 61.5557L47.915 61.5598L47.923 61.5614" fill="white" stroke="black"/>
<path d="M47.9955 61.8576L47.7505 62.0901L47.5136 61.7983L41.0365 53.819L40.8478 53.5866L40.8897 53.2477C40.8902 53.2439 40.8907 53.2397 40.8912 53.2353C40.8951 53.2035 40.9008 53.1571 40.9076 53.1125L40.9641 52.7439L41.2234 52.695C42.5102 52.4518 43.9365 52.9123 45.2502 53.9613L45.2502 53.9613L45.2541 53.9645C45.479 54.1484 45.6947 54.3622 45.8972 54.6014L45.9097 54.5799L46.2041 54.9896L46.3634 55.196L46.357 55.207C46.932 56.0485 47.4 57.0154 47.7236 58.0396C48.0714 59.1405 48.2443 60.2824 48.2174 61.368L48.2108 61.6341L48.0668 61.7876C48.0428 61.8132 48.0157 61.8387 48.0017 61.8518C47.9992 61.8542 47.9971 61.8561 47.9955 61.8576Z" fill="white" stroke="black"/>
</svg>
