<svg width="80" height="98" viewBox="0 0 80 98" fill="none" xmlns="http://www.w3.org/2000/svg">
<path d="M1.47435 32.585C1.47435 7.29043 1.40105 8.13485 1.59966 7.14865C1.83606 6.24135 2.36306 5.43766 3.09917 4.86186C3.83528 4.28606 4.73949 3.97023 5.67197 3.9632H32.4333C33.0128 3.9429 33.5901 4.04323 34.1292 4.2579C34.6682 4.47257 35.1574 4.79694 35.566 5.21068C35.9745 5.62442 36.2937 6.1186 36.5035 6.66224C36.7133 7.20587 36.8091 7.78725 36.7851 8.3699V33.3147C36.7962 33.9102 36.6862 34.5016 36.4619 35.0528C36.2375 35.6039 35.9035 36.1031 35.4803 36.5197C35.0572 36.9363 34.5538 37.2615 34.0012 37.4753C33.4486 37.6891 32.8583 37.787 32.2667 37.763C3.86699 37.3767 5.66319 37.8065 4.96526 37.6842C4.02196 37.5046 3.16585 37.0118 2.53387 36.2849C1.9019 35.558 1.53059 34.6388 1.47937 33.6745C1.45681 33.3128 1.47435 32.9467 1.47435 32.585Z" fill="#FFD500"/>
<path d="M5.84671 38.8412H31.5555C32.7073 38.7455 33.8659 38.908 34.9478 39.317C36.0296 39.7259 37.0078 40.3711 37.8119 41.2062C38.6071 42.1496 39.2926 43.1813 39.8549 44.2813C39.8725 44.35 39.8324 44.1799 39.6438 44.1635H39.5116H31.07C30.4129 43.4239 29.7086 42.728 28.9618 42.0802C26.603 40.0152 24.2893 40.0712 22.8846 41.1948C22.5304 41.55 22.2079 41.9359 21.9211 42.348C21.8196 42.406 21.8697 42.3625 21.1693 42.6631C20.5763 42.8677 20.0172 43.1609 19.5109 43.5327C19.291 43.7257 19.0885 43.9378 18.9057 44.1666H4.81297C4.77311 44.1677 4.73414 44.1787 4.69953 44.1986C4.66492 44.2185 4.63577 44.2467 4.61466 44.2808C4.59356 44.3148 4.58117 44.3535 4.5786 44.3936C4.57604 44.4336 4.58337 44.4736 4.59995 44.5101C4.27417 43.9505 3.95277 43.3884 3.62135 42.832C3.37626 42.435 3.24152 41.9791 3.23118 41.5119C3.22083 41.0447 3.33526 40.5833 3.56254 40.1757C3.78982 39.7681 4.12163 39.4293 4.52338 39.1946C4.92513 38.9599 5.38212 38.8378 5.84671 38.8412Z" fill="#FFF0B3"/>
<path d="M4.81133 44.1635H18.904C18.7853 44.3122 18.6804 44.4717 18.5908 44.6398C17.9542 45.6582 18.8351 46.9532 20.2767 46.7156C20.04 46.9986 19.8355 47.3074 19.6671 47.6363C19.3249 48.203 19.1784 48.8676 19.2505 49.5267C19.2879 49.8085 19.4139 50.0709 19.61 50.2756C19.8061 50.4803 20.0621 50.6167 20.3406 50.6648C20.985 50.6381 21.5986 50.3804 22.0704 49.9382C22.4777 49.6365 22.849 49.2885 23.1768 48.901C24.4775 51.4273 26.1443 53.7451 28.1225 55.7785C28.1225 55.7785 16.3967 55.7785 16.2476 55.7785C14.8517 55.7787 13.4756 55.4467 12.2317 54.8096C10.9878 54.1725 9.91134 53.2484 9.09039 52.1129C8.48142 51.2553 5.16092 45.4332 4.60458 44.5201C4.58486 44.4837 4.57481 44.4427 4.57542 44.4012C4.57603 44.3597 4.58727 44.3191 4.60806 44.2832C4.62884 44.2473 4.65847 44.2175 4.69408 44.1965C4.72968 44.1755 4.77007 44.1641 4.81133 44.1635Z" fill="#FFC431"/>
<path d="M39.6449 44.1634C39.6886 44.167 39.7308 44.181 39.7681 44.2041C39.8054 44.2272 39.8368 44.2588 39.8598 44.2963C39.9049 44.3594 39.8003 44.1854 40.933 46.1289C40.745 46.2977 39.606 47.3627 39.559 47.4339C39.4018 47.5347 38.291 48.7421 37.4997 49.4378C37.1303 49.7671 36.6557 49.9522 36.1621 49.9596C34.3026 49.7138 34.3546 47.8347 31.0705 44.1621C42.4072 44.159 39.0171 44.1105 39.6449 44.1634Z" fill="#FFC431"/>
<path d="M18.8538 17.8803C19.4258 16.8317 20.8167 14.4888 20.9025 14.3439C20.9238 14.3085 20.9537 14.2793 20.9895 14.259C21.0253 14.2387 21.0657 14.228 21.1068 14.228C21.1478 14.228 21.1882 14.2387 21.224 14.259C21.2598 14.2793 21.2897 14.3085 21.311 14.3439C21.9991 15.5195 22.6818 16.6983 23.3591 17.8803C23.3798 17.9168 23.3906 17.9581 23.3905 18.0001C23.3904 18.0421 23.3793 18.0833 23.3584 18.1197C23.3375 18.1561 23.3074 18.1863 23.2712 18.2073C23.2351 18.2283 23.1941 18.2394 23.1523 18.2395H19.0562C19.0155 18.237 18.9761 18.2242 18.9415 18.2025C18.907 18.1808 18.8783 18.1507 18.8582 18.1151C18.8382 18.0794 18.8272 18.0392 18.8265 17.9982C18.8257 17.9572 18.8351 17.9167 18.8538 17.8803Z" fill="#2755A0"/>
<path d="M13.5468 17.8802C14.1188 16.8317 15.5096 14.4881 15.5948 14.3438C15.6162 14.3084 15.6462 14.2792 15.682 14.259C15.7179 14.2387 15.7583 14.228 15.7994 14.228C15.8405 14.228 15.8809 14.2387 15.9168 14.259C15.9526 14.2792 15.9826 14.3084 16.004 14.3438C16.6916 15.5197 17.3743 16.6985 18.052 17.8802C18.0723 17.9165 18.0829 17.9574 18.0828 17.9991C18.0826 18.0407 18.0717 18.0815 18.0511 18.1176C18.0305 18.1537 18.0009 18.1838 17.9653 18.2049C17.9296 18.2261 17.8891 18.2375 17.8478 18.2382H13.7535C13.7126 18.2364 13.6727 18.2243 13.6377 18.2029C13.6026 18.1816 13.5734 18.1517 13.5528 18.1161C13.5322 18.0804 13.5209 18.0402 13.5198 17.9989C13.5188 17.9577 13.528 17.9169 13.5468 17.8802Z" fill="#2755A0"/>
<path d="M19.1971 20.8993H22.3672C22.4296 20.9003 22.4893 20.9257 22.5334 20.9702C22.5775 21.0147 22.6026 21.0747 22.6034 21.1375V24.3255C22.6026 24.3883 22.5775 24.4483 22.5334 24.4928C22.4893 24.5373 22.4296 24.5627 22.3672 24.5637C18.984 24.5876 19.1093 24.5983 19.0191 24.478C18.9327 24.386 18.9364 24.541 18.9602 21.1381C18.9609 21.0751 18.986 21.0148 19.0303 20.9702C19.0745 20.9256 19.1344 20.9001 19.1971 20.8993Z" fill="#FF4848"/>
<path d="M11.9712 24.4384C12.5432 23.3898 13.934 21.0469 14.0199 20.9026C14.0411 20.8672 14.0711 20.838 14.1069 20.8177C14.1427 20.7974 14.183 20.7867 14.2241 20.7867C14.2652 20.7867 14.3056 20.7974 14.3414 20.8177C14.3771 20.838 14.4071 20.8672 14.4284 20.9026C15.0361 21.9304 16.3937 24.2928 16.4764 24.4384C16.4967 24.4747 16.5073 24.5157 16.5071 24.5573C16.5069 24.5989 16.496 24.6398 16.4754 24.6759C16.4548 24.7121 16.4253 24.7422 16.3897 24.7634C16.354 24.7846 16.3136 24.7962 16.2722 24.797H12.1754C12.1347 24.7945 12.0953 24.7819 12.0607 24.7603C12.026 24.7387 11.9973 24.7087 11.977 24.6732C11.9567 24.6376 11.9456 24.5975 11.9446 24.5565C11.9436 24.5155 11.9527 24.4749 11.9712 24.4384Z" fill="#2755A0"/>
<path d="M24.1222 20.787L27.3374 24.0204C27.3775 24.0659 27.3988 24.1251 27.397 24.1859C27.3952 24.2467 27.3703 24.3045 27.3275 24.3475C27.2848 24.3906 27.2273 24.4155 27.1669 24.4174C27.1064 24.4192 27.0475 24.3978 27.0022 24.3575C25.9125 23.2976 24.841 22.2196 23.7876 21.1235C23.7466 21.0782 23.7245 21.0188 23.7259 20.9575C23.7273 20.8963 23.7521 20.8379 23.7952 20.7946C23.8383 20.7513 23.8963 20.7263 23.9572 20.7249C24.0181 20.7235 24.0772 20.7457 24.1222 20.787Z" fill="black"/>
<path d="M24.1224 8.4045L27.3376 11.6385C27.3808 11.6834 27.4047 11.7436 27.4041 11.8061C27.4035 11.8686 27.3786 11.9284 27.3346 11.9725C27.2906 12.0167 27.2312 12.0417 27.169 12.0421C27.1069 12.0426 27.0471 12.0185 27.0025 11.975C25.9128 10.9159 24.8412 9.8379 23.7878 8.741C23.7468 8.69572 23.7247 8.63628 23.7261 8.57503C23.7275 8.51378 23.7523 8.45543 23.7954 8.41211C23.8385 8.36879 23.8965 8.34383 23.9574 8.34241C24.0183 8.34099 24.0774 8.36323 24.1224 8.4045Z" fill="black"/>
<path d="M24.1222 14.6204C25.2119 15.6799 26.2836 16.7577 27.3374 17.8538C27.3775 17.8993 27.3988 17.9586 27.397 18.0194C27.3952 18.0802 27.3703 18.138 27.3275 18.181C27.2848 18.224 27.2273 18.249 27.1669 18.2508C27.1064 18.2527 27.0475 18.2312 27.0022 18.1909C25.9125 17.131 24.841 16.053 23.7876 14.9569C23.7466 14.9117 23.7245 14.8522 23.7259 14.791C23.7273 14.7297 23.7521 14.6714 23.7952 14.6281C23.8383 14.5847 23.8963 14.5598 23.9572 14.5584C24.0181 14.5569 24.0772 14.5792 24.1222 14.6204Z" fill="black"/>
<path d="M33.4218 8.62176V12.0379C33.4186 12.0988 33.3924 12.1563 33.3483 12.1983C33.3043 12.2404 33.2459 12.2638 33.1852 12.2638C33.1245 12.2638 33.0662 12.2404 33.0221 12.1983C32.9781 12.1563 32.9519 12.0988 32.9487 12.0379V8.62176C32.9519 8.56079 32.9781 8.50335 33.0221 8.4613C33.0662 8.41926 33.1245 8.39581 33.1852 8.39581C33.2459 8.39581 33.3043 8.41926 33.3483 8.4613C33.3924 8.50335 33.4186 8.56079 33.4218 8.62176Z" fill="#FF4848"/>
<path d="M33.4218 14.9072V18.3233C33.4186 18.3843 33.3924 18.4417 33.3483 18.4838C33.3043 18.5258 33.2459 18.5493 33.1852 18.5493C33.1245 18.5493 33.0662 18.5258 33.0221 18.4838C32.9781 18.4417 32.9519 18.3843 32.9487 18.3233V14.9072C32.9519 14.8463 32.9781 14.7888 33.0221 14.7468C33.0662 14.7047 33.1245 14.6813 33.1852 14.6813C33.2459 14.6813 33.3043 14.7047 33.3483 14.7468C33.3924 14.7888 33.4186 14.8463 33.4218 14.9072Z" fill="#FF4848"/>
<path d="M33.4218 21.1243V24.541C33.4186 24.602 33.3924 24.6594 33.3483 24.7014C33.3043 24.7435 33.2459 24.7669 33.1852 24.7669C33.1245 24.7669 33.0662 24.7435 33.0221 24.7014C32.9781 24.6594 32.9519 24.602 32.9487 24.541V21.1243C32.9519 21.0633 32.9781 21.0059 33.0221 20.9638C33.0662 20.9218 33.1245 20.8983 33.1852 20.8983C33.2459 20.8983 33.3043 20.9218 33.3483 20.9638C33.3924 21.0059 33.4186 21.0633 33.4218 21.1243Z" fill="#FF4848"/>
<path d="M33.4218 27.3187V30.7348C33.4186 30.7957 33.3924 30.8532 33.3483 30.8952C33.3043 30.9373 33.2459 30.9607 33.1852 30.9607C33.1245 30.9607 33.0662 30.9373 33.0221 30.8952C32.9781 30.8532 32.9519 30.7957 32.9487 30.7348V27.3187C32.9519 27.2577 32.9781 27.2003 33.0221 27.1582C33.0662 27.1162 33.1245 27.0927 33.1852 27.0927C33.2459 27.0927 33.3043 27.1162 33.3483 27.1582C33.3924 27.2003 33.4186 27.2577 33.4218 27.3187Z" fill="#FF4848"/>
<path d="M22.3066 60.3296C22.9695 60.404 37.2802 61.9189 38.9718 62.089C36.1243 66.4371 33.1352 70.9831 30.8115 74.5744H22.3066C22.2442 74.5737 22.1845 74.5485 22.1403 74.504C22.0962 74.4596 22.0711 74.3996 22.0704 74.3368C21.9877 64.2322 22.0153 61.5068 22.051 60.7594C22.0617 60.5395 22.0867 60.288 22.3066 60.3296Z" fill="#2755A0"/>
<path d="M47.3973 68.2701C47.5151 68.6968 47.6592 69.1177 47.7732 69.5412C47.9619 70.3237 48.257 71.0763 48.6504 71.7776C49.1805 72.6344 49.9197 73.3406 50.7975 73.8292C51.6754 74.3178 52.6629 74.5725 53.6662 74.5692C53.5609 74.5799 54.606 74.5742 45.3837 74.5742C45.8937 72.7203 46.6061 70.4795 47.3973 68.2701Z" fill="#2755A0"/>
<path d="M15.9521 60.0989C18.3434 62.8481 19.9079 66.2248 20.4629 69.8348C20.701 71.4524 20.6841 73.198 19.6485 74.5484C19.619 74.5774 19.5826 74.5982 19.5428 74.6088C19.503 74.6194 19.4611 74.6195 19.4213 74.6089C19.3815 74.5984 19.345 74.5776 19.3155 74.5487C19.2861 74.5198 19.2646 74.4836 19.2531 74.4438C19.1278 73.975 15.5567 60.339 15.5567 60.3283C15.4991 60.1121 15.791 59.913 15.9521 60.0989Z" fill="black"/>
<path d="M27.0314 79.5954C29.1051 77.8618 31.8762 77.4025 34.4994 77.4346C37.5282 77.4742 40.5235 78.0787 43.3332 79.2173C43.3866 79.2343 43.4324 79.2698 43.4624 79.3174C43.4924 79.365 43.5047 79.4217 43.4973 79.4776C43.4898 79.5335 43.4629 79.5849 43.4214 79.6228C43.38 79.6607 43.3265 79.6827 43.2705 79.6849C42.7374 79.6994 27.2087 80 27.1993 80C27.1533 79.9986 27.1088 79.9839 27.0709 79.9576C27.033 79.9314 27.0035 79.8948 26.9858 79.8521C26.968 79.8094 26.9629 79.7625 26.971 79.717C26.9791 79.6715 27.0001 79.6293 27.0314 79.5954Z" fill="black"/>
<path d="M39.5662 47.422C41.2578 45.764 44.6591 42.4985 47.0261 42.5697C47.7606 42.5547 48.4868 42.7282 49.1361 43.0739C51.8546 44.5132 55.3762 48.0225 57.5658 52.9674C58.4956 55.0556 59.1998 57.2381 59.6665 59.4775C60.0903 61.8973 60.2685 64.3541 60.1984 66.8101C60.2163 67.0328 60.2163 67.2566 60.1984 67.4793C60.1747 66.0416 59.99 64.6111 59.6477 63.215C58.7819 59.5947 57.7319 57.5612 56.0321 55.401C54.3324 53.2409 51.7537 51.6787 49.0278 52.0814C47.2159 52.3486 45.9622 53.4885 44.6923 54.7721C43.2144 52.445 41.8442 49.6968 39.882 47.4421C39.8392 47.4002 39.7823 47.376 39.7225 47.3745C39.6628 47.373 39.6047 47.3942 39.5599 47.4339L39.5662 47.422Z" fill="#FF4848"/>
<path d="M19.7158 46.7283C19.4774 46.7197 19.2454 46.6487 19.0428 46.5222C18.8401 46.3957 18.6739 46.2182 18.5604 46.0072C18.447 45.7962 18.3903 45.559 18.396 45.3192C18.4018 45.0794 18.4697 44.8452 18.5931 44.6399C18.8307 44.2183 19.1409 43.8423 19.509 43.5296C20.2454 43.0263 21.0502 42.6328 21.8985 42.3613C22.3371 41.866 22.6955 41.0272 23.9347 40.6246C24.7483 40.3567 25.625 40.3531 26.4407 40.6145C27.3686 40.9277 28.2239 41.4263 28.9555 42.0802C30.5098 43.4463 31.8923 44.9984 33.0723 46.7018C34.2997 48.4662 34.7244 49.7707 36.1554 49.9597C36.6489 49.952 37.1233 49.7669 37.493 49.438C38.1596 48.8525 39.4533 47.4977 39.5523 47.434C39.5971 47.3943 39.6552 47.3731 39.7149 47.3746C39.7747 47.3761 39.8316 47.4003 39.8744 47.4422C41.841 49.702 43.1911 52.4205 44.6847 54.7722C43.7668 55.724 42.9044 56.7282 42.1016 57.78C38.174 59.5974 33.385 59.5444 29.7381 57.0868C26.9632 55.2165 24.7855 51.8496 23.1729 48.9042C22.8452 49.2918 22.4739 49.6399 22.0664 49.9414C21.5945 50.3835 20.981 50.6413 20.3366 50.668C20.058 50.6201 19.8019 50.4838 19.6058 50.279C19.4097 50.0743 19.2838 49.8118 19.2465 49.53C19.1745 48.8708 19.3209 48.2062 19.6632 47.6395C20.3392 46.3313 20.5973 46.8272 19.7158 46.7283Z" fill="#FC9070"/>
<path d="M25.4909 42.1792C24.7162 42.0572 23.9231 42.181 23.2216 42.5333C22.9378 42.6455 22.8144 42.1855 23.0963 42.0746C23.8777 41.6901 24.7606 41.566 25.6168 41.7204C25.9163 41.7715 25.7891 42.2296 25.4909 42.1792Z" fill="#FF4848"/>
<path d="M23.6818 45.4554C23.0944 45.5921 22.5306 45.8161 22.009 46.1203C21.955 46.15 21.8915 46.1573 21.8322 46.1408C21.7728 46.1242 21.7222 46.0851 21.6911 46.0317C21.66 45.9782 21.6507 45.9147 21.6654 45.8545C21.6801 45.7943 21.7175 45.7423 21.7697 45.7094C22.3219 45.3742 22.9254 45.1331 23.5558 44.9961C23.8528 44.9299 23.98 45.3893 23.6818 45.4554Z" fill="#FF4848"/>
<path d="M29.9698 75.8641C30.2555 75.4381 38.8662 62.2388 38.9708 62.0888C40.6571 59.5611 42.524 57.1601 44.5568 54.905C46.1318 53.2874 47.6123 51.9968 49.8734 52.0126C52.3412 52.0302 54.5264 53.4891 56.0307 55.3978C57.6521 57.4102 58.8078 59.7604 59.4138 62.2779C60.2026 65.2321 60.7765 69.2783 59.2334 71.9042C58.8219 72.5889 58.2638 73.1728 57.5998 73.6134C56.9358 74.054 56.1826 74.3402 55.3948 74.4513C52.9451 74.8231 51.355 74.3215 50.1133 73.38C48.7839 72.3718 48.2162 71.2022 47.7752 69.536C47.6624 69.1126 47.5183 68.6916 47.3993 68.265C46.0679 71.976 45.4677 74.2603 44.9922 76.0424C44.9785 76.0927 44.9488 76.1371 44.9076 76.1687C44.8664 76.2004 44.816 76.2175 44.7642 76.2176H30.174C30.1333 76.2166 30.0935 76.205 30.0584 76.1841C30.0234 76.1632 29.9942 76.1337 29.9737 76.0982C29.9532 76.0628 29.9421 76.0227 29.9414 75.9817C29.9407 75.9407 29.9505 75.9002 29.9698 75.8641Z" fill="#2755A0"/>
<path d="M37.4685 57.6648H35.2337C35.1731 57.6617 35.116 57.6352 35.0742 57.591C35.0324 57.5467 35.0091 57.488 35.0091 57.4269C35.0091 57.3659 35.0324 57.3071 35.0742 57.2629C35.116 57.2186 35.1731 57.1922 35.2337 57.189H37.4685C37.5291 57.1922 37.5862 57.2186 37.628 57.2629C37.6698 57.3071 37.6931 57.3659 37.6931 57.4269C37.6931 57.488 37.6698 57.5467 37.628 57.591C37.5862 57.6352 37.5291 57.6617 37.4685 57.6648Z" fill="#FF4848"/>
<path d="M44.2066 37.2456C44.4637 36.9581 44.791 36.7433 45.1562 36.6224C45.5213 36.5014 45.9115 36.4786 46.2881 36.5562C46.6647 36.6338 47.0145 36.809 47.303 37.0646C47.5914 37.3202 47.8084 37.6472 47.9325 38.0131C48.01 38.2745 48.0329 38.5492 47.9995 38.8198C47.9662 39.0905 47.8775 39.3513 47.7389 39.5857C47.6003 39.8202 47.4149 40.0232 47.1944 40.1819C46.9738 40.3406 46.723 40.4516 46.4577 40.5079C46.0301 40.5816 45.5905 40.534 45.1882 40.3705C44.786 40.207 44.437 39.934 44.1803 39.5822C43.9163 39.2493 43.7748 38.835 43.7796 38.4092C43.7844 37.9834 43.9352 37.5724 44.2066 37.2456Z" fill="#FC9070"/>
<path d="M41.9833 32.9264C42.0698 31.7461 43.4794 31.346 44.5382 31.9018C45.5459 32.5437 46.3502 33.462 46.8563 34.5484C47.1069 35.004 47.3895 35.4401 47.6438 35.8932C47.6641 35.9294 47.6747 35.9704 47.6746 36.012C47.6744 36.0536 47.6635 36.0945 47.6429 36.1306C47.6223 36.1667 47.5927 36.1968 47.5571 36.2179C47.5214 36.239 47.4809 36.2505 47.4396 36.2511C46.7504 36.2139 46.0613 36.1572 45.3784 36.0703C44.8408 36.0105 44.3149 35.8712 43.8177 35.6569C43.2837 35.4268 42.8268 35.047 42.5015 34.5628C42.1763 34.0787 41.9964 33.5106 41.9833 32.9264Z" fill="black"/>
<path d="M30.7444 22.818L28.333 20.9408C28.2888 20.8959 28.264 20.8354 28.264 20.7722C28.264 20.7091 28.2888 20.6485 28.333 20.6037C28.3779 20.5601 28.4379 20.5358 28.5003 20.5358C28.5627 20.5358 28.6226 20.5601 28.6676 20.6037C28.6676 20.6037 31.2062 22.5685 31.2889 22.6441C31.4768 22.8451 31.2826 22.9957 31.1379 23.1085L28.6644 25.0318C28.6192 25.0747 28.5593 25.0986 28.4971 25.0986C28.4349 25.0986 28.3751 25.0747 28.3299 25.0318C28.2856 24.9871 28.2607 24.9266 28.2607 24.8635C28.2607 24.8004 28.2856 24.7399 28.3299 24.6953C29.1376 24.0693 29.9425 23.4436 30.7444 22.818Z" fill="black"/>
<path d="M30.7444 16.6143L28.333 14.7371C28.2887 14.6924 28.2638 14.6319 28.2638 14.5688C28.2638 14.5058 28.2887 14.4452 28.333 14.4006C28.3779 14.3569 28.4378 14.3325 28.5003 14.3325C28.5627 14.3325 28.6227 14.3569 28.6676 14.4006C29.4532 15.0118 31.2062 16.3654 31.2889 16.4404C31.4768 16.6414 31.2826 16.7927 31.1379 16.9055L28.6644 18.8281C28.6193 18.8713 28.5594 18.8954 28.4971 18.8954C28.4349 18.8954 28.375 18.8713 28.3299 18.8281C28.2856 18.7834 28.2607 18.7229 28.2607 18.6598C28.2607 18.5967 28.2856 18.5362 28.3299 18.4916L30.7444 16.6143Z" fill="black"/>
<path d="M30.7444 10.2687L28.333 8.39145C28.2887 8.34679 28.2638 8.28628 28.2638 8.2232C28.2638 8.16011 28.2887 8.0996 28.333 8.05494C28.3779 8.01143 28.4379 7.98712 28.5003 7.98712C28.5627 7.98712 28.6226 8.01143 28.6676 8.05494C29.4532 8.6662 31.2062 10.0198 31.2889 10.0954C31.4768 10.2958 31.2826 10.447 31.1379 10.5598L28.6644 12.4831C28.6191 12.5262 28.559 12.5503 28.4965 12.5503C28.4341 12.5503 28.374 12.5262 28.3286 12.4831C28.3066 12.461 28.2891 12.4348 28.2772 12.4059C28.2653 12.377 28.2592 12.3461 28.2592 12.3148C28.2592 12.2836 28.2653 12.2526 28.2772 12.2237C28.2891 12.1949 28.3066 12.1686 28.3286 12.1466L30.7444 10.2687Z" fill="black"/>
<path d="M6.6119 22.5245L9.08223 20.6012C9.12746 20.5583 9.18731 20.5344 9.24951 20.5344C9.31171 20.5344 9.37155 20.5583 9.41679 20.6012C9.46113 20.646 9.48602 20.7066 9.48602 20.7698C9.48602 20.833 9.46113 20.8936 9.41679 20.9384L7.00472 22.815L9.41679 24.6928C9.46109 24.7375 9.48597 24.798 9.48597 24.8611C9.48597 24.9242 9.46109 24.9847 9.41679 25.0293C9.37184 25.0729 9.31189 25.0972 9.24951 25.0972C9.18713 25.0972 9.12717 25.0729 9.08223 25.0293C9.08223 25.0293 6.54361 23.0645 6.46091 22.9889C6.27547 22.7904 6.46718 22.6398 6.6119 22.5245Z" fill="black"/>
<path d="M8.8548 16.7861C8.66685 16.5851 8.86107 16.4338 9.00579 16.3216L11.4761 14.3984C11.5214 14.3555 11.5812 14.3315 11.6434 14.3315C11.7056 14.3315 11.7654 14.3555 11.8107 14.3984C11.855 14.4431 11.8799 14.5036 11.8799 14.5667C11.8799 14.6297 11.855 14.6903 11.8107 14.7349L9.39924 16.6121L11.8119 18.4913C11.8563 18.536 11.8812 18.5967 11.8812 18.6598C11.8812 18.723 11.8563 18.7837 11.8119 18.8284C11.7669 18.8718 11.707 18.896 11.6447 18.896C11.5823 18.896 11.5224 18.8718 11.4774 18.8284C10.6905 18.2146 8.9375 16.8617 8.8548 16.7861Z" fill="black"/>
<path d="M14.4794 10.2685L16.8915 12.1457C16.9357 12.1905 16.9605 12.2511 16.9605 12.3143C16.9605 12.3774 16.9357 12.438 16.8915 12.4828C16.8465 12.5262 16.7866 12.5504 16.7242 12.5504C16.6619 12.5504 16.602 12.5262 16.557 12.4828C15.7713 11.8709 14.0183 10.518 13.9356 10.4424C13.7477 10.2414 13.9419 10.0901 14.0866 9.97732L16.557 8.05471C16.6021 8.01163 16.662 7.98761 16.7242 7.98761C16.7865 7.98761 16.8463 8.01163 16.8915 8.05471C16.9358 8.09937 16.9607 8.15987 16.9607 8.22296C16.9607 8.28605 16.9358 8.34656 16.8915 8.39121L14.4794 10.2685Z" fill="black"/>
<path d="M19.9452 8.25646C20.3446 8.10914 20.7803 8.09377 21.189 8.21258C21.5977 8.3314 21.9581 8.57821 22.2178 8.91715C22.4775 9.25609 22.6229 9.66949 22.633 10.0973C22.6431 10.5251 22.5173 10.9449 22.2738 11.2959C22.0304 11.6468 21.6821 11.9105 21.2794 12.0487C20.8768 12.1868 20.4408 12.1923 20.0349 12.0641C19.629 11.936 19.2743 11.681 19.0224 11.3362C18.7704 10.9915 18.6343 10.5748 18.6339 10.1469C18.6332 9.73458 18.7587 9.33199 18.9933 8.9938C19.2279 8.6556 19.5602 8.39818 19.9452 8.25646Z" fill="#CCEAFF"/>
<path d="M36.7709 1.47724C38.0692 2.2368 39.1089 3.3733 39.7538 4.73768C39.8866 5.01179 39.4781 5.25378 39.3453 4.97777C38.72 3.69845 37.7439 2.62574 36.5322 1.88621C36.4812 1.85286 36.4449 1.80101 36.4308 1.74144C36.4168 1.68186 36.4261 1.61913 36.4568 1.56627C36.4875 1.5134 36.5373 1.47446 36.5958 1.45753C36.6543 1.4406 36.717 1.44698 36.7709 1.47534V1.47724Z" fill="black"/>
<path d="M37.1626 0.0279465C38.9147 0.851488 40.3123 2.28362 41.0983 4.06096C41.2236 4.33886 40.8126 4.58147 40.6899 4.30168C39.9412 2.59637 38.6032 1.22192 36.9239 0.433139C36.6476 0.306478 36.8882 -0.104387 37.1626 0.0279465Z" fill="black"/>
<path d="M62.3451 56.6047C63.1538 59.3574 63.4347 62.2397 63.1727 65.0979C63.1464 65.4004 62.6715 65.4036 62.6997 65.0979C62.9102 62.2825 62.6347 59.4516 61.8852 56.7307C61.8695 56.6701 61.8782 56.6057 61.9094 56.5514C61.9405 56.4972 61.9917 56.4575 62.0518 56.4409C62.1118 56.4243 62.176 56.4322 62.2303 56.4629C62.2846 56.4935 62.3247 56.5445 62.342 56.6047H62.3451Z" fill="black"/>
<path d="M63.8566 56.4932C65.0382 59.4889 65.1528 61.9793 64.8715 65.098C64.8446 65.4005 64.3703 65.4036 64.3985 65.098C64.7412 61.2931 64.3421 59.0188 63.3998 56.6198C63.2877 56.3344 63.745 56.2109 63.8566 56.4932Z" fill="black"/>
<path d="M0.688786 44.5402L4.32755 47.4056C4.56751 47.5946 4.23045 47.9292 3.993 47.7427L0.354228 44.8767C0.114274 44.6877 0.451339 44.3531 0.688786 44.5402Z" fill="black"/>
<path d="M3.97068 50.1405C4.2075 49.9515 4.54519 50.2886 4.30524 50.477L1.05741 53.0317C0.819966 53.2207 0.482906 52.8842 0.722859 52.6952C1.80642 51.8449 2.88902 50.9933 3.97068 50.1405Z" fill="black"/>
<path d="M36.7838 8.36983V33.3147C36.7896 33.9086 36.6759 34.4976 36.4497 35.0463C36.2234 35.595 35.8892 36.092 35.4672 36.5075C35.0452 36.9229 34.544 37.2483 33.9938 37.4641C33.4436 37.6798 32.8557 37.7815 32.2654 37.763C8.33961 37.8014 5.66128 37.8064 4.96335 37.6842C4.02051 37.5036 3.16495 37.0107 2.53323 36.2839C1.90151 35.5571 1.53003 34.6384 1.47808 33.6745C1.46618 33.4754 1.36092 30.501 1.47056 8.80842C1.45793 8.25235 1.49989 7.69637 1.59586 7.14859C1.83227 6.24129 2.35927 5.4376 3.09538 4.8618C3.83149 4.286 4.73569 3.97017 5.66818 3.96314H32.432C33.0115 3.94284 33.5888 4.04317 34.1279 4.25784C34.6669 4.4725 35.1561 4.79688 35.5647 5.21062C35.9733 5.62436 36.2924 6.11854 36.5022 6.66218C36.712 7.20581 36.8079 7.78719 36.7838 8.36983ZM32.5862 4.43954H5.66755C4.72534 4.44773 3.82054 4.81154 3.13237 5.45891C2.44419 6.10628 2.02283 6.98999 1.95172 7.93502C1.9323 8.2501 1.93355 33.5403 1.96989 33.8919C2.08255 34.8289 2.53283 35.6919 3.23549 36.3175C3.93815 36.943 4.84444 37.2878 5.78283 37.2865H32.2986C32.8049 37.3071 33.3103 37.2271 33.7858 37.0511C34.2614 36.8751 34.6978 36.6066 35.0701 36.2609C35.4425 35.9152 35.7435 35.4992 35.9559 35.0365C36.1684 34.5737 36.2881 34.0735 36.3083 33.5642C36.312 33.4489 36.3083 33.3329 36.3083 33.2176V8.33707C36.3261 7.83308 36.2432 7.33062 36.0642 6.85953C35.8853 6.38843 35.6141 5.9583 35.2666 5.59469C34.9192 5.23108 34.5027 4.9414 34.0418 4.74286C33.5809 4.54431 33.085 4.44095 32.5837 4.4389L32.5862 4.43954Z" fill="black"/>
<path d="M23.2665 18.2072C23.1875 18.2526 23.4914 18.3547 19.0569 18.2381C19.0161 18.2362 18.9764 18.224 18.9414 18.2025C18.9065 18.1811 18.8775 18.1512 18.8571 18.1156C18.8367 18.0799 18.8255 18.0396 18.8247 17.9985C18.8238 17.9574 18.8332 17.9167 18.8521 17.8802C19.4247 16.8316 20.8162 14.4893 20.9008 14.3437C20.9336 14.2894 20.9866 14.2503 21.048 14.2352C21.1094 14.2201 21.1743 14.2301 21.2284 14.2631C21.308 14.311 21.152 14.074 23.3586 17.8802C23.374 17.9077 23.3838 17.938 23.3876 17.9694C23.3913 18.0008 23.3888 18.0326 23.3802 18.063C23.3716 18.0934 23.3572 18.1218 23.3377 18.1466C23.3181 18.1713 23.2939 18.1919 23.2665 18.2072ZM21.105 14.9367L19.4686 17.7623H22.7414L21.105 14.9367Z" fill="black"/>
<path d="M17.961 18.2073C17.8821 18.2526 18.1853 18.3547 13.7509 18.2381C13.71 18.2363 13.6703 18.2241 13.6353 18.2027C13.6004 18.1812 13.5714 18.1513 13.551 18.1156C13.5307 18.0799 13.5196 18.0396 13.5188 17.9985C13.518 17.9573 13.5276 17.9167 13.5466 17.8802C14.1193 16.8316 15.5107 14.4893 15.5947 14.3438C15.611 14.3168 15.6324 14.2933 15.6577 14.2746C15.683 14.2559 15.7117 14.2424 15.7422 14.2349C15.7727 14.2275 15.8044 14.2261 15.8354 14.2309C15.8664 14.2358 15.8962 14.2467 15.923 14.2631C16.0113 14.3167 15.8691 14.1251 18.0531 17.8802C18.0685 17.9078 18.0782 17.9381 18.0819 17.9694C18.0856 18.0008 18.0831 18.0326 18.0745 18.063C18.066 18.0933 18.0515 18.1217 18.0321 18.1465C18.0126 18.1712 17.9884 18.1919 17.961 18.2073ZM15.7989 14.9367L14.1625 17.7624H17.4354L15.7989 14.9367Z" fill="black"/>
<path d="M19.1957 20.8992H22.3659C22.4283 20.9002 22.4879 20.9256 22.532 20.9701C22.5761 21.0146 22.6012 21.0746 22.6021 21.1374V24.3254C22.6012 24.3882 22.5761 24.4482 22.532 24.4927C22.4879 24.5372 22.4283 24.5626 22.3659 24.5636C18.806 24.5888 19.1418 24.5894 19.0291 24.4924C18.9282 24.384 18.9351 24.592 18.9589 21.1374C18.9597 21.0745 18.9849 21.0144 19.0292 20.9699C19.0734 20.9254 19.1332 20.9 19.1957 20.8992ZM19.4325 24.0872H22.1265V21.3775H19.4325V24.0872Z" fill="black"/>
<path d="M14.4274 20.9024L16.4755 24.4388C16.491 24.4663 16.5009 24.4965 16.5047 24.5279C16.5085 24.5592 16.5061 24.591 16.4977 24.6214C16.4892 24.6518 16.4749 24.6802 16.4555 24.705C16.4361 24.7298 16.412 24.7505 16.3847 24.7659C16.3013 24.8132 16.5664 24.7968 12.1745 24.7968C12.1338 24.7946 12.0942 24.7822 12.0595 24.7607C12.0247 24.7392 11.9959 24.7093 11.9756 24.6737C11.9553 24.6381 11.9442 24.598 11.9432 24.5569C11.9423 24.5159 11.9516 24.4753 11.9703 24.4388C11.9703 24.4388 13.9344 21.0473 14.019 20.9024C14.0402 20.867 14.0702 20.8378 14.106 20.8175C14.1418 20.7972 14.1821 20.7866 14.2232 20.7866C14.2643 20.7866 14.3047 20.7972 14.3404 20.8175C14.3762 20.8378 14.4062 20.867 14.4274 20.9024ZM15.8596 24.3204L14.2232 21.4954L12.5861 24.3204H15.8596Z" fill="black"/>
<path d="M24.1208 20.7871L27.3354 24.0205C27.3765 24.0658 27.3986 24.1252 27.3972 24.1865C27.3957 24.2477 27.3709 24.3061 27.3279 24.3494C27.2848 24.3927 27.2268 24.4177 27.1659 24.4191C27.105 24.4205 27.0459 24.3983 27.0009 24.357C25.9107 23.2983 24.839 22.2205 23.7856 21.1236C23.7425 21.0787 23.7186 21.0185 23.7192 20.956C23.7197 20.8935 23.7447 20.8337 23.7887 20.7896C23.8326 20.7454 23.8921 20.7204 23.9542 20.72C24.0164 20.7195 24.0762 20.7436 24.1208 20.7871Z" fill="black"/>
<path d="M27.0009 11.9749C25.9107 10.9163 24.839 9.83827 23.7856 8.74096C23.7425 8.696 23.7186 8.63579 23.7192 8.5733C23.7197 8.5108 23.7447 8.45104 23.7887 8.40689C23.8326 8.36274 23.8921 8.33774 23.9542 8.33729C24.0164 8.33683 24.0762 8.36095 24.1208 8.40445L27.3354 11.6384C27.3765 11.6837 27.3986 11.7431 27.3972 11.8044C27.3957 11.8656 27.3709 11.924 27.3279 11.9673C27.2848 12.0106 27.2268 12.0356 27.1659 12.037C27.105 12.0384 27.0459 12.0162 27.0009 11.9749Z" fill="black"/>
<path d="M27.0008 18.1907C25.9111 17.1308 24.8393 16.0528 23.7855 14.9568C23.7423 14.9118 23.7185 14.8516 23.719 14.7891C23.7196 14.7266 23.7446 14.6669 23.7886 14.6227C23.8325 14.5786 23.892 14.5536 23.9541 14.5531C24.0163 14.5527 24.0761 14.5768 24.1207 14.6203C25.2096 15.6802 26.2811 16.758 27.3353 17.8536C27.3786 17.8985 27.4025 17.9587 27.4021 18.0211C27.4016 18.0836 27.3768 18.1435 27.3329 18.1877C27.289 18.2319 27.2296 18.257 27.1674 18.2576C27.1053 18.2582 27.0455 18.2342 27.0008 18.1907Z" fill="black"/>
<path d="M33.1755 12.2673C33.1156 12.2653 33.0587 12.2405 33.0162 12.1979C32.9738 12.1553 32.949 12.0982 32.9468 12.0379V8.62183C32.9499 8.56085 32.9762 8.50341 33.0202 8.46136C33.0642 8.41932 33.1226 8.39587 33.1833 8.39587C33.244 8.39587 33.3024 8.41932 33.3464 8.46136C33.3904 8.50341 33.4167 8.56085 33.4198 8.62183V12.0379C33.4187 12.0691 33.4116 12.0998 33.3987 12.1282C33.3859 12.1566 33.3676 12.1822 33.3449 12.2035C33.3222 12.2248 33.2956 12.2414 33.2665 12.2524C33.2374 12.2633 33.2065 12.2684 33.1755 12.2673Z" fill="black"/>
<path d="M33.1755 18.5545C33.1155 18.5525 33.0585 18.5276 33.016 18.4849C32.9736 18.4422 32.9488 18.3849 32.9468 18.3245V14.9072C32.9499 14.8462 32.9762 14.7888 33.0202 14.7467C33.0642 14.7047 33.1226 14.6812 33.1833 14.6812C33.244 14.6812 33.3024 14.7047 33.3464 14.7467C33.3904 14.7888 33.4167 14.8462 33.4198 14.9072V18.3233C33.4189 18.3546 33.4119 18.3854 33.3991 18.414C33.3863 18.4426 33.3681 18.4684 33.3454 18.4899C33.3227 18.5114 33.296 18.5282 33.2668 18.5393C33.2377 18.5503 33.2066 18.5555 33.1755 18.5545Z" fill="black"/>
<path d="M33.1742 24.7704C33.1145 24.768 33.0579 24.7431 33.0158 24.7005C32.9736 24.658 32.949 24.601 32.9468 24.541V21.1243C32.9499 21.0633 32.9762 21.0059 33.0202 20.9638C33.0642 20.9218 33.1226 20.8983 33.1833 20.8983C33.244 20.8983 33.3024 20.9218 33.3464 20.9638C33.3904 21.0059 33.4167 21.0633 33.4198 21.1243V24.541C33.4187 24.5723 33.4114 24.603 33.3985 24.6315C33.3855 24.66 33.3671 24.6856 33.3443 24.7069C33.3215 24.7282 33.2947 24.7448 33.2655 24.7557C33.2363 24.7665 33.2053 24.7715 33.1742 24.7704Z" fill="black"/>
<path d="M33.1755 30.9649C33.1155 30.9627 33.0586 30.9378 33.0162 30.8951C32.9738 30.8524 32.949 30.7952 32.9468 30.7349V27.3188C32.9499 27.2578 32.9762 27.2004 33.0202 27.1583C33.0642 27.1163 33.1226 27.0928 33.1833 27.0928C33.244 27.0928 33.3024 27.1163 33.3464 27.1583C33.3904 27.2004 33.4167 27.2578 33.4198 27.3188V30.7349C33.4177 30.798 33.3908 30.8576 33.3449 30.9007C33.2991 30.9438 33.2382 30.9669 33.1755 30.9649Z" fill="black"/>
<path d="M22.3046 60.3295C22.9675 60.4039 37.2782 61.9188 38.9698 62.0889C40.0286 60.5627 40.9677 59.2532 42.1067 57.7799C39.8102 58.8428 37.2663 59.2469 34.7559 58.9476C32.2625 58.6422 29.935 57.5312 28.123 55.7816C28.123 55.7816 16.3973 55.7816 16.2482 55.7816C14.854 55.7723 13.4812 55.4361 12.2388 54.7997C10.9964 54.1634 9.91855 53.2445 9.09092 52.116C8.51203 51.2735 9.19618 52.1248 3.61773 42.83C3.37508 42.4326 3.24237 41.9772 3.23335 41.511C3.22432 41.0447 3.3393 40.5845 3.56639 40.1779C3.79349 39.7713 4.12445 39.4331 4.52504 39.1983C4.92564 38.9635 5.38133 38.8406 5.84498 38.8424H31.5538C32.5394 38.805 33.5251 38.9143 34.479 39.1669C36.8221 39.8758 38.2725 41.3598 39.4234 43.544L39.8538 44.2825L39.8576 44.2976C39.907 44.3676 39.9064 44.3733 40.9308 46.1301C42.1592 44.9381 43.5378 43.9133 45.0313 43.0821C45.6626 42.7444 46.3664 42.5672 47.0815 42.5657C47.7965 42.5643 48.501 42.7388 49.1337 43.0739C53.1703 45.1956 57.8954 50.9124 59.6647 59.4763C60.0892 61.8959 60.2676 64.3528 60.1972 66.8088C60.3459 68.5659 60.011 70.3303 59.2292 71.9087C58.8186 72.5941 58.2608 73.1786 57.5966 73.6193C56.9324 74.06 56.1787 74.3458 55.3906 74.4558C54.3882 74.6202 54.5674 74.5755 45.379 74.5755C45.2424 75.0651 45.1202 75.5579 44.9899 76.0488C44.9759 76.099 44.946 76.1433 44.9047 76.1749C44.8635 76.2065 44.8131 76.2237 44.7612 76.224H30.1723C30.131 76.2232 30.0905 76.2117 30.0548 76.1905C30.0192 76.1692 29.9897 76.1391 29.9691 76.103C29.9485 76.0668 29.9376 76.026 29.9374 75.9843C29.9373 75.9427 29.9478 75.9017 29.9681 75.8654C30.2538 75.4394 30.532 75.0065 30.8089 74.5755H22.3046C22.2422 74.5747 22.1826 74.5494 22.1385 74.505C22.0944 74.4606 22.0692 74.4007 22.0684 74.3379V60.569C22.065 60.5368 22.0688 60.5044 22.0794 60.4739C22.09 60.4434 22.1073 60.4157 22.1299 60.3927C22.1525 60.3698 22.18 60.3522 22.2102 60.3413C22.2404 60.3303 22.2727 60.3263 22.3046 60.3295ZM29.428 56.277C32.9265 58.9463 38.0776 59.4511 42.7815 56.926C43.2827 56.3059 43.8064 55.7035 44.3546 55.1263C42.7884 52.6687 41.5629 50.1556 39.6947 47.9626C39.122 48.5298 38.5632 49.1228 37.9617 49.6641C37.6741 49.9709 37.3108 50.1956 36.9088 50.3155C36.5069 50.4354 36.0805 50.4461 35.6731 50.3465C34.7782 49.9711 34.0487 49.2826 33.6194 48.4082C32.5386 46.6106 31.2425 44.9532 29.7601 43.4734C29.068 42.7495 28.2911 42.1128 27.4464 41.5772C25.981 40.6635 23.901 40.5841 22.8015 41.9522C22.6762 42.111 22.5728 42.2881 22.4469 42.4488C22.2282 42.8111 22.0008 42.8269 21.6286 42.9812C21.2953 43.1167 20.9677 43.2667 20.6394 43.4135C20.3579 43.5354 20.0905 43.6878 19.8418 43.8679C19.3619 44.2932 18.5594 45.0771 18.9772 45.7854C19.4158 46.5246 20.4307 46.2631 21.0447 45.9663C21.2684 45.8585 21.5566 46.1591 21.3317 46.34C20.8084 46.757 20.3796 47.2814 20.0736 47.8782C19.7879 48.439 19.4866 49.233 19.8569 49.8222C19.9276 49.9494 20.0342 50.0526 20.1632 50.1188C20.2922 50.1851 20.4378 50.2115 20.5817 50.1947C20.9166 50.1135 21.231 49.9633 21.5052 49.7536C22.0814 49.3811 22.59 48.9123 23.0088 48.3672C23.0303 48.3322 23.0604 48.3032 23.0961 48.2831C23.1319 48.2631 23.1721 48.2525 23.2131 48.2525C23.254 48.2525 23.2943 48.2631 23.33 48.2831C23.3658 48.3032 23.3958 48.3322 23.4173 48.3672C25.0976 51.2073 26.7666 54.246 29.428 56.277ZM7.78026 49.0364C7.83289 49.1102 7.85983 49.1625 8.76075 50.7095C9.49322 52.1058 10.593 53.2728 11.9401 54.0832C13.2871 54.8935 14.8296 55.3161 16.3992 55.3046H27.6387C25.8943 53.3644 24.3957 51.214 23.1774 48.9028C22.8492 49.29 22.478 49.638 22.0709 49.9401C21.5989 50.3819 20.9854 50.6396 20.3412 50.6667C20.0625 50.6187 19.8064 50.4824 19.6103 50.2777C19.4142 50.0729 19.2883 49.8104 19.251 49.5286C19.179 48.8695 19.3254 48.2049 19.6677 47.6381C19.836 47.3093 20.0405 47.0005 20.2772 46.7174C18.8363 46.955 17.9529 45.6626 18.5913 44.6417C18.5913 44.6417 5.55991 44.6449 5.22348 44.6417L7.78903 49.0415L7.78026 49.0364ZM38.5112 42.9201C37.8748 41.8236 36.9638 40.914 35.8691 40.2818C34.7744 39.6496 33.5341 39.3169 32.2718 39.3169C32.1527 39.3169 6.05047 39.298 5.56117 39.3307C5.04704 39.399 4.57492 39.6523 4.23224 40.0438C3.88955 40.4353 3.69951 40.9384 3.6973 41.46C3.6973 42.2509 4.22983 42.9365 4.61138 43.5912L4.94468 44.1634H18.9021C19.0849 43.9346 19.2874 43.7225 19.5073 43.5295C20.0136 43.1576 20.5726 42.8645 21.1656 42.6599C21.3962 42.5622 21.9175 42.3511 21.9175 42.3511C22.1998 41.9336 22.5237 41.5462 22.8842 41.1947C23.3887 40.8189 23.9754 40.5701 24.5952 40.4691C25.215 40.3682 25.8498 40.418 26.4465 40.6144C27.3741 40.9281 28.2294 41.4266 28.9613 42.0801C29.7116 42.7239 30.4158 43.4201 31.0689 44.1634C31.0689 44.1634 38.8971 44.1458 39.2292 44.1489L38.5112 42.9201ZM39.5136 44.6398H31.4711C32.378 45.6888 33.1977 46.8109 33.922 47.9948C34.1756 48.4312 34.4692 48.8428 34.7991 49.2242C35.1494 49.6281 35.6341 49.8896 36.1624 49.9596C36.6565 49.9553 37.1321 49.7697 37.5 49.4378C38.1892 48.8468 39.4196 47.5177 39.6063 47.4018C39.5895 47.4108 39.5738 47.4215 39.5593 47.4339C39.6013 47.3709 40.5123 46.5164 40.5762 46.4572C40.2347 45.8768 39.7629 45.0664 39.5142 44.643L39.5136 44.6398ZM46.9427 43.0367C46.4158 43.0409 45.8974 43.1705 45.4297 43.4148C44.8218 43.7058 44.2425 44.0538 43.6993 44.4539C42.4062 45.4115 41.1877 46.4669 40.0543 47.611C41.972 49.85 43.329 52.5527 44.7136 54.7495C45.9604 53.4816 47.2742 52.3284 49.024 52.0839L49.2157 51.9465C50.3911 51.078 51.1904 49.7889 51.4486 48.3451C51.7813 46.0854 49.3047 43.0455 46.9434 43.0367H46.9427ZM57.9067 55.0664C56.4982 50.9479 53.9624 47.313 50.5909 44.58C51.4363 45.5132 51.9205 46.7207 51.9555 47.9828C51.8885 48.7591 51.67 49.5144 51.3126 50.2057C50.9552 50.897 50.4657 51.5106 49.8723 52.0114C52.4253 52.0473 54.6494 53.5981 56.029 55.396C57.8325 57.676 59.0719 60.3541 59.6452 63.21C59.4998 60.4198 58.9131 57.6708 57.9073 55.0664H57.9067ZM51.3446 74.0972C50.2264 73.6252 49.2826 72.8138 48.645 71.7763C48.2518 71.0749 47.9566 70.3224 47.7679 69.5399C47.6551 69.1164 47.511 68.6955 47.392 68.2695C46.7014 70.1906 46.0745 72.1342 45.5124 74.0972H51.3446ZM30.6122 75.7451C30.6122 75.7451 44.4417 75.7369 44.5833 75.7394C45.3175 72.9141 46.1935 70.1279 47.2078 67.3917C47.2817 67.1919 47.6137 67.1396 47.6645 67.3917C47.7685 67.9147 47.9408 68.4314 48.0874 68.9438C48.2664 69.7224 48.5251 70.4803 48.8592 71.2054C49.3412 72.1187 50.0707 72.8758 50.9632 73.3889C51.8556 73.9019 52.8744 74.15 53.9014 74.1041C57.4199 74.0966 59.4855 72.2471 59.7029 68.3067C59.7435 65.2301 59.1278 62.1804 57.8973 59.3635C56.9968 57.2855 55.635 55.4426 53.9164 53.9762C52.2662 52.6598 49.7978 51.9969 47.7541 52.9629C47.0668 53.3096 46.4336 53.7555 45.8746 54.2863C41.0122 58.9053 35.7652 67.9172 30.6128 75.7463L30.6122 75.7451ZM22.5483 74.0972H31.119C34.6989 68.519 36.143 66.2032 38.6559 62.537C37.6848 62.4399 22.5415 60.8311 22.5415 60.8311C22.5415 75.9833 22.5389 73.4696 22.549 74.0985L22.5483 74.0972Z" fill="black"/>
<path d="M19.2522 74.4438C19.1269 73.9737 15.5558 60.3389 15.5558 60.3282C15.4982 60.1102 15.7901 59.9111 15.9512 60.097C18.3412 62.847 19.9055 66.2234 20.462 69.8329C20.6976 71.4505 20.6832 73.1961 19.6476 74.5465C19.6183 74.5755 19.582 74.5964 19.5423 74.6071C19.5026 74.6178 19.4608 74.618 19.421 74.6077C19.3812 74.5974 19.3447 74.5768 19.3151 74.5481C19.2856 74.5194 19.2639 74.4834 19.2522 74.4438ZM20.0084 69.9615C19.5318 66.7897 18.2512 63.7948 16.2901 61.2653C16.2901 61.2653 19.5699 73.7808 19.5768 73.8054C20.1351 72.6061 20.2867 71.2558 20.0084 69.9615Z" fill="black"/>
<path d="M43.3311 79.2173C43.3846 79.2343 43.4303 79.2698 43.4604 79.3174C43.4904 79.365 43.5027 79.4217 43.4952 79.4776C43.4878 79.5335 43.4609 79.5849 43.4194 79.6228C43.378 79.6607 43.3245 79.6827 43.2685 79.6849L27.1973 80C27.151 79.9988 27.1061 79.9841 27.0679 79.9577C27.0298 79.9313 27.0001 79.8944 26.9824 79.8514C26.9647 79.8084 26.9597 79.7611 26.9682 79.7154C26.9766 79.6696 26.9981 79.6273 27.03 79.5935C31.014 76.2657 38.5415 77.2802 43.3311 79.2173ZM42.0155 79.2337C37.8805 77.8014 31.5528 77.0433 27.9272 79.5116L42.0155 79.2337Z" fill="black"/>
<path d="M23.0952 42.0745C23.8767 41.6911 24.759 41.5671 25.615 41.7204C25.9151 41.7702 25.7879 42.2289 25.4897 42.1791C24.7153 42.0567 23.9222 42.1805 23.2211 42.5333C22.9367 42.6448 22.8133 42.1854 23.0952 42.0745Z" fill="black"/>
<path d="M21.6864 46.0237C21.6578 45.9705 21.6503 45.9083 21.6656 45.8498C21.6808 45.7913 21.7176 45.7408 21.7685 45.7086C22.3229 45.3778 22.9257 45.1371 23.5547 44.9953C23.8517 44.9323 23.9788 45.3891 23.68 45.4547C23.0927 45.5916 22.5289 45.8156 22.0072 46.1195C21.9799 46.1345 21.95 46.144 21.919 46.1473C21.8881 46.1506 21.8568 46.1477 21.827 46.1388C21.7972 46.1299 21.7694 46.1152 21.7453 46.0954C21.7211 46.0756 21.7012 46.0513 21.6864 46.0237Z" fill="black"/>
<path d="M35.2331 57.1888H37.4679C37.5285 57.1919 37.5856 57.2184 37.6274 57.2626C37.6692 57.3069 37.6925 57.3656 37.6925 57.4267C37.6925 57.4877 37.6692 57.5464 37.6274 57.5907C37.5856 57.635 37.5285 57.6614 37.4679 57.6646H35.2331C35.1725 57.6614 35.1154 57.635 35.0736 57.5907C35.0318 57.5464 35.0085 57.4877 35.0085 57.4267C35.0085 57.3656 35.0318 57.3069 35.0736 57.2626C35.1154 57.2184 35.1725 57.1919 35.2331 57.1888Z" fill="black"/>
<path d="M46.5881 40.4746C46.1438 40.5827 45.6776 40.5556 45.2487 40.3967C44.8198 40.2378 44.4475 39.9544 44.1791 39.5823C43.9152 39.2494 43.7736 38.835 43.7784 38.4092C43.7832 37.9835 43.934 37.5724 44.2054 37.2456C44.398 37.0279 44.6315 36.8507 44.8925 36.7243C45.1535 36.5978 45.4369 36.5247 45.7262 36.509C46.0155 36.4934 46.305 36.5356 46.578 36.6331C46.851 36.7307 47.102 36.8817 47.3167 37.0774C47.5896 37.3069 47.795 37.607 47.9106 37.9454C48.0263 38.2838 48.0477 38.6476 47.9727 38.9974C47.8977 39.3471 47.729 39.6696 47.485 39.93C47.241 40.1904 46.9308 40.3787 46.5881 40.4746ZM47.5216 38.32C47.4585 38.0346 47.3245 37.77 47.132 37.5509C46.9395 37.3318 46.6949 37.1655 46.4211 37.0674C46.1472 36.9694 45.8531 36.9429 45.5663 36.9904C45.2795 37.0378 45.0094 37.1578 44.7812 37.3389C44.5191 37.5403 44.3392 37.8311 44.2751 38.1566C44.2111 38.482 44.2674 38.8198 44.4335 39.1065C44.6144 39.4416 44.8938 39.7123 45.2335 39.8815C45.5732 40.0507 45.9566 40.1101 46.3312 40.0517C46.5225 40.0169 46.7051 39.9444 46.8686 39.8385C47.032 39.7326 47.1731 39.5952 47.2837 39.4344C47.3942 39.2735 47.4722 39.0923 47.513 38.901C47.5538 38.7098 47.5567 38.5124 47.5216 38.32Z" fill="black"/>
<path d="M47.439 36.2517C46.7498 36.2146 46.0607 36.1685 45.3778 36.0709C44.8402 36.0111 44.3143 35.8718 43.8172 35.6575C43.2846 35.4249 42.829 35.0445 42.5038 34.5608C42.1785 34.0771 41.9972 33.5101 41.9809 32.9264C42.0667 31.7436 43.4694 31.3415 44.5358 31.9017C45.5436 32.5436 46.3479 33.4619 46.8538 34.5484C47.1045 35.0034 47.387 35.4401 47.6414 35.8932C47.6618 35.9293 47.6725 35.9701 47.6725 36.0117C47.6725 36.0532 47.6618 36.0941 47.6414 36.1302C47.621 36.1664 47.5916 36.1966 47.5561 36.2179C47.5207 36.2392 47.4803 36.2508 47.439 36.2517ZM43.8453 32.1557C43.6575 32.1118 43.4625 32.1087 43.2734 32.1468C43.0844 32.1848 42.9055 32.263 42.749 32.3763C42.244 32.7342 42.4357 33.5105 42.749 34.0563C43.0258 34.5049 43.407 34.879 43.8596 35.1465C44.3122 35.4139 44.8227 35.5666 45.3471 35.5913C45.8986 35.6657 46.4526 35.7199 47.008 35.7539C46.2054 34.3965 45.3408 32.5054 43.8453 32.1532V32.1557Z" fill="black"/>
<path d="M31.1376 23.1087L28.6641 25.0319C28.6189 25.0748 28.5591 25.0988 28.4969 25.0988C28.4347 25.0988 28.3748 25.0748 28.3296 25.0319C28.2853 24.9872 28.2604 24.9267 28.2604 24.8636C28.2604 24.8006 28.2853 24.7401 28.3296 24.6954C28.3853 24.6519 29.9936 23.4004 30.741 22.8175L28.3296 20.9409C28.2852 20.8961 28.2604 20.8355 28.2604 20.7723C28.2604 20.7092 28.2852 20.6485 28.3296 20.6038C28.3745 20.5603 28.4345 20.5359 28.4969 20.5359C28.5593 20.5359 28.6192 20.5603 28.6641 20.6038C28.6641 20.6038 31.2028 22.5686 31.2855 22.6442C31.4734 22.8452 31.2823 22.9965 31.1376 23.1087Z" fill="black"/>
<path d="M31.1372 16.9053L28.6638 18.8279C28.6187 18.8711 28.5588 18.8952 28.4965 18.8952C28.4342 18.8952 28.3743 18.8711 28.3292 18.8279C28.2849 18.7832 28.26 18.7227 28.26 18.6596C28.26 18.5966 28.2849 18.536 28.3292 18.4914L30.7438 16.6142L28.3324 14.7369C28.2881 14.6923 28.2632 14.6317 28.2632 14.5687C28.2632 14.5056 28.2881 14.4451 28.3324 14.4004C28.3772 14.3567 28.4372 14.3323 28.4996 14.3323C28.5621 14.3323 28.6221 14.3567 28.6669 14.4004C29.4526 15.0117 31.2055 16.3652 31.2882 16.4402C31.4731 16.6412 31.282 16.79 31.1372 16.9053Z" fill="black"/>
<path d="M31.1372 10.5596L28.6638 12.4822C28.6187 12.5254 28.5588 12.5495 28.4965 12.5495C28.4342 12.5495 28.3743 12.5254 28.3292 12.4822C28.2849 12.4375 28.26 12.377 28.26 12.3139C28.26 12.2509 28.2849 12.1903 28.3292 12.1457L30.7438 10.2684L28.3324 8.39121C28.2881 8.34655 28.2632 8.28604 28.2632 8.22295C28.2632 8.15987 28.2881 8.09936 28.3324 8.0547C28.3773 8.01119 28.4373 7.98688 28.4996 7.98688C28.562 7.98688 28.622 8.01119 28.6669 8.0547C29.4526 8.66595 31.2055 10.0195 31.2882 10.0952C31.4731 10.2955 31.282 10.4468 31.1372 10.5596Z" fill="black"/>
<path d="M9.4155 20.6037C9.45985 20.6485 9.48474 20.7091 9.48474 20.7723C9.48474 20.8355 9.45985 20.8961 9.4155 20.9409L7.00344 22.8175L9.4155 24.6947C9.45969 24.7396 9.48449 24.8001 9.48449 24.8633C9.48449 24.9264 9.45969 24.987 9.4155 25.0319C9.37049 25.0752 9.31056 25.0994 9.24823 25.0994C9.18589 25.0994 9.12596 25.0752 9.08095 25.0319C9.08095 25.0319 6.54233 23.067 6.45963 22.9914C6.27168 22.7904 6.46527 22.6398 6.61062 22.527L9.08095 20.6037C9.12618 20.5608 9.18603 20.5369 9.24823 20.5369C9.31043 20.5369 9.37027 20.5608 9.4155 20.6037Z" fill="black"/>
<path d="M9.39816 16.6123L11.8108 18.4915C11.8552 18.5362 11.8801 18.5968 11.8801 18.66C11.8801 18.7232 11.8552 18.7838 11.8108 18.8286C11.7658 18.872 11.7059 18.8962 11.6436 18.8962C11.5812 18.8962 11.5213 18.872 11.4763 18.8286C10.6907 18.2167 8.93768 16.8638 8.85498 16.7881C8.66703 16.5871 8.86124 16.4359 9.00597 16.3237L11.4763 14.4005C11.5215 14.3575 11.5814 14.3336 11.6436 14.3336C11.7058 14.3336 11.7656 14.3575 11.8108 14.4005C11.8329 14.4225 11.8505 14.4487 11.8624 14.4776C11.8744 14.5065 11.8806 14.5374 11.8806 14.5687C11.8806 14.6 11.8744 14.631 11.8624 14.6599C11.8505 14.6887 11.8329 14.715 11.8108 14.737L9.39816 16.6123Z" fill="black"/>
<path d="M14.4788 10.2685L16.8909 12.1457C16.9352 12.1904 16.9601 12.2509 16.9601 12.314C16.9601 12.377 16.9352 12.4376 16.8909 12.4822C16.8461 12.526 16.7861 12.5505 16.7236 12.5505C16.6611 12.5505 16.6011 12.526 16.5563 12.4822C15.7707 11.871 14.0177 10.518 13.935 10.4424C13.7471 10.2414 13.9413 10.0901 14.0854 9.97733L16.5563 8.05472C16.6016 8.01177 16.6614 7.98785 16.7236 7.98785C16.7858 7.98785 16.8457 8.01177 16.8909 8.05472C16.9352 8.09937 16.9601 8.15988 16.9601 8.22297C16.9601 8.28605 16.9352 8.34656 16.8909 8.39122L14.4788 10.2685Z" fill="black"/>
<path d="M21.3221 12.0337C20.9507 12.1703 20.5473 12.1932 20.1629 12.0994C19.7785 12.0055 19.4304 11.7992 19.1626 11.5064C18.8948 11.2136 18.7193 10.8476 18.6583 10.4545C18.5973 10.0614 18.6535 9.659 18.8198 9.29805C18.9861 8.93709 19.255 8.63382 19.5926 8.42657C19.9303 8.21931 20.3214 8.11738 20.7166 8.13364C21.1118 8.1499 21.4933 8.28364 21.813 8.51794C22.1326 8.75224 22.376 9.0766 22.5125 9.45001C22.6031 9.69827 22.6442 9.96205 22.6334 10.2263C22.6226 10.4905 22.5601 10.75 22.4496 10.99C22.339 11.2299 22.1826 11.4456 21.9891 11.6247C21.7956 11.8037 21.569 11.9427 21.3221 12.0337ZM21.1504 8.69761C20.9196 8.61455 20.6722 8.58856 20.4292 8.62182C20.1862 8.65508 19.9548 8.74661 19.7544 8.88871C19.5539 9.03081 19.3904 9.2193 19.2776 9.43828C19.1648 9.65727 19.106 9.90033 19.1061 10.147C19.1083 10.4636 19.2064 10.7719 19.3874 11.0309C19.5685 11.2899 19.8238 11.4872 20.1192 11.5963C20.5005 11.7324 20.9199 11.7108 21.2854 11.5364C21.6509 11.3619 21.9328 11.0489 22.0693 10.6658C22.2057 10.2827 22.1857 9.86085 22.0134 9.49263C21.8412 9.12441 21.5309 8.83988 21.1504 8.70139V8.69761Z" fill="black"/>
<path d="M39.7531 4.73693C39.886 5.01168 39.4775 5.25303 39.3447 4.97765C38.725 3.69445 37.7476 2.62029 36.5316 1.88609C36.4786 1.85238 36.441 1.79888 36.4271 1.73732C36.4133 1.67576 36.4243 1.61119 36.4577 1.55778C36.4893 1.50611 36.5395 1.46869 36.5979 1.45331C36.6562 1.43794 36.7182 1.44578 36.771 1.47522C38.0684 2.23618 39.1077 3.37286 39.7531 4.73693Z" fill="black"/>
<path d="M40.6889 4.30408C39.9337 2.60339 38.598 1.23099 36.9235 0.435538C36.6472 0.309506 36.8878 -0.104508 37.1622 0.0246741C38.9131 0.851614 40.3099 2.28413 41.098 4.06084C41.2201 4.34126 40.8123 4.58387 40.6889 4.30408Z" fill="black"/>
<path d="M62.0626 56.444C62.1209 56.43 62.1824 56.4388 62.2345 56.4686C62.2866 56.4984 62.3255 56.5471 62.3433 56.6047C63.137 59.3604 63.4178 62.2398 63.1715 65.098C63.1452 65.4005 62.6703 65.4036 62.6985 65.098C62.9351 62.2825 62.6591 59.4472 61.884 56.7314C61.8766 56.7007 61.8754 56.6689 61.8804 56.6377C61.8854 56.6065 61.8966 56.5767 61.9132 56.5499C61.9298 56.5232 61.9516 56.5 61.9773 56.4818C62.0029 56.4636 62.0319 56.4508 62.0626 56.444Z" fill="black"/>
<path d="M63.855 56.493C65.0453 59.4844 65.1462 62.0516 64.8705 65.0978C64.8436 65.4003 64.3693 65.4028 64.3975 65.0978C64.6795 61.9754 64.5322 59.5253 63.3989 56.6196C63.2873 56.3342 63.7447 56.2107 63.855 56.493Z" fill="black"/>
<path d="M3.99237 47.7429L0.353595 44.8769C0.113641 44.6879 0.450706 44.3533 0.688153 44.5404L4.32692 47.4058C4.56687 47.5948 4.23044 47.9294 3.99237 47.7429Z" fill="black"/>
<path d="M3.96934 50.1405C4.20616 49.9515 4.54385 50.2886 4.30389 50.477L1.05607 53.0323C0.818623 53.2214 0.481563 52.8842 0.721516 52.6952L3.96934 50.1405Z" fill="black"/>
<path d="M1.47435 32.585C1.47435 7.29043 1.40105 8.13485 1.59966 7.14865C1.83606 6.24135 2.36306 5.43766 3.09917 4.86186C3.83528 4.28606 4.73949 3.97023 5.67197 3.9632H32.4333C33.0128 3.9429 33.5901 4.04323 34.1292 4.2579C34.6682 4.47257 35.1574 4.79694 35.566 5.21068C35.9745 5.62442 36.2937 6.1186 36.5035 6.66224C36.7133 7.20587 36.8091 7.78725 36.7851 8.3699V33.3147C36.7962 33.9102 36.6862 34.5016 36.4619 35.0528C36.2375 35.6039 35.9035 36.1031 35.4803 36.5197C35.0572 36.9363 34.5538 37.2615 34.0012 37.4753C33.4486 37.6891 32.8583 37.787 32.2667 37.763C3.86699 37.3767 5.66319 37.8065 4.96526 37.6842C4.02196 37.5046 3.16585 37.0118 2.53387 36.2849C1.9019 35.558 1.53059 34.6388 1.47937 33.6745C1.45681 33.3128 1.47435 32.9467 1.47435 32.585Z" fill="#FFD500"/>
<path d="M5.84671 38.8412H31.5555C32.7073 38.7455 33.8659 38.908 34.9478 39.317C36.0296 39.7259 37.0078 40.3711 37.8119 41.2062C38.6071 42.1496 39.2926 43.1813 39.8549 44.2813C39.8725 44.35 39.8324 44.1799 39.6438 44.1635H39.5116H31.07C30.4129 43.4239 29.7086 42.728 28.9618 42.0802C26.603 40.0152 24.2893 40.0712 22.8846 41.1948C22.5304 41.55 22.2079 41.9359 21.9211 42.348C21.8196 42.406 21.8697 42.3625 21.1693 42.6631C20.5763 42.8677 20.0172 43.1609 19.5109 43.5327C19.291 43.7257 19.0885 43.9378 18.9057 44.1666H4.81297C4.77311 44.1677 4.73414 44.1787 4.69953 44.1986C4.66492 44.2185 4.63577 44.2467 4.61466 44.2808C4.59356 44.3148 4.58117 44.3535 4.5786 44.3936C4.57604 44.4336 4.58337 44.4736 4.59995 44.5101C4.27417 43.9505 3.95277 43.3884 3.62135 42.832C3.37626 42.435 3.24152 41.9791 3.23118 41.5119C3.22083 41.0447 3.33526 40.5833 3.56254 40.1757C3.78982 39.7681 4.12163 39.4293 4.52338 39.1946C4.92513 38.9599 5.38212 38.8378 5.84671 38.8412Z" fill="#FFF0B3"/>
<path d="M4.81133 44.1635H18.904C18.7853 44.3122 18.6804 44.4717 18.5908 44.6398C17.9542 45.6582 18.8351 46.9532 20.2767 46.7156C20.04 46.9986 19.8355 47.3074 19.6671 47.6363C19.3249 48.203 19.1784 48.8676 19.2505 49.5267C19.2879 49.8085 19.4139 50.0709 19.61 50.2756C19.8061 50.4803 20.0621 50.6167 20.3406 50.6648C20.985 50.6381 21.5986 50.3804 22.0704 49.9382C22.4777 49.6365 22.849 49.2885 23.1768 48.901C24.4775 51.4273 26.1443 53.7451 28.1225 55.7785C28.1225 55.7785 16.3967 55.7785 16.2476 55.7785C14.8517 55.7787 13.4756 55.4467 12.2317 54.8096C10.9878 54.1725 9.91134 53.2484 9.09039 52.1129C8.48142 51.2553 5.16092 45.4332 4.60458 44.5201C4.58486 44.4837 4.57481 44.4427 4.57542 44.4012C4.57603 44.3597 4.58727 44.3191 4.60806 44.2832C4.62884 44.2473 4.65847 44.2175 4.69408 44.1965C4.72968 44.1755 4.77007 44.1641 4.81133 44.1635Z" fill="#FFC431"/>
<path d="M39.6449 44.1634C39.6886 44.167 39.7308 44.181 39.7681 44.2041C39.8054 44.2272 39.8368 44.2588 39.8598 44.2963C39.9049 44.3594 39.8003 44.1854 40.933 46.1289C40.745 46.2977 39.606 47.3627 39.559 47.4339C39.4018 47.5347 38.291 48.7421 37.4997 49.4378C37.1303 49.7671 36.6557 49.9522 36.1621 49.9596C34.3026 49.7138 34.3546 47.8347 31.0705 44.1621C42.4072 44.159 39.0171 44.1105 39.6449 44.1634Z" fill="#FFC431"/>
<path d="M18.8538 17.8803C19.4258 16.8317 20.8167 14.4888 20.9025 14.3439C20.9238 14.3085 20.9537 14.2793 20.9895 14.259C21.0253 14.2387 21.0657 14.228 21.1068 14.228C21.1478 14.228 21.1882 14.2387 21.224 14.259C21.2598 14.2793 21.2897 14.3085 21.311 14.3439C21.9991 15.5195 22.6818 16.6983 23.3591 17.8803C23.3798 17.9168 23.3906 17.9581 23.3905 18.0001C23.3904 18.0421 23.3793 18.0833 23.3584 18.1197C23.3375 18.1561 23.3074 18.1863 23.2712 18.2073C23.2351 18.2283 23.1941 18.2394 23.1523 18.2395H19.0562C19.0155 18.237 18.9761 18.2242 18.9415 18.2025C18.907 18.1808 18.8783 18.1507 18.8582 18.1151C18.8382 18.0794 18.8272 18.0392 18.8265 17.9982C18.8257 17.9572 18.8351 17.9167 18.8538 17.8803Z" fill="#2755A0"/>
<path d="M13.5468 17.8802C14.1188 16.8317 15.5096 14.4881 15.5948 14.3438C15.6162 14.3084 15.6462 14.2792 15.682 14.259C15.7179 14.2387 15.7583 14.228 15.7994 14.228C15.8405 14.228 15.8809 14.2387 15.9168 14.259C15.9526 14.2792 15.9826 14.3084 16.004 14.3438C16.6916 15.5197 17.3743 16.6985 18.052 17.8802C18.0723 17.9165 18.0829 17.9574 18.0828 17.9991C18.0826 18.0407 18.0717 18.0815 18.0511 18.1176C18.0305 18.1537 18.0009 18.1838 17.9653 18.2049C17.9296 18.2261 17.8891 18.2375 17.8478 18.2382H13.7535C13.7126 18.2364 13.6727 18.2243 13.6377 18.2029C13.6026 18.1816 13.5734 18.1517 13.5528 18.1161C13.5322 18.0804 13.5209 18.0402 13.5198 17.9989C13.5188 17.9577 13.528 17.9169 13.5468 17.8802Z" fill="#2755A0"/>
<path d="M19.1971 20.8993H22.3672C22.4296 20.9003 22.4893 20.9257 22.5334 20.9702C22.5775 21.0147 22.6026 21.0747 22.6034 21.1375V24.3255C22.6026 24.3883 22.5775 24.4483 22.5334 24.4928C22.4893 24.5373 22.4296 24.5627 22.3672 24.5637C18.984 24.5876 19.1093 24.5983 19.0191 24.478C18.9327 24.386 18.9364 24.541 18.9602 21.1381C18.9609 21.0751 18.986 21.0148 19.0303 20.9702C19.0745 20.9256 19.1344 20.9001 19.1971 20.8993Z" fill="#FF4848"/>
<path d="M11.9712 24.4384C12.5432 23.3898 13.934 21.0469 14.0199 20.9026C14.0411 20.8672 14.0711 20.838 14.1069 20.8177C14.1427 20.7974 14.183 20.7867 14.2241 20.7867C14.2652 20.7867 14.3056 20.7974 14.3414 20.8177C14.3771 20.838 14.4071 20.8672 14.4284 20.9026C15.0361 21.9304 16.3937 24.2928 16.4764 24.4384C16.4967 24.4747 16.5073 24.5157 16.5071 24.5573C16.5069 24.5989 16.496 24.6398 16.4754 24.6759C16.4548 24.7121 16.4253 24.7422 16.3897 24.7634C16.354 24.7846 16.3136 24.7962 16.2722 24.797H12.1754C12.1347 24.7945 12.0953 24.7819 12.0607 24.7603C12.026 24.7387 11.9973 24.7087 11.977 24.6732C11.9567 24.6376 11.9456 24.5975 11.9446 24.5565C11.9436 24.5155 11.9527 24.4749 11.9712 24.4384Z" fill="#2755A0"/>
<path d="M24.1222 20.787L27.3374 24.0204C27.3775 24.0659 27.3988 24.1251 27.397 24.1859C27.3952 24.2467 27.3703 24.3045 27.3275 24.3475C27.2848 24.3906 27.2273 24.4155 27.1669 24.4174C27.1064 24.4192 27.0475 24.3978 27.0022 24.3575C25.9125 23.2976 24.841 22.2196 23.7876 21.1235C23.7466 21.0782 23.7245 21.0188 23.7259 20.9575C23.7273 20.8963 23.7521 20.8379 23.7952 20.7946C23.8383 20.7513 23.8963 20.7263 23.9572 20.7249C24.0181 20.7235 24.0772 20.7457 24.1222 20.787Z" fill="black"/>
<path d="M24.1224 8.4045L27.3376 11.6385C27.3808 11.6834 27.4047 11.7436 27.4041 11.8061C27.4035 11.8686 27.3786 11.9284 27.3346 11.9725C27.2906 12.0167 27.2312 12.0417 27.169 12.0421C27.1069 12.0426 27.0471 12.0185 27.0025 11.975C25.9128 10.9159 24.8412 9.8379 23.7878 8.741C23.7468 8.69572 23.7247 8.63628 23.7261 8.57503C23.7275 8.51378 23.7523 8.45543 23.7954 8.41211C23.8385 8.36879 23.8965 8.34383 23.9574 8.34241C24.0183 8.34099 24.0774 8.36323 24.1224 8.4045Z" fill="black"/>
<path d="M24.1222 14.6204C25.2119 15.6799 26.2836 16.7577 27.3374 17.8538C27.3775 17.8993 27.3988 17.9586 27.397 18.0194C27.3952 18.0802 27.3703 18.138 27.3275 18.181C27.2848 18.224 27.2273 18.249 27.1669 18.2508C27.1064 18.2527 27.0475 18.2312 27.0022 18.1909C25.9125 17.131 24.841 16.053 23.7876 14.9569C23.7466 14.9117 23.7245 14.8522 23.7259 14.791C23.7273 14.7297 23.7521 14.6714 23.7952 14.6281C23.8383 14.5847 23.8963 14.5598 23.9572 14.5584C24.0181 14.5569 24.0772 14.5792 24.1222 14.6204Z" fill="black"/>
<path d="M33.4218 8.62176V12.0379C33.4186 12.0988 33.3924 12.1563 33.3483 12.1983C33.3043 12.2404 33.2459 12.2638 33.1852 12.2638C33.1245 12.2638 33.0662 12.2404 33.0221 12.1983C32.9781 12.1563 32.9519 12.0988 32.9487 12.0379V8.62176C32.9519 8.56079 32.9781 8.50335 33.0221 8.4613C33.0662 8.41926 33.1245 8.39581 33.1852 8.39581C33.2459 8.39581 33.3043 8.41926 33.3483 8.4613C33.3924 8.50335 33.4186 8.56079 33.4218 8.62176Z" fill="#FF4848"/>
<path d="M33.4218 14.9072V18.3233C33.4186 18.3843 33.3924 18.4417 33.3483 18.4838C33.3043 18.5258 33.2459 18.5493 33.1852 18.5493C33.1245 18.5493 33.0662 18.5258 33.0221 18.4838C32.9781 18.4417 32.9519 18.3843 32.9487 18.3233V14.9072C32.9519 14.8463 32.9781 14.7888 33.0221 14.7468C33.0662 14.7047 33.1245 14.6813 33.1852 14.6813C33.2459 14.6813 33.3043 14.7047 33.3483 14.7468C33.3924 14.7888 33.4186 14.8463 33.4218 14.9072Z" fill="#FF4848"/>
<path d="M33.4218 21.1243V24.541C33.4186 24.602 33.3924 24.6594 33.3483 24.7014C33.3043 24.7435 33.2459 24.7669 33.1852 24.7669C33.1245 24.7669 33.0662 24.7435 33.0221 24.7014C32.9781 24.6594 32.9519 24.602 32.9487 24.541V21.1243C32.9519 21.0633 32.9781 21.0059 33.0221 20.9638C33.0662 20.9218 33.1245 20.8983 33.1852 20.8983C33.2459 20.8983 33.3043 20.9218 33.3483 20.9638C33.3924 21.0059 33.4186 21.0633 33.4218 21.1243Z" fill="#FF4848"/>
<path d="M33.4218 27.3187V30.7348C33.4186 30.7957 33.3924 30.8532 33.3483 30.8952C33.3043 30.9373 33.2459 30.9607 33.1852 30.9607C33.1245 30.9607 33.0662 30.9373 33.0221 30.8952C32.9781 30.8532 32.9519 30.7957 32.9487 30.7348V27.3187C32.9519 27.2577 32.9781 27.2003 33.0221 27.1582C33.0662 27.1162 33.1245 27.0927 33.1852 27.0927C33.2459 27.0927 33.3043 27.1162 33.3483 27.1582C33.3924 27.2003 33.4186 27.2577 33.4218 27.3187Z" fill="#FF4848"/>
<path d="M22.3066 60.3296C22.9695 60.404 37.2802 61.9189 38.9718 62.089C36.1243 66.4371 33.1352 70.9831 30.8115 74.5744H22.3066C22.2442 74.5737 22.1845 74.5485 22.1403 74.504C22.0962 74.4596 22.0711 74.3996 22.0704 74.3368C21.9877 64.2322 22.0153 61.5068 22.051 60.7594C22.0617 60.5395 22.0867 60.288 22.3066 60.3296Z" fill="#2755A0"/>
<path d="M47.3973 68.2701C47.5151 68.6968 47.6592 69.1177 47.7732 69.5412C47.9619 70.3237 48.257 71.0763 48.6504 71.7776C49.1805 72.6344 49.9197 73.3406 50.7975 73.8292C51.6754 74.3178 52.6629 74.5725 53.6662 74.5692C53.5609 74.5799 54.606 74.5742 45.3837 74.5742C45.8937 72.7203 46.6061 70.4795 47.3973 68.2701Z" fill="#2755A0"/>
<path d="M15.9521 60.0989C18.3434 62.8481 19.9079 66.2248 20.4629 69.8348C20.701 71.4524 20.6841 73.198 19.6485 74.5484C19.619 74.5774 19.5826 74.5982 19.5428 74.6088C19.503 74.6194 19.4611 74.6195 19.4213 74.6089C19.3815 74.5984 19.345 74.5776 19.3155 74.5487C19.2861 74.5198 19.2646 74.4836 19.2531 74.4438C19.1278 73.975 15.5567 60.339 15.5567 60.3283C15.4991 60.1121 15.791 59.913 15.9521 60.0989Z" fill="black"/>
<path d="M27.0314 79.5954C29.1051 77.8618 31.8762 77.4025 34.4994 77.4346C37.5282 77.4742 40.5235 78.0787 43.3332 79.2173C43.3866 79.2343 43.4324 79.2698 43.4624 79.3174C43.4924 79.365 43.5047 79.4217 43.4973 79.4776C43.4898 79.5335 43.4629 79.5849 43.4214 79.6228C43.38 79.6607 43.3265 79.6827 43.2705 79.6849C42.7374 79.6994 27.2087 80 27.1993 80C27.1533 79.9986 27.1088 79.9839 27.0709 79.9576C27.033 79.9314 27.0035 79.8948 26.9858 79.8521C26.968 79.8094 26.9629 79.7625 26.971 79.717C26.9791 79.6715 27.0001 79.6293 27.0314 79.5954Z" fill="black"/>
<path d="M39.5662 47.422C41.2578 45.764 44.6591 42.4985 47.0261 42.5697C47.7606 42.5547 48.4868 42.7282 49.1361 43.0739C51.8546 44.5132 55.3762 48.0225 57.5658 52.9674C58.4956 55.0556 59.1998 57.2381 59.6665 59.4775C60.0903 61.8973 60.2685 64.3541 60.1984 66.8101C60.2163 67.0328 60.2163 67.2566 60.1984 67.4793C60.1747 66.0416 59.99 64.6111 59.6477 63.215C58.7819 59.5947 57.7319 57.5612 56.0321 55.401C54.3324 53.2409 51.7537 51.6787 49.0278 52.0814C47.2159 52.3486 45.9622 53.4885 44.6923 54.7721C43.2144 52.445 41.8442 49.6968 39.882 47.4421C39.8392 47.4002 39.7823 47.376 39.7225 47.3745C39.6628 47.373 39.6047 47.3942 39.5599 47.4339L39.5662 47.422Z" fill="#FF4848"/>
<path d="M19.7158 46.7283C19.4774 46.7197 19.2454 46.6487 19.0428 46.5222C18.8401 46.3957 18.6739 46.2182 18.5604 46.0072C18.447 45.7962 18.3903 45.559 18.396 45.3192C18.4018 45.0794 18.4697 44.8452 18.5931 44.6399C18.8307 44.2183 19.1409 43.8423 19.509 43.5296C20.2454 43.0263 21.0502 42.6328 21.8985 42.3613C22.3371 41.866 22.6955 41.0272 23.9347 40.6246C24.7483 40.3567 25.625 40.3531 26.4407 40.6145C27.3686 40.9277 28.2239 41.4263 28.9555 42.0802C30.5098 43.4463 31.8923 44.9984 33.0723 46.7018C34.2997 48.4662 34.7244 49.7707 36.1554 49.9597C36.6489 49.952 37.1233 49.7669 37.493 49.438C38.1596 48.8525 39.4533 47.4977 39.5523 47.434C39.5971 47.3943 39.6552 47.3731 39.7149 47.3746C39.7747 47.3761 39.8316 47.4003 39.8744 47.4422C41.841 49.702 43.1911 52.4205 44.6847 54.7722C43.7668 55.724 42.9044 56.7282 42.1016 57.78C38.174 59.5974 33.385 59.5444 29.7381 57.0868C26.9632 55.2165 24.7855 51.8496 23.1729 48.9042C22.8452 49.2918 22.4739 49.6399 22.0664 49.9414C21.5945 50.3835 20.981 50.6413 20.3366 50.668C20.058 50.6201 19.8019 50.4838 19.6058 50.279C19.4097 50.0743 19.2838 49.8118 19.2465 49.53C19.1745 48.8708 19.3209 48.2062 19.6632 47.6395C20.3392 46.3313 20.5973 46.8272 19.7158 46.7283Z" fill="#FC9070"/>
<path d="M25.4909 42.1792C24.7162 42.0572 23.9231 42.181 23.2216 42.5333C22.9378 42.6455 22.8144 42.1855 23.0963 42.0746C23.8777 41.6901 24.7606 41.566 25.6168 41.7204C25.9163 41.7715 25.7891 42.2296 25.4909 42.1792Z" fill="#FF4848"/>
<path d="M23.6818 45.4554C23.0944 45.5921 22.5306 45.8161 22.009 46.1203C21.955 46.15 21.8915 46.1573 21.8322 46.1408C21.7728 46.1242 21.7222 46.0851 21.6911 46.0317C21.66 45.9782 21.6507 45.9147 21.6654 45.8545C21.6801 45.7943 21.7175 45.7423 21.7697 45.7094C22.3219 45.3742 22.9254 45.1331 23.5558 44.9961C23.8528 44.9299 23.98 45.3893 23.6818 45.4554Z" fill="#FF4848"/>
<path d="M29.9698 75.8641C30.2555 75.4381 38.8662 62.2388 38.9708 62.0888C40.6571 59.5611 42.524 57.1601 44.5568 54.905C46.1318 53.2874 47.6123 51.9968 49.8734 52.0126C52.3412 52.0302 54.5264 53.4891 56.0307 55.3978C57.6521 57.4102 58.8078 59.7604 59.4138 62.2779C60.2026 65.2321 60.7765 69.2783 59.2334 71.9042C58.8219 72.5889 58.2638 73.1728 57.5998 73.6134C56.9358 74.054 56.1826 74.3402 55.3948 74.4513C52.9451 74.8231 51.355 74.3215 50.1133 73.38C48.7839 72.3718 48.2162 71.2022 47.7752 69.536C47.6624 69.1126 47.5183 68.6916 47.3993 68.265C46.0679 71.976 45.4677 74.2603 44.9922 76.0424C44.9785 76.0927 44.9488 76.1371 44.9076 76.1687C44.8664 76.2004 44.816 76.2175 44.7642 76.2176H30.174C30.1333 76.2166 30.0935 76.205 30.0584 76.1841C30.0234 76.1632 29.9942 76.1337 29.9737 76.0982C29.9532 76.0628 29.9421 76.0227 29.9414 75.9817C29.9407 75.9407 29.9505 75.9002 29.9698 75.8641Z" fill="#2755A0"/>
<path d="M37.4685 57.6648H35.2337C35.1731 57.6617 35.116 57.6352 35.0742 57.591C35.0324 57.5467 35.0091 57.488 35.0091 57.4269C35.0091 57.3659 35.0324 57.3071 35.0742 57.2629C35.116 57.2186 35.1731 57.1922 35.2337 57.189H37.4685C37.5291 57.1922 37.5862 57.2186 37.628 57.2629C37.6698 57.3071 37.6931 57.3659 37.6931 57.4269C37.6931 57.488 37.6698 57.5467 37.628 57.591C37.5862 57.6352 37.5291 57.6617 37.4685 57.6648Z" fill="#FF4848"/>
<path d="M44.2066 37.2456C44.4637 36.9581 44.791 36.7433 45.1562 36.6224C45.5213 36.5014 45.9115 36.4786 46.2881 36.5562C46.6647 36.6338 47.0145 36.809 47.303 37.0646C47.5914 37.3202 47.8084 37.6472 47.9325 38.0131C48.01 38.2745 48.0329 38.5492 47.9995 38.8198C47.9662 39.0905 47.8775 39.3513 47.7389 39.5857C47.6003 39.8202 47.4149 40.0232 47.1944 40.1819C46.9738 40.3406 46.723 40.4516 46.4577 40.5079C46.0301 40.5816 45.5905 40.534 45.1882 40.3705C44.786 40.207 44.437 39.934 44.1803 39.5822C43.9163 39.2493 43.7748 38.835 43.7796 38.4092C43.7844 37.9834 43.9352 37.5724 44.2066 37.2456Z" fill="#FC9070"/>
<path d="M41.9833 32.9264C42.0698 31.7461 43.4794 31.346 44.5382 31.9018C45.5459 32.5437 46.3502 33.462 46.8563 34.5484C47.1069 35.004 47.3895 35.4401 47.6438 35.8932C47.6641 35.9294 47.6747 35.9704 47.6746 36.012C47.6744 36.0536 47.6635 36.0945 47.6429 36.1306C47.6223 36.1667 47.5927 36.1968 47.5571 36.2179C47.5214 36.239 47.4809 36.2505 47.4396 36.2511C46.7504 36.2139 46.0613 36.1572 45.3784 36.0703C44.8408 36.0105 44.3149 35.8712 43.8177 35.6569C43.2837 35.4268 42.8268 35.047 42.5015 34.5628C42.1763 34.0787 41.9964 33.5106 41.9833 32.9264Z" fill="black"/>
<path d="M30.7444 22.818L28.333 20.9408C28.2888 20.8959 28.264 20.8354 28.264 20.7722C28.264 20.7091 28.2888 20.6485 28.333 20.6037C28.3779 20.5601 28.4379 20.5358 28.5003 20.5358C28.5627 20.5358 28.6226 20.5601 28.6676 20.6037C28.6676 20.6037 31.2062 22.5685 31.2889 22.6441C31.4768 22.8451 31.2826 22.9957 31.1379 23.1085L28.6644 25.0318C28.6192 25.0747 28.5593 25.0986 28.4971 25.0986C28.4349 25.0986 28.3751 25.0747 28.3299 25.0318C28.2856 24.9871 28.2607 24.9266 28.2607 24.8635C28.2607 24.8004 28.2856 24.7399 28.3299 24.6953C29.1376 24.0693 29.9425 23.4436 30.7444 22.818Z" fill="black"/>
<path d="M30.7444 16.6143L28.333 14.7371C28.2887 14.6924 28.2638 14.6319 28.2638 14.5688C28.2638 14.5058 28.2887 14.4452 28.333 14.4006C28.3779 14.3569 28.4378 14.3325 28.5003 14.3325C28.5627 14.3325 28.6227 14.3569 28.6676 14.4006C29.4532 15.0118 31.2062 16.3654 31.2889 16.4404C31.4768 16.6414 31.2826 16.7927 31.1379 16.9055L28.6644 18.8281C28.6193 18.8713 28.5594 18.8954 28.4971 18.8954C28.4349 18.8954 28.375 18.8713 28.3299 18.8281C28.2856 18.7834 28.2607 18.7229 28.2607 18.6598C28.2607 18.5967 28.2856 18.5362 28.3299 18.4916L30.7444 16.6143Z" fill="black"/>
<path d="M30.7444 10.2687L28.333 8.39145C28.2887 8.34679 28.2638 8.28628 28.2638 8.2232C28.2638 8.16011 28.2887 8.0996 28.333 8.05494C28.3779 8.01143 28.4379 7.98712 28.5003 7.98712C28.5627 7.98712 28.6226 8.01143 28.6676 8.05494C29.4532 8.6662 31.2062 10.0198 31.2889 10.0954C31.4768 10.2958 31.2826 10.447 31.1379 10.5598L28.6644 12.4831C28.6191 12.5262 28.559 12.5503 28.4965 12.5503C28.4341 12.5503 28.374 12.5262 28.3286 12.4831C28.3066 12.461 28.2891 12.4348 28.2772 12.4059C28.2653 12.377 28.2592 12.3461 28.2592 12.3148C28.2592 12.2836 28.2653 12.2526 28.2772 12.2237C28.2891 12.1949 28.3066 12.1686 28.3286 12.1466L30.7444 10.2687Z" fill="black"/>
<path d="M6.6119 22.5245L9.08223 20.6012C9.12746 20.5583 9.18731 20.5344 9.24951 20.5344C9.31171 20.5344 9.37155 20.5583 9.41679 20.6012C9.46113 20.646 9.48602 20.7066 9.48602 20.7698C9.48602 20.833 9.46113 20.8936 9.41679 20.9384L7.00472 22.815L9.41679 24.6928C9.46109 24.7375 9.48597 24.798 9.48597 24.8611C9.48597 24.9242 9.46109 24.9847 9.41679 25.0293C9.37184 25.0729 9.31189 25.0972 9.24951 25.0972C9.18713 25.0972 9.12717 25.0729 9.08223 25.0293C9.08223 25.0293 6.54361 23.0645 6.46091 22.9889C6.27547 22.7904 6.46718 22.6398 6.6119 22.5245Z" fill="black"/>
<path d="M8.8548 16.7861C8.66685 16.5851 8.86107 16.4338 9.00579 16.3216L11.4761 14.3984C11.5214 14.3555 11.5812 14.3315 11.6434 14.3315C11.7056 14.3315 11.7654 14.3555 11.8107 14.3984C11.855 14.4431 11.8799 14.5036 11.8799 14.5667C11.8799 14.6297 11.855 14.6903 11.8107 14.7349L9.39924 16.6121L11.8119 18.4913C11.8563 18.536 11.8812 18.5967 11.8812 18.6598C11.8812 18.723 11.8563 18.7837 11.8119 18.8284C11.7669 18.8718 11.707 18.896 11.6447 18.896C11.5823 18.896 11.5224 18.8718 11.4774 18.8284C10.6905 18.2146 8.9375 16.8617 8.8548 16.7861Z" fill="black"/>
<path d="M14.4794 10.2685L16.8915 12.1457C16.9357 12.1905 16.9605 12.2511 16.9605 12.3143C16.9605 12.3774 16.9357 12.438 16.8915 12.4828C16.8465 12.5262 16.7866 12.5504 16.7242 12.5504C16.6619 12.5504 16.602 12.5262 16.557 12.4828C15.7713 11.8709 14.0183 10.518 13.9356 10.4424C13.7477 10.2414 13.9419 10.0901 14.0866 9.97732L16.557 8.05471C16.6021 8.01163 16.662 7.98761 16.7242 7.98761C16.7865 7.98761 16.8463 8.01163 16.8915 8.05471C16.9358 8.09937 16.9607 8.15987 16.9607 8.22296C16.9607 8.28605 16.9358 8.34656 16.8915 8.39121L14.4794 10.2685Z" fill="black"/>
<path d="M19.9452 8.25646C20.3446 8.10914 20.7803 8.09377 21.189 8.21258C21.5977 8.3314 21.9581 8.57821 22.2178 8.91715C22.4775 9.25609 22.6229 9.66949 22.633 10.0973C22.6431 10.5251 22.5173 10.9449 22.2738 11.2959C22.0304 11.6468 21.6821 11.9105 21.2794 12.0487C20.8768 12.1868 20.4408 12.1923 20.0349 12.0641C19.629 11.936 19.2743 11.681 19.0224 11.3362C18.7704 10.9915 18.6343 10.5748 18.6339 10.1469C18.6332 9.73458 18.7587 9.33199 18.9933 8.9938C19.2279 8.6556 19.5602 8.39818 19.9452 8.25646Z" fill="#CCEAFF"/>
<path d="M36.7709 1.47724C38.0692 2.2368 39.1089 3.3733 39.7538 4.73768C39.8866 5.01179 39.4781 5.25378 39.3453 4.97777C38.72 3.69845 37.7439 2.62574 36.5322 1.88621C36.4812 1.85286 36.4449 1.80101 36.4308 1.74144C36.4168 1.68186 36.4261 1.61913 36.4568 1.56627C36.4875 1.5134 36.5373 1.47446 36.5958 1.45753C36.6543 1.4406 36.717 1.44698 36.7709 1.47534V1.47724Z" fill="black"/>
<path d="M37.1626 0.0279465C38.9147 0.851488 40.3123 2.28362 41.0983 4.06096C41.2236 4.33886 40.8126 4.58147 40.6899 4.30168C39.9412 2.59637 38.6032 1.22192 36.9239 0.433139C36.6476 0.306478 36.8882 -0.104387 37.1626 0.0279465Z" fill="black"/>
<path d="M62.3451 56.6047C63.1538 59.3574 63.4347 62.2397 63.1727 65.0979C63.1464 65.4004 62.6715 65.4036 62.6997 65.0979C62.9102 62.2825 62.6347 59.4516 61.8852 56.7307C61.8695 56.6701 61.8782 56.6057 61.9094 56.5514C61.9405 56.4972 61.9917 56.4575 62.0518 56.4409C62.1118 56.4243 62.176 56.4322 62.2303 56.4629C62.2846 56.4935 62.3247 56.5445 62.342 56.6047H62.3451Z" fill="black"/>
<path d="M63.8566 56.4932C65.0382 59.4889 65.1528 61.9793 64.8715 65.098C64.8446 65.4005 64.3703 65.4036 64.3985 65.098C64.7412 61.2931 64.3421 59.0188 63.3998 56.6198C63.2877 56.3344 63.745 56.2109 63.8566 56.4932Z" fill="black"/>
<path d="M0.688786 44.5402L4.32755 47.4056C4.56751 47.5946 4.23045 47.9292 3.993 47.7427L0.354228 44.8767C0.114274 44.6877 0.451339 44.3531 0.688786 44.5402Z" fill="black"/>
<path d="M3.97068 50.1405C4.2075 49.9515 4.54519 50.2886 4.30524 50.477L1.05741 53.0317C0.819966 53.2207 0.482906 52.8842 0.722859 52.6952C1.80642 51.8449 2.88902 50.9933 3.97068 50.1405Z" fill="black"/>
<path d="M36.7838 8.36983V33.3147C36.7896 33.9086 36.6759 34.4976 36.4497 35.0463C36.2234 35.595 35.8892 36.092 35.4672 36.5075C35.0452 36.9229 34.544 37.2483 33.9938 37.4641C33.4436 37.6798 32.8557 37.7815 32.2654 37.763C8.33961 37.8014 5.66128 37.8064 4.96335 37.6842C4.02051 37.5036 3.16495 37.0107 2.53323 36.2839C1.90151 35.5571 1.53003 34.6384 1.47808 33.6745C1.46618 33.4754 1.36092 30.501 1.47056 8.80842C1.45793 8.25235 1.49989 7.69637 1.59586 7.14859C1.83227 6.24129 2.35927 5.4376 3.09538 4.8618C3.83149 4.286 4.73569 3.97017 5.66818 3.96314H32.432C33.0115 3.94284 33.5888 4.04317 34.1279 4.25784C34.6669 4.4725 35.1561 4.79688 35.5647 5.21062C35.9733 5.62436 36.2924 6.11854 36.5022 6.66218C36.712 7.20581 36.8079 7.78719 36.7838 8.36983ZM32.5862 4.43954H5.66755C4.72534 4.44773 3.82054 4.81154 3.13237 5.45891C2.44419 6.10628 2.02283 6.98999 1.95172 7.93502C1.9323 8.2501 1.93355 33.5403 1.96989 33.8919C2.08255 34.8289 2.53283 35.6919 3.23549 36.3175C3.93815 36.943 4.84444 37.2878 5.78283 37.2865H32.2986C32.8049 37.3071 33.3103 37.2271 33.7858 37.0511C34.2614 36.8751 34.6978 36.6066 35.0701 36.2609C35.4425 35.9152 35.7435 35.4992 35.9559 35.0365C36.1684 34.5737 36.2881 34.0735 36.3083 33.5642C36.312 33.4489 36.3083 33.3329 36.3083 33.2176V8.33707C36.3261 7.83308 36.2432 7.33062 36.0642 6.85953C35.8853 6.38843 35.6141 5.9583 35.2666 5.59469C34.9192 5.23108 34.5027 4.9414 34.0418 4.74286C33.5809 4.54431 33.085 4.44095 32.5837 4.4389L32.5862 4.43954Z" fill="black"/>
<path d="M23.2665 18.2072C23.1875 18.2526 23.4914 18.3547 19.0569 18.2381C19.0161 18.2362 18.9764 18.224 18.9414 18.2025C18.9065 18.1811 18.8775 18.1512 18.8571 18.1156C18.8367 18.0799 18.8255 18.0396 18.8247 17.9985C18.8238 17.9574 18.8332 17.9167 18.8521 17.8802C19.4247 16.8316 20.8162 14.4893 20.9008 14.3437C20.9336 14.2894 20.9866 14.2503 21.048 14.2352C21.1094 14.2201 21.1743 14.2301 21.2284 14.2631C21.308 14.311 21.152 14.074 23.3586 17.8802C23.374 17.9077 23.3838 17.938 23.3876 17.9694C23.3913 18.0008 23.3888 18.0326 23.3802 18.063C23.3716 18.0934 23.3572 18.1218 23.3377 18.1466C23.3181 18.1713 23.2939 18.1919 23.2665 18.2072ZM21.105 14.9367L19.4686 17.7623H22.7414L21.105 14.9367Z" fill="black"/>
<path d="M17.961 18.2073C17.8821 18.2526 18.1853 18.3547 13.7509 18.2381C13.71 18.2363 13.6703 18.2241 13.6353 18.2027C13.6004 18.1812 13.5714 18.1513 13.551 18.1156C13.5307 18.0799 13.5196 18.0396 13.5188 17.9985C13.518 17.9573 13.5276 17.9167 13.5466 17.8802C14.1193 16.8316 15.5107 14.4893 15.5947 14.3438C15.611 14.3168 15.6324 14.2933 15.6577 14.2746C15.683 14.2559 15.7117 14.2424 15.7422 14.2349C15.7727 14.2275 15.8044 14.2261 15.8354 14.2309C15.8664 14.2358 15.8962 14.2467 15.923 14.2631C16.0113 14.3167 15.8691 14.1251 18.0531 17.8802C18.0685 17.9078 18.0782 17.9381 18.0819 17.9694C18.0856 18.0008 18.0831 18.0326 18.0745 18.063C18.066 18.0933 18.0515 18.1217 18.0321 18.1465C18.0126 18.1712 17.9884 18.1919 17.961 18.2073ZM15.7989 14.9367L14.1625 17.7624H17.4354L15.7989 14.9367Z" fill="black"/>
<path d="M19.1957 20.8993H22.3659C22.4283 20.9003 22.4879 20.9257 22.532 20.9702C22.5761 21.0147 22.6012 21.0747 22.6021 21.1375V24.3255C22.6012 24.3883 22.5761 24.4483 22.532 24.4928C22.4879 24.5373 22.4283 24.5627 22.3659 24.5637C18.806 24.5889 19.1418 24.5895 19.0291 24.4925C18.9282 24.3841 18.9351 24.592 18.9589 21.1375C18.9597 21.0746 18.9849 21.0145 19.0292 20.97C19.0734 20.9255 19.1332 20.9001 19.1957 20.8993ZM19.4325 24.0873H22.1265V21.3776H19.4325V24.0873Z" fill="black"/>
<path d="M14.4274 20.9024L16.4755 24.4388C16.491 24.4663 16.5009 24.4965 16.5047 24.5279C16.5085 24.5592 16.5061 24.591 16.4977 24.6214C16.4892 24.6518 16.4749 24.6802 16.4555 24.705C16.4361 24.7298 16.412 24.7505 16.3847 24.7659C16.3013 24.8132 16.5664 24.7968 12.1745 24.7968C12.1338 24.7946 12.0942 24.7822 12.0595 24.7607C12.0247 24.7392 11.9959 24.7093 11.9756 24.6737C11.9553 24.6381 11.9442 24.598 11.9432 24.5569C11.9423 24.5159 11.9516 24.4753 11.9703 24.4388C11.9703 24.4388 13.9344 21.0473 14.019 20.9024C14.0402 20.867 14.0702 20.8378 14.106 20.8175C14.1418 20.7972 14.1821 20.7866 14.2232 20.7866C14.2643 20.7866 14.3047 20.7972 14.3404 20.8175C14.3762 20.8378 14.4062 20.867 14.4274 20.9024ZM15.8596 24.3204L14.2232 21.4954L12.5861 24.3204H15.8596Z" fill="black"/>
<path d="M24.1208 20.7871L27.3354 24.0205C27.3765 24.0658 27.3986 24.1252 27.3972 24.1865C27.3957 24.2477 27.3709 24.3061 27.3279 24.3494C27.2848 24.3927 27.2268 24.4177 27.1659 24.4191C27.105 24.4205 27.0459 24.3983 27.0009 24.357C25.9107 23.2983 24.839 22.2205 23.7856 21.1236C23.7425 21.0787 23.7186 21.0185 23.7192 20.956C23.7197 20.8935 23.7447 20.8337 23.7887 20.7896C23.8326 20.7454 23.8921 20.7204 23.9542 20.72C24.0164 20.7195 24.0762 20.7436 24.1208 20.7871Z" fill="black"/>
<path d="M27.0009 11.9749C25.9107 10.9163 24.839 9.83827 23.7856 8.74096C23.7425 8.696 23.7186 8.63579 23.7192 8.5733C23.7197 8.5108 23.7447 8.45104 23.7887 8.40689C23.8326 8.36274 23.8921 8.33774 23.9542 8.33729C24.0164 8.33683 24.0762 8.36095 24.1208 8.40445L27.3354 11.6384C27.3765 11.6837 27.3986 11.7431 27.3972 11.8044C27.3957 11.8656 27.3709 11.924 27.3279 11.9673C27.2848 12.0106 27.2268 12.0356 27.1659 12.037C27.105 12.0384 27.0459 12.0162 27.0009 11.9749Z" fill="black"/>
<path d="M27.0008 18.1907C25.9111 17.1308 24.8393 16.0528 23.7855 14.9568C23.7423 14.9118 23.7185 14.8516 23.719 14.7891C23.7196 14.7266 23.7446 14.6669 23.7886 14.6227C23.8325 14.5786 23.892 14.5536 23.9541 14.5531C24.0163 14.5527 24.0761 14.5768 24.1207 14.6203C25.2096 15.6802 26.2811 16.758 27.3353 17.8536C27.3786 17.8985 27.4025 17.9587 27.4021 18.0211C27.4016 18.0836 27.3768 18.1435 27.3329 18.1877C27.289 18.2319 27.2296 18.257 27.1674 18.2576C27.1053 18.2582 27.0455 18.2342 27.0008 18.1907Z" fill="black"/>
<path d="M33.1755 12.2673C33.1156 12.2653 33.0587 12.2405 33.0162 12.1979C32.9738 12.1553 32.949 12.0982 32.9468 12.0379V8.62183C32.9499 8.56085 32.9762 8.50341 33.0202 8.46136C33.0642 8.41932 33.1226 8.39587 33.1833 8.39587C33.244 8.39587 33.3024 8.41932 33.3464 8.46136C33.3904 8.50341 33.4167 8.56085 33.4198 8.62183V12.0379C33.4187 12.0691 33.4116 12.0998 33.3987 12.1282C33.3859 12.1566 33.3676 12.1822 33.3449 12.2035C33.3222 12.2248 33.2956 12.2414 33.2665 12.2524C33.2374 12.2633 33.2065 12.2684 33.1755 12.2673Z" fill="black"/>
<path d="M33.1755 18.5545C33.1155 18.5525 33.0585 18.5276 33.016 18.4849C32.9736 18.4422 32.9488 18.3849 32.9468 18.3245V14.9072C32.9499 14.8462 32.9762 14.7888 33.0202 14.7467C33.0642 14.7047 33.1226 14.6812 33.1833 14.6812C33.244 14.6812 33.3024 14.7047 33.3464 14.7467C33.3904 14.7888 33.4167 14.8462 33.4198 14.9072V18.3233C33.4189 18.3546 33.4119 18.3854 33.3991 18.414C33.3863 18.4426 33.3681 18.4684 33.3454 18.4899C33.3227 18.5114 33.296 18.5282 33.2668 18.5393C33.2377 18.5503 33.2066 18.5555 33.1755 18.5545Z" fill="black"/>
<path d="M33.1742 24.7703C33.1145 24.768 33.0579 24.743 33.0158 24.7005C32.9736 24.6579 32.949 24.601 32.9468 24.5409V21.1242C32.9499 21.0632 32.9762 21.0058 33.0202 20.9637C33.0642 20.9217 33.1226 20.8983 33.1833 20.8983C33.244 20.8983 33.3024 20.9217 33.3464 20.9637C33.3904 21.0058 33.4167 21.0632 33.4198 21.1242V24.5409C33.4187 24.5722 33.4114 24.603 33.3985 24.6314C33.3855 24.6599 33.3671 24.6855 33.3443 24.7068C33.3215 24.7281 33.2947 24.7447 33.2655 24.7556C33.2363 24.7665 33.2053 24.7715 33.1742 24.7703Z" fill="black"/>
<path d="M33.1755 30.9649C33.1155 30.9627 33.0586 30.9378 33.0162 30.8951C32.9738 30.8524 32.949 30.7952 32.9468 30.7349V27.3188C32.9499 27.2578 32.9762 27.2004 33.0202 27.1583C33.0642 27.1163 33.1226 27.0928 33.1833 27.0928C33.244 27.0928 33.3024 27.1163 33.3464 27.1583C33.3904 27.2004 33.4167 27.2578 33.4198 27.3188V30.7349C33.4177 30.798 33.3908 30.8576 33.3449 30.9007C33.2991 30.9438 33.2382 30.9669 33.1755 30.9649Z" fill="black"/>
<path d="M22.3046 60.3295C22.9675 60.4039 37.2782 61.9188 38.9698 62.0889C40.0286 60.5627 40.9677 59.2532 42.1067 57.7799C39.8102 58.8428 37.2663 59.2469 34.7559 58.9476C32.2625 58.6422 29.935 57.5312 28.123 55.7816C28.123 55.7816 16.3973 55.7816 16.2482 55.7816C14.854 55.7723 13.4812 55.4361 12.2388 54.7997C10.9964 54.1634 9.91855 53.2445 9.09092 52.116C8.51203 51.2735 9.19618 52.1248 3.61773 42.83C3.37508 42.4326 3.24237 41.9772 3.23335 41.511C3.22432 41.0447 3.3393 40.5845 3.56639 40.1779C3.79349 39.7713 4.12445 39.4331 4.52504 39.1983C4.92564 38.9635 5.38133 38.8406 5.84498 38.8424H31.5538C32.5394 38.805 33.5251 38.9143 34.479 39.1669C36.8221 39.8758 38.2725 41.3598 39.4234 43.544L39.8538 44.2825L39.8576 44.2976C39.907 44.3676 39.9064 44.3733 40.9308 46.1301C42.1592 44.9381 43.5378 43.9133 45.0313 43.0821C45.6626 42.7444 46.3664 42.5672 47.0815 42.5657C47.7965 42.5643 48.501 42.7388 49.1337 43.0739C53.1703 45.1956 57.8954 50.9124 59.6647 59.4763C60.0892 61.8959 60.2676 64.3528 60.1972 66.8088C60.3459 68.5659 60.011 70.3303 59.2292 71.9087C58.8186 72.5941 58.2608 73.1786 57.5966 73.6193C56.9324 74.06 56.1787 74.3458 55.3906 74.4558C54.3882 74.6202 54.5674 74.5755 45.379 74.5755C45.2424 75.0651 45.1202 75.5579 44.9899 76.0488C44.9759 76.099 44.946 76.1433 44.9047 76.1749C44.8635 76.2065 44.8131 76.2237 44.7612 76.224H30.1723C30.131 76.2232 30.0905 76.2117 30.0548 76.1905C30.0192 76.1692 29.9897 76.1391 29.9691 76.103C29.9485 76.0668 29.9376 76.026 29.9374 75.9843C29.9373 75.9427 29.9478 75.9017 29.9681 75.8654C30.2538 75.4394 30.532 75.0065 30.8089 74.5755H22.3046C22.2422 74.5747 22.1826 74.5494 22.1385 74.505C22.0944 74.4606 22.0692 74.4007 22.0684 74.3379V60.569C22.065 60.5368 22.0688 60.5044 22.0794 60.4739C22.09 60.4434 22.1073 60.4157 22.1299 60.3927C22.1525 60.3698 22.18 60.3522 22.2102 60.3413C22.2404 60.3303 22.2727 60.3263 22.3046 60.3295ZM29.428 56.277C32.9265 58.9463 38.0776 59.4511 42.7815 56.926C43.2827 56.3059 43.8064 55.7035 44.3546 55.1263C42.7884 52.6687 41.5629 50.1556 39.6947 47.9626C39.122 48.5298 38.5632 49.1228 37.9617 49.6641C37.6741 49.9709 37.3108 50.1956 36.9088 50.3155C36.5069 50.4354 36.0805 50.4461 35.6731 50.3465C34.7782 49.9711 34.0487 49.2826 33.6194 48.4082C32.5386 46.6106 31.2425 44.9532 29.7601 43.4734C29.068 42.7495 28.2911 42.1128 27.4464 41.5772C25.981 40.6635 23.901 40.5841 22.8015 41.9522C22.6762 42.111 22.5728 42.2881 22.4469 42.4488C22.2282 42.8111 22.0008 42.8269 21.6286 42.9812C21.2953 43.1167 20.9677 43.2667 20.6394 43.4135C20.3579 43.5354 20.0905 43.6878 19.8418 43.8679C19.3619 44.2932 18.5594 45.0771 18.9772 45.7854C19.4158 46.5246 20.4307 46.2631 21.0447 45.9663C21.2684 45.8585 21.5566 46.1591 21.3317 46.34C20.8084 46.757 20.3796 47.2814 20.0736 47.8782C19.7879 48.439 19.4866 49.233 19.8569 49.8222C19.9276 49.9494 20.0342 50.0526 20.1632 50.1188C20.2922 50.1851 20.4378 50.2115 20.5817 50.1947C20.9166 50.1135 21.231 49.9633 21.5052 49.7536C22.0814 49.3811 22.59 48.9123 23.0088 48.3672C23.0303 48.3322 23.0604 48.3032 23.0961 48.2831C23.1319 48.2631 23.1721 48.2525 23.2131 48.2525C23.254 48.2525 23.2943 48.2631 23.33 48.2831C23.3658 48.3032 23.3958 48.3322 23.4173 48.3672C25.0976 51.2073 26.7666 54.246 29.428 56.277ZM7.78026 49.0364C7.83289 49.1102 7.85983 49.1625 8.76075 50.7095C9.49322 52.1058 10.593 53.2728 11.9401 54.0832C13.2871 54.8935 14.8296 55.3161 16.3992 55.3046H27.6387C25.8943 53.3644 24.3957 51.214 23.1774 48.9028C22.8492 49.29 22.478 49.638 22.0709 49.9401C21.5989 50.3819 20.9854 50.6396 20.3412 50.6667C20.0625 50.6187 19.8064 50.4824 19.6103 50.2777C19.4142 50.0729 19.2883 49.8104 19.251 49.5286C19.179 48.8695 19.3254 48.2049 19.6677 47.6381C19.836 47.3093 20.0405 47.0005 20.2772 46.7174C18.8363 46.955 17.9529 45.6626 18.5913 44.6417C18.5913 44.6417 5.55991 44.6449 5.22348 44.6417L7.78903 49.0415L7.78026 49.0364ZM38.5112 42.9201C37.8748 41.8236 36.9638 40.914 35.8691 40.2818C34.7744 39.6496 33.5341 39.3169 32.2718 39.3169C32.1527 39.3169 6.05047 39.298 5.56117 39.3307C5.04704 39.399 4.57492 39.6523 4.23224 40.0438C3.88955 40.4353 3.69951 40.9384 3.6973 41.46C3.6973 42.2509 4.22983 42.9365 4.61138 43.5912L4.94468 44.1634H18.9021C19.0849 43.9346 19.2874 43.7225 19.5073 43.5295C20.0136 43.1576 20.5726 42.8645 21.1656 42.6599C21.3962 42.5622 21.9175 42.3511 21.9175 42.3511C22.1998 41.9336 22.5237 41.5462 22.8842 41.1947C23.3887 40.8189 23.9754 40.5701 24.5952 40.4691C25.215 40.3682 25.8498 40.418 26.4465 40.6144C27.3741 40.9281 28.2294 41.4266 28.9613 42.0801C29.7116 42.7239 30.4158 43.4201 31.0689 44.1634C31.0689 44.1634 38.8971 44.1458 39.2292 44.1489L38.5112 42.9201ZM39.5136 44.6398H31.4711C32.378 45.6888 33.1977 46.8109 33.922 47.9948C34.1756 48.4312 34.4692 48.8428 34.7991 49.2242C35.1494 49.6281 35.6341 49.8896 36.1624 49.9596C36.6565 49.9553 37.1321 49.7697 37.5 49.4378C38.1892 48.8468 39.4196 47.5177 39.6063 47.4018C39.5895 47.4108 39.5738 47.4215 39.5593 47.4339C39.6013 47.3709 40.5123 46.5164 40.5762 46.4572C40.2347 45.8768 39.7629 45.0664 39.5142 44.643L39.5136 44.6398ZM46.9427 43.0367C46.4158 43.0409 45.8974 43.1705 45.4297 43.4148C44.8218 43.7058 44.2425 44.0538 43.6993 44.4539C42.4062 45.4115 41.1877 46.4669 40.0543 47.611C41.972 49.85 43.329 52.5527 44.7136 54.7495C45.9604 53.4816 47.2742 52.3284 49.024 52.0839L49.2157 51.9465C50.3911 51.078 51.1904 49.7889 51.4486 48.3451C51.7813 46.0854 49.3047 43.0455 46.9434 43.0367H46.9427ZM57.9067 55.0664C56.4982 50.9479 53.9624 47.313 50.5909 44.58C51.4363 45.5132 51.9205 46.7207 51.9555 47.9828C51.8885 48.7591 51.67 49.5144 51.3126 50.2057C50.9552 50.897 50.4657 51.5106 49.8723 52.0114C52.4253 52.0473 54.6494 53.5981 56.029 55.396C57.8325 57.676 59.0719 60.3541 59.6452 63.21C59.4998 60.4198 58.9131 57.6708 57.9073 55.0664H57.9067ZM51.3446 74.0972C50.2264 73.6252 49.2826 72.8138 48.645 71.7763C48.2518 71.0749 47.9566 70.3224 47.7679 69.5399C47.6551 69.1164 47.511 68.6955 47.392 68.2695C46.7014 70.1906 46.0745 72.1342 45.5124 74.0972H51.3446ZM30.6122 75.7451C30.6122 75.7451 44.4417 75.7369 44.5833 75.7394C45.3175 72.9141 46.1935 70.1279 47.2078 67.3917C47.2817 67.1919 47.6137 67.1396 47.6645 67.3917C47.7685 67.9147 47.9408 68.4314 48.0874 68.9438C48.2664 69.7224 48.5251 70.4803 48.8592 71.2054C49.3412 72.1187 50.0707 72.8758 50.9632 73.3889C51.8556 73.9019 52.8744 74.15 53.9014 74.1041C57.4199 74.0966 59.4855 72.2471 59.7029 68.3067C59.7435 65.2301 59.1278 62.1804 57.8973 59.3635C56.9968 57.2855 55.635 55.4426 53.9164 53.9762C52.2662 52.6598 49.7978 51.9969 47.7541 52.9629C47.0668 53.3096 46.4336 53.7555 45.8746 54.2863C41.0122 58.9053 35.7652 67.9172 30.6128 75.7463L30.6122 75.7451ZM22.5483 74.0972H31.119C34.6989 68.519 36.143 66.2032 38.6559 62.537C37.6848 62.4399 22.5415 60.8311 22.5415 60.8311C22.5415 75.9833 22.5389 73.4696 22.549 74.0985L22.5483 74.0972Z" fill="black"/>
<path d="M19.2522 74.4438C19.1269 73.9737 15.5558 60.3389 15.5558 60.3282C15.4982 60.1102 15.7901 59.9111 15.9512 60.097C18.3412 62.847 19.9055 66.2234 20.462 69.8329C20.6976 71.4505 20.6832 73.1961 19.6476 74.5465C19.6183 74.5755 19.582 74.5964 19.5423 74.6071C19.5026 74.6178 19.4608 74.618 19.421 74.6077C19.3812 74.5974 19.3447 74.5768 19.3151 74.5481C19.2856 74.5194 19.2639 74.4834 19.2522 74.4438ZM20.0084 69.9615C19.5318 66.7897 18.2512 63.7948 16.2901 61.2653C16.2901 61.2653 19.5699 73.7808 19.5768 73.8054C20.1351 72.6061 20.2867 71.2558 20.0084 69.9615Z" fill="black"/>
<path d="M43.3311 79.2173C43.3846 79.2343 43.4303 79.2698 43.4604 79.3174C43.4904 79.365 43.5027 79.4217 43.4952 79.4776C43.4878 79.5335 43.4609 79.5849 43.4194 79.6228C43.378 79.6607 43.3245 79.6827 43.2685 79.6849L27.1973 80C27.151 79.9988 27.1061 79.9841 27.0679 79.9577C27.0298 79.9313 27.0001 79.8944 26.9824 79.8514C26.9647 79.8084 26.9597 79.7611 26.9682 79.7154C26.9766 79.6696 26.9981 79.6273 27.03 79.5935C31.014 76.2657 38.5415 77.2802 43.3311 79.2173ZM42.0155 79.2337C37.8805 77.8014 31.5528 77.0433 27.9272 79.5116L42.0155 79.2337Z" fill="black"/>
<path d="M23.0952 42.0745C23.8767 41.6911 24.759 41.5671 25.615 41.7204C25.9151 41.7702 25.7879 42.2289 25.4897 42.1791C24.7153 42.0567 23.9222 42.1805 23.2211 42.5333C22.9367 42.6448 22.8133 42.1854 23.0952 42.0745Z" fill="black"/>
<path d="M21.6864 46.0237C21.6578 45.9705 21.6503 45.9083 21.6656 45.8498C21.6808 45.7913 21.7176 45.7408 21.7685 45.7086C22.3229 45.3778 22.9257 45.1371 23.5547 44.9953C23.8517 44.9323 23.9788 45.3891 23.68 45.4547C23.0927 45.5916 22.5289 45.8156 22.0072 46.1195C21.9799 46.1345 21.95 46.144 21.919 46.1473C21.8881 46.1506 21.8568 46.1477 21.827 46.1388C21.7972 46.1299 21.7694 46.1152 21.7453 46.0954C21.7211 46.0756 21.7012 46.0513 21.6864 46.0237Z" fill="black"/>
<path d="M35.2331 57.1888H37.4679C37.5285 57.1919 37.5856 57.2184 37.6274 57.2626C37.6692 57.3069 37.6925 57.3656 37.6925 57.4267C37.6925 57.4877 37.6692 57.5464 37.6274 57.5907C37.5856 57.635 37.5285 57.6614 37.4679 57.6646H35.2331C35.1725 57.6614 35.1154 57.635 35.0736 57.5907C35.0318 57.5464 35.0085 57.4877 35.0085 57.4267C35.0085 57.3656 35.0318 57.3069 35.0736 57.2626C35.1154 57.2184 35.1725 57.1919 35.2331 57.1888Z" fill="black"/>
<path d="M46.5881 40.4746C46.1438 40.5827 45.6776 40.5556 45.2487 40.3967C44.8198 40.2378 44.4475 39.9544 44.1791 39.5823C43.9152 39.2494 43.7736 38.835 43.7784 38.4092C43.7832 37.9835 43.934 37.5724 44.2054 37.2456C44.398 37.0279 44.6315 36.8507 44.8925 36.7243C45.1535 36.5978 45.4369 36.5247 45.7262 36.509C46.0155 36.4934 46.305 36.5356 46.578 36.6331C46.851 36.7307 47.102 36.8817 47.3167 37.0774C47.5896 37.3069 47.795 37.607 47.9106 37.9454C48.0263 38.2838 48.0477 38.6476 47.9727 38.9974C47.8977 39.3471 47.729 39.6696 47.485 39.93C47.241 40.1904 46.9308 40.3787 46.5881 40.4746ZM47.5216 38.32C47.4585 38.0346 47.3245 37.77 47.132 37.5509C46.9395 37.3318 46.6949 37.1655 46.4211 37.0674C46.1472 36.9694 45.8531 36.9429 45.5663 36.9904C45.2795 37.0378 45.0094 37.1578 44.7812 37.3389C44.5191 37.5403 44.3392 37.8311 44.2751 38.1566C44.2111 38.482 44.2674 38.8198 44.4335 39.1065C44.6144 39.4416 44.8938 39.7123 45.2335 39.8815C45.5732 40.0507 45.9566 40.1101 46.3312 40.0517C46.5225 40.0169 46.7051 39.9444 46.8686 39.8385C47.032 39.7326 47.1731 39.5952 47.2837 39.4344C47.3942 39.2735 47.4722 39.0923 47.513 38.901C47.5538 38.7098 47.5567 38.5124 47.5216 38.32Z" fill="black"/>
<path d="M47.439 36.2517C46.7498 36.2146 46.0607 36.1685 45.3778 36.0709C44.8402 36.0111 44.3143 35.8718 43.8172 35.6575C43.2846 35.4249 42.829 35.0445 42.5038 34.5608C42.1785 34.0771 41.9972 33.5101 41.9809 32.9264C42.0667 31.7436 43.4694 31.3415 44.5358 31.9017C45.5436 32.5436 46.3479 33.4619 46.8538 34.5484C47.1045 35.0034 47.387 35.4401 47.6414 35.8932C47.6618 35.9293 47.6725 35.9701 47.6725 36.0117C47.6725 36.0532 47.6618 36.0941 47.6414 36.1302C47.621 36.1664 47.5916 36.1966 47.5561 36.2179C47.5207 36.2392 47.4803 36.2508 47.439 36.2517ZM43.8453 32.1557C43.6575 32.1118 43.4625 32.1087 43.2734 32.1468C43.0844 32.1848 42.9055 32.263 42.749 32.3763C42.244 32.7342 42.4357 33.5105 42.749 34.0563C43.0258 34.5049 43.407 34.879 43.8596 35.1465C44.3122 35.4139 44.8227 35.5666 45.3471 35.5913C45.8986 35.6657 46.4526 35.7199 47.008 35.7539C46.2054 34.3965 45.3408 32.5054 43.8453 32.1532V32.1557Z" fill="black"/>
<path d="M31.1376 23.1087L28.6641 25.0319C28.6189 25.0748 28.5591 25.0988 28.4969 25.0988C28.4347 25.0988 28.3748 25.0748 28.3296 25.0319C28.2853 24.9872 28.2604 24.9267 28.2604 24.8636C28.2604 24.8006 28.2853 24.7401 28.3296 24.6954C28.3853 24.6519 29.9936 23.4004 30.741 22.8175L28.3296 20.9409C28.2852 20.8961 28.2604 20.8355 28.2604 20.7723C28.2604 20.7092 28.2852 20.6485 28.3296 20.6038C28.3745 20.5603 28.4345 20.5359 28.4969 20.5359C28.5593 20.5359 28.6192 20.5603 28.6641 20.6038C28.6641 20.6038 31.2028 22.5686 31.2855 22.6442C31.4734 22.8452 31.2823 22.9965 31.1376 23.1087Z" fill="black"/>
<path d="M31.1372 16.9053L28.6638 18.8279C28.6187 18.8711 28.5588 18.8952 28.4965 18.8952C28.4342 18.8952 28.3743 18.8711 28.3292 18.8279C28.2849 18.7832 28.26 18.7227 28.26 18.6596C28.26 18.5966 28.2849 18.536 28.3292 18.4914L30.7438 16.6142L28.3324 14.7369C28.2881 14.6923 28.2632 14.6317 28.2632 14.5687C28.2632 14.5056 28.2881 14.4451 28.3324 14.4004C28.3772 14.3567 28.4372 14.3323 28.4996 14.3323C28.5621 14.3323 28.6221 14.3567 28.6669 14.4004C29.4526 15.0117 31.2055 16.3652 31.2882 16.4402C31.4731 16.6412 31.282 16.79 31.1372 16.9053Z" fill="black"/>
<path d="M31.1372 10.5596L28.6638 12.4822C28.6187 12.5254 28.5588 12.5495 28.4965 12.5495C28.4342 12.5495 28.3743 12.5254 28.3292 12.4822C28.2849 12.4375 28.26 12.377 28.26 12.3139C28.26 12.2509 28.2849 12.1903 28.3292 12.1457L30.7438 10.2684L28.3324 8.39121C28.2881 8.34655 28.2632 8.28604 28.2632 8.22295C28.2632 8.15987 28.2881 8.09936 28.3324 8.0547C28.3773 8.01119 28.4373 7.98688 28.4996 7.98688C28.562 7.98688 28.622 8.01119 28.6669 8.0547C29.4526 8.66595 31.2055 10.0195 31.2882 10.0952C31.4731 10.2955 31.282 10.4468 31.1372 10.5596Z" fill="black"/>
<path d="M9.4155 20.6037C9.45985 20.6485 9.48474 20.7091 9.48474 20.7723C9.48474 20.8355 9.45985 20.8961 9.4155 20.9409L7.00344 22.8175L9.4155 24.6947C9.45969 24.7396 9.48449 24.8001 9.48449 24.8633C9.48449 24.9264 9.45969 24.987 9.4155 25.0319C9.37049 25.0752 9.31056 25.0994 9.24823 25.0994C9.18589 25.0994 9.12596 25.0752 9.08095 25.0319C9.08095 25.0319 6.54233 23.067 6.45963 22.9914C6.27168 22.7904 6.46527 22.6398 6.61062 22.527L9.08095 20.6037C9.12618 20.5608 9.18603 20.5369 9.24823 20.5369C9.31043 20.5369 9.37027 20.5608 9.4155 20.6037Z" fill="black"/>
<path d="M9.39816 16.6123L11.8108 18.4915C11.8552 18.5362 11.8801 18.5968 11.8801 18.66C11.8801 18.7232 11.8552 18.7838 11.8108 18.8286C11.7658 18.872 11.7059 18.8962 11.6436 18.8962C11.5812 18.8962 11.5213 18.872 11.4763 18.8286C10.6907 18.2167 8.93768 16.8638 8.85498 16.7881C8.66703 16.5871 8.86124 16.4359 9.00597 16.3237L11.4763 14.4005C11.5215 14.3575 11.5814 14.3336 11.6436 14.3336C11.7058 14.3336 11.7656 14.3575 11.8108 14.4005C11.8329 14.4225 11.8505 14.4487 11.8624 14.4776C11.8744 14.5065 11.8806 14.5374 11.8806 14.5687C11.8806 14.6 11.8744 14.631 11.8624 14.6599C11.8505 14.6887 11.8329 14.715 11.8108 14.737L9.39816 16.6123Z" fill="black"/>
<path d="M14.4788 10.2685L16.8909 12.1457C16.9352 12.1904 16.9601 12.2509 16.9601 12.314C16.9601 12.377 16.9352 12.4376 16.8909 12.4822C16.8461 12.526 16.7861 12.5505 16.7236 12.5505C16.6611 12.5505 16.6011 12.526 16.5563 12.4822C15.7707 11.871 14.0177 10.518 13.935 10.4424C13.7471 10.2414 13.9413 10.0901 14.0854 9.97733L16.5563 8.05472C16.6016 8.01177 16.6614 7.98785 16.7236 7.98785C16.7858 7.98785 16.8457 8.01177 16.8909 8.05472C16.9352 8.09937 16.9601 8.15988 16.9601 8.22297C16.9601 8.28605 16.9352 8.34656 16.8909 8.39122L14.4788 10.2685Z" fill="black"/>
<path d="M21.3221 12.0337C20.9507 12.1703 20.5473 12.1932 20.1629 12.0994C19.7785 12.0055 19.4304 11.7992 19.1626 11.5064C18.8948 11.2136 18.7193 10.8476 18.6583 10.4545C18.5973 10.0614 18.6535 9.659 18.8198 9.29805C18.9861 8.93709 19.255 8.63382 19.5926 8.42657C19.9303 8.21931 20.3214 8.11738 20.7166 8.13364C21.1118 8.1499 21.4933 8.28364 21.813 8.51794C22.1326 8.75224 22.376 9.0766 22.5125 9.45001C22.6031 9.69827 22.6442 9.96205 22.6334 10.2263C22.6226 10.4905 22.5601 10.75 22.4496 10.99C22.339 11.2299 22.1826 11.4456 21.9891 11.6247C21.7956 11.8037 21.569 11.9427 21.3221 12.0337ZM21.1504 8.69761C20.9196 8.61455 20.6722 8.58856 20.4292 8.62182C20.1862 8.65508 19.9548 8.74661 19.7544 8.88871C19.5539 9.03081 19.3904 9.2193 19.2776 9.43828C19.1648 9.65727 19.106 9.90033 19.1061 10.147C19.1083 10.4636 19.2064 10.7719 19.3874 11.0309C19.5685 11.2899 19.8238 11.4872 20.1192 11.5963C20.5005 11.7324 20.9199 11.7108 21.2854 11.5364C21.6509 11.3619 21.9328 11.0489 22.0693 10.6658C22.2057 10.2827 22.1857 9.86085 22.0134 9.49263C21.8412 9.12441 21.5309 8.83988 21.1504 8.70139V8.69761Z" fill="black"/>
<path d="M39.7531 4.73699C39.886 5.01174 39.4775 5.25309 39.3447 4.97771C38.725 3.69451 37.7476 2.62035 36.5316 1.88615C36.4786 1.85244 36.441 1.79894 36.4271 1.73738C36.4133 1.67582 36.4243 1.61125 36.4577 1.55784C36.4893 1.50617 36.5395 1.46875 36.5979 1.45337C36.6562 1.438 36.7182 1.44585 36.771 1.47529C38.0684 2.23624 39.1077 3.37293 39.7531 4.73699Z" fill="black"/>
<path d="M40.6889 4.30408C39.9337 2.60339 38.598 1.23099 36.9235 0.435538C36.6472 0.309506 36.8878 -0.104508 37.1622 0.0246741C38.9131 0.851614 40.3099 2.28413 41.098 4.06084C41.2201 4.34126 40.8123 4.58387 40.6889 4.30408Z" fill="black"/>
<path d="M62.0626 56.444C62.1209 56.43 62.1824 56.4388 62.2345 56.4686C62.2866 56.4984 62.3255 56.5471 62.3433 56.6047C63.137 59.3604 63.4178 62.2398 63.1715 65.098C63.1452 65.4005 62.6703 65.4036 62.6985 65.098C62.9351 62.2825 62.6591 59.4472 61.884 56.7314C61.8766 56.7007 61.8754 56.6689 61.8804 56.6377C61.8854 56.6065 61.8966 56.5767 61.9132 56.5499C61.9298 56.5232 61.9516 56.5 61.9773 56.4818C62.0029 56.4636 62.0319 56.4508 62.0626 56.444Z" fill="black"/>
<path d="M63.855 56.493C65.0453 59.4844 65.1462 62.0516 64.8705 65.0978C64.8436 65.4003 64.3693 65.4028 64.3975 65.0978C64.6795 61.9754 64.5322 59.5253 63.3989 56.6196C63.2873 56.3342 63.7447 56.2107 63.855 56.493Z" fill="black"/>
<path d="M3.99237 47.7429L0.353595 44.8769C0.113641 44.6879 0.450706 44.3533 0.688153 44.5404L4.32692 47.4058C4.56687 47.5948 4.23044 47.9294 3.99237 47.7429Z" fill="black"/>
<path d="M3.96934 50.1405C4.20616 49.9515 4.54385 50.2886 4.30389 50.477L1.05607 53.0323C0.818623 53.2214 0.481563 52.8842 0.721516 52.6952L3.96934 50.1405Z" fill="black"/>
</svg>
