<svg width="102" height="86" viewBox="0 0 102 86" fill="none" xmlns="http://www.w3.org/2000/svg">
<path d="M25.378 5.29007C25.5371 3.63519 25.6965 1.98054 25.8563 0.326131C25.8901 -0.026245 26.3313 -0.0305249 26.297 0.326131L25.8181 5.29007C25.7843 5.64245 25.3437 5.64673 25.378 5.29007Z" fill="black"/>
<path d="M11.7063 8.57142L10.1053 3.68451C9.99665 3.35354 10.4226 3.20873 10.5301 3.53614L12.1312 8.42305C12.2398 8.75402 11.8138 8.89883 11.7063 8.57142Z" fill="black"/>
<path d="M9.10144 11.3692L5.80314 7.55725C5.59324 7.31472 5.90557 6.92098 6.11491 7.16279L9.41321 10.9754C9.62312 11.2173 9.31079 11.611 9.10144 11.3692Z" fill="black"/>
<path d="M3.4027 40.3156L0.373965 42.0646C0.117913 42.213 -0.10606 41.7315 0.148867 41.5824L3.17761 39.8334C3.43647 39.685 3.66045 40.1665 3.4027 40.3156Z" fill="black"/>
<path d="M11.1228 58.0232C11.2983 57.9915 11.4763 57.9886 11.6524 58.0147C12.2686 58.086 33.7123 59.8757 34.7888 59.967C34.9697 61.0449 35.4743 61.9913 36.1957 62.6063C36.8563 63.1838 37.5898 63.6144 38.3646 63.8795C32.5682 63.4679 30.4804 63.0685 28.6289 64.2069L11.1678 61.1868C10.8729 61.1288 10.6037 60.9408 10.4074 60.6558C10.2112 60.3708 10.1007 60.0072 10.0953 59.629C10.0899 59.2508 10.19 58.8824 10.378 58.5886C10.566 58.2948 10.8298 58.0946 11.1228 58.0232Z" fill="#2755A0"/>
<path d="M75.4182 11.2341C77.0243 8.14472 79.9393 7.02553 82.7171 7.53198C85.1071 7.96496 87.0886 10.2868 86.604 13.3348C86.439 14.0167 86.3457 14.7233 86.3266 15.4362C86.3384 15.7247 86.4221 16.001 86.5656 16.2254C86.709 16.4498 86.905 16.6108 87.1251 16.6852C88.1691 17.0148 88.6491 16.5675 89.9192 16.9313C90.4768 17.1587 90.9526 17.6296 91.2618 18.2602C91.571 18.8908 91.6935 19.6401 91.6075 20.3745C91.4516 21.2854 91.0774 21.861 91.3261 22.2954C91.4043 22.397 91.4989 22.4759 91.6034 22.5267C91.7079 22.5776 91.8199 22.5992 91.9316 22.59C92.563 22.6285 93.195 22.4923 93.8287 22.5101C94.9339 22.5408 96.0386 23.1614 96.3684 24.5159C96.4329 24.9787 96.4187 25.4536 96.3265 25.9088C96.2344 26.364 96.0666 26.789 95.8343 27.1552C96.8692 27.0603 97.9486 27.1174 98.7691 28.0269C99.1618 28.4576 99.4075 29.0646 99.4545 29.7203C99.458 30.0445 99.411 30.3663 99.3161 30.6674C99.2213 30.9686 99.0805 31.243 98.9019 31.475C98.5197 31.9667 98.0735 32.3712 97.5828 32.6705C97.2325 32.8916 96.8733 33.0894 96.5068 33.2633C94.717 30.5701 92.4964 28.3895 89.9919 26.8658C87.4873 25.3421 84.756 24.51 81.9788 24.4246C81.7677 24.4011 81.7323 24.4296 81.6135 24.4197C79.0164 24.3925 77.6866 24.2534 75.4942 24.6857C74.8709 22.8825 74.4387 20.9826 74.2088 19.0356C73.8632 16.3354 74.2923 13.5677 75.4182 11.2341ZM77.6692 16.193C77.7741 16.9202 78.0595 17.586 78.4837 18.0933C78.9079 18.6006 79.4489 18.923 80.0277 19.0135C81.2596 19.2168 82.6659 18.3158 82.958 16.7102C83.1392 15.9435 83.1268 15.1243 82.9226 14.367C82.7183 13.6097 82.3325 12.9523 81.8189 12.4866C81.3497 12.1265 80.8091 11.9438 80.2607 11.9602C79.7123 11.9767 79.1791 12.1915 78.7238 12.5794C78.2925 12.9894 77.9638 13.5484 77.7772 14.1895C77.5905 14.8305 77.5538 15.5262 77.6715 16.193H77.6692Z" fill="black"/>
<path d="M78.7272 12.5794C79.1825 12.1916 79.7157 11.9767 80.2641 11.9603C80.8125 11.9439 81.3532 12.1265 81.8224 12.4867C82.3359 12.9523 82.7218 13.6098 82.926 14.367C83.1302 15.1243 83.1426 15.9436 82.9614 16.7102C82.6693 18.3159 81.263 19.2168 80.0311 19.0135C79.4523 18.923 78.9113 18.6007 78.4871 18.0933C78.0629 17.586 77.7775 16.9203 77.6726 16.1931C77.5552 15.526 77.5922 14.8301 77.7793 14.189C77.9664 13.548 78.2956 12.9891 78.7272 12.5794Z" fill="#FC9070"/>
<path d="M61.7815 36.1659C63.3629 33.0085 65.4735 30.3314 67.9634 28.3249C70.4533 26.3183 73.2614 25.0315 76.188 24.556C76.3866 24.5261 77.2454 24.4176 77.3135 24.4362C77.2817 24.4395 77.251 24.4516 77.2234 24.4716C77.1958 24.4917 77.172 24.5192 77.1537 24.5522C77.1355 24.5853 77.1232 24.623 77.1177 24.6627C77.1122 24.7025 77.1138 24.7432 77.1221 24.7821C77.2589 25.3269 77.5248 25.8049 77.8836 26.1513C78.2423 26.4977 78.6766 26.6956 79.1272 26.7181C79.6591 26.7 80.1798 26.5199 80.6453 26.193C81.1107 25.8661 81.5073 25.402 81.8014 24.8399C81.8192 24.8008 81.8292 24.7567 81.8305 24.7116C81.8319 24.6664 81.8245 24.6216 81.8091 24.5808C81.7937 24.5401 81.7707 24.5047 81.7421 24.4778C81.7135 24.4508 81.6802 24.4331 81.645 24.4262C81.7552 24.4134 81.8662 24.4134 81.9764 24.4262C92.9631 24.6709 101.961 36.8763 101.964 52.1847V69.2707C101.963 69.3442 101.939 69.4142 101.898 69.4661C101.857 69.5181 101.802 69.548 101.744 69.5496C95.6665 69.6638 77.0186 69.9833 76.9595 69.9912C76.9032 70.0133 72.1992 72.1354 71.8998 72.2253C71.9489 72.1992 71.9891 72.152 72.0133 72.0919C72.0375 72.0318 72.0441 71.9628 72.032 71.8971C70.655 64.8353 68.4113 58.1188 64.6819 52.5514C64.9419 52.4223 90.703 39.3009 90.9388 39.1811C91.1994 39.0484 91.0852 38.5084 90.8218 38.6425C83.7311 42.2561 58.289 55.2213 58.0527 55.3426C58.1101 48.2886 58.2997 42.9388 61.7815 36.1659ZM76.9449 66.0658C76.1031 66.6413 75.2185 67.1096 74.3039 67.4639C74.25 67.4862 74.2049 67.534 74.1781 67.5973C74.1512 67.6607 74.1447 67.7346 74.1597 67.8039C74.1748 67.8732 74.2103 67.9325 74.259 67.9695C74.3076 68.0064 74.3656 68.0183 74.4209 68.0025C75.3727 67.6365 76.2928 67.1492 77.1671 66.548C77.4164 66.3761 77.1936 65.8939 76.9449 66.0658ZM81.0136 66.5758C80.7502 66.7007 80.865 67.2399 81.1306 67.1144L95.635 60.2801C95.8984 60.156 95.7836 59.616 95.518 59.7416L81.0136 66.5758Z" fill="#FFD2D2"/>
<path d="M77.3167 24.4362C77.9053 24.3228 81.0156 24.4134 81.6144 24.4198C81.653 24.4203 81.6908 24.4336 81.7241 24.4584C81.7574 24.4831 81.785 24.5185 81.8043 24.5609C81.8235 24.6034 81.8336 24.6514 81.8337 24.7004C81.8337 24.7493 81.8237 24.7974 81.8046 24.8399C81.5105 25.402 81.1139 25.8661 80.6485 26.193C80.183 26.5199 79.6623 26.7 79.1304 26.7181C78.6798 26.6956 78.2455 26.4977 77.8868 26.1513C77.528 25.8049 77.2621 25.3269 77.1253 24.7821C77.1168 24.7432 77.1153 24.7024 77.1207 24.6626C77.1261 24.6229 77.1384 24.5851 77.1567 24.552C77.175 24.519 77.1988 24.4914 77.2264 24.4714C77.2541 24.4514 77.2849 24.4394 77.3167 24.4362Z" fill="#FF4848"/>
<path d="M45.8271 15.146L50.1839 6.91511C50.3409 6.61765 50.7225 6.89727 50.5638 7.20043L46.7489 14.4092C49.5019 12.3199 56.5143 6.96932 57.3562 6.36229C57.4066 6.32445 57.4669 6.31357 57.5237 6.33203C57.5804 6.35049 57.6291 6.39678 57.659 6.46073C57.6888 6.52467 57.6974 6.60102 57.6828 6.67299C57.6683 6.74496 57.6317 6.80665 57.5813 6.84449C54.7113 9.08001 47.8327 14.253 46.8839 14.9698L53.7816 14.6324C54.063 14.6189 54.063 15.1774 53.7816 15.191C47.889 15.4763 46.0719 15.5697 46.0043 15.5669C45.966 15.566 45.9285 15.5521 45.8958 15.5267C45.8631 15.5013 45.8363 15.4653 45.8183 15.4224C45.8002 15.3795 45.7915 15.3313 45.793 15.2827C45.7946 15.2341 45.8063 15.1869 45.8271 15.146Z" fill="black"/>
<path d="M95.5222 59.7414C95.7878 59.6158 95.9026 60.1558 95.6392 60.2799L81.1303 67.1128C80.8647 67.2383 80.7494 66.699 81.0133 66.5742L95.5222 59.7414Z" fill="#FF4848"/>
<path d="M28.6255 64.2034C29.4887 63.7146 30.423 63.4601 31.3684 63.4565C32.3769 63.423 32.6931 63.4729 38.3634 63.876C35.4017 62.8459 34.4242 60.3807 34.8744 58.7908C35.4444 56.7807 37.5981 56.6508 39.2824 56.5873C41.5731 56.4617 43.8674 56.4882 46.1559 56.6665C50.475 56.9989 53.1469 57.7008 53.4992 57.6873C53.4992 57.6873 82.7624 42.7477 90.8233 38.6418C91.0866 38.5077 91.2009 39.0477 90.9403 39.1804C90.7045 39.3002 64.9411 52.4216 64.6834 52.5507C68.4043 58.1053 70.661 64.8482 72.0335 71.8965C72.046 71.9677 72.0371 72.0423 72.0086 72.1057C71.9801 72.1691 71.934 72.2169 71.8793 72.2396C68.0582 73.9294 42.3843 85.0685 41.8024 85.316C40.7616 85.8803 39.6199 86.0775 38.4979 85.8867C37.091 85.5015 35.8192 83.3387 36.8659 81.6824C37.5519 80.596 39.6201 79.2471 40.6021 78.6258C38.171 79.5246 36.5075 80.1516 33.8676 80.275C33.1993 80.3555 32.5259 80.2159 31.9126 79.8699C31.4361 79.501 31.0715 78.9396 30.8775 78.276C30.6835 77.6124 30.6715 76.8853 30.8434 76.212C31.2255 74.7797 32.1664 74.3017 33.3082 73.9002C33.7443 73.7468 36.5823 72.6647 37.5593 72.2595C35.9922 72.2876 34.4257 72.1708 32.8721 71.91C31.8875 71.7335 30.9178 71.4429 29.975 71.0419C29.2108 70.7211 28.4998 70.2244 27.8776 69.5768C26.4066 68.0603 26.5344 65.4888 28.6255 64.2034ZM44.2498 77.4303L46.332 76.8097C46.6545 76.7135 46.5172 76.085 46.1953 76.1813L44.1131 76.8026C43.7912 76.8989 43.9285 77.5273 44.2498 77.4303ZM41.4951 71.5312C42.443 71.2331 43.4006 70.9868 44.3652 70.793C44.3977 70.7817 44.4281 70.7623 44.4548 70.7361C44.4814 70.7098 44.5036 70.6772 44.5203 70.64C44.5369 70.6028 44.5476 70.5618 44.5517 70.5194C44.5558 70.477 44.5532 70.434 44.5441 70.3928C44.5247 70.3107 44.4811 70.2412 44.4223 70.1988C44.3635 70.1564 44.2941 70.1444 44.2284 70.1652C43.2631 70.3555 42.3065 70.6016 41.3584 70.9035C41.2957 70.9297 41.2432 70.9854 41.2121 71.0593C41.1809 71.1331 41.1733 71.2193 41.1908 71.3C41.2084 71.3807 41.2498 71.4497 41.3065 71.4928C41.3631 71.5358 41.4307 71.5496 41.4951 71.5312Z" fill="#FC9070" fill-opacity="0.8"/>
<path d="M41.358 70.9033C42.3057 70.6014 43.2624 70.3553 44.2281 70.165C44.2937 70.1442 44.3631 70.1562 44.4219 70.1986C44.4807 70.241 44.5243 70.3104 44.5438 70.3926C44.5528 70.4338 44.5554 70.4768 44.5513 70.5192C44.5472 70.5616 44.5365 70.6026 44.5199 70.6398C44.5032 70.677 44.481 70.7096 44.4544 70.7359C44.4278 70.7621 44.3973 70.7815 44.3648 70.7928C43.3997 70.9832 42.4441 71.2364 41.4948 71.531C41.4303 71.5494 41.3628 71.5356 41.3061 71.4926C41.2494 71.4495 41.208 71.3805 41.1905 71.2998C41.1729 71.219 41.1805 71.1329 41.2117 71.059C41.2429 70.9852 41.2953 70.9295 41.358 70.9033Z" fill="#FC9070"/>
<path d="M46.3289 76.8097L44.2467 77.4303C43.9254 77.5266 43.7881 76.8989 44.11 76.8026L46.1922 76.1813C46.5141 76.085 46.6514 76.7134 46.3289 76.8097Z" fill="#FC9070"/>
<path d="M25.9099 44.3539C26.3038 43.4908 26.7782 42.6934 27.1479 41.8145C27.167 41.772 27.1946 41.7366 27.228 41.7119C27.2613 41.6873 27.2993 41.6743 27.3379 41.6743C27.3765 41.6743 27.4144 41.6873 27.4478 41.7119C27.4811 41.7366 27.5087 41.772 27.5278 41.8145C27.8821 42.7046 28.2963 43.5542 28.7659 44.3539C28.8823 44.5487 28.7028 44.7762 28.5756 44.7741C26.05 44.722 26.1271 44.7862 26.0703 44.7669C26.0349 44.7603 26.0014 44.7429 25.9725 44.7163C25.9436 44.6896 25.9203 44.6544 25.9045 44.6138C25.8888 44.5732 25.881 44.5283 25.8819 44.483C25.8829 44.4378 25.8925 44.3935 25.9099 44.3539ZM28.1609 44.2156C27.8637 43.6678 27.5865 43.1029 27.3303 42.5229C27.0731 43.0514 26.6769 43.8247 26.4861 44.2156H28.1609Z" fill="#77751E"/>
<path d="M10.659 33.7243C10.4061 33.8114 10.1384 33.8 9.89074 33.6916C9.64304 33.5832 9.4268 33.3828 9.27016 33.1166C9.10282 32.8013 9.02429 32.4236 9.04727 32.0447C9.07024 31.6659 9.19338 31.3079 9.39677 31.0287C9.58328 30.8006 9.81465 30.6401 10.0668 30.5639C10.3189 30.4878 10.5825 30.4988 10.8301 30.5957C11.0742 30.7378 11.2784 30.9708 11.4155 31.2636C11.5526 31.5565 11.6161 31.8953 11.5975 32.2349C11.5789 32.5746 11.4792 32.8991 11.3115 33.1651C11.1439 33.4312 10.9163 33.6262 10.659 33.7243ZM10.901 31.2734C10.7199 31.1168 10.5011 31.0461 10.2829 31.0736C10.0647 31.1011 9.8612 31.2251 9.70798 31.4239C9.62928 31.5268 9.5678 31.6489 9.52724 31.7827C9.48668 31.9165 9.46786 32.0594 9.47192 32.2026C9.47598 32.3459 9.50284 32.4866 9.55087 32.6164C9.59891 32.7462 9.66714 32.8624 9.75146 32.9579C9.83579 33.0534 9.93447 33.1264 10.0416 33.1724C10.1487 33.2184 10.262 33.2365 10.3748 33.2256C10.4876 33.2147 10.5975 33.175 10.6979 33.109C10.7982 33.0429 10.887 32.9519 10.959 32.8412C11.0989 32.6141 11.1697 32.3309 11.1587 32.0431C11.1476 31.7553 11.0554 31.4822 10.8988 31.2734H10.901Z" fill="#A982F4"/>
<path d="M74.3041 67.4639C75.2187 67.1093 76.1033 66.641 76.9451 66.0658C77.1939 65.8939 77.4167 66.3761 77.1702 66.548C76.2959 67.1491 75.3758 67.6364 74.424 68.0024C74.3687 68.0182 74.3107 68.0064 74.2621 67.9694C74.2134 67.9325 74.1779 67.8732 74.1628 67.8039C74.1478 67.7346 74.1543 67.6606 74.1812 67.5973C74.208 67.534 74.253 67.4862 74.3069 67.4639H74.3041Z" fill="#FF4848"/>
<path d="M25.5978 5.61591C25.5641 5.616 25.5306 5.60763 25.4994 5.59127C25.4682 5.57492 25.4399 5.5509 25.416 5.5206C25.3922 5.4903 25.3733 5.45432 25.3604 5.41473C25.3476 5.37514 25.3411 5.33273 25.3412 5.28993L25.8196 0.325984C25.8211 0.240275 25.8486 0.158615 25.8964 0.0979273C25.9442 0.0372392 26.0086 0.00217522 26.0762 0C26.1444 0 26.2098 0.0343445 26.258 0.0954783C26.3062 0.156612 26.3333 0.239528 26.3333 0.325984L25.855 5.28993C25.8532 5.37564 25.8255 5.45721 25.7776 5.51784C25.7298 5.57847 25.6655 5.61357 25.5978 5.61591Z" fill="black"/>
<path d="M11.671 8.58324L10.0694 3.69705C10.0519 3.61374 10.0609 3.52504 10.0945 3.45006C10.1281 3.37508 10.1836 3.31982 10.249 3.29617C10.3146 3.27528 10.3842 3.28727 10.4431 3.32964C10.5019 3.37202 10.5457 3.44152 10.5652 3.52371L12.1663 8.41062C12.1838 8.49383 12.1747 8.58243 12.1412 8.6573C12.1076 8.73216 12.0521 8.78729 11.9867 8.81078C11.9211 8.83183 11.8516 8.8199 11.7928 8.77749C11.7339 8.73508 11.6903 8.66548 11.671 8.58324Z" fill="black"/>
<path d="M9.07624 11.4029L5.77794 7.591C5.53314 7.30567 5.89725 6.84844 6.14148 7.13091L9.43977 10.9421C9.68457 11.2239 9.32047 11.6833 9.07624 11.4029Z" fill="black"/>
<path d="M3.16297 39.7927C3.46179 39.6201 3.72572 40.1807 3.4224 40.3548L0.393659 42.1038C0.0948367 42.2771 -0.169098 41.7151 0.134788 41.5417L3.16297 39.7927Z" fill="black"/>
<path d="M80.0245 19.0589C79.4385 18.9674 78.8909 18.6413 78.4612 18.1282C78.0315 17.6151 77.742 16.9416 77.635 16.2057C77.5169 15.5287 77.5553 14.8229 77.7454 14.1728C77.9355 13.5227 78.2694 12.9558 78.7071 12.54C79.1677 12.1473 79.7073 11.9299 80.2622 11.9135C80.8172 11.897 81.3642 12.0823 81.8388 12.4472C82.98 13.3467 83.2682 15.1393 82.9941 16.7235C82.8015 17.4989 82.3959 18.1609 81.851 18.5894C81.3061 19.018 80.658 19.1845 80.0245 19.0589ZM81.8213 13.244C81.5598 12.9808 81.2562 12.7929 80.9317 12.6936C80.6071 12.5942 80.2693 12.5856 79.9419 12.6685C79.6144 12.7514 79.3052 12.9238 79.0356 13.1736C78.766 13.4234 78.5427 13.7446 78.381 14.115C78.2194 14.4853 78.1233 14.8959 78.0996 15.3181C78.0758 15.7402 78.1249 16.1639 78.2435 16.5596C78.362 16.9553 78.5472 17.3134 78.786 17.6092C79.0249 17.905 79.3117 18.1312 79.6266 18.2721C80.7369 18.7551 82.2046 18.1067 82.5017 16.5495C82.633 15.9719 82.6391 15.3601 82.5194 14.7784C82.3997 14.1967 82.1585 13.6667 81.8213 13.244Z" fill="black"/>
<path d="M11.6518 57.9679C12.268 58.0393 33.6841 59.8268 34.7438 59.916C34.7008 59.5316 34.7326 59.1398 34.8366 58.7747C35.4151 56.7631 37.5941 56.5777 39.2824 56.5377C44.0352 56.3114 48.794 56.6803 53.4896 57.6391C53.7254 57.5499 52.6787 58.0492 58.0181 55.308L58.0333 53.5161C57.977 47.2547 58.9517 41.5831 61.7514 36.1391C63.2713 33.1143 65.2755 30.5279 67.6343 28.5473C69.993 26.5667 72.6536 25.2362 75.4438 24.642C74.8236 22.853 74.3959 20.9665 74.1719 19.0332C73.8191 15.6514 74.4224 12.0427 76.3869 9.70378C77.247 8.75953 78.2624 8.07051 79.3592 7.68697C80.456 7.30343 81.6066 7.23504 82.7269 7.48681C85.1467 7.87414 87.1608 10.3757 86.6392 13.3467C86.4726 14.024 86.3797 14.7269 86.3629 15.436C86.3745 15.7147 86.4557 15.9816 86.5948 16.198C86.7339 16.4144 86.9236 16.5692 87.1366 16.64C88.1952 16.9739 88.6488 16.5188 89.9307 16.8861C90.4982 17.116 90.9826 17.5945 91.2971 18.2359C91.6116 18.8772 91.7357 19.6396 91.6471 20.3863C91.5165 21.2602 91.117 21.8351 91.3595 22.2666C91.4343 22.3627 91.5245 22.4372 91.6241 22.485C91.7236 22.5327 91.8302 22.5527 91.9364 22.5434C92.5678 22.5812 93.1997 22.4457 93.834 22.4635C94.9657 22.4949 96.076 23.1362 96.408 24.5036C96.4736 24.9567 96.4629 25.4222 96.3765 25.8697C96.2902 26.3171 96.1303 26.7364 95.9071 27.1C96.9314 27.0137 97.9966 27.0808 98.7997 27.991C99.2017 28.4281 99.4518 29.0482 99.4958 29.7172C99.4998 30.0475 99.4521 30.3755 99.3555 30.6823C99.2589 30.9891 99.1153 31.2686 98.9331 31.5047C98.5514 32.0047 98.1009 32.4123 97.6038 32.7074C97.2688 32.9227 96.9242 33.1133 96.5718 33.278C100.109 38.5513 102.035 45.2592 102 52.1808V69.2661C101.998 69.352 101.971 69.4341 101.923 69.4949C101.875 69.5557 101.811 69.5906 101.743 69.5921C80.6256 69.9887 76.9581 70.0336 76.9581 70.0336C76.9581 70.0336 42.3651 85.1202 41.8097 85.3577C40.7624 85.9238 39.6139 86.1209 38.4855 85.9283C37.0561 85.5374 35.773 83.3376 36.8299 81.6563C37.0953 81.2519 37.4095 80.903 37.7607 80.6227C38.547 79.9502 39.368 79.3453 40.2182 78.8123C38.1651 79.6852 36.0263 80.1922 33.8631 80.3189C33.1882 80.3997 32.5083 80.2579 31.8895 79.9073C31.408 79.5312 31.0397 78.9617 30.8433 78.2894C30.6468 77.6172 30.6336 76.8809 30.8056 76.198C31.0111 75.4481 31.4351 74.8261 31.9908 74.4597C32.9424 73.8712 33.679 73.7978 37.3257 72.3019C35.8322 72.3162 34.3398 72.1992 32.8591 71.9517C31.874 71.7789 30.904 71.4882 29.9621 71.0836C29.1903 70.765 28.4733 70.2637 27.8489 69.6063C27.5213 69.2741 27.2617 68.8467 27.092 68.3604C26.9224 67.874 26.8477 67.343 26.8742 66.8123C26.9041 66.741 26.9097 65.2879 28.4983 64.2237L11.1532 61.2235C10.9769 61.1925 10.8074 61.1163 10.6551 60.9996C10.5027 60.8828 10.3708 60.7279 10.2673 60.5444C10.1637 60.3608 10.0908 60.1525 10.0529 59.932C10.015 59.7116 10.013 59.4836 10.0469 59.2621C10.0808 59.0407 10.15 58.8303 10.2502 58.6438C10.3504 58.4573 10.4796 58.2987 10.6298 58.1775C10.7799 58.0564 10.948 57.9754 11.1237 57.9393C11.2994 57.9033 11.4791 57.913 11.6518 57.9679ZM98.0985 31.5754C99.811 30.0061 98.8222 27.8383 96.7952 27.7235C96.3283 27.7098 95.8612 27.7372 95.3973 27.8055C95.3523 27.8048 95.3083 27.7892 95.2695 27.7603C95.2307 27.7313 95.1985 27.6901 95.1761 27.6407C95.1538 27.5912 95.1419 27.5352 95.1418 27.4782C95.1417 27.4211 95.1534 27.3651 95.1756 27.3155C95.5419 26.7504 95.8026 26.0876 95.9381 25.3767C95.9712 25.0672 95.938 24.7522 95.8421 24.4646C95.7461 24.177 95.591 23.9273 95.3928 23.7418C93.8621 22.2809 91.3916 24.1091 90.8418 22.4171C90.6251 21.7502 90.978 21.1125 91.1046 20.4819C91.2055 19.95 91.1667 19.3908 90.994 18.8893C90.8213 18.3879 90.5243 17.9715 90.1479 17.7036C88.9797 16.8719 87.4563 18.0296 86.3212 16.7891C86.1472 16.5601 86.0148 16.2857 85.9333 15.9851C85.8517 15.6844 85.823 15.3648 85.8491 15.0486C85.9537 13.6299 86.5041 12.6148 85.9948 11.0712C85.7706 10.4454 85.4439 9.88719 85.0364 9.43374C84.6289 8.98029 84.1499 8.64195 83.6313 8.44122C82.5921 8.01217 81.4898 7.88671 80.407 8.07423C79.3241 8.26175 78.2888 8.75739 77.3785 9.52403C76.5632 10.3055 75.8937 11.305 75.4177 12.4516C74.9417 13.5981 74.6708 14.8635 74.6244 16.1578C74.428 19.0539 75.0819 21.8643 75.957 24.55C76.7262 24.4203 77.5012 24.3538 78.2772 24.3509C85.0173 24.2325 90.7551 25.1049 96.2116 32.7595C96.8831 32.485 97.519 32.0862 98.0985 31.5761V31.5754ZM77.7398 25.0129C78.4292 26.6193 80.0848 26.2712 81.073 25.0129C79.9627 24.9943 78.8495 24.9637 77.7387 25.0165L77.7398 25.0129ZM77.2204 69.3809C79.5237 69.336 101.25 68.9251 101.486 68.9322C101.486 53.7259 101.531 51.3848 101.384 49.3832C100.406 36.2069 92.3764 25.1855 81.7652 25.0272C80.4945 27.15 77.9638 27.5088 77.1405 25.055C68.003 25.8603 60.9422 34.8652 59.066 45.9921C58.5032 49.339 58.5595 51.4668 58.5308 55.0469C67.2715 50.5637 89.6859 39.1786 90.8114 38.5972C90.8771 38.575 90.9471 38.5864 91.0063 38.629C91.0654 38.6715 91.109 38.7419 91.1277 38.8248C91.1442 38.908 91.1347 38.9961 91.1013 39.0708C91.0678 39.1454 91.013 39.2009 90.9482 39.2256C90.7124 39.3455 64.9878 52.4469 64.7464 52.5646C68.2681 57.8431 70.7116 64.7622 72.0385 71.5266C77.4246 69.1655 76.7606 69.3895 77.2204 69.3809ZM27.3863 66.8694C27.0931 70.4445 32.8304 71.5594 35.6706 71.615C36.7427 71.6664 37.8158 71.6343 38.8885 71.6514C38.9504 71.6524 39.01 71.6817 39.0563 71.7338C39.1027 71.7859 39.1327 71.8573 39.141 71.9352C39.1493 72.013 39.1352 72.092 39.1013 72.1577C39.0674 72.2235 39.0161 72.2716 38.9565 72.2934C35.3313 73.8348 36.2626 73.399 33.2356 74.5653C32.5452 74.718 31.9238 75.1891 31.4911 75.8878C31.2406 76.4171 31.1492 77.0432 31.2336 77.6511C31.3181 78.2589 31.5728 78.8078 31.9508 79.1968C32.4647 79.5828 33.0618 79.7529 33.6565 79.6826C36.7731 79.6112 38.9295 78.619 42.8592 77.1667C42.9189 77.1477 42.982 77.1564 43.037 77.1912C43.0921 77.2261 43.1355 77.2847 43.1594 77.3566C43.1834 77.4284 43.1862 77.5087 43.1675 77.583C43.1488 77.6573 43.1097 77.7207 43.0573 77.7616C41.3576 78.7505 39.7072 79.8701 38.1152 81.1142C37.508 81.6356 36.8141 82.3147 36.9931 83.3568C37.0714 83.7909 37.2382 84.1913 37.4769 84.5179C37.7156 84.8445 38.0178 85.0859 38.3533 85.2179C39.4501 85.6616 40.6043 85.1915 41.6538 84.7457C42.2042 84.5117 71.1229 71.936 71.5124 71.7634C69.7988 63.1202 67.1792 57.1448 64.2461 52.82C61.5899 54.171 53.8847 58.1698 53.5949 58.2875C53.0034 58.398 47.6595 56.7638 39.3696 57.1876C38.2796 57.2432 37.028 57.2225 36.0449 57.933C35.8225 58.0889 35.6338 58.3115 35.4952 58.5814C35.3565 58.8512 35.2722 59.1601 35.2497 59.4809C35.324 62.7921 39.4782 63.867 42.059 64.0924C42.3865 64.121 42.391 64.7672 42.059 64.7437C39.8356 64.5853 33.2885 64.1202 32.239 64.061C31.2454 63.981 30.2486 64.1299 29.2969 64.5004C28.8403 64.6425 28.4222 64.9372 28.0862 65.3539C27.7501 65.7706 27.5084 66.2939 27.3863 66.8694ZM29.4764 63.7458C31.2046 63.1658 32.4646 63.4105 38.0753 63.8085C36.7483 63.2928 35.3938 62.2742 34.8788 60.5751L11.5589 58.6113C11.365 58.5546 11.1614 58.592 10.9881 58.7161C10.8149 58.8403 10.6846 59.0421 10.6229 59.2819C10.5612 59.5217 10.5726 59.7821 10.6548 60.0118C10.737 60.2415 10.8841 60.4239 11.0671 60.523C11.2314 60.615 10.0051 60.3696 29.4764 63.7458Z" fill="black"/>
<path d="M53.7772 15.2337C47.5053 15.539 46.0674 15.6132 45.9971 15.6089C45.9531 15.607 45.9103 15.5904 45.873 15.5609C45.8357 15.5314 45.8051 15.4899 45.7845 15.4406C45.7638 15.3914 45.7538 15.3361 45.7553 15.2804C45.7569 15.2246 45.77 15.1704 45.7934 15.1231L50.1508 6.89149C50.3337 6.54482 50.7788 6.87081 50.5942 7.22033L46.8671 14.2614C49.5182 12.2499 56.4863 6.93073 57.3343 6.31799C57.3931 6.27649 57.4624 6.26584 57.5273 6.28834C57.5922 6.31083 57.6476 6.36468 57.6815 6.43833C57.7155 6.51197 57.7253 6.59955 57.7089 6.68227C57.6925 6.76499 57.6511 6.83626 57.5938 6.8808C54.7637 9.02787 47.7326 14.3848 47.0416 14.9113L53.7755 14.5824C54.1075 14.566 54.1069 15.218 53.7772 15.2337Z" fill="black"/>
<path d="M81.0019 66.5314L95.5091 59.6943C95.8198 59.5517 95.9537 60.1773 95.6459 60.3228L81.1392 67.157C80.8286 67.3054 80.6947 66.6762 81.0019 66.5314Z" fill="black"/>
<path d="M41.3572 70.9027C42.3041 70.6017 43.2608 70.3558 44.2272 70.1651C44.2928 70.1442 44.3623 70.1563 44.4211 70.1986C44.4799 70.241 44.5235 70.3105 44.5429 70.3926C44.552 70.4339 44.5545 70.4769 44.5503 70.5194C44.5462 70.5619 44.5355 70.6029 44.5188 70.6401C44.5021 70.6772 44.4798 70.7099 44.4531 70.7361C44.4265 70.7623 44.396 70.7816 44.3634 70.7928C43.3988 70.983 42.4422 71.2291 41.4934 71.5311C41.4283 71.5512 41.3597 71.5385 41.3019 71.4954C41.2442 71.4524 41.202 71.3826 41.1843 71.3008C41.1666 71.219 41.1747 71.1316 41.207 71.0572C41.2393 70.9829 41.2931 70.9275 41.3572 70.9027Z" fill="black"/>
<path d="M44.1117 76.8022L46.1938 76.1809C46.5157 76.0846 46.653 76.7123 46.3306 76.8093L44.2484 77.4299C43.9265 77.5269 43.7898 76.8985 44.1117 76.8022Z" fill="black"/>
<path d="M28.5772 44.8204H26.1011C26.0565 44.8184 26.0131 44.8021 25.9748 44.7729C25.9366 44.7437 25.9049 44.7026 25.8827 44.6535C25.8605 44.6045 25.8485 44.549 25.848 44.4925C25.8474 44.4359 25.8582 44.3801 25.8794 44.3303C26.2621 43.4601 26.7477 42.6697 27.1175 41.7902C27.1395 41.7402 27.1716 41.6984 27.2106 41.6694C27.2496 41.6404 27.294 41.6251 27.3392 41.6251C27.3844 41.6251 27.4288 41.6404 27.4678 41.6694C27.5067 41.6984 27.5389 41.7402 27.5609 41.7902C27.9152 42.6805 28.3294 43.5304 28.799 44.3303C28.929 44.5465 28.7506 44.8275 28.5772 44.8204ZM27.3262 42.6177C27.0736 43.1391 26.804 43.6477 26.5513 44.1691H28.0882C27.8175 43.6655 27.5586 43.1498 27.3262 42.6177Z" fill="black"/>
<path d="M10.8369 30.5504C11.1118 30.6785 11.3469 30.9154 11.5073 31.2259C11.6678 31.5365 11.7452 31.9043 11.728 32.275C11.7107 32.6456 11.5998 32.9994 11.4117 33.2839C11.2236 33.5685 10.9682 33.7687 10.6833 33.855C10.3984 33.9413 10.0992 33.9091 9.82985 33.7631C9.56053 33.6171 9.33544 33.3651 9.18787 33.0444C9.0403 32.7237 8.97809 32.3513 9.01044 31.9823C9.04279 31.6133 9.16798 31.2673 9.3675 30.9955C9.55864 30.7616 9.79577 30.5968 10.0542 30.5186C10.3126 30.4403 10.5829 30.4513 10.8369 30.5504ZM9.74399 32.8958C9.82395 32.995 9.91937 33.0719 10.0242 33.1216C10.1289 33.1713 10.2407 33.1927 10.3524 33.1845C10.4641 33.1762 10.5732 33.1384 10.6727 33.0736C10.7722 33.0088 10.8599 32.9183 10.9303 32.808C11.063 32.5899 11.1302 32.319 11.1199 32.0438C11.1096 31.7686 11.0224 31.507 10.874 31.3058C10.6996 31.1587 10.4903 31.0933 10.282 31.1208C10.0737 31.1483 9.87946 31.2669 9.73273 31.4563C9.6589 31.5518 9.60063 31.6647 9.56124 31.7887C9.52185 31.9127 9.50211 32.0453 9.50316 32.179C9.5042 32.3127 9.52601 32.4448 9.56733 32.5678C9.60865 32.6907 9.66868 32.8022 9.74399 32.8958Z" fill="black"/>
<path d="M74.2931 67.4195C75.2053 67.0688 76.0872 66.6018 76.9251 66.0257C77.2155 65.8252 77.4755 66.3873 77.1845 66.5878C76.3067 67.1911 75.3828 67.6801 74.4271 68.0472C74.3626 68.0656 74.2951 68.0518 74.2384 68.0087C74.1817 67.9657 74.1403 67.8967 74.1227 67.8159C74.1052 67.7352 74.1128 67.649 74.144 67.5752C74.1751 67.5014 74.2276 67.4457 74.2903 67.4195H74.2931Z" fill="black"/>
<path d="M13.2179 47.9908C13.2179 19.3584 13.1521 20.3143 13.3305 19.1979C13.5428 18.1709 14.0162 17.2612 14.6774 16.6094C15.3386 15.9576 16.1508 15.6001 16.9884 15.5921H41.0264C41.5468 15.5692 42.0654 15.6827 42.5496 15.9257C43.0338 16.1687 43.4732 16.5359 43.8402 17.0042C44.2072 17.4726 44.4939 18.032 44.6823 18.6473C44.8708 19.2627 44.9569 19.9208 44.9352 20.5803V48.8168C44.9453 49.4908 44.8465 50.1603 44.6449 50.7842C44.4434 51.4081 44.1434 51.9731 43.7633 52.4447C43.3832 52.9163 42.9311 53.2843 42.4347 53.5264C41.9383 53.7684 41.4081 53.8792 40.8767 53.8521C15.3671 53.4148 16.9805 53.9013 16.3536 53.7629C15.5063 53.5595 14.7373 53.0018 14.1696 52.1789C13.602 51.356 13.2684 50.3156 13.2224 49.2241C13.2022 48.8147 13.2179 48.4002 13.2179 47.9908Z" fill="#FFD500"/>
<path d="M28.8288 31.3457C29.3426 30.1588 30.5919 27.5067 30.669 27.3426C30.6881 27.3026 30.715 27.2695 30.7471 27.2465C30.7793 27.2236 30.8155 27.2115 30.8524 27.2115C30.8893 27.2115 30.9256 27.2236 30.9577 27.2465C30.9899 27.2695 31.0168 27.3026 31.0359 27.3426C31.654 28.6733 32.2672 30.0077 32.8755 31.3457C32.8941 31.387 32.9039 31.4338 32.9038 31.4813C32.9037 31.5289 32.8937 31.5755 32.8749 31.6167C32.8561 31.6578 32.8291 31.692 32.7967 31.7158C32.7642 31.7396 32.7273 31.7522 32.6898 31.7523H29.0105C28.974 31.7494 28.9386 31.735 28.9076 31.7104C28.8765 31.6858 28.8508 31.6518 28.8327 31.6114C28.8147 31.5711 28.8049 31.5256 28.8042 31.4792C28.8035 31.4328 28.8119 31.3869 28.8288 31.3457Z" fill="#2755A0"/>
<path d="M24.0618 31.3456C24.5756 30.1587 25.8249 27.5059 25.9014 27.3425C25.9206 27.3025 25.9476 27.2694 25.9798 27.2465C26.0119 27.2235 26.0482 27.2115 26.0852 27.2115C26.1221 27.2115 26.1584 27.2235 26.1906 27.2465C26.2228 27.2694 26.2497 27.3025 26.2689 27.3425C26.8866 28.6736 27.4998 30.008 28.1086 31.3456C28.1268 31.3867 28.1363 31.433 28.1362 31.4801C28.136 31.5272 28.1262 31.5735 28.1077 31.6143C28.0892 31.6552 28.0627 31.6893 28.0306 31.7132C27.9986 31.7371 27.9623 31.7501 27.9251 31.7508H24.2475C24.2107 31.7488 24.1749 31.7351 24.1434 31.7109C24.1119 31.6868 24.0857 31.653 24.0672 31.6126C24.0487 31.5723 24.0385 31.5267 24.0376 31.48C24.0366 31.4333 24.045 31.3871 24.0618 31.3456Z" fill="#2755A0"/>
<path d="M29.1371 34.7631H31.9846C32.0407 34.7642 32.0942 34.793 32.1338 34.8433C32.1735 34.8936 32.196 34.9616 32.1967 35.0327V38.6413C32.196 38.7124 32.1735 38.7804 32.1338 38.8307C32.0942 38.8811 32.0407 38.9099 31.9846 38.911C28.9457 38.9381 29.0583 38.9502 28.9772 38.814C28.8996 38.7098 28.903 38.8853 28.9243 35.0334C28.9249 34.9621 28.9475 34.8938 28.9873 34.8433C29.027 34.7928 29.0808 34.764 29.1371 34.7631Z" fill="#FF4848"/>
<path d="M22.6466 38.7692C23.1604 37.5822 24.4097 34.9301 24.4868 34.7668C24.5059 34.7268 24.5328 34.6937 24.5649 34.6707C24.5971 34.6477 24.6333 34.6357 24.6702 34.6357C24.7071 34.6357 24.7434 34.6477 24.7755 34.6707C24.8077 34.6937 24.8346 34.7268 24.8537 34.7668C25.3995 35.9302 26.619 38.6044 26.6933 38.7692C26.7115 38.8103 26.721 38.8567 26.7209 38.9038C26.7207 38.9509 26.7109 38.9972 26.6924 39.0381C26.6739 39.079 26.6474 39.1131 26.6154 39.1371C26.5834 39.1611 26.547 39.1742 26.5099 39.1751H22.83C22.7935 39.1723 22.758 39.158 22.7269 39.1336C22.6958 39.1091 22.67 39.0752 22.6518 39.035C22.6336 38.9947 22.6236 38.9493 22.6227 38.9029C22.6217 38.8565 22.63 38.8106 22.6466 38.7692Z" fill="#2755A0"/>
<path d="M33.561 34.636L36.4491 38.296C36.4851 38.3475 36.5042 38.4146 36.5026 38.4834C36.5009 38.5522 36.4786 38.6177 36.4402 38.6664C36.4018 38.715 36.3502 38.7433 36.2959 38.7454C36.2416 38.7475 36.1887 38.7232 36.148 38.6776C35.1692 37.4778 34.2067 36.2576 33.2605 35.0169C33.2237 34.9656 33.2038 34.8983 33.2051 34.829C33.2063 34.7597 33.2286 34.6936 33.2673 34.6446C33.306 34.5955 33.3581 34.5673 33.4128 34.5657C33.4675 34.5641 33.5206 34.5892 33.561 34.636Z" fill="black"/>
<path d="M33.5612 20.6195L36.4493 24.2802C36.488 24.3311 36.5095 24.3993 36.509 24.47C36.5085 24.5407 36.486 24.6084 36.4465 24.6584C36.407 24.7083 36.3536 24.7366 36.2978 24.7371C36.242 24.7377 36.1883 24.7104 36.1482 24.6611C35.1694 23.4623 34.2069 22.242 33.2607 21.0004C33.2238 20.9491 33.204 20.8819 33.2053 20.8125C33.2065 20.7432 33.2288 20.6771 33.2675 20.6281C33.3062 20.5791 33.3583 20.5508 33.413 20.5492C33.4677 20.5476 33.5208 20.5728 33.5612 20.6195Z" fill="black"/>
<path d="M33.561 27.6557C34.5399 28.855 35.5025 30.075 36.4491 31.3157C36.4851 31.3672 36.5042 31.4343 36.5026 31.5031C36.5009 31.5719 36.4786 31.6374 36.4402 31.6861C36.4018 31.7348 36.3502 31.763 36.2959 31.7651C36.2416 31.7672 36.1887 31.743 36.148 31.6973C35.1692 30.4975 34.2067 29.2773 33.2605 28.0366C33.2237 27.9853 33.2038 27.9181 33.2051 27.8487C33.2063 27.7794 33.2286 27.7133 33.2673 27.6643C33.306 27.6153 33.3581 27.587 33.4128 27.5854C33.4675 27.5838 33.5206 27.609 33.561 27.6557Z" fill="black"/>
<path d="M41.9142 20.8655V24.7324C41.9114 24.8014 41.8878 24.8664 41.8483 24.914C41.8087 24.9616 41.7563 24.9881 41.7018 24.9881C41.6473 24.9881 41.5948 24.9616 41.5553 24.914C41.5157 24.8664 41.4921 24.8014 41.4893 24.7324V20.8655C41.4921 20.7965 41.5157 20.7315 41.5553 20.6839C41.5948 20.6363 41.6473 20.6097 41.7018 20.6097C41.7563 20.6097 41.8087 20.6363 41.8483 20.6839C41.8878 20.7315 41.9114 20.7965 41.9142 20.8655Z" fill="#FF4848"/>
<path d="M41.9142 27.9803V31.8471C41.9114 31.9161 41.8878 31.9812 41.8483 32.0288C41.8087 32.0764 41.7563 32.1029 41.7018 32.1029C41.6473 32.1029 41.5948 32.0764 41.5553 32.0288C41.5157 31.9812 41.4921 31.9161 41.4893 31.8471V27.9803C41.4921 27.9112 41.5157 27.8462 41.5553 27.7986C41.5948 27.751 41.6473 27.7245 41.7018 27.7245C41.7563 27.7245 41.8087 27.751 41.8483 27.7986C41.8878 27.8462 41.9114 27.9112 41.9142 27.9803Z" fill="#FF4848"/>
<path d="M41.9142 35.0177V38.8853C41.9114 38.9543 41.8878 39.0194 41.8483 39.0669C41.8087 39.1145 41.7563 39.1411 41.7018 39.1411C41.6473 39.1411 41.5948 39.1145 41.5553 39.0669C41.5157 39.0194 41.4921 38.9543 41.4893 38.8853V35.0177C41.4921 34.9487 41.5157 34.8837 41.5553 34.8361C41.5948 34.7885 41.6473 34.762 41.7018 34.762C41.7563 34.762 41.8087 34.7885 41.8483 34.8361C41.8878 34.8837 41.9114 34.9487 41.9142 35.0177Z" fill="#FF4848"/>
<path d="M41.9142 42.0295V45.8964C41.9114 45.9654 41.8878 46.0304 41.8483 46.078C41.8087 46.1256 41.7563 46.1521 41.7018 46.1521C41.6473 46.1521 41.5948 46.1256 41.5553 46.078C41.5157 46.0304 41.4921 45.9654 41.4893 45.8964V42.0295C41.4921 41.9605 41.5157 41.8955 41.5553 41.8479C41.5948 41.8003 41.6473 41.7737 41.7018 41.7737C41.7563 41.7737 41.8087 41.8003 41.8483 41.8479C41.8878 41.8955 41.9114 41.9605 41.9142 42.0295Z" fill="#FF4848"/>
<path d="M39.5093 36.935L37.3433 34.8101C37.3036 34.7593 37.2813 34.6907 37.2813 34.6193C37.2813 34.5478 37.3036 34.4792 37.3433 34.4285C37.3837 34.3792 37.4375 34.3517 37.4936 34.3517C37.5496 34.3517 37.6034 34.3792 37.6438 34.4285C37.6438 34.4285 39.9241 36.6526 39.9984 36.7382C40.1672 36.9657 39.9927 37.1362 39.8627 37.2639L37.641 39.4409C37.6004 39.4895 37.5466 39.5166 37.4907 39.5166C37.4349 39.5166 37.3811 39.4895 37.3405 39.4409C37.3007 39.3904 37.2783 39.3219 37.2783 39.2505C37.2783 39.179 37.3007 39.1105 37.3405 39.06C38.0661 38.3514 38.789 37.6431 39.5093 36.935Z" fill="black"/>
<path d="M39.5093 29.9127L37.3433 27.7877C37.3035 27.7372 37.2812 27.6687 37.2812 27.5973C37.2812 27.5259 37.3035 27.4574 37.3433 27.4068C37.3836 27.3574 37.4375 27.3298 37.4936 27.3298C37.5496 27.3298 37.6035 27.3574 37.6438 27.4068C38.3495 28.0987 39.9241 29.6309 39.9984 29.7158C40.1672 29.9434 39.9927 30.1146 39.8627 30.2422L37.641 32.4186C37.6005 32.4675 37.5467 32.4948 37.4907 32.4948C37.4348 32.4948 37.381 32.4675 37.3405 32.4186C37.3007 32.368 37.2783 32.2995 37.2783 32.2281C37.2783 32.1567 37.3007 32.0882 37.3405 32.0376L39.5093 29.9127Z" fill="black"/>
<path d="M39.5093 22.7296L37.3433 20.6047C37.3035 20.5541 37.2812 20.4856 37.2812 20.4142C37.2812 20.3428 37.3035 20.2743 37.3433 20.2237C37.3837 20.1745 37.4375 20.147 37.4936 20.147C37.5496 20.147 37.6034 20.1745 37.6438 20.2237C38.3495 20.9157 39.9241 22.4479 39.9984 22.5335C40.1672 22.7603 39.9927 22.9315 39.8627 23.0592L37.641 25.2362C37.6002 25.2851 37.5463 25.3123 37.4902 25.3123C37.4341 25.3123 37.3801 25.2851 37.3394 25.2362C37.3196 25.2112 37.3039 25.1815 37.2932 25.1488C37.2825 25.1162 37.277 25.0811 37.277 25.0457C37.277 25.0103 37.2825 24.9753 37.2932 24.9426C37.3039 24.9099 37.3196 24.8803 37.3394 24.8553L39.5093 22.7296Z" fill="black"/>
<path d="M17.8327 36.6027L20.0516 34.4257C20.0922 34.3771 20.146 34.35 20.2019 34.35C20.2577 34.35 20.3115 34.3771 20.3521 34.4257C20.3919 34.4763 20.4143 34.5449 20.4143 34.6165C20.4143 34.688 20.3919 34.7566 20.3521 34.8073L18.1855 36.9315L20.3521 39.0572C20.3919 39.1077 20.4143 39.1762 20.4143 39.2477C20.4143 39.3191 20.3919 39.3876 20.3521 39.4381C20.3117 39.4874 20.2579 39.5149 20.2019 39.5149C20.1458 39.5149 20.092 39.4874 20.0516 39.4381C20.0516 39.4381 17.7713 37.214 17.697 37.1284C17.5305 36.9037 17.7027 36.7332 17.8327 36.6027Z" fill="black"/>
<path d="M19.8473 30.1071C19.6785 29.8796 19.8529 29.7084 19.9829 29.5814L22.2018 27.4044C22.2425 27.3557 22.2962 27.3287 22.3521 27.3287C22.408 27.3287 22.4617 27.3557 22.5024 27.4044C22.5422 27.4549 22.5645 27.5234 22.5645 27.5948C22.5645 27.6662 22.5422 27.7347 22.5024 27.7853L20.3363 29.9102L22.5035 32.0373C22.5433 32.088 22.5657 32.1566 22.5657 32.2281C22.5657 32.2997 22.5433 32.3683 22.5035 32.4189C22.463 32.468 22.4092 32.4954 22.3532 32.4954C22.2972 32.4954 22.2434 32.468 22.203 32.4189C21.4962 31.7242 19.9216 30.1927 19.8473 30.1071Z" fill="black"/>
<path d="M24.8996 22.7295L27.0662 24.8544C27.1058 24.9052 27.1281 24.9738 27.1281 25.0452C27.1281 25.1167 27.1058 25.1853 27.0662 25.236C27.0257 25.2851 26.9719 25.3125 26.9159 25.3125C26.8599 25.3125 26.8061 25.2851 26.7656 25.236C26.06 24.5434 24.4854 23.0119 24.4111 22.9263C24.2423 22.6988 24.4167 22.5276 24.5467 22.3999L26.7656 20.2236C26.8062 20.1748 26.86 20.1476 26.9159 20.1476C26.9718 20.1476 27.0256 20.1748 27.0662 20.2236C27.1059 20.2741 27.1283 20.3426 27.1283 20.4141C27.1283 20.4855 27.1059 20.554 27.0662 20.6045L24.8996 22.7295Z" fill="black"/>
<path d="M29.8091 20.4519C30.1679 20.2851 30.5593 20.2677 30.9264 20.4022C31.2935 20.5367 31.6172 20.8161 31.8504 21.1998C32.0837 21.5834 32.2143 22.0514 32.2234 22.5356C32.2324 23.0198 32.1194 23.4951 31.9008 23.8924C31.6821 24.2896 31.3692 24.5881 31.0076 24.7445C30.6459 24.9009 30.2543 24.907 29.8897 24.762C29.5251 24.617 29.2065 24.3284 28.9802 23.9381C28.7539 23.5478 28.6316 23.0762 28.6313 22.5918C28.6307 22.1251 28.7434 21.6693 28.9541 21.2865C29.1648 20.9037 29.4633 20.6123 29.8091 20.4519Z" fill="#CCEAFF"/>
<path d="M44.9226 12.7781C46.0887 13.6379 47.0227 14.9244 47.6019 16.4688C47.7212 16.7791 47.3542 17.053 47.2349 16.7406C46.6733 15.2924 45.7965 14.0782 44.7082 13.2411C44.6623 13.2033 44.6297 13.1446 44.6171 13.0772C44.6044 13.0097 44.6128 12.9387 44.6404 12.8789C44.668 12.8191 44.7127 12.775 44.7652 12.7558C44.8178 12.7366 44.8741 12.7439 44.9226 12.776V12.7781Z" fill="black"/>
<path d="M45.2744 11.1375C46.8482 12.0697 48.1036 13.6908 48.8096 15.7027C48.9221 16.0173 48.553 16.2919 48.4427 15.9752C47.7702 14.0449 46.5684 12.489 45.06 11.5962C44.8118 11.4528 45.0279 10.9877 45.2744 11.1375Z" fill="black"/>
<path d="M44.756 20.5803V48.8167C44.7612 49.4891 44.6591 50.1558 44.4559 50.7769C44.2527 51.3979 43.9525 51.9605 43.5734 52.4308C43.1943 52.9012 42.7441 53.2695 42.2499 53.5137C41.7557 53.7579 41.2276 53.873 40.6974 53.852C19.2065 53.8955 16.8007 53.9012 16.1738 53.7629C15.3269 53.5585 14.5584 53.0005 13.991 52.1778C13.4235 51.3551 13.0899 50.3152 13.0432 49.224C13.0325 48.9986 12.938 45.6318 13.0364 21.0767C13.0251 20.4473 13.0628 19.8179 13.149 19.1979C13.3613 18.1708 13.8347 17.2611 14.4959 16.6093C15.1571 15.9575 15.9693 15.6 16.8069 15.5921H40.8471C41.3676 15.5691 41.8862 15.6827 42.3704 15.9257C42.8546 16.1687 43.294 16.5358 43.661 17.0042C44.028 17.4725 44.3147 18.0319 44.5031 18.6473C44.6915 19.2626 44.7776 19.9207 44.756 20.5803ZM40.9856 16.1313H16.8063C15.96 16.1406 15.1473 16.5524 14.5291 17.2852C13.911 18.018 13.5325 19.0183 13.4686 20.0881C13.4512 20.4447 13.4523 49.0721 13.485 49.4701C13.5861 50.5308 13.9906 51.5077 14.6218 52.2158C15.2529 52.9239 16.067 53.3142 16.9099 53.3128H40.7273C41.182 53.336 41.636 53.2454 42.0631 53.0462C42.4903 52.847 42.8823 52.5431 43.2168 52.1518C43.5512 51.7605 43.8216 51.2895 44.0124 50.7657C44.2032 50.242 44.3108 49.6757 44.3289 49.0992C44.3323 48.9687 44.3289 48.8374 44.3289 48.7069V20.5432C44.3449 19.9727 44.2704 19.4039 44.1097 18.8707C43.949 18.3374 43.7053 17.8505 43.3933 17.4389C43.0812 17.0273 42.7071 16.6994 42.2931 16.4747C41.8791 16.2499 41.4337 16.1329 40.9833 16.1306L40.9856 16.1313Z" fill="black"/>
<path d="M32.6143 31.7158C32.5434 31.7672 32.8163 31.8827 28.8331 31.7508C28.7964 31.7486 28.7608 31.7347 28.7294 31.7105C28.698 31.6862 28.672 31.6524 28.6536 31.612C28.6353 31.5717 28.6253 31.5261 28.6245 31.4795C28.6237 31.433 28.6322 31.3869 28.6491 31.3456C29.1635 30.1586 30.4134 27.5073 30.4893 27.3425C30.5188 27.2809 30.5664 27.2368 30.6216 27.2196C30.6768 27.2025 30.7351 27.2139 30.7836 27.2512C30.8551 27.3054 30.715 27.0372 32.697 31.3456C32.7109 31.3768 32.7197 31.4111 32.723 31.4466C32.7264 31.4821 32.7241 31.5181 32.7165 31.5525C32.7088 31.5869 32.6958 31.6191 32.6782 31.6471C32.6607 31.6751 32.639 31.6985 32.6143 31.7158ZM30.6728 28.0137L29.2029 31.2122H32.1427L30.6728 28.0137Z" fill="black"/>
<path d="M27.8488 31.7158C27.7779 31.7672 28.0502 31.8827 24.0671 31.7508C24.0304 31.7487 23.9946 31.7348 23.9633 31.7106C23.9319 31.6863 23.9058 31.6525 23.8875 31.6121C23.8693 31.5716 23.8593 31.526 23.8586 31.4795C23.8579 31.4329 23.8665 31.3868 23.8836 31.3456C24.398 30.1587 25.6478 27.5073 25.7233 27.3425C25.7379 27.3119 25.7571 27.2853 25.7798 27.2642C25.8026 27.243 25.8284 27.2278 25.8558 27.2193C25.8831 27.2108 25.9116 27.2093 25.9394 27.2148C25.9673 27.2202 25.9941 27.2326 26.0181 27.2512C26.0975 27.3118 25.9697 27.095 27.9315 31.3456C27.9453 31.3768 27.9541 31.4111 27.9574 31.4466C27.9607 31.4821 27.9584 31.5181 27.9507 31.5525C27.943 31.5868 27.9301 31.619 27.9126 31.647C27.8951 31.675 27.8734 31.6984 27.8488 31.7158ZM25.9067 28.0137L24.4368 31.2122H27.3766L25.9067 28.0137Z" fill="black"/>
<path d="M28.9578 34.7631H31.8054C31.8615 34.7642 31.915 34.793 31.9546 34.8433C31.9942 34.8936 32.0168 34.9616 32.0175 35.0327V38.6413C32.0168 38.7124 31.9942 38.7804 31.9546 38.8307C31.915 38.8811 31.8615 38.9099 31.8054 38.911C28.6078 38.9395 28.9094 38.9402 28.8081 38.8304C28.7175 38.7077 28.7237 38.9431 28.7451 35.0327C28.7458 34.9615 28.7685 34.8934 28.8082 34.8431C28.848 34.7927 28.9016 34.764 28.9578 34.7631ZM29.1706 38.3717H31.5904V35.3045H29.1706V38.3717Z" fill="black"/>
<path d="M24.6748 34.7665L26.5144 38.7697C26.5283 38.8007 26.5372 38.835 26.5407 38.8704C26.5441 38.9059 26.5419 38.9419 26.5343 38.9763C26.5268 39.0107 26.5139 39.0428 26.4965 39.0709C26.479 39.099 26.4574 39.1224 26.4328 39.1399C26.358 39.1934 26.596 39.1748 22.6511 39.1748C22.6145 39.1724 22.579 39.1583 22.5478 39.134C22.5166 39.1096 22.4907 39.0758 22.4724 39.0355C22.4542 38.9952 22.4442 38.9498 22.4434 38.9033C22.4425 38.8569 22.4509 38.811 22.4677 38.7697C22.4677 38.7697 24.2319 34.9306 24.3079 34.7665C24.327 34.7265 24.3539 34.6934 24.386 34.6705C24.4182 34.6475 24.4544 34.6354 24.4913 34.6354C24.5282 34.6354 24.5645 34.6475 24.5966 34.6705C24.6288 34.6934 24.6557 34.7265 24.6748 34.7665ZM25.9612 38.6356L24.4913 35.4378L23.0209 38.6356H25.9612Z" fill="black"/>
<path d="M33.3817 34.6361L36.2692 38.2961C36.3061 38.3474 36.3259 38.4146 36.3246 38.484C36.3234 38.5533 36.3011 38.6193 36.2624 38.6684C36.2237 38.7174 36.1716 38.7457 36.1169 38.7473C36.0622 38.7489 36.0091 38.7237 35.9687 38.677C34.9895 37.4786 34.0268 36.2586 33.0806 35.017C33.0419 34.9661 33.0204 34.898 33.0209 34.8272C33.0215 34.7565 33.0439 34.6888 33.0834 34.6389C33.1229 34.5889 33.1763 34.5606 33.2321 34.5601C33.2879 34.5595 33.3416 34.5869 33.3817 34.6361Z" fill="black"/>
<path d="M35.9687 24.6611C34.9895 23.4627 34.0268 22.2425 33.0806 21.0003C33.0419 20.9495 33.0204 20.8813 33.0209 20.8106C33.0215 20.7398 33.0439 20.6722 33.0834 20.6222C33.1229 20.5722 33.1763 20.5439 33.2321 20.5434C33.2879 20.5429 33.3416 20.5702 33.3817 20.6194L36.2692 24.2802C36.3061 24.3314 36.3259 24.3987 36.3246 24.468C36.3234 24.5374 36.3011 24.6034 36.2624 24.6524C36.2237 24.7015 36.1716 24.7297 36.1169 24.7313C36.0622 24.7329 36.0091 24.7078 35.9687 24.6611Z" fill="black"/>
<path d="M35.9686 31.6971C34.9898 30.4973 34.0271 29.2771 33.0806 28.0364C33.0418 27.9855 33.0203 27.9174 33.0209 27.8466C33.0214 27.7759 33.0438 27.7082 33.0833 27.6583C33.1228 27.6083 33.1762 27.58 33.232 27.5795C33.2878 27.579 33.3416 27.6063 33.3816 27.6555C34.3597 28.8553 35.3222 30.0753 36.2691 31.3155C36.308 31.3663 36.3295 31.4344 36.3291 31.5052C36.3287 31.5759 36.3064 31.6436 36.2669 31.6937C36.2275 31.7437 36.1741 31.7722 36.1183 31.7728C36.0625 31.7735 36.0087 31.7463 35.9686 31.6971Z" fill="black"/>
<path d="M41.5149 24.9921C41.4611 24.9898 41.41 24.9617 41.3719 24.9135C41.3337 24.8653 41.3115 24.8006 41.3095 24.7324V20.8656C41.3123 20.7965 41.3359 20.7315 41.3754 20.6839C41.415 20.6363 41.4674 20.6098 41.5219 20.6098C41.5765 20.6098 41.6289 20.6363 41.6684 20.6839C41.708 20.7315 41.7316 20.7965 41.7344 20.8656V24.7324C41.7334 24.7678 41.727 24.8025 41.7155 24.8347C41.7039 24.8668 41.6875 24.8958 41.6671 24.9199C41.6467 24.944 41.6228 24.9628 41.5967 24.9752C41.5706 24.9876 41.5428 24.9933 41.5149 24.9921Z" fill="black"/>
<path d="M41.5149 32.1089C41.461 32.1066 41.4098 32.0784 41.3717 32.0301C41.3335 31.9818 41.3113 31.9169 41.3095 31.8485V27.9803C41.3123 27.9112 41.3359 27.8462 41.3754 27.7986C41.415 27.751 41.4674 27.7245 41.5219 27.7245C41.5765 27.7245 41.6289 27.751 41.6684 27.7986C41.708 27.8462 41.7316 27.9112 41.7344 27.9803V31.8471C41.7336 31.8826 41.7273 31.9175 41.7158 31.9499C41.7043 31.9823 41.6879 32.0115 41.6675 32.0358C41.6471 32.0601 41.6232 32.0791 41.597 32.0916C41.5708 32.1042 41.5429 32.11 41.5149 32.1089Z" fill="black"/>
<path d="M41.5138 39.1449C41.4602 39.1422 41.4093 39.114 41.3715 39.0659C41.3336 39.0177 41.3114 38.9532 41.3095 38.8853V35.0177C41.3123 34.9487 41.3359 34.8836 41.3754 34.836C41.415 34.7884 41.4674 34.7619 41.5219 34.7619C41.5765 34.7619 41.6289 34.7884 41.6684 34.836C41.708 34.8836 41.7316 34.9487 41.7344 35.0177V38.8853C41.7334 38.9207 41.7268 38.9555 41.7152 38.9877C41.7036 39.0199 41.687 39.0489 41.6665 39.073C41.6461 39.0972 41.622 39.1159 41.5958 39.1282C41.5696 39.1406 41.5417 39.1462 41.5138 39.1449Z" fill="black"/>
<path d="M41.5149 46.1569C41.461 46.1544 41.4099 46.1262 41.3718 46.0779C41.3337 46.0296 41.3115 45.9648 41.3095 45.8966V42.0297C41.3123 41.9607 41.3359 41.8957 41.3754 41.8481C41.415 41.8005 41.4674 41.7739 41.5219 41.7739C41.5765 41.7739 41.6289 41.8005 41.6684 41.8481C41.708 41.8957 41.7316 41.9607 41.7344 42.0297V45.8966C41.7325 45.968 41.7083 46.0355 41.6671 46.0843C41.626 46.1331 41.5712 46.1592 41.5149 46.1569Z" fill="black"/>
<path d="M39.6845 37.264L37.4627 39.441C37.4221 39.4896 37.3684 39.5167 37.3125 39.5167C37.2566 39.5167 37.2029 39.4896 37.1622 39.441C37.1224 39.3905 37.1001 39.322 37.1001 39.2506C37.1001 39.1792 37.1224 39.1107 37.1622 39.0601C37.2123 39.0109 38.6569 37.5943 39.3283 36.9344L37.1622 34.8102C37.1224 34.7595 37.1 34.6909 37.1 34.6194C37.1 34.5479 37.1224 34.4792 37.1622 34.4286C37.2026 34.3793 37.2565 34.3518 37.3125 34.3518C37.3685 34.3518 37.4224 34.3793 37.4627 34.4286C37.4627 34.4286 39.743 36.6527 39.8173 36.7383C39.9861 36.9658 39.8145 37.137 39.6845 37.264Z" fill="black"/>
<path d="M39.6841 30.2421L37.4624 32.4184C37.4219 32.4673 37.3681 32.4946 37.3121 32.4946C37.2562 32.4946 37.2024 32.4673 37.1619 32.4184C37.1221 32.3678 37.0997 32.2993 37.0997 32.2279C37.0997 32.1565 37.1221 32.088 37.1619 32.0375L39.3307 29.9125L37.1647 27.7875C37.1249 27.737 37.1025 27.6685 37.1025 27.5971C37.1025 27.5257 37.1249 27.4572 37.1647 27.4066C37.205 27.3572 37.2588 27.3296 37.3149 27.3296C37.371 27.3296 37.4249 27.3572 37.4652 27.4066C38.1709 28.0986 39.7455 29.6307 39.8197 29.7156C39.9858 29.9432 39.8141 30.1115 39.6841 30.2421Z" fill="black"/>
<path d="M39.6841 23.059L37.4624 25.2353C37.4219 25.2842 37.3681 25.3115 37.3121 25.3115C37.2562 25.3115 37.2024 25.2842 37.1619 25.2353C37.1221 25.1847 37.0997 25.1163 37.0997 25.0448C37.0997 24.9734 37.1221 24.9049 37.1619 24.8544L39.3307 22.7294L37.1647 20.6045C37.1249 20.5539 37.1025 20.4854 37.1025 20.414C37.1025 20.3426 37.1249 20.2741 37.1647 20.2236C37.205 20.1743 37.2589 20.1468 37.3149 20.1468C37.371 20.1468 37.4248 20.1743 37.4652 20.2236C38.1709 20.9155 39.7455 22.4477 39.8197 22.5333C39.9858 22.7601 39.8141 22.9313 39.6841 23.059Z" fill="black"/>
<path d="M20.1729 34.4285C20.2127 34.4791 20.2351 34.5478 20.2351 34.6193C20.2351 34.6908 20.2127 34.7594 20.1729 34.8101L18.0063 36.9343L20.1729 39.0593C20.2126 39.1101 20.2348 39.1786 20.2348 39.2501C20.2348 39.3216 20.2126 39.3902 20.1729 39.4409C20.1325 39.49 20.0786 39.5174 20.0226 39.5174C19.9666 39.5174 19.9128 39.49 19.8724 39.4409C19.8724 39.4409 17.5921 37.2168 17.5178 37.1312C17.349 36.9037 17.5229 36.7332 17.6534 36.6055L19.8724 34.4285C19.913 34.3799 19.9668 34.3528 20.0226 34.3528C20.0785 34.3528 20.1323 34.3799 20.1729 34.4285Z" fill="black"/>
<path d="M20.1573 29.9105L22.3245 32.0376C22.3643 32.0882 22.3867 32.1568 22.3867 32.2284C22.3867 32.2999 22.3643 32.3685 22.3245 32.4192C22.284 32.4683 22.2302 32.4957 22.1742 32.4957C22.1182 32.4957 22.0644 32.4683 22.024 32.4192C21.3183 31.7266 19.7437 30.1951 19.6694 30.1095C19.5006 29.8819 19.675 29.7107 19.805 29.5838L22.024 27.4067C22.0646 27.3581 22.1183 27.3311 22.1742 27.3311C22.2301 27.3311 22.2838 27.3581 22.3245 27.4067C22.3443 27.4317 22.3601 27.4613 22.3708 27.494C22.3816 27.5267 22.3871 27.5618 22.3871 27.5972C22.3871 27.6326 22.3816 27.6677 22.3708 27.7004C22.3601 27.733 22.3443 27.7627 22.3245 27.7876L20.1573 29.9105Z" fill="black"/>
<path d="M24.721 22.7294L26.8876 24.8544C26.9274 24.9049 26.9497 24.9734 26.9497 25.0448C26.9497 25.1163 26.9274 25.1848 26.8876 25.2353C26.8473 25.2849 26.7934 25.3126 26.7373 25.3126C26.6812 25.3126 26.6273 25.2849 26.5871 25.2353C25.8814 24.5434 24.3068 23.0119 24.2325 22.9263C24.0637 22.6988 24.2381 22.5276 24.3676 22.3999L26.5871 20.2236C26.6277 20.175 26.6814 20.1479 26.7373 20.1479C26.7932 20.1479 26.8469 20.175 26.8876 20.2236C26.9274 20.2741 26.9497 20.3426 26.9497 20.414C26.9497 20.4854 26.9274 20.5539 26.8876 20.6045L24.721 22.7294Z" fill="black"/>
<path d="M30.8678 24.7275C30.5341 24.8823 30.1718 24.9081 29.8266 24.8019C29.4813 24.6957 29.1686 24.4621 28.9281 24.1307C28.6875 23.7993 28.5299 23.3849 28.4751 22.94C28.4203 22.4951 28.4707 22.0395 28.6201 21.6309C28.7695 21.2223 29.0111 20.8791 29.3143 20.6445C29.6176 20.4099 29.9689 20.2945 30.3239 20.3129C30.6789 20.3313 31.0216 20.4827 31.3087 20.7479C31.5958 21.0131 31.8145 21.3803 31.937 21.803C32.0184 22.084 32.0553 22.3826 32.0456 22.6817C32.0359 22.9808 31.9798 23.2745 31.8805 23.5461C31.7812 23.8177 31.6407 24.0618 31.4669 24.2646C31.2931 24.4673 31.0896 24.6246 30.8678 24.7275ZM30.7136 20.9513C30.5062 20.8572 30.284 20.8278 30.0658 20.8655C29.8475 20.9031 29.6396 21.0067 29.4596 21.1676C29.2796 21.3284 29.1327 21.5418 29.0314 21.7897C28.93 22.0376 28.8772 22.3127 28.8773 22.5919C28.8793 22.9502 28.9674 23.2993 29.13 23.5925C29.2926 23.8857 29.5219 24.1089 29.7873 24.2325C30.1298 24.3865 30.5065 24.3621 30.8348 24.1646C31.1632 23.9672 31.4164 23.6128 31.5389 23.1792C31.6615 22.7455 31.6435 22.268 31.4888 21.8512C31.3341 21.4344 31.0553 21.1123 30.7136 20.9555V20.9513Z" fill="black"/>
<path d="M47.4232 16.468C47.5425 16.779 47.1756 17.0522 47.0563 16.7405C46.4998 15.288 45.6218 14.072 44.5296 13.241C44.4819 13.2028 44.4481 13.1422 44.4357 13.0726C44.4232 13.0029 44.4331 12.9298 44.4632 12.8693C44.4915 12.8108 44.5366 12.7685 44.5891 12.7511C44.6415 12.7337 44.6972 12.7426 44.7445 12.7759C45.91 13.6373 46.8435 14.9239 47.4232 16.468Z" fill="black"/>
<path d="M48.2637 15.978C47.5854 14.0529 46.3856 12.4994 44.8816 11.599C44.6334 11.4563 44.8495 10.9877 45.096 11.1339C46.6686 12.0699 47.9233 13.6915 48.6312 15.7027C48.7409 16.0201 48.3746 16.2947 48.2637 15.978Z" fill="black"/>
</svg>
