<svg width="101" height="93" viewBox="0 0 101 93" fill="none" xmlns="http://www.w3.org/2000/svg">
<path d="M37.8629 7.2173C36.3242 6.82205 35.4465 10.2212 37.1801 11.2014C37.3987 11.3007 37.6487 11.3242 37.8845 11.2675C38.1203 11.2108 38.326 11.0777 38.4638 10.8927C38.7804 10.4415 38.9467 9.91484 38.9421 9.37769C38.986 8.59882 38.8345 7.46654 37.8629 7.2173Z" fill="#FFD2D2"/>
<path d="M56.1363 16.9646C54.198 15.7657 52.0379 14.903 49.7627 14.4192C46.8383 13.7283 43.7622 13.8045 40.8823 14.6391C40.8773 14.6391 40.8742 14.6447 40.8692 14.647C40.9024 14.6401 40.9369 14.6407 40.9699 14.6488C41.0028 14.6569 41.033 14.6722 41.058 14.6935C41.5138 15.0862 41.9046 15.5381 42.218 16.0351C42.668 16.7586 43.2603 18.1466 42.0973 18.5665C41.6068 18.7248 41.074 18.7333 40.5778 18.5907C39.2724 18.2187 38.3629 17.4436 37.2554 16.5791C37.234 16.5595 37.2176 16.5357 37.2074 16.5095C37.1973 16.4833 37.1937 16.4554 37.1968 16.4277C37.2 16.4001 37.2098 16.3734 37.2256 16.3497C37.2414 16.326 37.2628 16.3059 37.2882 16.2908L37.2781 16.295C35.5445 17.4124 34.1365 18.9058 33.1785 20.6432C30.9217 24.7645 31.9766 28.9746 33.9865 33.1805C35.1139 35.6071 36.6664 37.8467 38.582 39.8101C38.9991 38.7274 39.5327 37.6859 40.1748 36.7011C41.3363 34.9299 43.5351 32.7574 45.7202 32.4142C46.3479 32.3245 46.9888 32.3513 47.6052 32.4929C48.2215 32.6346 48.8009 32.8883 49.3092 33.2391C50.8535 34.2728 51.9903 35.9673 52.9377 37.5134C53.7354 34.7114 54.8235 31.9864 56.1868 29.3759C57.8207 26.2018 60.0568 23.3217 62.7897 20.8711C60.6057 19.5232 58.388 18.221 56.1363 16.9646ZM47.616 32.2631C44.9592 29.5377 42.2402 26.7705 38.7335 25.0463C38.5002 24.9314 38.7078 24.605 38.9406 24.7208C42.4948 26.4711 45.2223 29.2411 47.9084 31.9971C48.0826 32.178 47.7927 32.4449 47.616 32.2636V32.2631Z" fill="#FC9070"/>
<path d="M41.6625 4.49749C41.4242 4.35055 41.4221 4.47749 41.5509 4.32311C41.6411 4.21416 41.6884 4.08025 41.6851 3.9433C41.6818 3.80636 41.6281 3.67451 41.5327 3.56935C41.3603 3.44877 41.1508 3.3815 40.9343 3.37716C40.7178 3.37281 40.5053 3.43162 40.3273 3.54517C40.5606 3.26617 40.7591 2.96531 40.5525 2.60912C40.2404 2.06972 39.5481 2.40685 39.2097 2.7184C38.3868 3.39105 37.6702 4.16644 37.0807 5.02201C37.002 5.1353 36.9544 5.26453 36.9421 5.39852C36.9298 5.53252 36.9531 5.66726 37.01 5.79112C37.0922 5.88041 37.1957 5.95093 37.3125 5.99716C37.4293 6.04339 37.5562 6.06407 37.6831 6.05756C38.8194 6.02753 39.9487 5.88425 41.0515 5.63023C41.405 5.5642 41.8893 5.55257 41.9675 5.15453C41.9915 5.02957 41.9754 4.90089 41.9212 4.78421C41.8671 4.66753 41.7772 4.5679 41.6625 4.49749Z" fill="black"/>
<path d="M41.0565 14.694C41.0243 14.6671 40.9843 14.6493 40.9414 14.6429C40.8984 14.6366 40.8543 14.6419 40.8146 14.6582C39.5612 15.0382 38.3748 15.5849 37.2932 16.2811L37.2842 16.2894C37.2588 16.3045 37.2374 16.3247 37.2216 16.3483C37.2057 16.372 37.1959 16.3987 37.1928 16.4264C37.1896 16.454 37.1932 16.482 37.2034 16.5082C37.2135 16.5344 37.2299 16.5582 37.2513 16.5777C38.4244 17.4929 40.0884 18.9097 41.6953 18.6665C43.7148 18.3624 42.5493 15.996 41.0565 14.694Z" fill="#2755A0"/>
<path d="M35.5192 13.5338C35.4242 13.5255 32.8664 14.1016 31.4287 12.4992C30.2833 11.2232 30.6565 8.89453 33.2467 7.41629C33.4704 7.28842 33.2633 6.9592 33.0391 7.09079C30.2237 8.73271 29.9106 11.1633 30.9641 12.555C31.4047 13.0777 31.9859 13.4853 32.6502 13.7376C33.3146 13.9899 34.0389 14.078 34.7516 13.9933C27.877 18.7688 26.8231 27.7456 31.2166 34.8457C32.4017 36.6244 33.6873 38.3447 35.0682 39.9993H35.5798C34.2648 38.4434 33.0353 36.8278 31.8958 35.1587C27.1185 27.9995 28.1638 18.5535 35.6222 13.8882C35.658 13.8653 35.6853 13.8328 35.7003 13.7951C35.7154 13.7574 35.7174 13.7164 35.7061 13.6776C35.6948 13.6388 35.6708 13.6042 35.6374 13.5785C35.6039 13.5527 35.5626 13.5371 35.5192 13.5338Z" fill="#A982F4"/>
<path d="M23.0129 78.9031C22.9795 78.8896 22.9437 78.8812 22.9088 78.8696C22.6245 78.7772 22.317 78.7638 22.0245 78.831C21.732 78.8982 21.4674 79.0431 21.2635 79.2477H23.5047C23.3719 79.0994 23.2035 78.9814 23.0129 78.9031Z" fill="#E6DEFF"/>
<path d="M78.0998 44.0658C77.31 44.1653 76.3646 44.2053 75.6627 43.7919C75.3358 43.6008 75.1015 43.301 75.0087 42.9549C74.9855 42.8027 74.9971 42.6478 75.0428 42.5C75.0886 42.3522 75.1674 42.2149 75.2743 42.0969C75.8515 41.3762 76.9297 40.8214 77.8741 40.383C76.8823 40.3797 51.5504 40.3792 51.5504 40.3792C51.4954 40.6117 51.4999 40.6424 51.4585 40.6926C51.2677 41.4425 50.9807 42.1688 50.6036 42.8563C50.3324 43.3073 49.787 43.7695 49.1896 43.5291C48.9725 43.4186 48.7816 43.2693 48.6279 43.0901C48.4742 42.9108 48.3607 42.7052 48.2942 42.4852C48.1678 42.117 48.0646 41.7424 47.9851 41.3632C47.9377 42.0653 47.8235 43.0293 47.2832 43.5166C47.0571 43.7285 46.7491 43.8496 46.4265 43.8534C46.1039 43.8573 45.7926 43.7435 45.5606 43.537C45.1812 43.1021 44.9145 42.5932 44.7809 42.049C44.6777 41.7543 44.5916 41.4547 44.5229 41.1516C44.368 41.9227 44.0101 42.6472 43.4805 43.2613C43.1397 43.6356 42.5296 43.8774 42.0979 43.4668C41.9384 43.295 41.8249 43.0912 41.7666 42.8716C41.5401 42.0581 41.4822 41.2125 41.5959 40.3792H38.6522C38.6207 40.3789 38.5897 40.372 38.5615 40.359C38.5334 40.346 38.5088 40.3272 38.4898 40.3041C38.4707 40.2809 38.4576 40.2541 38.4516 40.2256C38.4455 40.1972 38.4466 40.1678 38.4548 40.1398C38.472 40.0933 38.4927 40.0468 38.5103 40.0003H29.3304C29.2894 39.9988 29.249 40.0097 29.2153 40.0313C29.1817 40.053 29.1567 40.0842 29.1441 40.1202C29.1103 40.1667 29.2911 39.7213 22.5448 57.4619H44.4648C44.519 57.4624 44.5708 57.4825 44.6092 57.5178C44.6475 57.5531 44.6693 57.6008 44.6698 57.6507C44.6744 58.2222 44.6047 65.5148 44.6698 73.2654C44.6687 73.3152 44.6467 73.3626 44.6085 73.3977C44.5703 73.4329 44.5188 73.4532 44.4648 73.4542H16.463C14.739 77.9889 18.6734 67.6492 14.3511 79.0077C14.3432 79.0357 14.3422 79.0651 14.3484 79.0935C14.3546 79.1219 14.3677 79.1487 14.3868 79.1717C14.4059 79.1947 14.4304 79.2135 14.4585 79.2265C14.4867 79.2395 14.5176 79.2464 14.5491 79.2467H18.2861C17.3837 78.1265 17.9831 76.4525 18.1503 75.2449C18.1826 75.0064 18.5936 75.0045 18.5608 75.2449C18.379 76.5702 17.7654 78.3311 18.8259 79.2467H20.6439C21.1176 78.8868 21.6393 78.2619 22.7402 78.4362C23.0014 78.4777 23.2495 78.5718 23.4665 78.7119C23.6836 78.8521 23.8643 79.0347 23.9956 79.2467H66.2434C66.2882 79.2455 66.3314 79.2314 66.367 79.2064C66.4026 79.1813 66.4288 79.1467 66.4419 79.1072C66.9029 77.7982 68.3462 74.0992 68.5578 73.543H66.7161C66.6634 73.5406 66.6138 73.5197 66.5774 73.4845C66.541 73.4493 66.5207 73.4026 66.5207 73.354C66.5207 73.3054 66.541 73.2587 66.5774 73.2235C66.6138 73.1884 66.6634 73.1674 66.7161 73.165C66.7161 73.165 68.5846 73.165 68.7028 73.1613L76.5111 52.6297C76.449 52.6143 76.3853 52.6022 76.3257 52.5832C76.2739 52.5689 76.2301 52.5367 76.2034 52.4934C76.1767 52.4501 76.1691 52.399 76.1823 52.3507L79.4325 43.804C78.9957 43.9207 78.5503 44.0082 78.0998 44.0658Z" fill="#E6DEFF"/>
<path d="M66.9246 80.6966V90.4797C66.9272 90.5282 66.95 90.574 66.9882 90.6075C67.0264 90.6409 67.0772 90.6596 67.1299 90.6596C67.1826 90.6596 67.2334 90.6409 67.2716 90.6075C67.3098 90.574 67.3326 90.5282 67.3352 90.4797V80.6966C67.3326 80.6481 67.3098 80.6024 67.2716 80.5689C67.2334 80.5354 67.1826 80.5167 67.1299 80.5167C67.0772 80.5167 67.0264 80.5354 66.9882 80.5689C66.95 80.6024 66.9272 80.6481 66.9246 80.6966Z" fill="#E6DEFF"/>
<path d="M85.7698 42.0193C85.4079 41.0103 84.8941 40.0532 84.2431 39.1758C83.0608 37.5444 81.7854 35.9719 80.4223 34.4649C79.9249 36.6699 79.4956 38.2193 79.0012 40.2402C78.9765 40.342 78.8891 40.3751 78.775 40.3797C78.472 40.3904 78.169 40.3909 77.866 40.3885C76.9454 40.8182 75.8379 41.3911 75.2728 42.0969C75.1659 42.2149 75.0871 42.3522 75.0413 42.5C74.9956 42.6478 74.9839 42.8027 75.0072 42.9549C75.1 43.301 75.3343 43.6008 75.6612 43.7919C76.3631 44.2076 77.309 44.1639 78.0983 44.0658C78.5484 44.0092 78.9934 43.9228 79.43 43.8072L76.1798 52.3539C76.1666 52.4022 76.1741 52.4533 76.2009 52.4967C76.2276 52.54 76.2714 52.5721 76.3232 52.5864C76.6892 52.7199 77.0867 52.7632 77.4764 52.7119C77.8661 52.6606 78.2345 52.5165 78.5452 52.2939C78.5038 52.5338 78.5648 52.7791 78.7154 52.9784C78.8661 53.1778 79.0946 53.3158 79.3532 53.3634C79.8511 53.4341 80.1456 53.0444 80.3713 52.7003C80.4508 52.5794 80.525 52.4554 80.594 52.3283C80.5973 52.712 80.7161 53.0872 80.9374 53.4123C81.4116 53.9335 82.0292 53.3309 82.2358 52.9101C82.4756 52.4223 84.2462 48.7474 84.8658 47.3882C85.6369 45.7067 86.2929 43.8467 85.7698 42.0193ZM80.6389 43.4199L81.9585 42.8038C82.1933 42.6935 82.4014 43.02 82.1656 43.1293L80.8465 43.7454C80.6112 43.8565 80.4036 43.5301 80.6389 43.4199ZM81.4353 47.3031L80.4662 49.1933C80.3531 49.4137 79.9996 49.2212 80.1127 49.0027C80.4356 48.3727 80.7586 47.7427 81.0818 47.1124C81.1939 46.892 81.5479 47.0841 81.4353 47.3031ZM83.0044 47.3031C82.6492 48.0539 82.2938 48.805 81.9383 49.5565C81.8328 49.7792 81.4788 49.5867 81.5848 49.3658L82.6514 47.1124C82.7554 46.8897 83.1094 47.0822 83.0044 47.3031Z" fill="#FFD2D2"/>
<path d="M79.4431 54.9914V78.7245C79.4457 78.773 79.4684 78.8188 79.5066 78.8523C79.5449 78.8857 79.5956 78.9044 79.6483 78.9044C79.7011 78.9044 79.7518 78.8857 79.79 78.8523C79.8282 78.8188 79.851 78.773 79.8536 78.7245V54.9914C79.851 54.9429 79.8282 54.8972 79.79 54.8637C79.7518 54.8302 79.7011 54.8115 79.6483 54.8115C79.5956 54.8115 79.5449 54.8302 79.5066 54.8637C79.4684 54.8972 79.4457 54.9429 79.4431 54.9914Z" fill="#E6DEFF"/>
<path d="M14.342 82.5887V90.4797C14.3447 90.5282 14.3674 90.574 14.4056 90.6075C14.4438 90.6409 14.4946 90.6596 14.5473 90.6596C14.6001 90.6596 14.6508 90.6409 14.689 90.6075C14.7272 90.574 14.75 90.5282 14.7526 90.4797V82.5887C14.75 82.5402 14.7272 82.4944 14.689 82.461C14.6508 82.4275 14.6001 82.4088 14.5473 82.4088C14.4946 82.4088 14.4438 82.4275 14.4056 82.461C14.3674 82.4944 14.3447 82.5402 14.342 82.5887Z" fill="#E6DEFF"/>
<path d="M44.6698 57.6516C44.6693 57.6017 44.6475 57.554 44.6092 57.5187C44.5708 57.4834 44.519 57.4633 44.4648 57.4628H13.1043C13.0501 57.4636 12.9984 57.4837 12.9601 57.5189C12.9219 57.5542 12.9 57.6018 12.8992 57.6516V73.2663C12.8995 73.3163 12.9212 73.3642 12.9596 73.3995C12.998 73.4349 13.05 73.4549 13.1043 73.4551C21.1605 73.444 44.3254 73.4639 44.3915 73.4551C44.7147 73.4207 44.6723 73.3356 44.6708 72.9706C44.6501 69.6723 44.6925 60.5453 44.6698 57.6516Z" fill="#FFD500"/>
<path d="M82.2347 23.4825C82.1145 20.5646 80.2586 18.7535 78.4341 18.3675C77.6359 18.2029 76.8019 18.272 76.0484 18.5651C75.1065 18.9314 74.2534 19.467 73.5391 20.1406C73.1419 19.4868 72.5803 18.9303 71.9014 18.5177C71.2224 18.1051 70.4459 17.8484 69.637 17.7691C64.385 17.404 58.5194 24.9059 56.1923 29.3727C54.829 31.9832 53.7409 34.7082 52.9432 37.5102C53.4698 38.3584 53.9394 39.2355 54.3496 40.1365C54.3578 40.1645 54.3589 40.1939 54.3528 40.2224C54.3467 40.2509 54.3336 40.2777 54.3145 40.3008C54.2953 40.3239 54.2707 40.3427 54.2425 40.3556C54.2143 40.3686 54.1832 40.3754 54.1516 40.3755C67.9583 40.3755 78.7815 40.3829 78.828 40.3713C78.869 40.37 78.9084 40.3561 78.9398 40.3317C78.9712 40.3073 78.9928 40.274 79.0012 40.2369C79.7041 37.3674 80.8697 33.2838 82.0337 26.2544C82.1952 25.3383 82.2625 24.4102 82.2347 23.4825Z" fill="#C0C195"/>
<path d="M71.8792 22.0271C71.9605 22.2596 72.3574 22.1591 72.2751 21.9266L71.6494 20.1596C71.5681 19.9271 71.1712 20.0276 71.2535 20.2601L71.8792 22.0271Z" fill="#77751E"/>
<path d="M54.3496 40.1397C53.6634 38.6537 52.8339 37.2273 51.8711 35.8776C51.2001 34.8624 50.3339 33.9683 49.3148 33.2391C48.8065 32.8883 48.2271 32.6346 47.6107 32.4929C46.9944 32.3513 46.3535 32.3245 45.7257 32.4142C43.5406 32.7574 41.3459 34.9215 40.1803 36.7011C39.4752 37.7881 38.8967 38.9407 38.4548 40.1397C38.4466 40.1678 38.4455 40.1972 38.4516 40.2256C38.4576 40.2541 38.4707 40.2809 38.4897 40.304C38.5088 40.3272 38.5333 40.346 38.5615 40.359C38.5897 40.372 38.6207 40.3789 38.6522 40.3792H41.5969C41.4845 41.2126 41.5424 42.0579 41.7676 42.8716C41.8259 43.0911 41.9394 43.295 42.0988 43.4668C42.5306 43.8774 43.1406 43.6356 43.4815 43.2613C44.0112 42.6475 44.3693 41.9234 44.5243 41.1525C44.5931 41.4557 44.6792 41.7552 44.7824 42.05C44.916 42.5941 45.1827 43.103 45.5621 43.538C45.7941 43.7445 46.1053 43.8582 46.428 43.8543C46.7506 43.8505 47.0585 43.7294 47.2847 43.5175C47.821 43.0339 47.9381 42.0811 47.9866 41.3641C48.0664 41.7432 48.1696 42.1178 48.2957 42.4861C48.3622 42.7061 48.4756 42.9118 48.6294 43.091C48.7831 43.2702 48.974 43.4195 49.191 43.5301C49.7869 43.7705 50.3324 43.3083 50.6051 42.8572C50.982 42.1692 51.2688 41.4425 51.4595 40.6922C51.4277 40.7225 51.3861 40.7424 51.341 40.7491C51.2958 40.7557 51.2495 40.7487 51.2091 40.729C51.1687 40.7093 51.1362 40.6781 51.1167 40.64C51.0972 40.6019 51.0917 40.559 51.101 40.5178C51.324 39.6186 51.4609 38.703 51.51 37.7817C51.5226 37.539 51.9332 37.5385 51.9206 37.7817C51.8765 38.6555 51.7525 39.5242 51.5499 40.3788C52.5155 40.3653 52.5599 40.3504 54.1512 40.3788C54.1828 40.3788 54.214 40.3721 54.2423 40.3592C54.2707 40.3463 54.2954 40.3276 54.3146 40.3045C54.3338 40.2813 54.3469 40.2544 54.353 40.2259C54.3591 40.1973 54.3579 40.1678 54.3496 40.1397ZM47.7533 38.5587C47.7345 38.0249 47.7159 37.4911 47.6978 36.9573C47.6892 36.7136 48.1018 36.7146 48.1083 36.9573L48.1639 38.5587C48.1725 38.8029 47.7619 38.8015 47.7533 38.5592V38.5587ZM44.1754 38.5587C44.165 38.0249 44.165 37.4911 44.1754 36.9573C44.178 36.9088 44.2008 36.863 44.239 36.8296C44.2772 36.7961 44.3279 36.7774 44.3807 36.7774C44.4334 36.7774 44.4842 36.7961 44.5224 36.8296C44.5606 36.863 44.5833 36.9088 44.586 36.9573C44.5961 37.4911 44.5961 38.0249 44.586 38.5587C44.5833 38.6073 44.5606 38.653 44.5224 38.6865C44.4842 38.7199 44.4334 38.7386 44.3807 38.7386C44.3279 38.7386 44.2772 38.7199 44.239 38.6865C44.2008 38.653 44.178 38.6073 44.1754 38.5587Z" fill="#FFD2D2"/>
<path d="M51.9211 37.7817C51.9337 37.5385 51.5231 37.539 51.5105 37.7817C51.4609 38.703 51.3235 39.6186 51.0999 40.5178C51.0943 40.5427 51.094 40.5685 51.0991 40.5936C51.1043 40.6187 51.1148 40.6426 51.13 40.6639C51.1452 40.6852 51.1648 40.7036 51.1877 40.718C51.2106 40.7323 51.2364 40.7423 51.2636 40.7475C51.288 40.7532 51.3135 40.7543 51.3385 40.7509C51.3634 40.7475 51.3874 40.7395 51.409 40.7275C51.4306 40.7155 51.4494 40.6996 51.4643 40.6809C51.4792 40.6621 51.4899 40.6408 51.4959 40.6182C51.7293 39.6863 51.8716 38.737 51.9211 37.7817Z" fill="#FF4848"/>
<path d="M44.1734 36.9578C44.164 37.4916 44.164 38.0254 44.1734 38.5592C44.176 38.6077 44.1988 38.6535 44.237 38.687C44.2752 38.7204 44.3259 38.7391 44.3787 38.7391C44.4314 38.7391 44.4822 38.7204 44.5204 38.687C44.5586 38.6535 44.5813 38.6077 44.584 38.5592C44.5937 38.0254 44.5937 37.4916 44.584 36.9578C44.5813 36.9093 44.5586 36.8635 44.5204 36.83C44.4822 36.7966 44.4314 36.7779 44.3787 36.7779C44.3259 36.7779 44.2752 36.7966 44.237 36.83C44.1988 36.8635 44.176 36.9093 44.1734 36.9578Z" fill="#FF4848"/>
<path d="M47.6978 36.9577C47.7166 37.4915 47.7351 38.0254 47.7533 38.5592C47.7619 38.8015 48.1725 38.8028 48.1639 38.5592L48.1083 36.9577C48.0997 36.715 47.6892 36.7141 47.6978 36.9577Z" fill="#FF4848"/>
<path d="M35.5298 76.353H33.1825V74.3596C33.1799 74.3111 33.1572 74.2653 33.119 74.2318C33.0807 74.1984 33.03 74.1797 32.9773 74.1797C32.9245 74.1797 32.8738 74.1984 32.8356 74.2318C32.7974 74.2653 32.7746 74.3111 32.772 74.3596V76.353H24.7955V74.3596C24.7929 74.3111 24.7701 74.2653 24.7319 74.2318C24.6937 74.1984 24.643 74.1797 24.5902 74.1797C24.5375 74.1797 24.4867 74.1984 24.4485 74.2318C24.4103 74.2653 24.3876 74.3111 24.3849 74.3596V76.353H21.9453C21.8926 76.3554 21.8429 76.3764 21.8066 76.4116C21.7702 76.4468 21.7499 76.4935 21.7499 76.542C21.7499 76.5906 21.7702 76.6373 21.8066 76.6725C21.8429 76.7077 21.8926 76.7287 21.9453 76.7311H35.5298C35.908 76.7292 35.799 76.2791 35.5298 76.353Z" fill="#77751E"/>
<path d="M25.5924 67.7468H30.2419C30.2946 67.7444 30.3443 67.7234 30.3806 67.6883C30.417 67.6531 30.4373 67.6064 30.4373 67.5578C30.4373 67.5092 30.417 67.4625 30.3806 67.4273C30.3443 67.3921 30.2946 67.3712 30.2419 67.3688H25.5924C25.5397 67.3712 25.49 67.3921 25.4537 67.4273C25.4173 67.4625 25.397 67.5092 25.397 67.5578C25.397 67.6064 25.4173 67.6531 25.4537 67.6883C25.49 67.7234 25.5397 67.7444 25.5924 67.7468Z" fill="#77751E"/>
<path d="M25.5924 69.2581H30.2419C30.2946 69.2556 30.3443 69.2347 30.3806 69.1995C30.417 69.1643 30.4373 69.1176 30.4373 69.069C30.4373 69.0205 30.417 68.9737 30.3806 68.9386C30.3443 68.9034 30.2946 68.8824 30.2419 68.88H25.5924C25.5397 68.8824 25.49 68.9034 25.4537 68.9386C25.4173 68.9737 25.397 69.0205 25.397 69.069C25.397 69.1176 25.4173 69.1643 25.4537 69.1995C25.49 69.2347 25.5397 69.2556 25.5924 69.2581Z" fill="#77751E"/>
<path d="M25.5924 70.8544H30.2419C30.2946 70.852 30.3443 70.831 30.3806 70.7958C30.417 70.7606 30.4373 70.7139 30.4373 70.6653C30.4373 70.6168 30.417 70.5701 30.3806 70.5349C30.3443 70.4997 30.2946 70.4787 30.2419 70.4763H25.5924C25.5397 70.4787 25.49 70.4997 25.4537 70.5349C25.4173 70.5701 25.397 70.6168 25.397 70.6653C25.397 70.7139 25.4173 70.7606 25.4537 70.7958C25.49 70.831 25.5397 70.852 25.5924 70.8544Z" fill="#77751E"/>
<path d="M30.3101 52.0507V56.4766C30.3127 56.5251 30.3355 56.5708 30.3737 56.6043C30.4119 56.6378 30.4627 56.6565 30.5154 56.6565C30.5681 56.6565 30.6189 56.6378 30.6571 56.6043C30.6953 56.5708 30.7181 56.5251 30.7207 56.4766V52.0591C30.5839 52.07 30.4462 52.0672 30.3101 52.0507Z" fill="#A982F4"/>
<path d="M65.299 45.2171L68.8704 53.15L74.2628 51.0919C74.1315 50.7999 71.0813 44.0299 70.6919 43.1585L65.299 45.2171Z" fill="white"/>
<path d="M74.7274 51.143L71 42.8632C70.9616 42.7781 70.8601 42.6884 70.7475 42.7312L69.2441 43.305L64.1562 43.8421C64.0552 43.8528 63.9376 43.9202 63.9512 44.0309C64.077 45.038 65.0622 52.9351 65.0622 52.9351C65.0738 53.0281 65.1471 53.1369 65.2672 53.1239C65.9142 53.0556 67.7554 52.8556 68.2705 52.7984L68.5604 53.4434C68.5987 53.5285 68.7007 53.6187 68.8129 53.5754C74.9506 51.2328 74.582 51.3779 74.6133 51.3541C74.6374 51.3494 74.66 51.3397 74.6794 51.3259C74.6989 51.312 74.7147 51.2942 74.7256 51.2739C74.7366 51.2536 74.7425 51.2313 74.7428 51.2087C74.7431 51.186 74.7378 51.1636 74.7274 51.143ZM68.8694 53.15L65.298 45.2171L70.6909 43.1585L74.2618 51.0919L68.8694 53.15Z" fill="#78B5FF"/>
<path d="M67.9574 46.9492C68.7992 46.6177 69.6435 46.2866 70.5015 45.9908C70.7465 45.9062 70.6404 45.5407 70.3925 45.6263C69.5011 45.9332 68.625 46.2773 67.7498 46.6228C67.5079 46.7181 67.717 47.0436 67.9574 46.9492Z" fill="#78B5FF"/>
<path d="M68.5881 48.5981C69.4299 48.2665 70.2743 47.9354 71.1323 47.6397C71.3772 47.5551 71.2712 47.1896 71.0232 47.2752C70.1319 47.5821 69.2557 47.9261 68.3811 48.2716C68.1387 48.367 68.3477 48.6925 68.5881 48.5981Z" fill="#78B5FF"/>
<path d="M69.4037 50.1131C70.2455 49.7815 71.0899 49.4505 71.9479 49.1547C72.1928 49.0705 72.0867 48.7046 71.8383 48.7902C70.9475 49.0975 70.0708 49.4412 69.1961 49.7866C68.9542 49.882 69.1628 50.2079 69.4037 50.1131Z" fill="#78B5FF"/>
<path d="M31.4757 45.3278C30.3036 44.7884 29.0683 45.3743 28.4603 46.388C26.7271 49.271 28.8487 52.5836 31.1025 51.9968C33.7699 51.3026 34.0284 46.5024 31.4757 45.3278ZM30.3101 50.9357V47.9132C30.3127 47.8647 30.3355 47.8189 30.3737 47.7854C30.4119 47.752 30.4627 47.7333 30.5154 47.7333C30.5682 47.7333 30.6189 47.752 30.6571 47.7854C30.6953 47.8189 30.7181 47.8647 30.7207 47.9132V50.9357C30.7181 50.9842 30.6953 51.0299 30.6571 51.0634C30.6189 51.0969 30.5682 51.1155 30.5154 51.1155C30.4627 51.1155 30.4119 51.0969 30.3737 51.0634C30.3355 51.0299 30.3127 50.9842 30.3101 50.9357Z" fill="white"/>
<path d="M71.6393 64.4025C54.7693 64.6541 55.5864 64.2165 55.4 64.5476L49.5334 71.8946C49.6849 71.8337 48.8209 71.8541 65.6899 71.8541C65.7238 71.8558 65.7568 71.8649 65.7862 71.8806C65.8155 71.8963 65.8404 71.9182 65.8587 71.9445C65.8771 71.9708 65.8884 72.0007 65.8917 72.0318C65.895 72.0629 65.8902 72.0943 65.8778 72.1234C66.1035 71.8569 67.5902 69.9807 71.8166 64.689C71.9257 64.5681 71.7812 64.4025 71.6393 64.4025Z" fill="#A982F4"/>
<path d="M65.6899 71.8528C48.5866 71.8528 49.695 71.8388 49.5653 71.8788C49.4673 71.9165 49.8561 71.7393 46.6327 73.2682C46.5953 73.2898 46.5664 73.3219 46.5501 73.3597C46.5339 73.3975 46.5312 73.4391 46.5425 73.4784C46.5538 73.5178 46.5784 73.5527 46.6128 73.5782C46.6472 73.6038 46.6896 73.6185 46.7337 73.6202H62.7548C62.8281 73.6202 62.6225 73.6895 65.7909 72.2052C65.8286 72.1837 65.8577 72.1516 65.8741 72.1137C65.8905 72.0758 65.8932 72.0341 65.8819 71.9946C65.8706 71.9552 65.8458 71.9201 65.8113 71.8946C65.7767 71.869 65.7342 71.8544 65.6899 71.8528Z" fill="#A982F4"/>
<path d="M61.4555 67.3929C60.1844 68.4675 59.0496 69.3403 58.9845 69.4212C58.9674 69.4375 58.9541 69.4569 58.9454 69.4781C58.9368 69.4994 58.933 69.522 58.9343 69.5446C58.9355 69.5673 58.9419 69.5895 58.9529 69.6097C58.9639 69.63 58.9793 69.648 58.9981 69.6626C59.1027 69.7821 59.183 69.7621 61.5095 69.7421C61.5636 69.7413 61.6153 69.7211 61.6537 69.6859C61.692 69.6507 61.714 69.6032 61.715 69.5533C61.7367 68.8777 61.7756 68.202 61.8059 67.5264C61.8049 67.4894 61.7922 67.4536 61.7694 67.4231C61.7467 67.3927 61.7149 67.369 61.6778 67.3548C61.6407 67.3407 61.5999 67.3368 61.5605 67.3436C61.521 67.3503 61.4846 67.3675 61.4555 67.3929Z" fill="black"/>
<path d="M49.5991 74.3577V76.739C49.6017 76.7875 49.6245 76.8332 49.6627 76.8667C49.7009 76.9002 49.7517 76.9189 49.8044 76.9189C49.8571 76.9189 49.9079 76.9002 49.9461 76.8667C49.9843 76.8332 50.0071 76.7875 50.0097 76.739V74.3577C50.0071 74.3092 49.9843 74.2635 49.9461 74.23C49.9079 74.1965 49.8571 74.1779 49.8044 74.1779C49.7517 74.1779 49.7009 74.1965 49.6627 74.23C49.6245 74.2635 49.6017 74.3092 49.5991 74.3577Z" fill="#A982F4"/>
<path d="M65.2682 74.3577V76.739C65.2709 76.7875 65.2936 76.8332 65.3318 76.8667C65.3701 76.9002 65.4208 76.9189 65.4735 76.9189C65.5263 76.9189 65.577 76.9002 65.6152 76.8667C65.6534 76.8332 65.6762 76.7875 65.6788 76.739V74.3577C65.6762 74.3092 65.6534 74.2635 65.6152 74.23C65.577 74.1965 65.5263 74.1779 65.4735 74.1779C65.4208 74.1779 65.3701 74.1965 65.3318 74.23C65.2936 74.2635 65.2709 74.3092 65.2682 74.3577Z" fill="#A982F4"/>
<path d="M38.9385 24.7199C38.7057 24.605 38.4982 24.9314 38.7315 25.0454C42.2518 26.7752 44.9849 29.5628 47.6159 32.2626C47.7927 32.444 48.0826 32.1757 47.9063 31.9953C45.2278 29.2485 42.4952 26.4715 38.9385 24.7199Z" fill="#FF4848"/>
<path d="M30.3101 47.9136V50.9361C30.3127 50.9846 30.3355 51.0303 30.3737 51.0638C30.4119 51.0973 30.4627 51.116 30.5154 51.116C30.5681 51.116 30.6189 51.0973 30.6571 51.0638C30.6953 51.0303 30.7181 50.9846 30.7207 50.9361V47.9136C30.7181 47.8651 30.6953 47.8193 30.6571 47.7859C30.6189 47.7524 30.5681 47.7337 30.5154 47.7337C30.4627 47.7337 30.4119 47.7524 30.3737 47.7859C30.3355 47.8193 30.3127 47.8651 30.3101 47.9136Z" fill="#A982F4"/>
<path d="M90.1158 40.947C90.0148 40.4922 89.8936 40.0426 89.7916 39.5883C89.7385 39.3502 89.3371 39.4515 89.3956 39.6887C90.0052 42.182 90.3597 44.082 89.3421 46.4884C88.9512 47.3951 88.3931 48.2328 87.6923 48.9645C87.5196 49.1468 87.8084 49.4156 87.9827 49.2314C90.235 46.8548 90.7864 44.0025 90.1158 40.947Z" fill="black"/>
<path d="M90.2026 50.439C92.7867 47.7128 93.4588 44.4178 92.666 40.8294C92.5513 40.3086 92.411 39.7933 92.2943 39.273C92.2438 39.0349 91.8398 39.1363 91.8984 39.3734C92.6054 42.2685 93.0195 44.468 91.8433 47.2668C91.3875 48.3309 90.7341 49.3139 89.9122 50.1717C89.7385 50.3544 90.0284 50.6227 90.2026 50.439Z" fill="black"/>
<path d="M62.1009 34.1854C63.2584 31.2351 64.7212 28.3941 66.4691 25.7015C66.492 25.6586 66.4964 25.6094 66.4815 25.5637C66.4666 25.5179 66.4334 25.4791 66.3887 25.4549C66.344 25.4307 66.291 25.423 66.2403 25.4333C66.1897 25.4436 66.1451 25.4711 66.1156 25.5104C63.2058 29.9533 61.0983 34.8017 59.8754 39.8663C59.8635 39.9138 59.8721 39.9637 59.8993 40.0056C59.9264 40.0474 59.9701 40.078 60.0211 40.091C60.0722 40.1039 60.1267 40.0982 60.1733 40.0751C60.2199 40.052 60.255 40.0131 60.2713 39.9668C60.751 38.0067 61.362 36.0759 62.1009 34.1854Z" fill="#77751E"/>
<path d="M59.9218 45.8987H37.2887C37.2345 45.8992 37.1827 45.9193 37.1443 45.9546C37.106 45.9899 37.0842 46.0376 37.0837 46.0875V52.7617C37.0842 52.8116 37.106 52.8593 37.1443 52.8946C37.1827 52.9299 37.2345 52.95 37.2887 52.9505C60.3041 53.1007 59.9895 52.9872 60.0763 52.8826C60.1526 52.8082 60.1824 53.2327 60.1268 46.0875C60.1262 46.0376 60.1044 45.99 60.0661 45.9547C60.0277 45.9194 59.976 45.8993 59.9218 45.8987ZM37.471 49.2356C37.8912 49.2291 42.0089 49.2356 42.4291 49.2356V46.878C42.4317 46.8295 42.4545 46.7838 42.4927 46.7503C42.5309 46.7168 42.5816 46.6982 42.6344 46.6982C42.6871 46.6982 42.7379 46.7168 42.7761 46.7503C42.8143 46.7838 42.8371 46.8295 42.8397 46.878V49.2356H48.2053V46.878C48.2079 46.8295 48.2307 46.7838 48.2689 46.7503C48.3071 46.7168 48.3578 46.6982 48.4106 46.6982C48.4633 46.6982 48.5141 46.7168 48.5523 46.7503C48.5905 46.7838 48.6132 46.8295 48.6159 46.878V49.2356H53.6815V46.878C53.6841 46.8295 53.7069 46.7838 53.7451 46.7503C53.7833 46.7168 53.834 46.6982 53.8868 46.6982C53.9395 46.6982 53.9903 46.7168 54.0285 46.7503C54.0667 46.7838 54.0895 46.8295 54.0921 46.878V49.2356H59.186C59.2387 49.238 59.2884 49.259 59.3247 49.2941C59.3611 49.3293 59.3814 49.376 59.3814 49.4246C59.3814 49.4732 59.3611 49.5199 59.3247 49.5551C59.2884 49.5903 59.2387 49.6112 59.186 49.6136C58.8325 49.6192 54.439 49.6136 54.088 49.6136V51.9712C54.0854 52.0197 54.0627 52.0654 54.0244 52.0989C53.9862 52.1324 53.9355 52.1511 53.8828 52.1511C53.83 52.1511 53.7793 52.1324 53.7411 52.0989C53.7029 52.0654 53.6801 52.0197 53.6775 51.9712V49.6155H48.6159V51.973C48.6132 52.0215 48.5905 52.0673 48.5523 52.1008C48.5141 52.1342 48.4633 52.1529 48.4106 52.1529C48.3578 52.1529 48.3071 52.1342 48.2689 52.1008C48.2307 52.0673 48.2079 52.0215 48.2053 51.973V49.6155H42.8417V51.973C42.8391 52.0215 42.8163 52.0673 42.7781 52.1008C42.7399 52.1342 42.6892 52.1529 42.6364 52.1529C42.5837 52.1529 42.5329 52.1342 42.4947 52.1008C42.4565 52.0673 42.4337 52.0215 42.4311 51.973V49.6155H37.471C37.4183 49.6131 37.3687 49.5921 37.3323 49.5569C37.2959 49.5217 37.2757 49.475 37.2757 49.4265C37.2757 49.3779 37.2959 49.3312 37.3323 49.296C37.3687 49.2608 37.4183 49.2398 37.471 49.2374V49.2356Z" fill="#2755A0"/>
<path d="M78.0473 53.4239C78.1352 53.1914 77.7387 53.0951 77.6514 53.3234L69.993 73.3249C70.122 73.3684 70.2472 73.4206 70.3677 73.4812C70.4647 73.2226 78.0145 53.5085 78.0473 53.4239Z" fill="#E6DEFF"/>
<path d="M67.6195 79.5252C67.5316 79.7577 67.9281 79.854 68.0154 79.6257C68.1028 79.3974 70.1869 73.9559 70.2334 73.8341C70.1137 73.772 69.9879 73.7204 69.8577 73.6802C69.8284 73.749 67.6367 79.4731 67.6195 79.5252Z" fill="#E6DEFF"/>
<path d="M14.5486 80.5078C14.4959 80.5102 14.4462 80.5312 14.4099 80.5663C14.3735 80.6015 14.3532 80.6482 14.3532 80.6968C14.3532 80.7454 14.3735 80.7921 14.4099 80.8273C14.4462 80.8625 14.4959 80.8834 14.5486 80.8858H23.6249C23.7067 80.7688 23.7697 80.6415 23.8118 80.5078C11.2004 80.5078 15.4429 80.4915 14.5486 80.5078Z" fill="#E6DEFF"/>
<path d="M65.6899 80.8859C65.7426 80.8835 65.7923 80.8625 65.8286 80.8273C65.865 80.7921 65.8853 80.7454 65.8853 80.6968C65.8853 80.6483 65.865 80.6016 65.8286 80.5664C65.7923 80.5312 65.7426 80.5102 65.6899 80.5078H24.2203C24.1912 80.6381 24.1459 80.765 24.0855 80.8859C73.3917 80.8859 64.6537 80.9021 65.6899 80.8859Z" fill="#E6DEFF"/>
<path d="M59.186 49.2356H54.0901V46.8781C54.0881 46.828 54.0646 46.7806 54.0247 46.7464C53.9849 46.7122 53.9319 46.694 53.8775 46.6958C53.8253 46.6967 53.7755 46.7163 53.7386 46.7502C53.7017 46.7842 53.6805 46.83 53.6795 46.8781C53.6679 47.5002 53.6618 48.3633 53.6608 49.2356H48.6159V46.8781C48.6132 46.8296 48.5905 46.7838 48.5523 46.7504C48.5141 46.7169 48.4633 46.6982 48.4106 46.6982C48.3578 46.6982 48.3071 46.7169 48.2689 46.7504C48.2307 46.7838 48.2079 46.8296 48.2053 46.8781C48.1932 47.5002 48.1876 48.3633 48.1871 49.2356H42.8417V46.8781C42.8391 46.8296 42.8163 46.7838 42.7781 46.7504C42.7399 46.7169 42.6891 46.6982 42.6364 46.6982C42.5837 46.6982 42.5329 46.7169 42.4947 46.7504C42.4565 46.7838 42.4337 46.8296 42.4311 46.8781C42.4195 47.5002 42.4134 48.3633 42.4129 49.2356H37.4942C37.4673 49.2343 37.4403 49.238 37.4149 49.2463C37.3894 49.2546 37.366 49.2674 37.346 49.2841C37.3259 49.3007 37.3096 49.3208 37.298 49.3433C37.2864 49.3657 37.2797 49.3901 37.2783 49.4149C37.277 49.4397 37.2809 49.4645 37.2899 49.488C37.2989 49.5114 37.3129 49.5329 37.331 49.5514C37.3491 49.5699 37.3709 49.5849 37.3953 49.5955C37.4197 49.6062 37.4461 49.6124 37.473 49.6137H42.4129C42.4129 50.5088 42.42 51.3807 42.4311 51.9712C42.4337 52.0197 42.4565 52.0655 42.4947 52.0989C42.5329 52.1324 42.5837 52.1511 42.6364 52.1511C42.6891 52.1511 42.7399 52.1324 42.7781 52.0989C42.8163 52.0655 42.8391 52.0197 42.8417 51.9712V49.6155H48.1871C48.1871 50.5107 48.1942 51.3825 48.2053 51.9731C48.2079 52.0216 48.2307 52.0673 48.2689 52.1008C48.3071 52.1343 48.3578 52.153 48.4106 52.153C48.4633 52.153 48.5141 52.1343 48.5523 52.1008C48.5905 52.0673 48.6132 52.0216 48.6159 51.9731V49.6155H53.6608C53.6608 50.5107 53.6684 51.3825 53.6795 51.9731C53.6821 52.0216 53.7049 52.0673 53.7431 52.1008C53.7813 52.1343 53.832 52.153 53.8848 52.153C53.9375 52.153 53.9882 52.1343 54.0265 52.1008C54.0647 52.0673 54.0874 52.0216 54.0901 51.9731V49.6155C54.9006 49.6155 58.8977 49.6202 59.188 49.6155C59.2407 49.6131 59.2904 49.5922 59.3267 49.557C59.3631 49.5218 59.3834 49.4751 59.3834 49.4265C59.3834 49.3779 59.3631 49.3312 59.3267 49.296C59.2904 49.2609 59.2407 49.2399 59.188 49.2375L59.186 49.2356Z" fill="black"/>
<path d="M80.4662 49.1933C80.7894 48.5634 81.1125 47.9333 81.4353 47.3031C81.5479 47.0845 81.1939 46.892 81.0818 47.1124L80.1127 49.0026C79.9996 49.2212 80.3531 49.4132 80.4662 49.1933Z" fill="#FF4848"/>
<path d="M81.9383 49.5564C82.2938 48.8056 82.6492 48.0545 83.0043 47.303C83.1089 47.0822 82.7554 46.8897 82.6508 47.1124L81.5843 49.3658C81.4792 49.5867 81.8327 49.7792 81.9383 49.5564Z" fill="#FF4848"/>
<path d="M80.8465 43.7463L82.1656 43.1302C82.4014 43.02 82.1938 42.6935 81.9585 42.8047L80.6389 43.4208C80.4036 43.5301 80.6112 43.8565 80.8465 43.7463Z" fill="#FF4848"/>
<path d="M74.3011 25.4355C74.2153 27.063 73.8588 29.5275 73.5876 31.1253C73.0648 34.1655 72.3504 37.1751 71.4479 40.1388C71.4415 40.1632 71.4403 40.1885 71.4446 40.2133C71.4489 40.238 71.4585 40.2618 71.4728 40.2831C71.4872 40.3044 71.5059 40.3229 71.5281 40.3375C71.5503 40.3521 71.5754 40.3625 71.6019 40.3681C71.6524 40.3795 71.7058 40.3725 71.7508 40.3486C71.7959 40.3247 71.8292 40.2857 71.8438 40.2397C72.9267 36.6907 73.7367 33.0758 74.2678 29.422C74.6137 27.0291 75.047 24.088 74.3527 21.8192C74.343 21.7921 74.3267 21.7672 74.3052 21.7466C74.2837 21.726 74.2575 21.7101 74.2284 21.7C74.1993 21.69 74.1682 21.6861 74.1372 21.6886C74.1063 21.6911 74.0764 21.7 74.0497 21.7146C73.6941 21.9141 74.4643 22.3702 74.3011 25.4355Z" fill="#77751E"/>
<path d="M80.3849 22.4912C80.5036 22.7088 80.8576 22.5177 80.7384 22.3005L79.8249 20.6223C79.7062 20.4047 79.3522 20.5958 79.4714 20.813L80.3849 22.4912Z" fill="#77751E"/>
<path d="M37.1801 11.2014C37.3987 11.3003 37.6486 11.3235 37.8843 11.2669C38.12 11.2102 38.3257 11.0773 38.4638 10.8926C38.7809 10.4417 38.947 9.91484 38.9415 9.37765C38.987 8.59877 38.8355 7.4665 37.8629 7.21726C36.3534 6.82945 35.4288 10.1993 37.1801 11.2014ZM37.9825 7.68644C38.1353 7.7987 38.2601 7.9398 38.3486 8.10022C38.4371 8.26065 38.4872 8.43667 38.4956 8.61644C38.5836 9.15077 38.542 9.69639 38.3739 10.2142C38.2638 10.6462 37.8457 11.0786 37.3877 10.8731C35.8828 10.0142 36.9044 6.91454 37.9825 7.68644Z" fill="black"/>
<path d="M40.5515 2.6091C40.2394 2.0697 39.5491 2.40915 39.2087 2.71838C38.3862 3.39114 37.6699 4.16652 37.0807 5.02199C37.002 5.13528 36.9544 5.26451 36.9421 5.3985C36.9298 5.5325 36.9531 5.66724 37.01 5.7911C37.0922 5.88039 37.1957 5.95091 37.3125 5.99714C37.4293 6.04337 37.5562 6.06405 37.6831 6.05754C38.8192 6.02596 39.9484 5.8827 41.0515 5.63021C41.405 5.56418 41.8893 5.55255 41.9675 5.15451C41.9904 5.02965 41.9737 4.90136 41.9193 4.78505C41.8649 4.66874 41.7752 4.56937 41.661 4.49886C41.4242 4.35611 41.4201 4.47561 41.5494 4.32449C41.639 4.21534 41.686 4.08151 41.6827 3.94469C41.6794 3.80788 41.626 3.6761 41.5312 3.57072C41.3588 3.45008 41.1493 3.38277 40.9328 3.37842C40.7162 3.37408 40.5038 3.43293 40.3258 3.54654C40.5591 3.26708 40.7576 2.96529 40.5515 2.6091ZM41.0782 3.76091C41.2727 3.79067 41.3201 3.94691 41.2222 4.09478C41.0707 4.25646 40.8612 4.36271 40.6318 4.39424C40.5814 4.40924 40.5393 4.44157 40.5142 4.48448C40.489 4.52739 40.4829 4.57757 40.4969 4.62457C40.511 4.67157 40.5442 4.71177 40.5897 4.73677C40.6351 4.76178 40.6893 4.76967 40.7409 4.7588C40.9651 4.7309 41.3201 4.67696 41.4893 4.85738C41.5405 4.91049 41.569 4.97889 41.5696 5.04989C41.5635 5.15916 41.456 5.17451 41.3565 5.19218C40.7581 5.2968 37.872 5.91107 37.367 5.60091C37.1185 5.07965 39.1698 3.29498 39.5011 2.98575C39.6486 2.85183 40.1925 2.47425 40.2187 2.89275C40.2394 3.22197 39.842 3.47679 39.6632 3.72975C39.6458 3.7586 39.6368 3.7911 39.637 3.8241C39.6373 3.8571 39.6468 3.88949 39.6646 3.91811C39.6824 3.94674 39.708 3.97064 39.7388 3.9875C39.7696 4.00436 39.8046 4.0136 39.8405 4.01433C40.4414 4.03851 40.5515 3.73952 41.0777 3.76091H41.0782Z" fill="black"/>
<path d="M66.9246 80.6965V90.4797C66.9272 90.5282 66.95 90.5739 66.9882 90.6074C67.0264 90.6409 67.0772 90.6595 67.1299 90.6595C67.1826 90.6595 67.2334 90.6409 67.2716 90.6074C67.3098 90.5739 67.3326 90.5282 67.3352 90.4797V80.6965C67.3326 80.648 67.3098 80.6023 67.2716 80.5688C67.2334 80.5353 67.1826 80.5167 67.1299 80.5167C67.0772 80.5167 67.0264 80.5353 66.9882 80.5688C66.95 80.6023 66.9272 80.648 66.9246 80.6965Z" fill="black"/>
<path d="M79.4431 54.9913V78.7245C79.4457 78.773 79.4684 78.8187 79.5066 78.8522C79.5449 78.8857 79.5956 78.9043 79.6483 78.9043C79.7011 78.9043 79.7518 78.8857 79.79 78.8522C79.8282 78.8187 79.851 78.773 79.8536 78.7245V54.9913C79.851 54.9428 79.8282 54.8971 79.79 54.8636C79.7518 54.8301 79.7011 54.8115 79.6483 54.8115C79.5956 54.8115 79.5449 54.8301 79.5066 54.8636C79.4684 54.8971 79.4457 54.9428 79.4431 54.9913Z" fill="black"/>
<path d="M14.7541 82.5886C14.7515 82.5401 14.7287 82.4944 14.6905 82.4609C14.6523 82.4274 14.6015 82.4088 14.5488 82.4088C14.496 82.4088 14.4453 82.4274 14.4071 82.4609C14.3689 82.4944 14.3461 82.5401 14.3435 82.5886V90.4797C14.3461 90.5282 14.3689 90.5739 14.4071 90.6074C14.4453 90.6409 14.496 90.6596 14.5488 90.6596C14.6015 90.6596 14.6523 90.6409 14.6905 90.6074C14.7287 90.5739 14.7515 90.5282 14.7541 90.4797V82.5886Z" fill="black"/>
<path d="M80.3849 22.4911C80.5036 22.7087 80.8576 22.5172 80.7384 22.3005L79.8249 20.6223C79.7062 20.4047 79.3517 20.5962 79.4714 20.8129L80.3849 22.4911Z" fill="black"/>
<path d="M71.8791 22.027C71.9604 22.2595 72.3574 22.1586 72.2751 21.9266L71.6494 20.1596C71.5675 19.9271 71.1711 20.0275 71.2534 20.26L71.8791 22.027Z" fill="black"/>
<path d="M44.3713 36.7755C44.3191 36.7764 44.2694 36.7959 44.2325 36.8299C44.1956 36.8639 44.1744 36.9097 44.1733 36.9577C44.1639 37.4916 44.1639 38.0252 44.1733 38.5587C44.1759 38.6073 44.1987 38.653 44.2369 38.6865C44.2751 38.7199 44.3259 38.7386 44.3786 38.7386C44.4314 38.7386 44.4821 38.7199 44.5203 38.6865C44.5585 38.653 44.5813 38.6073 44.5839 38.5587C44.5937 38.0255 44.5937 37.4919 44.5839 36.9577C44.5834 36.9328 44.5774 36.9082 44.5664 36.8854C44.5553 36.8626 44.5394 36.8421 44.5196 36.8251C44.4997 36.8081 44.4764 36.7949 44.4509 36.7864C44.4254 36.7779 44.3984 36.7742 44.3713 36.7755Z" fill="black"/>
<path d="M47.6978 36.9577C47.7159 37.4915 47.7345 38.0252 47.7533 38.5587C47.7619 38.8015 48.1725 38.8028 48.1644 38.5587L48.1083 36.9577C48.0997 36.715 47.6892 36.7141 47.6978 36.9577Z" fill="black"/>
<path d="M35.5298 76.353H33.1826V74.3596C33.1799 74.3111 33.1572 74.2653 33.119 74.2318C33.0807 74.1984 33.03 74.1797 32.9773 74.1797C32.9245 74.1797 32.8738 74.1984 32.8356 74.2318C32.7974 74.2653 32.7746 74.3111 32.772 74.3596V76.353H24.7955V74.3596C24.7929 74.3111 24.7701 74.2653 24.7319 74.2318C24.6937 74.1984 24.643 74.1797 24.5902 74.1797C24.5375 74.1797 24.4868 74.1984 24.4485 74.2318C24.4103 74.2653 24.3876 74.3111 24.3849 74.3596V76.353H21.9453C21.8926 76.3554 21.8429 76.3764 21.8066 76.4116C21.7702 76.4468 21.7499 76.4935 21.7499 76.542C21.7499 76.5906 21.7702 76.6373 21.8066 76.6725C21.8429 76.7077 21.8926 76.7287 21.9453 76.7311H35.5298C35.9055 76.7292 35.8045 76.2782 35.5298 76.353Z" fill="black"/>
<path d="M30.2419 67.3687H25.5924C25.5397 67.3711 25.49 67.3921 25.4537 67.4273C25.4173 67.4625 25.397 67.5092 25.397 67.5577C25.397 67.6063 25.4173 67.653 25.4537 67.6882C25.49 67.7234 25.5397 67.7444 25.5924 67.7468H30.2419C30.2946 67.7444 30.3443 67.7234 30.3806 67.6882C30.417 67.653 30.4373 67.6063 30.4373 67.5577C30.4373 67.5092 30.417 67.4625 30.3806 67.4273C30.3443 67.3921 30.2946 67.3711 30.2419 67.3687Z" fill="black"/>
<path d="M30.2419 68.88H25.5924C25.5397 68.8824 25.49 68.9034 25.4537 68.9386C25.4173 68.9737 25.397 69.0205 25.397 69.069C25.397 69.1176 25.4173 69.1643 25.4537 69.1995C25.49 69.2347 25.5397 69.2556 25.5924 69.2581H30.2419C30.2946 69.2556 30.3443 69.2347 30.3806 69.1995C30.417 69.1643 30.4373 69.1176 30.4373 69.069C30.4373 69.0205 30.417 68.9737 30.3806 68.9386C30.3443 68.9034 30.2946 68.8824 30.2419 68.88Z" fill="black"/>
<path d="M30.2419 70.4763H25.5924C25.5397 70.4787 25.49 70.4997 25.4537 70.5349C25.4173 70.5701 25.397 70.6168 25.397 70.6653C25.397 70.7139 25.4173 70.7606 25.4537 70.7958C25.49 70.831 25.5397 70.852 25.5924 70.8544H30.2419C30.2946 70.852 30.3443 70.831 30.3806 70.7958C30.417 70.7606 30.4373 70.7139 30.4373 70.6653C30.4373 70.6168 30.417 70.5701 30.3806 70.5349C30.3443 70.4997 30.2946 70.4787 30.2419 70.4763Z" fill="black"/>
<path d="M65.0637 52.9351C65.0753 53.0281 65.1485 53.1369 65.2687 53.1239L68.274 52.8059L68.5618 53.4452C68.6002 53.5303 68.7022 53.6205 68.8143 53.5773C74.9374 51.2411 74.5839 51.3797 74.6147 51.356C74.6389 51.3512 74.6616 51.3413 74.6811 51.3273C74.7006 51.3132 74.7164 51.2952 74.7272 51.2747C74.7381 51.2542 74.7437 51.2317 74.7437 51.2089C74.7438 51.1861 74.7382 51.1636 74.7274 51.143C74.2809 50.2163 71.154 43.2055 70.9999 42.8632C70.9616 42.7781 70.8601 42.6884 70.7474 42.7312L69.2516 43.3022L64.1562 43.8421C64.0552 43.8528 63.9375 43.9202 63.9512 44.0309C64.2819 46.6781 64.7208 50.1995 65.0637 52.9351ZM70.6919 43.1585C71.0838 44.0299 74.1314 50.7999 74.2627 51.0919L68.8704 53.1495L65.299 45.2166L70.6919 43.1585ZM67.8806 43.8253L64.9783 44.933C64.8859 44.9683 64.7884 45.0622 64.8349 45.1655C65.2561 46.102 68.1119 52.445 68.1119 52.445L65.448 52.7268C65.448 52.7268 64.4213 44.5093 64.3824 44.1959L67.8806 43.8253Z" fill="black"/>
<path d="M31.4756 45.3277C30.3176 44.7888 29.0713 45.3687 28.4603 46.3879C26.9579 48.8836 28.3754 51.8164 30.3101 52.0507V56.4766C30.3127 56.5251 30.3355 56.5708 30.3737 56.6043C30.4119 56.6378 30.4626 56.6565 30.5153 56.6565C30.5681 56.6565 30.6188 56.6378 30.657 56.6043C30.6953 56.5708 30.718 56.5251 30.7206 56.4766V52.0591C32.3821 51.941 33.2507 50.161 33.2598 48.5948C33.2527 47.3803 32.7462 45.9053 31.4756 45.3277ZM32.8492 48.5948C32.8426 49.6643 32.4306 50.958 31.3377 51.5025C30.3606 51.9949 29.3001 51.4657 28.7915 50.5748C27.3245 48.0638 29.0597 45.0483 30.9933 45.5575C31.5653 45.7401 32.0386 46.1191 32.3144 46.6153C32.6742 47.222 32.8584 47.9037 32.8492 48.5948Z" fill="black"/>
<path d="M67.9573 46.9492C68.7992 46.6177 69.6435 46.2866 70.5015 45.9908C70.7464 45.9062 70.6404 45.5407 70.3919 45.6263C69.5011 45.9332 68.6244 46.2773 67.7498 46.6228C67.5079 46.7181 67.7164 47.0436 67.9573 46.9492Z" fill="black"/>
<path d="M68.5881 48.5981C69.4299 48.2661 70.2743 47.9354 71.1323 47.6397C71.3772 47.5551 71.2711 47.1896 71.0232 47.2752C70.1319 47.5821 69.2557 47.9261 68.3805 48.2712C68.1386 48.367 68.3472 48.6925 68.5881 48.5981Z" fill="black"/>
<path d="M69.4036 50.113C70.2455 49.7815 71.0898 49.4504 71.9473 49.1547C72.1928 49.0705 72.0867 48.705 71.8388 48.7901C70.9474 49.0975 70.0713 49.4411 69.1961 49.7866C68.9542 49.8819 69.1633 50.2079 69.4036 50.113Z" fill="black"/>
<path d="M61.5928 67.3403C61.461 67.3436 61.6085 67.2836 58.9971 69.4054L58.9845 69.4212C58.9673 69.4375 58.9539 69.4568 58.9452 69.4781C58.9366 69.4993 58.9327 69.522 58.934 69.5446C58.9353 69.5673 58.9417 69.5895 58.9527 69.6098C58.9637 69.6301 58.9792 69.648 58.9981 69.6626C59.1027 69.7821 59.1804 69.7621 61.5095 69.7425C61.5638 69.7418 61.6156 69.7216 61.654 69.6863C61.6923 69.651 61.7142 69.6032 61.715 69.5533C61.7453 68.8775 61.7755 68.2018 61.8054 67.5263C61.8048 67.5013 61.7987 67.4765 61.7877 67.4536C61.7766 67.4307 61.7608 67.41 61.741 67.3927C61.7213 67.3754 61.698 67.3619 61.6726 67.3529C61.6472 67.3439 61.6201 67.3397 61.5928 67.3403ZM61.313 69.3645H59.6622L61.3757 67.9616L61.313 69.3645Z" fill="black"/>
<path d="M49.7975 74.1749C49.7454 74.1765 49.696 74.1963 49.6591 74.2302C49.6223 74.2642 49.6008 74.3097 49.5991 74.3576V76.7389C49.6017 76.7874 49.6244 76.8332 49.6627 76.8666C49.7009 76.9001 49.7516 76.9188 49.8043 76.9188C49.8571 76.9188 49.9078 76.9001 49.946 76.8666C49.9842 76.8332 50.007 76.7874 50.0096 76.7389V74.3576C50.0078 74.3075 49.9844 74.2601 49.9446 74.2259C49.9049 74.1916 49.852 74.1733 49.7975 74.1749Z" fill="black"/>
<path d="M65.4661 74.1749C65.4142 74.1766 65.3648 74.1965 65.3281 74.2304C65.2913 74.2643 65.2699 74.3098 65.2682 74.3576V76.7389C65.2708 76.7874 65.2936 76.8332 65.3318 76.8666C65.37 76.9001 65.4207 76.9188 65.4735 76.9188C65.5262 76.9188 65.5769 76.9001 65.6152 76.8666C65.6534 76.8332 65.6761 76.7874 65.6788 76.7389V74.3576C65.6768 74.3075 65.6533 74.2601 65.6134 74.2258C65.5736 74.1916 65.5206 74.1733 65.4661 74.1749Z" fill="black"/>
<path d="M47.6159 32.2635C47.7927 32.4449 48.0825 32.1766 47.9063 31.9962C45.1904 29.2094 42.5028 26.4794 38.939 24.7198C38.7057 24.6054 38.4981 24.9314 38.7315 25.0453C42.2225 26.7607 44.9879 29.5651 47.6159 32.2635Z" fill="black"/>
<path d="M30.5086 47.7313C30.4566 47.7328 30.4071 47.7525 30.3702 47.7863C30.3334 47.8202 30.3119 47.8657 30.3101 47.9136V50.9361C30.3127 50.9846 30.3355 51.0303 30.3737 51.0638C30.4119 51.0973 30.4627 51.116 30.5154 51.116C30.5681 51.116 30.6189 51.0973 30.6571 51.0638C30.6953 51.0303 30.7181 50.9846 30.7207 50.9361V47.9136C30.7187 47.8635 30.6953 47.8163 30.6555 47.7821C30.6158 47.7479 30.5629 47.7297 30.5086 47.7313Z" fill="black"/>
<path d="M90.1157 40.947C90.0198 40.4913 89.8935 40.0426 89.7915 39.5883C89.7385 39.3502 89.3426 39.4488 89.3956 39.6887C89.6343 40.5862 89.8133 41.4964 89.9314 42.4141C90.0706 43.5891 89.9435 44.7779 89.5581 45.9054C89.1727 47.0328 88.5373 48.0744 87.6922 48.9641C87.52 49.1477 87.8094 49.416 87.9826 49.2319C90.1773 46.9376 90.8081 43.989 90.1157 40.947Z" fill="black"/>
<path d="M90.2026 50.439C92.7751 47.7494 93.4639 44.308 92.666 40.8293C92.5554 40.3076 92.411 39.7933 92.2943 39.273C92.2408 39.0349 91.8454 39.1335 91.8984 39.3734C92.174 40.412 92.3815 41.465 92.5195 42.5266C92.6844 43.8977 92.5377 45.2854 92.0889 46.6015C91.64 47.9176 90.8988 49.1334 89.9122 50.1716C89.7385 50.3548 90.0294 50.6231 90.2026 50.439Z" fill="black"/>
<path d="M59.8829 52.9505H59.9218C59.9759 52.9496 60.0276 52.9295 60.066 52.8943C60.1043 52.8591 60.1263 52.8115 60.1273 52.7617V46.0875C60.1266 46.0376 60.1046 45.9899 60.0662 45.9547C60.0279 45.9194 59.976 45.8993 59.9218 45.8987H37.2892C37.235 45.8993 37.1832 45.9194 37.1448 45.9547C37.1064 45.9899 37.0845 46.0376 37.0837 46.0875V52.7617C37.0842 52.8117 37.106 52.8595 37.1445 52.8948C37.1829 52.9301 37.2349 52.9501 37.2892 52.9505C61.509 53.109 59.59 52.9593 59.8829 52.9505ZM37.4942 52.5636V49.6155H42.4311V51.973C42.4337 52.0215 42.4565 52.0673 42.4947 52.1008C42.5329 52.1342 42.5837 52.1529 42.6364 52.1529C42.6892 52.1529 42.7399 52.1342 42.7781 52.1008C42.8163 52.0673 42.8391 52.0215 42.8417 51.973V49.6155H48.2053V51.973C48.2079 52.0215 48.2307 52.0673 48.2689 52.1008C48.3071 52.1342 48.3578 52.1529 48.4106 52.1529C48.4633 52.1529 48.5141 52.1342 48.5523 52.1008C48.5905 52.0673 48.6132 52.0215 48.6159 51.973V49.6155H53.6815V51.973C53.6841 52.0215 53.7069 52.0673 53.7451 52.1008C53.7833 52.1342 53.834 52.1529 53.8868 52.1529C53.9395 52.1529 53.9903 52.1342 54.0285 52.1008C54.0667 52.0673 54.0895 52.0215 54.0921 51.973V49.6155C54.4072 49.6155 58.8759 49.6206 59.1901 49.6155C59.2427 49.6131 59.2924 49.5921 59.3288 49.5569C59.3651 49.5217 59.3854 49.475 59.3854 49.4265C59.3854 49.3779 59.3651 49.3312 59.3288 49.296C59.2924 49.2608 59.2427 49.2399 59.1901 49.2374H54.0901V46.8799C54.0874 46.8314 54.0647 46.7857 54.0265 46.7522C53.9883 46.7187 53.9375 46.7 53.8848 46.7C53.832 46.7 53.7813 46.7187 53.7431 46.7522C53.7049 46.7857 53.6821 46.8314 53.6795 46.8799V49.2374H48.6159V46.8799C48.6132 46.8314 48.5905 46.7857 48.5523 46.7522C48.5141 46.7187 48.4633 46.7 48.4106 46.7C48.3578 46.7 48.3071 46.7187 48.2689 46.7522C48.2307 46.7857 48.2079 46.8314 48.2053 46.8799V49.2374H42.8417V46.8799C42.8391 46.8314 42.8163 46.7857 42.7781 46.7522C42.7399 46.7187 42.6892 46.7 42.6364 46.7C42.5837 46.7 42.5329 46.7187 42.4947 46.7522C42.4565 46.7857 42.4337 46.8314 42.4311 46.8799V49.2374H37.4942V46.2768C37.4942 46.2768 59.4779 46.294 59.7168 46.2861V52.5724C59.7168 52.5724 37.7331 52.5552 37.4942 52.5636Z" fill="black"/>
<path d="M81.0808 47.1124C80.7579 47.7426 80.4349 48.3727 80.1117 49.0026C79.9995 49.2212 80.353 49.4132 80.4652 49.1933L81.4343 47.303C81.5479 47.084 81.1939 46.892 81.0808 47.1124Z" fill="black"/>
<path d="M81.9383 49.5564C82.2938 48.8056 82.6492 48.0545 83.0043 47.303C83.1089 47.0822 82.7554 46.8897 82.6508 47.1124L81.5838 49.3658C81.4787 49.5867 81.8327 49.7792 81.9383 49.5564Z" fill="black"/>
<path d="M80.8464 43.7462L82.1655 43.1301C82.4013 43.0199 82.1933 42.6935 81.9584 42.8046L80.6389 43.4207C80.4036 43.53 80.6111 43.8564 80.8464 43.7462Z" fill="black"/>
</svg>
