<svg width="79" height="91" viewBox="0 0 79 91" fill="none" xmlns="http://www.w3.org/2000/svg">
<path d="M0.739639 37.0654C0.739639 8.29284 0.650181 9.25336 0.89257 8.13156C1.1811 7.0995 1.82429 6.18531 2.72269 5.53034C3.62109 4.87537 4.72466 4.5161 5.86273 4.50811H38.5243C39.2315 4.48502 39.9361 4.59914 40.5941 4.84333C41.252 5.08751 41.849 5.45649 42.3476 5.92711C42.8463 6.39774 43.2358 6.95987 43.4919 7.57826C43.7479 8.19665 43.8649 8.85796 43.8355 9.52072V37.8955C43.8491 38.5728 43.7149 39.2456 43.4411 39.8725C43.1672 40.4994 42.7596 41.0673 42.2431 41.5411C41.7267 42.015 41.1124 42.3849 40.4379 42.6281C39.7634 42.8713 39.043 42.9827 38.3209 42.9554C3.6598 42.516 5.85202 43.0049 5.00021 42.8658C3.84894 42.6614 2.80407 42.1009 2.03276 41.274C1.26145 40.4471 0.808281 39.4016 0.745758 38.3048C0.718231 37.8933 0.739639 37.4768 0.739639 37.0654Z" fill="#FFD500"/>
<path d="M6.07595 44.1818H37.453C38.8587 44.073 40.2727 44.2578 41.5931 44.723C42.9135 45.1882 44.1073 45.9222 45.0887 46.872C46.0593 47.9451 46.8958 49.1188 47.5821 50.37C47.6036 50.4481 47.5546 50.2546 47.3245 50.236H47.1631H36.8604C36.0584 49.3946 35.1989 48.603 34.2873 47.8662C31.4085 45.5172 28.5847 45.581 26.8703 46.8591C26.438 47.2631 26.0444 47.702 25.6943 48.1708C25.5705 48.2368 25.6316 48.1873 24.7768 48.5292C24.053 48.762 23.3707 49.0955 22.7528 49.5184C22.4844 49.738 22.2372 49.9793 22.0141 50.2395H4.8143C4.76566 50.2407 4.71808 50.2532 4.67585 50.2759C4.63361 50.2985 4.59802 50.3306 4.57227 50.3693C4.54651 50.408 4.53139 50.4521 4.52826 50.4977C4.52513 50.5432 4.53408 50.5887 4.55432 50.6302C4.1567 49.9937 3.76445 49.3543 3.35995 48.7213C3.06083 48.2698 2.89638 47.7512 2.88375 47.2198C2.87113 46.6883 3.01079 46.1635 3.28818 45.6998C3.56557 45.2362 3.97053 44.8508 4.46085 44.5838C4.95118 44.3168 5.50893 44.178 6.07595 44.1818Z" fill="#FFF0B3"/>
<path d="M4.81228 50.236H22.0121C21.8671 50.4052 21.7392 50.5866 21.6298 50.7779C20.8529 51.9362 21.928 53.4093 23.6874 53.139C23.3985 53.461 23.1489 53.8122 22.9434 54.1863C22.5257 54.831 22.347 55.5869 22.4349 56.3367C22.4806 56.6572 22.6344 56.9557 22.8737 57.1885C23.113 57.4214 23.4254 57.5765 23.7654 57.6312C24.5518 57.6009 25.3007 57.3078 25.8766 56.8048C26.3737 56.4616 26.8268 56.0657 27.2269 55.6249C28.8144 58.4986 30.8487 61.1351 33.263 63.4481C33.263 63.4481 18.952 63.4481 18.77 63.4481C17.0664 63.4483 15.3868 63.0706 13.8686 62.3459C12.3505 61.6213 11.0367 60.5701 10.0348 59.2785C9.29154 58.3029 5.23895 51.6803 4.55995 50.6417C4.53588 50.6002 4.52362 50.5536 4.52436 50.5064C4.5251 50.4592 4.53883 50.413 4.56419 50.3722C4.58956 50.3314 4.62572 50.2974 4.66918 50.2736C4.71264 50.2497 4.76192 50.2368 4.81228 50.236Z" fill="#FFC431"/>
<path d="M47.3258 50.2358C47.3791 50.24 47.4306 50.2558 47.4762 50.2821C47.5217 50.3084 47.5601 50.3443 47.5881 50.387C47.6431 50.4587 47.5154 50.2609 48.8979 52.4715C48.6685 52.6636 47.2784 53.875 47.221 53.956C47.0291 54.0707 45.6734 55.4441 44.7077 56.2355C44.2568 56.61 43.6775 56.8206 43.0752 56.829C40.8057 56.5494 40.8692 54.4119 36.8609 50.2344C50.6971 50.2308 46.5596 50.1756 47.3258 50.2358Z" fill="#FFC431"/>
<path d="M21.9508 20.3389C22.649 19.1461 24.3465 16.481 24.4512 16.3161C24.4772 16.2759 24.5137 16.2427 24.5574 16.2196C24.6011 16.1965 24.6504 16.1844 24.7005 16.1844C24.7506 16.1844 24.7999 16.1965 24.8436 16.2196C24.8872 16.2427 24.9238 16.2759 24.9498 16.3161C25.7896 17.6534 26.6228 18.9943 27.4494 20.3389C27.4747 20.3803 27.4879 20.4273 27.4877 20.4751C27.4876 20.5229 27.4741 20.5698 27.4485 20.6112C27.423 20.6525 27.3863 20.6869 27.3422 20.7108C27.2981 20.7347 27.248 20.7473 27.197 20.7474H22.1978C22.1482 20.7445 22.1001 20.7301 22.0579 20.7054C22.0157 20.6806 21.9808 20.6465 21.9562 20.6059C21.9317 20.5653 21.9184 20.5196 21.9174 20.473C21.9165 20.4264 21.928 20.3803 21.9508 20.3389Z" fill="#2755A0"/>
<path d="M15.4737 20.3388C16.1719 19.146 17.8694 16.4802 17.9734 16.3161C17.9994 16.2759 18.0361 16.2426 18.0798 16.2196C18.1235 16.1965 18.1728 16.1844 18.223 16.1844C18.2732 16.1844 18.3225 16.1965 18.3662 16.2196C18.41 16.2426 18.4466 16.2759 18.4727 16.3161C19.3119 17.6537 20.1451 18.9946 20.9723 20.3388C20.9971 20.38 21.01 20.4266 21.0098 20.4739C21.0096 20.5213 20.9963 20.5677 20.9711 20.6088C20.946 20.6499 20.9099 20.6841 20.8664 20.7081C20.8229 20.7322 20.7735 20.7452 20.723 20.7459H15.7261C15.6761 20.7439 15.6275 20.7301 15.5846 20.7059C15.5418 20.6816 15.5062 20.6476 15.4811 20.6071C15.456 20.5665 15.4421 20.5207 15.4408 20.4738C15.4395 20.4269 15.4509 20.3805 15.4737 20.3388Z" fill="#2755A0"/>
<path d="M22.3697 23.7729H26.2388C26.315 23.7741 26.3878 23.803 26.4416 23.8536C26.4954 23.9042 26.5261 23.9725 26.5271 24.0439V27.6702C26.5261 27.7417 26.4954 27.8099 26.4416 27.8605C26.3878 27.9111 26.315 27.9401 26.2388 27.9412C22.1097 27.9684 22.2627 27.9806 22.1526 27.8437C22.047 27.739 22.0516 27.9154 22.0807 24.0446C22.0815 23.9729 22.1122 23.9044 22.1662 23.8536C22.2202 23.8028 22.2932 23.7739 22.3697 23.7729Z" fill="#FF4848"/>
<path d="M13.5508 27.7986C14.2489 26.6059 15.9464 23.9408 16.0512 23.7767C16.0771 23.7364 16.1137 23.7032 16.1574 23.6801C16.201 23.657 16.2503 23.6449 16.3004 23.6449C16.3506 23.6449 16.3998 23.657 16.4435 23.6801C16.4872 23.7032 16.5238 23.7364 16.5497 23.7767C17.2914 24.9458 18.9484 27.6331 19.0493 27.7986C19.0741 27.8399 19.0869 27.8865 19.0867 27.9339C19.0865 27.9813 19.0732 28.0278 19.0481 28.0689C19.023 28.11 18.9869 28.1442 18.9434 28.1684C18.9 28.1925 18.8506 28.2056 18.8 28.2065H13.8001C13.7504 28.2037 13.7023 28.1894 13.66 28.1648C13.6177 28.1402 13.5826 28.1062 13.5579 28.0657C13.5332 28.0252 13.5196 27.9796 13.5183 27.933C13.5171 27.8864 13.5282 27.8402 13.5508 27.7986Z" fill="#2755A0"/>
<path d="M28.3808 23.6452L32.3049 27.3232C32.3539 27.375 32.3799 27.4423 32.3776 27.5115C32.3754 27.5807 32.3451 27.6464 32.2929 27.6953C32.2407 27.7443 32.1705 27.7727 32.0967 27.7748C32.023 27.7769 31.9511 27.7525 31.8958 27.7066C30.5659 26.501 29.2581 25.2748 27.9725 24.028C27.9224 23.9765 27.8954 23.9089 27.8971 23.8392C27.8989 23.7695 27.9291 23.7032 27.9817 23.6539C28.0343 23.6046 28.1051 23.5762 28.1794 23.5746C28.2537 23.573 28.3258 23.5983 28.3808 23.6452Z" fill="black"/>
<path d="M28.381 9.56014L32.3052 13.2388C32.3578 13.2899 32.387 13.3584 32.3863 13.4295C32.3856 13.5006 32.3551 13.5686 32.3014 13.6188C32.2478 13.669 32.1752 13.6974 32.0994 13.698C32.0235 13.6985 31.9505 13.671 31.8961 13.6216C30.5661 12.4168 29.2583 11.1906 27.9727 9.94291C27.9226 9.89141 27.8957 9.82379 27.8974 9.75412C27.8991 9.68445 27.9294 9.61808 27.982 9.5688C28.0345 9.51952 28.1053 9.49113 28.1796 9.48951C28.254 9.4879 28.3261 9.5132 28.381 9.56014Z" fill="black"/>
<path d="M28.3808 16.6308C29.7108 17.8359 31.0188 19.0619 32.3049 20.3087C32.3539 20.3605 32.3799 20.4279 32.3776 20.497C32.3754 20.5662 32.3451 20.6319 32.2929 20.6809C32.2407 20.7298 32.1705 20.7582 32.0967 20.7603C32.023 20.7624 31.9511 20.738 31.8958 20.6922C30.5659 19.4865 29.2581 18.2603 27.9725 17.0135C27.9224 16.962 27.8954 16.8944 27.8971 16.8247C27.8989 16.7551 27.9291 16.6887 27.9817 16.6394C28.0343 16.5901 28.1051 16.5617 28.1794 16.5601C28.2537 16.5585 28.3258 16.5838 28.3808 16.6308Z" fill="black"/>
<path d="M39.7307 9.80731V13.6931C39.7269 13.7625 39.6948 13.8278 39.6411 13.8756C39.5874 13.9235 39.5161 13.9501 39.442 13.9501C39.3679 13.9501 39.2967 13.9235 39.243 13.8756C39.1893 13.8278 39.1572 13.7625 39.1534 13.6931V9.80731C39.1572 9.73796 39.1893 9.67262 39.243 9.62479C39.2967 9.57696 39.3679 9.55029 39.442 9.55029C39.5161 9.55029 39.5874 9.57696 39.6411 9.62479C39.6948 9.67262 39.7269 9.73796 39.7307 9.80731Z" fill="#FF4848"/>
<path d="M39.7307 16.957V20.8428C39.7269 20.9121 39.6948 20.9775 39.6411 21.0253C39.5874 21.0731 39.5161 21.0998 39.442 21.0998C39.3679 21.0998 39.2967 21.0731 39.243 21.0253C39.1893 20.9775 39.1572 20.9121 39.1534 20.8428V16.957C39.1572 16.8876 39.1893 16.8223 39.243 16.7744C39.2967 16.7266 39.3679 16.7 39.442 16.7C39.5161 16.7 39.5874 16.7266 39.6411 16.7744C39.6948 16.8223 39.7269 16.8876 39.7307 16.957Z" fill="#FF4848"/>
<path d="M39.7307 24.0289V27.9154C39.7269 27.9847 39.6948 28.0501 39.6411 28.0979C39.5874 28.1457 39.5161 28.1724 39.442 28.1724C39.3679 28.1724 39.2967 28.1457 39.243 28.0979C39.1893 28.0501 39.1572 27.9847 39.1534 27.9154V24.0289C39.1572 23.9595 39.1893 23.8942 39.243 23.8463C39.2967 23.7985 39.3679 23.7719 39.442 23.7719C39.5161 23.7719 39.5874 23.7985 39.6411 23.8463C39.6948 23.8942 39.7269 23.9595 39.7307 24.0289Z" fill="#FF4848"/>
<path d="M39.7307 31.0749V34.9608C39.7269 35.0301 39.6948 35.0954 39.6411 35.1433C39.5874 35.1911 39.5161 35.2178 39.442 35.2178C39.3679 35.2178 39.2967 35.1911 39.243 35.1433C39.1893 35.0954 39.1572 35.0301 39.1534 34.9608V31.0749C39.1572 31.0056 39.1893 30.9403 39.243 30.8924C39.2967 30.8446 39.3679 30.8179 39.442 30.8179C39.5161 30.8179 39.5874 30.8446 39.6411 30.8924C39.6948 30.9403 39.7269 31.0056 39.7307 31.0749Z" fill="#FF4848"/>
<path d="M26.1649 68.6249C26.9739 68.7095 44.4398 70.4327 46.5043 70.6263C43.029 75.5722 39.3809 80.7432 36.5449 84.8283H26.1649C26.0887 84.8276 26.0158 84.7989 25.962 84.7483C25.9081 84.6978 25.8774 84.6295 25.8766 84.5581C25.7757 73.0641 25.8094 69.9639 25.8529 69.1138C25.8659 68.8636 25.8965 68.5776 26.1649 68.6249Z" fill="#2755A0"/>
<path d="M56.7875 77.6573C56.9313 78.1426 57.1071 78.6214 57.2463 79.1031C57.4765 79.9932 57.8368 80.8493 58.3168 81.647C58.9639 82.6216 59.8659 83.4249 60.9374 83.9807C62.0088 84.5364 63.214 84.8262 64.4385 84.8225C64.31 84.8347 65.5855 84.8282 54.33 84.8282C54.9524 82.7194 55.8218 80.1704 56.7875 77.6573Z" fill="#2755A0"/>
<path d="M18.4093 68.3625C21.3279 71.4897 23.2374 75.3308 23.9147 79.4371C24.2053 81.2772 24.1846 83.2627 22.9207 84.7988C22.8848 84.8318 22.8403 84.8555 22.7917 84.8676C22.7431 84.8796 22.692 84.8797 22.6434 84.8677C22.5948 84.8557 22.5503 84.8321 22.5144 84.7992C22.4784 84.7662 22.4521 84.7251 22.4382 84.6798C22.2853 84.1465 17.9268 68.6356 17.9268 68.6234C17.8565 68.3775 18.2128 68.151 18.4093 68.3625Z" fill="black"/>
<path d="M31.9314 90.5398C34.4623 88.5678 37.8443 88.0453 41.0459 88.0818C44.7425 88.1269 48.3982 88.8145 51.8273 90.1097C51.8925 90.129 51.9484 90.1693 51.985 90.2235C52.0216 90.2777 52.0367 90.3422 52.0276 90.4057C52.0184 90.4693 51.9857 90.5278 51.9351 90.5709C51.8844 90.6141 51.8192 90.6391 51.7508 90.6416C51.1001 90.658 32.1478 91 32.1363 91C32.0802 90.9983 32.0258 90.9816 31.9796 90.9518C31.9334 90.922 31.8973 90.8803 31.8757 90.8317C31.8541 90.7832 31.8478 90.7299 31.8577 90.6781C31.8676 90.6263 31.8932 90.5783 31.9314 90.5398Z" fill="black"/>
<path d="M47.2298 53.9425C49.2944 52.0565 53.4456 48.3421 56.3344 48.4231C57.2309 48.406 58.1172 48.6033 58.9097 48.9965C62.2275 50.6337 66.5255 54.6256 69.1979 60.2503C70.3326 62.6257 71.1922 65.1084 71.7618 67.6557C72.279 70.4081 72.4965 73.2027 72.411 75.9964C72.4327 76.2497 72.4327 76.5043 72.411 76.7577C72.382 75.1222 72.1566 73.4951 71.7388 71.907C70.6821 67.789 69.4006 65.4759 67.3261 63.0186C65.2516 60.5614 62.1044 58.7845 58.7774 59.2425C56.5661 59.5464 55.036 60.8431 53.4861 62.3033C51.6823 59.6561 50.0101 56.5301 47.6152 53.9654C47.563 53.9177 47.4935 53.8902 47.4206 53.8884C47.3478 53.8867 47.2769 53.9109 47.2222 53.9561L47.2298 53.9425Z" fill="#FF4848"/>
<path d="M23.0028 53.1534C22.7119 53.1436 22.4288 53.0629 22.1814 52.919C21.9341 52.7751 21.7312 52.5731 21.5927 52.3331C21.4543 52.0931 21.3851 51.8233 21.3921 51.5505C21.3991 51.2777 21.482 51.0114 21.6326 50.7779C21.9226 50.2982 22.3011 49.8706 22.7505 49.5149C23.6492 48.9424 24.6315 48.4948 25.6668 48.1859C26.2021 47.6225 26.6394 46.6684 28.1519 46.2104C29.1449 45.9057 30.2149 45.9017 31.2105 46.1989C32.3429 46.5553 33.3868 47.1224 34.2797 47.8662C36.1767 49.4202 37.864 51.1856 39.3042 53.1233C40.8021 55.1303 41.3205 56.6141 43.067 56.8292C43.6693 56.8203 44.2483 56.6098 44.6995 56.2356C45.5131 55.5697 47.092 54.0286 47.2128 53.9562C47.2675 53.911 47.3384 53.8868 47.4113 53.8886C47.4842 53.8903 47.5537 53.9178 47.6059 53.9655C50.0061 56.536 51.6539 59.6283 53.4768 62.3034C52.3566 63.386 51.3039 64.5284 50.3242 65.7247C45.5306 67.792 39.6857 67.7318 35.2348 64.9362C31.8482 62.8087 29.1903 58.9789 27.2221 55.6285C26.8222 56.0694 26.369 56.4654 25.8717 56.8084C25.2958 57.3112 24.547 57.6044 23.7606 57.6348C23.4205 57.5803 23.108 57.4253 22.8686 57.1924C22.6292 56.9595 22.4756 56.6609 22.4301 56.3403C22.3422 55.5905 22.5209 54.8346 22.9386 54.1899C23.7636 52.7018 24.0787 53.2659 23.0028 53.1534Z" fill="#FC9070"/>
<path d="M30.0512 47.9788C29.1058 47.84 28.1378 47.9808 27.2817 48.3816C26.9353 48.5092 26.7847 47.986 27.1287 47.8598C28.0824 47.4224 29.1599 47.2813 30.2049 47.457C30.5704 47.515 30.4152 48.0361 30.0512 47.9788Z" fill="#FF4848"/>
<path d="M27.8433 51.7055C27.1264 51.8609 26.4383 52.1158 25.8017 52.4618C25.7357 52.4956 25.6583 52.5039 25.5859 52.4851C25.5135 52.4663 25.4517 52.4218 25.4137 52.361C25.3757 52.3002 25.3645 52.2279 25.3824 52.1595C25.4003 52.091 25.4459 52.0318 25.5096 51.9944C26.1836 51.6131 26.9202 51.3389 27.6896 51.183C28.052 51.1077 28.2072 51.6303 27.8433 51.7055Z" fill="#FF4848"/>
<path d="M35.5176 86.2954C35.8662 85.8109 46.3755 70.7967 46.5032 70.6261C48.5611 67.7507 50.8397 65.0197 53.3207 62.4545C55.243 60.6144 57.0498 59.1464 59.8094 59.1643C62.8213 59.1844 65.4884 60.8438 67.3243 63.015C69.3032 65.3041 70.7137 67.9775 71.4534 70.8411C72.416 74.2015 73.1164 78.8041 71.2331 81.791C70.7309 82.5699 70.0498 83.234 69.2394 83.7352C68.429 84.2364 67.5096 84.562 66.5482 84.6883C63.5584 85.1113 61.6178 84.5407 60.1023 83.4698C58.4797 82.3229 57.7869 80.9925 57.2486 79.0973C57.111 78.6156 56.9351 78.1367 56.7899 77.6515C55.165 81.8727 54.4325 84.4712 53.8521 86.4983C53.8354 86.5555 53.7991 86.6059 53.7488 86.6419C53.6985 86.6779 53.637 86.6975 53.5738 86.6975H35.7668C35.7171 86.6964 35.6685 86.6833 35.6258 86.6595C35.583 86.6357 35.5474 86.6021 35.5224 86.5618C35.4974 86.5214 35.4838 86.4758 35.483 86.4292C35.4822 86.3826 35.4941 86.3365 35.5176 86.2954Z" fill="#2755A0"/>
<path d="M44.6696 65.5937H41.9421C41.8681 65.5901 41.7984 65.56 41.7474 65.5097C41.6964 65.4593 41.6679 65.3925 41.6679 65.3231C41.6679 65.2536 41.6964 65.1868 41.7474 65.1365C41.7984 65.0861 41.8681 65.0561 41.9421 65.0525H44.6696C44.7436 65.0561 44.8133 65.0861 44.8643 65.1365C44.9153 65.1868 44.9437 65.2536 44.9437 65.3231C44.9437 65.3925 44.9153 65.4593 44.8643 65.5097C44.8133 65.56 44.7436 65.5901 44.6696 65.5937Z" fill="#FF4848"/>
<path d="M52.8933 42.3668C53.2071 42.0399 53.6066 41.7955 54.0522 41.6579C54.4978 41.5204 54.974 41.4944 55.4337 41.5827C55.8933 41.6709 56.3203 41.8703 56.6723 42.161C57.0244 42.4517 57.2892 42.8236 57.4406 43.2399C57.5353 43.5372 57.5631 43.8497 57.5225 44.1576C57.4818 44.4655 57.3735 44.7621 57.2043 45.0288C57.0352 45.2954 56.8089 45.5263 56.5398 45.7069C56.2706 45.8874 55.9645 46.0137 55.6407 46.0777C55.1188 46.1615 54.5823 46.1074 54.0913 45.9214C53.6004 45.7354 53.1744 45.425 52.8612 45.0248C52.539 44.6461 52.3662 44.1748 52.3721 43.6904C52.3779 43.2061 52.5621 42.7386 52.8933 42.3668Z" fill="#FC9070"/>
<path d="M50.1798 37.4538C50.2853 36.1112 52.0057 35.656 53.298 36.2883C54.5278 37.0185 55.5095 38.063 56.1271 39.2988C56.433 39.8171 56.7779 40.3131 57.0883 40.8285C57.1131 40.8697 57.126 40.9163 57.1258 40.9636C57.1256 41.011 57.1123 41.0575 57.0872 41.0985C57.062 41.1396 57.0259 41.1738 56.9824 41.1978C56.9389 41.2219 56.8895 41.2349 56.839 41.2356C55.9979 41.1934 55.1568 41.1288 54.3234 41.0299C53.6672 40.9619 53.0254 40.8034 52.4186 40.5597C51.7669 40.298 51.2092 39.8659 50.8123 39.3152C50.4153 38.7645 50.1957 38.1183 50.1798 37.4538Z" fill="black"/>
<path d="M36.4631 25.9555L33.52 23.8201C33.466 23.7691 33.4358 23.7002 33.4358 23.6284C33.4358 23.5566 33.466 23.4877 33.52 23.4366C33.5748 23.3871 33.648 23.3595 33.7241 23.3595C33.8002 23.3595 33.8734 23.3871 33.9283 23.4366C33.9283 23.4366 37.0266 25.6716 37.1275 25.7577C37.3569 25.9863 37.1199 26.1576 36.9432 26.2859L33.9244 28.4736C33.8692 28.5225 33.7962 28.5497 33.7203 28.5497C33.6444 28.5497 33.5713 28.5225 33.5161 28.4736C33.4621 28.4228 33.4317 28.354 33.4317 28.2823C33.4317 28.2105 33.4621 28.1417 33.5161 28.0909C34.502 27.3788 35.4843 26.667 36.4631 25.9555Z" fill="black"/>
<path d="M36.4631 18.8988L33.52 16.7635C33.4659 16.7127 33.4355 16.6439 33.4355 16.5721C33.4355 16.5003 33.4659 16.4315 33.52 16.3807C33.5747 16.331 33.6479 16.3033 33.7241 16.3033C33.8003 16.3033 33.8735 16.331 33.9283 16.3807C34.8871 17.076 37.0266 18.6157 37.1275 18.701C37.3569 18.9297 37.1199 19.1017 36.9432 19.23L33.9244 21.417C33.8694 21.4662 33.7963 21.4936 33.7203 21.4936C33.6443 21.4936 33.5712 21.4662 33.5161 21.417C33.4621 21.3662 33.4317 21.2974 33.4317 21.2256C33.4317 21.1538 33.4621 21.085 33.5161 21.0342L36.4631 18.8988Z" fill="black"/>
<path d="M36.4631 11.6806L33.52 9.54525C33.4659 9.49445 33.4355 9.42562 33.4355 9.35386C33.4355 9.2821 33.4659 9.21327 33.52 9.16248C33.5748 9.11298 33.648 9.08533 33.7241 9.08533C33.8002 9.08533 33.8734 9.11298 33.9283 9.16248C34.8871 9.85778 37.0266 11.3975 37.1275 11.4835C37.3569 11.7114 37.1199 11.8835 36.9432 12.0118L33.9244 14.1995C33.8691 14.2486 33.7957 14.2759 33.7195 14.2759C33.6433 14.2759 33.57 14.2486 33.5146 14.1995C33.4877 14.1744 33.4664 14.1445 33.4519 14.1117C33.4373 14.0788 33.4298 14.0436 33.4298 14.0081C33.4298 13.9725 33.4373 13.9373 33.4519 13.9045C33.4664 13.8716 33.4877 13.8418 33.5146 13.8167L36.4631 11.6806Z" fill="black"/>
<path d="M7.00988 25.6215L10.0248 23.4338C10.0801 23.385 10.1531 23.3578 10.229 23.3578C10.3049 23.3578 10.378 23.385 10.4332 23.4338C10.4873 23.4848 10.5177 23.5537 10.5177 23.6256C10.5177 23.6975 10.4873 23.7664 10.4332 23.8173L7.4893 25.952L10.4332 28.0881C10.4872 28.1389 10.5176 28.2077 10.5176 28.2794C10.5176 28.3512 10.4872 28.42 10.4332 28.4708C10.3783 28.5203 10.3051 28.548 10.229 28.548C10.1529 28.548 10.0797 28.5203 10.0248 28.4708C10.0248 28.4708 6.92653 26.2358 6.82559 26.1498C6.59926 25.924 6.83324 25.7527 7.00988 25.6215Z" fill="black"/>
<path d="M9.74725 19.0942C9.51786 18.8655 9.7549 18.6935 9.93154 18.5659L12.9465 16.3782C13.0017 16.3293 13.0748 16.3021 13.1507 16.3021C13.2266 16.3021 13.2996 16.3293 13.3548 16.3782C13.4089 16.429 13.4393 16.4978 13.4393 16.5696C13.4393 16.6413 13.4089 16.7102 13.3548 16.761L10.4117 18.8963L13.3564 21.0338C13.4105 21.0847 13.4409 21.1537 13.4409 21.2256C13.4409 21.2975 13.4105 21.3664 13.3564 21.4173C13.3014 21.4667 13.2283 21.4942 13.1522 21.4942C13.0761 21.4942 13.003 21.4667 12.948 21.4173C11.9877 20.7192 9.84819 19.1802 9.74725 19.0942Z" fill="black"/>
<path d="M16.612 11.6804L19.5559 13.8158C19.6098 13.8668 19.6401 13.9357 19.6401 14.0075C19.6401 14.0793 19.6098 14.1482 19.5559 14.1993C19.5009 14.2486 19.4278 14.2761 19.3517 14.2761C19.2756 14.2761 19.2025 14.2486 19.1476 14.1993C18.1887 13.5032 16.0492 11.9643 15.9483 11.8782C15.7189 11.6496 15.956 11.4775 16.1326 11.3492L19.1476 9.16226C19.2027 9.11326 19.2758 9.08594 19.3517 9.08594C19.4277 9.08594 19.5008 9.11326 19.5559 9.16226C19.61 9.21306 19.6403 9.28189 19.6403 9.35365C19.6403 9.42541 19.61 9.49424 19.5559 9.54504L16.612 11.6804Z" fill="black"/>
<path d="M23.2829 9.39172C23.7703 9.22414 24.3021 9.20665 24.8009 9.34181C25.2997 9.47696 25.7395 9.75771 26.0565 10.1433C26.3734 10.5288 26.5509 10.999 26.5632 11.4856C26.5755 11.9722 26.422 12.4498 26.1249 12.849C25.8278 13.2482 25.4027 13.5482 24.9113 13.7054C24.4199 13.8625 23.8878 13.8687 23.3924 13.7229C22.897 13.5772 22.4641 13.2872 22.1566 12.895C21.8491 12.5028 21.683 12.0289 21.6825 11.5421C21.6816 11.0731 21.8348 10.6151 22.1211 10.2304C22.4074 9.84574 22.813 9.55293 23.2829 9.39172Z" fill="#CCEAFF"/>
<path d="M43.8183 1.68038C45.4028 2.54439 46.6718 3.83716 47.4587 5.38913C47.6208 5.70094 47.1223 5.97619 46.9602 5.66223C46.197 4.20701 45.0058 2.9868 43.527 2.14559C43.4646 2.10765 43.4203 2.04868 43.4032 1.98091C43.386 1.91314 43.3973 1.84179 43.4348 1.78165C43.4723 1.72152 43.5331 1.67722 43.6045 1.65796C43.6759 1.63871 43.7524 1.64596 43.8183 1.67823V1.68038Z" fill="black"/>
<path d="M44.2963 0.0316343C46.4347 0.968413 48.1404 2.59747 49.0997 4.61919C49.2527 4.9353 48.7511 5.21127 48.6012 4.89301C47.6875 2.95321 46.0545 1.38978 44.005 0.492541C43.6677 0.348463 43.9614 -0.118895 44.2963 0.0316343Z" fill="black"/>
<path d="M75.0309 64.3878C76.0179 67.519 76.3607 70.7976 76.041 74.0489C76.0089 74.393 75.4293 74.3966 75.4637 74.0489C75.7206 70.8463 75.3843 67.6262 74.4696 64.5312C74.4505 64.4622 74.4611 64.3889 74.4991 64.3273C74.5371 64.2656 74.5996 64.2204 74.6729 64.2016C74.7462 64.1827 74.8244 64.1917 74.8907 64.2265C74.957 64.2614 75.006 64.3193 75.0271 64.3878H75.0309Z" fill="black"/>
<path d="M76.8756 64.261C78.3177 67.6687 78.4576 70.5015 78.1143 74.0489C78.0814 74.393 77.5026 74.3966 77.537 74.0489C77.9553 69.7209 77.4682 67.1339 76.3182 64.405C76.1813 64.0803 76.7395 63.9398 76.8756 64.261Z" fill="black"/>
<path d="M43.8339 9.52066V37.8954C43.841 38.571 43.7023 39.241 43.4261 39.8651C43.15 40.4892 42.7421 41.0546 42.2271 41.5272C41.712 41.9998 41.1003 42.37 40.4288 42.6154C39.7572 42.8608 39.0397 42.9764 38.3193 42.9553C9.11849 42.9991 5.84965 43.0048 4.99784 42.8657C3.84712 42.6604 2.80294 42.0996 2.03194 41.2729C1.26094 40.4462 0.80756 39.4012 0.744156 38.3047C0.729626 38.0782 0.601166 34.6949 0.734978 10.0196C0.719555 9.38702 0.770775 8.7546 0.887905 8.1315C1.17643 7.09944 1.81963 6.18525 2.71803 5.53028C3.61643 4.8753 4.71999 4.51604 5.85806 4.50804H38.5227C39.2299 4.48496 39.9345 4.59908 40.5924 4.84327C41.2504 5.08745 41.8474 5.45643 42.346 5.92705C42.8447 6.39768 43.2342 6.95981 43.4903 7.5782C43.7463 8.19659 43.8633 8.8579 43.8339 9.52066ZM38.7108 5.04995H5.8573C4.70735 5.05927 3.60307 5.4731 2.76317 6.20949C1.92327 6.94587 1.409 7.95109 1.32222 9.02607C1.29852 9.38447 1.30005 38.152 1.34439 38.552C1.48189 39.6179 2.03144 40.5995 2.88903 41.3111C3.74661 42.0227 4.85271 42.4149 5.99799 42.4134H38.3599C38.9778 42.4368 39.5946 42.3458 40.175 42.1456C40.7554 41.9454 41.288 41.64 41.7425 41.2468C42.1969 40.8536 42.5643 40.3803 42.8235 39.8539C43.0828 39.3276 43.2289 38.7585 43.2536 38.1793C43.2581 38.0481 43.2536 37.9162 43.2536 37.785V9.48339C43.2754 8.91011 43.1741 8.33856 42.9557 7.80269C42.7373 7.26682 42.4063 6.77755 41.9823 6.36394C41.5582 5.95033 41.0499 5.62082 40.4874 5.39498C39.9249 5.16913 39.3197 5.05155 38.7078 5.04923L38.7108 5.04995Z" fill="black"/>
<path d="M27.3363 20.7107C27.24 20.7623 27.6109 20.8784 22.1987 20.7458C22.1489 20.7436 22.1004 20.7297 22.0578 20.7054C22.0151 20.681 21.9797 20.647 21.9548 20.6064C21.9299 20.5658 21.9163 20.5201 21.9152 20.4733C21.9142 20.4265 21.9257 20.3802 21.9487 20.3387C22.6476 19.1459 24.3458 16.4815 24.4491 16.316C24.4892 16.2541 24.5538 16.2097 24.6288 16.1925C24.7038 16.1753 24.783 16.1867 24.849 16.2242C24.9461 16.2787 24.7557 16.0092 27.4487 20.3387C27.4676 20.37 27.4796 20.4045 27.4841 20.4402C27.4887 20.4759 27.4856 20.512 27.4752 20.5466C27.4647 20.5812 27.4471 20.6135 27.4233 20.6417C27.3994 20.6698 27.3699 20.6933 27.3363 20.7107ZM24.6983 16.9905L22.7011 20.2046H26.6956L24.6983 16.9905Z" fill="black"/>
<path d="M20.8612 20.7108C20.7649 20.7624 21.135 20.8785 15.7228 20.7459C15.6729 20.7438 15.6244 20.7299 15.5818 20.7055C15.5392 20.6812 15.5038 20.6471 15.4789 20.6065C15.454 20.5659 15.4405 20.5201 15.4396 20.4733C15.4387 20.4265 15.4503 20.3802 15.4736 20.3387C16.1724 19.146 17.8707 16.4816 17.9732 16.316C17.993 16.2853 18.0191 16.2586 18.05 16.2373C18.0809 16.2161 18.116 16.2008 18.1532 16.1922C18.1904 16.1837 18.2291 16.1822 18.2669 16.1877C18.3048 16.1932 18.3411 16.2056 18.3738 16.2243C18.4817 16.2852 18.3081 16.0673 20.9736 20.3387C20.9923 20.3701 21.0043 20.4046 21.0088 20.4402C21.0132 20.4759 21.0102 20.5121 20.9997 20.5466C20.9893 20.5812 20.9717 20.6135 20.9479 20.6416C20.9241 20.6698 20.8947 20.6933 20.8612 20.7108ZM18.2224 16.9905L16.2252 20.2047H20.2197L18.2224 16.9905Z" fill="black"/>
<path d="M22.3681 23.7729H26.2372C26.3134 23.774 26.3862 23.8029 26.44 23.8535C26.4938 23.9041 26.5245 23.9724 26.5255 24.0438V27.6702C26.5245 27.7416 26.4938 27.8099 26.44 27.8605C26.3862 27.9111 26.3134 27.94 26.2372 27.9411C21.8925 27.9698 22.3024 27.9705 22.1647 27.8601C22.0416 27.7368 22.05 27.9734 22.0791 24.0438C22.0801 23.9723 22.1109 23.9039 22.1649 23.8533C22.2188 23.8027 22.2918 23.7738 22.3681 23.7729ZM22.6572 27.3992H25.9451V24.3169H22.6572V27.3992Z" fill="black"/>
<path d="M16.5486 23.7764L19.0482 27.7991C19.0671 27.8303 19.0792 27.8648 19.0838 27.9004C19.0885 27.936 19.0856 27.9722 19.0753 28.0067C19.0649 28.0413 19.0475 28.0736 19.0238 28.1018C19.0001 28.1301 18.9707 28.1536 18.9373 28.1711C18.8356 28.2249 19.1591 28.2063 13.7989 28.2063C13.7492 28.2038 13.7009 28.1897 13.6585 28.1652C13.6161 28.1408 13.5809 28.1067 13.5561 28.0663C13.5314 28.0258 13.5178 27.9801 13.5166 27.9335C13.5155 27.8868 13.5269 27.8406 13.5496 27.7991C13.5496 27.7991 15.9468 23.9413 16.05 23.7764C16.076 23.7362 16.1125 23.7029 16.1562 23.6799C16.1999 23.6568 16.2492 23.6447 16.2993 23.6447C16.3494 23.6447 16.3987 23.6568 16.4424 23.6799C16.486 23.7029 16.5226 23.7362 16.5486 23.7764ZM18.2965 27.6644L16.2993 24.4509L14.3013 27.6644H18.2965Z" fill="black"/>
<path d="M28.3791 23.6454L32.3024 27.3233C32.3525 27.3748 32.3795 27.4424 32.3778 27.5121C32.376 27.5818 32.3458 27.6481 32.2932 27.6974C32.2406 27.7467 32.1698 27.7751 32.0955 27.7767C32.0212 27.7783 31.949 27.753 31.8941 27.7061C30.5636 26.5018 29.2556 25.2759 27.97 24.0282C27.9173 23.977 27.8882 23.9085 27.8888 23.8374C27.8895 23.7663 27.92 23.6984 27.9737 23.6481C28.0274 23.5979 28.0999 23.5695 28.1758 23.569C28.2516 23.5685 28.3246 23.5959 28.3791 23.6454Z" fill="black"/>
<path d="M31.8941 13.6215C30.5636 12.4172 29.2556 11.191 27.97 9.94282C27.9173 9.89169 27.8882 9.8232 27.8888 9.75211C27.8895 9.68102 27.92 9.61304 27.9737 9.56282C28.0274 9.5126 28.0999 9.48417 28.1758 9.48365C28.2516 9.48313 28.3246 9.51057 28.3791 9.56005L32.3024 13.2387C32.3525 13.2902 32.3795 13.3578 32.3778 13.4275C32.376 13.4972 32.3458 13.5635 32.2932 13.6128C32.2406 13.6621 32.1698 13.6905 32.0955 13.6921C32.0212 13.6937 31.949 13.6684 31.8941 13.6215Z" fill="black"/>
<path d="M31.894 20.692C30.5641 19.4863 29.256 18.2601 27.9699 17.0133C27.9172 16.9622 27.8881 16.8937 27.8888 16.8226C27.8895 16.7515 27.9199 16.6835 27.9736 16.6333C28.0273 16.5831 28.0999 16.5547 28.1757 16.5541C28.2515 16.5536 28.3245 16.5811 28.379 16.6305C29.7079 17.8362 31.0157 19.0622 32.3023 20.3085C32.3551 20.3595 32.3844 20.428 32.3838 20.499C32.3833 20.5701 32.353 20.6382 32.2994 20.6885C32.2458 20.7388 32.1733 20.7674 32.0975 20.768C32.0216 20.7687 31.9486 20.7413 31.894 20.692Z" fill="black"/>
<path d="M39.43 13.9541C39.3569 13.9518 39.2875 13.9236 39.2357 13.8751C39.1839 13.8267 39.1536 13.7617 39.1509 13.6932V9.80737C39.1547 9.73802 39.1868 9.67268 39.2405 9.62485C39.2942 9.57702 39.3655 9.55035 39.4396 9.55035C39.5137 9.55035 39.5849 9.57702 39.6386 9.62485C39.6924 9.67268 39.7244 9.73802 39.7282 9.80737V13.6932C39.727 13.7287 39.7182 13.7636 39.7025 13.7959C39.6869 13.8282 39.6645 13.8573 39.6368 13.8816C39.6091 13.9058 39.5766 13.9247 39.5411 13.9371C39.5056 13.9496 39.4679 13.9553 39.43 13.9541Z" fill="black"/>
<path d="M39.43 21.1058C39.3568 21.1035 39.2872 21.0751 39.2354 21.0266C39.1836 20.978 39.1534 20.9128 39.1509 20.8441V16.9569C39.1547 16.8876 39.1868 16.8222 39.2405 16.7744C39.2942 16.7266 39.3655 16.6999 39.4396 16.6999C39.5137 16.6999 39.5849 16.7266 39.6386 16.7744C39.6924 16.8222 39.7244 16.8876 39.7282 16.9569V20.8427C39.7272 20.8784 39.7186 20.9135 39.703 20.946C39.6874 20.9785 39.6651 21.0079 39.6374 21.0323C39.6097 21.0567 39.5771 21.0758 39.5415 21.0884C39.5059 21.101 39.4681 21.1069 39.43 21.1058Z" fill="black"/>
<path d="M39.4285 28.1762C39.3557 28.1736 39.2866 28.1452 39.2351 28.0968C39.1837 28.0484 39.1536 27.9836 39.1509 27.9153V24.0288C39.1547 23.9595 39.1868 23.8941 39.2405 23.8463C39.2942 23.7985 39.3655 23.7718 39.4396 23.7718C39.5137 23.7718 39.5849 23.7985 39.6386 23.8463C39.6924 23.8941 39.7244 23.9595 39.7282 24.0288V27.9153C39.7269 27.9509 39.718 27.9859 39.7022 28.0183C39.6864 28.0507 39.6639 28.0798 39.6361 28.104C39.6082 28.1283 39.5756 28.1471 39.54 28.1595C39.5043 28.1719 39.4665 28.1776 39.4285 28.1762Z" fill="black"/>
<path d="M39.43 35.2226C39.3569 35.2201 39.2874 35.1917 39.2356 35.1432C39.1839 35.0946 39.1536 35.0295 39.1509 34.9609V31.0751C39.1547 31.0058 39.1868 30.9404 39.2405 30.8926C39.2942 30.8448 39.3655 30.8181 39.4396 30.8181C39.5137 30.8181 39.5849 30.8448 39.6386 30.8926C39.6924 30.9404 39.7244 31.0058 39.7282 31.0751V34.9609C39.7256 35.0327 39.6928 35.1005 39.6369 35.1496C39.581 35.1986 39.5066 35.2249 39.43 35.2226Z" fill="black"/>
<path d="M26.1625 68.6248C26.9715 68.7094 44.4374 70.4326 46.5019 70.6261C47.7941 68.89 48.9403 67.4005 50.3305 65.7246C47.5276 66.9337 44.4229 67.3934 41.3589 67.0529C38.3158 66.7055 35.4752 65.4418 33.2637 63.4516C33.2637 63.4516 18.9527 63.4516 18.7707 63.4516C17.0691 63.4409 15.3937 63.0585 13.8773 62.3347C12.361 61.6109 11.0456 60.5657 10.0355 59.282C9.32893 58.3236 10.1639 59.292 3.35557 48.7191C3.05941 48.2671 2.89745 47.7491 2.88643 47.2187C2.87541 46.6884 3.01575 46.1649 3.29291 45.7024C3.57007 45.2399 3.97399 44.8552 4.46291 44.5881C4.95184 44.321 5.50799 44.1812 6.07386 44.1832H37.4509C38.6538 44.1407 39.8568 44.265 41.021 44.5523C43.8807 45.3587 45.6509 47.0468 47.0555 49.5313L47.5808 50.3714L47.5854 50.3886C47.6458 50.4681 47.645 50.4746 48.8952 52.473C50.3945 51.1171 52.077 49.9514 53.8998 49.0058C54.6703 48.6218 55.5293 48.4202 56.402 48.4185C57.2747 48.4169 58.1345 48.6153 58.9067 48.9965C63.8332 51.41 69.6001 57.9129 71.7595 67.6543C72.2776 70.4066 72.4954 73.2013 72.4094 75.995C72.591 77.9937 72.1822 80.0007 71.2281 81.7961C70.7269 82.5758 70.0461 83.2407 69.2355 83.742C68.4249 84.2433 67.505 84.5684 66.5431 84.6934C65.3197 84.8805 65.5384 84.8296 54.3242 84.8296C54.1575 85.3866 54.0084 85.9471 53.8493 86.5055C53.8322 86.5627 53.7957 86.613 53.7454 86.6489C53.695 86.6849 53.6335 86.7045 53.5702 86.7048H35.7648C35.7143 86.7039 35.6649 86.6908 35.6214 86.6666C35.578 86.6425 35.5419 86.6082 35.5168 86.5671C35.4917 86.526 35.4783 86.4795 35.4781 86.4322C35.4779 86.3848 35.4908 86.3382 35.5156 86.2969C35.8642 85.8124 36.2037 85.3199 36.5417 84.8296H26.1625C26.0863 84.8287 26.0136 84.7999 25.9597 84.7495C25.9059 84.699 25.8752 84.6308 25.8742 84.5594V68.8972C25.87 68.8607 25.8746 68.8237 25.8876 68.789C25.9006 68.7544 25.9216 68.7228 25.9492 68.6967C25.9768 68.6706 26.0103 68.6507 26.0472 68.6382C26.0841 68.6258 26.1235 68.6212 26.1625 68.6248ZM34.8564 64.015C39.1262 67.0514 45.413 67.6256 51.154 64.7533C51.7657 64.048 52.4049 63.3627 53.074 62.7062C51.1624 59.9106 49.6667 57.052 47.3866 54.5575C46.6877 55.2026 46.0056 55.8771 45.2716 56.4929C44.9205 56.8419 44.4772 57.0975 43.9866 57.2339C43.496 57.3702 42.9756 57.3824 42.4784 57.2692C41.3862 56.8421 40.4959 56.0589 39.9719 55.0643C38.6528 53.0195 37.0709 51.1343 35.2617 49.451C34.417 48.6275 33.4688 47.9033 32.4379 47.2941C30.6494 46.2548 28.1108 46.1644 26.7688 47.7206C26.6159 47.9013 26.4897 48.1027 26.3361 48.2855C26.0692 48.6976 25.7916 48.7155 25.3374 48.8912C24.9306 49.0453 24.5307 49.2159 24.1301 49.3829C23.7866 49.5215 23.4602 49.6948 23.1567 49.8997C22.571 50.3835 21.5915 51.2753 22.1015 52.0809C22.6367 52.9218 23.8754 52.6243 24.6248 52.2867C24.8978 52.1641 25.2495 52.506 24.975 52.7117C24.3364 53.1861 23.813 53.7826 23.4396 54.4615C23.0909 55.0994 22.7231 56.0026 23.175 56.6728C23.2614 56.8174 23.3915 56.9348 23.549 57.0102C23.7064 57.0856 23.8841 57.1156 24.0597 57.0964C24.4684 57.0041 24.8522 56.8332 25.1868 56.5947C25.89 56.1711 26.5107 55.6377 27.0219 55.0177C27.0482 54.9778 27.0848 54.9449 27.1285 54.9221C27.1721 54.8992 27.2212 54.8873 27.2712 54.8873C27.3212 54.8873 27.3703 54.8992 27.4139 54.9221C27.4576 54.9449 27.4942 54.9778 27.5205 55.0177C29.5712 58.2483 31.6082 61.7048 34.8564 64.015ZM8.43583 55.7789C8.50006 55.8628 8.53294 55.9223 9.63249 57.6821C10.5265 59.2703 11.8687 60.5978 13.5128 61.5196C15.1568 62.4414 17.0394 62.922 18.955 62.909H32.6726C30.5435 60.702 28.7146 58.256 27.2276 55.627C26.8271 56.0674 26.374 56.4633 25.8773 56.8068C25.3011 57.3095 24.5524 57.6026 23.7661 57.6333C23.426 57.5788 23.1135 57.4238 22.8741 57.1908C22.6347 56.9579 22.4811 56.6594 22.4356 56.3388C22.3477 55.589 22.5264 54.833 22.9441 54.1884C23.1496 53.8143 23.3991 53.463 23.6881 53.1411C21.9294 53.4113 20.8513 51.9412 21.6305 50.7799C21.6305 50.7799 5.72594 50.7835 5.31533 50.7799L8.44653 55.7847L8.43583 55.7789ZM45.9422 48.8216C45.1654 47.5744 44.0537 46.5396 42.7176 45.8205C41.3815 45.1014 39.8678 44.723 38.3271 44.7229C38.1819 44.7229 6.32466 44.7014 5.72748 44.7387C5.1 44.8164 4.5238 45.1045 4.10555 45.5498C3.68731 45.9952 3.45537 46.5675 3.45267 47.1608C3.45267 48.0604 4.10262 48.8403 4.56828 49.585L4.97507 50.2359H22.0097C22.2328 49.9756 22.48 49.7343 22.7484 49.5148C23.3663 49.0918 24.0486 48.7584 24.7724 48.5256C25.0537 48.4145 25.6899 48.1744 25.6899 48.1744C26.0346 47.6995 26.4299 47.2588 26.8698 46.859C27.4856 46.4315 28.2016 46.1485 28.9581 46.0336C29.7145 45.9188 30.4892 45.9754 31.2175 46.1988C32.3497 46.5557 33.3936 47.1227 34.2868 47.8661C35.2024 48.5985 36.062 49.3904 36.859 50.2359C36.859 50.2359 46.4132 50.2158 46.8185 50.2194L45.9422 48.8216ZM47.1656 50.7778H37.3499C38.4567 51.971 39.4572 53.2474 40.3412 54.5941C40.6507 55.0905 41.0091 55.5587 41.4117 55.9926C41.8392 56.452 42.4308 56.7494 43.0755 56.8291C43.6786 56.8241 44.2591 56.6131 44.7081 56.2356C45.5492 55.5632 47.0509 54.0514 47.2788 53.9196C47.2583 53.9297 47.2391 53.942 47.2214 53.9561C47.2727 53.8844 48.3844 52.9124 48.4624 52.8451C48.0457 52.1849 47.4699 51.2631 47.1664 50.7814L47.1656 50.7778ZM56.2327 48.9542C55.5896 48.959 54.9568 49.1064 54.3861 49.3843C53.6442 49.7154 52.9371 50.1111 52.2742 50.5663C50.696 51.6555 49.2088 52.8561 47.8255 54.1575C50.1661 56.7043 51.8223 59.7787 53.5121 62.2775C55.0337 60.8353 56.6372 59.5235 58.7728 59.2454L59.0068 59.0891C60.4414 58.1012 61.4168 56.6349 61.732 54.9926C62.138 52.4221 59.1154 48.9643 56.2335 48.9542H56.2327ZM69.6139 62.6381C67.895 57.9532 64.8 53.8185 60.6852 50.7097C61.717 51.7713 62.308 53.1448 62.3506 54.5804C62.2689 55.4634 62.0023 56.3227 61.566 57.109C61.1297 57.8953 60.5324 58.5933 59.8082 59.163C62.9241 59.2038 65.6385 60.9679 67.3223 63.0129C69.5233 65.6064 71.036 68.6528 71.7358 71.9013C71.5582 68.7275 70.8422 65.6006 69.6147 62.6381H69.6139ZM61.6051 84.2856C60.2403 83.7487 59.0885 82.8257 58.3102 81.6456C57.8304 80.8477 57.4701 79.9917 57.2397 79.1016C57.1021 78.6199 56.9262 78.1411 56.781 77.6566C55.9381 79.8418 55.173 82.0527 54.487 84.2856H61.6051ZM36.3016 86.16C36.3016 86.16 53.1803 86.1507 53.3531 86.1536C54.2492 82.9398 55.3182 79.7705 56.5561 76.658C56.6464 76.4308 57.0516 76.3713 57.1136 76.658C57.2405 77.253 57.4508 77.8408 57.6297 78.4235C57.8482 79.3092 58.1639 80.1714 58.5717 80.9962C59.1599 82.035 60.0503 82.8962 61.1395 83.4798C62.2287 84.0635 63.4722 84.3456 64.7256 84.2935C69.0198 84.2849 71.5408 82.181 71.8061 77.6988C71.8557 74.1992 71.1043 70.7303 69.6024 67.5259C68.5034 65.1622 66.8414 63.066 64.7439 61.398C62.7299 59.9006 59.7172 59.1465 57.2229 60.2454C56.3842 60.6397 55.6114 61.1468 54.929 61.7507C48.9946 67.0048 42.5908 77.2559 36.3024 86.1614L36.3016 86.16ZM26.4599 84.2856H36.9202C41.2893 77.9404 43.0518 75.3062 46.1188 71.1358C44.9336 71.0254 26.4515 69.1954 26.4515 69.1954C26.4515 86.431 26.4484 83.5716 26.4607 84.287L26.4599 84.2856Z" fill="black"/>
<path d="M22.4371 84.6797C22.2842 84.145 17.9257 68.6355 17.9257 68.6233C17.8554 68.3753 18.2117 68.1488 18.4082 68.3602C21.3252 71.4885 23.2344 75.329 23.9136 79.4349C24.2011 81.2749 24.1835 83.2605 22.9196 84.7966C22.8838 84.8296 22.8396 84.8534 22.7911 84.8656C22.7426 84.8778 22.6916 84.878 22.643 84.8662C22.5945 84.8545 22.55 84.8311 22.5139 84.7984C22.4778 84.7657 22.4513 84.7249 22.4371 84.6797ZM23.36 79.5811C22.7783 75.9733 21.2154 72.5666 18.8219 69.6892C18.8219 69.6892 22.8248 83.9257 22.8332 83.9536C23.5146 82.5895 23.6996 81.0534 23.36 79.5811Z" fill="black"/>
<path d="M51.8248 90.1097C51.8901 90.1291 51.9459 90.1694 51.9825 90.2235C52.0192 90.2777 52.0343 90.3422 52.0251 90.4058C52.016 90.4693 51.9832 90.5278 51.9326 90.571C51.882 90.6141 51.8167 90.6391 51.7484 90.6416L32.1338 91C32.0774 90.9986 32.0225 90.9819 31.976 90.9519C31.9294 90.9219 31.8931 90.8799 31.8715 90.831C31.8499 90.7821 31.8439 90.7283 31.8542 90.6762C31.8646 90.6242 31.8908 90.576 31.9297 90.5377C36.792 86.7522 45.9792 87.9063 51.8248 90.1097ZM50.2191 90.1284C45.1725 88.4991 37.4496 87.6367 33.0246 90.4445L50.2191 90.1284Z" fill="black"/>
<path d="M27.1273 47.8598C28.0811 47.4236 29.1579 47.2826 30.2027 47.457C30.569 47.5136 30.4137 48.0354 30.0498 47.9788C29.1046 47.8395 28.1367 47.9803 27.281 48.3816C26.9339 48.5085 26.7832 47.986 27.1273 47.8598Z" fill="black"/>
<path d="M25.408 52.352C25.373 52.2915 25.3639 52.2207 25.3825 52.1542C25.4011 52.0876 25.4461 52.0302 25.5082 51.9935C26.1848 51.6173 26.9205 51.3434 27.6882 51.1821C28.0506 51.1104 28.2058 51.6301 27.8411 51.7047C27.1243 51.8604 26.4363 52.1153 25.7995 52.4609C25.7662 52.478 25.7296 52.4888 25.6919 52.4925C25.6541 52.4963 25.6159 52.493 25.5795 52.4829C25.5431 52.4728 25.5092 52.456 25.4798 52.4335C25.4504 52.411 25.426 52.3833 25.408 52.352Z" fill="black"/>
<path d="M41.9414 65.0522H44.6688C44.7428 65.0558 44.8125 65.0859 44.8635 65.1362C44.9146 65.1866 44.943 65.2534 44.943 65.3228C44.943 65.3923 44.9146 65.4591 44.8635 65.5094C44.8125 65.5598 44.7428 65.5899 44.6688 65.5934H41.9414C41.8674 65.5899 41.7977 65.5598 41.7467 65.5094C41.6956 65.4591 41.6672 65.3923 41.6672 65.3228C41.6672 65.2534 41.6956 65.1866 41.7467 65.1362C41.7977 65.0859 41.8674 65.0558 41.9414 65.0522Z" fill="black"/>
<path d="M55.7998 46.0398C55.2576 46.1628 54.6887 46.1319 54.1652 45.9512C53.6417 45.7705 53.1874 45.4481 52.8598 45.0248C52.5376 44.6461 52.3648 44.1748 52.3707 43.6905C52.3765 43.2062 52.5606 42.7386 52.8919 42.3669C53.1269 42.1192 53.4119 41.9176 53.7304 41.7738C54.049 41.63 54.3948 41.5468 54.7479 41.529C55.101 41.5112 55.4543 41.5592 55.7875 41.6701C56.1207 41.7811 56.4271 41.9529 56.6891 42.1755C57.0222 42.4365 57.2729 42.778 57.414 43.1629C57.5551 43.5478 57.5813 43.9616 57.4897 44.3595C57.3982 44.7574 57.1923 45.1242 56.8945 45.4204C56.5966 45.7165 56.2181 45.9307 55.7998 46.0398ZM56.9391 43.589C56.8622 43.2644 56.6986 42.9634 56.4637 42.7142C56.2287 42.465 55.9302 42.2757 55.596 42.1642C55.2618 42.0527 54.9028 42.0225 54.5528 42.0765C54.2027 42.1305 53.873 42.2669 53.5946 42.473C53.2747 42.7021 53.0551 43.0329 52.9769 43.4031C52.8988 43.7733 52.9675 44.1575 53.1702 44.4836C53.3909 44.8648 53.732 45.1727 54.1466 45.3651C54.5612 45.5576 55.0291 45.6253 55.4863 45.5588C55.7198 45.5192 55.9427 45.4368 56.1422 45.3163C56.3417 45.1958 56.5138 45.0395 56.6488 44.8566C56.7837 44.6736 56.8788 44.4674 56.9287 44.2499C56.9785 44.0324 56.982 43.8078 56.9391 43.589Z" fill="black"/>
<path d="M56.8384 41.2364C55.9973 41.1941 55.1562 41.1417 54.3227 41.0306C53.6666 40.9626 53.0248 40.8042 52.418 40.5604C51.7681 40.2959 51.212 39.8631 50.8151 39.3129C50.4182 38.7627 50.1968 38.1178 50.1769 37.4538C50.2816 36.1083 51.9937 35.651 53.2951 36.2883C54.5251 37.0183 55.5068 38.0629 56.1242 39.2988C56.4301 39.8164 56.7749 40.3131 57.0854 40.8285C57.1103 40.8696 57.1234 40.9161 57.1234 40.9633C57.1234 41.0106 57.1103 41.057 57.0854 41.0982C57.0605 41.1393 57.0247 41.1736 56.9814 41.1978C56.9381 41.2221 56.8888 41.2353 56.8384 41.2364ZM52.4524 36.5771C52.2232 36.5272 51.9852 36.5237 51.7544 36.567C51.5237 36.6102 51.3054 36.6992 51.1143 36.828C50.498 37.2352 50.732 38.1183 51.1143 38.739C51.4522 39.2493 51.9174 39.6749 52.4698 39.9791C53.0222 40.2833 53.6453 40.457 54.2853 40.4852C54.9584 40.5697 55.6345 40.6314 56.3123 40.6701C55.3328 39.1261 54.2776 36.975 52.4524 36.5743V36.5771Z" fill="black"/>
<path d="M36.9429 26.2861L33.9241 28.4738C33.8689 28.5227 33.7959 28.5499 33.72 28.5499C33.6441 28.5499 33.571 28.5227 33.5158 28.4738C33.4617 28.423 33.4314 28.3542 33.4314 28.2824C33.4314 28.2107 33.4617 28.1418 33.5158 28.091C33.5839 28.0416 35.5467 26.618 36.4589 25.955L33.5158 23.8203C33.4617 23.7694 33.4313 23.7005 33.4313 23.6286C33.4313 23.5567 33.4617 23.4877 33.5158 23.4368C33.5707 23.3873 33.6438 23.3597 33.72 23.3597C33.7961 23.3597 33.8693 23.3873 33.9241 23.4368C33.9241 23.4368 37.0225 25.6718 37.1234 25.7578C37.3528 25.9865 37.1196 26.1585 36.9429 26.2861Z" fill="black"/>
<path d="M36.9425 19.2297L33.9237 21.4167C33.8686 21.4658 33.7955 21.4933 33.7195 21.4933C33.6435 21.4933 33.5704 21.4658 33.5153 21.4167C33.4613 21.3659 33.4309 21.2971 33.4309 21.2253C33.4309 21.1535 33.4613 21.0847 33.5153 21.0339L36.4623 18.8985L33.5192 16.7632C33.4651 16.7124 33.4347 16.6436 33.4347 16.5718C33.4347 16.5 33.4651 16.4312 33.5192 16.3804C33.5739 16.3307 33.6471 16.303 33.7233 16.303C33.7995 16.303 33.8727 16.3307 33.9275 16.3804C34.8863 17.0757 37.0258 18.6154 37.1267 18.7007C37.3523 18.9294 37.1191 19.0985 36.9425 19.2297Z" fill="black"/>
<path d="M36.9425 12.0115L33.9237 14.1985C33.8686 14.2477 33.7955 14.2751 33.7195 14.2751C33.6435 14.2751 33.5704 14.2477 33.5153 14.1985C33.4613 14.1477 33.4309 14.0789 33.4309 14.0071C33.4309 13.9354 33.4613 13.8665 33.5153 13.8157L36.4623 11.6804L33.5192 9.54501C33.4651 9.49421 33.4347 9.42538 33.4347 9.35362C33.4347 9.28186 33.4651 9.21303 33.5192 9.16223C33.574 9.11273 33.6472 9.08508 33.7233 9.08508C33.7995 9.08508 33.8726 9.11273 33.9275 9.16223C34.8863 9.85753 37.0258 11.3972 37.1267 11.4832C37.3523 11.7112 37.1191 11.8832 36.9425 12.0115Z" fill="black"/>
<path d="M10.4316 23.4367C10.4857 23.4876 10.5161 23.5566 10.5161 23.6285C10.5161 23.7003 10.4857 23.7693 10.4316 23.8202L7.48775 25.9548L10.4316 28.0902C10.4855 28.1412 10.5158 28.2101 10.5158 28.282C10.5158 28.3538 10.4855 28.4227 10.4316 28.4737C10.3767 28.523 10.3035 28.5506 10.2275 28.5506C10.1514 28.5506 10.0782 28.523 10.0233 28.4737C10.0233 28.4737 6.92497 26.2387 6.82404 26.1527C6.59465 25.924 6.83092 25.7527 7.00832 25.6244L10.0233 23.4367C10.0785 23.3879 10.1515 23.3607 10.2275 23.3607C10.3034 23.3607 10.3764 23.3879 10.4316 23.4367Z" fill="black"/>
<path d="M10.4105 18.8965L13.3551 21.0341C13.4092 21.085 13.4396 21.1539 13.4396 21.2258C13.4396 21.2977 13.4092 21.3666 13.3551 21.4176C13.3001 21.4669 13.227 21.4944 13.1509 21.4944C13.0748 21.4944 13.0017 21.4669 12.9468 21.4176C11.9879 20.7215 9.84845 19.1825 9.74751 19.0965C9.51812 18.8679 9.75516 18.6958 9.93179 18.5682L12.9468 16.3806C13.002 16.3317 13.075 16.3045 13.1509 16.3045C13.2268 16.3045 13.2999 16.3317 13.3551 16.3806C13.382 16.4056 13.4034 16.4354 13.418 16.4683C13.4326 16.5011 13.4402 16.5364 13.4402 16.5719C13.4402 16.6075 13.4326 16.6428 13.418 16.6756C13.4034 16.7085 13.382 16.7383 13.3551 16.7633L10.4105 18.8965Z" fill="black"/>
<path d="M16.6113 11.6804L19.5551 13.8157C19.6092 13.8665 19.6396 13.9354 19.6396 14.0071C19.6396 14.0789 19.6092 14.1477 19.5551 14.1985C19.5005 14.2483 19.4272 14.2762 19.351 14.2762C19.2747 14.2762 19.2015 14.2483 19.1468 14.1985C18.188 13.5032 16.0485 11.9642 15.9476 11.8782C15.7182 11.6495 15.9552 11.4775 16.1311 11.3492L19.1468 9.16224C19.202 9.11339 19.2751 9.08618 19.351 9.08618C19.4269 9.08618 19.4999 9.11339 19.5551 9.16224C19.6092 9.21303 19.6396 9.28186 19.6396 9.35362C19.6396 9.42538 19.6092 9.49421 19.5551 9.54501L16.6113 11.6804Z" fill="black"/>
<path d="M24.9633 13.6883C24.51 13.8437 24.0176 13.8697 23.5485 13.763C23.0794 13.6562 22.6546 13.4215 22.3278 13.0885C22.0009 12.7555 21.7867 12.3391 21.7122 11.892C21.6377 11.4449 21.7063 10.9871 21.9093 10.5765C22.1123 10.1659 22.4405 9.82093 22.8526 9.58518C23.2646 9.34943 23.742 9.23347 24.2243 9.25197C24.7066 9.27048 25.1723 9.4226 25.5624 9.68912C25.9525 9.95564 26.2496 10.3246 26.4161 10.7493C26.5267 11.0317 26.5769 11.3318 26.5637 11.6323C26.5505 11.9329 26.4743 12.2281 26.3394 12.501C26.2045 12.774 26.0135 13.0193 25.7774 13.223C25.5413 13.4267 25.2646 13.5848 24.9633 13.6883ZM24.7538 9.89349C24.472 9.79901 24.1701 9.76944 23.8736 9.80728C23.577 9.84511 23.2945 9.94923 23.0499 10.1109C22.8053 10.2725 22.6058 10.4869 22.4681 10.736C22.3304 10.9851 22.2586 11.2616 22.2588 11.5421C22.2614 11.9023 22.3812 12.253 22.6021 12.5476C22.823 12.8422 23.1346 13.0666 23.4952 13.1908C23.9606 13.3455 24.4724 13.321 24.9185 13.1226C25.3647 12.9242 25.7087 12.5681 25.8752 12.1323C26.0418 11.6966 26.0173 11.2167 25.8071 10.7978C25.5969 10.379 25.2181 10.0553 24.7538 9.89778V9.89349Z" fill="black"/>
<path d="M47.458 5.38827C47.6201 5.7008 47.1215 5.97534 46.9594 5.66209C46.2032 4.20246 45.0103 2.98059 43.5262 2.14544C43.4615 2.1071 43.4156 2.04624 43.3987 1.97622C43.3818 1.9062 43.3952 1.83274 43.436 1.77199C43.4746 1.71322 43.5358 1.67065 43.6071 1.65316C43.6783 1.63567 43.7539 1.6446 43.8183 1.67809C45.4018 2.54368 46.6702 3.83665 47.458 5.38827Z" fill="black"/>
<path d="M48.6 4.89589C47.6784 2.96136 46.0481 1.40026 44.0045 0.495424C43.6673 0.352063 43.9609 -0.118878 44.2958 0.0280668C46.4326 0.968711 48.1375 2.59819 49.0993 4.6192C49.2484 4.93818 48.7506 5.21415 48.6 4.89589Z" fill="black"/>
<path d="M74.6861 64.2051C74.7573 64.1891 74.8323 64.1991 74.8959 64.2331C74.9595 64.267 75.007 64.3224 75.0287 64.3879C75.9974 67.5225 76.3401 70.7978 76.0395 74.049C76.0074 74.3931 75.4278 74.3967 75.4622 74.049C75.751 70.8464 75.4142 67.6213 74.4682 64.532C74.4592 64.4971 74.4576 64.4609 74.4638 64.4254C74.4699 64.39 74.4835 64.356 74.5038 64.3256C74.5241 64.2951 74.5507 64.2688 74.582 64.2481C74.6133 64.2274 74.6487 64.2128 74.6861 64.2051Z" fill="black"/>
<path d="M76.8737 64.2608C78.3265 67.6635 78.4496 70.5837 78.1131 74.0488C78.0803 74.3928 77.5014 74.3957 77.5358 74.0488C77.8799 70.497 77.7002 67.71 76.317 64.4049C76.1809 64.0801 76.7391 63.9397 76.8737 64.2608Z" fill="black"/>
<path d="M0.739639 37.0654C0.739639 8.29284 0.650181 9.25336 0.89257 8.13156C1.1811 7.0995 1.82429 6.18531 2.72269 5.53034C3.62109 4.87537 4.72466 4.5161 5.86273 4.50811H38.5243C39.2315 4.48502 39.9361 4.59914 40.5941 4.84333C41.252 5.08751 41.849 5.45649 42.3476 5.92711C42.8463 6.39774 43.2358 6.95987 43.4919 7.57826C43.7479 8.19665 43.8649 8.85796 43.8355 9.52072V37.8955C43.8491 38.5728 43.7149 39.2456 43.4411 39.8725C43.1672 40.4994 42.7596 41.0673 42.2431 41.5411C41.7267 42.015 41.1124 42.3849 40.4379 42.6281C39.7634 42.8713 39.043 42.9827 38.3209 42.9554C3.6598 42.516 5.85202 43.0049 5.00021 42.8658C3.84894 42.6614 2.80407 42.1009 2.03276 41.274C1.26145 40.4471 0.808281 39.4016 0.745758 38.3048C0.718231 37.8933 0.739639 37.4768 0.739639 37.0654Z" fill="#FFD500"/>
<path d="M6.07595 44.1818H37.453C38.8587 44.073 40.2727 44.2578 41.5931 44.723C42.9135 45.1882 44.1073 45.9222 45.0887 46.872C46.0593 47.9451 46.8958 49.1188 47.5821 50.37C47.6036 50.4481 47.5546 50.2546 47.3245 50.236H47.1631H36.8604C36.0584 49.3946 35.1989 48.603 34.2873 47.8662C31.4085 45.5172 28.5847 45.581 26.8703 46.8591C26.438 47.2631 26.0444 47.702 25.6943 48.1708C25.5705 48.2368 25.6316 48.1873 24.7768 48.5292C24.053 48.762 23.3707 49.0955 22.7528 49.5184C22.4844 49.738 22.2372 49.9793 22.0141 50.2395H4.8143C4.76566 50.2407 4.71808 50.2532 4.67585 50.2759C4.63361 50.2985 4.59802 50.3306 4.57227 50.3693C4.54651 50.408 4.53139 50.4521 4.52826 50.4977C4.52513 50.5432 4.53408 50.5887 4.55432 50.6302C4.1567 49.9937 3.76445 49.3543 3.35995 48.7213C3.06083 48.2698 2.89638 47.7512 2.88375 47.2198C2.87113 46.6883 3.01079 46.1635 3.28818 45.6998C3.56557 45.2362 3.97053 44.8508 4.46085 44.5838C4.95118 44.3168 5.50893 44.178 6.07595 44.1818Z" fill="#FFF0B3"/>
<path d="M4.81228 50.236H22.0121C21.8671 50.4052 21.7392 50.5866 21.6298 50.7779C20.8529 51.9362 21.928 53.4093 23.6874 53.139C23.3985 53.461 23.1489 53.8122 22.9434 54.1863C22.5257 54.831 22.347 55.5869 22.4349 56.3367C22.4806 56.6572 22.6344 56.9557 22.8737 57.1885C23.113 57.4214 23.4254 57.5765 23.7654 57.6312C24.5518 57.6009 25.3007 57.3078 25.8766 56.8048C26.3737 56.4616 26.8268 56.0657 27.2269 55.6249C28.8144 58.4986 30.8487 61.1351 33.263 63.4481C33.263 63.4481 18.952 63.4481 18.77 63.4481C17.0664 63.4483 15.3868 63.0706 13.8686 62.3459C12.3505 61.6213 11.0367 60.5701 10.0348 59.2785C9.29154 58.3029 5.23895 51.6803 4.55995 50.6417C4.53588 50.6002 4.52362 50.5536 4.52436 50.5064C4.5251 50.4592 4.53883 50.413 4.56419 50.3722C4.58956 50.3314 4.62572 50.2974 4.66918 50.2736C4.71264 50.2497 4.76192 50.2368 4.81228 50.236Z" fill="#FFC431"/>
<path d="M47.3258 50.2358C47.3791 50.24 47.4306 50.2558 47.4762 50.2821C47.5217 50.3084 47.5601 50.3443 47.5881 50.387C47.6431 50.4587 47.5154 50.2609 48.8979 52.4715C48.6685 52.6636 47.2784 53.875 47.221 53.956C47.0291 54.0707 45.6734 55.4441 44.7077 56.2355C44.2568 56.61 43.6775 56.8206 43.0752 56.829C40.8057 56.5494 40.8692 54.4119 36.8609 50.2344C50.6971 50.2308 46.5596 50.1756 47.3258 50.2358Z" fill="#FFC431"/>
<path d="M21.9508 20.3389C22.649 19.1461 24.3465 16.481 24.4512 16.3161C24.4772 16.2759 24.5137 16.2427 24.5574 16.2196C24.6011 16.1965 24.6504 16.1844 24.7005 16.1844C24.7506 16.1844 24.7999 16.1965 24.8436 16.2196C24.8872 16.2427 24.9238 16.2759 24.9498 16.3161C25.7896 17.6534 26.6228 18.9943 27.4494 20.3389C27.4747 20.3803 27.4879 20.4273 27.4877 20.4751C27.4876 20.5229 27.4741 20.5698 27.4485 20.6112C27.423 20.6525 27.3863 20.6869 27.3422 20.7108C27.2981 20.7347 27.248 20.7473 27.197 20.7474H22.1978C22.1482 20.7445 22.1001 20.7301 22.0579 20.7054C22.0157 20.6806 21.9808 20.6465 21.9562 20.6059C21.9317 20.5653 21.9184 20.5196 21.9174 20.473C21.9165 20.4264 21.928 20.3803 21.9508 20.3389Z" fill="#2755A0"/>
<path d="M15.4737 20.3388C16.1719 19.146 17.8694 16.4802 17.9734 16.3161C17.9994 16.2759 18.0361 16.2426 18.0798 16.2196C18.1235 16.1965 18.1728 16.1844 18.223 16.1844C18.2732 16.1844 18.3225 16.1965 18.3662 16.2196C18.41 16.2426 18.4466 16.2759 18.4727 16.3161C19.3119 17.6537 20.1451 18.9946 20.9723 20.3388C20.9971 20.38 21.01 20.4266 21.0098 20.4739C21.0096 20.5213 20.9963 20.5677 20.9711 20.6088C20.946 20.6499 20.9099 20.6841 20.8664 20.7081C20.8229 20.7322 20.7735 20.7452 20.723 20.7459H15.7261C15.6761 20.7439 15.6275 20.7301 15.5846 20.7059C15.5418 20.6816 15.5062 20.6476 15.4811 20.6071C15.456 20.5665 15.4421 20.5207 15.4408 20.4738C15.4395 20.4269 15.4509 20.3805 15.4737 20.3388Z" fill="#2755A0"/>
<path d="M22.3697 23.7729H26.2388C26.315 23.7741 26.3878 23.803 26.4416 23.8536C26.4954 23.9042 26.5261 23.9725 26.5271 24.0439V27.6702C26.5261 27.7417 26.4954 27.8099 26.4416 27.8605C26.3878 27.9111 26.315 27.9401 26.2388 27.9412C22.1097 27.9684 22.2627 27.9806 22.1526 27.8437C22.047 27.739 22.0516 27.9154 22.0807 24.0446C22.0815 23.9729 22.1122 23.9044 22.1662 23.8536C22.2202 23.8028 22.2932 23.7739 22.3697 23.7729Z" fill="#FF4848"/>
<path d="M13.5508 27.7986C14.2489 26.6059 15.9464 23.9408 16.0512 23.7767C16.0771 23.7364 16.1137 23.7032 16.1574 23.6801C16.201 23.657 16.2503 23.6449 16.3004 23.6449C16.3506 23.6449 16.3998 23.657 16.4435 23.6801C16.4872 23.7032 16.5238 23.7364 16.5497 23.7767C17.2914 24.9458 18.9484 27.6331 19.0493 27.7986C19.0741 27.8399 19.0869 27.8865 19.0867 27.9339C19.0865 27.9813 19.0732 28.0278 19.0481 28.0689C19.023 28.11 18.9869 28.1442 18.9434 28.1684C18.9 28.1925 18.8506 28.2056 18.8 28.2065H13.8001C13.7504 28.2037 13.7023 28.1894 13.66 28.1648C13.6177 28.1402 13.5826 28.1062 13.5579 28.0657C13.5332 28.0252 13.5196 27.9796 13.5183 27.933C13.5171 27.8864 13.5282 27.8402 13.5508 27.7986Z" fill="#2755A0"/>
<path d="M28.3808 23.6452L32.3049 27.3232C32.3539 27.375 32.3799 27.4423 32.3776 27.5115C32.3754 27.5807 32.3451 27.6464 32.2929 27.6953C32.2407 27.7443 32.1705 27.7727 32.0967 27.7748C32.023 27.7769 31.9511 27.7525 31.8958 27.7066C30.5659 26.501 29.2581 25.2748 27.9725 24.028C27.9224 23.9765 27.8954 23.9089 27.8971 23.8392C27.8989 23.7695 27.9291 23.7032 27.9817 23.6539C28.0343 23.6046 28.1051 23.5762 28.1794 23.5746C28.2537 23.573 28.3258 23.5983 28.3808 23.6452Z" fill="black"/>
<path d="M28.381 9.56014L32.3052 13.2388C32.3578 13.2899 32.387 13.3584 32.3863 13.4295C32.3856 13.5006 32.3551 13.5686 32.3014 13.6188C32.2478 13.669 32.1752 13.6974 32.0994 13.698C32.0235 13.6985 31.9505 13.671 31.8961 13.6216C30.5661 12.4168 29.2583 11.1906 27.9727 9.94291C27.9226 9.89141 27.8957 9.82379 27.8974 9.75412C27.8991 9.68445 27.9294 9.61808 27.982 9.5688C28.0345 9.51952 28.1053 9.49113 28.1796 9.48951C28.254 9.4879 28.3261 9.5132 28.381 9.56014Z" fill="black"/>
<path d="M28.3808 16.6308C29.7108 17.8359 31.0188 19.0619 32.3049 20.3087C32.3539 20.3605 32.3799 20.4279 32.3776 20.497C32.3754 20.5662 32.3451 20.6319 32.2929 20.6809C32.2407 20.7298 32.1705 20.7582 32.0967 20.7603C32.023 20.7624 31.9511 20.738 31.8958 20.6922C30.5659 19.4865 29.2581 18.2603 27.9725 17.0135C27.9224 16.962 27.8954 16.8944 27.8971 16.8247C27.8989 16.7551 27.9291 16.6887 27.9817 16.6394C28.0343 16.5901 28.1051 16.5617 28.1794 16.5601C28.2537 16.5585 28.3258 16.5838 28.3808 16.6308Z" fill="black"/>
<path d="M39.7307 9.80731V13.6931C39.7269 13.7625 39.6948 13.8278 39.6411 13.8756C39.5874 13.9235 39.5161 13.9501 39.442 13.9501C39.3679 13.9501 39.2967 13.9235 39.243 13.8756C39.1893 13.8278 39.1572 13.7625 39.1534 13.6931V9.80731C39.1572 9.73796 39.1893 9.67262 39.243 9.62479C39.2967 9.57696 39.3679 9.55029 39.442 9.55029C39.5161 9.55029 39.5874 9.57696 39.6411 9.62479C39.6948 9.67262 39.7269 9.73796 39.7307 9.80731Z" fill="#FF4848"/>
<path d="M39.7307 16.957V20.8428C39.7269 20.9121 39.6948 20.9775 39.6411 21.0253C39.5874 21.0731 39.5161 21.0998 39.442 21.0998C39.3679 21.0998 39.2967 21.0731 39.243 21.0253C39.1893 20.9775 39.1572 20.9121 39.1534 20.8428V16.957C39.1572 16.8876 39.1893 16.8223 39.243 16.7744C39.2967 16.7266 39.3679 16.7 39.442 16.7C39.5161 16.7 39.5874 16.7266 39.6411 16.7744C39.6948 16.8223 39.7269 16.8876 39.7307 16.957Z" fill="#FF4848"/>
<path d="M39.7307 24.0289V27.9154C39.7269 27.9847 39.6948 28.0501 39.6411 28.0979C39.5874 28.1457 39.5161 28.1724 39.442 28.1724C39.3679 28.1724 39.2967 28.1457 39.243 28.0979C39.1893 28.0501 39.1572 27.9847 39.1534 27.9154V24.0289C39.1572 23.9595 39.1893 23.8942 39.243 23.8463C39.2967 23.7985 39.3679 23.7719 39.442 23.7719C39.5161 23.7719 39.5874 23.7985 39.6411 23.8463C39.6948 23.8942 39.7269 23.9595 39.7307 24.0289Z" fill="#FF4848"/>
<path d="M39.7307 31.0749V34.9608C39.7269 35.0301 39.6948 35.0954 39.6411 35.1433C39.5874 35.1911 39.5161 35.2178 39.442 35.2178C39.3679 35.2178 39.2967 35.1911 39.243 35.1433C39.1893 35.0954 39.1572 35.0301 39.1534 34.9608V31.0749C39.1572 31.0056 39.1893 30.9403 39.243 30.8924C39.2967 30.8446 39.3679 30.8179 39.442 30.8179C39.5161 30.8179 39.5874 30.8446 39.6411 30.8924C39.6948 30.9403 39.7269 31.0056 39.7307 31.0749Z" fill="#FF4848"/>
<path d="M26.1649 68.6249C26.9739 68.7095 44.4398 70.4327 46.5043 70.6263C43.029 75.5722 39.3809 80.7432 36.5449 84.8283H26.1649C26.0887 84.8276 26.0158 84.7989 25.962 84.7483C25.9081 84.6978 25.8774 84.6295 25.8766 84.5581C25.7757 73.0641 25.8094 69.9639 25.8529 69.1138C25.8659 68.8636 25.8965 68.5776 26.1649 68.6249Z" fill="#2755A0"/>
<path d="M56.7875 77.6573C56.9313 78.1426 57.1071 78.6214 57.2463 79.1031C57.4765 79.9932 57.8368 80.8493 58.3168 81.647C58.9639 82.6216 59.8659 83.4249 60.9374 83.9807C62.0088 84.5364 63.214 84.8262 64.4385 84.8225C64.31 84.8347 65.5855 84.8282 54.33 84.8282C54.9524 82.7194 55.8218 80.1704 56.7875 77.6573Z" fill="#2755A0"/>
<path d="M18.4093 68.3625C21.3279 71.4897 23.2374 75.3308 23.9147 79.4371C24.2053 81.2772 24.1846 83.2627 22.9207 84.7988C22.8848 84.8318 22.8403 84.8555 22.7917 84.8676C22.7431 84.8796 22.692 84.8797 22.6434 84.8677C22.5948 84.8557 22.5503 84.8321 22.5144 84.7992C22.4784 84.7662 22.4521 84.7251 22.4382 84.6798C22.2853 84.1465 17.9268 68.6356 17.9268 68.6234C17.8565 68.3775 18.2128 68.151 18.4093 68.3625Z" fill="black"/>
<path d="M31.9314 90.5398C34.4623 88.5678 37.8443 88.0453 41.0459 88.0818C44.7425 88.1269 48.3982 88.8145 51.8273 90.1097C51.8925 90.129 51.9484 90.1693 51.985 90.2235C52.0216 90.2777 52.0367 90.3422 52.0276 90.4057C52.0184 90.4693 51.9857 90.5278 51.9351 90.5709C51.8844 90.6141 51.8192 90.6391 51.7508 90.6416C51.1001 90.658 32.1478 91 32.1363 91C32.0802 90.9983 32.0258 90.9816 31.9796 90.9518C31.9334 90.922 31.8973 90.8803 31.8757 90.8317C31.8541 90.7832 31.8478 90.7299 31.8577 90.6781C31.8676 90.6263 31.8932 90.5783 31.9314 90.5398Z" fill="black"/>
<path d="M47.2298 53.9425C49.2944 52.0565 53.4456 48.3421 56.3344 48.4231C57.2309 48.406 58.1172 48.6033 58.9097 48.9965C62.2275 50.6337 66.5255 54.6256 69.1979 60.2503C70.3326 62.6257 71.1922 65.1084 71.7618 67.6557C72.279 70.4081 72.4965 73.2027 72.411 75.9964C72.4327 76.2497 72.4327 76.5043 72.411 76.7577C72.382 75.1222 72.1566 73.4951 71.7388 71.907C70.6821 67.789 69.4006 65.4759 67.3261 63.0186C65.2516 60.5614 62.1044 58.7845 58.7774 59.2425C56.5661 59.5464 55.036 60.8431 53.4861 62.3033C51.6823 59.6561 50.0101 56.5301 47.6152 53.9654C47.563 53.9177 47.4935 53.8902 47.4206 53.8884C47.3478 53.8867 47.2769 53.9109 47.2222 53.9561L47.2298 53.9425Z" fill="#FF4848"/>
<path d="M23.0028 53.1534C22.7119 53.1436 22.4288 53.0629 22.1814 52.919C21.9341 52.7751 21.7312 52.5731 21.5927 52.3331C21.4543 52.0931 21.3851 51.8233 21.3921 51.5505C21.3991 51.2777 21.482 51.0114 21.6326 50.7779C21.9226 50.2982 22.3011 49.8706 22.7505 49.5149C23.6492 48.9424 24.6315 48.4948 25.6668 48.1859C26.2021 47.6225 26.6394 46.6684 28.1519 46.2104C29.1449 45.9057 30.2149 45.9017 31.2105 46.1989C32.3429 46.5553 33.3868 47.1224 34.2797 47.8662C36.1767 49.4202 37.864 51.1856 39.3042 53.1233C40.8021 55.1303 41.3205 56.6141 43.067 56.8292C43.6693 56.8203 44.2483 56.6098 44.6995 56.2356C45.5131 55.5697 47.092 54.0286 47.2128 53.9562C47.2675 53.911 47.3384 53.8868 47.4113 53.8886C47.4842 53.8903 47.5537 53.9178 47.6059 53.9655C50.0061 56.536 51.6539 59.6283 53.4768 62.3034C52.3566 63.386 51.3039 64.5284 50.3242 65.7247C45.5306 67.792 39.6857 67.7318 35.2348 64.9362C31.8482 62.8087 29.1903 58.9789 27.2221 55.6285C26.8222 56.0694 26.369 56.4654 25.8717 56.8084C25.2958 57.3112 24.547 57.6044 23.7606 57.6348C23.4205 57.5803 23.108 57.4253 22.8686 57.1924C22.6292 56.9595 22.4756 56.6609 22.4301 56.3403C22.3422 55.5905 22.5209 54.8346 22.9386 54.1899C23.7636 52.7018 24.0787 53.2659 23.0028 53.1534Z" fill="#FC9070"/>
<path d="M30.0512 47.9788C29.1058 47.84 28.1378 47.9808 27.2817 48.3816C26.9353 48.5092 26.7847 47.986 27.1287 47.8598C28.0824 47.4224 29.1599 47.2813 30.2049 47.457C30.5704 47.515 30.4152 48.0361 30.0512 47.9788Z" fill="#FF4848"/>
<path d="M27.8433 51.7055C27.1264 51.8609 26.4383 52.1158 25.8017 52.4618C25.7357 52.4956 25.6583 52.5039 25.5859 52.4851C25.5135 52.4663 25.4517 52.4218 25.4137 52.361C25.3757 52.3002 25.3645 52.2279 25.3824 52.1595C25.4003 52.091 25.4459 52.0318 25.5096 51.9944C26.1836 51.6131 26.9202 51.3389 27.6896 51.183C28.052 51.1077 28.2072 51.6303 27.8433 51.7055Z" fill="#FF4848"/>
<path d="M35.5176 86.2954C35.8662 85.8109 46.3755 70.7967 46.5032 70.6261C48.5611 67.7507 50.8397 65.0197 53.3207 62.4545C55.243 60.6144 57.0498 59.1464 59.8094 59.1643C62.8213 59.1844 65.4884 60.8438 67.3243 63.015C69.3032 65.3041 70.7137 67.9775 71.4534 70.8411C72.416 74.2015 73.1164 78.8041 71.2331 81.791C70.7309 82.5699 70.0498 83.234 69.2394 83.7352C68.429 84.2364 67.5096 84.562 66.5482 84.6883C63.5584 85.1113 61.6178 84.5407 60.1023 83.4698C58.4797 82.3229 57.7869 80.9925 57.2486 79.0973C57.111 78.6156 56.9351 78.1367 56.7899 77.6515C55.165 81.8727 54.4325 84.4712 53.8521 86.4983C53.8354 86.5555 53.7991 86.6059 53.7488 86.6419C53.6985 86.6779 53.637 86.6975 53.5738 86.6975H35.7668C35.7171 86.6964 35.6685 86.6833 35.6258 86.6595C35.583 86.6357 35.5474 86.6021 35.5224 86.5618C35.4974 86.5214 35.4838 86.4758 35.483 86.4292C35.4822 86.3826 35.4941 86.3365 35.5176 86.2954Z" fill="#2755A0"/>
<path d="M44.6696 65.5937H41.9421C41.8681 65.5901 41.7984 65.56 41.7474 65.5097C41.6964 65.4593 41.6679 65.3925 41.6679 65.3231C41.6679 65.2536 41.6964 65.1868 41.7474 65.1365C41.7984 65.0861 41.8681 65.0561 41.9421 65.0525H44.6696C44.7436 65.0561 44.8133 65.0861 44.8643 65.1365C44.9153 65.1868 44.9437 65.2536 44.9437 65.3231C44.9437 65.3925 44.9153 65.4593 44.8643 65.5097C44.8133 65.56 44.7436 65.5901 44.6696 65.5937Z" fill="#FF4848"/>
<path d="M52.8933 42.3668C53.2071 42.0399 53.6066 41.7955 54.0522 41.6579C54.4978 41.5204 54.974 41.4944 55.4337 41.5827C55.8933 41.6709 56.3203 41.8703 56.6723 42.161C57.0244 42.4517 57.2892 42.8236 57.4406 43.2399C57.5353 43.5372 57.5631 43.8497 57.5225 44.1576C57.4818 44.4655 57.3735 44.7621 57.2043 45.0288C57.0352 45.2954 56.8089 45.5263 56.5398 45.7069C56.2706 45.8874 55.9645 46.0137 55.6407 46.0777C55.1188 46.1615 54.5823 46.1074 54.0913 45.9214C53.6004 45.7354 53.1744 45.425 52.8612 45.0248C52.539 44.6461 52.3662 44.1748 52.3721 43.6904C52.3779 43.2061 52.5621 42.7386 52.8933 42.3668Z" fill="#FC9070"/>
<path d="M50.1798 37.4538C50.2853 36.1112 52.0057 35.656 53.298 36.2883C54.5278 37.0185 55.5095 38.063 56.1271 39.2988C56.433 39.8171 56.7779 40.3131 57.0883 40.8285C57.1131 40.8697 57.126 40.9163 57.1258 40.9636C57.1256 41.011 57.1123 41.0575 57.0872 41.0985C57.062 41.1396 57.0259 41.1738 56.9824 41.1978C56.9389 41.2219 56.8895 41.2349 56.839 41.2356C55.9979 41.1934 55.1568 41.1288 54.3234 41.0299C53.6672 40.9619 53.0254 40.8034 52.4186 40.5597C51.7669 40.298 51.2092 39.8659 50.8123 39.3152C50.4153 38.7645 50.1957 38.1183 50.1798 37.4538Z" fill="black"/>
<path d="M36.4631 25.9555L33.52 23.8201C33.466 23.7691 33.4358 23.7002 33.4358 23.6284C33.4358 23.5566 33.466 23.4877 33.52 23.4366C33.5748 23.3871 33.648 23.3595 33.7241 23.3595C33.8002 23.3595 33.8734 23.3871 33.9283 23.4366C33.9283 23.4366 37.0266 25.6716 37.1275 25.7577C37.3569 25.9863 37.1199 26.1576 36.9432 26.2859L33.9244 28.4736C33.8692 28.5225 33.7962 28.5497 33.7203 28.5497C33.6444 28.5497 33.5713 28.5225 33.5161 28.4736C33.4621 28.4228 33.4317 28.354 33.4317 28.2823C33.4317 28.2105 33.4621 28.1417 33.5161 28.0909C34.502 27.3788 35.4843 26.667 36.4631 25.9555Z" fill="black"/>
<path d="M36.4631 18.8988L33.52 16.7635C33.4659 16.7127 33.4355 16.6439 33.4355 16.5721C33.4355 16.5003 33.4659 16.4315 33.52 16.3807C33.5747 16.331 33.6479 16.3033 33.7241 16.3033C33.8003 16.3033 33.8735 16.331 33.9283 16.3807C34.8871 17.076 37.0266 18.6157 37.1275 18.701C37.3569 18.9297 37.1199 19.1017 36.9432 19.23L33.9244 21.417C33.8694 21.4662 33.7963 21.4936 33.7203 21.4936C33.6443 21.4936 33.5712 21.4662 33.5161 21.417C33.4621 21.3662 33.4317 21.2974 33.4317 21.2256C33.4317 21.1538 33.4621 21.085 33.5161 21.0342L36.4631 18.8988Z" fill="black"/>
<path d="M36.4631 11.6806L33.52 9.54525C33.4659 9.49445 33.4355 9.42562 33.4355 9.35386C33.4355 9.2821 33.4659 9.21327 33.52 9.16248C33.5748 9.11298 33.648 9.08533 33.7241 9.08533C33.8002 9.08533 33.8734 9.11298 33.9283 9.16248C34.8871 9.85778 37.0266 11.3975 37.1275 11.4835C37.3569 11.7114 37.1199 11.8835 36.9432 12.0118L33.9244 14.1995C33.8691 14.2486 33.7957 14.2759 33.7195 14.2759C33.6433 14.2759 33.57 14.2486 33.5146 14.1995C33.4877 14.1744 33.4664 14.1445 33.4519 14.1117C33.4373 14.0788 33.4298 14.0436 33.4298 14.0081C33.4298 13.9725 33.4373 13.9373 33.4519 13.9045C33.4664 13.8716 33.4877 13.8418 33.5146 13.8167L36.4631 11.6806Z" fill="black"/>
<path d="M7.00988 25.6215L10.0248 23.4338C10.0801 23.385 10.1531 23.3578 10.229 23.3578C10.3049 23.3578 10.378 23.385 10.4332 23.4338C10.4873 23.4848 10.5177 23.5537 10.5177 23.6256C10.5177 23.6975 10.4873 23.7664 10.4332 23.8173L7.4893 25.952L10.4332 28.0881C10.4872 28.1389 10.5176 28.2077 10.5176 28.2794C10.5176 28.3512 10.4872 28.42 10.4332 28.4708C10.3783 28.5203 10.3051 28.548 10.229 28.548C10.1529 28.548 10.0797 28.5203 10.0248 28.4708C10.0248 28.4708 6.92653 26.2358 6.82559 26.1498C6.59926 25.924 6.83324 25.7527 7.00988 25.6215Z" fill="black"/>
<path d="M9.74725 19.0942C9.51786 18.8655 9.7549 18.6935 9.93154 18.5659L12.9465 16.3782C13.0017 16.3293 13.0748 16.3021 13.1507 16.3021C13.2266 16.3021 13.2996 16.3293 13.3548 16.3782C13.4089 16.429 13.4393 16.4978 13.4393 16.5696C13.4393 16.6413 13.4089 16.7102 13.3548 16.761L10.4117 18.8963L13.3564 21.0338C13.4105 21.0847 13.4409 21.1537 13.4409 21.2256C13.4409 21.2975 13.4105 21.3664 13.3564 21.4173C13.3014 21.4667 13.2283 21.4942 13.1522 21.4942C13.0761 21.4942 13.003 21.4667 12.948 21.4173C11.9877 20.7192 9.84819 19.1802 9.74725 19.0942Z" fill="black"/>
<path d="M16.612 11.6804L19.5559 13.8158C19.6098 13.8668 19.6401 13.9357 19.6401 14.0075C19.6401 14.0793 19.6098 14.1482 19.5559 14.1993C19.5009 14.2486 19.4278 14.2761 19.3517 14.2761C19.2756 14.2761 19.2025 14.2486 19.1476 14.1993C18.1887 13.5032 16.0492 11.9643 15.9483 11.8782C15.7189 11.6496 15.956 11.4775 16.1326 11.3492L19.1476 9.16226C19.2027 9.11326 19.2758 9.08594 19.3517 9.08594C19.4277 9.08594 19.5008 9.11326 19.5559 9.16226C19.61 9.21306 19.6403 9.28189 19.6403 9.35365C19.6403 9.42541 19.61 9.49424 19.5559 9.54504L16.612 11.6804Z" fill="black"/>
<path d="M23.2829 9.39172C23.7703 9.22414 24.3021 9.20665 24.8009 9.34181C25.2997 9.47696 25.7395 9.75771 26.0565 10.1433C26.3734 10.5288 26.5509 10.999 26.5632 11.4856C26.5755 11.9722 26.422 12.4498 26.1249 12.849C25.8278 13.2482 25.4027 13.5482 24.9113 13.7054C24.4199 13.8625 23.8878 13.8687 23.3924 13.7229C22.897 13.5772 22.4641 13.2872 22.1566 12.895C21.8491 12.5028 21.683 12.0289 21.6825 11.5421C21.6816 11.0731 21.8348 10.6151 22.1211 10.2304C22.4074 9.84574 22.813 9.55293 23.2829 9.39172Z" fill="#CCEAFF"/>
<path d="M43.8183 1.68038C45.4028 2.54439 46.6718 3.83716 47.4587 5.38913C47.6208 5.70094 47.1223 5.97619 46.9602 5.66223C46.197 4.20701 45.0058 2.9868 43.527 2.14559C43.4646 2.10765 43.4203 2.04868 43.4032 1.98091C43.386 1.91314 43.3973 1.84179 43.4348 1.78165C43.4723 1.72152 43.5331 1.67722 43.6045 1.65796C43.6759 1.63871 43.7524 1.64596 43.8183 1.67823V1.68038Z" fill="black"/>
<path d="M44.2963 0.0316343C46.4347 0.968413 48.1404 2.59747 49.0997 4.61919C49.2527 4.9353 48.7511 5.21127 48.6012 4.89301C47.6875 2.95321 46.0545 1.38978 44.005 0.492541C43.6677 0.348463 43.9614 -0.118895 44.2963 0.0316343Z" fill="black"/>
<path d="M75.0309 64.3878C76.0179 67.519 76.3607 70.7976 76.041 74.0489C76.0089 74.393 75.4293 74.3966 75.4637 74.0489C75.7206 70.8463 75.3843 67.6262 74.4696 64.5312C74.4505 64.4622 74.4611 64.3889 74.4991 64.3273C74.5371 64.2656 74.5996 64.2204 74.6729 64.2016C74.7462 64.1827 74.8244 64.1917 74.8907 64.2265C74.957 64.2614 75.006 64.3193 75.0271 64.3878H75.0309Z" fill="black"/>
<path d="M76.8756 64.261C78.3177 67.6687 78.4576 70.5015 78.1143 74.0489C78.0814 74.393 77.5026 74.3966 77.537 74.0489C77.9553 69.7209 77.4682 67.1339 76.3182 64.405C76.1813 64.0803 76.7395 63.9398 76.8756 64.261Z" fill="black"/>
<path d="M43.8339 9.52066V37.8954C43.841 38.571 43.7023 39.241 43.4261 39.8651C43.15 40.4892 42.7421 41.0546 42.2271 41.5272C41.712 41.9998 41.1003 42.37 40.4288 42.6154C39.7572 42.8608 39.0397 42.9764 38.3193 42.9553C9.11849 42.9991 5.84965 43.0048 4.99784 42.8657C3.84712 42.6604 2.80294 42.0996 2.03194 41.2729C1.26094 40.4462 0.80756 39.4012 0.744156 38.3047C0.729626 38.0782 0.601166 34.6949 0.734978 10.0196C0.719555 9.38702 0.770775 8.7546 0.887905 8.1315C1.17643 7.09944 1.81963 6.18525 2.71803 5.53028C3.61643 4.8753 4.71999 4.51604 5.85806 4.50804H38.5227C39.2299 4.48496 39.9345 4.59908 40.5924 4.84327C41.2504 5.08745 41.8474 5.45643 42.346 5.92705C42.8447 6.39768 43.2342 6.95981 43.4903 7.5782C43.7463 8.19659 43.8633 8.8579 43.8339 9.52066ZM38.7108 5.04995H5.8573C4.70735 5.05927 3.60307 5.4731 2.76317 6.20949C1.92327 6.94587 1.409 7.95109 1.32222 9.02607C1.29852 9.38447 1.30005 38.152 1.34439 38.552C1.48189 39.6179 2.03144 40.5995 2.88903 41.3111C3.74661 42.0227 4.85271 42.4149 5.99799 42.4134H38.3599C38.9778 42.4368 39.5946 42.3458 40.175 42.1456C40.7554 41.9454 41.288 41.64 41.7425 41.2468C42.1969 40.8536 42.5643 40.3803 42.8235 39.8539C43.0828 39.3276 43.2289 38.7585 43.2536 38.1793C43.2581 38.0481 43.2536 37.9162 43.2536 37.785V9.48339C43.2754 8.91011 43.1741 8.33856 42.9557 7.80269C42.7373 7.26682 42.4063 6.77755 41.9823 6.36394C41.5582 5.95033 41.0499 5.62082 40.4874 5.39498C39.9249 5.16913 39.3197 5.05155 38.7078 5.04923L38.7108 5.04995Z" fill="black"/>
<path d="M27.3363 20.7107C27.24 20.7623 27.6109 20.8784 22.1987 20.7458C22.1489 20.7436 22.1004 20.7297 22.0578 20.7054C22.0151 20.681 21.9797 20.647 21.9548 20.6064C21.9299 20.5658 21.9163 20.5201 21.9152 20.4733C21.9142 20.4265 21.9257 20.3802 21.9487 20.3387C22.6476 19.1459 24.3458 16.4815 24.4491 16.316C24.4892 16.2541 24.5538 16.2097 24.6288 16.1925C24.7038 16.1753 24.783 16.1867 24.849 16.2242C24.9461 16.2787 24.7557 16.0092 27.4487 20.3387C27.4676 20.37 27.4796 20.4045 27.4841 20.4402C27.4887 20.4759 27.4856 20.512 27.4752 20.5466C27.4647 20.5812 27.4471 20.6135 27.4233 20.6417C27.3994 20.6698 27.3699 20.6933 27.3363 20.7107ZM24.6983 16.9905L22.7011 20.2046H26.6956L24.6983 16.9905Z" fill="black"/>
<path d="M20.8612 20.7108C20.7649 20.7624 21.1349 20.8785 15.7228 20.7459C15.6729 20.7438 15.6244 20.7299 15.5818 20.7055C15.5391 20.6812 15.5038 20.6471 15.4789 20.6065C15.454 20.5659 15.4405 20.5201 15.4396 20.4733C15.4386 20.4265 15.4503 20.3802 15.4735 20.3387C16.1724 19.146 17.8707 16.4816 17.9731 16.316C17.993 16.2853 18.0191 16.2586 18.05 16.2373C18.0809 16.2161 18.116 16.2008 18.1532 16.1922C18.1904 16.1837 18.229 16.1822 18.2669 16.1877C18.3048 16.1932 18.3411 16.2056 18.3738 16.2243C18.4816 16.2852 18.3081 16.0673 20.9736 20.3387C20.9923 20.3701 21.0043 20.4046 21.0087 20.4402C21.0132 20.4759 21.0102 20.5121 20.9997 20.5466C20.9893 20.5812 20.9717 20.6135 20.9479 20.6416C20.9241 20.6698 20.8947 20.6933 20.8612 20.7108ZM18.2224 16.9905L16.2252 20.2047H20.2197L18.2224 16.9905Z" fill="black"/>
<path d="M22.3681 23.7729H26.2372C26.3134 23.7741 26.3862 23.803 26.44 23.8536C26.4938 23.9042 26.5245 23.9725 26.5255 24.0439V27.6702C26.5245 27.7417 26.4938 27.8099 26.44 27.8605C26.3862 27.9111 26.3134 27.9401 26.2372 27.9412C21.8925 27.9698 22.3024 27.9706 22.1647 27.8602C22.0416 27.7369 22.05 27.9734 22.0791 24.0439C22.0801 23.9723 22.1109 23.9039 22.1649 23.8533C22.2188 23.8027 22.2918 23.7739 22.3681 23.7729ZM22.6572 27.3993H25.9451V24.317H22.6572V27.3993Z" fill="black"/>
<path d="M16.5486 23.7764L19.0482 27.7991C19.0671 27.8303 19.0792 27.8648 19.0838 27.9004C19.0885 27.936 19.0856 27.9722 19.0753 28.0067C19.0649 28.0413 19.0475 28.0736 19.0238 28.1018C19.0001 28.1301 18.9707 28.1536 18.9373 28.1711C18.8356 28.2249 19.1591 28.2063 13.7989 28.2063C13.7492 28.2038 13.7009 28.1897 13.6585 28.1652C13.6161 28.1408 13.5809 28.1067 13.5561 28.0663C13.5314 28.0258 13.5178 27.9801 13.5166 27.9335C13.5155 27.8868 13.5269 27.8406 13.5496 27.7991C13.5496 27.7991 15.9468 23.9413 16.05 23.7764C16.076 23.7362 16.1125 23.7029 16.1562 23.6799C16.1999 23.6568 16.2492 23.6447 16.2993 23.6447C16.3494 23.6447 16.3987 23.6568 16.4424 23.6799C16.486 23.7029 16.5226 23.7362 16.5486 23.7764ZM18.2965 27.6644L16.2993 24.4509L14.3013 27.6644H18.2965Z" fill="black"/>
<path d="M28.3791 23.6454L32.3024 27.3233C32.3525 27.3748 32.3795 27.4424 32.3778 27.5121C32.3761 27.5818 32.3458 27.6481 32.2932 27.6974C32.2406 27.7467 32.1698 27.7751 32.0955 27.7767C32.0212 27.7783 31.9491 27.753 31.8941 27.7061C30.5637 26.5018 29.2556 25.2759 27.97 24.0282C27.9173 23.977 27.8882 23.9085 27.8889 23.8374C27.8896 23.7663 27.92 23.6984 27.9737 23.6481C28.0274 23.5979 28.1 23.5695 28.1758 23.569C28.2516 23.5685 28.3246 23.5959 28.3791 23.6454Z" fill="black"/>
<path d="M31.8941 13.6215C30.5637 12.4172 29.2556 11.191 27.97 9.94282C27.9173 9.89169 27.8882 9.8232 27.8889 9.75211C27.8896 9.68102 27.92 9.61304 27.9737 9.56282C28.0274 9.5126 28.1 9.48417 28.1758 9.48365C28.2516 9.48313 28.3246 9.51057 28.3791 9.56005L32.3024 13.2387C32.3525 13.2902 32.3795 13.3578 32.3778 13.4275C32.3761 13.4972 32.3458 13.5635 32.2932 13.6128C32.2406 13.6621 32.1698 13.6905 32.0955 13.6921C32.0212 13.6937 31.9491 13.6684 31.8941 13.6215Z" fill="black"/>
<path d="M31.894 20.692C30.5641 19.4863 29.256 18.2601 27.9699 17.0133C27.9172 16.9622 27.8881 16.8937 27.8888 16.8226C27.8895 16.7515 27.9199 16.6835 27.9736 16.6333C28.0273 16.5831 28.0999 16.5547 28.1757 16.5541C28.2515 16.5536 28.3245 16.5811 28.379 16.6305C29.7079 17.8362 31.0157 19.0622 32.3023 20.3085C32.3551 20.3595 32.3844 20.428 32.3838 20.499C32.3833 20.5701 32.353 20.6382 32.2994 20.6885C32.2458 20.7388 32.1733 20.7674 32.0975 20.768C32.0216 20.7687 31.9486 20.7413 31.894 20.692Z" fill="black"/>
<path d="M39.43 13.9541C39.3569 13.9518 39.2875 13.9236 39.2357 13.8751C39.1839 13.8267 39.1536 13.7617 39.1509 13.6932V9.80737C39.1547 9.73802 39.1868 9.67268 39.2405 9.62485C39.2942 9.57702 39.3655 9.55035 39.4396 9.55035C39.5137 9.55035 39.5849 9.57702 39.6386 9.62485C39.6924 9.67268 39.7244 9.73802 39.7282 9.80737V13.6932C39.727 13.7287 39.7182 13.7636 39.7025 13.7959C39.6869 13.8282 39.6645 13.8573 39.6368 13.8816C39.6091 13.9058 39.5766 13.9247 39.5411 13.9371C39.5056 13.9496 39.4679 13.9553 39.43 13.9541Z" fill="black"/>
<path d="M39.43 21.1058C39.3568 21.1035 39.2872 21.0751 39.2354 21.0266C39.1836 20.978 39.1534 20.9128 39.1509 20.8441V16.9569C39.1547 16.8876 39.1868 16.8222 39.2405 16.7744C39.2942 16.7266 39.3655 16.6999 39.4396 16.6999C39.5137 16.6999 39.5849 16.7266 39.6386 16.7744C39.6924 16.8222 39.7244 16.8876 39.7282 16.9569V20.8427C39.7272 20.8784 39.7186 20.9135 39.703 20.946C39.6874 20.9785 39.6651 21.0079 39.6374 21.0323C39.6097 21.0567 39.5771 21.0758 39.5415 21.0884C39.5059 21.101 39.4681 21.1069 39.43 21.1058Z" fill="black"/>
<path d="M39.4285 28.1762C39.3557 28.1736 39.2866 28.1452 39.2351 28.0968C39.1837 28.0484 39.1536 27.9836 39.1509 27.9153V24.0288C39.1547 23.9595 39.1868 23.8941 39.2405 23.8463C39.2942 23.7985 39.3655 23.7718 39.4396 23.7718C39.5137 23.7718 39.5849 23.7985 39.6386 23.8463C39.6924 23.8941 39.7244 23.9595 39.7282 24.0288V27.9153C39.7269 27.9509 39.718 27.9859 39.7022 28.0183C39.6864 28.0507 39.6639 28.0798 39.6361 28.104C39.6082 28.1283 39.5756 28.1471 39.54 28.1595C39.5043 28.1719 39.4665 28.1776 39.4285 28.1762Z" fill="black"/>
<path d="M39.43 35.2226C39.3569 35.2201 39.2874 35.1917 39.2356 35.1432C39.1839 35.0946 39.1536 35.0295 39.1509 34.9609V31.0751C39.1547 31.0058 39.1868 30.9404 39.2405 30.8926C39.2942 30.8448 39.3655 30.8181 39.4396 30.8181C39.5137 30.8181 39.5849 30.8448 39.6386 30.8926C39.6924 30.9404 39.7244 31.0058 39.7282 31.0751V34.9609C39.7256 35.0327 39.6928 35.1005 39.6369 35.1496C39.581 35.1986 39.5066 35.2249 39.43 35.2226Z" fill="black"/>
<path d="M26.1625 68.6248C26.9715 68.7094 44.4374 70.4326 46.5019 70.6261C47.7941 68.89 48.9403 67.4005 50.3305 65.7246C47.5276 66.9337 44.4229 67.3934 41.3589 67.0529C38.3158 66.7055 35.4752 65.4418 33.2637 63.4516C33.2637 63.4516 18.9527 63.4516 18.7707 63.4516C17.0691 63.4409 15.3937 63.0585 13.8773 62.3347C12.361 61.6109 11.0456 60.5657 10.0355 59.282C9.32893 58.3236 10.1639 59.292 3.35557 48.7191C3.05941 48.2671 2.89745 47.7491 2.88643 47.2187C2.87541 46.6884 3.01575 46.1649 3.29291 45.7024C3.57007 45.2399 3.97399 44.8552 4.46291 44.5881C4.95184 44.321 5.50799 44.1812 6.07386 44.1832H37.4509C38.6538 44.1407 39.8568 44.265 41.021 44.5523C43.8807 45.3587 45.6509 47.0468 47.0555 49.5313L47.5808 50.3714L47.5854 50.3886C47.6458 50.4681 47.645 50.4746 48.8952 52.473C50.3945 51.1171 52.077 49.9514 53.8998 49.0058C54.6703 48.6218 55.5293 48.4202 56.402 48.4185C57.2747 48.4169 58.1345 48.6153 58.9067 48.9965C63.8332 51.41 69.6001 57.9129 71.7595 67.6543C72.2776 70.4066 72.4954 73.2013 72.4094 75.995C72.591 77.9937 72.1822 80.0007 71.2281 81.7961C70.7269 82.5758 70.0461 83.2407 69.2355 83.742C68.4249 84.2433 67.505 84.5684 66.5431 84.6934C65.3197 84.8805 65.5384 84.8296 54.3242 84.8296C54.1575 85.3866 54.0084 85.9471 53.8493 86.5055C53.8322 86.5627 53.7957 86.613 53.7454 86.6489C53.695 86.6849 53.6335 86.7045 53.5702 86.7048H35.7648C35.7143 86.7039 35.6649 86.6908 35.6214 86.6666C35.578 86.6425 35.5419 86.6082 35.5168 86.5671C35.4917 86.526 35.4783 86.4795 35.4781 86.4322C35.4779 86.3848 35.4908 86.3382 35.5156 86.2969C35.8642 85.8124 36.2037 85.3199 36.5417 84.8296H26.1625C26.0863 84.8287 26.0136 84.7999 25.9597 84.7495C25.9059 84.699 25.8752 84.6308 25.8742 84.5594V68.8972C25.87 68.8607 25.8746 68.8237 25.8876 68.789C25.9006 68.7544 25.9216 68.7228 25.9492 68.6967C25.9768 68.6706 26.0103 68.6507 26.0472 68.6382C26.0841 68.6258 26.1235 68.6212 26.1625 68.6248ZM34.8564 64.015C39.1262 67.0514 45.413 67.6256 51.154 64.7533C51.7657 64.048 52.4049 63.3627 53.074 62.7062C51.1624 59.9106 49.6667 57.052 47.3866 54.5575C46.6877 55.2026 46.0056 55.8771 45.2716 56.4929C44.9205 56.8419 44.4772 57.0975 43.9866 57.2339C43.496 57.3702 42.9756 57.3824 42.4784 57.2692C41.3862 56.8421 40.4959 56.0589 39.9719 55.0643C38.6528 53.0195 37.0709 51.1343 35.2617 49.451C34.417 48.6275 33.4688 47.9033 32.4379 47.2941C30.6494 46.2548 28.1108 46.1644 26.7688 47.7206C26.6159 47.9013 26.4897 48.1027 26.3361 48.2855C26.0692 48.6976 25.7916 48.7155 25.3374 48.8912C24.9306 49.0453 24.5307 49.2159 24.1301 49.3829C23.7866 49.5215 23.4602 49.6948 23.1567 49.8997C22.571 50.3835 21.5915 51.2753 22.1015 52.0809C22.6367 52.9218 23.8754 52.6243 24.6248 52.2867C24.8978 52.1641 25.2495 52.506 24.975 52.7117C24.3364 53.1861 23.813 53.7826 23.4396 54.4615C23.0909 55.0994 22.7231 56.0026 23.175 56.6728C23.2614 56.8174 23.3915 56.9348 23.549 57.0102C23.7064 57.0856 23.8841 57.1156 24.0597 57.0964C24.4684 57.0041 24.8522 56.8332 25.1868 56.5947C25.89 56.1711 26.5107 55.6377 27.0219 55.0177C27.0482 54.9778 27.0848 54.9449 27.1285 54.9221C27.1721 54.8992 27.2212 54.8873 27.2712 54.8873C27.3212 54.8873 27.3703 54.8992 27.4139 54.9221C27.4576 54.9449 27.4942 54.9778 27.5205 55.0177C29.5712 58.2483 31.6082 61.7048 34.8564 64.015ZM8.43583 55.7789C8.50006 55.8628 8.53294 55.9223 9.63249 57.6821C10.5265 59.2703 11.8687 60.5978 13.5128 61.5196C15.1568 62.4414 17.0394 62.922 18.955 62.909H32.6726C30.5435 60.702 28.7146 58.256 27.2276 55.627C26.8271 56.0674 26.374 56.4633 25.8773 56.8068C25.3011 57.3095 24.5524 57.6026 23.7661 57.6333C23.426 57.5788 23.1135 57.4238 22.8741 57.1908C22.6347 56.9579 22.4811 56.6594 22.4356 56.3388C22.3477 55.589 22.5264 54.833 22.9441 54.1884C23.1496 53.8143 23.3991 53.463 23.6881 53.1411C21.9294 53.4113 20.8513 51.9412 21.6305 50.7799C21.6305 50.7799 5.72594 50.7835 5.31533 50.7799L8.44653 55.7847L8.43583 55.7789ZM45.9422 48.8216C45.1654 47.5744 44.0537 46.5396 42.7176 45.8205C41.3815 45.1014 39.8678 44.723 38.3271 44.7229C38.1819 44.7229 6.32466 44.7014 5.72748 44.7387C5.1 44.8164 4.5238 45.1045 4.10555 45.5498C3.68731 45.9952 3.45537 46.5675 3.45267 47.1608C3.45267 48.0604 4.10262 48.8403 4.56828 49.585L4.97507 50.2359H22.0097C22.2328 49.9756 22.48 49.7343 22.7484 49.5148C23.3663 49.0918 24.0486 48.7584 24.7724 48.5256C25.0537 48.4145 25.6899 48.1744 25.6899 48.1744C26.0346 47.6995 26.4299 47.2588 26.8698 46.859C27.4856 46.4315 28.2016 46.1485 28.9581 46.0336C29.7145 45.9188 30.4892 45.9754 31.2175 46.1988C32.3497 46.5557 33.3936 47.1227 34.2868 47.8661C35.2024 48.5985 36.062 49.3904 36.859 50.2359C36.859 50.2359 46.4132 50.2158 46.8185 50.2194L45.9422 48.8216ZM47.1656 50.7778H37.3499C38.4567 51.971 39.4572 53.2474 40.3412 54.5941C40.6507 55.0905 41.0091 55.5587 41.4117 55.9926C41.8392 56.452 42.4308 56.7494 43.0755 56.8291C43.6786 56.8241 44.2591 56.6131 44.7081 56.2356C45.5492 55.5632 47.0509 54.0514 47.2788 53.9196C47.2583 53.9297 47.2391 53.942 47.2214 53.9561C47.2727 53.8844 48.3844 52.9124 48.4624 52.8451C48.0457 52.1849 47.4699 51.2631 47.1664 50.7814L47.1656 50.7778ZM56.2327 48.9542C55.5896 48.959 54.9568 49.1064 54.3861 49.3843C53.6442 49.7154 52.9371 50.1111 52.2742 50.5663C50.696 51.6555 49.2088 52.8561 47.8255 54.1575C50.1661 56.7043 51.8223 59.7787 53.5121 62.2775C55.0337 60.8353 56.6372 59.5235 58.7728 59.2454L59.0068 59.0891C60.4414 58.1012 61.4168 56.6349 61.732 54.9926C62.138 52.4221 59.1154 48.9643 56.2335 48.9542H56.2327ZM69.6139 62.6381C67.895 57.9532 64.8 53.8185 60.6852 50.7097C61.717 51.7713 62.308 53.1448 62.3506 54.5804C62.2689 55.4634 62.0023 56.3227 61.566 57.109C61.1297 57.8953 60.5324 58.5933 59.8082 59.163C62.9241 59.2038 65.6385 60.9679 67.3223 63.0129C69.5233 65.6064 71.036 68.6528 71.7358 71.9013C71.5582 68.7275 70.8422 65.6006 69.6147 62.6381H69.6139ZM61.6051 84.2856C60.2403 83.7487 59.0885 82.8257 58.3102 81.6456C57.8304 80.8477 57.4701 79.9917 57.2397 79.1016C57.1021 78.6199 56.9262 78.1411 56.781 77.6566C55.9381 79.8418 55.173 82.0527 54.487 84.2856H61.6051ZM36.3016 86.16C36.3016 86.16 53.1803 86.1507 53.3531 86.1536C54.2492 82.9398 55.3182 79.7705 56.5561 76.658C56.6464 76.4308 57.0516 76.3713 57.1136 76.658C57.2405 77.253 57.4508 77.8408 57.6297 78.4235C57.8482 79.3092 58.1639 80.1714 58.5717 80.9962C59.1599 82.035 60.0503 82.8962 61.1395 83.4798C62.2287 84.0635 63.4722 84.3456 64.7256 84.2935C69.0198 84.2849 71.5408 82.181 71.8061 77.6988C71.8557 74.1992 71.1043 70.7303 69.6024 67.5259C68.5034 65.1622 66.8414 63.066 64.7439 61.398C62.7299 59.9006 59.7172 59.1465 57.2229 60.2454C56.3842 60.6397 55.6114 61.1468 54.929 61.7507C48.9946 67.0048 42.5908 77.2559 36.3024 86.1614L36.3016 86.16ZM26.4599 84.2856H36.9202C41.2893 77.9404 43.0518 75.3062 46.1188 71.1358C44.9336 71.0254 26.4515 69.1954 26.4515 69.1954C26.4515 86.431 26.4484 83.5716 26.4607 84.287L26.4599 84.2856Z" fill="black"/>
<path d="M22.4371 84.6797C22.2842 84.145 17.9257 68.6355 17.9257 68.6233C17.8554 68.3753 18.2117 68.1488 18.4082 68.3602C21.3252 71.4885 23.2344 75.329 23.9136 79.4349C24.2011 81.2749 24.1835 83.2605 22.9196 84.7966C22.8838 84.8296 22.8396 84.8534 22.7911 84.8656C22.7426 84.8778 22.6916 84.878 22.6431 84.8662C22.5945 84.8545 22.55 84.8311 22.5139 84.7984C22.4778 84.7657 22.4513 84.7249 22.4371 84.6797ZM23.36 79.5811C22.7783 75.9733 21.2154 72.5666 18.8219 69.6892C18.8219 69.6892 22.8248 83.9257 22.8332 83.9536C23.5146 82.5895 23.6996 81.0534 23.36 79.5811Z" fill="black"/>
<path d="M51.8248 90.1097C51.8901 90.1291 51.9459 90.1694 51.9825 90.2235C52.0192 90.2777 52.0343 90.3422 52.0251 90.4058C52.016 90.4693 51.9832 90.5278 51.9326 90.571C51.882 90.6141 51.8167 90.6391 51.7484 90.6416L32.1338 91C32.0774 90.9986 32.0225 90.9819 31.976 90.9519C31.9294 90.9219 31.8931 90.8799 31.8715 90.831C31.8499 90.7821 31.8439 90.7283 31.8542 90.6762C31.8646 90.6242 31.8908 90.576 31.9297 90.5377C36.792 86.7522 45.9792 87.9063 51.8248 90.1097ZM50.2191 90.1284C45.1725 88.4991 37.4496 87.6367 33.0246 90.4445L50.2191 90.1284Z" fill="black"/>
<path d="M27.1273 47.8598C28.0811 47.4236 29.1579 47.2826 30.2027 47.457C30.569 47.5136 30.4137 48.0354 30.0498 47.9788C29.1046 47.8395 28.1367 47.9803 27.281 48.3816C26.9339 48.5085 26.7832 47.986 27.1273 47.8598Z" fill="black"/>
<path d="M25.408 52.352C25.373 52.2915 25.3639 52.2207 25.3825 52.1542C25.4011 52.0876 25.4461 52.0302 25.5082 51.9935C26.1848 51.6173 26.9205 51.3434 27.6882 51.1821C28.0506 51.1104 28.2058 51.6301 27.8411 51.7047C27.1243 51.8604 26.4363 52.1153 25.7995 52.4609C25.7662 52.478 25.7296 52.4888 25.6919 52.4925C25.6541 52.4963 25.6159 52.493 25.5795 52.4829C25.5431 52.4728 25.5092 52.456 25.4798 52.4335C25.4504 52.411 25.426 52.3833 25.408 52.352Z" fill="black"/>
<path d="M41.9414 65.0522H44.6688C44.7428 65.0558 44.8125 65.0859 44.8635 65.1362C44.9146 65.1866 44.943 65.2534 44.943 65.3228C44.943 65.3923 44.9146 65.4591 44.8635 65.5094C44.8125 65.5598 44.7428 65.5899 44.6688 65.5934H41.9414C41.8674 65.5899 41.7977 65.5598 41.7467 65.5094C41.6956 65.4591 41.6672 65.3923 41.6672 65.3228C41.6672 65.2534 41.6956 65.1866 41.7467 65.1362C41.7977 65.0859 41.8674 65.0558 41.9414 65.0522Z" fill="black"/>
<path d="M55.7998 46.0398C55.2576 46.1628 54.6887 46.1319 54.1652 45.9512C53.6418 45.7705 53.1874 45.4481 52.8598 45.0248C52.5376 44.6461 52.3648 44.1748 52.3707 43.6905C52.3765 43.2062 52.5606 42.7386 52.8919 42.3669C53.1269 42.1192 53.4119 41.9176 53.7305 41.7738C54.049 41.63 54.3948 41.5468 54.7479 41.529C55.101 41.5112 55.4543 41.5592 55.7875 41.6701C56.1207 41.7811 56.4271 41.9529 56.6891 42.1755C57.0222 42.4365 57.2729 42.778 57.414 43.1629C57.5551 43.5478 57.5813 43.9616 57.4898 44.3595C57.3982 44.7574 57.1924 45.1242 56.8945 45.4204C56.5967 45.7165 56.2181 45.9307 55.7998 46.0398ZM56.9391 43.589C56.8622 43.2644 56.6986 42.9634 56.4637 42.7142C56.2288 42.465 55.9302 42.2757 55.596 42.1642C55.2618 42.0527 54.9028 42.0225 54.5528 42.0765C54.2028 42.1305 53.8731 42.2669 53.5946 42.473C53.2747 42.7021 53.0551 43.0329 52.977 43.4031C52.8988 43.7733 52.9675 44.1575 53.1702 44.4836C53.391 44.8648 53.732 45.1727 54.1466 45.3651C54.5612 45.5576 55.0291 45.6253 55.4863 45.5588C55.7198 45.5192 55.9427 45.4368 56.1422 45.3163C56.3417 45.1958 56.5138 45.0395 56.6488 44.8566C56.7837 44.6736 56.8789 44.4674 56.9287 44.2499C56.9785 44.0324 56.9821 43.8078 56.9391 43.589Z" fill="black"/>
<path d="M56.8384 41.2364C55.9973 41.1941 55.1562 41.1417 54.3227 41.0306C53.6666 40.9626 53.0248 40.8042 52.418 40.5604C51.7681 40.2959 51.212 39.8631 50.8151 39.3129C50.4182 38.7627 50.1968 38.1178 50.1769 37.4538C50.2816 36.1083 51.9937 35.651 53.2951 36.2883C54.5251 37.0183 55.5068 38.0629 56.1242 39.2988C56.4301 39.8164 56.7749 40.3131 57.0854 40.8285C57.1103 40.8696 57.1234 40.9161 57.1234 40.9633C57.1234 41.0106 57.1103 41.057 57.0854 41.0982C57.0605 41.1393 57.0247 41.1736 56.9814 41.1978C56.9381 41.2221 56.8888 41.2353 56.8384 41.2364ZM52.4524 36.5771C52.2232 36.5272 51.9852 36.5237 51.7544 36.567C51.5237 36.6102 51.3054 36.6992 51.1143 36.828C50.498 37.2352 50.732 38.1183 51.1143 38.739C51.4522 39.2493 51.9174 39.6749 52.4698 39.9791C53.0222 40.2833 53.6453 40.457 54.2853 40.4852C54.9584 40.5697 55.6345 40.6314 56.3123 40.6701C55.3328 39.1261 54.2776 36.975 52.4524 36.5743V36.5771Z" fill="black"/>
<path d="M36.9429 26.2861L33.9241 28.4738C33.8689 28.5227 33.7959 28.5499 33.72 28.5499C33.6441 28.5499 33.571 28.5227 33.5158 28.4738C33.4617 28.423 33.4314 28.3542 33.4314 28.2824C33.4314 28.2107 33.4617 28.1418 33.5158 28.091C33.5839 28.0416 35.5467 26.618 36.4589 25.955L33.5158 23.8203C33.4617 23.7694 33.4313 23.7005 33.4313 23.6286C33.4313 23.5567 33.4617 23.4877 33.5158 23.4368C33.5707 23.3873 33.6438 23.3597 33.72 23.3597C33.7961 23.3597 33.8693 23.3873 33.9241 23.4368C33.9241 23.4368 37.0225 25.6718 37.1234 25.7578C37.3528 25.9865 37.1196 26.1585 36.9429 26.2861Z" fill="black"/>
<path d="M36.9425 19.2297L33.9237 21.4167C33.8686 21.4658 33.7955 21.4933 33.7195 21.4933C33.6435 21.4933 33.5704 21.4658 33.5153 21.4167C33.4613 21.3659 33.4309 21.2971 33.4309 21.2253C33.4309 21.1535 33.4613 21.0847 33.5153 21.0339L36.4623 18.8985L33.5192 16.7632C33.4651 16.7124 33.4347 16.6436 33.4347 16.5718C33.4347 16.5 33.4651 16.4312 33.5192 16.3804C33.5739 16.3307 33.6471 16.303 33.7233 16.303C33.7995 16.303 33.8727 16.3307 33.9275 16.3804C34.8863 17.0757 37.0258 18.6154 37.1267 18.7007C37.3523 18.9294 37.1191 19.0985 36.9425 19.2297Z" fill="black"/>
<path d="M36.9425 12.0115L33.9237 14.1985C33.8686 14.2477 33.7955 14.2751 33.7195 14.2751C33.6435 14.2751 33.5704 14.2477 33.5153 14.1985C33.4613 14.1477 33.4309 14.0789 33.4309 14.0071C33.4309 13.9354 33.4613 13.8665 33.5153 13.8157L36.4623 11.6804L33.5192 9.54501C33.4651 9.49421 33.4347 9.42538 33.4347 9.35362C33.4347 9.28186 33.4651 9.21303 33.5192 9.16223C33.574 9.11273 33.6472 9.08508 33.7233 9.08508C33.7995 9.08508 33.8726 9.11273 33.9275 9.16223C34.8863 9.85753 37.0258 11.3972 37.1267 11.4832C37.3523 11.7112 37.1191 11.8832 36.9425 12.0115Z" fill="black"/>
<path d="M10.4316 23.4367C10.4857 23.4876 10.5161 23.5566 10.5161 23.6285C10.5161 23.7003 10.4857 23.7693 10.4316 23.8202L7.48775 25.9548L10.4316 28.0902C10.4855 28.1412 10.5158 28.2101 10.5158 28.282C10.5158 28.3538 10.4855 28.4227 10.4316 28.4737C10.3767 28.523 10.3035 28.5506 10.2275 28.5506C10.1514 28.5506 10.0782 28.523 10.0233 28.4737C10.0233 28.4737 6.92497 26.2387 6.82404 26.1527C6.59465 25.924 6.83092 25.7527 7.00832 25.6244L10.0233 23.4367C10.0785 23.3879 10.1515 23.3607 10.2275 23.3607C10.3034 23.3607 10.3764 23.3879 10.4316 23.4367Z" fill="black"/>
<path d="M10.4105 18.8965L13.3551 21.0341C13.4092 21.085 13.4396 21.1539 13.4396 21.2258C13.4396 21.2977 13.4092 21.3666 13.3551 21.4176C13.3001 21.4669 13.227 21.4944 13.1509 21.4944C13.0748 21.4944 13.0017 21.4669 12.9468 21.4176C11.9879 20.7215 9.84845 19.1825 9.74751 19.0965C9.51812 18.8679 9.75516 18.6958 9.93179 18.5682L12.9468 16.3806C13.002 16.3317 13.075 16.3045 13.1509 16.3045C13.2268 16.3045 13.2999 16.3317 13.3551 16.3806C13.382 16.4056 13.4034 16.4354 13.418 16.4683C13.4326 16.5011 13.4402 16.5364 13.4402 16.5719C13.4402 16.6075 13.4326 16.6428 13.418 16.6756C13.4034 16.7085 13.382 16.7383 13.3551 16.7633L10.4105 18.8965Z" fill="black"/>
<path d="M16.6113 11.6804L19.5551 13.8157C19.6092 13.8665 19.6396 13.9354 19.6396 14.0071C19.6396 14.0789 19.6092 14.1477 19.5551 14.1985C19.5005 14.2483 19.4272 14.2762 19.351 14.2762C19.2747 14.2762 19.2015 14.2483 19.1468 14.1985C18.1879 13.5032 16.0485 11.9642 15.9475 11.8782C15.7182 11.6495 15.9552 11.4775 16.1311 11.3492L19.1468 9.16224C19.202 9.11339 19.275 9.08618 19.351 9.08618C19.4269 9.08618 19.4999 9.11339 19.5551 9.16224C19.6092 9.21303 19.6396 9.28186 19.6396 9.35362C19.6396 9.42538 19.6092 9.49421 19.5551 9.54501L16.6113 11.6804Z" fill="black"/>
<path d="M24.9633 13.6883C24.51 13.8437 24.0176 13.8697 23.5485 13.763C23.0794 13.6562 22.6546 13.4215 22.3277 13.0885C22.0009 12.7555 21.7867 12.3391 21.7122 11.892C21.6377 11.4449 21.7063 10.9871 21.9093 10.5765C22.1122 10.1659 22.4405 9.82093 22.8525 9.58518C23.2646 9.34943 23.742 9.23347 24.2243 9.25197C24.7066 9.27048 25.1723 9.4226 25.5624 9.68912C25.9525 9.95564 26.2496 10.3246 26.4161 10.7493C26.5267 11.0317 26.5769 11.3318 26.5637 11.6323C26.5505 11.9329 26.4743 12.2281 26.3394 12.501C26.2045 12.774 26.0135 13.0193 25.7774 13.223C25.5412 13.4267 25.2646 13.5848 24.9633 13.6883ZM24.7538 9.89349C24.472 9.79901 24.1701 9.76944 23.8736 9.80728C23.577 9.84511 23.2945 9.94923 23.0499 10.1109C22.8053 10.2725 22.6057 10.4869 22.468 10.736C22.3304 10.9851 22.2586 11.2616 22.2588 11.5421C22.2614 11.9023 22.3811 12.253 22.6021 12.5476C22.823 12.8422 23.1346 13.0666 23.4952 13.1908C23.9606 13.3455 24.4724 13.321 24.9185 13.1226C25.3646 12.9242 25.7087 12.5681 25.8752 12.1323C26.0418 11.6966 26.0173 11.2167 25.8071 10.7978C25.5968 10.379 25.2181 10.0553 24.7538 9.89778V9.89349Z" fill="black"/>
<path d="M47.458 5.38827C47.6201 5.7008 47.1215 5.97534 46.9594 5.66209C46.2032 4.20246 45.0103 2.98059 43.5262 2.14544C43.4614 2.1071 43.4156 2.04624 43.3987 1.97622C43.3817 1.9062 43.3952 1.83274 43.436 1.77199C43.4745 1.71322 43.5358 1.67065 43.607 1.65316C43.6782 1.63567 43.7539 1.6446 43.8183 1.67809C45.4018 2.54368 46.6702 3.83665 47.458 5.38827Z" fill="black"/>
<path d="M48.6 4.89589C47.6784 2.96136 46.0481 1.40026 44.0045 0.495424C43.6673 0.352063 43.9609 -0.118878 44.2958 0.0280668C46.4326 0.968711 48.1375 2.59819 49.0993 4.6192C49.2484 4.93818 48.7506 5.21415 48.6 4.89589Z" fill="black"/>
<path d="M74.6861 64.2051C74.7573 64.1891 74.8323 64.1991 74.8959 64.2331C74.9595 64.267 75.007 64.3224 75.0287 64.3879C75.9974 67.5225 76.3401 70.7978 76.0395 74.049C76.0074 74.3931 75.4278 74.3967 75.4622 74.049C75.751 70.8464 75.4142 67.6213 74.4682 64.532C74.4592 64.4971 74.4576 64.4609 74.4638 64.4254C74.4699 64.39 74.4835 64.356 74.5038 64.3256C74.5241 64.2951 74.5507 64.2688 74.582 64.2481C74.6133 64.2274 74.6487 64.2128 74.6861 64.2051Z" fill="black"/>
<path d="M76.8737 64.2608C78.3265 67.6635 78.4496 70.5837 78.1131 74.0488C78.0803 74.3928 77.5014 74.3957 77.5358 74.0488C77.8799 70.497 77.7002 67.71 76.317 64.4049C76.1809 64.0801 76.7391 63.9397 76.8737 64.2608Z" fill="black"/>
</svg>
