<svg width="77" height="88" viewBox="0 0 77 88" fill="none" xmlns="http://www.w3.org/2000/svg">
<path d="M19.1578 5.4131C19.2779 3.71973 19.3983 2.0266 19.519 0.333719C19.5444 -0.0268525 19.8775 -0.0312319 19.8516 0.333719L19.4901 5.4131C19.4646 5.77367 19.1319 5.77805 19.1578 5.4131Z" fill="black"/>
<path d="M8.83714 8.77075L7.62852 3.7702C7.54652 3.43152 7.86811 3.28335 7.94925 3.61838L9.15788 8.61893C9.23987 8.9576 8.91828 9.10577 8.83714 8.77075Z" fill="black"/>
<path d="M6.87069 11.6336L4.3808 7.73304C4.22234 7.48487 4.45812 7.08197 4.61615 7.3294L7.10604 11.2307C7.2645 11.4782 7.02873 11.8811 6.87069 11.6336Z" fill="black"/>
<path d="M2.56874 41.2532L0.282341 43.0429C0.089046 43.1947 -0.0800312 42.702 0.112414 42.5495L2.39882 40.7598C2.59423 40.608 2.76331 41.1006 2.56874 41.2532Z" fill="black"/>
<path d="M8.39657 59.3726C8.52905 59.3401 8.66342 59.3372 8.79634 59.3638C9.26152 59.4368 25.4494 61.2681 26.2621 61.3616C26.3987 62.4645 26.7795 63.433 27.3242 64.0622C27.8229 64.6532 28.3765 65.0938 28.9614 65.3651C24.5857 64.9439 23.0096 64.5352 21.612 65.7001L8.43056 62.6097C8.20795 62.5504 8.00466 62.358 7.85654 62.0664C7.70842 61.7748 7.62496 61.4027 7.6209 61.0157C7.61684 60.6287 7.69243 60.2517 7.83433 59.9511C7.97624 59.6505 8.17535 59.4456 8.39657 59.3726Z" fill="#2755A0"/>
<path d="M56.9333 11.4954C58.1457 8.33417 60.3463 7.18896 62.4433 7.70719C64.2475 8.15024 65.7433 10.5261 65.3775 13.6449C65.2529 14.3427 65.1825 15.0657 65.1681 15.7952C65.177 16.0904 65.2402 16.3731 65.3485 16.6028C65.4568 16.8324 65.6047 16.9971 65.7709 17.0733C66.5589 17.4105 66.9213 16.9528 67.8801 17.3251C68.3011 17.5578 68.6603 18.0397 68.8937 18.6849C69.1271 19.3302 69.2195 20.0968 69.1546 20.8483C69.0369 21.7804 68.7544 22.3694 68.9422 22.814C69.0012 22.9179 69.0726 22.9986 69.1516 23.0507C69.2305 23.1027 69.315 23.1248 69.3993 23.1154C69.876 23.1548 70.353 23.0154 70.8314 23.0337C71.6657 23.065 72.4997 23.7001 72.7486 25.0861C72.7974 25.5596 72.7866 26.0456 72.7171 26.5114C72.6475 26.9772 72.5208 27.412 72.3455 27.7868C73.1267 27.6897 73.9415 27.7481 74.5609 28.6787C74.8574 29.1195 75.0429 29.7406 75.0784 30.4115C75.081 30.7432 75.0455 31.0726 74.9739 31.3807C74.9023 31.6888 74.796 31.9696 74.6612 32.207C74.3727 32.7102 74.0358 33.124 73.6654 33.4304C73.4009 33.6565 73.1298 33.859 72.8531 34.0369C71.502 31.2811 69.8257 29.0498 67.935 27.4906C66.0443 25.9315 63.9825 25.08 61.8859 24.9927C61.7266 24.9686 61.6998 24.9978 61.6102 24.9876C59.6496 24.9599 58.6458 24.8175 56.9906 25.2598C56.5202 23.4147 56.1939 21.4706 56.0204 19.4783C55.7595 16.7154 56.0834 13.8833 56.9333 11.4954ZM58.6326 16.5696C58.7118 17.3138 58.9272 17.995 59.2475 18.5141C59.5677 19.0332 59.9761 19.3631 60.413 19.4557C61.343 19.6637 62.4046 18.7418 62.6251 17.0988C62.7619 16.3144 62.7525 15.476 62.5984 14.7011C62.4442 13.9262 62.1529 13.2535 61.7652 12.7771C61.411 12.4085 61.0029 12.2216 60.5889 12.2384C60.1749 12.2553 59.7724 12.4751 59.4287 12.872C59.1032 13.2915 58.855 13.8636 58.7141 14.5195C58.5732 15.1754 58.5455 15.8873 58.6343 16.5696H58.6326Z" fill="black"/>
<path d="M59.4313 12.872C59.775 12.4751 60.1776 12.2553 60.5915 12.2385C61.0055 12.2217 61.4137 12.4085 61.7679 12.7771C62.1555 13.2536 62.4468 13.9263 62.601 14.7012C62.7552 15.4761 62.7645 16.3144 62.6277 17.0989C62.4072 18.7419 61.3456 19.6637 60.4156 19.4557C59.9787 19.3631 59.5703 19.0332 59.2501 18.5141C58.9298 17.995 58.7144 17.3138 58.6352 16.5697C58.5466 15.8871 58.5745 15.175 58.7158 14.519C58.857 13.8631 59.1055 13.2912 59.4313 12.872Z" fill="#FC9070"/>
<path d="M46.6389 37.007C47.8327 33.7762 49.4261 31.0369 51.3057 28.9836C53.1853 26.9304 55.3051 25.6137 57.5144 25.1271C57.6644 25.0965 58.3127 24.9855 58.3641 25.0045C58.3401 25.0079 58.3169 25.0203 58.2961 25.0408C58.2752 25.0613 58.2573 25.0895 58.2435 25.1233C58.2297 25.1571 58.2204 25.1957 58.2163 25.2363C58.2122 25.277 58.2133 25.3187 58.2196 25.3585C58.3229 25.9159 58.5236 26.4051 58.7944 26.7595C59.0653 27.114 59.3931 27.3165 59.7333 27.3395C60.1348 27.321 60.5279 27.1367 60.8793 26.8022C61.2306 26.4677 61.53 25.9928 61.752 25.4176C61.7655 25.3776 61.773 25.3325 61.774 25.2863C61.775 25.2401 61.7695 25.1942 61.7579 25.1525C61.7462 25.1108 61.7289 25.0747 61.7073 25.0471C61.6857 25.0195 61.6605 25.0014 61.6339 24.9943C61.7172 24.9812 61.8009 24.9812 61.8841 24.9943C70.178 25.2446 76.9705 37.734 76.973 53.3984V70.8817C76.972 70.9569 76.9542 71.0285 76.9233 71.0817C76.8924 71.1348 76.8507 71.1654 76.8069 71.1671C72.2188 71.2839 58.1415 71.6109 58.0968 71.6189C58.0544 71.6415 54.5033 73.813 54.2773 73.905C54.3143 73.8783 54.3447 73.8299 54.3629 73.7685C54.3812 73.707 54.3862 73.6364 54.3771 73.5692C53.3375 66.3432 51.6438 59.4704 48.8285 53.7736C49.0247 53.6414 68.4719 40.2149 68.6499 40.0923C68.8466 39.9565 68.7603 39.404 68.5615 39.5412C63.2087 43.2389 44.0025 56.5056 43.8241 56.6297C43.8674 49.4117 44.0106 43.9374 46.6389 37.007ZM58.0858 67.6023C57.4504 68.1912 56.7826 68.6704 56.0921 69.0329C56.0514 69.0557 56.0174 69.1046 55.9972 69.1694C55.9769 69.2342 55.9719 69.3099 55.9833 69.3808C55.9947 69.4517 56.0215 69.5124 56.0582 69.5502C56.0949 69.588 56.1387 69.6001 56.1805 69.5839C56.899 69.2095 57.5936 68.7108 58.2536 68.0957C58.4418 67.9198 58.2736 67.4264 58.0858 67.6023ZM61.1573 68.1241C60.9585 68.2519 61.0451 68.8037 61.2456 68.6752L72.195 61.682C72.3939 61.555 72.3072 61.0025 72.1067 61.131L61.1573 68.1241Z" fill="#FFD2D2"/>
<path d="M58.3665 25.0045C58.8108 24.8885 61.1588 24.9812 61.6108 24.9877C61.64 24.9883 61.6685 25.0019 61.6937 25.0272C61.7188 25.0526 61.7397 25.0887 61.7542 25.1322C61.7687 25.1756 61.7763 25.2248 61.7764 25.2748C61.7764 25.3249 61.7688 25.3741 61.7544 25.4176C61.5324 25.9928 61.233 26.4677 60.8817 26.8022C60.5303 27.1367 60.1372 27.321 59.7357 27.3395C59.3955 27.3165 59.0677 27.114 58.7968 26.7596C58.526 26.4051 58.3253 25.9159 58.222 25.3585C58.2156 25.3187 58.2144 25.2769 58.2185 25.2362C58.2226 25.1955 58.2319 25.1569 58.2457 25.1231C58.2595 25.0892 58.2775 25.0611 58.2984 25.0406C58.3192 25.0201 58.3425 25.0078 58.3665 25.0045Z" fill="#FF4848"/>
<path d="M34.5949 15.4982L37.8839 7.0759C38.0024 6.77154 38.2904 7.05766 38.1706 7.36786L35.2907 14.7442C37.369 12.6064 42.6627 7.13138 43.2982 6.51023C43.3363 6.47151 43.3818 6.46038 43.4247 6.47927C43.4675 6.49816 43.5043 6.54553 43.5268 6.61096C43.5493 6.67639 43.5558 6.75452 43.5448 6.82816C43.5338 6.9018 43.5062 6.96493 43.4682 7.00364C41.3016 9.29115 36.109 14.5844 35.3927 15.3179L40.5998 14.9727C40.8122 14.9588 40.8122 15.5303 40.5998 15.5442C36.1514 15.8362 34.7797 15.9318 34.7287 15.9289C34.6997 15.9279 34.6715 15.9137 34.6468 15.8878C34.6221 15.8618 34.6019 15.8249 34.5882 15.781C34.5746 15.7371 34.568 15.6878 34.5692 15.6381C34.5704 15.5884 34.5792 15.5401 34.5949 15.4982Z" fill="black"/>
<path d="M72.1099 61.1307C72.3104 61.0022 72.3971 61.5548 72.1982 61.6818L61.2454 68.6735C61.0449 68.8019 60.9578 68.2501 61.1571 68.1224L72.1099 61.1307Z" fill="#FF4848"/>
<path d="M21.6095 65.6965C22.2611 65.1963 22.9664 64.9359 23.6801 64.9323C24.4414 64.8979 24.6801 64.949 28.9607 65.3614C26.7248 64.3075 25.9869 61.7849 26.3267 60.158C26.7571 58.1011 28.3829 57.9683 29.6544 57.9033C31.3836 57.7748 33.1156 57.8018 34.8432 57.9843C38.1037 58.3245 40.1208 59.0427 40.3867 59.0288C40.3867 59.0288 62.4775 43.7418 68.5627 39.5405C68.7615 39.4032 68.8478 39.9558 68.6511 40.0915C68.4731 40.2142 49.0242 53.6407 48.8296 53.7728C51.6386 59.4565 53.3421 66.3563 54.3783 73.5684C54.3877 73.6414 54.381 73.7177 54.3595 73.7826C54.338 73.8475 54.3032 73.8963 54.2619 73.9195C51.3773 75.6487 31.996 87.0468 31.5568 87.3001C30.7711 87.8775 29.9091 88.0792 29.0622 87.884C28.0001 87.4899 27.04 85.2768 27.8302 83.582C28.3481 82.4703 29.9093 81.0901 30.6506 80.4543C28.8154 81.374 27.5596 82.0156 25.5667 82.1419C25.0622 82.2242 24.5539 82.0814 24.0909 81.7273C23.7312 81.3499 23.456 80.7753 23.3095 80.0963C23.1631 79.4173 23.154 78.6733 23.2837 77.9843C23.5722 76.5187 24.2825 76.0297 25.1445 75.6187C25.4737 75.4618 27.6161 74.3546 28.3536 73.94C27.1706 73.9687 25.9881 73.8492 24.8152 73.5823C24.072 73.4017 23.3399 73.1043 22.6282 72.694C22.0513 72.3657 21.5146 71.8575 21.0449 71.1948C19.9344 69.643 20.0309 67.0117 21.6095 65.6965ZM33.4043 79.231L34.9762 78.596C35.2196 78.4975 35.1159 77.8544 34.8729 77.953L33.3011 78.5887C33.0581 78.6872 33.1617 79.3303 33.4043 79.231ZM31.3248 73.1947C32.0404 72.8897 32.7632 72.6376 33.4914 72.4393C33.5159 72.4277 33.5389 72.4079 33.559 72.3811C33.5791 72.3542 33.5959 72.3208 33.6085 72.2828C33.621 72.2447 33.6291 72.2028 33.6322 72.1594C33.6353 72.116 33.6333 72.0719 33.6265 72.0298C33.6118 71.9458 33.5789 71.8747 33.5345 71.8313C33.4901 71.7879 33.4377 71.7756 33.3882 71.797C32.6595 71.9916 31.9373 72.2434 31.2216 72.5524C31.1742 72.5792 31.1346 72.6362 31.1111 72.7118C31.0875 72.7873 31.0818 72.8755 31.0951 72.9581C31.1084 73.0407 31.1396 73.1113 31.1824 73.1554C31.2251 73.1994 31.2761 73.2135 31.3248 73.1947Z" fill="#FC9070" fill-opacity="0.8"/>
<path d="M31.2213 72.5523C31.9367 72.2433 32.6589 71.9914 33.3879 71.7968C33.4374 71.7755 33.4898 71.7877 33.5342 71.8311C33.5786 71.8745 33.6115 71.9456 33.6262 72.0296C33.633 72.0718 33.635 72.1158 33.6319 72.1592C33.6288 72.2026 33.6207 72.2446 33.6082 72.2826C33.5956 72.3206 33.5788 72.3541 33.5587 72.3809C33.5386 72.4078 33.5157 72.4276 33.4911 72.4391C32.7625 72.634 32.0412 72.8931 31.3245 73.1946C31.2759 73.2134 31.2249 73.1993 31.1821 73.1552C31.1393 73.1111 31.1081 73.0405 31.0948 72.9579C31.0815 72.8753 31.0872 72.7871 31.1108 72.7116C31.1343 72.6361 31.1739 72.579 31.2213 72.5523Z" fill="#FC9070"/>
<path d="M34.9737 78.596L33.4019 79.231C33.1593 79.3295 33.0557 78.6872 33.2987 78.5887L34.8705 77.9529C35.1135 77.8544 35.2172 78.4974 34.9737 78.596Z" fill="#FC9070"/>
<path d="M19.5594 45.3854C19.8568 44.5023 20.2149 43.6862 20.494 42.787C20.5084 42.7434 20.5292 42.7072 20.5544 42.682C20.5796 42.6568 20.6082 42.6435 20.6374 42.6435C20.6665 42.6435 20.6951 42.6568 20.7203 42.682C20.7455 42.7072 20.7664 42.7434 20.7807 42.787C21.0482 43.6977 21.3609 44.5671 21.7154 45.3854C21.8033 45.5847 21.6678 45.8175 21.5718 45.8153C19.6652 45.7621 19.7234 45.8278 19.6805 45.808C19.6538 45.8013 19.6285 45.7835 19.6067 45.7562C19.5849 45.7289 19.5673 45.6929 19.5553 45.6513C19.5434 45.6098 19.5376 45.5639 19.5383 45.5175C19.539 45.4712 19.5462 45.4259 19.5594 45.3854ZM21.2587 45.2438C21.0343 44.6833 20.8251 44.1053 20.6316 43.5118C20.4375 44.0526 20.1384 44.8438 19.9944 45.2438H21.2587Z" fill="#77751E"/>
<path d="M8.0465 34.5086C7.8556 34.5977 7.6535 34.586 7.46651 34.4751C7.27952 34.3642 7.11629 34.1591 6.99803 33.8867C6.87171 33.564 6.81243 33.1776 6.82977 32.7899C6.84712 32.4022 6.94008 32.0359 7.09361 31.7503C7.23441 31.5169 7.40907 31.3526 7.59939 31.2747C7.78971 31.1968 7.98871 31.208 8.17564 31.3072C8.35993 31.4526 8.51407 31.691 8.61755 31.9907C8.72104 32.2903 8.76896 32.637 8.75493 32.9846C8.74091 33.3321 8.66562 33.6642 8.53906 33.9364C8.41251 34.2086 8.2407 34.4082 8.0465 34.5086ZM8.22917 32.0006C8.09244 31.8404 7.92724 31.768 7.76255 31.7962C7.59787 31.8244 7.44421 31.9513 7.32854 32.1546C7.26914 32.26 7.22273 32.3849 7.19211 32.5218C7.16148 32.6587 7.14728 32.8049 7.15035 32.9515C7.15341 33.0981 7.17368 33.2421 7.20994 33.3749C7.24621 33.5077 7.29771 33.6266 7.36137 33.7243C7.42503 33.8221 7.49952 33.8967 7.58039 33.9438C7.66125 33.9909 7.74681 34.0094 7.83195 33.9982C7.91708 33.9871 8.00003 33.9465 8.0758 33.8789C8.15158 33.8113 8.21863 33.7181 8.27292 33.6049C8.37852 33.3726 8.43203 33.0827 8.42368 32.7883C8.41534 32.4938 8.34571 32.2143 8.22747 32.0006H8.22917Z" fill="#A982F4"/>
<path d="M56.0923 69.0328C56.7827 68.67 57.4505 68.1908 58.086 67.6022C58.2738 67.4263 58.442 67.9197 58.2559 68.0956C57.5959 68.7107 56.9013 69.2094 56.1828 69.5839C56.141 69.6 56.0972 69.588 56.0605 69.5501C56.0238 69.5123 55.997 69.4517 55.9856 69.3807C55.9742 69.3098 55.9792 69.2341 55.9995 69.1694C56.0197 69.1046 56.0537 69.0557 56.0944 69.0328H56.0923Z" fill="#FF4848"/>
<path d="M19.3239 5.74651C19.2984 5.74661 19.2732 5.73804 19.2496 5.7213C19.2261 5.70456 19.2047 5.67999 19.1867 5.64898C19.1686 5.61798 19.1544 5.58116 19.1447 5.54066C19.135 5.50015 19.1301 5.45674 19.1302 5.41295L19.4913 0.333565C19.4925 0.245863 19.5132 0.162304 19.5493 0.100205C19.5854 0.0381053 19.634 0.0022258 19.685 0C19.7365 0 19.7859 0.0351432 19.8223 0.0976987C19.8587 0.160254 19.8792 0.245098 19.8792 0.333565L19.5181 5.41295C19.5167 5.50066 19.4958 5.58412 19.4596 5.64616C19.4235 5.70821 19.375 5.74412 19.3239 5.74651Z" fill="black"/>
<path d="M8.81048 8.78284L7.60144 3.78302C7.58822 3.69777 7.59501 3.60701 7.62036 3.53029C7.64571 3.45357 7.68758 3.39702 7.73696 3.37282C7.78654 3.35144 7.83901 3.36371 7.88348 3.40707C7.92794 3.45043 7.96097 3.52155 7.97571 3.60565L9.18433 8.60621C9.19754 8.69136 9.19073 8.78202 9.16537 8.85863C9.14002 8.93523 9.09815 8.99164 9.04881 9.01568C8.99927 9.03722 8.94681 9.02501 8.90239 8.98161C8.85798 8.93822 8.82504 8.867 8.81048 8.78284Z" fill="black"/>
<path d="M6.85167 11.6681L4.36178 7.76752C4.17698 7.47556 4.45185 7.00769 4.63622 7.29673L7.12611 11.1966C7.31091 11.4849 7.03605 11.955 6.85167 11.6681Z" fill="black"/>
<path d="M2.38774 40.7181C2.61332 40.5415 2.81256 41.1152 2.58358 41.2933L0.297179 43.083C0.0715978 43.2604 -0.127647 42.6852 0.101757 42.5078L2.38774 40.7181Z" fill="black"/>
<path d="M60.4106 19.5022C59.9682 19.4085 59.5548 19.0749 59.2304 18.5498C58.906 18.0247 58.6876 17.3356 58.6068 16.5826C58.5176 15.8898 58.5466 15.1676 58.6901 14.5024C58.8336 13.8372 59.0857 13.2571 59.4161 12.8316C59.7638 12.4298 60.1711 12.2074 60.5901 12.1905C61.009 12.1737 61.422 12.3632 61.7802 12.7367C62.6417 13.6571 62.8593 15.4914 62.6524 17.1125C62.507 17.9058 62.2008 18.5833 61.7895 19.0217C61.3781 19.4602 60.8889 19.6307 60.4106 19.5022ZM61.767 13.552C61.5696 13.2827 61.3405 13.0905 61.0954 12.9888C60.8504 12.8871 60.5954 12.8783 60.3482 12.9632C60.101 13.048 59.8676 13.2243 59.6641 13.4799C59.4606 13.7356 59.292 14.0643 59.1699 14.4432C59.0479 14.8222 58.9754 15.2423 58.9575 15.6743C58.9395 16.1063 58.9766 16.5398 59.0661 16.9447C59.1556 17.3496 59.2954 17.7161 59.4757 18.0187C59.656 18.3214 59.8725 18.5528 60.1102 18.6971C60.9484 19.1912 62.0563 18.5277 62.2806 16.9344C62.3798 16.3433 62.3844 15.7173 62.294 15.1221C62.2036 14.5269 62.0216 13.9845 61.767 13.552Z" fill="black"/>
<path d="M8.79594 59.316C9.26112 59.389 25.4282 61.2181 26.2281 61.3094C26.1957 60.9161 26.2197 60.5151 26.2982 60.1415C26.735 58.0832 28.3799 57.8934 29.6543 57.8526C33.2422 57.621 36.8347 57.9985 40.3794 58.9795C40.5574 58.8883 39.7673 59.3992 43.798 56.5942L43.8095 54.7607C43.767 48.3536 44.5028 42.5502 46.6163 36.9796C47.7637 33.8844 49.2766 31.2378 51.0572 29.2112C52.8378 27.1846 54.8463 25.8231 56.9526 25.215C56.4845 23.3845 56.1616 21.4541 55.9925 19.4758C55.7262 16.0154 56.1816 12.3228 57.6646 9.92945C58.3139 8.96324 59.0804 8.25819 59.9084 7.86574C60.7364 7.47328 61.605 7.4033 62.4507 7.66092C64.2774 8.05726 65.7979 10.617 65.4041 13.6571C65.2784 14.3501 65.2082 15.0693 65.1955 15.7949C65.2043 16.0802 65.2656 16.3532 65.3706 16.5747C65.4756 16.7961 65.6188 16.9545 65.7796 17.027C66.5787 17.3686 66.9211 16.9029 67.8889 17.2788C68.3173 17.5141 68.6829 18.0037 68.9204 18.66C69.1578 19.3162 69.2514 20.0963 69.1846 20.8605C69.086 21.7546 68.7844 22.3429 68.9675 22.7845C69.0239 22.8828 69.092 22.959 69.1672 23.0079C69.2424 23.0567 69.3228 23.0771 69.4029 23.0677C69.8796 23.1064 70.3567 22.9677 70.8354 22.9859C71.6898 23.018 72.5279 23.6742 72.7786 25.0734C72.8281 25.5371 72.82 26.0134 72.7548 26.4713C72.6897 26.9292 72.5689 27.3582 72.4005 27.7303C73.1737 27.642 73.9779 27.7106 74.5841 28.6419C74.8875 29.0892 75.0763 29.7237 75.1096 30.4083C75.1126 30.7463 75.0766 31.0819 75.0037 31.3959C74.9307 31.7098 74.8224 31.9958 74.6848 32.2374C74.3966 32.749 74.0566 33.1661 73.6813 33.468C73.4284 33.6884 73.1683 33.8834 72.9022 34.052C75.5726 39.4478 77.0266 46.3117 76.9996 53.3943V70.8769C76.9989 70.9649 76.9782 71.0488 76.9421 71.1111C76.9059 71.1733 76.8571 71.209 76.8059 71.2105C60.8644 71.6163 58.0958 71.6623 58.0958 71.6623C58.0958 71.6623 31.9815 87.0997 31.5622 87.3428C30.7716 87.922 29.9046 88.1237 29.0528 87.9267C27.9737 87.5267 27.0051 85.2757 27.803 83.5553C28.0033 83.1415 28.2405 82.7845 28.5056 82.4977C29.0992 81.8095 29.719 81.1906 30.3608 80.6452C28.8109 81.5383 27.1963 82.0572 25.5633 82.1867C25.0538 82.2695 24.5406 82.1244 24.0734 81.7656C23.71 81.3808 23.4319 80.798 23.2836 80.1101C23.1354 79.4222 23.1253 78.6689 23.2552 77.9701C23.4103 77.2027 23.7304 76.5663 24.1499 76.1913C24.8683 75.5892 25.4244 75.514 28.1772 73.9834C27.0498 73.998 25.9232 73.8783 24.8054 73.625C24.0617 73.4482 23.3295 73.1508 22.6184 72.7367C22.0358 72.4107 21.4945 71.8977 21.0232 71.2251C20.7759 70.8851 20.5799 70.4478 20.4518 69.9502C20.3238 69.4525 20.2674 68.9091 20.2874 68.3661C20.3099 68.2931 20.3142 66.8063 21.5134 65.7173L8.41955 62.6473C8.28645 62.6156 8.1585 62.5376 8.04352 62.4182C7.92853 62.2987 7.82893 62.1402 7.75078 61.9524C7.67263 61.7646 7.61757 61.5514 7.58897 61.3258C7.56037 61.1002 7.55883 60.867 7.58444 60.6403C7.61005 60.4137 7.66227 60.1984 7.73791 60.0076C7.81356 59.8168 7.91105 59.6544 8.02442 59.5305C8.13779 59.4066 8.26467 59.3237 8.39732 59.2868C8.52997 59.2499 8.66561 59.2598 8.79594 59.316ZM74.0548 32.3097C75.3475 30.7039 74.6011 28.4857 73.0709 28.3682C72.7184 28.3542 72.3658 28.3822 72.0156 28.4522C71.9816 28.4514 71.9484 28.4354 71.9191 28.4058C71.8898 28.3763 71.8656 28.3341 71.8487 28.2835C71.8318 28.2328 71.8228 28.1755 71.8228 28.1172C71.8227 28.0588 71.8315 28.0015 71.8482 27.9507C72.1248 27.3725 72.3216 26.6943 72.4239 25.9668C72.4488 25.6502 72.4238 25.3278 72.3514 25.0335C72.2789 24.7392 72.1618 24.4838 72.0122 24.2939C70.8567 22.7991 68.9917 24.6698 68.5767 22.9385C68.4131 22.256 68.6795 21.6035 68.7751 20.9583C68.8512 20.4139 68.8219 19.8417 68.6915 19.3286C68.5612 18.8155 68.3369 18.3895 68.0529 18.1153C67.1709 17.2642 66.0209 18.4489 65.1641 17.1796C65.0327 16.9452 64.9328 16.6644 64.8712 16.3568C64.8096 16.0492 64.7879 15.7221 64.8076 15.3986C64.8866 13.9468 65.3021 12.9082 64.9177 11.3287C64.7484 10.6883 64.5018 10.1171 64.1941 9.65313C63.8865 9.18913 63.5249 8.84293 63.1334 8.63753C62.3489 8.19851 61.5168 8.07013 60.6994 8.26201C59.8819 8.45389 59.1004 8.96105 58.4132 9.74552C57.7977 10.5451 57.2923 11.5679 56.933 12.7411C56.5736 13.9144 56.3692 15.2092 56.3341 16.5336C56.1858 19.497 56.6795 22.3728 57.3401 25.1209C57.9208 24.9882 58.5058 24.9202 59.0916 24.9172C64.1797 24.7961 68.5112 25.6887 72.6303 33.5213C73.1373 33.2404 73.6172 32.8324 74.0548 32.3104V32.3097ZM58.6859 25.5946C59.2063 27.2383 60.4562 26.8821 61.2021 25.5946C60.364 25.5756 59.5237 25.5442 58.6851 25.5982L58.6859 25.5946ZM58.2938 70.9944C60.0326 70.9485 76.4338 70.528 76.6122 70.5353C76.6122 54.9753 76.6462 52.5798 76.5349 50.5317C75.7965 37.0489 69.7352 25.7712 61.7247 25.6092C60.7654 27.7814 58.855 28.1485 58.2335 25.6377C51.3356 26.4617 46.0054 35.676 44.589 47.0617C44.1642 50.4864 44.2067 52.6637 44.185 56.3271C50.7834 51.7396 67.7041 40.0897 68.5537 39.4948C68.6033 39.4721 68.6562 39.4838 68.7008 39.5273C68.7455 39.5709 68.7784 39.6428 68.7925 39.7277C68.8049 39.8129 68.7978 39.903 68.7725 39.9794C68.7473 40.0558 68.7059 40.1125 68.6569 40.1379C68.4789 40.2605 49.0594 53.6666 48.8772 53.787C51.5357 59.1883 53.3803 66.2683 54.382 73.19C58.448 70.774 57.9467 71.0032 58.2938 70.9944ZM20.674 68.4245C20.4527 72.0827 24.7837 73.2236 26.9278 73.2805C27.7371 73.333 28.5473 73.3002 29.357 73.3177C29.4037 73.3188 29.4487 73.3487 29.4837 73.402C29.5187 73.4553 29.5414 73.5284 29.5476 73.6081C29.5538 73.6877 29.5432 73.7685 29.5177 73.8358C29.4921 73.9031 29.4533 73.9524 29.4084 73.9746C26.6717 75.5519 27.3747 75.106 25.0896 76.2994C24.5685 76.4556 24.0994 76.9377 23.7727 77.6526C23.5836 78.1942 23.5146 78.8349 23.5783 79.4569C23.6421 80.0789 23.8343 80.6405 24.1197 81.0386C24.5077 81.4336 24.9584 81.6076 25.4074 81.5357C27.7601 81.4627 29.388 80.4474 32.3545 78.9613C32.3996 78.9419 32.4472 78.9508 32.4887 78.9864C32.5303 79.022 32.5631 79.082 32.5811 79.1556C32.5992 79.2291 32.6014 79.3113 32.5872 79.3873C32.5731 79.4633 32.5436 79.5281 32.5041 79.57C31.2209 80.5819 29.975 81.7275 28.7733 83.0006C28.3149 83.5341 27.7911 84.229 27.9262 85.2954C27.9852 85.7395 28.1112 86.1492 28.2914 86.4834C28.4716 86.8176 28.6997 87.0646 28.953 87.1997C29.7809 87.6537 30.6523 87.1727 31.4445 86.7165C31.86 86.4771 53.6908 73.6089 53.9848 73.4323C52.6912 64.5881 50.7137 58.4737 48.4995 54.0483C46.4943 55.4308 40.6777 59.5226 40.4589 59.643C40.0124 59.7561 35.9783 58.0839 29.7202 58.5175C28.8973 58.5744 27.9525 58.5533 27.2103 59.2803C27.0425 59.4398 26.9 59.6676 26.7954 59.9437C26.6907 60.2199 26.6271 60.5359 26.6101 60.8641C26.6661 64.2523 29.8022 65.3523 31.7504 65.5829C31.9977 65.6121 32.0011 66.2734 31.7504 66.2493C30.0719 66.0873 25.1295 65.6114 24.3373 65.5508C23.5872 65.469 22.8347 65.6213 22.1163 66.0005C21.7716 66.1458 21.456 66.4474 21.2023 66.8738C20.9486 67.3001 20.7662 67.8357 20.674 68.4245ZM22.2518 65.2282C23.5564 64.6348 24.5076 64.8852 28.7431 65.2925C27.7414 64.7647 26.7188 63.7224 26.3301 61.9838L8.72584 59.9744C8.57946 59.9164 8.42574 59.9546 8.29496 60.0816C8.16417 60.2086 8.0658 60.4152 8.01923 60.6606C7.97265 60.9059 7.98124 61.1724 8.0433 61.4074C8.10536 61.6425 8.2164 61.8291 8.35455 61.9305C8.4786 62.0247 7.55291 61.7736 22.2518 65.2282Z" fill="black"/>
<path d="M40.5965 15.5879C35.8619 15.9003 34.7764 15.9762 34.7233 15.9718C34.6901 15.9699 34.6578 15.953 34.6296 15.9228C34.6015 15.8925 34.5784 15.8501 34.5628 15.7997C34.5472 15.7493 34.5396 15.6927 34.5408 15.6357C34.542 15.5786 34.5519 15.5232 34.5695 15.4748L37.8589 7.05172C37.997 6.69699 38.3331 7.03056 38.1937 7.38821L35.3801 14.5931C37.3814 12.5347 42.6416 7.09187 43.2818 6.46489C43.3262 6.42242 43.3785 6.41152 43.4275 6.43454C43.4765 6.45756 43.5183 6.51266 43.5439 6.58802C43.5695 6.66338 43.577 6.75299 43.5646 6.83763C43.5522 6.92227 43.521 6.9952 43.4777 7.04078C41.3412 9.23778 36.0335 14.7193 35.5118 15.258L40.5952 14.9215C40.8459 14.9047 40.8455 15.5719 40.5965 15.5879Z" fill="black"/>
<path d="M61.1485 68.0786L72.1 61.0825C72.3345 60.9365 72.4356 61.5767 72.2032 61.7256L61.2521 68.7188C61.0176 68.8706 60.9165 68.2268 61.1485 68.0786Z" fill="black"/>
<path d="M31.2206 72.5516C31.9354 72.2436 32.6576 71.992 33.3872 71.7969C33.4367 71.7755 33.4891 71.7878 33.5335 71.8312C33.5779 71.8745 33.6109 71.9457 33.6255 72.0297C33.6323 72.0719 33.6342 72.116 33.6311 72.1594C33.628 72.2029 33.6199 72.2448 33.6073 72.2829C33.5947 72.3209 33.5779 72.3543 33.5577 72.3811C33.5376 72.408 33.5146 72.4277 33.49 72.4392C32.7618 72.6338 32.0396 72.8856 31.3234 73.1946C31.2743 73.2152 31.2225 73.2022 31.1789 73.1582C31.1353 73.1141 31.1035 73.0427 31.0901 72.959C31.0767 72.8752 31.0828 72.7858 31.1072 72.7098C31.1316 72.6337 31.1722 72.5769 31.2206 72.5516Z" fill="black"/>
<path d="M33.3 78.5882L34.8719 77.9525C35.1149 77.854 35.2185 78.4963 34.9751 78.5955L33.4032 79.2306C33.1602 79.3298 33.057 78.6868 33.3 78.5882Z" fill="black"/>
<path d="M21.573 45.8627H19.7037C19.6701 45.8607 19.6373 45.844 19.6084 45.8141C19.5796 45.7842 19.5556 45.7422 19.5389 45.692C19.5221 45.6418 19.5131 45.5851 19.5126 45.5272C19.5122 45.4693 19.5204 45.4122 19.5364 45.3613C19.8252 44.4708 20.1919 43.662 20.471 42.7621C20.4876 42.7108 20.5119 42.6682 20.5413 42.6385C20.5707 42.6087 20.6042 42.5931 20.6384 42.5931C20.6725 42.5931 20.706 42.6087 20.7354 42.6385C20.7649 42.6682 20.7891 42.7108 20.8057 42.7621C21.0732 43.6731 21.3859 44.5427 21.7403 45.3613C21.8385 45.5824 21.7038 45.87 21.573 45.8627ZM20.6286 43.6088C20.4378 44.1423 20.2343 44.6627 20.0436 45.1963H21.2038C20.9995 44.681 20.804 44.1533 20.6286 43.6088Z" fill="black"/>
<path d="M8.18075 31.2608C8.38829 31.3919 8.56576 31.6343 8.68691 31.9521C8.80805 32.2699 8.86644 32.6463 8.85344 33.0255C8.84044 33.4048 8.75673 33.7668 8.61471 34.0579C8.47268 34.3491 8.27988 34.554 8.06482 34.6423C7.84976 34.7306 7.62386 34.6976 7.42056 34.5483C7.21725 34.3989 7.04733 34.141 6.93593 33.8129C6.82453 33.4847 6.77756 33.1037 6.80198 32.7261C6.82641 32.3485 6.92091 31.9944 7.07153 31.7163C7.21582 31.4769 7.39484 31.3084 7.58993 31.2283C7.78502 31.1481 7.98905 31.1594 8.18075 31.2608ZM7.35574 33.6608C7.4161 33.7623 7.48814 33.841 7.56724 33.8918C7.64634 33.9427 7.73074 33.9646 7.81506 33.9561C7.89937 33.9477 7.98173 33.9091 8.05685 33.8427C8.13196 33.7764 8.19818 33.6838 8.25126 33.571C8.35146 33.3477 8.4022 33.0706 8.39442 32.789C8.38664 32.5074 8.32084 32.2397 8.20878 32.0338C8.07717 31.8833 7.91913 31.8164 7.76188 31.8445C7.60464 31.8726 7.45801 31.994 7.34724 32.1878C7.29151 32.2855 7.24752 32.4011 7.21779 32.528C7.18805 32.6548 7.17315 32.7905 7.17394 32.9273C7.17473 33.0641 7.19119 33.1993 7.22238 33.3251C7.25357 33.4509 7.29889 33.565 7.35574 33.6608Z" fill="black"/>
<path d="M56.084 68.9874C56.7726 68.6285 57.4383 68.1507 58.0709 67.5612C58.2901 67.3561 58.4864 67.9312 58.2667 68.1363C57.604 68.7537 56.9066 69.254 56.1851 69.6297C56.1364 69.6485 56.0854 69.6344 56.0427 69.5903C55.9999 69.5463 55.9686 69.4756 55.9554 69.393C55.9421 69.3105 55.9478 69.2223 55.9714 69.1467C55.9949 69.0712 56.0345 69.0142 56.0819 68.9874H56.084Z" fill="black"/>
<path d="M9.97826 49.1068C9.97826 19.8086 9.92856 20.7866 10.0632 19.6443C10.2235 18.5934 10.5809 17.6625 11.08 16.9956C11.5792 16.3287 12.1923 15.9628 12.8246 15.9547H30.9709C31.3638 15.9312 31.7553 16.0474 32.1208 16.296C32.4863 16.5447 32.818 16.9204 33.0951 17.3996C33.3721 17.8789 33.5886 18.4513 33.7308 19.0809C33.8731 19.7106 33.9381 20.384 33.9217 21.0589V49.952C33.9293 50.6417 33.8547 51.3268 33.7026 51.9652C33.5504 52.6036 33.3239 53.1818 33.037 53.6643C32.7501 54.1468 32.4088 54.5235 32.0341 54.7711C31.6593 55.0188 31.2591 55.1322 30.8579 55.1044C11.6007 54.657 12.8186 55.1548 12.3454 55.0132C11.7057 54.805 11.1252 54.2343 10.6967 53.3923C10.2682 52.5503 10.0164 51.4857 9.98166 50.3688C9.96637 49.9498 9.97826 49.5258 9.97826 49.1068Z" fill="#FFD500"/>
<path d="M21.7629 32.0747C22.1507 30.8601 23.0939 28.1463 23.1521 27.9785C23.1665 27.9375 23.1868 27.9037 23.2111 27.8802C23.2353 27.8566 23.2627 27.8443 23.2905 27.8443C23.3184 27.8443 23.3458 27.8566 23.37 27.8802C23.3943 27.9037 23.4146 27.9375 23.429 27.9785C23.8957 29.3402 24.3586 30.7056 24.8178 32.0747C24.8318 32.1169 24.8392 32.1648 24.8391 32.2134C24.839 32.2621 24.8315 32.3098 24.8173 32.352C24.8031 32.3941 24.7828 32.429 24.7582 32.4534C24.7337 32.4777 24.7059 32.4906 24.6776 32.4907H21.9001C21.8725 32.4878 21.8458 32.473 21.8224 32.4479C21.7989 32.4227 21.7795 32.3879 21.7659 32.3466C21.7523 32.3053 21.7448 32.2587 21.7443 32.2113C21.7438 32.1638 21.7502 32.1168 21.7629 32.0747Z" fill="#2755A0"/>
<path d="M18.1644 32.0746C18.5522 30.86 19.4953 28.1455 19.5531 27.9784C19.5676 27.9374 19.5879 27.9036 19.6122 27.8801C19.6365 27.8566 19.6639 27.8443 19.6918 27.8443C19.7197 27.8443 19.7471 27.8566 19.7714 27.8801C19.7957 27.9036 19.816 27.9374 19.8305 27.9784C20.2968 29.3404 20.7597 30.7058 21.2193 32.0746C21.233 32.1166 21.2402 32.164 21.2401 32.2122C21.24 32.2604 21.2326 32.3077 21.2186 32.3495C21.2047 32.3914 21.1846 32.4262 21.1605 32.4507C21.1363 32.4752 21.1088 32.4884 21.0808 32.4892H18.3046C18.2768 32.4871 18.2498 32.4731 18.226 32.4484C18.2022 32.4237 18.1824 32.3891 18.1684 32.3478C18.1545 32.3065 18.1468 32.2598 18.1461 32.2121C18.1454 32.1643 18.1516 32.1171 18.1644 32.0746Z" fill="#2755A0"/>
<path d="M21.9957 35.5715H24.1453C24.1876 35.5726 24.228 35.6021 24.2579 35.6536C24.2878 35.7051 24.3049 35.7746 24.3054 35.8474V39.5399C24.3049 39.6127 24.2878 39.6822 24.2579 39.7337C24.228 39.7853 24.1876 39.8147 24.1453 39.8158C21.8512 39.8436 21.9362 39.856 21.875 39.7166C21.8164 39.61 21.8189 39.7896 21.8351 35.8481C21.8355 35.7751 21.8526 35.7053 21.8826 35.6536C21.9126 35.6019 21.9532 35.5724 21.9957 35.5715Z" fill="#FF4848"/>
<path d="M17.0959 39.6708C17.4838 38.4562 18.4269 35.7425 18.4851 35.5753C18.4995 35.5344 18.5198 35.5005 18.5441 35.477C18.5684 35.4535 18.5957 35.4412 18.6236 35.4412C18.6515 35.4412 18.6788 35.4535 18.7031 35.477C18.7274 35.5005 18.7477 35.5344 18.7621 35.5753C19.1742 36.7658 20.0948 39.5022 20.1508 39.6708C20.1646 39.7128 20.1717 39.7603 20.1716 39.8085C20.1715 39.8568 20.1641 39.9041 20.1502 39.9459C20.1362 39.9878 20.1162 40.0227 20.092 40.0473C20.0679 40.0718 20.0404 40.0852 20.0123 40.0861H17.2344C17.2068 40.0833 17.1801 40.0687 17.1566 40.0437C17.1331 40.0186 17.1136 39.9839 17.0999 39.9427C17.0861 39.9015 17.0786 39.8551 17.0779 39.8076C17.0772 39.7602 17.0834 39.7131 17.0959 39.6708Z" fill="#2755A0"/>
<path d="M25.3353 35.4414L27.5154 39.1866C27.5426 39.2393 27.5571 39.3079 27.5558 39.3783C27.5546 39.4488 27.5377 39.5157 27.5087 39.5655C27.4798 39.6154 27.4408 39.6443 27.3998 39.6464C27.3588 39.6486 27.3189 39.6238 27.2882 39.5771C26.5493 38.3494 25.8227 37.1007 25.1084 35.8312C25.0806 35.7788 25.0656 35.7099 25.0665 35.639C25.0675 35.568 25.0843 35.5004 25.1135 35.4503C25.1427 35.4001 25.1821 35.3712 25.2234 35.3695C25.2647 35.3679 25.3047 35.3936 25.3353 35.4414Z" fill="black"/>
<path d="M25.3354 21.099L27.5156 24.8449C27.5449 24.897 27.561 24.9667 27.5607 25.0391C27.5603 25.1115 27.5433 25.1807 27.5135 25.2318C27.4837 25.283 27.4434 25.3119 27.4013 25.3124C27.3591 25.313 27.3186 25.285 27.2883 25.2346C26.5494 24.0079 25.8228 22.7593 25.1085 21.4888C25.0807 21.4363 25.0657 21.3675 25.0667 21.2966C25.0676 21.2256 25.0845 21.158 25.1137 21.1078C25.1429 21.0577 25.1822 21.0288 25.2235 21.0271C25.2648 21.0255 25.3049 21.0512 25.3354 21.099Z" fill="black"/>
<path d="M25.3353 28.2988C26.0742 29.526 26.8009 30.7744 27.5154 32.0439C27.5426 32.0967 27.5571 32.1653 27.5558 32.2357C27.5546 32.3061 27.5377 32.3731 27.5087 32.4229C27.4798 32.4727 27.4408 32.5017 27.3998 32.5038C27.3588 32.5059 27.3189 32.4811 27.2882 32.4344C26.5493 31.2067 25.8227 29.9581 25.1084 28.6886C25.0806 28.6361 25.0656 28.5673 25.0665 28.4963C25.0675 28.4254 25.0843 28.3578 25.1135 28.3076C25.1427 28.2574 25.1821 28.2285 25.2234 28.2269C25.2647 28.2252 25.3047 28.251 25.3353 28.2988Z" fill="black"/>
<path d="M31.6411 21.3508V25.3076C31.639 25.3782 31.6212 25.4447 31.5913 25.4934C31.5615 25.5421 31.5219 25.5693 31.4807 25.5693C31.4396 25.5693 31.4 25.5421 31.3702 25.4934C31.3403 25.4447 31.3225 25.3782 31.3204 25.3076V21.3508C31.3225 21.2801 31.3403 21.2136 31.3702 21.1649C31.4 21.1162 31.4396 21.0891 31.4807 21.0891C31.5219 21.0891 31.5615 21.1162 31.5913 21.1649C31.6212 21.2136 31.639 21.2801 31.6411 21.3508Z" fill="#FF4848"/>
<path d="M31.6411 28.631V32.5878C31.639 32.6584 31.6212 32.7249 31.5913 32.7736C31.5615 32.8223 31.5219 32.8495 31.4807 32.8495C31.4396 32.8495 31.4 32.8223 31.3702 32.7736C31.3403 32.7249 31.3225 32.6584 31.3204 32.5878V28.631C31.3225 28.5604 31.3403 28.4938 31.3702 28.4451C31.4 28.3964 31.4396 28.3693 31.4807 28.3693C31.5219 28.3693 31.5615 28.3964 31.5913 28.4451C31.6212 28.4938 31.639 28.5604 31.6411 28.631Z" fill="#FF4848"/>
<path d="M31.6411 35.8321V39.7896C31.639 39.8602 31.6212 39.9268 31.5913 39.9755C31.5615 40.0242 31.5219 40.0513 31.4807 40.0513C31.4396 40.0513 31.4 40.0242 31.3702 39.9755C31.3403 39.9268 31.3225 39.8602 31.3204 39.7896V35.8321C31.3225 35.7615 31.3403 35.6949 31.3702 35.6462C31.4 35.5975 31.4396 35.5704 31.4807 35.5704C31.5219 35.5704 31.5615 35.5975 31.5913 35.6462C31.6212 35.6949 31.639 35.7615 31.6411 35.8321Z" fill="#FF4848"/>
<path d="M31.6411 43.007V46.9637C31.639 47.0344 31.6212 47.1009 31.5913 47.1496C31.5615 47.1983 31.5219 47.2255 31.4807 47.2255C31.4396 47.2255 31.4 47.1983 31.3702 47.1496C31.3403 47.1009 31.3225 47.0344 31.3204 46.9637V43.007C31.3225 42.9363 31.3403 42.8698 31.3702 42.8211C31.4 42.7724 31.4396 42.7452 31.4807 42.7452C31.5219 42.7452 31.5615 42.7724 31.5913 42.8211C31.6212 42.8698 31.639 42.9363 31.6411 43.007Z" fill="#FF4848"/>
<path d="M29.8257 37.7939L28.1906 35.6196C28.1606 35.5676 28.1438 35.4975 28.1438 35.4243C28.1438 35.3512 28.1606 35.281 28.1906 35.2291C28.2211 35.1787 28.2617 35.1505 28.304 35.1505C28.3463 35.1505 28.387 35.1787 28.4174 35.2291C28.4174 35.2291 30.1388 37.5049 30.1949 37.5925C30.3224 37.8253 30.1907 37.9998 30.0925 38.1304L28.4153 40.3581C28.3847 40.4078 28.3441 40.4355 28.3019 40.4355C28.2597 40.4355 28.2191 40.4078 28.1885 40.3581C28.1584 40.3064 28.1416 40.2363 28.1416 40.1632C28.1416 40.0901 28.1584 40.02 28.1885 39.9683C28.7362 39.2433 29.282 38.5185 29.8257 37.7939Z" fill="black"/>
<path d="M29.8257 30.6084L28.1906 28.434C28.1606 28.3823 28.1437 28.3122 28.1437 28.2391C28.1437 28.166 28.1606 28.096 28.1906 28.0442C28.221 27.9937 28.2617 27.9654 28.304 27.9654C28.3464 27.9654 28.387 27.9937 28.4174 28.0442C28.9502 28.7522 30.1388 30.3201 30.1949 30.4069C30.3224 30.6398 30.1907 30.8149 30.0925 30.9456L28.4153 33.1725C28.3847 33.2226 28.3441 33.2505 28.3019 33.2505C28.2597 33.2505 28.219 33.2226 28.1885 33.1725C28.1584 33.1208 28.1416 33.0507 28.1416 32.9776C28.1416 32.9046 28.1584 32.8345 28.1885 32.7828L29.8257 30.6084Z" fill="black"/>
<path d="M29.8257 23.2582L28.1906 21.0839C28.1606 21.0321 28.1437 20.9621 28.1437 20.889C28.1437 20.8159 28.1606 20.7458 28.1906 20.6941C28.2211 20.6437 28.2617 20.6155 28.304 20.6155C28.3463 20.6155 28.387 20.6437 28.4174 20.6941C28.9502 21.4021 30.1388 22.9699 30.1949 23.0575C30.3224 23.2896 30.1907 23.4648 30.0925 23.5955L28.4153 25.8231C28.3846 25.8731 28.3438 25.901 28.3015 25.901C28.2591 25.901 28.2184 25.8731 28.1876 25.8231C28.1727 25.7975 28.1609 25.7672 28.1528 25.7337C28.1447 25.7003 28.1405 25.6644 28.1405 25.6282C28.1405 25.592 28.1447 25.5562 28.1528 25.5227C28.1609 25.4893 28.1727 25.4589 28.1876 25.4333L29.8257 23.2582Z" fill="black"/>
<path d="M13.4619 37.4539L15.137 35.2262C15.1676 35.1765 15.2082 35.1488 15.2504 35.1488C15.2926 35.1488 15.3331 35.1765 15.3638 35.2262C15.3939 35.2781 15.4108 35.3483 15.4108 35.4215C15.4108 35.4947 15.3939 35.5649 15.3638 35.6167L13.7282 37.7904L15.3638 39.9655C15.3939 40.0172 15.4107 40.0873 15.4107 40.1604C15.4107 40.2335 15.3939 40.3035 15.3638 40.3553C15.3333 40.4057 15.2927 40.4338 15.2504 40.4338C15.2081 40.4338 15.1674 40.4057 15.137 40.3553C15.137 40.3553 13.4156 38.0794 13.3595 37.9918C13.2338 37.7619 13.3638 37.5875 13.4619 37.4539Z" fill="black"/>
<path d="M14.9828 30.8073C14.8554 30.5744 14.987 30.3993 15.0852 30.2693L16.7603 28.0417C16.7909 27.9919 16.8315 27.9642 16.8737 27.9642C16.9159 27.9642 16.9564 27.9919 16.9871 28.0417C17.0172 28.0934 17.034 28.1635 17.034 28.2366C17.034 28.3096 17.0172 28.3797 16.9871 28.4314L15.352 30.6058L16.988 32.7824C17.018 32.8342 17.0349 32.9044 17.0349 32.9776C17.0349 33.0508 17.018 33.121 16.988 33.1729C16.9574 33.2231 16.9168 33.2512 16.8745 33.2512C16.8323 33.2512 16.7916 33.2231 16.7611 33.1729C16.2275 32.462 15.0389 30.8949 14.9828 30.8073Z" fill="black"/>
<path d="M18.7968 23.258L20.4323 25.4324C20.4623 25.4843 20.4791 25.5545 20.4791 25.6276C20.4791 25.7008 20.4623 25.7709 20.4323 25.8229C20.4018 25.8731 20.3612 25.9012 20.3189 25.9012C20.2766 25.9012 20.236 25.8731 20.2055 25.8229C19.6728 25.1142 18.4841 23.5471 18.428 23.4595C18.3006 23.2266 18.4323 23.0514 18.5304 22.9208L20.2055 20.6939C20.2361 20.644 20.2767 20.6161 20.3189 20.6161C20.3611 20.6161 20.4017 20.644 20.4323 20.6939C20.4624 20.7456 20.4792 20.8157 20.4792 20.8888C20.4792 20.9618 20.4624 21.0319 20.4323 21.0836L18.7968 23.258Z" fill="black"/>
<path d="M22.503 20.9275C22.7738 20.7569 23.0693 20.7391 23.3464 20.8767C23.6236 21.0143 23.8679 21.3002 24.044 21.6928C24.2201 22.0854 24.3187 22.5642 24.3255 23.0597C24.3324 23.5552 24.2471 24.0415 24.082 24.448C23.917 24.8545 23.6808 25.16 23.4077 25.32C23.1347 25.48 22.8391 25.4863 22.5639 25.3379C22.2886 25.1895 22.0481 24.8942 21.8773 24.4948C21.7064 24.0954 21.6141 23.6129 21.6139 23.1172C21.6134 22.6396 21.6985 22.1733 21.8575 21.7816C22.0166 21.3899 22.2419 21.0917 22.503 20.9275Z" fill="#CCEAFF"/>
<path d="M33.9122 13.0753C34.7925 13.9551 35.4975 15.2714 35.9347 16.8518C36.0248 17.1693 35.7478 17.4496 35.6578 17.1299C35.2338 15.6481 34.5719 14.4056 33.7503 13.549C33.7157 13.5103 33.6911 13.4503 33.6815 13.3813C33.672 13.3123 33.6783 13.2396 33.6991 13.1784C33.7199 13.1172 33.7537 13.0721 33.7934 13.0524C33.833 13.0328 33.8756 13.0402 33.9122 13.0731V13.0753Z" fill="black"/>
<path d="M34.1778 11.3965C35.3658 12.3504 36.3135 14.0092 36.8465 16.0679C36.9315 16.3897 36.6528 16.6708 36.5695 16.3467C36.0619 14.3714 35.1546 12.7794 34.0159 11.8658C33.8286 11.7191 33.9917 11.2432 34.1778 11.3965Z" fill="black"/>
<path d="M33.7864 21.0588V49.952C33.7903 50.6399 33.7132 51.3222 33.5598 51.9577C33.4064 52.5932 33.1798 53.1689 32.8936 53.6501C32.6074 54.1314 32.2676 54.5083 31.8945 54.7582C31.5214 55.0081 31.1228 55.1258 30.7225 55.1043C14.4989 55.1489 12.6828 55.1547 12.2096 55.0131C11.5702 54.804 10.9901 54.233 10.5618 53.3912C10.1334 52.5493 9.88151 51.4853 9.84628 50.3687C9.83821 50.1381 9.76684 46.693 9.84118 21.5668C9.83261 20.9227 9.86107 20.2788 9.92615 19.6443C10.0864 18.5934 10.4438 17.6625 10.9429 16.9955C11.4421 16.3286 12.0552 15.9628 12.6875 15.9546H30.8355C31.2284 15.9311 31.6199 16.0473 31.9854 16.296C32.351 16.5446 32.6827 16.9203 32.9597 17.3996C33.2368 17.8788 33.4532 18.4512 33.5954 19.0809C33.7377 19.7106 33.8027 20.384 33.7864 21.0588ZM30.94 16.5064H12.6871C12.0482 16.5159 11.4347 16.9373 10.968 17.6872C10.5014 18.437 10.2157 19.4606 10.1674 20.5552C10.1543 20.9201 10.1551 50.2133 10.1798 50.6206C10.2562 51.7059 10.5615 52.7055 11.0379 53.4301C11.5144 54.1547 12.1289 54.554 12.7652 54.5525H30.745C31.0884 54.5763 31.431 54.4836 31.7535 54.2798C32.076 54.0759 32.3719 53.7649 32.6244 53.3646C32.8769 52.9642 33.081 52.4822 33.225 51.9463C33.3691 51.4103 33.4502 50.8309 33.4639 50.241C33.4665 50.1074 33.4639 49.9731 33.4639 49.8396V21.0209C33.476 20.4371 33.4198 19.8551 33.2984 19.3095C33.1771 18.7638 32.9932 18.2656 32.7576 17.8444C32.522 17.4233 32.2396 17.0877 31.9271 16.8578C31.6145 16.6278 31.2783 16.5081 30.9383 16.5057L30.94 16.5064Z" fill="black"/>
<path d="M24.6206 32.4534C24.5671 32.5059 24.7731 32.6242 21.7662 32.4891C21.7385 32.4869 21.7116 32.4727 21.6879 32.4479C21.6642 32.4231 21.6446 32.3885 21.6307 32.3472C21.6169 32.3059 21.6093 32.2592 21.6087 32.2116C21.6081 32.164 21.6145 32.1168 21.6273 32.0745C22.0156 30.86 22.9591 28.1469 23.0165 27.9783C23.0388 27.9154 23.0747 27.8702 23.1163 27.8526C23.158 27.8351 23.202 27.8467 23.2387 27.8849C23.2926 27.9404 23.1868 27.6659 24.6831 32.0745C24.6935 32.1064 24.7002 32.1416 24.7027 32.1779C24.7052 32.2142 24.7036 32.2511 24.6977 32.2863C24.6919 32.3215 24.6821 32.3544 24.6689 32.3831C24.6557 32.4117 24.6393 32.4356 24.6206 32.4534ZM23.155 28.6652L22.0453 31.938H24.2646L23.155 28.6652Z" fill="black"/>
<path d="M21.0231 32.4534C20.9696 32.5059 21.1752 32.6242 18.1683 32.4891C18.1406 32.487 18.1136 32.4729 18.0899 32.448C18.0663 32.4232 18.0466 32.3885 18.0328 32.3472C18.019 32.3059 18.0115 32.2592 18.0109 32.2115C18.0104 32.1639 18.0169 32.1168 18.0298 32.0746C18.4181 30.86 19.3616 28.147 19.4186 27.9784C19.4296 27.9471 19.4441 27.9198 19.4613 27.8982C19.4784 27.8766 19.4979 27.861 19.5186 27.8523C19.5393 27.8436 19.5607 27.842 19.5818 27.8476C19.6028 27.8532 19.623 27.8659 19.6412 27.8849C19.7011 27.947 19.6046 27.7251 21.0856 32.0746C21.096 32.1065 21.1026 32.1416 21.1051 32.1779C21.1076 32.2142 21.1059 32.251 21.1001 32.2862C21.0943 32.3214 21.0845 32.3543 21.0713 32.383C21.0581 32.4117 21.0417 32.4356 21.0231 32.4534ZM19.557 28.6652L18.4474 31.9381H20.6667L19.557 28.6652Z" fill="black"/>
<path d="M21.8603 35.5715H24.0099C24.0522 35.5726 24.0926 35.6021 24.1226 35.6536C24.1525 35.7051 24.1695 35.7746 24.17 35.8474V39.5399C24.1695 39.6127 24.1525 39.6822 24.1226 39.7337C24.0926 39.7853 24.0522 39.8147 24.0099 39.8158C21.596 39.845 21.8237 39.8458 21.7473 39.7334C21.6789 39.6078 21.6836 39.8487 21.6997 35.8474C21.7002 35.7745 21.7173 35.7049 21.7473 35.6533C21.7773 35.6018 21.8179 35.5724 21.8603 35.5715ZM22.0209 39.264H23.8476V36.1255H22.0209V39.264Z" fill="black"/>
<path d="M18.627 35.5751L20.0157 39.6713C20.0262 39.7031 20.033 39.7381 20.0356 39.7744C20.0381 39.8107 20.0365 39.8475 20.0308 39.8827C20.0251 39.9179 20.0153 39.9508 20.0022 39.9795C19.989 40.0083 19.9727 40.0323 19.9541 40.0501C19.8976 40.1048 20.0773 40.0859 17.0993 40.0859C17.0717 40.0833 17.0449 40.069 17.0213 40.0441C16.9978 40.0192 16.9782 39.9845 16.9644 39.9433C16.9507 39.9021 16.9431 39.8556 16.9425 39.8081C16.9419 39.7606 16.9482 39.7135 16.9608 39.6713C16.9608 39.6713 18.2927 35.743 18.35 35.5751C18.3644 35.5341 18.3848 35.5003 18.409 35.4768C18.4333 35.4533 18.4607 35.4409 18.4885 35.4409C18.5164 35.4409 18.5437 35.4533 18.568 35.4768C18.5923 35.5003 18.6126 35.5341 18.627 35.5751ZM19.5981 39.5341L18.4885 36.2619L17.3784 39.5341H19.5981Z" fill="black"/>
<path d="M25.2 35.4416L27.3797 39.1868C27.4076 39.2392 27.4225 39.3081 27.4216 39.379C27.4206 39.4499 27.4038 39.5175 27.3746 39.5677C27.3454 39.6179 27.3061 39.6468 27.2648 39.6484C27.2235 39.6501 27.1834 39.6243 27.1529 39.5765C26.4137 38.3503 25.6869 37.1019 24.9727 35.8314C24.9434 35.7793 24.9272 35.7096 24.9276 35.6372C24.928 35.5648 24.9449 35.4956 24.9747 35.4445C25.0046 35.3933 25.0449 35.3644 25.087 35.3638C25.1291 35.3633 25.1697 35.3912 25.2 35.4416Z" fill="black"/>
<path d="M27.1529 25.2346C26.4137 24.0084 25.6869 22.7597 24.9727 21.4887C24.9434 21.4367 24.9272 21.3669 24.9276 21.2946C24.928 21.2222 24.9449 21.1529 24.9747 21.1018C25.0046 21.0507 25.0449 21.0217 25.087 21.0212C25.1291 21.0207 25.1697 21.0486 25.2 21.099L27.3797 24.8448C27.4076 24.8973 27.4225 24.9661 27.4216 25.0371C27.4206 25.108 27.4038 25.1756 27.3746 25.2258C27.3454 25.276 27.3061 25.3049 27.2648 25.3065C27.2235 25.3082 27.1834 25.2824 27.1529 25.2346Z" fill="black"/>
<path d="M27.1528 32.4342C26.4139 31.2066 25.6871 29.9579 24.9726 28.6884C24.9433 28.6363 24.9271 28.5666 24.9275 28.4942C24.9279 28.4218 24.9448 28.3526 24.9747 28.3015C25.0045 28.2503 25.0448 28.2214 25.0869 28.2208C25.1291 28.2203 25.1696 28.2482 25.1999 28.2986C25.9382 29.5263 26.6648 30.7747 27.3796 32.0438C27.409 32.0957 27.4252 32.1654 27.4249 32.2378C27.4246 32.3102 27.4078 32.3795 27.378 32.4307C27.3482 32.4819 27.3079 32.511 27.2658 32.5117C27.2237 32.5123 27.1831 32.4845 27.1528 32.4342Z" fill="black"/>
<path d="M31.3397 25.5733C31.2991 25.5709 31.2605 25.5422 31.2317 25.4929C31.2029 25.4436 31.1861 25.3774 31.1846 25.3076V21.3508C31.1867 21.2802 31.2046 21.2137 31.2344 21.165C31.2643 21.1163 31.3038 21.0891 31.345 21.0891C31.3862 21.0891 31.4257 21.1163 31.4556 21.165C31.4854 21.2137 31.5033 21.2802 31.5054 21.3508V25.3076C31.5047 25.3438 31.4998 25.3793 31.4911 25.4122C31.4824 25.4451 31.47 25.4748 31.4546 25.4995C31.4392 25.5241 31.4211 25.5434 31.4014 25.556C31.3817 25.5687 31.3607 25.5746 31.3397 25.5733Z" fill="black"/>
<path d="M31.3397 32.8556C31.299 32.8533 31.2604 32.8245 31.2316 32.775C31.2028 32.7255 31.186 32.6591 31.1846 32.5892V28.631C31.1867 28.5604 31.2046 28.4938 31.2344 28.4451C31.2643 28.3964 31.3038 28.3693 31.345 28.3693C31.3862 28.3693 31.4257 28.3964 31.4556 28.4451C31.4854 28.4938 31.5033 28.5604 31.5054 28.631V32.5878C31.5048 32.6241 31.5 32.6598 31.4913 32.6929C31.4827 32.7261 31.4703 32.7559 31.4549 32.7808C31.4395 32.8057 31.4214 32.8251 31.4016 32.838C31.3819 32.8508 31.3608 32.8568 31.3397 32.8556Z" fill="black"/>
<path d="M31.3388 40.0552C31.2984 40.0525 31.26 40.0236 31.2314 39.9744C31.2028 39.9251 31.1861 39.8591 31.1846 39.7896V35.832C31.1867 35.7614 31.2046 35.6949 31.2344 35.6462C31.2643 35.5975 31.3038 35.5703 31.345 35.5703C31.3862 35.5703 31.4257 35.5975 31.4556 35.6462C31.4854 35.6949 31.5033 35.7614 31.5054 35.832V39.7896C31.5046 39.8258 31.4997 39.8614 31.4909 39.8944C31.4821 39.9274 31.4696 39.957 31.4542 39.9817C31.4387 40.0064 31.4205 40.0256 31.4008 40.0382C31.381 40.0508 31.3599 40.0566 31.3388 40.0552Z" fill="black"/>
<path d="M31.3397 47.2303C31.299 47.2278 31.2604 47.1989 31.2317 47.1495C31.2029 47.1001 31.1861 47.0338 31.1846 46.9639V43.0071C31.1867 42.9365 31.2046 42.87 31.2344 42.8213C31.2643 42.7726 31.3038 42.7454 31.345 42.7454C31.3862 42.7454 31.4257 42.7726 31.4556 42.8213C31.4854 42.87 31.5033 42.9365 31.5054 43.0071V46.9639C31.5039 47.037 31.4857 47.1061 31.4546 47.156C31.4235 47.206 31.3822 47.2327 31.3397 47.2303Z" fill="black"/>
<path d="M29.9579 38.1305L28.2806 40.3582C28.25 40.4079 28.2094 40.4357 28.1672 40.4357C28.125 40.4357 28.0845 40.4079 28.0538 40.3582C28.0238 40.3065 28.0069 40.2364 28.0069 40.1633C28.0069 40.0903 28.0238 40.0202 28.0538 39.9684C28.0916 39.9181 29.1821 38.4685 29.6889 37.7933L28.0538 35.6197C28.0237 35.5678 28.0068 35.4976 28.0068 35.4244C28.0068 35.3513 28.0237 35.281 28.0538 35.2292C28.0843 35.1788 28.1249 35.1506 28.1672 35.1506C28.2095 35.1506 28.2502 35.1788 28.2806 35.2292C28.2806 35.2292 30.002 37.505 30.0581 37.5926C30.1856 37.8254 30.056 38.0006 29.9579 38.1305Z" fill="black"/>
<path d="M29.9576 30.9453L28.2804 33.1723C28.2498 33.2223 28.2092 33.2503 28.167 33.2503C28.1247 33.2503 28.0841 33.2223 28.0535 33.1723C28.0235 33.1205 28.0066 33.0505 28.0066 32.9774C28.0066 32.9043 28.0235 32.8342 28.0535 32.7825L29.6908 30.6081L28.0557 28.4338C28.0256 28.382 28.0088 28.3119 28.0088 28.2389C28.0088 28.1658 28.0256 28.0957 28.0557 28.044C28.0861 27.9934 28.1268 27.9651 28.1691 27.9651C28.2114 27.9651 28.2521 27.9934 28.2825 28.044C28.8152 28.752 30.0039 30.3198 30.06 30.4067C30.1853 30.6395 30.0557 30.8118 29.9576 30.9453Z" fill="black"/>
<path d="M29.9576 23.5952L28.2804 25.8221C28.2498 25.8722 28.2092 25.9001 28.167 25.9001C28.1247 25.9001 28.0841 25.8722 28.0535 25.8221C28.0235 25.7704 28.0066 25.7003 28.0066 25.6273C28.0066 25.5542 28.0235 25.4841 28.0535 25.4324L29.6908 23.258L28.0557 21.0836C28.0256 21.0319 28.0088 20.9618 28.0088 20.8887C28.0088 20.8157 28.0256 20.7456 28.0557 20.6939C28.0861 20.6435 28.1268 20.6153 28.1691 20.6153C28.2114 20.6153 28.252 20.6435 28.2825 20.6939C28.8152 21.4019 30.0039 22.9697 30.06 23.0573C30.1853 23.2894 30.0557 23.4646 29.9576 23.5952Z" fill="black"/>
<path d="M15.2286 35.2292C15.2586 35.281 15.2755 35.3512 15.2755 35.4244C15.2755 35.4976 15.2586 35.5678 15.2286 35.6197L13.593 37.7933L15.2286 39.9677C15.2585 40.0196 15.2753 40.0898 15.2753 40.1629C15.2753 40.2361 15.2585 40.3062 15.2286 40.3582C15.198 40.4084 15.1574 40.4365 15.1151 40.4365C15.0729 40.4365 15.0322 40.4084 15.0017 40.3582C15.0017 40.3582 13.2803 38.0824 13.2242 37.9948C13.0968 37.7619 13.2281 37.5875 13.3266 37.4568L15.0017 35.2292C15.0324 35.1794 15.073 35.1517 15.1151 35.1517C15.1573 35.1517 15.1979 35.1794 15.2286 35.2292Z" fill="black"/>
<path d="M15.2168 30.6061L16.8528 32.7826C16.8828 32.8345 16.8997 32.9047 16.8997 32.9779C16.8997 33.0511 16.8828 33.1213 16.8528 33.1731C16.8222 33.2234 16.7816 33.2514 16.7393 33.2514C16.6971 33.2514 16.6564 33.2234 16.6259 33.1731C16.0932 32.4644 14.9045 30.8973 14.8484 30.8097C14.721 30.5769 14.8527 30.4017 14.9508 30.2718L16.6259 28.0441C16.6566 27.9944 16.6972 27.9667 16.7393 27.9667C16.7815 27.9667 16.8221 27.9944 16.8528 28.0441C16.8677 28.0696 16.8796 28.1 16.8877 28.1334C16.8958 28.1669 16.9 28.2028 16.9 28.239C16.9 28.2752 16.8958 28.3111 16.8877 28.3446C16.8796 28.378 16.8677 28.4084 16.8528 28.4339L15.2168 30.6061Z" fill="black"/>
<path d="M18.6619 23.258L20.2974 25.4324C20.3275 25.4841 20.3444 25.5542 20.3444 25.6273C20.3444 25.7004 20.3275 25.7705 20.2974 25.8222C20.2671 25.8729 20.2264 25.9013 20.184 25.9013C20.1417 25.9013 20.101 25.8729 20.0706 25.8222C19.5379 25.1142 18.3492 23.5471 18.2931 23.4595C18.1657 23.2267 18.2974 23.0515 18.3951 22.9208L20.0706 20.6939C20.1013 20.6442 20.1418 20.6165 20.184 20.6165C20.2262 20.6165 20.2668 20.6442 20.2974 20.6939C20.3275 20.7456 20.3444 20.8157 20.3444 20.8888C20.3444 20.9619 20.3275 21.0319 20.2974 21.0837L18.6619 23.258Z" fill="black"/>
<path d="M23.3022 25.3026C23.0503 25.4609 22.7768 25.4874 22.5162 25.3787C22.2555 25.27 22.0195 25.031 21.8379 24.6919C21.6563 24.3528 21.5373 23.9288 21.4959 23.4735C21.4546 23.0182 21.4927 22.5521 21.6054 22.134C21.7182 21.7159 21.9006 21.3646 22.1295 21.1246C22.3584 20.8845 22.6236 20.7664 22.8916 20.7853C23.1596 20.8041 23.4183 20.959 23.6351 21.2304C23.8518 21.5018 24.0169 21.8775 24.1094 22.31C24.1708 22.5976 24.1987 22.9031 24.1914 23.2091C24.184 23.5152 24.1417 23.8158 24.0667 24.0937C23.9918 24.3716 23.8857 24.6214 23.7545 24.8289C23.6233 25.0363 23.4696 25.1973 23.3022 25.3026ZM23.1858 21.4385C23.0292 21.3423 22.8615 21.3122 22.6968 21.3507C22.532 21.3892 22.3751 21.4953 22.2392 21.6599C22.1033 21.8244 21.9924 22.0428 21.9159 22.2964C21.8394 22.5501 21.7995 22.8316 21.7996 23.1173C21.8011 23.484 21.8676 23.8412 21.9903 24.1412C22.1131 24.4411 22.2862 24.6696 22.4865 24.796C22.7451 24.9536 23.0295 24.9286 23.2773 24.7266C23.5252 24.5246 23.7163 24.162 23.8089 23.7182C23.9014 23.2745 23.8878 22.7859 23.771 22.3594C23.6542 21.9329 23.4438 21.6033 23.1858 21.4429V21.4385Z" fill="black"/>
<path d="M35.7999 16.851C35.8899 17.1693 35.6129 17.4488 35.5229 17.1298C35.1027 15.6435 34.44 14.3994 33.6154 13.5489C33.5794 13.5099 33.554 13.4479 33.5446 13.3766C33.5352 13.3053 33.5426 13.2305 33.5653 13.1687C33.5867 13.1088 33.6208 13.0655 33.6603 13.0477C33.6999 13.0299 33.7419 13.039 33.7777 13.0731C34.6575 13.9545 35.3622 15.2711 35.7999 16.851Z" fill="black"/>
<path d="M36.4343 16.3496C35.9223 14.3797 35.0165 12.7901 33.8811 11.8687C33.6938 11.7228 33.8569 11.2432 34.043 11.3928C35.2302 12.3507 36.1774 14.0099 36.7117 16.0679C36.7946 16.3927 36.518 16.6737 36.4343 16.3496Z" fill="black"/>
</svg>
