<svg width="83" height="82" viewBox="0 0 83 82" fill="none" xmlns="http://www.w3.org/2000/svg">
<path d="M5.49767 68.4461V75.6003C5.49968 75.7268 5.53505 75.8473 5.59644 75.9367C5.65783 76.0261 5.74051 76.0777 5.8273 76.0806C7.39439 76.0643 0.0988822 76.3006 21.402 76.0806C21.489 76.0786 21.572 76.0274 21.6335 75.9378C21.6951 75.8481 21.7302 75.7271 21.7316 75.6003V58.8309C21.7302 58.7042 21.6951 58.5832 21.6335 58.4935C21.572 58.4039 21.489 58.3526 21.402 58.3507C20.0412 58.3363 18.6396 58.3507 9.86468 58.3507C27.6558 17.2485 26.9682 18.8017 27.0335 18.6989C27.0672 18.6451 27.1142 18.6128 27.1643 18.6092C27.2143 18.6056 27.2632 18.631 27.3005 18.6797C27.3664 18.7671 27.2345 18.502 39.3981 46.6069C38.7703 47.3496 38.2516 48.2688 37.8729 49.3098C37.4941 50.3508 37.2631 51.4922 37.1935 52.6661C37.1599 53.8322 37.6036 55.7716 38.6525 55.5065C39.2966 55.3441 39.5616 54.2404 39.8497 53.521C40.0435 53.0407 40.267 52.5758 40.474 52.1042C40.1525 53.5971 40.0118 55.1602 40.058 56.7235C38.0097 56.7109 35.9891 57.4134 34.1655 58.7723C33.7464 59.0456 33.3831 59.4724 33.1109 60.0111C32.8387 60.5498 32.6669 61.182 32.6122 61.8461V72.6149C32.6182 74.4016 33.7725 75.6781 34.9019 76.4149C37.6906 78.2332 41.1505 78.3466 44.1495 77.5676C45.4264 77.2405 46.6448 76.5406 47.7313 75.51C48.0689 75.1982 48.3537 74.7791 48.5644 74.2843C48.7752 73.7894 48.9064 73.2316 48.9483 72.6524C48.9569 72.5112 48.9536 72.7532 48.9536 68.6863C48.9536 68.6863 54.1098 80.5664 54.4341 81.3483C54.3831 81.3402 54.3314 81.3468 54.2822 81.3678C54.2329 81.3888 54.1869 81.4238 54.1469 81.4707C54.1069 81.5177 54.0737 81.5757 54.0491 81.6413C54.0245 81.707 54.0091 81.7791 54.0036 81.8536C54.0019 81.9009 54.0019 81.9484 54.0036 81.9957C54.0036 81.9957 0.984942 82.0053 0.386323 81.9957C0.405798 81.8018 0.386098 81.6039 0.329627 81.4261C0.295226 81.343 0.24697 81.2739 0.189344 81.2252C0.131718 81.1765 0.0665895 81.1498 -9.66019e-06 81.1475L5.49767 68.4461Z" fill="#FFF0B3"/>
<path d="M47.3443 64.967C47.6924 64.6805 48.0115 64.3249 48.2924 63.9104V67.16L47.3443 64.967Z" fill="#FC9070"/>
<path d="M45.41 34.5308C45.4118 27.4492 47.2966 20.644 50.6686 15.5438C54.0407 10.4437 58.6377 7.44521 63.4947 7.17797C68.3516 6.91073 73.0908 9.39547 76.7172 14.1106C80.3437 18.8257 82.5753 25.4044 82.9437 32.4656C82.9793 33.1544 83.0096 33.8517 82.9971 34.5433V68.8784C82.9966 68.95 82.9769 69.0185 82.9421 69.0691C82.9073 69.1198 82.8604 69.1485 82.8112 69.1493H49.154L48.9563 68.6863C48.9563 61.4427 48.9655 61.8663 48.9464 61.7703C48.9464 60.1143 47.8164 59.0039 46.778 58.3056C46.8528 57.4352 47.1169 56.6226 47.5316 55.9868C47.7506 55.7433 48.0139 55.5989 48.2888 55.5718C48.5637 55.5446 48.838 55.6358 49.0776 55.834C49.6537 56.3767 50.1892 57.0061 50.675 57.7119C53.7301 61.4417 57.4161 63.9089 61.3485 64.856C65.281 65.8032 69.3158 65.1957 73.0322 63.0968C73.0595 63.0852 73.0846 63.0648 73.1057 63.0371C73.1268 63.0094 73.1433 62.975 73.154 62.9367C73.1647 62.8984 73.1694 62.857 73.1676 62.8157C73.1658 62.7744 73.1576 62.7342 73.1436 62.6982C71.4955 59.3699 69.5836 56.0703 63.9415 45.6406C63.9186 45.6058 63.8896 45.5808 63.8576 45.5684C63.8256 45.5561 63.7919 45.5568 63.7602 45.5705C61.7448 46.6982 59.5264 45.6983 57.5406 44.9173C53.5191 43.3353 49.5568 41.5266 45.41 42.4727V34.5308ZM73.1581 62.4331C73.1696 62.4942 73.1892 62.5514 73.2159 62.6014C73.2425 62.6514 73.2757 62.6932 73.3135 62.7245C73.3513 62.7557 73.393 62.7758 73.4361 62.7834C73.4793 62.7911 73.5231 62.7863 73.5649 62.7693C73.8945 62.5772 74.2281 62.3687 74.5538 62.1497C74.5914 62.1179 74.6243 62.0756 74.6506 62.0253C74.677 61.9749 74.6962 61.9174 74.7072 61.8562C74.7182 61.795 74.7209 61.7311 74.7149 61.6684C74.7089 61.6057 74.6945 61.5453 74.6725 61.4908C74.6271 61.3823 74.5546 61.3036 74.4703 61.2714C74.386 61.2391 74.2963 61.2558 74.2202 61.3179C73.946 61.5016 73.6689 61.6755 73.3889 61.8394C73.3052 61.8757 73.2344 61.9578 73.1914 62.0685C73.1484 62.1792 73.1364 62.3099 73.1581 62.4331ZM64.1993 45.9413C64.2107 46.0024 64.2303 46.0596 64.257 46.1096C64.2837 46.1596 64.3169 46.2014 64.3547 46.2327C64.3925 46.2639 64.4341 46.284 64.4773 46.2917C64.5204 46.2993 64.5642 46.2945 64.6061 46.2775C65.4416 45.7874 66.1783 44.9971 66.7477 43.9803C67.317 42.9635 67.7005 41.7532 67.8622 40.4623C67.884 40.339 67.8721 40.2083 67.8289 40.0977C67.7857 39.987 67.7147 39.9052 67.6308 39.8696C67.5889 39.8526 67.5452 39.8477 67.502 39.8554C67.4589 39.8631 67.4172 39.8832 67.3794 39.9144C67.3416 39.9457 67.3084 39.9875 67.2817 40.0375C67.2551 40.0875 67.2355 40.1447 67.224 40.2058C67.0925 41.3358 66.7676 42.3993 66.2794 43.298C65.7911 44.1967 65.1553 44.9016 64.4307 45.3477C64.3469 45.3837 64.2759 45.4657 64.2328 45.5764C64.1896 45.6872 64.1776 45.8179 64.1993 45.9413Z" fill="#FC9070"/>
<path d="M43.2773 55.5746L43.6999 56.5496C43.7045 56.711 43.7104 56.8714 43.7164 57.0299C43.4147 56.9498 43.1103 56.8921 42.8046 56.857C42.8956 56.6111 43.21 55.7543 43.2773 55.5746Z" fill="#FFF0B3"/>
<path d="M47.3443 64.967L48.2924 67.158V70.4239C47.9317 69.8869 47.5138 69.4383 47.0549 69.0955C44.3835 67.1167 40.9303 66.8862 37.9747 67.5115C36.3978 67.8439 34.3751 68.7506 33.2741 70.4412V63.9315C36.0437 67.7737 43.986 67.8535 47.3443 64.967Z" fill="#FFF0B3"/>
<path d="M49.9827 1.62024C50.2765 1.17343 50.6303 0.819606 51.022 0.580848C51.4138 0.34209 51.8351 0.223521 52.2597 0.232534C52.6843 0.241546 53.1031 0.377951 53.4899 0.633236C53.8767 0.88852 54.2233 1.25721 54.508 1.71629L54.5179 1.74031C54.4936 1.70516 54.4618 1.68314 54.4277 1.6779C54.3937 1.67266 54.3594 1.68451 54.3306 1.71149C54.2647 1.73358 54.268 1.75279 49.3096 5.58157C49.1659 5.71029 49.251 5.97252 49.214 5.82747C49.0912 5.08842 49.0972 4.31636 49.2315 3.58155C49.3657 2.84674 49.624 2.17252 49.9827 1.62024Z" fill="black"/>
<path d="M49.2252 5.8621C49.2182 5.8084 49.2224 5.75282 49.2375 5.70273C49.2526 5.65265 49.2777 5.61041 49.3096 5.58162C54.2858 1.73939 54.2641 1.73459 54.3307 1.71154C54.3634 1.68216 54.4024 1.67113 54.4404 1.6805C54.4784 1.68986 54.5127 1.71898 54.537 1.76245C54.8461 2.27275 55.0719 2.8784 55.1975 3.53397C55.3231 4.18954 55.3451 4.87803 55.2621 5.5478C55.179 6.21758 54.9929 6.85126 54.7178 7.40134C54.4427 7.95141 54.0857 8.4036 53.6736 8.724C53.2614 9.0444 52.8048 9.2247 52.3381 9.25138C51.8713 9.27805 51.4064 9.15041 50.9783 8.87802C50.5502 8.60563 50.17 8.19556 49.8661 7.67857C49.5623 7.16158 49.3427 6.55108 49.2239 5.89284L49.2252 5.8621Z" fill="#FFD2D2"/>
<path d="M48.0893 6.25111C48.4651 5.96294 48.8 6.79286 48.4229 7.08391L45.683 9.19713C45.3072 9.4853 44.9723 8.65538 45.3487 8.36433L48.0893 6.25111Z" fill="black"/>
<path d="M73.3889 61.8394C73.6684 61.6742 73.9455 61.5004 74.2202 61.3179C74.2963 61.2558 74.386 61.2391 74.4703 61.2714C74.5546 61.3036 74.6271 61.3823 74.6725 61.4908C74.6945 61.5453 74.7089 61.6057 74.7149 61.6684C74.7209 61.7311 74.7183 61.795 74.7072 61.8562C74.6962 61.9174 74.677 61.9749 74.6506 62.0253C74.6243 62.0756 74.5914 62.1179 74.5538 62.1497C74.2281 62.3687 73.8946 62.5723 73.5649 62.7693C73.5231 62.7863 73.4793 62.7911 73.4362 62.7834C73.393 62.7758 73.3513 62.7557 73.3135 62.7245C73.2757 62.6932 73.2425 62.6514 73.2159 62.6014C73.1892 62.5514 73.1696 62.4942 73.1581 62.4331C73.1364 62.3099 73.1484 62.1792 73.1914 62.0685C73.2344 61.9578 73.3052 61.8757 73.3889 61.8394Z" fill="black"/>
<path d="M64.6047 46.2775C64.5629 46.2945 64.5191 46.2993 64.4759 46.2917C64.4328 46.284 64.3911 46.2639 64.3533 46.2327C64.3155 46.2014 64.2823 46.1596 64.2557 46.1096C64.229 46.0596 64.2094 46.0024 64.1979 45.9413C64.1763 45.8179 64.1883 45.6871 64.2314 45.5764C64.2746 45.4657 64.3455 45.3837 64.4293 45.3476C65.154 44.9016 65.7898 44.1967 66.278 43.298C66.7662 42.3993 67.0911 41.3358 67.2227 40.2058C67.2341 40.1447 67.2537 40.0875 67.2804 40.0375C67.3071 39.9875 67.3403 39.9456 67.3781 39.9144C67.4159 39.8832 67.4575 39.8631 67.5007 39.8554C67.5438 39.8477 67.5876 39.8526 67.6295 39.8696C67.7133 39.9052 67.7843 39.987 67.8275 40.0976C67.8707 40.2083 67.8827 40.339 67.8609 40.4623C67.6991 41.7532 67.3157 42.9635 66.7463 43.9803C66.177 44.9971 65.4402 45.7874 64.6047 46.2775Z" fill="black"/>
<path d="M21.7342 47.1007V46.6204H26.8271V54.5181C26.8271 54.6455 26.8618 54.7676 26.9237 54.8577C26.9855 54.9478 27.0693 54.9984 27.1568 54.9984C27.2442 54.9984 27.328 54.9478 27.3898 54.8577C27.4517 54.7676 27.4864 54.6455 27.4864 54.5181V46.6185H32.6122V47.0987C32.6157 47.2054 32.6431 47.3074 32.6902 47.3893C32.7372 47.4711 32.8014 47.5283 32.8728 47.552C32.9443 47.5757 33.0191 47.5648 33.0858 47.5207C33.1526 47.4767 33.2076 47.402 33.2425 47.3081C33.2023 47.434 28.7779 53.399 27.4073 55.2664C27.3424 55.3483 27.2594 55.3935 27.1736 55.3935C27.0877 55.3935 27.0047 55.3483 26.9398 55.2664C25.0748 52.7257 21.1422 47.4253 21.1046 47.3081C21.1393 47.4022 21.1941 47.477 21.2608 47.5213C21.3274 47.5656 21.4022 47.5768 21.4736 47.5533C21.545 47.5297 21.6092 47.4727 21.6563 47.391C21.7033 47.3092 21.7307 47.2073 21.7342 47.1007Z" fill="#FFD2D2"/>
<path d="M32.6122 47.1006V37.6555L33.1772 36.887C33.2116 36.8406 33.2379 36.783 33.2541 36.7189C33.2703 36.6548 33.2758 36.586 33.2702 36.5182C33.2741 36.6142 33.2952 47.0737 33.2425 47.3081C33.2076 47.4019 33.1527 47.4765 33.0861 47.5206C33.0195 47.5647 32.9448 47.5759 32.8734 47.5524C32.802 47.5289 32.7378 47.472 32.6907 47.3904C32.6435 47.3089 32.616 47.2071 32.6122 47.1006Z" fill="black"/>
<path d="M21.7342 37.6555V47.1007C21.7369 47.2281 21.7048 47.3518 21.6449 47.4447C21.585 47.5375 21.5022 47.5919 21.4148 47.5958C21.3274 47.5998 21.2425 47.553 21.1787 47.4657C21.115 47.3784 21.0777 47.2578 21.0749 47.1305C21.069 46.9499 21.0677 36.7055 21.0749 36.5211C21.0692 36.5888 21.0747 36.6575 21.0908 36.7215C21.107 36.7855 21.1334 36.8429 21.1679 36.889L21.7342 37.6555Z" fill="black"/>
<path d="M26.9398 44.7204C27.0048 44.8022 27.0877 44.8472 27.1736 44.8472C27.2594 44.8472 27.3423 44.8022 27.4073 44.7204L27.489 44.6099V54.5181C27.489 54.6455 27.4543 54.7676 27.3925 54.8577C27.3306 54.9478 27.2468 54.9984 27.1594 54.9984C27.072 54.9984 26.9881 54.9478 26.9263 54.8577C26.8645 54.7676 26.8297 54.6455 26.8297 54.5181V44.5638L26.9398 44.7204Z" fill="black"/>
<path d="M21.4032 36.0667C33.7204 35.9812 33.0117 36.0129 33.1429 36.1762C33.1794 36.2177 33.2095 36.2698 33.2312 36.3293C33.253 36.3888 33.2659 36.4542 33.2691 36.5215C33.2723 36.5887 33.2658 36.6561 33.25 36.7195C33.2341 36.7828 33.2093 36.8405 33.1772 36.889C32.9886 37.1435 27.4072 44.7156 27.4072 44.7156C27.331 44.8033 27.2352 44.8471 27.1383 44.8385C26.9583 44.826 27.3901 45.3006 21.1699 36.889C21.1259 36.8204 21.0965 36.7349 21.085 36.6426C21.0735 36.5503 21.0805 36.4552 21.1051 36.3685C21.1297 36.2818 21.1709 36.2073 21.2237 36.1538C21.2766 36.1003 21.3389 36.0701 21.4032 36.0667Z" fill="#A982F4"/>
<path d="M5.61831 65.2196C5.7561 65.4118 4.76785 65.5165 21.4033 65.3378C21.4903 65.3358 21.5733 65.2846 21.6349 65.1949C21.6964 65.1053 21.7316 64.9843 21.7329 64.8575V75.6013C21.7314 75.728 21.6962 75.8489 21.6347 75.9385C21.5732 76.0281 21.4902 76.0794 21.4033 76.0816H5.82862C5.74183 76.0787 5.65915 76.0271 5.59776 75.9377C5.53637 75.8483 5.501 75.7278 5.49898 75.6013V64.8556C5.49878 64.9254 5.50941 64.9945 5.53007 65.0575C5.55073 65.1205 5.58089 65.176 5.61831 65.2196ZM10.6163 66.6211L8.0418 69.8918C8.011 69.9364 7.98656 69.9895 7.96989 70.0479C7.95321 70.1064 7.94463 70.169 7.94463 70.2323C7.94463 70.2956 7.95321 70.3583 7.96989 70.4167C7.98656 70.4751 8.011 70.5282 8.0418 70.5728L10.6163 73.8435C10.9367 74.2489 11.4074 73.5698 11.0843 73.1615L8.77689 70.2318L11.0843 67.3031C11.4061 66.89 10.936 66.2109 10.6163 66.6211ZM15.1158 68.4356C14.8536 67.9716 14.4969 67.6412 14.0972 67.4925C13.6976 67.3438 13.2758 67.3844 12.893 67.6084C12.5103 67.8324 12.1864 68.2283 11.9684 68.7385C11.7504 69.2487 11.6497 69.8468 11.6807 70.4461C11.7117 71.0454 11.8729 71.6147 12.141 72.0716C12.409 72.5284 12.7699 72.8489 13.1714 72.9868C13.5729 73.1246 13.9941 73.0726 14.3739 72.8382C14.7538 72.6038 15.0725 72.1993 15.2839 71.6832C15.4899 71.1822 15.5844 70.6005 15.5543 70.0181C15.5242 69.4357 15.371 68.8812 15.1158 68.4308V68.4356ZM19.1901 69.8918L16.6156 66.6211C16.2959 66.2157 15.8245 66.8948 16.1476 67.3031L18.455 70.2328L16.1476 73.1615C15.8258 73.5698 16.2959 74.2489 16.6156 73.8435L19.1901 70.5728C19.2214 70.5281 19.2463 70.4747 19.2632 70.4159C19.2802 70.357 19.2889 70.2938 19.2889 70.2299C19.2889 70.166 19.2802 70.1028 19.2632 70.0439C19.2463 69.9851 19.2214 69.9317 19.1901 69.887V69.8918Z" fill="#FFD2D2"/>
<path d="M33.2742 72.6112V70.4393C34.3751 68.7488 36.3978 67.8458 37.9748 67.5096C40.9283 66.8862 44.3822 67.1139 47.0549 69.0936C47.5138 69.4364 47.9317 69.885 48.2924 70.4221V72.6112C48.2963 72.7309 48.3307 72.8442 48.389 72.9288C48.4473 73.0134 48.5252 73.0632 48.6074 73.0684C48.6896 73.0736 48.7702 73.0338 48.8333 72.9568C48.8964 72.8798 48.9374 72.7713 48.9484 72.6525C48.9044 73.2308 48.7723 73.7875 48.5618 74.2819C48.3512 74.7763 48.0675 75.196 47.7313 75.5101C46.6448 76.5407 45.4264 77.2406 44.1495 77.5676C42.5064 78.0001 40.8319 78.1225 39.1674 77.9317C36.7683 77.6435 32.6241 76.1124 32.6122 72.6121C32.6122 72.7395 32.647 72.8617 32.7088 72.9517C32.7706 73.0418 32.8545 73.0924 32.9419 73.0924C33.0293 73.0924 33.1132 73.0418 33.175 72.9517C33.2368 72.8617 33.2715 72.7395 33.2715 72.6121L33.2742 72.6112ZM37.8706 69.0571C37.0136 69.9101 36.167 70.7919 35.2955 71.616C35.247 71.6601 35.207 71.7215 35.1793 71.7943C35.1515 71.8672 35.137 71.9491 35.137 72.0324C35.137 72.1157 35.1515 72.1977 35.1793 72.2705C35.207 72.3434 35.247 72.4047 35.2955 72.4488C36.167 73.273 37.0096 74.1548 37.8706 75.0077C38.2233 75.3593 38.5536 74.5275 38.2042 74.1759L36.0484 72.0329L38.2042 69.887C38.5536 69.5374 38.224 68.7027 37.8706 69.0533V69.0571ZM42.773 73.0511C40.8373 70.4249 40.9738 70.5652 40.8525 70.5536C40.7345 70.5642 40.8907 70.3952 38.9314 73.0511C38.8976 73.1036 38.8794 73.1733 38.8806 73.2452C38.8818 73.3171 38.9025 73.3854 38.938 73.4353C39.0158 73.5429 38.7362 73.5794 42.6418 73.5102C42.6777 73.5083 42.7124 73.4914 42.7419 73.4616C42.7715 73.4317 42.7945 73.3902 42.8083 73.3419C42.8221 73.2936 42.8261 73.2405 42.8198 73.189C42.8136 73.1374 42.7973 73.0896 42.773 73.0511ZM46.3106 71.6103C45.4397 70.7851 44.5965 69.9033 43.7362 69.0504C43.3828 68.6998 43.0525 69.5355 43.4019 69.8832L45.5584 72.0262L43.4019 74.1692C43.0518 74.5169 43.3834 75.3516 43.7362 75.001C44.5932 74.148 45.4397 73.2672 46.3106 72.4421C46.3582 72.3977 46.3974 72.3366 46.4245 72.2644C46.4516 72.1922 46.4658 72.1111 46.4657 72.0288C46.4657 71.9465 46.4514 71.8655 46.4241 71.7933C46.3969 71.7212 46.3576 71.6602 46.31 71.616L46.3106 71.6103Z" fill="#FFD2D2"/>
<path d="M33.2741 63.9315V72.6149C33.2741 72.7423 33.2394 72.8645 33.1776 72.9545C33.1157 73.0446 33.0319 73.0952 32.9445 73.0952C32.857 73.0952 32.7732 73.0446 32.7114 72.9545C32.6496 72.8645 32.6148 72.7423 32.6148 72.6149V61.8433C32.6375 62.6386 32.8744 63.3889 33.2741 63.9315Z" fill="black"/>
<path d="M5.82862 58.3488H21.4033C21.4903 58.3507 21.5733 58.402 21.6349 58.4916C21.6964 58.5813 21.7316 58.7023 21.7329 58.829V64.8536C21.7316 64.9804 21.6964 65.1014 21.6349 65.1911C21.5733 65.2807 21.4903 65.3319 21.4033 65.3339C5.16803 65.5011 5.71786 65.4232 5.58073 65.1601C5.46272 64.9785 5.46602 65.3829 5.49833 58.8271C5.50003 58.7005 5.53543 58.5799 5.59707 58.4906C5.6587 58.4013 5.74173 58.3505 5.82862 58.3488Z" fill="#FC9070"/>
<path d="M48.9484 72.6524C48.9374 72.7712 48.8964 72.8798 48.8333 72.9567C48.7702 73.0337 48.6896 73.0735 48.6074 73.0683C48.5252 73.0632 48.4473 73.0134 48.389 72.9288C48.3307 72.8442 48.2963 72.7308 48.2924 72.6111V63.9085C48.6751 63.3576 48.9091 62.6246 48.9517 61.8433C48.9537 73.3719 48.9569 72.5218 48.9484 72.6524Z" fill="black"/>
<path d="M34.1655 58.7724C35.9892 57.4135 38.0098 56.7109 40.0581 56.7235C40.0557 57.0524 40.112 57.3766 40.2215 57.6643C40.331 57.952 40.4899 58.1933 40.6826 58.3646C40.8754 58.5359 41.0954 58.6313 41.321 58.6415C41.5467 58.6517 41.7703 58.5763 41.97 58.4227C42.3508 58.035 42.6426 57.489 42.8072 56.8561C43.113 56.8913 43.4173 56.949 43.719 57.029C43.7296 57.296 43.7948 58.4621 43.8001 58.5284C43.798 58.9755 43.8567 59.4188 43.9729 59.8327C44.0891 60.2465 44.2605 60.6227 44.4772 60.9394C44.6754 61.213 44.9347 61.3733 45.2075 61.391C45.4804 61.4086 45.7484 61.2824 45.9625 61.0354C46.1727 60.72 46.3322 60.3404 46.4293 59.9241C46.5703 59.3962 46.6868 58.8552 46.778 58.3046C47.8032 58.9943 48.9536 60.1229 48.9464 61.7693C48.9378 63.3677 48.0096 64.504 47.0187 65.2273C44.2695 67.2214 38.9248 67.8208 34.9269 65.4722C32.2668 63.9075 31.7539 60.7674 34.1655 58.7724Z" fill="#78B5FF"/>
<path d="M38.0538 48.8883C39.0259 46.8775 40.3226 45.2459 41.8295 44.1374C43.0639 43.2181 44.4018 42.6299 45.7792 42.4007C49.8067 41.6399 53.614 43.3756 57.5406 44.9183C59.5263 45.6992 61.7448 46.6992 63.7602 45.5715C63.7919 45.5577 63.8256 45.557 63.8576 45.5694C63.8896 45.5818 63.9186 45.6067 63.9415 45.6416C65.1532 47.8835 72.5166 61.4351 73.1436 62.6992C73.1576 62.7352 73.1657 62.7754 73.1675 62.8167C73.1693 62.858 73.1647 62.8993 73.154 62.9377C73.1433 62.976 73.1268 63.0103 73.1057 63.038C73.0846 63.0658 73.0595 63.0862 73.0322 63.0978C69.599 65.0319 65.891 65.7005 62.2378 65.0443C58.5845 64.3881 55.0991 62.4273 52.0911 59.3362C50.3598 57.5304 50.3875 57.0684 49.0775 55.835C48.8379 55.6368 48.5636 55.5456 48.2888 55.5728C48.0139 55.5999 47.7505 55.7442 47.5315 55.9877C46.7028 56.906 46.8426 59.7147 45.9625 61.0374C45.7483 61.2843 45.4803 61.4106 45.2075 61.3929C44.9347 61.3753 44.6754 61.2149 44.4771 60.9413C44.2605 60.6246 44.0891 60.2485 43.9729 59.8346C43.8566 59.4208 43.7979 58.9775 43.8 58.5303C43.7064 57.1802 43.6685 55.823 43.6866 54.4662C43.5548 54.8351 42.6977 57.1654 42.6384 57.3181C42.4963 57.7759 42.2635 58.1612 41.9699 58.4247C41.8233 58.54 41.6625 58.612 41.4967 58.6366C41.331 58.6613 41.1635 58.638 41.0039 58.5683C40.8444 58.4985 40.6958 58.3835 40.5667 58.23C40.4377 58.0765 40.3307 57.8874 40.2518 57.6735C40.1454 57.3747 40.0802 57.0483 40.06 56.713C40.0145 55.1525 40.1555 53.5924 40.4766 52.1023C40.2696 52.5739 40.0461 53.036 39.8523 53.5191C39.5642 54.2386 39.2992 55.3442 38.6551 55.5046C37.3154 55.8446 36.4867 52.4625 38.0538 48.8883ZM42.6028 47.0632C42.213 47.3706 41.8467 47.7376 41.5104 48.1582C41.186 48.5617 41.6554 49.2389 41.9785 48.8393C42.2742 48.476 42.5955 48.1595 42.9371 47.8951C43.3102 47.6069 42.9753 46.7731 42.6002 47.0671L42.6028 47.0632ZM44.665 51.548L45.3638 50.5664C45.6711 50.1341 45.2023 49.454 44.8958 49.8844L44.1949 50.868C43.8877 51.3021 44.3551 51.9832 44.6624 51.5519L44.665 51.548ZM69.9501 61.3457C69.9044 61.2375 69.8318 61.1592 69.7474 61.127C69.6631 61.0948 69.5734 61.1112 69.4972 61.1728C68.7206 61.679 67.8808 61.9468 67.0302 61.9595C66.9427 61.9595 66.8589 62.0101 66.7971 62.1002C66.7353 62.1903 66.7005 62.3124 66.7005 62.4398C66.7005 62.5672 66.7353 62.6893 66.7971 62.7794C66.8589 62.8695 66.9427 62.9201 67.0302 62.9201C67.9993 62.9243 68.9567 62.6108 69.8314 62.0027C69.9058 61.938 69.9597 61.8331 69.9814 61.7108C70.0031 61.5886 69.9909 61.4588 69.9474 61.3496L69.9501 61.3457Z" fill="#FFD2D2"/>
<path d="M45.3639 50.5664L44.6624 51.5519C44.3559 51.9832 43.8878 51.3022 44.195 50.8709L44.8958 49.8844C45.2024 49.454 45.6737 50.1341 45.3639 50.5664Z" fill="black"/>
<path d="M42.9344 47.8989C42.5929 48.1633 42.2715 48.4798 41.9759 48.8431C41.6528 49.2427 41.1847 48.5655 41.5078 48.1621C41.8441 47.7415 42.2103 47.3744 42.6002 47.0671C42.9753 46.7731 43.3102 47.6069 42.9344 47.8989Z" fill="black"/>
<path d="M67.0276 61.9633C67.879 61.9607 68.7202 61.6925 69.4946 61.1767C69.5708 61.115 69.6604 61.0986 69.7448 61.1308C69.8292 61.163 69.9018 61.2414 69.9475 61.3496C69.9696 61.4042 69.9841 61.4646 69.9901 61.5274C69.9961 61.5903 69.9936 61.6542 69.9825 61.7155C69.9715 61.7769 69.9522 61.8345 69.9258 61.8849C69.8995 61.9353 69.8665 61.9777 69.8288 62.0095C68.9509 62.6041 67.9956 62.917 67.0276 62.9268C66.9486 62.8592 66.8902 62.7507 66.8639 62.623C66.8376 62.4952 66.8454 62.3577 66.8858 62.2381C66.9254 62.1386 66.973 62.0464 67.0276 61.9633Z" fill="black"/>
<path d="M12.9593 67.5634C13.3479 67.3601 13.7707 67.3425 14.1666 67.5129C14.5625 67.6834 14.9109 68.0332 15.1611 68.5115C15.4114 68.9899 15.5506 69.572 15.5585 70.1733C15.5664 70.7747 15.4426 71.3641 15.2051 71.8561C14.9677 72.3481 14.6288 72.7171 14.2377 72.9095C13.8465 73.102 13.4235 73.1079 13.0299 72.9265C12.6363 72.7451 12.2926 72.3857 12.0487 71.9005C11.8047 71.4153 11.6731 70.8295 11.6731 70.228C11.6728 69.6449 11.7963 69.0759 12.0265 68.5989C12.2568 68.1219 12.5826 67.7602 12.9593 67.5634Z" fill="black"/>
<path d="M16.6157 73.8387C16.2959 74.2441 15.8245 73.565 16.1476 73.1567L18.455 70.228L16.1476 67.2983C15.8258 66.8901 16.2959 66.2109 16.6157 66.6163L19.1901 69.887C19.2209 69.9316 19.2454 69.9847 19.262 70.0431C19.2787 70.1016 19.2873 70.1642 19.2873 70.2275C19.2873 70.2908 19.2787 70.3535 19.262 70.4119C19.2454 70.4703 19.2209 70.5234 19.1901 70.568L16.6157 73.8387Z" fill="black"/>
<path d="M8.77753 70.227L11.085 73.1567C11.4067 73.565 10.9373 74.2441 10.6169 73.8387L8.04244 70.568C8.01164 70.5234 7.9872 70.4704 7.97053 70.4119C7.95385 70.3535 7.94527 70.2908 7.94527 70.2275C7.94527 70.1642 7.95385 70.1016 7.97053 70.0431C7.9872 69.9847 8.01164 69.9316 8.04244 69.887L10.6162 66.6211C10.936 66.2158 11.4074 66.8949 11.0843 67.3031L8.77753 70.227Z" fill="black"/>
<path d="M43.7355 75.0038C43.3828 75.3544 43.0512 74.5236 43.4012 74.172L45.5577 72.029L43.4012 69.886C43.0518 69.5383 43.3821 68.7026 43.7355 69.0532C44.5925 69.9062 45.439 70.788 46.3099 71.6131C46.3586 71.6569 46.3988 71.7181 46.4266 71.7909C46.4545 71.8637 46.4691 71.9456 46.4691 72.029C46.4691 72.1123 46.4545 72.1943 46.4266 72.2671C46.3988 72.3399 46.3586 72.4011 46.3099 72.4449C45.439 73.27 44.5939 74.1509 43.7355 75.0038Z" fill="black"/>
<path d="M36.0483 72.029L38.2042 74.172C38.5536 74.5198 38.2233 75.3554 37.8706 75.0039C37.0135 74.1509 36.167 73.2701 35.2955 72.445C35.2469 72.4008 35.2069 72.3395 35.1792 72.2666C35.1515 72.1938 35.1369 72.1119 35.1369 72.0286C35.1369 71.9452 35.1515 71.8633 35.1792 71.7905C35.2069 71.7176 35.2469 71.6563 35.2955 71.6121C36.167 70.788 37.0096 69.9062 37.8706 69.0532C38.2226 68.7026 38.5542 69.5335 38.2042 69.886L36.0483 72.029Z" fill="black"/>
<path d="M38.9307 73.0511C40.8808 70.4048 40.7404 70.5613 40.8314 70.5536C40.886 70.5485 40.9401 70.5731 40.983 70.6228L42.7729 73.0511C42.8067 73.1036 42.8249 73.1733 42.8237 73.2452C42.8224 73.3171 42.8018 73.3854 42.7663 73.4353C42.6885 73.5429 42.9681 73.5813 39.0625 73.5102C39.0266 73.5085 38.9917 73.4917 38.9621 73.462C38.9325 73.4322 38.9094 73.3907 38.8955 73.3423C38.8816 73.294 38.8775 73.2408 38.8838 73.1892C38.89 73.1376 38.9063 73.0896 38.9307 73.0511Z" fill="black"/>
<path d="M12.2803 67.8938C12.6217 67.4794 13.0449 67.2346 13.4885 67.195C13.932 67.1555 14.3726 67.3232 14.7461 67.6739C15.1196 68.0246 15.4066 68.5398 15.5651 69.1446C15.7237 69.7494 15.7456 70.4121 15.6277 71.0363C15.5098 71.6605 15.2582 72.2136 14.9095 72.6149C14.5609 73.0163 14.1334 73.245 13.6893 73.2678C13.2452 73.2905 12.8078 73.1062 12.4406 72.7415C12.0735 72.3768 11.7958 71.8509 11.648 71.2403C11.506 70.6553 11.4904 70.0208 11.6034 69.4224C11.7165 68.824 11.9527 68.2905 12.2803 67.8938ZM12.2111 70.5949C12.259 70.9838 12.382 71.3447 12.5658 71.6352C12.7496 71.9258 12.9865 72.1339 13.2486 72.2352C13.5107 72.3365 13.7872 72.3268 14.0457 72.2071C14.3041 72.0874 14.5338 71.8628 14.7077 71.5596C14.8816 71.2564 14.9925 70.8873 15.0274 70.4954C15.0624 70.1036 15.0199 69.7054 14.9049 69.3475C14.7899 68.9897 14.6073 68.687 14.3784 68.4751C14.1495 68.2632 13.8839 68.1508 13.6127 68.1512C13.4048 68.154 13.1999 68.2225 13.012 68.352C12.8241 68.4815 12.6577 68.6689 12.5244 68.9013C12.3912 69.1337 12.2941 69.4055 12.24 69.6979C12.1859 69.9903 12.176 70.2963 12.2111 70.5949Z" fill="black"/>
<path d="M42.6411 73.7292H39.0619C38.9973 73.7266 38.9346 73.6969 38.8813 73.6435C38.8281 73.5902 38.7866 73.5154 38.7619 73.4284C38.7372 73.3414 38.7304 73.2459 38.7422 73.1533C38.754 73.0608 38.784 72.9752 38.8285 72.9069C39.4218 72.0972 40.0251 71.2941 40.6177 70.4796C40.6808 70.3922 40.7644 70.3434 40.8515 70.3434C40.9385 70.3434 41.0222 70.3922 41.0852 70.4796C42.3048 72.1567 42.8369 72.8291 42.8843 72.9261C42.9272 72.9949 42.9554 73.0804 42.9656 73.1721C42.9758 73.2638 42.9675 73.3578 42.9418 73.4428C42.916 73.5278 42.8739 73.6001 42.8205 73.6509C42.7672 73.7017 42.7048 73.7289 42.6411 73.7292ZM40.8511 71.4776L39.9024 72.7657H41.8005L40.8511 71.4776Z" fill="black"/>
<path d="M48.4235 7.08385L45.6829 9.19707C45.3071 9.48523 44.9722 8.65532 45.3487 8.36427L48.0893 6.25104C48.4651 5.96096 48.8 6.7928 48.4235 7.08385Z" fill="black"/>
<path d="M44.8958 49.8844C45.2023 49.454 45.6711 50.1341 45.3639 50.5664L44.6624 51.5519C44.3558 51.9832 43.8877 51.3022 44.1943 50.8709L44.8958 49.8844Z" fill="black"/>
<path d="M41.5078 48.162C41.8441 47.7414 42.2103 47.3744 42.6002 47.067C42.9746 46.7721 43.3102 47.6069 42.9338 47.8989C42.5925 48.1635 42.2714 48.48 41.9758 48.8431C41.6521 49.2427 41.1834 48.5626 41.5078 48.162Z" fill="black"/>
<path d="M67.0276 61.9633C67.879 61.9606 68.7202 61.6924 69.4946 61.1767C69.5708 61.115 69.6604 61.0986 69.7448 61.1308C69.8292 61.163 69.9018 61.2414 69.9475 61.3496C69.9696 61.4042 69.9841 61.4646 69.9901 61.5274C69.9961 61.5903 69.9936 61.6542 69.9825 61.7155C69.9715 61.7769 69.9522 61.8345 69.9258 61.8849C69.8995 61.9353 69.8665 61.9777 69.8288 62.0095C68.9509 62.6041 67.9956 62.917 67.0276 62.9268C66.9486 62.8592 66.8902 62.7507 66.8639 62.623C66.8376 62.4952 66.8454 62.3577 66.8858 62.2381C66.9254 62.1386 66.973 62.0464 67.0276 61.9633Z" fill="black"/>
<path d="M16.1475 73.1529C16.9171 72.1769 17.6863 71.2004 18.455 70.2232L16.1475 67.2944C15.8258 66.8862 16.2958 66.2071 16.6149 66.6134L19.1901 69.8793C19.2209 69.9239 19.2453 69.977 19.262 70.0354C19.2786 70.0938 19.2872 70.1565 19.2872 70.2198C19.2872 70.2831 19.2786 70.3457 19.262 70.4042C19.2453 70.4626 19.2209 70.5157 19.1901 70.5603L16.6149 73.831C16.2958 74.244 15.8258 73.5659 16.1475 73.1529Z" fill="black"/>
<path d="M10.6163 66.6211C10.936 66.2158 11.4074 66.8949 11.0843 67.3031L8.77688 70.2319L11.0843 73.1615C11.4061 73.5698 10.9367 74.2499 10.6163 73.8435L8.0418 70.5728C8.0109 70.5282 7.98638 70.4751 7.96964 70.4166C7.95291 70.358 7.94429 70.2953 7.94429 70.2319C7.94429 70.1685 7.95291 70.1057 7.96964 70.0471C7.98638 69.9886 8.0109 69.9355 8.0418 69.8909L10.6163 66.6211Z" fill="black"/>
<path d="M46.3099 72.4449C45.439 73.2691 44.5958 74.1509 43.7355 75.0048C43.3828 75.3544 43.0512 74.5245 43.4012 74.172L45.5577 72.029C44.8391 71.3143 44.1203 70.5997 43.4012 69.885C43.0518 69.5383 43.3828 68.7026 43.7355 69.0532C44.5925 69.9062 45.439 70.788 46.3099 71.6121C46.3586 71.6561 46.3988 71.7174 46.4266 71.7902C46.4544 71.8631 46.4691 71.9451 46.4691 72.0285C46.4691 72.1119 46.4544 72.1939 46.4266 72.2668C46.3988 72.3397 46.3586 72.401 46.3099 72.4449Z" fill="black"/>
<path d="M38.2041 69.8869C37.4855 70.6029 36.7669 71.3175 36.0483 72.0309L38.2041 74.1739C38.5536 74.5216 38.2233 75.3573 37.8706 75.0067C37.0135 74.1528 36.167 73.271 35.2954 72.4468C35.2469 72.4027 35.2069 72.3414 35.1792 72.2685C35.1515 72.1957 35.1369 72.1137 35.1369 72.0304C35.1369 71.9471 35.1515 71.8652 35.1792 71.7923C35.2069 71.7195 35.2469 71.6581 35.2954 71.614C36.167 70.7899 37.0095 69.9081 37.8706 69.0551C38.2239 68.7026 38.5536 69.5383 38.2041 69.8869Z" fill="black"/>
<path d="M53.7511 8.93774C53.3168 9.27465 52.8358 9.46397 52.3441 9.49153C51.8524 9.51909 51.3628 9.38417 50.912 9.09689C50.4612 8.8096 50.0609 8.37739 49.741 7.83264C49.4211 7.2879 49.19 6.64474 49.065 5.95137C49.0624 5.93818 49.0606 5.92468 49.0597 5.91103L49.0538 5.88413C48.9078 5.02102 48.931 4.11552 49.1209 3.2707C49.3107 2.42588 49.6595 1.67568 50.1276 1.10547C50.5957 0.535271 51.1642 0.167968 51.7685 0.0453722C52.3728 -0.0772237 52.9885 0.0498121 53.5457 0.412019C54.1029 0.774226 54.5791 1.35706 54.9201 2.09418C55.2611 2.83129 55.4533 3.69309 55.4747 4.58149C55.4961 5.46989 55.3459 6.34919 55.0412 7.11933C54.7365 7.88947 54.2895 8.51951 53.7511 8.93774ZM53.7643 1.80273C53.3786 1.36538 52.9143 1.09976 52.4275 1.03784C51.9406 0.975931 51.4518 1.12036 51.0199 1.45375C50.588 1.78714 50.2315 2.29529 49.9932 2.91702C49.7549 3.53875 49.645 4.24757 49.6768 4.95816L53.7643 1.80273ZM49.8317 6.06376C50.0206 6.78789 50.3597 7.40813 50.802 7.83805C51.2443 8.26797 51.7676 8.48613 52.299 8.46213C52.8304 8.43813 53.3434 8.17316 53.7666 7.70416C54.1897 7.23515 54.5019 6.58549 54.6596 5.84571C54.7772 5.30311 54.8066 4.72807 54.7454 4.16607C54.6842 3.60407 54.534 3.07054 54.3069 2.60768L49.8317 6.06376Z" fill="black"/>
<path d="M21.4032 36.0658H32.9431C32.9956 36.0739 33.0464 36.0971 33.0926 36.1342C33.1388 36.1714 33.1794 36.2215 33.2121 36.2819C33.2448 36.3422 33.2688 36.4114 33.2829 36.4855C33.2969 36.5596 33.3007 36.637 33.2939 36.7132C33.2939 40.1808 33.3024 46.7846 33.3064 46.9537C33.2905 47.1073 33.2566 47.2558 33.2062 47.3927C33.1152 47.5685 27.6815 54.8908 27.4046 55.2692C27.3416 55.3567 27.2579 55.4055 27.1709 55.4055C27.0839 55.4055 27.0002 55.3567 26.9372 55.2692C23.0217 49.8815 21.7072 48.2255 21.2674 47.5848C21.0215 47.2255 21.0499 47.1842 21.0499 46.9835C21.0499 44.0499 21.0499 37.2146 21.009 36.719C21.0135 36.5608 21.0551 36.4097 21.1268 36.2908C21.1986 36.1719 21.2961 36.0925 21.4032 36.0658ZM32.5924 46.6185V37.6853C29.4279 41.9819 27.9716 43.9645 27.516 44.5648C27.5061 44.7934 27.5088 45.1517 27.5088 46.6213L32.5924 46.6185ZM26.8073 44.5417C26.4816 44.1047 25.4195 42.6543 21.754 37.6824V46.6156H26.8073V44.5417ZM22.2445 37.0302L27.1732 43.7166L32.1026 37.0302H22.2445ZM27.489 53.8457C27.9551 53.2146 32.1039 47.5877 32.1039 47.5877H27.489V53.8457ZM26.8297 53.8044V47.5829H22.2471L26.8297 53.8044Z" fill="black"/>
</svg>
