<svg width="108" height="90" viewBox="0 0 108 90" fill="none" xmlns="http://www.w3.org/2000/svg">
<path d="M36.7608 30.2508C36.6186 26.0844 35.2634 22.8728 35.4796 16.7143C35.81 7.30085 42.5798 2.07859 50.8796 0.833629C60.8683 -0.663671 71.9053 1.74441 80.55 6.68395C80.3571 7.37695 80.215 8.08605 80.125 8.80435C80.0096 9.71203 79.845 10.872 80.3171 11.701C80.4224 11.8879 80.5701 12.0409 80.7455 12.1449C80.9209 12.2489 81.1178 12.3002 81.3167 12.2937C81.5613 12.2704 81.7969 12.1808 82.0028 12.0328C82.2087 11.8848 82.3785 11.6829 82.4972 11.4449C82.8211 10.4789 83.091 9.4916 83.3052 8.48877C88.4964 12.3049 90.7628 17.183 90.9291 21.5956C91.0814 25.6504 89.1892 29.1447 86.5829 31.8312C81.058 37.5252 72.733 39.5024 72.3903 49.5632C66.6738 49.2804 81.7787 50.0294 60.8593 48.9915C60.8974 48.9196 60.9366 48.8483 60.9713 48.7764C60.9953 48.7293 61.0018 48.6737 60.9895 48.6215C60.9771 48.5692 60.9469 48.5242 60.9052 48.4961C59.6883 47.6688 58.4138 46.95 57.0939 46.3466C57.0584 46.3246 57.0174 46.3159 56.9771 46.3217C56.9367 46.3275 56.8991 46.3475 56.8699 46.3788C56.3375 47.1254 55.8468 47.9072 55.4004 48.72C48.3416 48.3703 42.736 47.976 35.9892 49.6921C34.1713 46.9285 32.0918 44.3879 29.786 42.1139C32.6958 38.0901 36.9848 36.8023 36.7608 30.2508ZM57.781 45.3354C59.0973 45.947 60.3716 46.6638 61.594 47.4799C61.6363 47.5073 61.6866 47.5149 61.734 47.5012C61.7813 47.4875 61.8218 47.4535 61.8466 47.4068C62.2358 46.7651 62.444 46.0098 62.4447 45.2368C62.3981 44.6983 62.1655 44.2006 61.7954 43.8476C61.4253 43.4945 60.9462 43.3134 60.4584 43.3421C59.921 43.376 59.3976 43.5443 58.9274 43.8342C58.4572 44.1241 58.0525 44.5282 57.7435 45.0161L57.7373 45.0297C57.7195 45.0518 57.7063 45.078 57.6987 45.1064C57.6912 45.1348 57.6894 45.1648 57.6936 45.194C57.6978 45.2233 57.7078 45.2512 57.7229 45.2756C57.738 45.3001 57.7579 45.3205 57.781 45.3354ZM55.9044 32.962C55.9113 32.9671 55.9187 32.9715 55.9263 32.9751C55.931 32.9819 55.9363 32.9883 55.942 32.9943C56.53 33.4903 57.1241 33.1741 57.5206 32.4859C57.899 31.8001 58.171 31.049 58.3253 30.2638C58.7274 28.5369 58.9115 26.7567 58.8724 24.9739C58.8804 24.4275 58.7002 23.8981 58.3684 23.4934C57.9854 23.1121 57.5805 23.4314 57.3336 23.8127C56.9927 24.425 56.731 25.0872 56.5563 25.7799C56.1033 27.4206 55.7674 29.0981 55.5516 30.797C55.4682 31.4951 55.3495 32.4654 55.9044 32.962ZM55.2632 12.9875C56.4107 12.2999 56.6756 8.94819 56.5843 7.51661C56.5518 7.00945 56.3603 6.53577 55.8507 6.48307C54.3331 6.32683 54.2082 9.54215 53.95 10.8181C53.6168 12.0916 54.3157 13.5535 55.261 12.9875H55.2632ZM47.1124 28.4075C47.3062 29.1775 47.7688 29.2086 48.0051 28.8415C48.5617 27.9735 48.5203 26.6238 47.6803 26.2605C46.9937 26.0534 46.9198 27.6455 47.1124 28.4075ZM42.5115 42.0475C42.6005 42.2162 42.7216 42.3614 42.8662 42.4732C43.0109 42.585 43.1758 42.6607 43.3495 42.695C43.5232 42.7294 43.7015 42.7216 43.8722 42.6722C44.0429 42.6228 44.2019 42.533 44.3382 42.409C44.7516 42.0218 45.0959 41.5524 45.3535 41.0251C45.6928 40.3666 45.9909 39.683 46.2456 38.9791C46.5816 38.0212 47.0184 36.7093 46.4774 35.7421C45.9734 34.8382 44.8853 34.9535 44.1814 35.4854C43.7016 35.8938 43.3175 36.4239 43.0614 37.0311C42.3172 38.4627 41.7751 40.6073 42.5104 42.0488L42.5115 42.0475Z" fill="#E6DEFF"/>
<path d="M26.2393 74.9497C26.7237 71.8205 28.4199 69.1725 29.5993 66.3137C29.7292 66.3391 30.4449 66.4681 30.6733 66.5053C30.1824 67.8732 29.8256 69.2956 29.6093 70.7479C29.4783 71.6779 29.5836 72.8745 30.213 73.551C30.773 74.0835 31.4702 74.1424 32.3169 74.4022C32.4891 74.4349 32.6517 74.5129 32.7909 74.6298C32.9301 74.7467 33.0418 74.8989 33.1166 75.0737C33.2712 75.6222 33.3126 76.2021 33.2376 76.7706C33.1627 77.2502 33.2142 77.7436 33.386 78.1917C33.5348 78.4074 33.7421 78.5645 33.9776 78.6401C34.2131 78.7156 34.4642 78.7056 34.6941 78.6114C35.5689 78.3739 36.2672 76.801 36.5225 75.8406C36.6972 75.3303 36.7399 74.7761 36.6457 74.2404C36.5548 73.959 36.4138 73.7007 36.2311 73.4808C36.0483 73.2608 35.8275 73.0838 35.5817 72.9601C35.0815 72.735 34.6289 72.3972 34.2529 71.9681C34.0463 71.6536 33.9446 71.2695 33.965 70.8812C34.021 69.6028 34.7451 68.7534 35.2295 66.8878C38.7575 66.8971 40.0606 66.008 46.3477 65.7855C44.068 71.017 43.4492 72.598 42.001 76.1965C41.5838 77.2338 41.1873 78.8786 42.0604 79.4112C42.6988 79.8012 43.5046 79.3765 43.9812 78.8848C44.3062 78.5358 44.6014 78.1543 44.8632 77.7453C46.9971 74.5246 48.9541 71.1647 50.7236 67.6839C51.3038 69.791 52.2523 71.7514 53.5152 73.4536C53.8301 73.9548 54.2319 74.3816 54.6973 74.7091C55.7826 75.3291 56.4333 73.9695 56.5526 72.9626C56.6202 71.9002 56.4512 70.8357 56.0604 69.8626C59.5038 72.3168 63.0605 74.5705 66.7161 76.6144C64.5016 78.3138 62.4426 80.2489 60.5684 82.3922C59.482 83.6609 58.5531 85.0844 57.8065 86.6249C57.7236 86.6088 44.9421 84.1833 44.25 84.0662C45.2384 83.2881 48.5709 80.6258 49.2642 80.0982C50.2078 79.3796 51.572 78.3002 51.5681 77.0998C51.564 76.7537 51.4557 76.4189 51.2605 76.1485C51.0652 75.8781 50.7941 75.6875 50.4901 75.6069C49.8047 75.4848 49.1021 75.6187 48.4931 75.9876C47.77 76.3851 47.1171 76.9226 46.565 77.5748C45.0681 79.2736 43.1921 81.3927 42.3253 83.7456C38.0413 83.0574 33.8782 82.5019 29.4077 82.1398C28.6586 82.0257 27.9008 81.9977 27.1465 82.0561C26.5193 79.9618 25.7795 77.9182 26.2393 74.9497ZM51.5658 82.6377C51.4572 82.7809 51.558 83.0518 51.7456 82.9793C52.2011 82.8024 52.6526 82.613 53.0997 82.4114C55.2786 81.4343 55.8588 81.3623 56.4468 81.0951C56.7139 80.9711 57.0628 80.7473 57.0953 80.3927C57.1703 79.5947 55.9013 79.7727 55.5037 79.8384C53.8719 80.113 52.6343 81.2297 51.5658 82.6377ZM41.1414 82.3277C41.3785 81.749 41.6156 81.1691 41.8526 80.588C41.9501 80.3499 41.6286 80.1422 41.5334 80.3815L40.8228 82.1212C40.7253 82.3574 41.0434 82.5651 41.1414 82.324V82.3277Z" fill="#E6DEFF"/>
<path d="M88.8673 42.391C90.7937 41.125 93.9145 42.0333 95.4103 44.7526C95.9928 45.8159 96.334 47.0195 96.4049 48.2606C98.3531 44.8469 104.241 48.0523 103.219 52.3867C102.942 53.5277 102.465 54.5974 101.816 55.535C102.449 55.3573 103.11 55.3406 103.75 55.4863C104.389 55.632 104.991 55.9362 105.509 56.3762C106.027 56.8162 106.448 57.3805 106.741 58.0267C107.034 58.6728 107.191 59.384 107.2 60.1069C107.206 60.5909 107.107 61.0695 106.911 61.502C106.715 61.9346 106.427 62.3084 106.073 62.5919C105.524 63.0265 104.911 63.3514 104.261 63.5516C104.655 63.6867 105.018 63.9125 105.327 64.2141C105.636 64.5157 105.883 64.8863 106.054 65.3015C106.224 65.7167 106.313 66.1671 106.315 66.6231C106.317 67.0792 106.232 67.5305 106.065 67.9474C105.242 69.9376 103.025 70.5769 101.212 69.7851C100.319 69.396 99.5147 68.7936 98.856 68.0206C98.6851 64.8649 98.2998 61.7279 97.7035 58.6363C96.7005 53.8499 93.5449 51.4895 89.1758 50.6383C88.4375 49.2859 87.929 47.7952 87.6756 46.24C87.4958 44.8264 87.6526 43.1902 88.8673 42.391ZM91.3458 49.4479C91.8478 49.5394 92.3624 49.4137 92.7831 49.097C93.2037 48.7802 93.4984 48.2965 93.606 47.746C93.6945 47.3224 93.6934 46.8819 93.6029 46.4588C93.5124 46.0357 93.3348 45.6415 93.0841 45.3069C92.7993 44.9946 92.4364 44.784 92.0424 44.7023C91.6484 44.6206 91.2413 44.6716 90.8737 44.8487C90.4765 45.0179 90.1373 45.3208 89.9039 45.7148C89.6705 46.1088 89.5547 46.574 89.5729 47.0448C89.5911 47.6046 89.7742 48.1425 90.0943 48.5764C90.4144 49.0103 90.854 49.3163 91.3458 49.4479Z" fill="black"/>
<path d="M14.0444 39.5558C14.4464 38.3196 15.2274 37.2787 16.2513 36.6145C17.205 35.906 18.3082 35.4831 19.4534 35.3869C21.3378 35.2425 22.7731 36.002 24.1681 37.2029C26.7116 39.3928 31.6553 42.9857 35.9897 49.6916L35.8978 49.717C35.3845 48.9911 34.6818 48.4577 33.8852 48.1893C27.68 45.3725 21.017 44.0023 14.3121 44.1643C13.7624 42.7038 13.6682 41.0822 14.0444 39.5558Z" fill="#A982F4"/>
<path d="M8.58374 45.5921C10.1517 44.4439 11.9073 44.2461 13.7917 44.1767C19.3281 43.9813 24.8542 44.8285 30.1342 46.6821C31.7431 47.2316 33.3162 47.9019 34.8427 48.6884C35.2626 48.9335 35.6236 49.2862 35.8955 49.717C35.83 49.7343 35.7656 49.7542 35.7001 49.7722C34.0612 49.3131 32.3595 49.1959 30.6819 49.4268C29.6208 49.6463 28.5818 49.9811 27.5801 50.4263C22.6425 52.2962 16.8841 54.832 12.8173 58.4912C11.4719 58.1812 10.1503 57.7561 8.86431 57.2196C7.80374 56.8284 6.90248 56.0342 6.32022 54.9777C4.86535 51.9756 5.96406 47.5141 8.58374 45.5921Z" fill="#A982F4"/>
<path d="M65.5317 49.2216C81.5662 50.0165 88.4172 50.2756 89.115 50.6259C89.0706 50.6169 89.0247 50.6267 88.9864 50.6531C88.9481 50.6796 88.92 50.721 88.9078 50.7691C88.5371 52.4795 88.2995 54.2219 88.1977 55.9771C88.1495 56.8283 88.1568 57.6822 88.2196 58.5322C88.2094 58.693 88.2298 58.8543 88.2795 59.0058C88.2994 59.0396 88.3277 59.0662 88.361 59.0824C88.3944 59.0986 88.4312 59.1038 88.4671 59.0972C88.5031 59.0906 88.5365 59.0726 88.5633 59.0454C88.5901 59.0182 88.6092 58.9829 88.6183 58.9438C88.6323 58.9122 88.8221 58.5328 88.8372 58.5018C89.922 56.3119 91.262 54.3639 92.6917 52.0618C92.7152 52.0163 92.7221 51.9626 92.711 51.9116C92.6999 51.8607 92.6715 51.8164 92.6318 51.7878L92.6464 51.7921C93.9295 52.3902 95.061 53.3265 95.9425 54.5195C96.824 55.7125 97.4286 57.126 97.7037 58.6369C98.8797 64.2603 99.3585 73.2795 98.7677 79.3697C98.6461 80.7369 98.2943 82.0668 97.7306 83.2906C96.4387 86.0354 93.7092 86.881 90.9932 86.3813C89.8987 86.1918 88.8144 85.936 87.7452 85.615C87.7932 85.6286 87.8441 85.6205 87.8867 85.5926C87.9293 85.5647 87.9602 85.5193 87.9726 85.4662C87.986 85.4073 87.9816 67.9822 87.9782 67.8501C87.9704 67.5742 87.6752 67.4657 87.4871 67.3331C80.5141 62.4125 73.2304 58.0538 65.6924 54.2907V49.425C65.6914 49.3739 65.6733 49.3251 65.6416 49.2879C65.61 49.2507 65.5671 49.2277 65.5211 49.2235L65.5317 49.2216ZM95.4844 81.9055C95.6401 81.7078 95.3792 81.417 95.2235 81.6166C94.8245 82.1281 94.3758 82.5895 93.8856 82.9924C93.6964 83.1474 93.8806 83.502 94.0721 83.3458C94.5894 82.9248 95.063 82.4418 95.4844 81.9055ZM93.2635 70.9985C91.8041 70.159 90.3767 69.2569 88.9812 68.2922C88.779 68.1521 88.5936 68.5061 88.7947 68.6456C90.1895 69.6099 91.6169 70.512 93.077 71.3519C93.2881 71.474 93.4746 71.12 93.2635 70.9985ZM79.6241 61.0723L80.3762 58.5489C80.4512 58.2978 80.0962 58.1912 80.02 58.4404L79.268 60.9632C79.1929 61.2143 79.5496 61.3209 79.6241 61.0723Z" fill="#F7DA31"/>
<path d="M60.8591 48.9897C65.6622 49.2278 65.4656 49.2098 65.5216 49.2234C65.5676 49.2277 65.6106 49.2506 65.6422 49.2878C65.6738 49.325 65.6919 49.3739 65.693 49.4249V54.2907C63.4474 53.2224 61.3312 52.4307 58.889 52.7029C59.9228 50.7201 60.5253 49.6208 60.8591 48.9897Z" fill="#FFD2D2"/>
<path d="M24.3639 58.2971C24.4013 57.9983 24.4926 57.711 24.6322 57.452C24.7719 57.1931 24.9572 56.9679 25.1771 56.7899C27.3983 54.6514 29.9089 52.9123 32.6172 51.6358C35.2492 50.3338 35.7734 50.2482 35.8652 50.1478C35.8903 50.1242 35.9091 50.0936 35.9197 50.0591C35.9303 50.0246 35.9323 49.9876 35.9254 49.9519C35.9185 49.9163 35.903 49.8834 35.8806 49.8568C35.8582 49.8301 35.8296 49.8107 35.798 49.8006C35.7655 49.7907 35.7325 49.7832 35.7 49.7746C42.42 47.9499 48.496 48.3789 55.3986 48.7206C54.2097 50.8118 53.0012 53.2397 51.9641 55.4494C49.3384 56.8572 46.7484 58.343 44.1941 59.9066C43.3715 60.3349 42.6776 61.0163 42.1955 61.8695C42.0311 62.2166 41.9621 62.6095 41.997 62.9995C42.0319 63.3895 42.1693 63.7597 42.392 64.0643C43.2427 65.2175 45.173 65.4196 46.5159 65.4203C46.4599 65.5443 46.4039 65.6645 46.3512 65.7879C44.0816 65.8626 41.8178 66.0833 39.5713 66.4488C38.1412 66.7489 36.6885 66.8968 35.233 66.8903C35.5716 65.6719 35.6483 64.3827 35.457 63.1256C35.3745 62.7581 35.1778 62.4345 34.9013 62.2115C34.6248 61.9885 34.2862 61.8804 33.945 61.9061C33.5908 61.9419 33.2486 62.0667 32.9444 62.2708C32.6402 62.4749 32.382 62.753 32.1894 63.0841C31.5671 64.1581 31.0565 65.3067 30.6673 66.5077C29.4771 66.3218 28.2976 66.0598 27.1348 65.7228C30.1688 63.4538 33.0834 60.9948 35.8641 58.3578C35.8957 58.3407 35.9219 58.3132 35.9391 58.2792C35.9563 58.2451 35.9636 58.2061 35.9602 58.1672C35.9568 58.1284 35.9428 58.0917 35.92 58.0619C35.8972 58.0322 35.8668 58.0108 35.8327 58.0007C35.7286 57.9424 36.2354 57.9189 27.519 59.2779C26.8384 59.4301 26.1432 59.4872 25.4498 59.4478C25.1109 59.4286 24.7892 59.2773 24.5415 59.0206C24.469 58.9197 24.4159 58.8035 24.3853 58.6791C24.3548 58.5547 24.3475 58.4247 24.3639 58.2971Z" fill="#FFD2D2"/>
<path d="M88.1979 55.974C88.2998 54.2187 88.5373 52.4763 88.908 50.766C88.9217 50.7143 88.953 50.6705 88.9954 50.6439C89.0377 50.6173 89.0877 50.6099 89.1348 50.6234C90.3268 50.8463 91.4898 51.2296 92.5979 51.7648C92.6227 51.7755 92.6453 51.7919 92.6639 51.8131C92.6825 51.8343 92.6967 51.8597 92.7057 51.8875C92.7146 51.9154 92.718 51.945 92.7156 51.9745C92.7133 52.0039 92.7052 52.0324 92.6919 52.0581C91.031 54.7439 90.0303 56.0881 88.6185 58.9401C88.6095 58.9791 88.5904 59.0144 88.5635 59.0416C88.5367 59.0689 88.5033 59.0869 88.4674 59.0934C88.4314 59.1 88.3946 59.0949 88.3613 59.0786C88.3279 59.0624 88.2996 59.0358 88.2797 59.0021C88.23 58.8506 88.2096 58.6892 88.2198 58.5284C88.1571 57.6786 88.1498 56.8249 88.1979 55.974Z" fill="#A982F4"/>
<path d="M10.7866 61.7344C11.1691 60.0765 11.9593 59.2098 13.1823 58.1663C17.3101 54.6447 22.7208 52.267 27.5822 50.4262C28.5839 49.981 29.6229 49.6463 30.684 49.4268C32.2675 49.2066 33.8738 49.3 35.4278 49.7027C35.4838 49.717 35.6568 49.7548 35.8002 49.7982C35.8319 49.8081 35.8606 49.8275 35.8831 49.8541C35.9057 49.8807 35.9213 49.9137 35.9282 49.9494C35.9351 49.9851 35.9331 50.0222 35.9224 50.0567C35.9116 50.0913 35.8926 50.1219 35.8673 50.1454C35.6954 50.3314 29.3327 52.5299 25.177 56.7899C24.9563 56.9671 24.7704 57.192 24.6306 57.4511C24.4909 57.7102 24.4001 57.998 24.3638 58.2971C24.3487 58.4249 24.3572 58.5547 24.3889 58.6787C24.4205 58.8027 24.4747 58.9182 24.5481 59.0182C24.7958 59.2749 25.1176 59.4262 25.4564 59.4454C26.1498 59.4848 26.845 59.4277 27.5256 59.2755C36.2812 57.9115 35.7458 57.9295 35.8763 58.0181C35.904 58.0347 35.9271 58.0593 35.943 58.0894C35.9589 58.1195 35.967 58.1538 35.9664 58.1887C35.9658 58.2235 35.9566 58.2575 35.9397 58.2869C35.9228 58.3163 35.899 58.34 35.8707 58.3554C31.0878 62.7053 25.5701 67.8197 19.6307 69.694C17.6304 70.3258 15.2442 70.7579 13.3313 69.5849C11.0482 68.188 10.0883 64.7625 10.7866 61.7344Z" fill="#2755A0"/>
<path d="M57.7146 45.0557C57.7303 45.0309 57.7314 45.039 57.7432 45.0142C58.0522 44.5263 58.4569 44.1223 58.9271 43.8323C59.3973 43.5424 59.9207 43.3742 60.4581 43.3402C60.9459 43.3117 61.4248 43.4928 61.7949 43.8459C62.165 44.1989 62.3977 44.6965 62.4444 45.2349C62.4437 46.0079 62.2355 46.7632 61.8463 47.4049C61.8215 47.4517 61.781 47.4856 61.7337 47.4993C61.6863 47.513 61.636 47.5054 61.5937 47.4781C60.3712 46.6628 59.0969 45.9469 57.7807 45.336C57.7384 45.3084 57.7078 45.2635 57.6954 45.211C57.683 45.1585 57.6899 45.1026 57.7146 45.0557Z" fill="#2755A0"/>
<path d="M56.872 46.377C56.9013 46.3457 56.9388 46.3256 56.9792 46.3198C57.0195 46.314 57.0605 46.3227 57.096 46.3447C58.4159 46.9482 59.6904 47.667 60.9074 48.4943C60.9491 48.5224 60.9793 48.5673 60.9916 48.6196C61.0039 48.6719 60.9974 48.7274 60.9734 48.7745C60.9359 48.8464 59.0134 52.4598 58.8886 52.7028C56.4682 52.9682 54.2966 54.1983 51.9658 55.4482C53.0522 53.135 55.3706 48.4056 56.872 46.377Z" fill="#2755A0"/>
<path d="M42.0071 76.1978C42.2087 75.6975 43.4138 72.6948 43.8271 71.6997C44.522 70.0257 46.4624 65.5406 46.5184 65.4191C47.7602 65.4248 48.9971 65.2471 50.1965 64.8909C50.3092 65.8361 50.4874 66.7703 50.7296 67.6852C48.9612 71.1668 47.0042 74.5267 44.8692 77.7466C44.6075 78.1556 44.3122 78.5371 43.9872 78.8861C43.5107 79.3778 42.7048 79.8025 42.0664 79.4125C41.1895 78.8774 41.5943 77.2239 42.0071 76.1978Z" fill="#2755A0"/>
<path d="M42.1976 61.8683C42.6801 61.0155 43.3739 60.3341 44.1962 59.9054C46.7465 58.3347 49.3365 56.849 51.9662 55.4482C54.8222 53.9174 57.7505 52.2242 61.0567 52.732C62.5227 52.971 63.9519 53.4329 65.3038 54.1047C72.9762 57.9176 80.3903 62.3383 87.4882 67.3324C87.6763 67.4651 87.9714 67.5736 87.9793 67.8495C87.9871 68.1254 87.9793 68.4007 87.9793 68.6753V85.4153C87.9788 85.4465 87.9719 85.4772 87.9592 85.5051C87.9465 85.533 87.9283 85.5573 87.9059 85.5763C87.8835 85.5952 87.8575 85.6083 87.8298 85.6146C87.8022 85.6209 87.7737 85.6201 87.7463 85.6125C76.526 82.1743 65.8442 76.8641 56.0682 69.8645C56.4591 70.8376 56.6281 71.9021 56.5605 72.9645C56.4429 73.9714 55.7905 75.3298 54.7052 74.711C54.2398 74.3835 53.8379 73.9567 53.523 73.4555C51.7039 71.0075 50.5509 68.0374 50.1983 64.8914C49.1386 65.2088 48.0479 65.3825 46.9503 65.4085C45.4814 65.4538 43.3204 65.3155 42.397 64.0638C42.1736 63.7594 42.0357 63.3893 42.0003 62.9991C41.9649 62.6089 42.0335 62.2158 42.1976 61.8683ZM50.2846 63.8362C50.321 64.0966 50.6827 63.985 50.6407 63.7277C50.5158 62.9583 51.2668 62.4344 51.8638 62.3786C52.5779 62.376 53.2866 62.515 53.9565 62.789C56.0231 63.5017 58.036 64.3931 59.9765 65.455C60.1904 65.566 60.3774 65.2139 60.1624 65.1023C57.9752 63.8863 55.6873 62.9063 53.3304 62.1759C53.1686 62.13 53.1932 62.1572 53.2055 62.1138C53.2465 61.6382 53.3863 61.1796 53.614 60.7738C53.8417 60.3679 54.1512 60.026 54.5182 59.7746C54.8192 59.6405 55.1425 59.5786 55.4668 59.5929C57.6673 59.6352 59.855 59.9731 61.9818 60.5992C62.0285 60.6116 62.0776 60.6034 62.1189 60.5764C62.1602 60.5494 62.1904 60.5057 62.2031 60.4545C62.2158 60.4033 62.2101 60.3487 62.1871 60.3021C62.1641 60.2555 62.1256 60.2206 62.0798 60.2049C59.6545 59.4286 55.9697 59.0684 54.9079 59.2247C53.6843 59.4051 53.0498 60.7796 52.8494 62.0047C52.8474 62.0226 52.8474 62.0408 52.8494 62.0587C52.2763 61.8832 51.6665 61.9283 51.1195 62.1864C50.836 62.3216 50.6005 62.5565 50.4496 62.8547C50.2987 63.1529 50.2407 63.4978 50.2846 63.8362Z" fill="#FF4848"/>
<path d="M41.5337 80.3797C41.6317 80.1404 41.9504 80.3481 41.8529 80.5861C41.6158 81.1648 41.3788 81.7447 41.1417 82.3259C41.0437 82.5652 40.7256 82.3575 40.8231 82.1194L41.5337 80.3797Z" fill="#2755A0"/>
<path d="M90.8744 44.8488C91.242 44.6717 91.6491 44.6207 92.0431 44.7023C92.4371 44.784 92.7999 44.9946 93.0847 45.307C93.3355 45.6416 93.513 46.0358 93.6036 46.4589C93.6941 46.8819 93.6952 47.3224 93.6067 47.746C93.499 48.2966 93.2044 48.7802 92.7837 49.097C92.3631 49.4138 91.8485 49.5394 91.3465 49.4479C90.8546 49.3164 90.4151 49.0103 90.095 48.5765C89.7749 48.1426 89.5918 47.6047 89.5735 47.0448C89.5555 46.5741 89.6713 46.1089 89.9047 45.7149C90.1381 45.321 90.4772 45.018 90.8744 44.8488Z" fill="#FF4848"/>
<path d="M25.849 84.0476C25.8846 83.5438 26.0352 83.0582 26.2869 82.6365C26.5001 82.3305 26.8089 82.1238 27.1526 82.0568C27.4886 81.9892 27.7261 81.9663 31.3 82.3048C34.9501 82.6526 38.7211 83.1592 42.332 83.7451C42.1342 84.2743 42.0359 84.8426 42.043 85.4154C42.0433 85.4515 42.0522 85.4868 42.0687 85.518C42.0852 85.5491 42.1088 85.5749 42.1372 85.5928C42.1655 85.6107 42.1976 85.62 42.2302 85.6199C42.2628 85.6198 42.2948 85.6102 42.323 85.592C42.827 85.1921 44.208 84.104 44.259 84.0668C44.9511 84.184 58.8934 86.8339 59.4294 86.9536C59.752 87.0237 60.0409 87.2206 60.2428 87.508C60.4447 87.7953 60.546 88.1537 60.5281 88.5172C60.5269 88.5711 60.5071 88.6224 60.4727 88.6605C60.4383 88.6986 60.3919 88.7205 60.3433 88.7218H26.0517C26.003 88.7208 25.9565 88.699 25.9222 88.6608C25.8878 88.6226 25.8682 88.5711 25.8674 88.5172C25.7334 87.0314 25.7272 85.5348 25.849 84.0476Z" fill="#A982F4"/>
<path d="M25.9683 89.206H60.2599C60.309 89.206 60.356 89.2275 60.3906 89.2659C60.4253 89.3043 60.4447 89.3563 60.4447 89.4106C60.4447 89.4649 60.4253 89.5169 60.3906 89.5553C60.356 89.5936 60.309 89.6152 60.2599 89.6152H25.9683C25.9193 89.6152 25.8723 89.5936 25.8377 89.5553C25.803 89.5169 25.7836 89.4649 25.7836 89.4106C25.7836 89.3563 25.803 89.3043 25.8377 89.2659C25.8723 89.2275 25.9193 89.206 25.9683 89.206Z" fill="#A982F4"/>
<path d="M43.0623 37.0336C43.3183 36.4264 43.7024 35.8963 44.1823 35.4879C44.8862 34.956 45.9743 34.8406 46.4783 35.7446C47.0192 36.7118 46.583 38.0237 46.2464 38.9816C45.9918 39.6854 45.6937 40.3691 45.3543 41.0276C45.0968 41.5549 44.7524 42.0243 44.3391 42.4115C44.2028 42.5357 44.0439 42.6257 43.8731 42.6752C43.7024 42.7247 43.524 42.7326 43.3502 42.6982C43.1765 42.6638 43.0116 42.588 42.8669 42.4761C42.7222 42.3642 42.6012 42.2188 42.5123 42.05C41.7748 40.6073 42.3169 38.4627 43.0623 37.0336Z" fill="#A982F4"/>
<path d="M55.5515 30.7982C55.767 29.0988 56.1029 27.4209 56.5562 25.7799C56.7312 25.086 56.9934 24.4227 57.3351 23.8095C57.5821 23.427 57.987 23.1089 58.37 23.4902C58.7018 23.895 58.882 24.4243 58.874 24.9708C58.9118 26.7544 58.7261 28.5353 58.3224 30.2625C58.1681 31.0477 57.8961 31.7988 57.5177 32.4846C57.1212 33.1728 56.527 33.4908 55.939 32.993C55.9334 32.987 55.9281 32.9806 55.9234 32.9738C55.9157 32.9702 55.9084 32.9658 55.9015 32.9607C55.3494 32.4654 55.4681 31.4951 55.5515 30.7982Z" fill="#A982F4"/>
<path d="M53.9472 10.8182C54.2076 9.5298 54.3319 6.32688 55.8478 6.48312C56.3585 6.53582 56.5489 7.0095 56.5814 7.51666C56.6727 8.9501 56.4084 12.2993 55.2604 12.9875C54.3095 13.5567 53.6173 12.0873 53.9472 10.8182Z" fill="#A982F4"/>
<path d="M80.125 8.80619C80.3579 7.02517 80.8826 5.30622 81.6734 3.73397C81.8678 3.22117 82.1962 2.7844 82.6165 2.47971C82.7292 2.40181 82.8571 2.35481 82.9895 2.3426C83.122 2.3304 83.2551 2.35335 83.378 2.40955C83.5008 2.46575 83.6097 2.55358 83.6957 2.66574C83.7818 2.7779 83.8424 2.91116 83.8725 3.05445C83.9706 3.53951 83.9946 4.03931 83.9437 4.53315C83.7162 6.93156 83.2138 9.28813 82.4485 11.546C82.3222 11.7568 82.1548 11.9336 81.9587 12.0633C81.7625 12.193 81.5425 12.2724 81.315 12.2956C81.1161 12.3021 80.9192 12.2508 80.7438 12.1468C80.5684 12.0428 80.4207 11.8897 80.3154 11.7028C79.8439 10.8739 80.0097 9.71387 80.125 8.80619Z" fill="#A982F4"/>
<path d="M47.6785 26.2593C48.5292 26.6276 48.5527 27.9854 48.0033 28.8403C47.776 29.195 47.3106 29.2024 47.1107 28.4063C46.9192 27.6468 46.9925 26.0534 47.6785 26.2593Z" fill="#A982F4"/>
<path d="M29.6125 70.7479C30.031 68.0355 30.9074 65.4347 32.1958 63.0816C32.3884 62.7505 32.6466 62.4724 32.9508 62.2683C33.255 62.0641 33.5972 61.9394 33.9514 61.9036C34.2927 61.8778 34.6312 61.9859 34.9077 62.2089C35.1842 62.4319 35.3809 62.7556 35.4634 63.1231C35.553 63.5286 35.5907 63.946 35.5754 64.3631C35.5565 65.7876 35.2584 67.1905 34.7018 68.475C34.2331 69.599 33.5874 70.9698 34.2588 71.9687C34.9 72.9222 36.1774 72.7746 36.6495 74.2397C36.7436 74.7754 36.7009 75.3296 36.5263 75.8399C36.2704 76.8009 35.5743 78.3732 34.6979 78.6107C34.468 78.7049 34.2168 78.715 33.9814 78.6394C33.7459 78.5639 33.5385 78.4067 33.3897 78.191C33.2179 77.7429 33.1664 77.2496 33.2413 76.7699C33.3163 76.2014 33.275 75.6215 33.1204 75.073C33.0455 74.8982 32.9338 74.746 32.7946 74.6291C32.6554 74.5122 32.4929 74.4342 32.3207 74.4015C31.2634 74.0773 30.1546 74.0295 29.7587 72.7641C29.562 72.1153 29.5118 71.4231 29.6125 70.7479Z" fill="#A982F4"/>
<path d="M43.0943 82.1336C44.1012 80.4799 45.2669 78.9516 46.5707 77.5754C47.1232 76.9237 47.7761 76.3863 48.4988 75.9882C49.1078 75.6193 49.8104 75.4854 50.4958 75.6075C50.7998 75.6882 51.071 75.8788 51.2662 76.1492C51.4614 76.4196 51.5697 76.7543 51.5738 77.1005C51.5192 77.7493 51.2367 78.3485 50.787 78.7689C50.0388 79.5842 49.9862 79.4838 42.3198 85.5932C42.2916 85.6113 42.2595 85.6209 42.2269 85.6211C42.1943 85.6212 42.1622 85.6119 42.1339 85.594C42.1056 85.5761 42.082 85.5503 42.0654 85.5192C42.0489 85.488 42.0401 85.4526 42.0398 85.4165C42.0919 84.2312 42.4587 83.0893 43.0943 82.1336Z" fill="#A982F4"/>
<path d="M51.5656 82.6378C52.6357 81.2273 53.8733 80.1131 55.5035 79.8385C55.9011 79.7715 57.1701 79.5948 57.095 80.3927C57.0614 80.7474 56.7137 80.9731 56.4465 81.0952C55.863 81.3606 55.2666 81.4399 53.0994 82.4115C52.6514 82.613 52.2034 82.8027 51.7453 82.9794C51.5577 83.0519 51.4569 82.781 51.5656 82.6378Z" fill="#A982F4"/>
<path d="M51.1187 62.1858C51.6634 61.9321 52.2683 61.8828 52.8407 62.0457C53.0339 60.8106 53.6683 59.4063 54.9059 59.2241C55.2755 59.1775 55.6482 59.169 56.0192 59.1986C56.4045 59.2228 56.7903 59.2402 57.1756 59.2749C58.832 59.4181 60.473 59.7294 62.0779 60.2049C62.1237 60.2207 62.1621 60.2555 62.1851 60.3021C62.2081 60.3487 62.2139 60.4034 62.2011 60.4545C62.1884 60.5057 62.1582 60.5494 62.1169 60.5764C62.0756 60.6034 62.0265 60.6116 61.9799 60.5992C59.8529 59.9738 57.6652 59.6359 55.4648 59.593C55.1755 59.5648 54.8843 59.6133 54.6153 59.7343C54.3463 59.8554 54.1071 60.0456 53.9175 60.2892C53.5266 60.8218 53.278 61.4647 53.1996 62.1455C55.6043 62.8681 57.9363 63.8594 60.1599 65.1041C60.3755 65.2157 60.1879 65.5679 59.974 65.4569C58.0334 64.3951 56.0206 63.5037 53.954 62.7909C53.2841 62.5169 52.5753 62.3779 51.8612 62.3805C51.2643 62.4363 50.5139 62.9596 50.6382 63.7296C50.6802 63.9869 50.3184 64.0985 50.282 63.8381C50.2377 63.4991 50.2957 63.1535 50.447 62.8547C50.5983 62.556 50.8344 62.3208 51.1187 62.1858Z" fill="#FC9070"/>
<path d="M88.982 68.2921C90.3764 69.256 91.8039 70.1581 93.2644 70.9984C93.4755 71.1224 93.289 71.4727 93.0779 71.3518C91.6193 70.5123 90.1918 69.6102 88.7956 68.6455C88.5945 68.506 88.7799 68.152 88.982 68.2921Z" fill="#FC9070"/>
<path d="M95.2244 81.6166C95.3801 81.4169 95.641 81.7077 95.4854 81.9055C95.064 82.4417 94.5903 82.9247 94.073 83.3458C93.8815 83.502 93.6973 83.1473 93.8866 82.9923C94.3767 82.5895 94.8254 82.1281 95.2244 81.6166Z" fill="#FC9070"/>
<path d="M1.03199 43.7507L5.69567 44.5989C5.92975 44.641 5.83063 45.0329 5.59767 44.9932L0.933989 44.145C0.699909 44.1029 0.80015 43.7085 1.03199 43.7507Z" fill="black"/>
<path d="M6.53567 64.7103C6.73055 64.5584 6.91479 64.9131 6.72159 65.0631L2.67503 68.2133C2.48015 68.3652 2.29535 68.0106 2.48855 67.8599L6.53567 64.7103Z" fill="black"/>
<path d="M16.3179 80.4726C16.3037 80.5233 16.2722 80.5659 16.2301 80.5914C16.188 80.6168 16.1387 80.6232 16.0924 80.6091C16.0462 80.595 16.0067 80.5616 15.9823 80.5159C15.958 80.4702 15.9506 80.4157 15.9618 80.3641C16.3134 78.8358 17.1798 75.3589 17.2369 75.1412C17.2511 75.0906 17.2826 75.048 17.3247 75.0225C17.3668 74.997 17.4161 74.9907 17.4624 75.0048C17.5086 75.0189 17.5481 75.0523 17.5725 75.098C17.5968 75.1437 17.6042 75.1981 17.593 75.2497C17.2414 76.7774 16.375 80.255 16.3179 80.4726Z" fill="black"/>
<path d="M79.6248 61.0722C79.5503 61.3202 79.1936 61.2142 79.2686 60.9631L80.0207 58.4403C80.0952 58.1923 80.4519 58.2977 80.3768 58.5488L79.6248 61.0722Z" fill="#FC9070"/>
<path d="M12.2637 34.0725L9.38135 30.5087C9.22287 30.3128 9.48327 30.0226 9.64231 30.2192L12.5246 33.7835C12.6831 33.9788 12.4227 34.269 12.2637 34.0725Z" fill="black"/>
<path d="M25.752 33.0736C25.7397 33.0968 25.7235 33.1171 25.7041 33.1333C25.6848 33.1496 25.6628 33.1615 25.6393 33.1683C25.6158 33.1751 25.5913 33.1767 25.5673 33.1731C25.5432 33.1694 25.5201 33.1606 25.4991 33.147C25.4782 33.1335 25.4598 33.1155 25.4451 33.0941C25.4305 33.0727 25.4197 33.0483 25.4136 33.0223C25.4074 32.9963 25.4059 32.9692 25.4092 32.9426C25.4125 32.916 25.4205 32.8903 25.4328 32.8671C26.0555 31.6525 27.6436 28.7565 27.6436 28.7565C27.6702 28.7109 27.7119 28.6788 27.7598 28.6672C27.8076 28.6556 27.8577 28.6654 27.899 28.6945C27.9388 28.722 27.9676 28.7653 27.9795 28.8156C27.9914 28.8659 27.9854 28.9193 27.9628 28.9648C27.3362 30.1856 26.8619 31.0703 25.752 33.0736Z" fill="black"/>
<path d="M106.072 62.5919C105.523 63.025 104.91 63.3497 104.261 63.5517C105 63.8052 105.618 64.3733 105.979 65.1311C106.34 65.889 106.414 66.7744 106.185 67.5928C105.58 69.7417 103.211 70.6655 101.212 69.7851C100.325 69.3963 99.5226 68.8047 98.8563 68.0491C99.1158 71.818 99.0864 75.6045 98.7684 79.3679C98.6435 80.7343 98.2919 82.0635 97.7313 83.2887C96.3934 86.0539 93.7105 86.8785 90.9939 86.3794C89.8998 86.1877 88.8156 85.9319 87.7459 85.6131C80.4843 83.3996 73.4416 80.3852 66.7235 76.6151C64.5178 78.3271 62.4598 80.2613 60.5758 82.3928C59.4956 83.6673 58.5674 85.0898 57.8139 86.6256C58.3526 86.7322 58.8925 86.8333 59.4278 86.9536C59.7504 87.024 60.0391 87.2209 60.2409 87.5082C60.4428 87.7955 60.5442 88.1537 60.5265 88.5172C60.5254 88.5711 60.5056 88.6224 60.4711 88.6605C60.4367 88.6986 60.3904 88.7205 60.3417 88.7218H26.0501C26.0015 88.7205 25.9553 88.6985 25.9209 88.6604C25.8866 88.6223 25.8669 88.571 25.8659 88.5172C25.7246 87.0313 25.7194 85.5334 25.8502 84.0464C25.8829 83.5419 26.0337 83.0556 26.2876 82.6353C26.5028 82.3314 26.8105 82.1247 27.1533 82.0537C26.9377 81.3401 26.7053 80.6314 26.5205 79.9085C25.0197 74.3093 27.8533 70.5465 29.6005 66.3125C28.7729 66.1579 27.9523 65.9599 27.1416 65.7192L27.1483 65.7148C23.5598 68.2742 17.0605 71.8696 13.332 69.5836C10.476 67.8334 9.78326 62.9217 11.4364 60.0735C11.8179 59.4668 12.2851 58.9322 12.8201 58.49C11.4741 58.1828 10.1522 57.7576 8.8671 57.2184C7.81018 56.8201 6.91107 56.0276 6.32359 54.9764C4.85694 51.9558 5.96743 47.5104 8.5871 45.5909C10.3029 44.3335 12.2545 44.2139 14.3125 44.1649C13.7526 42.7071 13.6583 41.0815 14.0454 39.5564C14.4451 38.3189 15.2265 37.2773 16.2518 36.6151C17.1792 35.9085 18.2601 35.4885 19.383 35.3986C20.5059 35.3087 21.6301 35.5521 22.6397 36.1036C23.543 36.6238 23.8157 36.9134 25.7158 38.4981C27.1281 39.681 28.4716 40.8256 29.7837 42.1133C31.4995 39.7406 33.4203 38.5737 35.0348 36.3895C37.9053 32.5064 36.4701 27.9699 35.8535 23.3633C35.5259 21.1667 35.3999 18.9391 35.4772 16.7144C35.8104 7.37905 42.4083 2.14749 50.8772 0.833711C61.0733 -0.525791 71.404 1.51106 80.5493 6.68403C80.8215 5.65613 81.1984 4.66583 81.6727 3.73221C81.8677 3.22029 82.196 2.78428 82.6157 2.47981C82.7285 2.40191 82.8564 2.3549 82.9888 2.3427C83.1213 2.3305 83.2544 2.35345 83.3772 2.40965C83.5001 2.46585 83.609 2.55367 83.695 2.66583C83.781 2.778 83.8417 2.91126 83.8718 3.05455C83.9715 3.53935 83.9956 4.03947 83.9429 4.53325C83.8343 5.87037 83.6209 7.1945 83.3051 8.49071C88.5131 12.318 90.7643 17.2197 90.9289 21.5956C91.0813 25.6504 89.189 29.1448 86.5828 31.8312C81.0388 37.5464 72.7329 39.4957 72.3907 49.5632C80.551 49.9693 86.7978 50.1727 89.1767 50.6371C88.4381 49.2856 87.9294 47.7957 87.6759 46.2413C87.4961 44.8283 87.6529 43.1921 88.8676 42.3929C89.4271 42.0685 90.0427 41.88 90.6733 41.8399C91.3039 41.7998 91.935 41.9091 92.5244 42.1604C93.6425 42.6406 94.6075 43.4761 95.2979 44.5618C95.9883 45.6476 96.3734 46.9351 96.4046 48.2625C98.3377 44.8766 104.195 47.9872 103.22 52.3886C102.935 53.5264 102.459 54.5945 101.816 55.5369C106.136 54.3521 108.852 60.3487 106.072 62.5919ZM87.607 85.1469C87.607 85.1469 87.5902 68.1049 87.5986 67.8991C81.0473 63.2528 74.2206 59.1008 67.1648 55.4712C65.7809 54.7154 64.3459 54.08 62.8729 53.5709C60.3417 52.7029 57.6997 52.7785 53.9969 54.8258C50.7489 56.4886 47.4528 58.3759 44.3823 60.2582C43.3519 60.8956 41.5644 62.3606 42.6905 63.8214C43.1684 64.3413 43.7814 64.6823 44.4433 64.7966C46.3945 65.1663 48.3958 65.0447 50.2987 64.4407C50.3261 64.433 50.3547 64.4322 50.3825 64.4384C50.4102 64.4446 50.4363 64.4577 50.4588 64.4767C50.4813 64.4956 50.4997 64.52 50.5125 64.5479C50.5253 64.5758 50.5322 64.6066 50.5328 64.6379C50.8747 67.9651 52.1283 71.0967 54.1252 73.6118C54.4231 73.9838 54.9187 74.6404 55.4373 74.4283C55.8769 74.2485 56.0813 73.5678 56.1653 73.1083C56.3893 71.8584 55.9267 70.5508 55.5112 69.4107C55.4507 69.2439 55.6551 69.0883 55.7828 69.18C65.591 76.2728 76.3239 81.6577 87.607 85.1469ZM58.8885 52.7029C61.0765 52.4549 63.303 53.1512 65.3229 54.114C65.3229 50.0357 65.3123 49.588 65.3084 49.6196L60.6458 49.3884C60.1866 50.2508 59.0145 52.4599 58.8885 52.7029ZM60.559 48.7411C59.4386 47.99 58.2695 47.3318 57.0613 46.772C55.6473 48.7293 53.5803 52.9224 52.5253 55.1463C54.4701 54.1233 56.298 53.1096 58.4277 52.7668C60.2757 49.2111 59.9789 49.7982 60.559 48.7411ZM42.4637 76.0509C42.2659 76.5167 42.1076 77.002 41.9911 77.5004C41.9053 77.8437 41.8907 78.204 41.9485 78.5544C41.9648 78.6656 42.0038 78.7712 42.0628 78.863C42.1217 78.9548 42.1989 79.0304 42.2885 79.0839C42.5444 79.1824 42.8245 79.17 43.0725 79.0492C43.5811 78.7841 44.0149 78.3704 44.3269 77.8526C46.6301 74.4329 48.7209 70.8439 50.5849 67.1105C50.4101 66.382 50.2791 65.6416 50.1929 64.894C49.1329 65.2104 48.0424 65.384 46.9449 65.411C46.279 66.8463 44.3442 71.3103 42.4637 76.0509ZM26.366 83.3321C26.2931 83.564 26.2429 83.8039 26.2165 84.0476C26.0891 85.4662 26.0891 86.8953 26.2165 88.3138C26.2165 88.3138 59.7465 88.2903 60.1435 88.3083C60.124 88.1161 60.0591 87.9329 59.9554 87.7773C59.8517 87.6217 59.7128 87.499 59.5527 87.4217C59.2953 87.3286 59.0297 87.2662 58.7603 87.2356C58.4607 87.1737 44.9317 84.5876 43.8296 84.4035C43.3256 84.7997 42.8216 85.1946 42.3176 85.5945C42.2894 85.6126 42.2573 85.6222 42.2247 85.6224C42.1921 85.6225 42.16 85.6131 42.1317 85.5953C42.1034 85.5774 42.0798 85.5516 42.0632 85.5205C42.0467 85.4893 42.0379 85.4539 42.0376 85.4178C42.0279 84.9855 42.0836 84.5545 42.2022 84.1425C34.1382 82.8492 31.0913 82.74 29.0713 82.5237C28.505 82.447 27.9343 82.4157 27.3639 82.43C27.1337 82.4473 26.914 82.5434 26.7353 82.705C26.5566 82.8666 26.4277 83.0858 26.3665 83.3321H26.366ZM49.8597 79.1248C50.5714 78.5296 51.7687 77.2971 50.885 76.3026C50.3659 75.7192 49.485 75.9771 48.8892 76.248C48.1106 76.626 47.4101 77.1763 46.8306 77.865C45.3001 79.601 42.6961 82.51 42.4245 85.0092C44.0877 83.688 48.8657 79.9556 49.8602 79.1248H49.8597ZM27.0677 73.1214C25.9818 76.3454 26.4685 78.8074 27.5246 82.0146C28.0796 82.0041 28.8205 82.0921 29.4113 82.1386C33.6936 82.4858 38.0913 83.0575 42.3293 83.7451C43.1957 81.3946 45.1293 79.1998 46.5691 77.5742C47.1215 76.9225 47.7744 76.3851 48.4972 75.987C49.1067 75.6198 49.8088 75.486 50.4941 75.6063C50.7979 75.6877 51.0686 75.8784 51.2637 76.1487C51.4589 76.4189 51.5674 76.7533 51.5721 77.0993C51.5761 78.3052 50.2175 79.3741 49.2683 80.0976C48.575 80.6264 45.2425 83.2894 44.2541 84.0656C45.6009 84.2931 55.7867 86.2511 57.4185 86.5537C58.2037 84.9367 59.1762 83.4401 60.3115 82.1021C62.1647 80.0037 64.1869 78.0968 66.3528 76.4049C62.8257 74.4186 59.3922 72.2348 56.0656 69.862C56.4564 70.8352 56.6254 71.8997 56.5578 72.962C56.4408 73.9689 55.7878 75.3273 54.7025 74.7086C54.2371 74.3811 53.8353 73.9543 53.5204 73.4531C52.2566 71.7513 51.308 69.7905 50.7288 67.6827C48.961 71.1649 47.0039 74.5251 44.8684 77.7447C44.6066 78.1539 44.3111 78.5354 43.9858 78.8843C43.5098 79.3759 42.704 79.8006 42.0656 79.4113C41.2049 78.8855 41.5901 77.1979 42.0062 76.1959C43.2203 73.0773 45.0145 68.8558 46.3529 65.7849C44.0836 65.8649 41.8201 66.0856 39.573 66.4458C38.1429 66.7473 36.6899 66.8952 35.2341 66.8873C34.7503 68.7547 34.0128 69.6103 33.9702 70.8807C33.9502 71.2689 34.0519 71.6528 34.2581 71.9675C34.9138 72.9174 36.1789 72.7828 36.6487 74.2386C36.7428 74.7743 36.7002 75.3285 36.5255 75.8388C36.2707 76.7949 35.5685 78.3728 34.6971 78.6096C34.4672 78.7038 34.216 78.7138 33.9806 78.6383C33.7451 78.5627 33.5378 78.4056 33.3889 78.1899C33.2176 77.7417 33.1661 77.2485 33.2405 76.7688C33.3155 76.2003 33.2742 75.6204 33.1196 75.0719C33.0448 74.8971 32.933 74.7448 32.7938 74.628C32.6547 74.5111 32.4921 74.433 32.3199 74.4004C31.2033 74.0582 30.1695 74.0284 29.7579 72.763C29.5626 72.1137 29.5126 71.4216 29.6123 70.7461C29.8274 69.2935 30.1842 67.871 30.6763 66.5035C30.4478 66.4663 30.2205 66.4229 29.9925 66.3795C29.068 68.6518 27.8214 70.8112 27.0688 73.1214H27.0677ZM33.8957 78.1837C34.0925 78.2683 34.3072 78.2881 34.5139 78.2405C34.7206 78.193 34.9105 78.0802 35.0605 77.9158C35.764 77.0822 36.2087 76.0218 36.3301 74.889C36.479 73.277 34.7307 73.3433 33.9411 72.1759C33.0014 70.7864 34.1505 68.9984 34.6232 67.6598C35.067 66.4167 35.2606 65.0814 35.1905 63.747C35.1767 63.3676 35.0595 63.0017 34.8545 62.6973C34.6236 62.464 34.3263 62.3274 34.0141 62.3112C33.7018 62.295 33.3943 62.4002 33.1448 62.6086C32.5674 63.1208 32.121 63.7913 31.8501 64.5536C31.128 66.1875 30.5667 67.9025 30.1757 69.6692C30.0164 70.3609 29.9401 71.0728 29.9489 71.7865C29.9493 72.0801 30.0047 72.3705 30.1115 72.6393C30.2183 72.9081 30.3742 73.1495 30.5693 73.3483C31.6132 74.0458 32.0953 73.7017 33.0137 74.2932C34.2317 75.2498 33.1207 77.7509 33.8957 78.1837ZM30.8158 66.1116C31.175 65.0484 31.6391 64.0323 32.1995 63.0817C32.3908 62.7493 32.6486 62.4701 32.9531 62.2658C33.2575 62.0615 33.6004 61.9376 33.9551 61.9037C34.2964 61.878 34.6349 61.9861 34.9114 62.2091C35.1879 62.4321 35.3846 62.7557 35.4671 63.1232C35.6414 64.2396 35.5992 65.3842 35.3433 66.4812C38.6535 66.5078 39.9001 65.651 46.0343 65.4024C44.8202 65.3652 43.1733 65.1079 42.3999 64.0619C42.1761 63.7578 42.0382 63.3876 42.0032 62.9973C41.9683 62.607 42.0379 62.2139 42.2033 61.8671C42.6834 61.012 43.3779 60.33 44.202 59.9042C47.6639 57.7826 51.1051 55.9077 51.9742 55.4402C52.7106 53.835 53.9981 51.2484 55.1847 49.1162C48.5442 48.7485 43.6084 48.5154 37.8779 49.6854C36.985 49.7993 36.1092 50.0415 35.2728 50.4058C34.8007 50.5968 33.9898 50.9446 32.6229 51.6353C30.478 52.6742 28.443 53.9717 26.5547 55.5041C25.9037 56.0435 25.2942 56.6418 24.7325 57.2928C24.5316 57.5848 24.4062 57.9317 24.3696 58.2965C24.3538 58.4242 24.362 58.5541 24.3937 58.6781C24.4254 58.8021 24.4799 58.9174 24.5538 59.017C24.8012 59.2743 25.1231 59.4259 25.4621 59.4448C26.1556 59.4845 26.8508 59.4274 27.5313 59.2749C36.2472 57.9146 35.7432 57.9407 35.8451 57.9977C35.8789 58.0081 35.9091 58.0295 35.9317 58.0593C35.9543 58.089 35.9682 58.1257 35.9716 58.1643C35.975 58.203 35.9677 58.2419 35.9507 58.2759C35.9337 58.3099 35.9078 58.3374 35.8765 58.3548C33.2166 60.8689 30.4405 63.228 27.5593 65.4228C28.6321 65.7143 29.7177 65.9443 30.8118 66.1116H30.8158ZM11.848 60.1373C11.129 61.4348 10.8166 62.9585 10.959 64.4724C11.1015 65.9864 11.6909 67.4061 12.6359 68.5117C14.1793 70.1367 16.412 70.0573 18.3625 69.6122C20.3621 69.125 22.2898 68.3281 24.0885 67.245C28.2375 64.7706 31.4547 61.851 35.158 58.4801C34.2799 58.6214 29.7657 59.3053 28.3926 59.5502C27.6086 59.6903 26.8201 59.8162 26.0266 59.8763C25.5437 59.9191 25.0591 59.8212 24.621 59.5923C24.361 59.423 24.163 59.1581 24.0614 58.8437C23.9597 58.5292 23.961 58.1853 24.0649 57.8718C24.341 57.1092 24.8152 56.4544 25.4274 55.9901C28.0079 53.5151 31.9178 51.3705 35.1104 50.0431C33.1901 49.5501 31.1877 49.6109 29.2948 50.2198C23.8684 52.2174 18.9247 54.2343 14.2991 57.7801C13.3633 58.402 12.5325 59.1996 11.8441 60.1373H11.848ZM13.7917 44.5859C12.5632 44.5818 11.3411 44.781 10.1657 45.1767C9.17453 45.5432 8.29486 46.2076 7.62502 47.0956C5.65159 49.6996 5.70142 53.2677 6.80518 55.0682C7.71967 56.5599 9.57942 57.1247 11.1205 57.5935C11.8032 57.8018 12.4903 57.9903 13.1802 58.1663C17.2744 54.6733 22.6621 52.2881 27.5801 50.4263C28.5831 49.9859 29.6215 49.6513 30.6813 49.4268C32.2651 49.2075 33.8714 49.3009 35.4257 49.7027C35.1943 49.4215 34.9197 49.1879 34.6148 49.0127C34.1729 48.7593 33.7173 48.5363 33.2506 48.3449C27.6906 45.9026 21.7707 44.619 15.7893 44.5586C15.1251 44.5518 14.4593 44.5747 13.7917 44.5859ZM24.1853 37.728C23.3274 36.8949 22.3088 36.2901 21.2073 35.9598C20.1244 35.6991 18.9984 35.7615 17.9445 36.1407C16.8906 36.5199 15.9466 37.2023 15.2091 38.118C14.8335 38.5976 14.5492 39.1561 14.373 39.7601C14.1968 40.3641 14.1324 41.0012 14.1837 41.6334C14.2381 42.4979 14.4111 43.3482 14.6967 44.155C19.931 44.0774 25.1426 44.9306 30.1325 46.6821C31.7424 47.2289 33.3159 47.8993 34.8416 48.6884C30.9121 43.0644 27.5621 40.6439 24.187 37.728H24.1853ZM83.3572 2.84437C82.9092 2.52941 82.4612 3.04587 82.1952 3.55365C82.0686 3.79607 81.9404 4.03725 81.8228 4.28463C80.9115 6.19156 80.4182 8.30903 80.3825 10.466C80.3821 10.8579 80.4863 11.2412 80.6821 11.5678C80.7889 11.6834 80.9195 11.7686 81.0626 11.8161C81.2057 11.8637 81.357 11.872 81.5037 11.8406C81.6504 11.8091 81.788 11.7388 81.9047 11.6355C82.0214 11.5323 82.1138 11.3993 82.1739 11.2479C82.5429 10.4586 84.2061 3.67889 83.3572 2.84437ZM73.8137 42.8598C75.8252 39.2942 79.2625 37.2413 82.3257 34.9628C85.2578 32.7811 88.2617 30.174 89.7261 26.5029C91.3277 22.4897 90.458 17.9178 88.3132 14.3677C86.9495 12.1969 85.2146 10.3432 83.2065 8.91169C83.0172 9.77124 82.7802 10.6171 82.497 11.4444C82.1756 12.2894 80.873 12.7017 80.3169 11.7004C79.8353 10.8777 80.0095 9.71149 80.1249 8.80381C80.1984 8.22769 80.3035 7.65707 80.4396 7.09509C72.3105 2.48016 63.2195 0.340445 54.0977 0.895092C49.9577 1.15301 45.7173 2.05139 42.1832 4.57541C40.5381 5.6785 39.1331 7.16981 38.0684 8.94301C37.0036 10.7162 36.3053 12.7277 36.0232 14.8339C34.9592 23.6113 38.7045 29.6618 36.3435 34.9219C34.9821 37.9531 31.9794 39.7114 30.0513 42.3706C32.2514 44.5786 34.2415 47.03 35.9907 49.6866C42.7667 47.9624 48.3157 48.3623 55.402 48.7144C55.8495 47.9014 56.3411 47.1192 56.8742 46.3721C56.9033 46.3405 56.941 46.3203 56.9814 46.3146C57.0219 46.3089 57.0629 46.318 57.0982 46.3405C58.419 46.9417 59.6936 47.6603 60.9096 48.4894C60.9512 48.5176 60.9813 48.5625 60.9936 48.6148C61.0059 48.667 60.9995 48.7225 60.9757 48.7696L60.8637 48.9848L72.0278 49.5384C72.0996 47.1801 72.7143 44.8813 73.8137 42.8598ZM65.7166 49.6395V54.3C73.2465 58.0606 80.5223 62.416 87.4877 67.3324C87.6759 67.4651 87.971 67.5736 87.9789 67.8495C87.9867 68.1254 87.9789 68.4007 87.9789 68.6753V85.2684C88.6694 85.4773 89.3678 85.6527 90.0721 85.7942C91.3692 86.1412 92.7175 86.1834 94.0302 85.9182C95.2591 85.6362 96.3444 84.8454 97.0643 83.7072C97.7335 82.5944 98.1613 81.3252 98.3142 79.999C98.9218 75.496 98.7415 66.3975 97.5862 59.9154C96.9971 55.9102 95.3065 53.6534 92.6151 52.2274C91.2252 54.4631 89.7905 56.6672 88.6044 59.0511C88.581 59.0903 88.5473 59.1206 88.5077 59.1376C88.4682 59.1547 88.4248 59.1578 88.3837 59.1464C88.3425 59.135 88.3055 59.1098 88.2778 59.0742C88.2502 59.0386 88.2332 58.9943 88.2292 58.9475C88.025 56.2747 88.2301 53.5828 88.8357 50.9855C86.3795 50.6005 87.4284 50.7177 65.7166 49.6395ZM88.568 58.206C89.6589 56.0211 90.92 54.1977 92.2505 52.0525C91.2793 51.5987 90.2649 51.2676 89.2265 51.0655C88.7068 53.3999 88.4852 55.8035 88.568 58.206ZM104.304 56.0918C103.369 55.7032 102.338 55.7079 101.406 56.1048C101.371 56.1147 101.334 56.1129 101.299 56.0998C101.265 56.0866 101.235 56.0626 101.213 56.0307C101.19 55.9988 101.177 55.9604 101.174 55.9203C101.172 55.8801 101.18 55.84 101.197 55.8048C102.253 54.1518 103.554 51.9769 102.664 49.8999C101.717 47.8198 99.5154 46.8706 98.0566 47.3579C97.6205 47.4901 97.2302 47.764 96.9362 48.1443C96.6422 48.5246 96.458 48.9939 96.4074 49.4913C96.3917 49.7523 96.0249 49.7554 96.0378 49.4913C96.3402 44.3937 92.6862 41.3247 89.5015 42.5126C89.2165 42.6186 88.9545 42.7891 88.7322 43.0133C88.5099 43.2374 88.3321 43.5103 88.2101 43.8146C87.467 45.9846 88.6329 48.7386 89.6538 50.7493C90.8559 51.0105 92.0213 51.447 93.1197 52.0476C94.2885 52.6853 95.3095 53.6115 96.104 54.7551C96.8985 55.8986 97.4453 57.2287 97.7021 58.6431C98.2682 61.5302 98.6396 64.46 98.8132 67.4081C100.997 70.1627 103.685 70.2383 105.153 68.697C105.512 68.3078 105.761 67.8109 105.868 67.2673C105.976 66.7238 105.938 66.1573 105.758 65.6375C105.579 65.1176 105.267 64.6671 104.859 64.3413C104.452 64.0154 103.967 63.8285 103.465 63.8034C103.421 63.8019 103.379 63.7833 103.347 63.7508C103.314 63.7183 103.293 63.674 103.287 63.6259C103.281 63.5778 103.291 63.5289 103.314 63.4879C103.338 63.447 103.374 63.4166 103.416 63.4022C104.787 62.9645 106.608 62.3482 106.809 60.5106C106.877 59.5734 106.67 58.6371 106.219 57.8405C105.768 57.044 105.097 56.4296 104.306 56.0887L104.304 56.0918Z" fill="black"/>
<path d="M61.5937 47.4802C60.3759 46.6556 59.1009 45.9393 57.7807 45.3381C57.7569 45.3233 57.7365 45.3027 57.7209 45.2779C57.7054 45.2531 57.6951 45.2247 57.6909 45.1948C57.6867 45.165 57.6887 45.1345 57.6966 45.1056C57.7046 45.0767 57.7184 45.0502 57.737 45.0281L57.7432 45.0151C58.4264 44.1062 59.3358 43.302 60.4581 43.3411C60.9454 43.315 61.4231 43.4971 61.7927 43.8496C62.1623 44.2022 62.3956 44.6984 62.4444 45.2358C62.4426 46.0086 62.2345 46.7636 61.8463 47.4058C61.8214 47.4524 61.781 47.4863 61.7338 47.5002C61.6865 47.5141 61.6362 47.5069 61.5937 47.4802ZM61.5803 44.1781C61.2494 43.9187 60.8583 43.7696 60.4533 43.7486C60.0482 43.7277 59.6463 43.8356 59.2949 44.0597C58.871 44.3269 58.493 44.6749 58.1783 45.0876C59.3653 45.6391 60.5147 46.2851 61.6173 47.0208C62.0457 46.1298 62.4001 44.9196 61.5803 44.1756V44.1781Z" fill="black"/>
<path d="M41.5331 80.3797C41.6311 80.1404 41.9497 80.3481 41.8523 80.5862C41.6148 81.1649 41.3778 81.7448 41.1411 82.3259C41.0431 82.5652 40.725 82.3575 40.8219 82.1195L41.5331 80.3797Z" fill="black"/>
<path d="M91.3453 49.4479C90.8553 49.3126 90.4179 49.0055 90.0983 48.5724C89.7788 48.1393 89.5943 47.6035 89.5724 47.0448C89.5534 46.5738 89.6689 46.1081 89.9024 45.7139C90.1359 45.3196 90.4756 45.0167 90.8733 44.8481C91.2407 44.6698 91.6481 44.6182 92.0423 44.7001C92.4366 44.7819 92.7995 44.9934 93.0836 45.3069C93.3342 45.6416 93.5118 46.0358 93.6023 46.4589C93.6928 46.8819 93.6939 47.3224 93.6055 47.746C93.4947 48.2946 93.1993 48.7759 92.7795 49.092C92.3597 49.4081 91.8469 49.5354 91.3453 49.4479ZM92.952 45.7868C92.7471 45.5062 92.4736 45.2967 92.1641 45.1834C91.8546 45.0701 91.5223 45.0577 91.2066 45.1478C90.891 45.2378 90.6054 45.4265 90.384 45.6913C90.1625 45.9561 90.0145 46.2858 89.9577 46.6412C89.8891 47.176 90.0034 47.7199 90.2782 48.1662C90.5531 48.6124 90.9686 48.929 91.4433 49.0536C91.8179 49.1122 92.1991 49.0231 92.5203 48.8017C92.8414 48.5803 93.0818 48.2408 93.1995 47.8427C93.2934 47.5004 93.3199 47.1397 93.2772 46.7851C93.2345 46.4304 93.1236 46.09 92.952 45.7868Z" fill="black"/>
<path d="M25.9678 89.6121C25.9207 89.6093 25.8763 89.5865 25.8438 89.5485C25.8113 89.5105 25.7932 89.4602 25.7932 89.4078C25.7932 89.3555 25.8113 89.3052 25.8438 89.2672C25.8763 89.2292 25.9207 89.2064 25.9678 89.2036H60.2595C60.3066 89.2064 60.351 89.2292 60.3835 89.2672C60.416 89.3052 60.4341 89.3555 60.4341 89.4078C60.4341 89.4602 60.416 89.5105 60.3835 89.5485C60.351 89.5865 60.3066 89.6093 60.2595 89.6121H25.9678Z" fill="black"/>
<path d="M45.3516 41.0266C45.094 41.5539 44.7497 42.0232 44.3363 42.4104C44.2 42.5345 44.041 42.6243 43.8703 42.6737C43.6996 42.7231 43.5213 42.7308 43.3476 42.6965C43.1739 42.6621 43.009 42.5864 42.8643 42.4746C42.7196 42.3628 42.5986 42.2176 42.5096 42.0489C41.772 40.6527 42.3192 38.4585 43.0617 37.0338C43.3178 36.4266 43.7019 35.8965 44.1817 35.4881C44.8856 34.9561 45.9737 34.8408 46.4777 35.7448C47.0187 36.712 46.5847 38.0245 46.2464 38.9818C45.9914 39.6856 45.6924 40.3688 45.3516 41.0266ZM46.3316 36.5117C46.317 36.3126 46.2564 36.1209 46.1557 35.9552C46.055 35.7894 45.9175 35.655 45.7564 35.565C45.3822 35.464 44.9885 35.4992 44.6338 35.6653C44.279 35.8315 43.982 36.1198 43.7869 36.4875C43.3811 37.1471 43.0562 37.8635 42.8209 38.6179C42.5391 39.4477 42.4705 40.3478 42.6227 41.2181C42.7184 42.1556 43.5108 42.6237 44.1498 42.057C44.4558 41.7662 44.7145 41.4196 44.9148 41.0321C45.4673 40.046 45.8986 38.9826 46.1972 37.8701C46.3248 37.4321 46.3705 36.9699 46.3316 36.5117Z" fill="black"/>
<path d="M56.2764 33.191C56.1398 33.141 56.0128 33.0634 55.9018 32.9622C55.3485 32.4662 55.4678 31.4953 55.5512 30.7984C55.767 29.0991 56.1029 27.4212 56.5559 25.7801C56.7309 25.0862 56.9931 24.4229 57.3348 23.8097C57.5818 23.4272 57.9867 23.1091 58.3691 23.4904C58.7013 23.8949 58.8816 24.4244 58.8731 24.971C58.917 26.7549 58.7314 28.5366 58.3221 30.2627C58.0572 31.4934 57.36 33.5741 56.2764 33.191ZM58.3719 24.2301C58.1054 23.5847 57.8635 23.4384 57.3847 24.532C56.632 26.2749 56.1935 29.058 55.9847 30.3328C55.8993 30.8164 55.8573 31.3081 55.8592 31.8009C55.8379 32.3546 56.1919 32.9516 56.6768 32.8028C57.2172 32.6373 57.7039 31.2225 57.8528 30.6161C58.2815 28.9594 58.5076 27.2466 58.5248 25.5234C58.5414 25.0858 58.4897 24.6483 58.3719 24.2301Z" fill="black"/>
<path d="M55.2608 12.9876C55.0746 13.099 54.8572 13.1277 54.6526 13.0678C54.4481 13.0079 54.2718 12.8639 54.1598 12.6652C54.0129 12.3895 53.9184 12.0835 53.8819 11.7659C53.8454 11.4484 53.8677 11.1259 53.9476 10.8182C54.2091 9.52429 54.3323 6.32695 55.8482 6.48319C56.3589 6.53589 56.5454 7.00957 56.5818 7.51673C56.6647 8.99915 56.4082 12.2994 55.2608 12.9876ZM56.2223 7.80751C56.2223 7.48263 56.2262 6.95315 55.8482 6.89239C54.6722 6.70639 54.5602 9.80639 54.3037 10.9273C54.1888 11.4025 54.2285 11.9073 54.4157 12.3534C54.4631 12.4834 54.5544 12.5879 54.6703 12.6445C54.7862 12.7012 54.9175 12.7055 55.0362 12.6565C55.427 12.3641 55.7001 11.9151 55.7978 11.4041C56.1216 10.2404 56.2651 9.02432 56.2223 7.80751Z" fill="black"/>
<path d="M47.5285 29.0488C47.2849 28.9663 47.1729 28.6514 47.1113 28.4077C46.9203 27.6488 46.9903 26.0517 47.6791 26.26C48.5191 26.6233 48.5673 27.9904 48.0045 28.8405C47.9527 28.9234 47.8798 28.9875 47.7951 29.0246C47.7103 29.0617 47.6176 29.0701 47.5285 29.0488ZM47.7962 26.8472C47.5772 26.5682 47.5162 26.5892 47.4412 26.9476C47.364 27.406 47.3761 27.8773 47.4764 28.3302C47.575 28.7115 47.6702 28.7754 47.8477 28.3513C47.9534 28.095 48.0064 27.8159 48.0028 27.5341C48.0112 27.4102 47.9973 27.2856 47.9618 27.1677C47.9264 27.0497 47.8701 26.9408 47.7962 26.8472Z" fill="black"/>
<path d="M53.4993 80.6849C54.1069 80.2515 54.7895 79.9632 55.5035 79.8386C55.9017 79.7766 57.1701 79.5943 57.095 80.3929C57.034 81.0395 55.9806 81.2639 55.3999 81.476C53.4455 82.1915 53.1901 82.4196 51.7453 82.9795C51.5577 83.052 51.4553 82.7792 51.5661 82.6379C52.1202 81.8851 52.7716 81.227 53.4993 80.6849ZM55.4156 81.0408C55.7301 80.9404 56.0412 80.8268 56.348 80.7004C56.473 80.6474 56.5849 80.5625 56.6745 80.4524C56.7786 80.3209 56.6957 80.2664 56.5703 80.231C55.5539 80.1283 54.5363 80.4127 53.6857 81.037C53.1914 81.3965 52.7389 81.8219 52.3384 82.3037C52.9672 82.039 54.5554 81.3266 55.4156 81.0408Z" fill="black"/>
<path d="M51.8636 62.3787C51.2666 62.4345 50.5157 62.9578 50.6406 63.7278C50.682 63.9832 50.3208 64.0998 50.2844 63.8363C50.2422 63.4981 50.3008 63.1539 50.4514 62.856C50.602 62.5581 50.8364 62.3228 51.1188 62.1859C51.6666 61.9318 52.2752 61.8869 52.8486 62.0582C52.8467 62.0402 52.8467 62.0221 52.8486 62.0042C53.0491 60.7791 53.6836 59.4046 54.9072 59.2241C55.2768 59.1775 55.6495 59.169 56.0205 59.1987C57.1851 59.2469 58.3457 59.3776 59.4953 59.5899C60.3668 59.7381 61.2295 59.9433 62.0791 60.2044C62.1249 60.2201 62.1634 60.255 62.1864 60.3016C62.2094 60.3481 62.2151 60.4028 62.2024 60.454C62.1897 60.5052 62.1595 60.5489 62.1182 60.5759C62.0769 60.6029 62.0278 60.611 61.9811 60.5987C59.8543 59.972 57.6666 59.6341 55.4661 59.5924C55.1768 59.5642 54.8856 59.6126 54.6165 59.7337C54.3474 59.8547 54.1083 60.045 53.9188 60.2887C53.5378 60.8277 53.2883 61.466 53.1942 62.1425C55.5997 62.8694 57.9333 63.8616 60.16 65.1042C60.375 65.2158 60.188 65.568 59.9741 65.457C58.0336 64.3951 56.0207 63.5037 53.9541 62.791C53.285 62.5166 52.5771 62.377 51.8636 62.3787Z" fill="black"/>
<path d="M88.9811 68.2922C90.3755 69.2561 91.803 70.1582 93.2635 70.9985C93.474 71.1225 93.2875 71.4728 93.077 71.3519C91.6176 70.5124 90.1902 69.6103 88.7947 68.6456C88.5936 68.5061 88.779 68.1521 88.9811 68.2922Z" fill="black"/>
<path d="M93.8855 82.9924C94.3758 82.5897 94.8245 82.1283 95.2234 81.6166C95.3791 81.4176 95.6395 81.7078 95.4843 81.9055C95.0629 82.4418 94.5893 82.9248 94.072 83.3458C93.8811 83.502 93.6963 83.1474 93.8855 82.9924Z" fill="black"/>
<path d="M1.03199 43.7507L5.69567 44.5989C5.92975 44.641 5.83063 45.0329 5.59767 44.9932L0.933434 44.145C0.699914 44.1029 0.800151 43.7085 1.03199 43.7507Z" fill="black"/>
<path d="M2.48856 67.8601L6.53512 64.7105C6.73056 64.5586 6.91481 64.9132 6.72161 65.0633L2.67505 68.2135C2.48017 68.3654 2.29592 68.0108 2.48856 67.8601Z" fill="black"/>
<path d="M16.088 80.6073C16.0433 80.5917 16.0057 80.558 15.9825 80.5129C15.9594 80.4678 15.9524 80.4148 15.9631 80.3643C16.5186 78.0926 17.1749 75.382 17.2388 75.1414C17.253 75.0907 17.2845 75.0482 17.3266 75.0227C17.3686 74.9972 17.418 74.9909 17.4642 75.005C17.5105 75.019 17.5499 75.0525 17.5743 75.0982C17.5987 75.1439 17.6061 75.1983 17.5949 75.2499C17.2231 76.772 16.3769 80.2552 16.3198 80.4728C16.3127 80.4986 16.301 80.5225 16.2854 80.5432C16.2699 80.564 16.2508 80.5811 16.2292 80.5936C16.2076 80.6061 16.1841 80.6138 16.1598 80.6161C16.1356 80.6185 16.1112 80.6155 16.088 80.6073Z" fill="black"/>
<path d="M79.6248 61.0718C79.5503 61.3198 79.1936 61.2144 79.268 60.9633L80.0212 58.4405C80.0952 58.1925 80.4519 58.2979 80.3768 58.549C80.1267 59.3906 79.876 60.2315 79.6248 61.0718Z" fill="black"/>
<path d="M9.64231 30.2193L12.5246 33.7837C12.6831 33.979 12.4227 34.2691 12.2637 34.0726L9.38135 30.5088C9.22287 30.3129 9.48327 30.0227 9.64231 30.2193Z" fill="black"/>
<path d="M27.899 28.694C27.9388 28.7215 27.9676 28.7648 27.9795 28.8151C27.9914 28.8653 27.9854 28.9187 27.9628 28.9643C27.339 30.1851 26.8641 31.0661 25.752 33.0749C25.7261 33.119 25.6858 33.1504 25.6396 33.1625C25.5933 33.1746 25.5447 33.1666 25.5037 33.14C25.4626 33.1134 25.4325 33.0704 25.4194 33.0198C25.4063 32.9692 25.4113 32.915 25.4333 32.8684L27.6436 28.7578C27.6699 28.7119 27.7115 28.6794 27.7594 28.6675C27.8073 28.6555 27.8575 28.665 27.899 28.694Z" fill="black"/>
</svg>
