<svg width="154" height="154" viewBox="0 0 154 154" fill="none" xmlns="http://www.w3.org/2000/svg">
<path d="M125.749 121.426H111.824C111.726 121.805 111.54 122.155 111.28 122.447C111.019 122.739 110.693 122.965 110.328 123.105C110.386 123.188 112.231 125.853 113.09 127.105C113.289 127.322 113.418 127.592 113.462 127.882C113.461 128.058 113.408 128.23 113.308 128.375C113.209 128.521 113.068 128.633 112.904 128.696C112.74 128.76 112.56 128.773 112.389 128.734C112.217 128.694 112.062 128.603 111.943 128.474C111.183 127.681 110.418 126.892 109.65 126.108C109.465 126.338 109.244 126.537 108.995 126.696C108.141 127.179 107.169 127.414 106.189 127.375C106.393 127.636 106.542 127.935 106.628 128.254C106.714 128.574 106.734 128.907 106.688 129.235C106.641 129.562 106.529 129.877 106.358 130.16C106.187 130.443 105.96 130.689 105.692 130.882C105.013 131.394 104.263 131.805 103.467 132.102C102.469 132.486 101.483 132.901 100.487 133.29C91.8164 136.666 83.0259 139.483 73.8801 140.693C73.8801 141.003 73.8947 141.336 73.8947 141.336C73.8957 141.411 73.9256 141.482 73.9782 141.534C74.0308 141.587 74.1019 141.617 74.1763 141.618H125.747C125.822 141.617 125.893 141.587 125.945 141.534C125.998 141.482 126.028 141.411 126.029 141.336V121.707C126.028 121.633 125.998 121.563 125.946 121.51C125.894 121.458 125.823 121.427 125.749 121.426Z" fill="#FFF0B3"/>
<path d="M113.095 127.105C112.234 125.853 110.388 123.192 110.332 123.105C110.229 123.14 110.123 123.166 110.015 123.182C110.247 123.651 110.337 124.178 110.273 124.697C110.209 125.217 109.995 125.706 109.656 126.105L111.896 128.407C112.007 128.552 112.161 128.659 112.336 128.712C112.511 128.765 112.698 128.762 112.871 128.704C113.045 128.645 113.195 128.534 113.302 128.386C113.409 128.238 113.467 128.06 113.468 127.877C113.422 127.588 113.292 127.32 113.095 127.105Z" fill="#2755A0"/>
<path d="M87.7697 92.1079C87.7363 92.0599 87.6855 92.027 87.6281 92.0161C87.5708 92.0052 87.5114 92.0172 87.4628 92.0496C87.2932 92.1654 85.9137 93.3132 81.9837 96.5572C81.9326 96.6108 81.9041 96.6819 81.9041 96.756C81.9041 96.83 81.9326 96.9011 81.9837 96.9547C85.2507 100.484 85.5638 101.115 93.8763 109.822C96.7029 109.625 99.5316 110.171 102.081 111.407C97.039 104.363 87.8341 92.1915 87.7697 92.1079Z" fill="#2755A0"/>
<path d="M90.3166 12.1618C89.8792 10.8267 89.1099 9.6246 88.0808 8.66814C87.0518 7.71168 85.7967 7.03224 84.4332 6.69353C82.8641 6.30299 86.5424 6.42115 33.8076 6.42115C33.2628 6.42115 32.7142 6.40734 32.171 6.45798C30.0686 6.65231 28.1147 7.6249 26.6922 9.18506C25.2697 10.7452 24.4813 12.7805 24.4815 14.8918V31.5575C29.8416 29.0823 35.184 32.0056 36.0986 36.3913C40.6691 32.9652 45.5037 29.9063 50.5569 27.2432C51.8904 26.5833 53.4971 26.1391 54.7677 27.1519C55.2636 27.5569 55.6516 28.0782 55.8971 28.6696C56.1427 29.2609 56.2381 29.9037 56.1748 30.5409C55.8618 34.078 52.0132 37.0312 49.2442 39.2263H90.4854C90.5596 39.2251 90.6305 39.195 90.6829 39.1425C90.7353 39.0899 90.7652 39.019 90.7662 38.9447V29.1399H88.38C88.3309 29.139 88.2829 29.1254 88.2406 29.1004C88.1984 29.0754 88.1633 29.0398 88.1389 28.9972C88.1144 28.9546 88.1015 28.9064 88.1012 28.8573C88.101 28.8082 88.1135 28.7599 88.1376 28.7171C88.3148 28.4102 89.3552 26.6278 90.7662 24.2048V18.0767C89.5631 18.468 88.3723 17.6785 88.2442 16.0403C88.1606 14.9708 88.6048 13.1884 87.3549 12.6099C87.0947 12.5196 86.8095 12.5347 86.5603 12.652C86.3111 12.7693 86.1177 12.9794 86.0214 13.2375C85.7919 13.778 85.6986 14.3666 85.7498 14.9516C85.7659 15.9721 85.8956 17.5872 84.592 17.8756C84.0798 17.9916 83.5431 17.9211 83.0782 17.6769C82.602 17.3759 82.253 16.9103 82.0977 16.3687C81.8627 15.1194 81.8669 13.8369 82.1099 12.5892C82.1537 12.2347 82.7237 12.2316 82.6716 12.5892C82.5688 13.3365 82.5058 14.0887 82.4828 14.8426C82.4316 15.4778 82.5608 16.1146 82.8557 16.6795C82.9569 16.8558 83.0961 17.0075 83.2632 17.1234C83.4302 17.2394 83.6209 17.3168 83.8215 17.35C84.0222 17.3832 84.2277 17.3713 84.4231 17.3154C84.6186 17.2594 84.7992 17.1606 84.9519 17.0263C85.5933 15.8401 84.6941 13.9027 85.8143 12.5493C85.9931 12.3289 86.2289 12.1617 86.496 12.0659C86.7632 11.9701 87.0515 11.9494 87.3296 12.0061C87.5916 12.0864 87.8336 12.2216 88.0394 12.4025C88.2452 12.5835 88.4102 12.8061 88.5235 13.0557C89.0729 14.2442 88.5051 15.5877 88.99 16.7838C89.0541 16.9519 89.1527 17.1046 89.2796 17.2322C89.4064 17.3597 89.5585 17.4593 89.7262 17.5244C89.8939 17.5894 90.0734 17.6186 90.2531 17.61C90.4327 17.6014 90.6086 17.5552 90.7693 17.4744V15.8232C90.8374 14.5855 90.6841 13.3456 90.3166 12.1618ZM51.1477 15.2685L47.148 20.1022C47.2577 20.2204 49.8334 23.0232 51.0119 24.3061C51.2567 24.5723 50.8585 24.9713 50.6145 24.7035C50.448 24.5225 47.7656 21.5854 46.5771 20.3109C46.5267 20.2571 46.4986 20.186 46.4986 20.1122C46.4986 20.0384 46.5267 19.9674 46.5771 19.9135L50.7503 14.8741C50.9812 14.5902 51.3771 14.99 51.1477 15.2685ZM63.0081 15.6076C63.0081 15.6076 56.2938 22.404 53.8853 24.7288C53.8318 24.7777 53.7614 24.8041 53.6889 24.8024C53.6165 24.8007 53.5474 24.7711 53.4962 24.7198C53.445 24.6685 53.4155 24.5994 53.414 24.5269C53.4124 24.4544 53.4389 24.3841 53.4879 24.3306C54.1485 23.6478 60.2022 17.5373 62.6099 15.2086C62.6634 15.1596 62.7337 15.1332 62.8061 15.1347C62.8786 15.1363 62.9477 15.1657 62.9991 15.2169C63.0504 15.2682 63.08 15.3372 63.0816 15.4097C63.0833 15.4822 63.057 15.5525 63.0081 15.6061V15.6076ZM69.6189 20.3079C69.4516 20.4882 66.7616 23.4176 65.5823 24.7005C65.3368 24.9682 64.9401 24.5693 65.1848 24.303L69.048 20.0992C68.9352 19.9618 66.269 16.7416 65.049 15.2654C64.8189 14.9884 65.2155 14.5887 65.4465 14.868L69.6189 19.9074C69.6701 19.9611 69.6987 20.0326 69.6987 20.1068C69.6987 20.1811 69.6701 20.2526 69.6189 20.3063V20.3079Z" fill="#CCEAFF"/>
<path d="M50.7499 14.8696L46.5767 19.909C46.5263 19.9629 46.4982 20.0339 46.4982 20.1077C46.4982 20.1815 46.5263 20.2526 46.5767 20.3064C47.7652 21.5809 50.4476 24.5179 50.6141 24.699C50.8596 24.966 51.2563 24.5678 51.0115 24.3016L47.1476 20.0977L51.1473 15.264C51.3767 14.9901 50.9808 14.5903 50.7499 14.8696Z" fill="#2755A0"/>
<path d="M89.4342 47.7814C89.5063 47.7776 89.5741 47.7464 89.6238 47.694C89.6734 47.6417 89.7011 47.5723 89.7011 47.5002C89.7011 47.4281 89.6734 47.3587 89.6238 47.3063C89.5741 47.254 89.5063 47.2228 89.4342 47.219H88.667L88.179 47.7814H89.4342Z" fill="#2755A0"/>
<path d="M69.0472 20.0977L65.184 24.3015C64.9392 24.5678 65.3374 24.9668 65.5814 24.699C66.7607 23.4161 69.4508 20.4867 69.618 20.3064C69.6688 20.2527 69.6971 20.1816 69.6971 20.1077C69.6971 20.0338 69.6688 19.9627 69.618 19.9089L65.4472 14.8696C65.217 14.5903 64.8203 14.99 65.0497 15.267C69.7162 20.9049 68.4548 19.3818 69.0472 20.0977Z" fill="#2755A0"/>
<path d="M63.008 15.6061C63.0569 15.5526 63.0832 15.4822 63.0815 15.4097C63.0798 15.3373 63.0502 15.2682 62.9989 15.217C62.9476 15.1658 62.8785 15.1363 62.806 15.1348C62.7335 15.1332 62.6632 15.1597 62.6098 15.2087C60.2013 17.5373 54.1484 23.6486 53.4878 24.3307C53.4388 24.3841 53.4123 24.4544 53.4138 24.5269C53.4154 24.5994 53.4448 24.6685 53.4961 24.7198C53.5473 24.7712 53.6163 24.8007 53.6888 24.8024C53.7613 24.8041 53.8316 24.7778 53.8852 24.7289C56.2936 22.4041 63.008 15.6061 63.008 15.6061Z" fill="#2755A0"/>
<path d="M90.5582 44.2045C90.5582 40.9965 90.5789 41.1799 90.5114 41.0794C90.5404 41.1334 90.5525 41.1949 90.5462 41.2559C90.5399 41.3169 90.5155 41.3746 90.4761 41.4216C90.4761 41.4216 72.1377 62.5651 71.2262 63.6063C69.9984 65.0236 68.4696 66.1488 66.7513 66.8997C65.0331 67.6506 63.1688 68.0083 61.2947 67.9467H39.3993C39.2328 68.3043 39.0678 68.6626 38.899 69.0209C42.2527 68.3357 44.0075 69.4567 45.8742 68.3679C45.9069 68.3495 45.9429 68.3378 45.9802 68.3335C46.0174 68.3291 46.0552 68.3322 46.0912 68.3425C46.1273 68.3529 46.1609 68.3703 46.1902 68.3938C46.2194 68.4172 46.2437 68.4463 46.2617 68.4792C46.4104 69.3587 46.3295 70.2618 46.0269 71.1009C45.9617 71.2912 45.8888 71.4784 45.8059 71.6626H61.6883C63.5845 71.6682 65.4575 71.2459 67.1678 70.427C68.8781 69.6081 70.3815 68.4138 71.5661 66.9331C73.0492 65.1938 89.8477 45.8618 90.3272 45.3093C90.4446 45.2079 90.5255 45.0707 90.5574 44.9188C90.5707 44.6809 90.571 44.4424 90.5582 44.2045Z" fill="#CCEAFF"/>
<path d="M90.2784 40.9413H47.1658C45.204 42.66 43.4615 44.628 43.0702 47.219H55.1515C55.2236 47.2228 55.2914 47.2541 55.3411 47.3064C55.3907 47.3587 55.4184 47.4281 55.4184 47.5002C55.4184 47.5724 55.3907 47.6418 55.3411 47.6941C55.2914 47.7464 55.2236 47.7777 55.1515 47.7814H43.0126C42.8866 48.6734 43.0941 49.5805 43.5955 50.3289C44.0968 51.0773 44.8567 51.6144 45.7295 51.8372C47.3341 52.1905 48.9556 52.4614 50.5878 52.649C54.6651 53.2628 55.9165 53.3495 57.3267 53.8965H63.9198C63.9919 53.9003 64.0597 53.9316 64.1094 53.9839C64.159 54.0362 64.1867 54.1056 64.1867 54.1778C64.1867 54.2499 64.159 54.3193 64.1094 54.3716C64.0597 54.4239 63.9919 54.4552 63.9198 54.4589H58.3357C60.6145 56.0948 59.7705 59.4331 57.3544 60.8081H71.7283C71.8003 60.8118 71.8682 60.8431 71.9178 60.8954C71.9675 60.9477 71.9952 61.0171 71.9952 61.0893C71.9952 61.1614 71.9675 61.2308 71.9178 61.2831C71.8682 61.3354 71.8003 61.3667 71.7283 61.3705H56.1451C54.8825 61.7738 53.5788 62.0348 52.2582 62.1485C48.7963 62.4947 45.3134 62.5801 41.8387 62.404C41.0724 64.2727 40.2594 66.1218 39.4004 67.9498H61.2958C63.1702 68.0109 65.0345 67.6527 66.7527 66.9012C68.471 66.1497 69.9997 65.024 71.2273 63.6063C72.1388 62.5636 90.4772 41.4201 90.4772 41.4201C90.5135 41.3798 90.5377 41.33 90.5469 41.2765C90.5561 41.223 90.5499 41.168 90.5291 41.1179C90.5083 41.0677 90.4737 41.0246 90.4293 40.9933C90.385 40.962 90.3326 40.944 90.2784 40.9413ZM83.9101 47.7814H72.9782C72.9061 47.7777 72.8383 47.7464 72.7886 47.6941C72.739 47.6418 72.7113 47.5724 72.7113 47.5002C72.7113 47.4281 72.739 47.3587 72.7886 47.3064C72.8383 47.2541 72.9061 47.2228 72.9782 47.219H83.9117C83.9697 47.2397 84.02 47.2778 84.0555 47.3282C84.091 47.3785 84.1101 47.4386 84.1101 47.5002C84.1101 47.5619 84.091 47.622 84.0555 47.6723C84.02 47.7227 83.9697 47.7608 83.9117 47.7814H83.9101ZM58.7232 47.7814C58.6511 47.7777 58.5833 47.7464 58.5336 47.6941C58.4839 47.6418 58.4563 47.5724 58.4563 47.5002C58.4563 47.4281 58.4839 47.3587 58.5336 47.3064C58.5833 47.2541 58.6511 47.2228 58.7232 47.219H69.4188C69.4909 47.2228 69.5587 47.2541 69.6084 47.3064C69.658 47.3587 69.6857 47.4281 69.6857 47.5002C69.6857 47.5724 69.658 47.6418 69.6084 47.6941C69.5587 47.7464 69.4909 47.7777 69.4188 47.7814H58.7232ZM67.3326 54.4566C67.2606 54.4529 67.1927 54.4216 67.1431 54.3693C67.0934 54.317 67.0657 54.2476 67.0657 54.1754C67.0657 54.1033 67.0934 54.0339 67.1431 53.9816C67.1927 53.9293 67.2606 53.898 67.3326 53.8942H77.9355C78.0075 53.898 78.0753 53.9293 78.125 53.9816C78.1747 54.0339 78.2024 54.1033 78.2024 54.1754C78.2024 54.2476 78.1747 54.317 78.125 54.3693C78.0753 54.4216 78.0075 54.4529 77.9355 54.4566H67.3326Z" fill="#78B5FF"/>
<path d="M72.9775 47.7814H83.911C83.983 47.7776 84.0509 47.7464 84.1005 47.694C84.1502 47.6417 84.1779 47.5723 84.1779 47.5002C84.1779 47.4281 84.1502 47.3587 84.1005 47.3063C84.0509 47.254 83.983 47.2228 83.911 47.219H72.9775C72.9054 47.2228 72.8376 47.254 72.7879 47.3063C72.7383 47.3587 72.7106 47.4281 72.7106 47.5002C72.7106 47.5723 72.7383 47.6417 72.7879 47.694C72.8376 47.7464 72.9054 47.7776 72.9775 47.7814Z" fill="#2755A0"/>
<path d="M69.4198 47.219H58.7242C58.6521 47.2228 58.5843 47.254 58.5346 47.3063C58.4849 47.3587 58.4573 47.4281 58.4573 47.5002C58.4573 47.5723 58.4849 47.6417 58.5346 47.694C58.5843 47.7464 58.6521 47.7776 58.7242 47.7814H69.4198C69.4919 47.7776 69.5597 47.7464 69.6094 47.694C69.659 47.6417 69.6867 47.5723 69.6867 47.5002C69.6867 47.4281 69.659 47.3587 69.6094 47.3063C69.5597 47.254 69.4919 47.2228 69.4198 47.219Z" fill="#2755A0"/>
<path d="M58.7243 72.5371C58.6498 72.5371 58.5784 72.5667 58.5258 72.6194C58.4731 72.6721 58.4435 72.7435 58.4435 72.818C58.4435 72.8924 58.4731 72.9639 58.5258 73.0165C58.5784 73.0692 58.6498 73.0988 58.7243 73.0988H65.7548C65.8292 73.0988 65.9007 73.0692 65.9533 73.0165C66.006 72.9639 66.0356 72.8924 66.0356 72.818C66.0356 72.7435 66.006 72.6721 65.9533 72.6194C65.9007 72.5667 65.8292 72.5371 65.7548 72.5371H58.7243Z" fill="#2755A0"/>
<path d="M55.151 47.7814C55.223 47.7776 55.2909 47.7464 55.3405 47.694C55.3902 47.6417 55.4179 47.5723 55.4179 47.5002C55.4179 47.4281 55.3902 47.3587 55.3405 47.3063C55.2909 47.254 55.223 47.2228 55.151 47.219H43.0696C43.042 47.4055 43.0228 47.5932 43.0121 47.7814H55.151Z" fill="#2755A0"/>
<path d="M77.9366 53.8967H67.3338C67.2617 53.9004 67.1939 53.9317 67.1442 53.984C67.0946 54.0363 67.0669 54.1057 67.0669 54.1779C67.0669 54.25 67.0946 54.3194 67.1442 54.3717C67.1939 54.424 67.2617 54.4553 67.3338 54.4591H77.9366C78.0086 54.4553 78.0765 54.424 78.1261 54.3717C78.1758 54.3194 78.2035 54.25 78.2035 54.1779C78.2035 54.1057 78.1758 54.0363 78.1261 53.984C78.0765 53.9317 78.0086 53.9004 77.9366 53.8967Z" fill="#2755A0"/>
<path d="M63.9178 53.8967H57.3247C57.6836 54.0415 58.023 54.2305 58.3352 54.4591H63.9178C63.9849 54.4485 64.0459 54.4144 64.09 54.3629C64.1341 54.3113 64.1583 54.2457 64.1583 54.1779C64.1583 54.11 64.1341 54.0444 64.09 53.9929C64.0459 53.9413 63.9849 53.9072 63.9178 53.8967Z" fill="#2755A0"/>
<path d="M71.7281 61.3703C71.8001 61.3666 71.8679 61.3353 71.9176 61.283C71.9673 61.2306 71.9949 61.1613 71.9949 61.0891C71.9949 61.017 71.9673 60.9476 71.9176 60.8953C71.8679 60.843 71.8001 60.8117 71.7281 60.8079H57.3541C56.9696 61.0329 56.5647 61.2213 56.1449 61.3703H71.7281Z" fill="#2755A0"/>
<path d="M57.3251 53.8965C55.9355 53.3464 54.4647 53.2297 50.5862 52.6489C47.3943 52.1709 46.8189 52.1118 45.7278 51.8371C44.0399 51.4144 42.8813 49.9566 43.0125 47.7814C43.1821 44.974 45.0511 42.7896 47.1657 40.9412C50.402 38.1131 55.7974 34.8085 56.1749 30.541C56.2381 29.9038 56.1427 29.2609 55.8972 28.6696C55.6517 28.0783 55.2637 27.5569 54.7678 27.1519C53.4972 26.1392 51.8905 26.5834 50.557 27.2433C45.5016 29.903 40.6668 32.9624 36.0987 36.3921C35.8319 35.2772 35.3081 34.2402 34.5689 33.364C33.8298 32.4878 32.8959 31.7966 31.8419 31.3458C27.991 29.6417 23.6222 31.1924 20.8217 34.2438C19.5557 31.9642 16.7084 31.1233 14.2278 31.4716C11.0567 31.9174 8.71347 34.3972 7.31552 37.1279C5.70177 40.571 4.70207 44.2696 4.36155 48.0568C4.08456 50.997 4.19889 51.3238 4.11832 70.939C4.11932 70.8648 4.14922 70.7939 4.20167 70.7415C4.25412 70.689 4.32497 70.6591 4.39914 70.6581C7.26795 70.6374 -4.74051 70.6581 34.8918 70.6581C36.1095 69.8607 37.4692 69.3048 38.8969 69.0208C40.215 66.2395 41.1649 64.0497 41.8355 62.4024C45.3111 62.5792 48.7951 62.4943 52.258 62.1484C53.5797 62.0432 54.8844 61.7826 56.145 61.3719C60.1647 60.0001 61.0072 55.3528 57.3251 53.8965ZM30.0925 44.6057C29.9575 44.9371 29.4143 44.7921 29.5501 44.4568C30.5758 41.9166 32.1976 39.6605 34.2787 37.8791C34.5526 37.6489 34.9524 38.0417 34.6762 38.2765C32.6628 39.9881 31.0907 42.1589 30.0925 44.6057ZM15.4562 41.5796C16.3703 39.5072 17.6372 37.6092 19.2004 35.9701C19.4506 35.7069 19.8472 36.1052 19.5979 36.3676C18.0705 37.974 16.8334 39.8333 15.9419 41.8627C15.7969 42.1942 15.3119 41.9072 15.4562 41.5796Z" fill="#FFD2D2"/>
<path d="M110.698 118.29C108.596 115.909 106.163 113.842 103.474 112.152C99.0918 109.533 95.1641 109.5 90.1808 110.171C87.0242 110.595 82.0209 111.534 81.8061 111.629C81.8463 111.621 81.8878 111.622 81.9276 111.632C81.9675 111.642 82.0046 111.66 82.0365 111.686C82.0684 111.712 82.0942 111.744 82.1122 111.781C82.1302 111.818 82.1399 111.858 82.1406 111.9C82.1406 112.316 82.258 126.946 82.1406 138.95C82.1398 139.008 82.1216 139.064 82.0883 139.11C82.055 139.157 82.0082 139.193 81.9541 139.213C86.1778 138.219 90.3435 136.992 94.4322 135.54C99.8099 133.644 101.634 132.803 103.469 132.102C104.266 131.805 105.015 131.394 105.694 130.882C105.963 130.689 106.189 130.443 106.36 130.16C106.531 129.877 106.644 129.562 106.69 129.235C106.736 128.907 106.716 128.574 106.631 128.254C106.545 127.935 106.395 127.636 106.191 127.375C107.172 127.414 108.144 127.179 108.998 126.696C109.568 126.337 109.987 125.781 110.174 125.133C110.361 124.486 110.303 123.792 110.011 123.184C110.514 123.076 110.968 122.808 111.306 122.42C111.644 122.032 111.847 121.545 111.885 121.032C111.845 120.002 111.422 119.024 110.698 118.29ZM95.5639 125.943C98.2237 126.128 100.875 126.41 103.517 126.787C103.588 126.807 103.65 126.854 103.686 126.919C103.723 126.984 103.733 127.061 103.713 127.133C103.691 127.204 103.643 127.263 103.579 127.3C103.515 127.336 103.439 127.347 103.367 127.329C100.777 126.959 98.1756 126.683 95.5639 126.502C95.2048 126.48 95.2033 125.917 95.5639 125.943ZM98.2094 117.576C97.8864 117.412 98.1718 116.927 98.4933 117.09L107.866 121.842C108.189 122.005 107.905 122.49 107.582 122.327L98.2094 117.576Z" fill="#FFD2D2"/>
<path d="M82.141 111.899C82.1405 111.863 82.1327 111.826 82.1181 111.792C82.1034 111.758 82.0822 111.728 82.0557 111.702C82.0292 111.676 81.9978 111.656 81.9635 111.643C81.9292 111.629 81.8925 111.623 81.8556 111.623C80.8927 111.639 66.633 115.262 59.5535 116.721C58.8997 113.787 57.9663 110.923 56.766 108.168C55.6154 105.45 54.0445 102.931 52.111 100.701C45.666 93.3747 34.9742 91.8831 25.3665 94.9752C27.0294 91.9634 28.6742 88.9414 30.3008 85.9092C29.8652 84.8332 29.6524 83.6801 29.6752 82.5196C29.698 81.3591 29.956 80.2152 30.4335 79.1572C30.7568 78.4745 31.261 77.8934 31.8913 77.4769C31.9643 77.2534 32.0556 77.0363 32.1644 76.8278C31.3688 75.9493 31.7731 74.4209 32.3371 73.3583C32.9522 72.2591 33.8327 71.3314 34.8982 70.6598H4.40174C4.32751 70.6606 4.25655 70.6904 4.20405 70.7429C4.15156 70.7954 4.12172 70.8664 4.12092 70.9406C4.07412 75.8457 3.83627 141.226 3.83627 141.569C3.83707 141.643 3.86691 141.714 3.9194 141.767C3.97189 141.819 4.04286 141.849 4.11709 141.85H60.3837C60.458 141.849 60.529 141.819 60.5816 141.767C60.6343 141.714 60.6643 141.643 60.6653 141.569V141.204C67.8128 141.573 74.9762 140.906 81.9323 139.221L81.9522 139.213C82.0063 139.193 82.0531 139.157 82.0864 139.11C82.1197 139.064 82.1379 139.008 82.1387 138.95C82.1418 138.875 82.1441 112.266 82.141 111.899ZM63.7742 138.108H67.6443C67.7163 138.111 67.7842 138.143 67.8338 138.195C67.8835 138.247 67.9112 138.317 67.9112 138.389C67.9112 138.461 67.8835 138.53 67.8338 138.583C67.7842 138.635 67.7163 138.666 67.6443 138.67H63.7742C63.7022 138.666 63.6343 138.635 63.5847 138.583C63.535 138.53 63.5073 138.461 63.5073 138.389C63.5073 138.317 63.535 138.247 63.5847 138.195C63.6343 138.143 63.7022 138.111 63.7742 138.108ZM59.2642 116.778C59.6179 116.706 59.7683 117.249 59.4177 117.32C51.7796 118.855 48.3522 119.238 41.0494 116.603C32.934 113.674 26.5557 110.349 19.0826 107.549C18.7465 107.423 18.8931 106.879 19.236 107.007C27.3215 110.038 39.4074 116.088 46.0903 117.523C50.5082 118.466 54.8225 117.675 59.2642 116.778ZM17.8266 78.7644C17.9033 79.1173 17.3662 79.2662 17.2841 78.914C17.0922 78.0843 17.1657 77.2152 17.4941 76.4294C17.8226 75.6436 18.3895 74.9808 19.1148 74.5345C19.7169 74.2483 20.3778 74.1077 21.0442 74.1241C21.7106 74.1405 22.3639 74.3134 22.9511 74.6288C23.8056 75.1744 24.5134 75.921 25.0128 76.8033C25.9565 78.1943 28.0918 82.0207 28.9059 83.4946C28.9435 83.5589 28.9541 83.6355 28.9352 83.7076C28.9164 83.7797 28.8697 83.8413 28.8054 83.879C28.7735 83.8976 28.7383 83.9098 28.7018 83.9149C28.6652 83.9199 28.628 83.9177 28.5923 83.9083C28.5203 83.8895 28.4586 83.8428 28.421 83.7785C26.4575 80.4961 24.4043 76.0613 22.7163 75.146C22.1968 74.8464 21.6097 74.6837 21.0101 74.6731C20.4105 74.6625 19.818 74.8043 19.2882 75.0854C18.6981 75.476 18.2417 76.038 17.9804 76.6957C17.7191 77.3534 17.6654 78.0753 17.8266 78.7644ZM6.40891 74.2567C6.41267 74.1847 6.44394 74.1168 6.49626 74.0672C6.54858 74.0175 6.61797 73.9898 6.69011 73.9898C6.76224 73.9898 6.83163 74.0175 6.88395 74.0672C6.93628 74.1168 6.96755 74.1847 6.97131 74.2567V78.8181C6.96755 78.8902 6.93628 78.958 6.88395 79.0077C6.83163 79.0573 6.76224 79.085 6.69011 79.085C6.61797 79.085 6.54858 79.0573 6.49626 79.0077C6.44394 78.958 6.41267 78.8902 6.40891 78.8181V74.2567ZM60.3898 141.185C47.4844 140.311 39.399 135.989 28.9826 128.937C21.0752 123.583 18.4304 121.288 13.0005 117.563C12.7043 117.359 12.9859 116.872 13.2844 117.078C19.3833 121.262 20.6348 122.617 30.267 129.124C40.022 135.715 48.32 139.857 60.3898 140.621C60.7397 140.645 60.7558 141.21 60.3898 141.185Z" fill="#FFD500"/>
<path d="M31.7197 78.3178C30.1138 79.9452 29.9504 83.1209 30.6524 85.2447C31.414 83.8176 32.1698 82.3874 32.9197 80.9541C32.517 80.6484 32.1966 80.2475 31.9871 79.7874C31.7777 79.3272 31.6858 78.8222 31.7197 78.3178Z" fill="#C0C195"/>
<path d="M19.2006 35.9703C17.6373 37.6093 16.3704 39.5073 15.4563 41.5797C15.3121 41.9074 15.797 42.1935 15.942 41.8629C16.8337 39.8337 18.0707 37.9746 19.598 36.3685C19.8474 36.1053 19.4507 35.7071 19.2006 35.9703Z" fill="#FF4848"/>
<path d="M34.2778 37.8792C32.1967 39.6606 30.5748 41.9167 29.5491 44.4569C29.4133 44.7922 29.9566 44.9372 30.0916 44.6058C31.0898 42.159 32.6619 39.9882 34.6752 38.2766C34.9514 38.0418 34.5517 37.6451 34.2778 37.8792Z" fill="#FF4848"/>
<path d="M46.2969 68.6102C46.2958 68.5612 46.2821 68.5133 46.257 68.4712C46.232 68.429 46.1965 68.3941 46.154 68.3697C46.1114 68.3453 46.0633 68.3323 46.0143 68.332C45.9653 68.3316 45.917 68.344 45.8742 68.3678C44.2844 69.2954 42.6762 68.611 40.0997 68.8281C37.1841 69.0759 33.7314 70.7187 32.3327 73.355C31.7711 74.4123 31.366 75.9468 32.1601 76.8245C33.6348 73.9949 37.3529 73.7378 39.7192 75.5026C39.905 75.6268 40.0741 75.7743 40.2225 75.9414C41.8206 75.5484 43.2885 74.7455 44.4816 73.612C45.1348 72.9641 45.6364 72.1796 45.9503 71.3148C46.2642 70.4499 46.3826 69.5263 46.2969 68.6102Z" fill="black"/>
<path d="M35.0136 77.4976C34.439 77.3596 33.8395 77.3621 33.266 77.5049C32.6925 77.6477 32.1619 77.9265 31.719 78.3179C31.4835 81.1406 35.517 83.1324 38.8009 81.5619C38.2692 79.6468 36.9426 77.9081 35.0136 77.4976Z" fill="#FFD2D2"/>
<path d="M41.0767 77.5367C40.3363 73.9367 33.4102 72.8341 31.8872 77.4753C32.1202 77.3202 32.3721 77.1957 32.6368 77.1047C35.2048 76.197 38.2209 77.6418 39.3012 81.2633C39.9173 80.8715 40.4105 80.3142 40.7245 79.6551C41.0385 78.9961 41.1606 78.2619 41.0767 77.5367Z" fill="#FFD2D2"/>
<path d="M25.0125 76.8031C24.5114 75.9214 23.802 75.1759 22.9462 74.6318C22.359 74.3163 21.7057 74.1434 21.0393 74.127C20.3729 74.1106 19.712 74.2512 19.1099 74.5374C18.3846 74.9837 17.8177 75.6466 17.4892 76.4323C17.1608 77.2181 17.0873 78.0872 17.2792 78.9169C17.3605 79.2691 17.9022 79.1203 17.8217 78.7673C17.66 78.0773 17.7137 77.3544 17.9756 76.6958C18.2375 76.0373 18.695 75.4749 19.2864 75.0845C19.8162 74.8034 20.4086 74.6616 21.0083 74.6722C21.6079 74.6828 22.195 74.8455 22.7145 75.1451C24.4025 76.0612 26.415 80.4269 28.4191 83.7776C28.4568 83.8419 28.5184 83.8886 28.5905 83.9074C28.6262 83.9168 28.6634 83.919 28.6999 83.9139C28.7365 83.9089 28.7717 83.8967 28.8035 83.8781C28.8354 83.8594 28.8632 83.8347 28.8855 83.8053C28.9078 83.7759 28.9241 83.7424 28.9334 83.7067C28.9427 83.671 28.9449 83.6338 28.9399 83.5973C28.9349 83.5607 28.9227 83.5255 28.904 83.4937C28.0953 82.0205 25.9593 78.1911 25.0125 76.8031Z" fill="black"/>
<path d="M52.332 82.1119C51.2363 76.0843 45.0246 75.3914 43.2599 79.1556C42.7177 80.3102 42.4618 81.5786 42.5141 82.8531C42.4274 82.807 42.6353 82.8216 39.5985 82.8216C39.3936 80.4431 38.0486 77.984 35.8128 77.1439C34.8295 76.7251 33.7228 76.7004 32.7218 77.0749C31.7208 77.4494 30.9021 78.1943 30.435 79.1556C29.5431 81.1297 29.4297 83.3677 30.1174 85.4219C30.4864 86.5636 31.2143 87.5556 32.1928 88.25C35.4153 90.5472 39.6951 88.3781 39.6276 83.3833C42.62 83.3833 42.4435 83.4055 42.5432 83.3326C42.5947 84.0424 42.7296 84.7437 42.9453 85.4219C43.7379 87.917 46.3212 89.6702 48.8709 89.028C51.2172 88.4319 52.9665 85.5999 52.332 82.1119ZM37.5031 87.5595C35.3655 89.6357 31.932 88.3467 30.8279 85.7295C29.855 83.4278 30.0299 79.326 32.1974 77.9326C33.047 77.4346 34.054 77.2777 35.0148 77.4937C38.8742 78.3193 40.5468 84.607 37.5031 87.5633V87.5595ZM50.3294 87.5595C48.1811 89.6449 44.7284 88.3367 43.6542 85.7295C42.9627 83.9165 42.9027 81.9232 43.4839 80.0717C43.7469 79.2082 44.2884 78.456 45.0238 77.9326C45.8749 77.4388 46.8802 77.2822 47.8412 77.4937C51.7251 78.3377 53.3586 84.6216 50.3325 87.5633L50.3294 87.5595Z" fill="black"/>
<path d="M98.2097 117.576L107.583 122.327C107.905 122.49 108.19 122.005 107.867 121.842L98.4936 117.09C98.1729 116.926 97.8875 117.411 98.2097 117.576Z" fill="#FF4848"/>
<path d="M95.5639 126.505C98.1726 126.687 100.774 126.963 103.367 127.332C103.439 127.35 103.515 127.34 103.579 127.303C103.644 127.266 103.691 127.207 103.713 127.136C103.733 127.064 103.723 126.987 103.686 126.922C103.65 126.857 103.589 126.81 103.517 126.79C100.876 126.412 98.2253 126.131 95.5639 125.946C95.2033 125.917 95.2049 126.48 95.5639 126.505Z" fill="#FF4848"/>
<path d="M86.2323 91.1831L81.0011 95.6333C80.7257 95.868 81.1247 96.2639 81.3993 96.0307L86.6298 91.5806C86.906 91.3465 86.5062 90.9499 86.2323 91.1831Z" fill="#2755A0"/>
<path d="M80.6776 95.163C82.4679 93.7354 84.2237 92.2676 85.9449 90.7597C86.2173 90.5211 85.8183 90.1244 85.5475 90.3623C83.8247 91.8692 82.069 93.337 80.2802 94.7656C79.9971 94.9912 80.3976 95.3871 80.6776 95.163Z" fill="#2755A0"/>
<path d="M63.7737 138.671H67.6437C67.7158 138.667 67.7836 138.636 67.8333 138.584C67.8829 138.531 67.9106 138.462 67.9106 138.39C67.9106 138.318 67.8829 138.248 67.8333 138.196C67.7836 138.144 67.7158 138.112 67.6437 138.108H63.7737C63.7016 138.112 63.6338 138.144 63.5841 138.196C63.5344 138.248 63.5068 138.318 63.5068 138.39C63.5068 138.462 63.5344 138.531 63.5841 138.584C63.6338 138.636 63.7016 138.667 63.7737 138.671Z" fill="#77751E"/>
<path d="M6.40918 74.2565V78.8179C6.41294 78.89 6.44421 78.9578 6.49653 79.0075C6.54885 79.0571 6.61824 79.0848 6.69038 79.0848C6.76252 79.0848 6.8319 79.0571 6.88423 79.0075C6.93655 78.9578 6.96782 78.89 6.97158 78.8179V74.2565C6.96782 74.1845 6.93655 74.1167 6.88423 74.067C6.8319 74.0173 6.76252 73.9897 6.69038 73.9897C6.61824 73.9897 6.54885 74.0173 6.49653 74.067C6.44421 74.1167 6.41294 74.1845 6.40918 74.2565Z" fill="#77751E"/>
<path d="M39.4121 134.703C29.7362 129.498 19.6781 121.465 13.2837 117.078C12.9852 116.872 12.7037 117.359 12.9998 117.563C18.1604 121.103 21.3116 123.741 28.9819 128.936C39.4751 136.044 47.5543 140.316 60.3892 141.185C60.7551 141.21 60.7398 140.648 60.3892 140.623C53.0484 140.205 45.8882 138.185 39.4121 134.703Z" fill="#77751E"/>
<path d="M46.0808 117.517C39.3481 116.07 27.4309 110.074 19.2266 107C18.8874 106.873 18.7409 107.416 19.0731 107.543C26.5808 110.358 32.9245 113.67 41.0399 116.597C48.3535 119.237 51.7816 118.846 59.4082 117.314C59.7627 117.243 59.6123 116.7 59.2548 116.772C54.7916 117.681 50.4857 118.466 46.0808 117.517Z" fill="#77751E"/>
<path d="M132.741 141.296V117.557C132.775 116.301 133.296 115.108 134.194 114.229C135.093 113.351 136.298 112.857 137.554 112.852C138.81 112.847 140.019 113.331 140.925 114.202C141.83 115.073 142.361 116.263 142.404 117.518C142.404 117.779 142.4 118.039 142.404 118.299C142.408 118.371 142.439 118.439 142.492 118.489C142.544 118.538 142.613 118.566 142.686 118.566C142.758 118.566 142.827 118.538 142.879 118.489C142.932 118.439 142.963 118.371 142.967 118.299C143.017 117.458 142.919 116.615 142.678 115.807C142.264 114.596 141.433 113.572 140.333 112.917C139.234 112.262 137.937 112.019 136.675 112.233C135.413 112.446 134.268 113.101 133.444 114.081C132.621 115.06 132.172 116.301 132.179 117.581V141.296C132.183 141.369 132.214 141.436 132.266 141.486C132.319 141.536 132.388 141.563 132.46 141.563C132.532 141.563 132.602 141.536 132.654 141.486C132.706 141.436 132.738 141.369 132.741 141.296Z" fill="#FFC431"/>
<path d="M142.041 111.407C140.878 110.661 139.548 110.216 138.171 110.109C136.793 110.003 135.411 110.24 134.147 110.798C132.902 111.389 131.85 112.321 131.115 113.487C130.38 114.653 129.992 116.003 129.996 117.382C129.991 118.211 129.977 137.892 129.996 140.849C130.007 142.054 129.629 143.23 128.918 144.203C128.207 145.175 127.201 145.892 126.05 146.247C124.756 146.564 122.178 146.4 74.017 146.469C73.9799 146.47 73.9434 146.478 73.9096 146.494C73.8758 146.509 73.8454 146.531 73.8201 146.558C73.7948 146.585 73.7751 146.617 73.7623 146.651C73.7495 146.686 73.7437 146.723 73.7454 146.76C73.7478 146.831 73.7772 146.899 73.8277 146.949C73.8781 147 73.9457 147.029 74.017 147.032H124.329C125.126 147.053 125.919 146.917 126.663 146.631C127.407 146.346 128.088 145.916 128.666 145.368C129.245 144.819 129.709 144.162 130.033 143.434C130.358 142.706 130.535 141.921 130.556 141.124V118.763C130.485 117.643 130.58 116.52 130.839 115.429C133.075 108.249 145.089 109.118 144.584 118.294C144.588 118.366 144.619 118.434 144.671 118.483C144.724 118.533 144.793 118.561 144.865 118.561C144.937 118.561 145.007 118.533 145.059 118.483C145.111 118.434 145.142 118.366 145.146 118.294C145.275 115.439 144.367 113.039 142.041 111.407Z" fill="#FFC431"/>
<path d="M144.559 110.783C143.505 109.741 142.23 108.949 140.829 108.465C139.428 107.981 137.936 107.818 136.463 107.987C134.991 108.156 133.575 108.654 132.32 109.443C131.065 110.233 130.004 111.294 129.214 112.548C128.174 114.238 127.647 116.194 127.696 118.177C127.696 118.177 127.69 140.344 127.696 140.727C127.708 141.154 127.626 141.579 127.455 141.97C127.285 142.362 127.03 142.711 126.709 142.993C125.984 143.521 125.085 143.754 124.195 143.642H74.098C74.0259 143.646 73.9581 143.677 73.9084 143.729C73.8588 143.782 73.8311 143.851 73.8311 143.923C73.8311 143.995 73.8588 144.065 73.9084 144.117C73.9581 144.169 74.0259 144.201 74.098 144.204C74.098 144.204 124.167 144.198 124.781 144.204C125.679 144.223 126.548 143.885 127.198 143.266C127.848 142.647 128.228 141.796 128.254 140.898V117.842C128.252 116.591 128.502 115.353 128.988 114.2C129.474 113.047 130.186 112.004 131.083 111.132C131.979 110.259 133.042 109.576 134.208 109.122C135.373 108.668 136.618 108.452 137.868 108.488C139.119 108.524 140.349 108.811 141.487 109.331C142.625 109.852 143.646 110.595 144.491 111.517C145.336 112.44 145.987 113.522 146.406 114.701C146.825 115.88 147.003 117.13 146.93 118.379C146.934 118.451 146.965 118.519 147.017 118.569C147.069 118.618 147.139 118.646 147.211 118.646C147.283 118.646 147.353 118.618 147.405 118.569C147.457 118.519 147.488 118.451 147.492 118.379C147.566 116.978 147.342 115.577 146.837 114.268C146.331 112.959 145.555 111.771 144.559 110.783Z" fill="#FFC431"/>
<path d="M147.399 110.601C145.922 108.511 143.817 106.947 141.39 106.134C138.963 105.322 136.341 105.304 133.904 106.084C131.466 106.863 129.34 108.399 127.835 110.468C126.329 112.538 125.523 115.033 125.532 117.592V120.442C125.536 120.514 125.567 120.581 125.619 120.631C125.671 120.681 125.741 120.708 125.813 120.708C125.885 120.708 125.955 120.681 126.007 120.631C126.059 120.581 126.09 120.514 126.094 120.442C125.995 118.568 126.103 116.69 126.417 114.841C127.081 112.1 128.731 109.7 131.051 108.098C133.372 106.496 136.201 105.804 138.998 106.155C141.796 106.505 144.367 107.872 146.221 109.996C148.076 112.121 149.083 114.853 149.052 117.673V118.256C149.055 118.328 149.087 118.396 149.139 118.445C149.191 118.495 149.261 118.523 149.333 118.523C149.405 118.523 149.474 118.495 149.527 118.445C149.579 118.396 149.61 118.328 149.614 118.256C149.759 115.527 148.978 112.83 147.399 110.601Z" fill="#FFC431"/>
<path d="M115.986 86.5405C115.25 85.1962 109.441 75.2947 109.158 74.8144C109.132 74.7728 109.097 74.7384 109.054 74.7146C109.012 74.6908 108.964 74.6783 108.915 74.6783C108.866 74.6783 108.818 74.6908 108.776 74.7146C108.733 74.7384 108.698 74.7728 108.672 74.8144C106.388 78.7183 104.111 82.627 101.843 86.5405C101.819 86.5833 101.807 86.6316 101.807 86.6807C101.807 86.7298 101.82 86.7781 101.845 86.8207C101.869 86.8632 101.904 86.8988 101.947 86.9238C101.989 86.9488 102.037 86.9624 102.086 86.9633H107.451V84.6231C107.454 84.5511 107.486 84.4832 107.538 84.4336C107.59 84.3839 107.66 84.3562 107.732 84.3562C107.804 84.3562 107.873 84.3839 107.926 84.4336C107.978 84.4832 108.009 84.5511 108.013 84.6231V86.9633H115.749C115.797 86.9598 115.843 86.9445 115.883 86.9188C115.924 86.8931 115.958 86.8577 115.981 86.8158C116.005 86.7739 116.018 86.7269 116.018 86.6788C116.019 86.6308 116.008 86.5833 115.986 86.5405Z" fill="#FFC431"/>
<path d="M101.961 64.929H97.0462C96.972 64.9298 96.901 64.9597 96.8485 65.0121C96.796 65.0646 96.7662 65.1356 96.7654 65.2098V70.128C96.766 70.2024 96.7957 70.2735 96.8483 70.3262C96.9008 70.3788 96.9718 70.4088 97.0462 70.4096C100.397 70.4334 101.509 70.441 101.901 70.415C102.083 70.4035 102.231 70.3827 102.251 70.0674C102.277 69.6907 102.266 68.6034 102.242 65.2137C102.242 65.1386 102.213 65.0666 102.16 65.0132C102.107 64.9599 102.036 64.9296 101.961 64.929Z" fill="#D5E04F"/>
<path d="M121.482 59.8236C120.344 59.4067 119.106 59.3513 117.936 59.665C116.766 59.9787 115.722 60.6462 114.946 61.5761C114.17 62.5061 113.7 63.6531 113.6 64.8602C113.501 66.0674 113.777 67.2758 114.39 68.3201C115.004 69.3645 115.925 70.1937 117.028 70.6945C118.131 71.1954 119.362 71.3432 120.552 71.1179C121.742 70.8926 122.833 70.3052 123.677 69.4359C124.52 68.5667 125.075 67.4581 125.264 66.2617C125.479 64.9164 125.219 63.5383 124.528 62.3637C123.838 61.1891 122.761 60.2911 121.482 59.8236Z" fill="#FFF0B3"/>
<path d="M115.188 104.255C116.675 103.617 118.372 104.344 119.861 103.664C120.171 103.526 120.447 103.321 120.67 103.065C120.892 102.809 121.056 102.507 121.15 102.18C121.209 101.832 121.171 101.474 121.039 101.147C120.906 100.819 120.686 100.535 120.401 100.326C118.461 98.862 114.907 100.536 114.489 98.6426C114.418 98.3332 114.424 98.0111 114.506 97.7046C114.589 97.3982 114.745 97.1166 114.962 96.8848C115.485 96.4321 116.146 96.1712 116.837 96.1451C118.055 96.0918 119.276 96.1597 120.481 96.3477C120.839 96.3922 120.836 95.8298 120.481 95.786C119.642 95.6767 118.8 95.5999 117.956 95.5559C117.232 95.5109 116.505 95.5805 115.803 95.7622C115.136 95.9495 114.562 96.377 114.192 96.9623C113.885 97.5414 113.804 98.2131 113.961 98.8489C114.361 100.479 116.503 100.199 117.767 100.193C118.482 100.146 119.196 100.291 119.835 100.614C120.146 100.759 120.389 101.018 120.514 101.338C120.639 101.657 120.636 102.012 120.507 102.33C119.725 103.878 117.597 103.353 116.221 103.446C115.508 103.484 114.825 103.746 114.269 104.193C114.056 104.401 113.885 104.648 113.768 104.922C113.65 105.195 113.587 105.489 113.583 105.787C113.579 106.085 113.634 106.38 113.744 106.657C113.855 106.933 114.018 107.185 114.226 107.399C114.832 107.926 115.612 108.21 116.415 108.196C117.087 108.191 117.758 108.225 118.425 108.299C119.012 108.364 119.556 108.636 119.96 109.066C120.65 110.045 119.795 111.276 118.512 111.424C116.971 111.616 115.413 111.634 113.867 111.48C113.508 111.441 113.51 112.004 113.867 112.042C115.638 112.231 117.427 112.167 119.18 111.851C120.44 111.424 121.237 109.966 120.468 108.813C120.101 108.338 119.584 108 119.001 107.856C118.37 107.694 117.719 107.626 117.069 107.653C116.368 107.695 115.667 107.574 115.022 107.299C114.742 107.146 114.51 106.917 114.355 106.639C114.2 106.36 114.126 106.043 114.144 105.725C114.161 105.406 114.268 105.099 114.453 104.839C114.638 104.579 114.892 104.376 115.188 104.255Z" fill="#D5E04F"/>
<path d="M99.5215 47.199C99.4975 47.242 99.4851 47.2904 99.4853 47.3396C99.4856 47.3888 99.4987 47.4371 99.5232 47.4797C99.5476 47.5224 99.5828 47.558 99.6251 47.583C99.6675 47.608 99.7156 47.6217 99.7648 47.6226H106.313C106.352 47.6206 106.389 47.6111 106.424 47.5946C106.458 47.5781 106.489 47.5548 106.514 47.5263C106.54 47.4978 106.559 47.4644 106.572 47.4283C106.584 47.3921 106.59 47.3539 106.587 47.3157C106.577 47.0993 103.341 41.6778 103.282 41.5781C103.257 41.5363 103.221 41.5018 103.178 41.4778C103.136 41.4538 103.088 41.4412 103.039 41.4412C102.99 41.4412 102.942 41.4538 102.9 41.4778C102.857 41.5018 102.822 41.5363 102.796 41.5781C101.826 43.2123 99.6558 46.9658 99.5215 47.199Z" fill="#C0C195"/>
<path d="M112.931 23.1084C112.556 21.9177 111.812 20.8774 110.807 20.1383C109.801 19.3992 108.586 18.9998 107.338 18.9981H105.969C105.895 18.9991 105.824 19.029 105.771 19.0814C105.718 19.1339 105.688 19.2047 105.687 19.279V24.2455C105.688 24.32 105.718 24.3912 105.77 24.4439C105.823 24.4966 105.894 24.5264 105.969 24.527C106.194 24.5216 106.418 24.5622 106.628 24.6465C106.837 24.7308 107.027 24.8568 107.185 25.017C107.344 25.1772 107.469 25.3682 107.551 25.5781C107.633 25.7881 107.672 26.0126 107.664 26.238V29.215C107.665 29.2892 107.695 29.3601 107.748 29.4125C107.8 29.465 107.871 29.4949 107.945 29.4959H112.915C112.989 29.4951 113.06 29.4652 113.113 29.4128C113.165 29.3603 113.195 29.2893 113.196 29.215C113.229 24.5961 113.259 24.2163 112.931 23.1084Z" fill="#CCEAFF"/>
<path d="M98.4983 28.7172C97.9673 27.7481 93.7673 20.5895 93.5609 20.2419C93.5357 20.2002 93.5 20.1656 93.4575 20.1417C93.4149 20.1177 93.3669 20.1051 93.3181 20.1051C93.2693 20.1051 93.2213 20.1177 93.1787 20.1417C93.1362 20.1656 93.1006 20.2002 93.0753 20.2419C91.4241 23.0639 89.7784 25.889 88.1379 28.7172C88.1139 28.76 88.1014 28.8083 88.1016 28.8574C88.1018 28.9065 88.1148 28.9547 88.1392 28.9973C88.1637 29.0399 88.1987 29.0754 88.241 29.1004C88.2832 29.1254 88.3313 29.139 88.3804 29.1399H98.2558C98.3042 29.1372 98.351 29.1224 98.3922 29.097C98.4334 29.0716 98.4676 29.0362 98.4916 28.9943C98.5157 28.9523 98.5289 28.9049 98.5301 28.8565C98.5313 28.8082 98.5203 28.7602 98.4983 28.7172Z" fill="#78B5FF"/>
<path d="M88.9872 16.784C88.5023 15.5909 89.07 14.2443 88.5207 13.0558C88.4074 12.8063 88.2424 12.5836 88.0366 12.4027C87.8308 12.2217 87.5888 12.0866 87.3268 12.0062C87.0487 11.9498 86.7605 11.9706 86.4933 12.0664C86.2262 12.1622 85.9904 12.3292 85.8115 12.5494C84.6989 13.8937 85.5759 15.8679 84.9491 17.0264C84.7964 17.1607 84.6157 17.2593 84.4203 17.3152C84.2248 17.3711 84.0194 17.3829 83.8188 17.3497C83.6182 17.3165 83.4275 17.2392 83.2605 17.1233C83.0934 17.0074 82.9542 16.8559 82.8529 16.6796C82.558 16.1147 82.4288 15.478 82.48 14.8428C82.503 14.0888 82.566 13.3366 82.6687 12.5893C82.7171 12.2318 82.1508 12.2341 82.1071 12.5893C82.0227 13.2737 81.9536 13.9612 81.9207 14.6502C81.8677 15.8671 82.0595 17.0287 83.0785 17.6771C83.5434 17.9212 84.0801 17.9917 84.5923 17.8758C85.8966 17.5873 85.7662 15.9722 85.7501 14.9518C85.6989 14.3668 85.7922 13.7782 86.0217 13.2377C86.1179 12.9796 86.3113 12.7694 86.5605 12.6521C86.8098 12.5348 87.095 12.5197 87.3552 12.6101C88.6051 13.1886 88.1608 14.9709 88.2445 16.0405C88.3626 17.5497 89.4276 18.4858 90.7664 18.0768C91.0732 17.9867 91.35 17.8155 91.5675 17.5812C92.7445 16.1003 91.6112 14.1998 92.7682 13.1134C92.8734 13.027 92.9947 12.9622 93.125 12.9228C93.2553 12.8834 93.3921 12.8701 93.5276 12.8837C93.6631 12.8973 93.7945 12.9376 93.9144 13.0021C94.0342 13.0667 94.1401 13.1543 94.226 13.2599C94.5071 13.5968 94.6656 14.019 94.6757 14.4576C94.8011 15.5986 94.8027 16.7498 94.6803 17.8911C94.6419 18.251 95.2051 18.2479 95.2427 17.8911C95.3966 16.4586 95.3416 15.0112 95.0792 13.5945C95.0091 13.3462 94.8843 13.1168 94.7141 12.9229C94.5439 12.729 94.3326 12.5756 94.0955 12.4739C93.8585 12.3721 93.6017 12.3246 93.3439 12.3347C93.0862 12.3449 92.8339 12.4125 92.6056 12.5326C92.2127 12.8174 91.9288 13.2277 91.8007 13.6957C91.4002 15.1535 91.8583 15.6569 91.3595 16.8991C91.245 17.1219 91.0688 17.307 90.8518 17.4322C90.6349 17.5575 90.3865 17.6177 90.1363 17.6056C89.8861 17.5934 89.6447 17.5095 89.4409 17.3638C89.2371 17.2181 89.0796 17.0168 88.9872 16.784Z" fill="#2755A0"/>
<path d="M107.447 98.4446C107.45 98.5166 107.482 98.5845 107.534 98.6341C107.586 98.6838 107.656 98.7115 107.728 98.7115C107.8 98.7115 107.869 98.6838 107.922 98.6341C107.974 98.5845 108.005 98.5166 108.009 98.4446V84.6231C108.005 84.5511 107.974 84.4832 107.922 84.4335C107.869 84.3839 107.8 84.3562 107.728 84.3562C107.656 84.3562 107.586 84.3839 107.534 84.4335C107.482 84.4832 107.45 84.5511 107.447 84.6231V98.4446Z" fill="black"/>
<path d="M103.991 58.7763V70.939C103.991 71.0134 104.021 71.0849 104.074 71.1375C104.126 71.1902 104.198 71.2198 104.272 71.2198C104.347 71.2198 104.418 71.1902 104.471 71.1375C104.523 71.0849 104.553 71.0134 104.553 70.939V58.7763C104.553 58.7018 104.523 58.6304 104.471 58.5777C104.418 58.525 104.347 58.4955 104.272 58.4955C104.198 58.4955 104.126 58.525 104.074 58.5777C104.021 58.6304 103.991 58.7018 103.991 58.7763Z" fill="black"/>
<path d="M108.415 41.084V58.5009C108.419 58.573 108.45 58.6408 108.502 58.6905C108.555 58.7401 108.624 58.7678 108.696 58.7678C108.768 58.7678 108.838 58.7401 108.89 58.6905C108.942 58.6408 108.973 58.573 108.977 58.5009V41.084C108.973 41.012 108.942 40.9441 108.89 40.8945C108.838 40.8448 108.768 40.8171 108.696 40.8171C108.624 40.8171 108.555 40.8448 108.502 40.8945C108.45 40.9441 108.419 41.012 108.415 41.084Z" fill="black"/>
<path d="M111.454 36.7998V50.0688C111.458 50.1409 111.489 50.2087 111.541 50.2584C111.594 50.308 111.663 50.3357 111.735 50.3357C111.807 50.3357 111.877 50.308 111.929 50.2584C111.981 50.2087 112.012 50.1409 112.016 50.0688V36.7998C112.012 36.7277 111.981 36.6599 111.929 36.6102C111.877 36.5606 111.807 36.5329 111.735 36.5329C111.663 36.5329 111.594 36.5606 111.541 36.6102C111.489 36.6599 111.458 36.7277 111.454 36.7998Z" fill="black"/>
<path d="M71.0685 111.196C70.7324 111.322 70.8782 111.866 71.2181 111.738C75.047 110.3 79.0342 109.326 83.0946 108.837C83.4499 108.794 83.4537 108.231 83.0946 108.274C78.9831 108.762 74.9453 109.743 71.0685 111.196Z" fill="black"/>
<path d="M82.4303 105.806C78.2695 106.474 74.1978 107.612 70.293 109.196C69.9615 109.331 70.1065 109.875 70.4464 109.739C74.3513 108.154 78.423 107.017 82.5838 106.348C82.936 106.292 82.7871 105.751 82.4303 105.806Z" fill="black"/>
<path d="M6.84231 21.5761C8.16661 23.4942 11.3692 28.1423 11.3692 28.1423C11.5733 28.4385 12.0597 28.1569 11.8541 27.8584L7.32722 21.2922C7.12389 20.996 6.63668 21.2769 6.84231 21.5761Z" fill="black"/>
<path d="M15.0515 27.6254C15.1283 27.9791 15.6723 27.8295 15.5932 27.4766L13.4449 17.7845C13.3682 17.4308 12.8242 17.5804 12.9024 17.9379C13.2738 19.6305 14.5973 25.5845 15.0515 27.6254Z" fill="black"/>
</svg>
