<svg width="147" height="141" viewBox="0 0 147 141" fill="none" xmlns="http://www.w3.org/2000/svg">
<path d="M100.928 9H68.1468C68.0972 9.09228 68.0453 9.1871 68 9.28022C71.1505 12.9063 75.8438 15.5346 81.2397 16.6948C82.3669 16.9246 83.5304 17.0255 84.6943 16.9945C84.6878 16.3511 84.663 15.7077 84.6738 15.0643C84.6791 14.9839 84.7236 14.9082 84.798 14.8528C84.8724 14.7974 84.9712 14.7665 85.0738 14.7665C85.1764 14.7665 85.2751 14.7974 85.3495 14.8528C85.424 14.9082 85.4684 14.9839 85.4738 15.0643C85.4738 15.2539 85.491 16.5238 85.4943 16.97C88.6816 16.765 91.7578 15.9563 94.4586 14.6133C97.1594 13.2703 99.4042 11.4333 101 9.25991C100.979 9.17271 100.952 9.08551 100.928 9Z" fill="#FFD500"/>
<path d="M101.996 9C101.994 9.04952 101.978 9.09791 101.951 9.14154C100.268 11.6586 97.8932 13.7878 95.0314 15.3452C92.1697 16.9026 88.9071 17.8413 85.5256 18.0804C85.5321 18.8122 85.5506 19.545 85.5386 20.2769C85.5332 20.3653 85.4883 20.4486 85.4132 20.5095C85.3381 20.5704 85.2384 20.6044 85.1348 20.6044C85.0312 20.6044 84.9315 20.5704 84.8564 20.5095C84.7812 20.4486 84.7363 20.3653 84.7309 20.2769C84.7309 20.0683 84.7081 18.0999 84.7081 18.0999C83.1511 18.1242 81.5998 17.9323 80.1148 17.5319C74.8426 16.011 70.2791 13.088 67.0926 9.19088C67.0462 9.154 67.0139 9.10596 67 9.05308C67 12.0131 67.145 26.9801 67.1504 27.4959C67.1788 27.3274 66.7024 27.7343 74.2812 22.0861C74.6714 21.7956 75.2447 22.2816 74.8523 22.574L67.8415 27.7995C67.7919 27.8345 67.7336 27.8595 67.6711 27.8725C67.6085 27.8856 67.5433 27.8863 67.4804 27.8748C67.4175 27.8632 67.3584 27.8396 67.3077 27.8058C67.257 27.7719 67.2159 27.7287 67.1875 27.6794C67.2167 27.7438 67.2678 27.7992 67.3342 27.8386C67.4007 27.8779 67.4794 27.8993 67.5603 27.9C68.3614 27.9056 101.302 27.9932 101.568 27.9997C101.64 28.0026 101.712 27.9862 101.772 27.9528C101.833 27.9194 101.88 27.8707 101.907 27.8135C101.879 27.8599 101.838 27.9 101.788 27.9306C101.738 27.9611 101.68 27.9813 101.62 27.9896C101.559 27.9978 101.497 27.9938 101.438 27.978C101.38 27.9621 101.327 27.9348 101.283 27.8982L94.809 22.5731C94.4341 22.2649 95.0052 21.7769 95.3802 22.0851C101.18 26.8572 101.901 27.4093 101.972 27.5602C101.967 21.1373 102.013 10.3175 101.996 9Z" fill="#FFD500"/>
<path d="M124.502 30.8148C122.786 28.7217 120.024 27.2087 117.263 27.676C114.431 28.1547 112.429 30.6583 111.662 33.2808C111.215 34.8655 111.004 36.5076 111.038 38.1537C111.043 39.6369 111.138 41.1184 111.323 42.5901C114.075 42.0827 116.87 41.854 119.667 41.9072L119.683 41.911L119.704 41.9072C122.939 41.9127 126.153 42.4203 129.233 43.4118C127.825 38.2005 126.945 33.7957 124.502 30.8148ZM120.524 37.9642C119.874 39.2248 118.164 39.699 116.83 39.6576C116.788 39.6567 116.747 39.6463 116.71 39.6273C116.672 39.6083 116.64 39.5811 116.614 39.5478C116.589 39.5145 116.571 39.4758 116.563 39.4348C116.555 39.3938 116.556 39.3514 116.566 39.3108C116.831 38.5681 116.956 37.7826 116.933 36.9944C116.78 37.0174 116.623 37.0565 116.478 37.0711C115.725 37.1358 114.965 37.1041 114.22 36.9767C114.162 36.9601 114.112 36.9255 114.076 36.878C114.039 36.8305 114.019 36.7725 114.019 36.7128C114.004 36.1778 114.102 35.6458 114.305 35.1507C115.239 32.9256 118.694 32.8734 120.136 34.5929C120.524 35.0549 120.768 35.6208 120.837 36.2202C120.906 36.8196 120.797 37.4261 120.524 37.9642Z" fill="black"/>
<path d="M100.919 99.913C100.105 100.348 99.2083 100.605 98.2877 100.666C97.9394 100.689 87.4494 100.679 82.934 100.679C82.8079 102.102 82.7383 103.53 82.7253 104.959H99.9803C100.053 104.959 100.123 104.988 100.174 105.04C100.225 105.091 100.254 105.161 100.254 105.233C100.254 105.306 100.225 105.376 100.174 105.427C100.123 105.478 100.053 105.507 99.9803 105.507H82.7169C82.7349 108.252 82.9158 110.993 83.2586 113.717C83.4281 115.49 83.6138 116.885 85.0233 118.569C88.4468 122.656 94.3148 122.497 98.7773 119.879C99.6132 119.399 100.375 118.801 101.039 118.103C100.856 117.776 100.716 117.427 100.623 117.064C100.224 115.559 100.521 113.251 100.734 111.707C100.745 111.625 102.293 101.43 103.77 97.4393C102.942 98.3949 101.982 99.2277 100.919 99.913Z" fill="#2755A0"/>
<path d="M47.7763 104.959H65.9167C65.3796 102.26 64.4919 99.5885 62.5031 97.7471C60.6349 96.0169 58.0783 95.2849 55.6231 94.609L46.9645 92.2243C46.9231 92.2343 36.0632 94.8422 35.9926 94.8583C39.3298 98.0445 42.1083 101.768 44.2123 105.875C44.7948 106.983 45.1686 108.19 45.3149 109.433C45.3653 110.018 45.3327 110.606 45.2182 111.181C44.6967 113.345 43.5101 115.29 41.8254 116.745C42.5044 117.39 42.5067 117.737 45.4806 126.275C46.4259 128.99 47.2515 129.861 50.6619 129.973C53.1501 130.057 55.641 130.006 58.1236 129.82C61.2249 129.585 65.3443 128.86 66.7883 126.083C67.1178 125.259 67.2745 124.375 67.2487 123.488C67.4519 117.47 67.0406 111.446 66.021 105.511H47.7763C47.7075 105.505 47.6435 105.473 47.5969 105.422C47.5503 105.371 47.5245 105.304 47.5245 105.235C47.5245 105.166 47.5503 105.1 47.5969 105.048C47.6435 104.997 47.7075 104.966 47.7763 104.959ZM60.9341 98.7315L62.1318 101.1C62.2906 101.415 61.818 101.692 61.6592 101.376C61.2592 100.587 60.8599 99.7975 60.4614 99.0077C60.3003 98.6916 60.7753 98.4146 60.9341 98.7315Z" fill="#C0C195"/>
<path d="M135.24 88.4615C133.111 88.1882 131.019 87.6808 129.001 86.9485C129.196 87.985 128.972 89.0562 128.379 89.9285C127.816 90.5678 127.053 90.9967 126.214 91.1448C125.375 91.2929 124.511 91.1513 123.763 90.7434C123.313 90.4581 122.931 90.0766 122.646 89.6264C122.36 89.1762 122.178 88.6683 122.111 88.1393C121.003 90.7219 117.028 91.249 115.546 88.8336C114.873 87.726 114.529 86.4502 114.553 85.1546C113.344 87.0727 111.738 88.7094 109.844 89.9546C109.844 91.2643 109.878 91.3318 109.775 91.4408C109.723 91.5175 109.924 91.2735 104.761 96.4518C103.471 99.4196 102.749 103.096 102.11 106.666C101.649 109.243 100.298 115.002 101.33 117.451C101.874 118.464 102.614 119.358 103.507 120.082C104.401 120.805 105.429 121.344 106.533 121.666C106.598 121.687 106.653 121.732 106.686 121.791C106.72 121.851 106.73 121.92 106.714 121.987C106.699 122.054 106.659 122.112 106.603 122.151C106.547 122.189 106.478 122.205 106.41 122.196C112.177 123.903 119.662 123.688 122.932 118.636C124.732 115.855 125.387 111.957 127.571 106.864C128.665 104.316 129.516 103.752 131.228 102.184C132.986 100.739 134.373 98.8941 135.271 96.8032C136.259 94.1538 135.945 91.1876 135.24 88.4615ZM107.042 99.3129C107.483 98.521 107.938 97.7367 108.406 96.9605C108.442 96.8977 108.503 96.8521 108.573 96.8336C108.643 96.8151 108.718 96.8253 108.781 96.8619C108.843 96.8985 108.889 96.9586 108.908 97.0289C108.926 97.0992 108.916 97.1739 108.879 97.2367C108.437 98.028 107.982 98.8122 107.515 99.5891C107.478 99.6519 107.418 99.6976 107.348 99.7161C107.278 99.7346 107.203 99.7244 107.14 99.6877C107.077 99.6511 107.032 99.5911 107.013 99.5208C106.995 99.4505 107.005 99.3757 107.042 99.3129Z" fill="#2755A0"/>
<path d="M141.791 52.4655C138.312 47.7595 133.32 44.3934 127.652 42.9322C125.055 42.2664 122.386 41.9221 119.704 41.9072L119.684 41.911C119.724 41.9143 119.763 41.9262 119.798 41.946C119.833 41.9658 119.863 41.9929 119.886 42.0255C119.91 42.058 119.926 42.0953 119.934 42.1348C119.942 42.1742 119.941 42.2149 119.931 42.254C119.82 43.2837 119.553 44.2907 119.141 45.2409C118.604 46.4593 117.742 46.7087 117.037 46.3788C115.744 45.7742 115.439 43.7148 115.483 42.2923C115.484 42.2253 115.51 42.1611 115.555 42.1118C115.601 42.0625 115.663 42.0315 115.729 42.0246C115.652 42.0115 113.742 42.1719 111.854 42.4903C105.417 43.5744 102.476 45.422 99.8575 48C95.6182 52.1499 92.1156 56.9905 89.4994 62.3149L89.4948 62.3287C89.5105 62.2992 89.5318 62.2731 89.5575 62.2518C89.5833 62.2306 89.613 62.2146 89.6449 62.2048C89.6768 62.1951 89.7104 62.1917 89.7436 62.1949C89.7768 62.1981 89.8091 62.2079 89.8386 62.2236C90.2844 62.4606 102.07 67.8415 103.458 68.5082C103.512 68.5391 103.553 68.5886 103.574 68.6475C103.595 68.7064 103.593 68.7709 103.57 68.8289C103.595 68.79 103.615 68.7479 103.629 68.7039C103.997 70.3197 104.236 71.9617 104.448 73.6059H107.143C107.495 73.5972 107.845 73.6593 108.172 73.7886C108.499 73.9179 108.797 74.1117 109.047 74.3585C109.298 74.6053 109.496 74.9 109.631 75.2251C109.765 75.5502 109.832 75.899 109.829 76.2507C110.086 75.6269 110.465 75.0609 110.944 74.5864C111.424 74.112 111.994 73.7386 112.62 73.4885C114.066 72.9835 115.602 72.7852 117.129 72.9062C124.324 73.4164 122.951 73.4763 129.585 74.331C129.331 71.1096 129.408 67.8707 129.815 64.665C129.831 64.6076 129.866 64.557 129.913 64.5207C129.961 64.4845 130.019 64.4646 130.079 64.464C133.071 64.4225 140.199 64.1264 145.776 63.7205C145.836 63.7207 145.894 63.7404 145.941 63.7765C145.989 63.8126 146.024 63.8633 146.04 63.9207C145.523 59.8264 144.069 55.9064 141.791 52.4655Z" fill="#CCEAFF"/>
<path d="M120.133 34.595C118.46 32.6001 113.947 32.9124 114.018 36.7149C114.019 36.7747 114.039 36.8326 114.075 36.8801C114.111 36.9276 114.162 36.9623 114.219 36.9789C114.727 37.0623 115.24 37.1057 115.754 37.1086C116.15 37.1167 116.546 37.0792 116.934 36.9965C116.956 37.7848 116.832 38.5703 116.566 39.3129C116.557 39.3483 116.555 39.3851 116.56 39.4212C116.565 39.4574 116.578 39.4922 116.596 39.5236C116.615 39.555 116.64 39.5825 116.669 39.6044C116.698 39.6263 116.731 39.6422 116.767 39.6513C117.565 39.6944 118.363 39.5507 119.097 39.2316C119.523 39.0484 119.899 38.7667 120.195 38.4097C120.491 38.0527 120.698 37.6306 120.8 37.178C120.901 36.7254 120.893 36.2552 120.777 35.8062C120.661 35.3572 120.44 34.9421 120.133 34.595Z" fill="#FFD2D2"/>
<path d="M45.3148 109.433C45.1685 108.189 44.7948 106.983 44.2123 105.875C42.1053 101.769 39.326 98.0454 35.9895 94.8575C33.9179 95.3179 31.3959 95.7736 29.5199 96.1166C23.411 97.233 15.1828 98.5289 9.01095 98.8097C8.302 98.8419 7.53627 98.8772 6.76901 98.848C6.70241 98.846 6.63874 98.8202 6.58949 98.7753C6.54025 98.7304 6.50867 98.6694 6.50047 98.6033C6.50313 98.7 6.51235 98.7964 6.52809 98.8918C6.60891 99.5813 6.78101 100.257 7.03985 100.901C8.52067 104.627 12.2373 107.131 15.8465 108.893C13.8754 109.637 11.8721 110.294 9.93398 111.122C8.78308 111.514 7.73337 112.156 6.86031 113.003C5.85059 114.142 5.82604 115.432 6.21121 116.909C7.01558 119.511 8.19859 121.981 9.72221 124.239C10.5662 125.523 12.2289 127.828 13.6989 128.29C14.2571 128.411 14.8338 128.422 15.3961 128.322C16.7935 128.051 18.1731 127.696 19.5271 127.257C26.9297 125.129 36.1821 122.104 41.8253 116.745C43.5101 115.291 44.6966 113.345 45.2182 111.182C45.3328 110.606 45.3653 110.018 45.3148 109.433ZM41.9734 107.51L43.0146 109.955C43.1519 110.276 42.6793 110.555 42.542 110.231C42.1946 109.416 41.8481 108.601 41.5023 107.785C41.3634 107.465 41.8361 107.186 41.9734 107.51ZM18.6931 109.101C19.7343 109.523 20.6753 110.16 21.4552 110.969C21.6992 111.222 21.3117 111.611 21.067 111.352C20.3564 110.607 19.4975 110.019 18.5458 109.627C18.225 109.497 18.367 108.968 18.6931 109.101Z" fill="#C0C195"/>
<path d="M103.461 68.508C102.401 67.9993 89.9996 62.3277 89.8661 62.2387C89.8367 62.2184 89.8032 62.2046 89.768 62.1981C89.7328 62.1916 89.6967 62.1926 89.6619 62.2011C89.6271 62.2096 89.5945 62.2253 89.5662 62.2473C89.538 62.2692 89.5147 62.2969 89.4979 62.3285C89.3444 62.5188 88.0508 65.3661 87.4071 66.9137C85.9458 60.8371 84.0141 54.8833 81.6296 49.1062C83.4923 47.4711 85.1652 45.6316 86.6168 43.6226C87.1369 43.0377 87.478 42.3157 87.5996 41.5425C87.6909 39.9865 85.8349 39.342 84.3464 39.7893C82.7751 40.2597 81.6188 41.4221 80.2907 42.3075C78.9288 43.2144 77.2807 43.6164 76.1628 42.4134C75.7 41.9077 75.2997 41.3481 74.9705 40.7469C74.9705 40.7469 70.9669 34.4108 70.2203 33.1617C68.7111 30.6343 66.3717 30.3504 65.1779 31.6425C64.7685 32.1048 64.4794 32.6608 64.3362 33.2615C64.193 33.8621 64.2001 34.4888 64.3569 35.086C64.8596 36.6262 65.551 38.0983 66.4155 39.4686C66.7024 40.0164 67.3078 40.8727 66.6226 41.3707C66.1224 41.7343 65.4157 41.2878 64.9623 41.0315C62.7901 39.8039 60.8467 37.2804 58.3715 36.8814C56.0213 36.4978 54.8206 39.2967 55.8932 41.2686C57.2666 43.6153 59.0816 45.6737 61.238 47.33C61.838 47.8119 61.6377 48.1901 60.9103 48.1633C58.6715 48.0812 56.138 46.4032 53.8277 46.895C52.3078 47.2188 51.9234 48.8384 52.5763 50.2065C53.2882 51.4656 54.4335 52.423 55.7988 52.9003C57.2712 53.5142 58.8126 53.9231 60.1201 54.8761C64.7866 58.2781 65.2676 65.5763 66.6211 70.2981C68.6672 69.4211 70.8269 68.8374 73.0362 68.5641C73.6125 68.4871 74.197 68.6236 74.6797 68.9477C74.8594 69.1044 75.0054 69.2958 75.1091 69.5105C75.2127 69.7252 75.2718 69.9586 75.2827 70.1968C75.3825 72.0244 73.4728 72.9098 72.0242 73.7262L68.929 75.4771C69.2879 75.9985 69.6833 76.4939 70.1121 76.9595C72.9111 77.0316 74.4978 76.7293 76.4804 76.8206C80.7656 77.0155 81.0395 80.5879 77.9843 81.9275C79.7373 82.5531 81.564 82.9484 83.4188 83.1037V76.2459C83.4194 75.8903 83.4916 75.5384 83.6312 75.2113C83.7708 74.8843 83.9749 74.5887 84.2313 74.3423C84.4877 74.0958 84.7911 73.9036 85.1235 73.777C85.4558 73.6505 85.8103 73.5922 86.1656 73.6057H100.919C101.953 72.1232 102.837 70.5412 103.556 68.8832C103.562 68.8654 103.567 68.8472 103.571 68.8288C103.594 68.7709 103.596 68.7067 103.575 68.6478C103.555 68.5889 103.514 68.5393 103.461 68.508ZM75.7677 44.7083C75.4407 46.0667 74.7734 47.3197 73.8285 48.3491C72.8837 49.3785 71.6924 50.1505 70.3669 50.5924C70.0316 50.7044 69.8889 50.1758 70.2219 50.0645C71.4562 49.6482 72.5644 48.9248 73.4422 47.9623C74.3201 46.9998 74.9386 45.8299 75.2398 44.5625C75.3211 44.2195 75.8498 44.3653 75.7677 44.7083ZM87.1293 71.5771L87.0303 69.4472C87.0135 69.0942 87.5613 69.0965 87.5782 69.4472L87.6771 71.5771C87.6909 71.93 87.1462 71.9285 87.1293 71.5771Z" fill="#FFD2D2"/>
<path d="M47.6492 67.4433C47.6492 67.4433 47.6446 52.3696 47.6492 50.7645C47.6701 49.0928 47.0667 47.4733 45.9569 46.2229C44.8471 44.9725 43.3108 44.1811 41.6484 44.0034C40.6995 43.9332 39.7474 43.9147 38.7965 43.9481C36.2277 43.9865 35.2226 43.9259 35.1328 43.9336C35.2008 43.9384 35.2645 43.9688 35.311 44.0186C35.3575 44.0684 35.3835 44.1339 35.3837 44.2021C34.9915 47.4151 34.3708 50.5961 33.5262 53.7208C33.4295 54.0653 33.2553 54.9929 32.8356 54.5801C30.9865 52.7533 27.642 45.9791 26.719 44.2988C26.6971 44.259 26.6854 44.2144 26.6849 44.1689C26.6845 44.1235 26.6953 44.0787 26.7164 44.0384C26.7376 43.9982 26.7683 43.9639 26.806 43.9385C26.8437 43.9131 26.8871 43.8974 26.9323 43.8929C26.7742 43.8768 13.6947 43.81 13.3287 43.8162C17.2951 44.281 21.0537 45.8414 24.1832 48.3223C29.8057 52.9873 33.6367 60.1006 46.0855 66.7566C46.397 66.9231 46.12 67.3957 45.8093 67.2292C43.1551 65.8102 40.6138 64.1893 38.208 62.3809C28.9617 55.4333 26.887 49.7978 20.2855 46.4717C18.0999 45.3498 15.7286 44.6346 13.2873 44.3609C12.9704 44.3279 12.942 43.8768 13.2044 43.8238C11.7021 43.8279 10.2443 44.3349 9.0637 45.2639C7.88306 46.193 7.04752 47.4907 6.69032 48.9499C6.38956 50.5221 6.4939 46.8284 6.4939 98.5789C6.49693 98.6507 6.52687 98.7188 6.57776 98.7695C6.62865 98.8202 6.69677 98.85 6.76859 98.8528C7.53585 98.882 8.30849 98.8467 9.01053 98.8145C15.1832 98.5336 23.4129 97.2377 29.5195 96.1214C35.6262 95.005 33.7594 95.3863 47.4152 92.1178C48.1804 92.2801 48.9577 92.3784 49.7392 92.4116C49.6134 92.3894 49.4738 92.2896 49.4922 92.1446C50.716 82.3421 50.6193 77.0633 51.8492 70.1602C51.8681 70.0935 51.9117 70.0364 51.9711 70.0007C52.0306 69.9649 52.1013 69.9531 52.1692 69.9676C50.5559 69.3332 49.0355 68.4841 47.6492 67.4433ZM29.9737 79.774C30.6264 80.6221 31.4552 81.3186 32.4029 81.8157C32.7152 81.9807 32.4374 82.4541 32.1267 82.2891C31.0998 81.7413 30.2038 80.9775 29.5003 80.0502C29.287 79.7694 29.7627 79.4978 29.9737 79.774ZM25.7591 81.2763C29.9615 85.4679 37.6295 89.7208 46.0203 91.2684C46.3671 91.3321 46.2198 91.86 45.8745 91.7963C39.2774 90.6188 33.0629 87.8632 27.7609 83.7646C23.0384 80.0533 21.7195 76.7372 17.6131 73.2592C15.8928 71.7697 13.7381 70.8745 11.4688 70.7065C11.1174 70.6842 11.1167 70.1395 11.4688 70.1587C18.0949 70.5185 21.1441 76.672 25.7591 81.2763ZM14.8011 86.8298C14.6146 86.529 15.0873 86.2551 15.2745 86.5528C17.1303 89.6363 19.8409 92.115 23.0776 93.6884C23.3967 93.8418 23.119 94.3091 22.8013 94.1618C19.4872 92.5348 16.7103 89.9898 14.8011 86.8298ZM16.2796 84.5978C18.2726 87.5732 21.0257 89.9609 24.253 91.5132C24.5714 91.6666 24.2929 92.1385 23.9768 91.9858C20.6672 90.3874 17.8462 87.9317 15.807 84.874C15.6098 84.5802 16.0847 84.307 16.2796 84.5978Z" fill="#43F7B2"/>
<path d="M79.992 78.9766C79.7288 77.3799 77.8667 76.8835 76.4833 76.8206C73.9283 76.7039 70.5232 77.3684 66.9593 76.5904L72.0232 73.7247C73.5002 72.8883 75.3823 72.0313 75.2818 70.1952C75.2708 69.9571 75.2118 69.7236 75.1081 69.5089C75.0045 69.2943 74.8584 69.1028 74.6787 68.9461C74.196 68.622 73.6115 68.4855 73.0352 68.5625C67.1572 69.2922 65.5506 71.5487 61.0329 71.5717C58.0119 71.5603 55.0167 71.0148 52.1856 69.9605H52.1687C52.1009 69.9459 52.0301 69.9578 51.9707 69.9935C51.9113 70.0293 51.8677 70.0863 51.8487 70.153C50.615 77.0776 50.7278 82.2352 49.4917 92.1375C49.4733 92.2825 49.6129 92.3822 49.7388 92.4045C49.748 92.4045 49.7572 92.4106 49.7656 92.4114C54.0002 92.7866 58.3406 92.393 62.5099 93.3221C66.3301 94.1738 67.1702 95.1267 71.1731 95.574C71.8492 95.653 72.5339 95.6148 73.1971 95.4613C73.7756 95.2946 74.2884 94.9533 74.6655 94.484C75.0425 94.0147 75.2652 93.4403 75.3033 92.8395C75.2994 91.8812 74.5698 91.1838 73.946 90.5423C72.0761 88.6242 70.738 88.2973 68.259 86.7681C67.8969 86.5449 67.316 86.2901 67.2263 85.826C67.2053 85.6097 67.2463 85.392 67.3446 85.1983C67.4428 85.0045 67.5942 84.8427 67.781 84.7318C68.4102 84.3605 68.0879 84.4932 74.358 82.9349C75.5914 82.6912 76.8044 82.3536 77.9864 81.9252C79.6153 81.2109 80.157 79.9756 79.992 78.9766ZM61.0613 76.585L63.6807 76.2014C64.026 76.1507 64.1733 76.6786 63.8257 76.73L61.2071 77.1137C60.8618 77.1643 60.7137 76.6341 61.0613 76.585ZM61.3598 85.4584H63.983C64.0557 85.4584 64.1254 85.4873 64.1767 85.5387C64.2281 85.59 64.2569 85.6597 64.2569 85.7323C64.2569 85.805 64.2281 85.8747 64.1767 85.926C64.1254 85.9774 64.0557 86.0063 63.983 86.0063H61.3598C61.3229 86.0075 61.2863 86.0013 61.2519 85.9881C61.2175 85.9749 61.1861 85.955 61.1596 85.9294C61.133 85.9039 61.1119 85.8733 61.0974 85.8394C61.0829 85.8056 61.0753 85.7692 61.0751 85.7323C61.0743 85.6952 61.0812 85.6583 61.0953 85.6239C61.1095 85.5896 61.1306 85.5585 61.1573 85.5327C61.1841 85.5069 61.2159 85.4869 61.2507 85.474C61.2855 85.4611 61.3227 85.4555 61.3598 85.4577V85.4584Z" fill="#FC9070"/>
<path d="M119.687 41.9109C119.61 41.8925 117.7 41.8733 115.76 42.0183C115.688 42.0208 115.62 42.0505 115.569 42.1013C115.518 42.1521 115.488 42.2204 115.486 42.2922C115.45 43.2119 115.584 44.1304 115.881 45.0015C115.995 45.3514 116.191 45.669 116.453 45.9276C116.714 46.1862 117.034 46.3782 117.386 46.4876C118.257 46.6242 118.817 45.9835 119.144 45.2408C119.556 44.2906 119.823 43.2836 119.935 42.2539C119.944 42.2148 119.945 42.1741 119.937 42.1347C119.929 42.0952 119.913 42.0579 119.89 42.0254C119.866 41.9928 119.836 41.9657 119.801 41.9459C119.766 41.9262 119.727 41.9142 119.687 41.9109Z" fill="#FFD2D2"/>
<path d="M106.533 121.666C104.332 121.02 102.475 119.534 101.362 117.529C100.19 114.997 101.811 108.36 102.526 104.437C102.976 101.705 103.722 99.0292 104.751 96.4579L103.777 97.4316C103.189 99.0515 102.721 100.713 102.377 102.401C102.337 102.583 100.559 112.516 100.542 112.675C100.371 114.23 100.229 116.344 100.867 117.76C102.052 119.905 104.034 121.498 106.384 122.193C106.453 122.21 106.526 122.199 106.588 122.163C106.649 122.127 106.695 122.069 106.714 122C106.733 121.931 106.724 121.857 106.69 121.795C106.655 121.732 106.598 121.686 106.529 121.665L106.533 121.666Z" fill="#2755A0"/>
<path d="M35.1338 43.9336C35.1231 43.9336 27.0775 43.8768 26.9356 43.8906C26.8904 43.8951 26.847 43.9108 26.8093 43.9362C26.7716 43.9616 26.7408 43.9959 26.7197 44.0361C26.6986 44.0764 26.6877 44.1212 26.6882 44.1666C26.6886 44.2121 26.7003 44.2567 26.7223 44.2965C27.7872 46.2377 30.9883 52.7517 32.8389 54.5778C32.9878 54.7251 33.2356 54.7013 33.3545 54.3254C33.4013 54.1781 33.6614 53.2512 33.8663 52.4471C34.5308 49.7304 35.0375 46.9774 35.3839 44.2021C35.3837 44.1341 35.3578 44.0686 35.3115 44.0188C35.2651 43.969 35.2016 43.9386 35.1338 43.9336Z" fill="#FC9070"/>
<path d="M105.437 89.0639C105.021 89.1714 106.307 89.1407 88.388 89.1407C87.7604 89.1407 87.1586 88.8914 86.7148 88.4476C86.271 88.0038 86.0217 87.402 86.0217 86.7744V78.3383C86.0217 78.0276 86.0829 77.72 86.2019 77.4329C86.3208 77.1459 86.4951 76.8851 86.7148 76.6654C86.9346 76.4458 87.1954 76.2715 87.4825 76.1527C87.7696 76.0339 88.0773 75.9728 88.388 75.9729H104.878C105.505 75.9729 106.107 76.2221 106.551 76.6657C106.995 77.1092 107.244 77.7109 107.244 78.3383V81.6614C107.952 80.0401 108.995 77.825 109.834 76.2506C109.837 75.8989 109.77 75.5502 109.635 75.2252C109.501 74.9001 109.303 74.6054 109.052 74.3586C108.801 74.1119 108.504 73.918 108.177 73.7887C107.85 73.6594 107.5 73.5972 107.148 73.6059H86.1698C85.8145 73.5923 85.46 73.6506 85.1277 73.7771C84.7953 73.9037 84.4919 74.0959 84.2355 74.3424C83.9791 74.5888 83.775 74.8844 83.6354 75.2115C83.4958 75.5385 83.4236 75.8904 83.423 76.246V91.0811C83.2212 91.2545 78.01 96.5686 76.421 98.0985C75.4742 99.0108 75.7987 100.85 78.0038 100.679C78.0038 100.679 97.3274 100.729 98.2895 100.666C99.2101 100.605 100.107 100.348 100.92 99.913C102.347 99.0491 102.225 98.9417 109.766 91.4555C109.88 91.2859 109.843 91.4279 109.843 89.9547C107.692 91.1785 106.002 90.4619 105.437 89.0639ZM99.4481 97.2882H80.8803C80.8077 97.2882 80.738 97.2594 80.6866 97.208C80.6352 97.1566 80.6064 97.087 80.6064 97.0143C80.6064 96.9417 80.6352 96.872 80.6866 96.8206C80.738 96.7693 80.8077 96.7404 80.8803 96.7404H99.4481C99.5207 96.7404 99.5904 96.7693 99.6418 96.8206C99.6932 96.872 99.722 96.9417 99.722 97.0143C99.722 97.087 99.6932 97.1566 99.6418 97.208C99.5904 97.2594 99.5207 97.2882 99.4481 97.2882ZM102.34 94.3205H83.5419C83.4693 94.3205 83.3996 94.2916 83.3483 94.2402C83.2969 94.1889 83.268 94.1192 83.268 94.0465C83.268 93.9739 83.2969 93.9042 83.3483 93.8529C83.3996 93.8015 83.4693 93.7726 83.5419 93.7726H102.34C102.413 93.7726 102.482 93.8015 102.534 93.8529C102.585 93.9042 102.614 93.9739 102.614 94.0465C102.614 94.1192 102.585 94.1889 102.534 94.2402C102.482 94.2916 102.413 94.3205 102.34 94.3205Z" fill="#FFC431"/>
<path d="M107.243 78.3383C107.243 78.0276 107.182 77.72 107.063 77.4329C106.944 77.1459 106.77 76.8851 106.55 76.6654C106.331 76.4457 106.07 76.2715 105.783 76.1527C105.495 76.0339 105.188 75.9727 104.877 75.9728H88.3878C88.0771 75.9727 87.7694 76.0339 87.4824 76.1527C87.1953 76.2715 86.9344 76.4457 86.7147 76.6654C86.4949 76.8851 86.3206 77.1459 86.2017 77.4329C86.0828 77.72 86.0216 78.0276 86.0216 78.3383V86.7721C86.0213 87.083 86.0823 87.391 86.201 87.6783C86.3198 87.9657 86.4941 88.2268 86.7138 88.4468C86.9336 88.6667 87.1945 88.8412 87.4818 88.9603C87.769 89.0794 88.0769 89.1406 88.3878 89.1406C106.203 89.1406 105.021 89.1729 105.437 89.0639C104.915 87.8002 105.417 86.0793 105.931 84.8125C106.838 82.5767 106.564 83.2158 107.243 81.6613V78.3383Z" fill="white"/>
<path d="M13.2872 44.3583C16.9479 44.7956 20.4303 46.1835 23.3882 48.3842C28.9002 52.6509 32.8862 60.3175 45.8092 67.2267C46.12 67.3932 46.3969 66.9198 46.0854 66.754C31.5864 59.0024 28.512 50.2801 21.1923 46.3271C18.7484 44.9788 16.0632 44.1245 13.2895 43.8128C12.9442 43.7837 12.9365 44.3215 13.2872 44.3583Z" fill="#43F7B2"/>
<path d="M146.038 63.9169C146.022 63.8594 145.988 63.8088 145.94 63.7727C145.892 63.7366 145.834 63.7169 145.775 63.7167C139.613 64.1648 132.528 64.4264 130.077 64.4602C130.017 64.4608 129.959 64.4807 129.912 64.5169C129.864 64.5531 129.83 64.6037 129.813 64.6612C129.408 67.8691 129.333 71.1101 129.59 74.3333C122.915 73.4732 124.345 73.4195 117.133 72.9085C115.606 72.7875 114.071 72.9858 112.625 73.4909C111.998 73.7407 111.428 74.114 110.949 74.5885C110.469 75.063 110.09 75.6291 109.834 76.253C108.381 79.0352 107.079 81.8932 105.932 84.8149C105.646 85.5163 105.431 86.2441 105.288 86.9878C104.702 90.0691 107.436 92.1185 111.042 89.1108C112.42 87.9929 113.606 86.6574 114.553 85.1571C114.529 86.4517 114.872 87.7267 115.544 88.8338C117.057 91.2998 121.028 90.6576 122.109 88.1395C122.175 88.6685 122.358 89.1764 122.643 89.6267C122.929 90.0769 123.311 90.4583 123.761 90.7436C124.509 91.1515 125.373 91.2931 126.212 91.145C127.05 90.9969 127.814 90.568 128.377 89.9287C128.969 89.0564 129.193 87.9852 128.999 86.9487C131.017 87.6813 133.109 88.1887 135.238 88.4617C136.962 88.7045 138.721 88.4929 140.338 87.8479C143.346 86.5766 145.249 83.3402 145.799 80.2635C146.728 74.8602 146.809 69.3451 146.038 63.9169ZM140.433 85.4771C141.056 85.058 141.62 84.5577 142.111 83.9893C142.381 83.6778 142.832 84.1321 142.563 84.4413C142.034 85.0483 141.426 85.5822 140.756 86.0287C140.412 86.2581 140.096 85.7049 140.433 85.4771ZM135.845 75.8863C134.095 75.4867 132.32 75.2078 130.533 75.0515C130.125 75.0154 130.123 74.3763 130.533 74.4123C132.377 74.5725 134.209 74.8591 136.014 75.2701C136.413 75.3584 136.245 75.9745 135.845 75.8832V75.8863ZM122.407 84.1973C122.808 83.4091 123.095 82.5684 123.261 81.6998C123.338 81.2955 123.957 81.4696 123.875 81.8702C123.694 82.792 123.384 83.6838 122.955 84.5195C122.771 84.8832 122.219 84.5594 122.407 84.1942V84.1973ZM114.99 81.6868L115.92 79.1057C116.059 78.7221 116.676 78.8878 116.534 79.276L115.603 81.8571C115.467 82.2354 114.853 82.0712 114.99 81.6837V81.6868Z" fill="#FFD2D2"/>
<path d="M46.0204 91.2682C37.6573 89.726 29.9792 85.4861 25.7593 81.2761C21.1557 76.6818 18.0866 70.5206 11.469 70.1585C11.1168 70.1393 11.1176 70.6841 11.469 70.7063C13.7383 70.8744 15.8929 71.7695 17.6132 73.259C21.7565 76.7654 23.0163 80.0362 27.7611 83.7644C33.0635 87.8626 39.2782 90.6181 45.8754 91.7961C46.2199 91.8598 46.3672 91.3319 46.0204 91.2682Z" fill="#43F7B2"/>
<path d="M32.958 34.3811C32.7555 32.8557 31.0667 32.1169 29.7117 32.3417C29.1626 32.486 28.6594 32.7681 28.2498 33.1612C27.8401 33.5543 27.5376 34.0455 27.3708 34.5882C27.0242 35.2969 26.8894 36.0905 26.9826 36.8739C27.0456 37.1378 27.1609 37.3863 27.3217 37.6049C27.4825 37.8234 27.6855 38.0074 27.9186 38.146C28.4236 38.4959 29.0168 38.6967 29.6305 38.7255C30.2441 38.7543 30.8535 38.6098 31.389 38.3087C32.7348 37.5299 33.1383 35.743 32.958 34.3811ZM31.102 36.2494C31.0122 36.4519 30.8663 36.6246 30.6815 36.7469C30.4968 36.8693 30.2809 36.9362 30.0593 36.9399C29.8324 36.8932 29.6276 36.7721 29.4775 36.5956C29.3273 36.4192 29.2405 36.1977 29.2307 35.9662C29.1731 35.621 29.701 35.4737 29.7585 35.8205C29.7908 36.013 29.8537 36.3575 30.0969 36.3959C30.3401 36.4343 30.525 36.1481 30.6286 35.9739C30.6476 35.9432 30.6726 35.9166 30.7019 35.8957C30.7313 35.8747 30.7646 35.8598 30.7998 35.8518C30.835 35.8438 30.8714 35.8429 30.907 35.8491C30.9425 35.8553 30.9765 35.8685 31.0069 35.888C31.0653 35.9252 31.1075 35.9831 31.1251 36.0501C31.1427 36.117 31.1345 36.1882 31.102 36.2494Z" fill="#FC9070"/>
<path d="M33.1387 28.5061C34.1922 27.7036 34.9118 27.3084 34.7684 26.5181C34.697 26.2317 34.5367 25.9753 34.3105 25.7858C34.0842 25.5962 33.8037 25.4833 33.5093 25.4631C32.71 25.4076 31.9174 25.6409 31.2758 26.1207C31.298 26.0578 31.3234 25.9964 31.3441 25.9335C31.6786 25.1094 31.4722 24.0445 30.5722 23.8312C29.6607 23.6984 29.0622 24.4734 28.8282 25.3534C28.4981 26.3543 28.2228 27.3725 28.0034 28.4033C27.8648 28.8595 27.7975 29.3345 27.8039 29.8112C27.8537 30.237 28.0548 30.6307 28.3705 30.9207C28.6863 31.2107 29.0957 31.3776 29.5241 31.391C31.107 31.4363 32.696 31.4516 34.2812 31.391C34.8244 31.3711 35.462 31.3366 35.7321 30.7772C36.3014 29.5887 34.8934 28.1217 33.1387 28.5061Z" fill="black"/>
<path d="M19.9718 133.04C17.2153 132.339 14.5874 131.205 12.1856 129.681C10.5768 128.658 9.25174 127.247 8.33317 125.576C6.81596 122.895 5.55488 120.077 4.56667 117.159L4.55899 117.146C4.44774 116.857 4.00503 116.956 4.02881 117.23C4.02881 120.536 3.6283 124.027 4.76309 127.205C6.02524 130.742 9.01143 132.766 12.6268 133.286C15.0331 133.649 17.472 133.747 19.8997 133.577C20.1912 133.556 20.2894 133.119 19.9718 133.04Z" fill="black"/>
<path d="M99.9805 105.507C100.053 105.507 100.123 105.478 100.174 105.427C100.226 105.376 100.254 105.306 100.254 105.233C100.254 105.161 100.226 105.091 100.174 105.04C100.123 104.988 100.053 104.959 99.9805 104.959H47.7758C47.7032 104.959 47.6335 104.988 47.5821 105.04C47.5308 105.091 47.5019 105.161 47.5019 105.233C47.5019 105.306 47.5308 105.376 47.5821 105.427C47.6335 105.478 47.7032 105.507 47.7758 105.507C65.1106 105.821 82.5452 105.822 99.9805 105.507Z" fill="#F7DA31"/>
<path d="M91.681 139.576C86.0686 138.547 80.454 137.531 74.8372 136.527V108.278C74.8372 108.205 74.8084 108.135 74.757 108.084C74.7056 108.033 74.6359 108.004 74.5633 108.004C74.4907 108.004 74.421 108.033 74.3696 108.084C74.3183 108.135 74.2894 108.205 74.2894 108.278V136.532C73.3157 136.722 69.7825 137.544 57.352 139.363C57.0045 139.413 57.1525 139.941 57.4978 139.891C60.3536 139.474 70.6088 137.903 74.5833 137.033C79.0955 137.729 87.2431 139.269 91.5352 140.102C91.8797 140.171 92.027 139.644 91.681 139.576Z" fill="#F7DA31"/>
<path d="M131.171 16.711C131.339 16.4041 130.864 16.124 130.698 16.4348L126.731 23.7537C126.563 24.0606 127.038 24.3407 127.203 24.0299C127.652 23.2036 131.006 17.0179 131.171 16.711Z" fill="black"/>
<path d="M129.491 25.5605L135.461 21.2692C135.745 21.0651 135.471 20.5894 135.185 20.7957L129.215 25.0871C128.931 25.2912 129.204 25.7646 129.491 25.5605Z" fill="black"/>
<path d="M13.259 29.2979C13.9334 26.4552 16.3281 22.3119 18.9567 20.8349C19.0152 20.7961 19.0566 20.7364 19.0724 20.6681C19.0882 20.5998 19.0773 20.5279 19.0419 20.4674C19.0064 20.4068 18.9492 20.3621 18.8819 20.3425C18.8145 20.3228 18.7422 20.3296 18.6797 20.3615C17.4187 21.1217 16.3395 22.1489 15.5178 23.3708C14.2523 25.117 13.3079 27.0747 12.7288 29.1521C12.6521 29.4951 13.1777 29.6416 13.259 29.2979Z" fill="black"/>
<path d="M16.1009 18.642C16.348 18.3896 15.959 18.0006 15.7173 18.2584C12.9605 21.321 10.7851 24.8604 9.2976 28.7032C9.18328 29.0377 9.71039 29.1812 9.82548 28.849C11.2859 25.0967 13.4118 21.6389 16.1009 18.642Z" fill="black"/>
<path d="M16.2798 84.5977C16.0849 84.3054 15.61 84.5801 15.8072 84.8739C17.8464 87.9316 20.6674 90.3873 23.977 91.9857C24.2931 92.1391 24.5716 91.6665 24.2532 91.5131C21.0259 89.9608 18.2729 87.573 16.2798 84.5977Z" fill="black"/>
<path d="M22.8005 94.1617C23.1182 94.309 23.3959 93.8387 23.0767 93.6883C19.8403 92.1145 17.1298 89.6359 15.2737 86.5527C15.0864 86.255 14.6138 86.529 14.8003 86.8297C16.7094 89.9898 19.4863 92.5347 22.8005 94.1617Z" fill="black"/>
<path d="M119.576 62.6463L116.791 49.6672C116.729 49.3849 116.345 49.4301 116.262 49.6672C115.974 50.4928 111.702 62.7283 111.586 63.0943C111.487 63.4081 111.816 63.7204 111.985 63.9644C114.94 68.291 114.757 68.0417 114.824 68.0885C114.848 68.1147 114.876 68.1358 114.908 68.1502C114.94 68.1646 114.975 68.1721 115.01 68.1721C115.045 68.1721 115.079 68.1646 115.111 68.1502C115.143 68.1358 115.172 68.1147 115.195 68.0885C116.126 67.0066 119.001 63.8685 119.47 63.3491C119.713 63.0729 119.66 63.0376 119.576 62.6463Z" fill="#2755A0"/>
<path d="M30.629 35.9693C30.5254 36.1434 30.339 36.4296 30.0973 36.3913C29.8556 36.3529 29.7904 36.0076 29.7589 35.8158C29.7014 35.469 29.1735 35.6163 29.2311 35.9616C29.2409 36.193 29.3277 36.4146 29.4779 36.591C29.628 36.7674 29.8328 36.8886 30.0597 36.9352C30.2813 36.9316 30.4972 36.8646 30.6819 36.7423C30.8667 36.6199 31.0126 36.4473 31.1024 36.2447C31.1344 36.1822 31.1412 36.1099 31.1215 36.0426C31.1018 35.9752 31.0571 35.918 30.9966 35.8826C30.936 35.8471 30.8642 35.8362 30.7959 35.8521C30.7275 35.8679 30.6678 35.9093 30.629 35.9677V35.9693Z" fill="black"/>
<path d="M69.66 134.256C65.9408 132.543 61.9323 131.546 57.8441 131.318C53.4441 131.191 49.0858 132.203 45.1919 134.256C45.1417 134.287 45.1029 134.334 45.0813 134.389C45.0597 134.444 45.0564 134.505 45.072 134.562C45.0876 134.62 45.1211 134.67 45.1677 134.707C45.2144 134.744 45.2715 134.764 45.3308 134.766H69.5219C69.7751 134.766 69.9186 134.372 69.66 134.256Z" fill="black"/>
<path d="M119.741 128.879C114.754 126.646 108.914 125.337 103.475 126.185C101.299 125.35 99.0384 124.756 96.7333 124.412C92.3294 123.672 87.8063 124.184 83.679 125.889C82.7996 126.227 81.9402 126.615 81.1049 127.051C81.0545 127.083 81.0156 127.13 80.9938 127.186C80.9721 127.241 80.9687 127.302 80.9842 127.359C80.9996 127.417 81.0331 127.468 81.0797 127.505C81.1262 127.542 81.1835 127.563 81.243 127.565H98.2241C97.2135 127.942 96.2272 128.38 95.2709 128.879C95.2206 128.91 95.1818 128.957 95.1602 129.012C95.1386 129.068 95.1353 129.128 95.1509 129.186C95.1665 129.243 95.2001 129.294 95.2467 129.33C95.2933 129.367 95.3505 129.388 95.4097 129.389H119.605C119.856 129.389 120.001 128.995 119.741 128.879Z" fill="black"/>
<path d="M139.135 94.1141C139.171 93.7635 138.625 93.7665 138.587 94.1141C138.286 96.7322 137.379 99.244 135.937 101.45C134.495 103.655 132.558 105.494 130.28 106.818C130.207 106.879 130.149 106.955 130.108 107.04C130.068 107.125 130.046 107.218 130.045 107.313C131.553 113.02 133.178 121.031 134.248 126.77C134.312 127.116 134.841 126.97 134.777 126.625C133.566 120.134 132.172 113.679 130.597 107.267C132.947 105.892 134.943 103.986 136.426 101.703C137.908 99.419 138.836 96.8202 139.135 94.1141Z" fill="#F7DA31"/>
<path d="M6.52246 106.848C6.79407 107.068 7.18307 106.683 6.90609 106.465C4.82446 104.76 3.24104 102.525 2.32257 99.9965C1.40411 97.4676 1.1846 94.7377 1.68716 92.0945C1.75621 91.75 1.2268 91.6027 1.15851 91.9487C0.63105 94.6851 0.850848 97.513 1.79478 100.135C2.73871 102.757 4.37188 105.076 6.52246 106.848Z" fill="#F7DA31"/>
<path d="M107.515 99.5894C107.983 98.8135 108.438 98.0293 108.879 97.237C108.915 97.1742 108.926 97.0995 108.907 97.0292C108.889 96.9589 108.843 96.8988 108.78 96.8622C108.717 96.8255 108.643 96.8154 108.572 96.8338C108.502 96.8523 108.442 96.898 108.405 96.9608C107.936 97.7357 107.485 98.5221 107.041 99.3132C107.023 99.3443 107.011 99.3786 107.006 99.4143C107.002 99.4499 107.004 99.4862 107.013 99.521C107.022 99.5558 107.038 99.5885 107.06 99.6171C107.082 99.6458 107.109 99.6699 107.14 99.688C107.171 99.7061 107.205 99.718 107.241 99.7228C107.277 99.7277 107.313 99.7255 107.348 99.7163C107.382 99.7072 107.415 99.6913 107.444 99.6695C107.472 99.6477 107.496 99.6205 107.515 99.5894Z" fill="#2755A0"/>
<path d="M61.6591 101.375C61.8179 101.69 62.2906 101.413 62.1317 101.098L60.934 98.7299C60.7752 98.4146 60.3026 98.6916 60.4614 99.0061L61.6591 101.375Z" fill="#C0C195"/>
<path d="M18.6934 109.101C18.3673 108.968 18.2254 109.497 18.5476 109.63C19.4994 110.022 20.3583 110.61 21.0689 111.355C21.3136 111.611 21.7011 111.222 21.4571 110.971C20.677 110.161 19.7355 109.524 18.6934 109.101Z" fill="#77751E"/>
<path d="M42.5423 110.231C42.6797 110.555 43.1561 110.276 43.0149 109.955L41.9738 107.51C41.8364 107.186 41.3638 107.465 41.5011 107.786L42.5423 110.231Z" fill="#77751E"/>
<path d="M102.341 93.7725H83.5429C83.4702 93.7725 83.4006 93.8013 83.3492 93.8527C83.2978 93.9041 83.269 93.9738 83.269 94.0464C83.269 94.119 83.2978 94.1887 83.3492 94.2401C83.4006 94.2915 83.4702 94.3203 83.5429 94.3203H102.341C102.413 94.3203 102.483 94.2915 102.535 94.2401C102.586 94.1887 102.615 94.119 102.615 94.0464C102.615 93.9738 102.586 93.9041 102.535 93.8527C102.483 93.8013 102.413 93.7725 102.341 93.7725Z" fill="white"/>
<path d="M99.4475 96.7403H80.8797C80.807 96.7403 80.7373 96.7692 80.686 96.8206C80.6346 96.8719 80.6057 96.9416 80.6057 97.0142C80.6057 97.0869 80.6346 97.1566 80.686 97.2079C80.7373 97.2593 80.807 97.2882 80.8797 97.2882H99.4475C99.5201 97.2882 99.5898 97.2593 99.6411 97.2079C99.6925 97.1566 99.7214 97.0869 99.7214 97.0142C99.7214 96.9416 99.6925 96.8719 99.6411 96.8206C99.5898 96.7692 99.5201 96.7403 99.4475 96.7403Z" fill="white"/>
<path d="M75.2402 44.5626C74.9391 45.83 74.3205 46.9999 73.4427 47.9624C72.5649 48.925 71.4567 49.6484 70.2223 50.0647C69.8893 50.1759 70.032 50.7046 70.3673 50.5925C71.6929 50.1506 72.8841 49.3786 73.829 48.3492C74.7738 47.3198 75.4411 46.0669 75.7681 44.7084C75.8502 44.3654 75.3215 44.2196 75.2402 44.5626Z" fill="#FF4848"/>
<path d="M61.2067 77.1128L63.8254 76.7292C64.1729 76.6778 64.0256 76.1499 63.6803 76.2006L61.0609 76.5842C60.7133 76.6341 60.8614 77.1642 61.2067 77.1128Z" fill="#FF4848"/>
<path d="M61.3593 85.4578C61.2866 85.4578 61.217 85.4867 61.1656 85.5381C61.1142 85.5894 61.0854 85.6591 61.0854 85.7317C61.0854 85.8044 61.1142 85.8741 61.1656 85.9254C61.217 85.9768 61.2866 86.0057 61.3593 86.0057H63.9825C64.0552 86.0057 64.1249 85.9768 64.1762 85.9254C64.2276 85.8741 64.2565 85.8044 64.2565 85.7317C64.2565 85.6591 64.2276 85.5894 64.1762 85.5381C64.1249 85.4867 64.0552 85.4578 63.9825 85.4578H61.3593Z" fill="#FF4848"/>
<path d="M32.1267 82.289C32.4374 82.454 32.7152 81.9821 32.4029 81.8156C31.4552 81.3186 30.6264 80.622 29.9737 79.7739C29.762 79.4977 29.2832 79.7693 29.5003 80.0502C30.2038 80.9774 31.0998 81.7412 32.1267 82.289Z" fill="#43F7B2"/>
<path d="M114.989 81.6836C114.849 82.0672 115.466 82.2383 115.603 81.8539L116.534 79.2728C116.673 78.8846 116.056 78.7181 115.92 79.1025L114.989 81.6836Z" fill="#FC9070"/>
<path d="M123.877 81.867C123.954 81.465 123.34 81.2923 123.264 81.6967C123.097 82.5652 122.81 83.406 122.409 84.1941C122.222 84.5593 122.773 84.8847 122.961 84.5164C123.389 83.6804 123.697 82.7886 123.877 81.867Z" fill="#FC9070"/>
<path d="M136.014 75.267C134.209 74.856 132.377 74.5694 130.533 74.4092C130.123 74.3732 130.125 75.0123 130.533 75.0483C132.32 75.2047 134.095 75.4836 135.844 75.8831C136.245 75.9744 136.413 75.3583 136.014 75.267Z" fill="#FC9070"/>
<path d="M142.111 83.9892C141.62 84.5575 141.056 85.0579 140.433 85.4769C140.093 85.7071 140.412 86.258 140.756 86.0286C141.426 85.582 142.033 85.0482 142.562 84.4411C142.832 84.1319 142.381 83.6777 142.111 83.9892Z" fill="#FC9070"/>
<path d="M87.6775 71.5772L87.5785 69.4473C87.5616 69.0967 87.0138 69.0944 87.0307 69.4473L87.1296 71.5772C87.1465 71.9286 87.6913 71.9302 87.6775 71.5772Z" fill="#FF4848"/>
<path d="M102.654 61.4539C102.856 63.21 103.097 64.9614 103.378 66.7082C103.433 67.0557 103.962 66.9084 103.906 66.5624C103.633 64.8652 103.398 63.1624 103.202 61.4539C103.165 61.1079 102.616 61.1033 102.654 61.4539Z" fill="#78B5FF"/>
<path d="M99.38 80.1795L99.0902 81.1681H93.5675L93.8572 80.1795H99.38ZM96.7891 86.8442L93.6697 83.0261L93.6527 82.3101H95.2038C95.6072 82.3101 95.951 82.2533 96.2351 82.1397C96.5192 82.0232 96.7365 81.8499 96.8871 81.6198C97.0376 81.3869 97.1129 81.0942 97.1129 80.742C97.1129 80.2221 96.9567 79.8144 96.6442 79.519C96.3317 79.2207 95.8516 79.0715 95.2038 79.0715H93.5675L93.8572 78.117H95.2038C95.897 78.117 96.4652 78.232 96.9084 78.4621C97.3544 78.6894 97.6839 79.0019 97.897 79.3996C98.1129 79.7945 98.2209 80.242 98.2209 80.742C98.2209 81.1937 98.1214 81.6099 97.9226 81.9905C97.7266 82.3684 97.4112 82.6724 96.9766 82.9025C96.5447 83.1326 95.9737 83.2476 95.2635 83.2476H95.2379L98.1186 86.7761V86.8442H96.7891ZM99.38 78.117L99.0902 79.1056L94.7436 79.0715L95.0334 78.117H99.38Z" fill="black"/>
<path d="M68.5925 25.3683C68.7782 25.2079 73.3219 21.2419 73.5275 21.0624C73.8038 20.8215 73.4002 20.421 73.1255 20.6603C67.7408 25.3575 68.1275 24.9839 68.106 25.1182C68.1009 25.1766 68.1133 25.2353 68.1417 25.2867C68.17 25.338 68.2131 25.3798 68.2652 25.4066C68.3174 25.4335 68.3764 25.4442 68.4347 25.4373C68.493 25.4305 68.5479 25.4065 68.5925 25.3683Z" fill="black"/>
<path d="M87.978 20.6636C87.7141 20.4096 87.3113 20.8117 87.576 21.0656C88.9079 22.3485 91.9616 25.2917 92.1327 25.4536C92.3859 25.693 92.7573 25.3301 92.5755 25.1114C92.3936 24.8928 91.5565 24.1101 87.978 20.6636Z" fill="black"/>
</svg>
