<svg width="155" height="154" viewBox="0 0 155 154" fill="none" xmlns="http://www.w3.org/2000/svg">
<g filter="url(#filter0_d_2_777)">
<path d="M129.818 34.6503C129.084 34.2321 128.83 34.661 129.399 34.1983C131.49 32.4988 129.299 31.2827 127.404 32.3922C127.468 32.1883 127.463 31.9692 127.391 31.7681C127.319 31.567 127.183 31.395 127.004 31.2781C126.716 31.1369 126.398 31.0667 126.077 31.0735C125.756 31.0803 125.441 31.1639 125.159 31.3173C123.563 31.9235 122.234 33.0781 121.411 34.5743C123.668 33.5853 126.475 36.0651 125.256 38.2357C126.516 37.5933 127.871 37.1561 129.269 36.9405C129.54 36.9184 129.799 36.819 130.015 36.654C130.231 36.489 130.395 36.2654 130.488 36.0098C130.527 35.7421 130.484 35.4687 130.364 35.2259C130.244 34.9832 130.054 34.7824 129.818 34.6503Z" fill="black"/>
<path d="M89.1512 63.5494C89.1331 63.6156 89.142 63.6862 89.176 63.7457C89.21 63.8053 89.2662 63.849 89.3323 63.8671C89.3983 63.884 89.4683 63.8746 89.5275 63.841C89.5867 63.8074 89.6306 63.7521 89.65 63.6868L91.0157 60.4297L90.5454 60.2249L89.1512 63.5494Z" fill="black"/>
<path d="M103.15 69.2883C103.004 69.586 103.449 69.8484 103.596 69.5492L105.064 66.5569L104.592 66.3505L103.15 69.2883Z" fill="black"/>
<path d="M123.666 34.5904C123.269 34.3931 122.828 34.3012 122.385 34.3237C121.943 34.3461 121.513 34.4821 121.138 34.7186C120.763 34.955 120.456 35.284 120.245 35.6738C120.034 36.0636 119.927 36.5012 119.934 36.9443C120.164 38.8011 122.51 39.9137 124.017 39.3229C124.396 39.1731 124.732 38.9308 124.993 38.6181C125.254 38.3054 125.433 37.9323 125.513 37.5328C125.579 36.9064 125.433 36.2758 125.098 35.7422C124.763 35.2086 124.259 34.803 123.666 34.5904Z" fill="#FC9070"/>
<path d="M116.65 66.9822C115.715 65.5827 115.152 64.5362 114.709 63.95L113.392 66.9715C114.624 66.9822 115.092 66.9822 116.65 66.9822Z" fill="#FFD2D2"/>
<path d="M137.931 50.9355C136.562 47.8073 133.604 45.3889 130.347 44.1252C128.87 43.533 127.278 43.2792 125.69 43.3825C123.794 43.4508 121.916 43.7692 120.103 44.3293C120.575 46.4892 120.571 48.7261 120.09 50.884C120.202 51.0326 120.275 51.2066 120.303 51.3904C120.343 51.902 120.329 52.4163 120.262 52.925C120.16 53.7284 120.242 54.5445 120.501 55.3119C121.106 56.658 121.84 57.9427 122.691 59.1483C123.258 59.9868 123.955 60.73 124.755 61.3503C125.855 62.1859 126.845 62.1122 127.517 60.9245C128.337 59.4797 128.123 59.0792 128.736 57.082C129.128 56.0889 129.837 55.2528 130.752 54.7032C131.667 54.1537 132.738 53.9214 133.799 54.0424C134.86 54.1634 135.851 54.6308 136.619 55.3724C137.387 56.1139 137.889 57.0881 138.047 58.1439C138.124 58.8303 138.106 59.524 137.994 60.2055C137.796 62.5425 137.22 64.8319 136.29 66.9851H139.78C139.848 66.9865 139.913 67.014 139.961 67.0621C140.01 67.1101 140.037 67.1749 140.039 67.2429C139.705 62.2871 139.923 55.483 137.931 50.9355ZM130.327 46.4354C128.967 46.8375 127.618 47.2744 126.281 47.7459C125.967 47.8572 125.832 47.3577 126.144 47.248C127.479 46.7769 128.818 46.292 130.19 45.9367C130.256 45.9185 130.326 45.9273 130.386 45.9612C130.446 45.9951 130.489 46.0513 130.508 46.1174C130.526 46.1836 130.517 46.2542 130.483 46.3139C130.449 46.3735 130.393 46.4172 130.327 46.4354Z" fill="#FFD2D2"/>
<path d="M102.995 40.5636C102.918 40.5542 102.84 40.5651 102.769 40.5951C102.698 40.6251 102.636 40.6732 102.589 40.7347C102.239 41.0968 102.205 42.5907 103.126 43.447C103.262 42.8088 103.361 42.1635 103.425 41.5142C103.445 41.1805 103.333 40.6211 102.995 40.5636Z" fill="#F7DA31"/>
<path d="M107.18 42.0751C107.208 41.9784 107.22 41.8817 107.153 41.8303C107.051 41.7686 106.935 41.7367 106.816 41.7383C106.36 41.7636 106.238 42.7994 106.254 43.2605C106.666 42.9581 106.986 42.5479 107.18 42.0751Z" fill="#F7DA31"/>
<path d="M112.741 45.9522C112.768 45.8963 112.781 45.8346 112.779 45.7725C112.777 45.7103 112.76 45.6496 112.73 45.5954C112.622 45.409 112.401 45.59 112.27 45.6967C111.716 46.2053 111.192 46.745 110.7 47.3133C111.131 47.2221 111.541 47.0531 111.911 46.8146C112.271 46.6212 112.561 46.3195 112.741 45.9522Z" fill="#F7DA31"/>
<path d="M110.052 44.1644C110.119 44.0295 110.154 43.8813 110.154 43.7309C110.166 43.6733 110.114 43.6212 110.064 43.5905C110.022 43.5739 109.976 43.5664 109.931 43.5683C109.886 43.5703 109.841 43.5818 109.801 43.602C109.059 43.8713 108.796 44.9125 108.826 45.679C109.337 45.2662 109.755 44.7501 110.052 44.1644Z" fill="#F7DA31"/>
<path d="M111.418 33.7703C107.883 32.2206 103.889 32.0824 100.255 33.3842C96.6218 34.686 93.6243 37.3289 91.8777 40.7708C91.6207 41.278 91.5309 41.5066 90.522 43.8207C90.7338 43.6685 90.9721 43.5571 91.2248 43.4923C91.4508 43.4366 91.6884 43.4501 91.9067 43.5311C92.1249 43.612 92.3138 43.7567 92.4489 43.9463C92.5839 44.136 92.6589 44.3618 92.664 44.5945C92.6692 44.8273 92.6043 45.0562 92.4777 45.2516C92.0826 46.0097 91.5961 46.0565 90.8519 46.7792C90.2542 47.4851 91.4404 47.9608 91.9261 48.1833C92.5337 48.4611 93.3769 49.0872 93.0002 49.8629C92.8861 50.0934 92.7012 50.2815 92.4726 50.3995C92.244 50.5175 91.9837 50.5593 91.7296 50.5189C90.5189 50.3355 89.378 48.9982 89.1716 48.9675C89.1993 49.0331 89.2335 49.0958 89.2736 49.1547C90.0133 50.4951 90.8849 51.1082 91.0383 51.913C91.1442 52.4631 90.8649 53.1752 90.2012 53.1115C89.5061 53.0447 88.9552 52.4547 88.0721 51.8509C88.0061 51.8056 87.8342 51.6414 87.756 51.692C87.7468 51.6974 87.7468 51.692 87.7828 51.7396C87.8189 51.7872 88.1227 52.2291 88.3145 52.5391C88.6076 53.0125 89.0818 53.7153 88.9076 54.3038C88.8536 54.4775 88.7607 54.6365 88.6361 54.769C88.5114 54.9014 88.3582 55.0037 88.1882 55.0681C88.0181 55.1325 87.8356 55.1573 87.6545 55.1407C87.4734 55.1241 87.2984 55.0664 87.1429 54.9721C86.7551 54.6984 86.3927 54.3902 86.0603 54.0514C85.593 55.1255 84.6386 57.3122 84.6278 57.3368C84.5942 57.3962 84.5851 57.4664 84.6025 57.5325C84.6198 57.5985 84.6622 57.6552 84.7207 57.6905L111.948 69.5609C112.007 69.5944 112.077 69.6035 112.144 69.5862C112.21 69.5689 112.266 69.5265 112.302 69.468L114.706 63.9522C114.49 63.6015 114.191 63.3089 113.836 63.0993C113.481 62.8897 113.081 62.7695 112.669 62.7491C112.004 62.7383 111.178 62.8112 110.703 62.235C110.54 62.0409 110.45 61.7969 110.447 61.544C110.444 61.2912 110.528 61.045 110.686 60.847C111.403 60.188 112.271 60.1657 114.388 59.8051C114.172 59.7461 113.95 59.7103 113.726 59.6984C113.016 59.6664 112.307 59.5895 111.606 59.4683C111.174 59.4376 110.757 59.2934 110.398 59.0501C110.245 58.9124 110.131 58.7364 110.068 58.5401C110.005 58.3438 109.995 58.1343 110.04 57.9331C110.085 57.7319 110.183 57.5462 110.323 57.3952C110.463 57.2442 110.641 57.1332 110.838 57.0736C111.979 56.6133 112.674 56.9831 114.353 56.9348C114.404 56.9348 114.548 56.9524 114.513 56.858C114.485 56.7813 114.331 56.7629 114.26 56.7376C113.903 56.6079 113.547 56.4736 113.192 56.3386C112.684 56.1452 112.051 56.0163 111.815 55.467C111.724 55.2578 111.699 55.0258 111.744 54.802C111.789 54.5783 111.901 54.3737 112.065 54.2156C112.499 53.8043 113.25 53.9018 113.799 53.9179C115.001 53.9434 116.183 54.2328 117.26 54.7657C117.692 52.0872 117.751 51.3851 118.345 50.7161C118.512 50.579 118.712 50.4886 118.925 50.4542C119.138 50.4199 119.356 50.4427 119.558 50.5204C119.587 50.5289 119.608 50.5457 119.634 50.5565C119.812 50.624 119.968 50.7395 120.085 50.8902C120.851 47.4742 120.405 43.8982 118.824 40.7748C117.242 37.6514 114.624 35.1751 111.418 33.7703ZM112.897 46.6565C112.193 47.4037 111.223 47.8427 110.198 47.878C105.847 52.6454 102.232 58.0348 99.4706 63.8685C99.3271 64.1693 98.8821 63.9069 99.024 63.6084C101.754 57.8439 105.314 52.5107 109.592 47.779C109.327 47.6657 109.09 47.4971 108.896 47.2846C108.703 47.072 108.557 46.8204 108.468 46.5468L108.457 46.5537C108.275 46.679 108.063 46.7532 107.843 46.7683C107.623 46.7834 107.403 46.739 107.206 46.6396C106.448 46.0271 105.961 45.1402 105.852 44.1713C105.497 44.3795 105.098 44.5003 104.688 44.5237C104.277 44.547 103.867 44.4723 103.491 44.3056C102.28 50.7758 99.7626 56.9314 96.0938 62.3969C95.9089 62.6724 95.4616 62.413 95.6473 62.136C99.3201 56.6697 101.829 50.5061 103.018 44.0286C101.819 43.1148 101.537 41.3232 102.146 40.4685C102.26 40.3045 102.423 40.1797 102.61 40.1111C102.798 40.0425 103.002 40.0333 103.196 40.0849C103.855 40.2698 103.987 41.1475 103.928 41.726C103.856 42.4184 103.745 43.1062 103.595 43.7861C103.938 43.9651 104.324 44.0449 104.709 44.0166C105.095 43.9883 105.465 43.8529 105.777 43.6258C105.725 43.1749 105.747 42.7186 105.841 42.2746C105.871 42.0818 105.941 41.8975 106.047 41.7335C106.152 41.5696 106.292 41.4298 106.455 41.3232C106.642 41.2322 106.854 41.2045 107.058 41.2444C107.262 41.2842 107.448 41.3895 107.587 41.5442C108.105 42.2163 106.997 43.3856 106.318 43.8859C106.413 44.6832 106.748 45.4328 107.278 46.0358C107.37 46.1348 107.484 46.2115 107.61 46.2598C107.872 46.2643 108.128 46.1835 108.339 46.0296C108.116 44.3416 109.037 43.0688 109.955 43.0511C110.569 43.0396 110.774 43.6511 110.61 44.1391C110.257 44.9935 109.67 45.7307 108.916 46.2659C108.972 46.5276 109.101 46.7679 109.289 46.9588C109.476 47.1497 109.715 47.2833 109.975 47.3439C110.538 46.7202 111.099 46.0795 111.711 45.5025C111.937 45.244 112.241 45.0662 112.577 44.9961C113.34 44.9532 113.537 46.0626 112.897 46.6565Z" fill="#FFD500"/>
<path d="M63.8987 50.8203C63.6123 49.3923 63.0236 48.0422 62.1721 46.8607C61.3207 45.6791 60.2261 44.6935 58.9621 43.9701C55.2984 41.8387 50.4677 41.607 46.2463 41.9883C43.1927 42.2001 40.2924 43.406 37.989 45.4218C35.7447 47.5348 32.104 46.5466 31.6414 44.2901C31.5445 43.7937 31.5256 43.2853 31.5854 42.7832C31.5838 42.8511 31.5561 42.9157 31.5081 42.9637C31.4601 43.0117 31.3954 43.0394 31.3276 43.041H22.1618C22.0936 43.0404 22.0283 43.013 21.9799 42.9648C21.9316 42.9167 21.9041 42.8514 21.9033 42.7832C21.4891 45.7447 22.129 48.7576 23.7109 51.2952C26.1992 54.9973 30.1966 56.9845 34.6161 57.6405C34.5723 59.8402 34.4058 69.4817 34.3659 72.1019C35.822 72.7938 37.1367 73.7505 38.2429 74.9231C41.1762 72.9206 41.7416 70.0011 41.7393 66.4341C41.7393 62.2356 42.0762 66.0182 41.5767 52.2221C41.5349 51.8591 41.5349 51.4925 41.5767 51.1295C41.639 50.8068 41.8184 50.5186 42.0804 50.3203C42.3424 50.1219 42.6685 50.0274 42.996 50.0549C43.3234 50.0824 43.6292 50.23 43.8544 50.4693C44.0796 50.7086 44.2084 51.0227 44.2161 51.3512C44.4416 52.5543 44.6971 54.9052 44.7915 56.0845C45.424 55.5593 46.2347 55.2985 47.0548 55.3564C47.8748 55.4142 48.6409 55.7864 49.1933 56.3952C49.9007 55.1285 52.0575 55.2965 52.7227 57.7809C52.9179 58.3278 53.0554 58.8935 53.1332 59.4689C53.7923 65.6869 52.8783 71.9709 50.4754 77.7436C49.0367 81.2598 46.8299 84.4098 44.0166 86.963C44.4637 88.8654 44.7943 90.7933 45.0064 92.7359C45.01 92.7772 44.9997 92.8185 44.9772 92.8533C45.0539 93.0651 45.3309 93.8362 45.39 94.0088L54.6992 94.0855C54.6992 82.8574 54.6593 83.4305 54.7614 83.3132C54.8189 83.2364 54.5987 83.3899 64.7412 77.2218C64.8148 69.9497 64.9898 55.9333 63.8987 50.8203Z" fill="#78B5FF"/>
<path d="M51.8696 28.1968C51.892 27.7859 51.8035 27.3764 51.6133 27.0114C51.5949 26.9985 51.5807 26.9803 51.5727 26.9592C51.1174 26.5528 50.5324 26.3216 49.9223 26.307C49.3291 26.1879 48.7158 26.2175 48.1368 26.393C47.8888 26.5145 47.6822 26.7067 47.543 26.9453C47.4039 27.184 47.3385 27.4584 47.355 27.7342C47.2195 29.2602 47.2159 30.795 47.3443 32.3216C47.4045 31.9554 47.553 31.6092 47.7769 31.3132C48.0008 31.0171 48.2934 30.78 48.6294 30.6223C48.9655 30.4645 49.3348 30.391 49.7056 30.408C50.0765 30.4249 50.4376 30.5319 50.7578 30.7196C51.2922 31.1009 51.6606 31.6722 51.7875 32.3163C51.9148 30.9469 51.9422 29.5701 51.8696 28.1968Z" fill="black"/>
<path d="M31.9605 63.9612C30.3071 62.01 27.2096 62.4266 25.4587 64.1545C24.5281 65.0953 23.8024 66.2187 23.3273 67.4537C22.6076 69.2568 21.9884 71.4205 21.7644 71.8379C20.431 73.9092 18.488 75.516 16.2032 76.4369C14.859 76.9663 13.4296 77.2341 12.2411 78.1064C11.1312 78.9198 10.3283 80.0839 9.96229 81.4103C9.77176 82.0696 9.79056 82.7717 10.0161 83.4198C10.2416 84.068 10.6627 84.6301 11.2214 85.0287C10.0046 85.4591 8.98854 86.3217 8.36638 87.4525C7.38275 89.5241 8.60193 91.4783 10.3505 91.5758C9.76533 92.1924 9.33072 92.9361 9.0807 93.7487C8.94263 94.1993 8.92722 94.6785 9.03605 95.1371C9.14489 95.5956 9.37404 96.0169 9.69989 96.3574C10.0363 96.6315 10.4307 96.8253 10.8532 96.9241C11.2757 97.0229 11.7152 97.024 12.1383 96.9274C12.1912 96.919 12.2441 96.9067 12.2971 96.896C12.4958 95.8602 14.2099 87.5584 14.5221 86.2955C15.7175 81.4694 17.9372 76.3456 21.9738 73.4123C23.472 72.324 25.1925 71.5807 27.0118 71.2358C28.8312 70.8909 30.7043 70.9529 32.4968 71.4174C32.6073 71.4474 32.9035 71.5294 33.0117 71.5709C33.0723 68.2816 33.4406 65.7074 31.9605 63.9612ZM31.3237 67.8658C31.1714 68.4937 30.7978 69.0457 30.2714 69.4204C29.745 69.7951 29.1012 69.9675 28.458 69.9059C27.78 69.8455 27.1481 69.5374 26.6829 69.0404C26.2178 68.5435 25.9522 67.8925 25.9367 67.2121C25.8982 66.6713 26.0497 66.1341 26.365 65.6931C26.6803 65.2522 27.1397 64.9351 27.6639 64.7967C28.4556 64.5871 29.2953 64.6559 30.0424 64.9916C30.5439 65.2613 30.9419 65.6898 31.1737 66.2099C31.4056 66.7301 31.4584 67.3124 31.3237 67.8658Z" fill="black"/>
<path d="M30.0452 64.9918C29.4632 64.6983 28.8036 64.5952 28.1598 64.6971C27.5159 64.799 26.9204 65.1007 26.4575 65.5596C26.1758 65.955 26.0035 66.4178 25.958 66.9012C25.9125 67.3845 25.9954 67.8713 26.1984 68.3124C26.4013 68.7534 26.7171 69.133 27.1139 69.4129C27.5106 69.6927 27.9742 69.8629 28.4577 69.9061C29.1009 69.9677 29.7448 69.7954 30.2712 69.4206C30.7975 69.0459 31.1712 68.4939 31.3235 67.866C31.4584 67.313 31.4061 66.7309 31.1748 66.2108C30.9435 65.6907 30.5462 65.262 30.0452 64.9918Z" fill="#FFD2D2"/>
<path d="M53.1361 59.4721C53.2497 60.5884 52.7034 61.7808 51.5655 61.8506C51.1802 61.8277 50.8082 61.7012 50.4889 61.4842C50.1697 61.2673 49.9149 60.9682 49.7517 60.6184C49.6563 60.9034 49.4831 61.1561 49.2517 61.3478C49.0202 61.5396 48.7398 61.6627 48.442 61.7034C48.1442 61.7442 47.8409 61.7008 47.5665 61.5782C47.2921 61.4556 47.0574 61.2586 46.8891 61.0097C46.81 61.6298 46.8922 62.2598 47.1277 62.8388C47.2735 63.1365 46.8277 63.3982 46.6811 63.0997C45.9837 61.681 46.7517 60.1841 46.1325 59.0271C46.0226 58.8502 45.8668 58.7065 45.6816 58.6112C45.4964 58.5159 45.2889 58.4727 45.0811 58.4861C44.8733 58.4995 44.673 58.569 44.5016 58.6872C44.3302 58.8055 44.194 58.968 44.1077 59.1575C43.702 60.1099 43.4932 61.1346 43.4939 62.1698C43.4624 62.4982 42.9453 62.5005 42.9768 62.1698C43.1095 60.7987 43.1494 59.6056 43.8653 58.5897C44.0031 58.413 44.1759 58.2666 44.3728 58.1598C44.5698 58.0529 44.7867 57.9879 45.01 57.9687C45.2333 57.9496 45.4581 57.9767 45.6704 58.0484C45.8827 58.1202 46.0779 58.235 46.2438 58.3856C46.2077 58.2188 46.1534 58.0564 46.0819 57.9015C45.9422 57.6015 46.3888 57.3398 46.5277 57.6406C46.762 58.3545 46.9013 59.0962 46.942 59.8465C46.9692 60.1463 47.0839 60.4314 47.2719 60.6665C47.4599 60.9015 47.7128 61.0761 47.9993 61.1685C48.2609 61.2351 48.5381 61.1982 48.7731 61.0654C49.0081 60.9326 49.1828 60.7142 49.2607 60.4557C49.4546 59.8182 49.4964 59.1442 49.3827 58.4877C49.3278 57.9885 49.2166 57.4971 49.0512 57.023C49.0374 56.9908 49.0303 56.9561 49.0302 56.9211C49.0302 56.886 49.0373 56.8514 49.051 56.8191C49.0648 56.7869 49.0849 56.7578 49.1102 56.7336C49.1355 56.7093 49.1654 56.6905 49.1982 56.6781C49.231 56.6658 49.2659 56.6602 49.3009 56.6617C49.3359 56.6633 49.3702 56.6719 49.4018 56.687C49.4334 56.7022 49.4616 56.7236 49.4847 56.75C49.5077 56.7763 49.5252 56.8071 49.5361 56.8404C49.841 57.7367 49.9773 58.6818 49.9382 59.6278C49.9606 59.659 49.9756 59.695 49.9819 59.7329C50.0321 60.1258 50.2057 60.4926 50.4775 60.7806C50.7494 61.0686 51.1056 61.263 51.4949 61.3358C51.6868 61.3322 51.8738 61.275 52.0349 61.1708C52.1959 61.0665 52.3246 60.9193 52.4065 60.7457C52.5912 60.3482 52.6638 59.9078 52.6167 59.4721C52.6029 59.1391 53.12 59.1414 53.1338 59.4721C53.0523 58.8974 52.9148 58.332 52.7233 57.7841C52.5742 57.2199 52.2967 56.6979 51.9123 56.2588C51.7472 56.0494 51.5343 55.8828 51.2914 55.7726C51.0486 55.6625 50.7829 55.6122 50.5167 55.6259C50.2504 55.6395 49.9912 55.7168 49.761 55.8512C49.5307 55.9856 49.336 56.1733 49.1931 56.3984C48.6407 55.7896 47.8747 55.4174 47.0546 55.3595C46.2346 55.3017 45.4238 55.5625 44.7914 56.0877C44.697 54.9122 44.4422 52.5582 44.2159 51.3544C44.2083 51.0259 44.0794 50.7118 43.8542 50.4725C43.629 50.2332 43.3233 50.0856 42.9958 50.0581C42.6683 50.0306 42.3423 50.1251 42.0803 50.3235C41.8183 50.5218 41.6389 50.81 41.5765 51.1327C41.5284 51.9214 41.5436 52.7126 41.6218 53.4989C42.0514 65.1184 41.7353 63.0214 41.7384 66.4373C41.7384 70.0035 41.176 72.9237 38.242 74.9263C41.2827 78.0966 43.0251 82.6757 44.0172 86.9724C46.8305 84.4191 49.0373 81.2691 50.476 77.7529C52.8862 71.98 53.8011 65.6924 53.1361 59.4721Z" fill="#FFD2D2"/>
<path d="M50.7559 30.7196C50.3966 30.5112 49.9876 30.404 49.5722 30.4093C49.1568 30.4145 48.7507 30.5321 48.3967 30.7495C48.0427 30.9669 47.7542 31.276 47.5617 31.6441C47.3692 32.0122 47.2799 32.4255 47.3033 32.8403C47.3633 33.2575 47.5477 33.6469 47.8324 33.9577C48.1171 34.2685 48.4889 34.4863 48.8992 34.5827C49.4561 34.7144 50.0414 34.6487 50.5553 34.3969C51.0691 34.145 51.4796 33.7225 51.7166 33.2017C51.8354 32.7394 51.8067 32.2516 51.6345 31.8065C51.4622 31.3614 51.155 30.9813 50.7559 30.7196Z" fill="#9E647B"/>
<path d="M44.0199 86.9664C42.4976 80.3019 39.1224 73.2009 32.4994 71.4185C30.7068 70.9542 28.8337 70.8922 27.0144 71.2371C25.1951 71.582 23.4746 72.3252 21.9763 73.4134C17.3221 76.7948 15.0925 83.0434 13.9968 88.6958C13.9521 88.8509 13.9226 89.0099 13.9086 89.1707C14.1123 88.25 14.5539 87.3988 15.1892 86.702C15.8246 86.0051 16.6315 85.487 17.5295 85.1992C18.4275 84.9115 19.3852 84.8641 20.3072 85.0619C21.2293 85.2597 22.0833 85.6957 22.7843 86.3265C23.4096 86.899 23.8958 87.607 24.2055 88.3962C24.5152 89.1855 24.6403 90.0352 24.5712 90.8802C24.5574 91.7165 24.6249 97.9076 24.6434 100.164C25.5279 98.2257 26.5516 96.3538 27.7063 94.5631C29.7695 91.306 32.7664 87.6953 36.562 87.0324C37.4155 86.8638 38.294 86.866 39.1466 87.0386C39.9993 87.2113 40.8094 87.551 41.5301 88.0382C42.9269 89.0064 44.007 90.3652 44.6352 91.9444C44.7572 92.2513 44.87 92.5582 44.9843 92.8605C45.0069 92.8257 45.0171 92.7844 45.0135 92.7431C44.8026 90.7988 44.4708 88.8694 44.0199 86.9664Z" fill="#C0C195"/>
<path d="M41.0954 32.5319C41.565 32.5925 42.0368 32.6378 42.5079 32.6807C42.9574 32.7492 43.4126 32.7726 43.8668 32.7506C45.3882 32.5787 45.5985 30.5385 43.22 30.425C42.3658 30.3731 41.5215 30.2138 40.7072 29.9508C40.757 29.7582 41.7046 29.7421 42.3184 29.805C42.7284 29.8483 43.1427 29.8268 43.546 29.7414C43.759 29.6662 43.9337 29.5099 44.032 29.3066C44.1303 29.1032 44.1442 28.8693 44.0709 28.6557C43.7018 27.5639 41.4238 27.3513 40.2292 27.2746C37.876 27.0924 35.5096 27.3595 33.2563 28.0618C26.8212 30.1066 22.5867 36.1181 21.9007 42.7841C21.9015 42.8523 21.9291 42.9176 21.9774 42.9658C22.0257 43.014 22.0911 43.0413 22.1593 43.0419H31.3281C31.396 43.0403 31.4607 43.0127 31.5087 42.9647C31.5567 42.9166 31.5844 42.852 31.5859 42.7841C31.6778 41.1998 32.3281 39.6992 33.4212 38.5488C33.8647 38.116 34.4187 37.8114 34.787 38.304C35.1706 38.8112 36.0844 41.1621 37.5146 40.2222C39.0391 39.2178 36.824 37.0626 37.7448 36.0698C38.1507 35.7121 38.6799 35.5267 39.2202 35.5526C41.2481 35.5219 42.1358 36.3721 43.2476 36.3529C44.2535 36.3997 45.1021 35.3646 44.4599 34.5536C44.1592 34.1793 43.7736 33.8821 43.335 33.6866C42.6898 33.3918 42.0116 33.1754 41.3148 33.0421C41.1368 33.0084 40.6535 33.0222 40.645 32.7575C40.6366 32.4928 40.9136 32.5066 41.0954 32.5319ZM36.3253 31.1823C36.5179 30.916 36.9691 31.1754 36.7711 31.4431C36.6224 31.6433 36.5149 31.871 36.4547 32.113C36.3946 32.3551 36.383 32.6066 36.4207 32.8531C36.4584 33.0996 36.5445 33.3362 36.6742 33.5492C36.8039 33.7622 36.9745 33.9474 37.1762 34.094C37.4463 34.2859 37.1893 34.7301 36.9153 34.5398C36.6545 34.3593 36.432 34.1288 36.2609 33.8616C36.0898 33.5945 35.9735 33.296 35.9186 32.9835C35.8637 32.6711 35.8714 32.3508 35.9412 32.0414C36.011 31.7319 36.1416 31.4394 36.3253 31.1807V31.1823ZM23.6463 39.392C23.7007 39.0644 24.1987 39.204 24.145 39.5293L23.8143 41.5319C23.7598 41.8595 23.2619 41.7199 23.3156 41.3946L23.6463 39.392Z" fill="#9E647B"/>
<path d="M56.7242 24.6497C56.7413 24.6204 56.7525 24.588 56.7571 24.5543C56.7617 24.5207 56.7596 24.4865 56.751 24.4536C56.7424 24.4208 56.7274 24.3899 56.7069 24.3629C56.6863 24.3359 56.6607 24.3131 56.6313 24.296C56.602 24.2789 56.5696 24.2677 56.536 24.2631C56.5023 24.2585 56.4681 24.2605 56.4353 24.2692C56.4024 24.2778 56.3716 24.2928 56.3445 24.3133C56.3175 24.3338 56.2948 24.3595 56.2776 24.3888C55.3075 25.985 54.3497 27.5887 53.4042 29.1996C53.3736 29.2584 53.3668 29.3268 53.3851 29.3906C53.4035 29.4544 53.4457 29.5086 53.503 29.5421C53.5603 29.5756 53.6282 29.5858 53.6928 29.5706C53.7574 29.5554 53.8137 29.516 53.85 29.4604L56.7242 24.6497Z" fill="black"/>
<path d="M55.3171 29.9708L58.2611 27.7503C58.5235 27.5524 58.2664 27.1035 58.001 27.3038L55.0562 29.5288C54.7946 29.7222 55.0516 30.171 55.3171 29.9708Z" fill="black"/>
<path d="M45.3934 94.0121C45.1523 93.3168 44.8983 92.6262 44.6315 91.9405C44.0774 90.5505 43.1741 89.3269 42.009 88.388C39.2092 86.1837 35.6821 86.6011 32.8125 88.7387C29.422 91.2645 26.2747 96.5586 24.6396 100.274C24.6396 100.729 24.6834 107.215 24.6841 107.388H54.7026V94.0865L45.3934 94.0121ZM37.6885 99.5141C36.6899 101.969 35.771 104.456 34.9332 106.971C34.915 107.037 34.8713 107.093 34.8116 107.127C34.752 107.161 34.6813 107.17 34.6152 107.152C34.5491 107.134 34.4929 107.09 34.459 107.03C34.4251 106.971 34.4163 106.9 34.4345 106.834C35.2719 104.319 36.1905 101.834 37.1905 99.3768C37.3148 99.0722 37.8143 99.2072 37.6885 99.5141ZM40.8343 90.5433L39.3182 90.01C39.0059 89.9003 39.1409 89.4016 39.4555 89.5121L40.9724 90.0445C41.2854 90.1535 41.1504 90.653 40.8358 90.5433H40.8343ZM46.7514 102.291C46.5641 103.868 46.1721 105.414 45.5852 106.889C45.5674 106.955 45.524 107.012 45.4646 107.046C45.4051 107.08 45.3345 107.089 45.2683 107.072C45.2021 107.054 45.1456 107.01 45.1114 106.951C45.0771 106.892 45.0679 106.821 45.0857 106.755C46.5826 102.641 46.8888 99.3307 45.1624 94.6573C45.0458 94.3443 45.5506 94.2116 45.6604 94.52C46.6412 96.9855 47.0159 99.6505 46.753 102.291H46.7514Z" fill="#2755A0"/>
<path d="M143.7 89.4313C140.868 87.0973 135.444 82.4768 133.126 79.6187C128.155 82.7093 123.576 85.6433 120.645 90.7441C124.032 94.8148 128.361 97.9978 133.257 100.017C133.301 100.029 133.348 100.029 133.392 100.018C133.436 100.006 133.476 99.9828 133.509 99.9505C136.027 97.483 142.803 90.6996 143.7 89.7965C143.748 89.7479 143.775 89.6823 143.775 89.6139C143.775 89.5455 143.748 89.4799 143.7 89.4313Z" fill="#FFD2D2"/>
<path d="M91.9286 48.184C91.4414 47.9615 90.2552 47.4858 90.8544 46.7799C91.1277 46.5141 91.4278 46.2773 91.7498 46.0732C93.5782 44.7689 92.2869 42.5921 90.5222 43.8213C90.1815 44.0584 89.8639 44.3515 89.5838 44.5801C88.1155 45.6369 86.7886 46.8775 85.6355 48.2714C85.0859 48.9926 84.7689 49.864 84.7268 50.7697C84.6848 51.6755 84.9195 52.5725 85.3999 53.3415C85.6545 53.671 85.9473 53.969 86.2723 54.2292C86.5402 54.5039 86.8338 54.7521 87.1493 54.9704C87.3048 55.0649 87.4797 55.1227 87.6609 55.1394C87.842 55.1561 88.0246 55.1313 88.1947 55.0669C88.3648 55.0024 88.518 54.9001 88.6427 54.7676C88.7673 54.6351 88.8601 54.4759 88.914 54.3021C89.0905 53.7152 88.614 53.0124 88.3209 52.5374C88.1291 52.2267 87.8291 51.7893 87.7892 51.7379C87.7493 51.6865 87.7531 51.6957 87.7623 51.6904C87.8391 51.6397 88.0125 51.8039 88.0784 51.8492C88.9754 52.463 89.5132 53.043 90.2076 53.1098C90.8713 53.1735 91.1506 52.4615 91.0447 51.9113C90.8634 51.3621 90.5581 50.8619 90.1524 50.4497C89.788 49.982 89.4619 49.4858 89.1772 48.9658C89.3843 48.9965 90.5322 50.3354 91.7352 50.5172C91.9893 50.5577 92.2496 50.5158 92.4782 50.3978C92.7068 50.2798 92.8917 50.0918 93.0058 49.8612C93.3795 49.087 92.5355 48.4609 91.9286 48.184ZM87.7247 46.8029C87.7611 46.808 87.7959 46.8214 87.8263 46.842C87.8568 46.8626 87.8821 46.8899 87.9004 46.9218C88.1007 47.2663 88.3194 47.5993 88.5142 47.9446C88.5449 48.0034 88.5517 48.0718 88.5333 48.1356C88.515 48.1994 88.4728 48.2536 88.4155 48.2871C88.3582 48.3206 88.2902 48.3308 88.2257 48.3156C88.1611 48.3004 88.1048 48.261 88.0685 48.2054C87.859 47.8671 87.6572 47.5233 87.4547 47.1827C87.4318 47.14 87.4212 47.0917 87.4243 47.0434C87.4273 46.995 87.4438 46.9485 87.4719 46.909C87.5 46.8695 87.5385 46.8387 87.5832 46.8199C87.6279 46.8012 87.6769 46.7953 87.7247 46.8029ZM85.9408 51.4924L85.3685 50.7014C85.1728 50.432 85.6209 50.1742 85.8142 50.4413L86.3866 51.2315C86.5823 51.5008 86.1342 51.7586 85.9408 51.4916V51.4924Z" fill="#FC9070"/>
<path d="M37.1901 99.3767C36.1911 101.832 35.2724 104.318 34.434 106.834C34.4158 106.9 34.4246 106.971 34.4585 107.03C34.4924 107.09 34.5486 107.134 34.6147 107.152C34.6809 107.17 34.7515 107.161 34.8112 107.127C34.8708 107.093 34.9145 107.037 34.9328 106.971C35.7698 104.459 36.6975 101.949 37.688 99.514C37.8138 99.2071 37.3143 99.0721 37.1901 99.3767Z" fill="#2755A0"/>
<path d="M140.04 67.2383C140.038 67.1703 140.01 67.1056 139.962 67.0576C139.914 67.0097 139.849 66.982 139.782 66.9805H136.291C135.637 68.4929 134.678 69.854 133.473 70.9785C132.269 72.1031 130.845 72.967 129.291 73.516C126.186 74.4743 122.419 73.6618 119.025 70.0211C118.151 69.0738 117.356 68.0569 116.647 66.9805C116.647 66.9805 113.826 66.9743 113.389 66.9697L112.302 69.4641C112.267 69.5226 112.21 69.5649 112.144 69.5823C112.078 69.5996 112.008 69.5905 111.948 69.5569C111.948 69.5569 111.494 69.3598 111.307 69.2769C111.622 71.1722 112.134 73.0295 112.834 74.8188C109.758 77.4621 105.565 81.5439 103.94 85.2536C102.182 89.6945 101.171 94.3956 100.947 99.1664C100.948 99.2347 100.975 99.3 101.023 99.3484C101.071 99.3967 101.137 99.4242 101.205 99.425H117.591C117.647 99.4246 117.702 99.4059 117.747 99.3715C117.792 99.3372 117.825 99.2892 117.84 99.2347C118.173 96.3287 119.082 93.5182 120.513 90.9672C121.945 88.4163 123.87 86.1761 126.176 84.3774C128.379 82.634 130.7 81.0445 133.122 79.6204C135.884 77.9715 138.231 75.9598 139.336 72.9567C139.677 72.0153 139.902 71.0364 140.008 70.0411C140.07 69.1081 140.08 68.1724 140.04 67.2383ZM110.404 80.7421C109.899 81.2943 109.449 81.8946 109.061 82.5344C109.025 82.591 108.969 82.6314 108.904 82.6473C108.839 82.6631 108.77 82.6532 108.712 82.6195C108.655 82.5858 108.612 82.5311 108.594 82.4667C108.576 82.4023 108.583 82.3334 108.614 82.2743C109.015 81.5896 109.493 80.953 110.039 80.3769C110.266 80.1329 110.63 80.4989 110.404 80.7429V80.7421ZM116.785 72.2915C116.695 72.4917 115.422 73.1355 113.367 75.0275C113.137 75.2408 112.799 74.924 112.975 74.6984C114.055 73.6952 115.212 72.7776 116.434 71.9539C116.665 71.7981 116.878 72.0843 116.785 72.2922V72.2915Z" fill="#FF4848"/>
<path d="M27.5707 110.039C26.9845 110.039 26.3983 110.026 25.8129 110.012C25.453 110.003 25.084 109.979 24.721 109.992C24.6996 109.124 24.5538 91.7132 24.5676 90.8769C24.6008 90.0059 24.4669 89.1365 24.1732 88.3158C23.9127 87.6555 23.5236 87.0535 23.0285 86.5448C22.5334 86.0361 21.9422 85.6308 21.2893 85.3524C20.6363 85.074 19.9345 84.9281 19.2247 84.9231C18.5148 84.9182 17.8111 85.0542 17.1543 85.3235C16.3366 85.6602 15.6126 86.1899 15.0442 86.8673C14.4758 87.5448 14.0799 88.3498 13.8903 89.2135C12.4563 95.5542 10.9279 104.38 9.94812 110.116C8.75997 109.896 7.53563 109.975 6.38571 110.346C4.39543 111.044 4.49748 112.934 5.71052 113.344C6.33047 113.512 6.37881 113.464 9.3581 113.525C8.81411 116.039 8.17651 116.725 8.67677 117.548C8.84808 117.826 9.11591 118.032 9.42911 118.125C9.74231 118.218 10.0789 118.193 10.3747 118.054C10.7321 117.841 11.0596 117.581 11.3484 117.282C13.4867 115.386 15.5599 112.822 16.5044 113.759C17.0576 114.483 17.3845 116.23 18.0497 117.506C18.1571 117.758 18.3518 117.963 18.5981 118.083C18.8444 118.204 19.1259 118.231 19.3908 118.161C19.7029 118.058 19.9845 117.879 20.2105 117.64C20.4365 117.402 20.5999 117.111 20.686 116.794C20.9676 115.759 21.0443 114.213 21.4625 113.768C22.0022 113.478 22.622 113.373 23.2272 113.468C24.0535 113.493 27.1003 113.603 27.7955 113.604C28.1955 113.608 28.585 113.476 28.9007 113.23C29.2164 112.984 29.4399 112.639 29.5349 112.251C29.571 111.973 29.547 111.69 29.4646 111.422C29.3821 111.154 29.2431 110.907 29.0569 110.697C28.8707 110.487 28.6417 110.32 28.3853 110.206C28.1289 110.093 27.8511 110.036 27.5707 110.039ZM18.1617 111.004C17.8335 111.255 17.5256 111.532 17.241 111.832C17.0108 112.073 16.6456 111.707 16.8758 111.466C17.1936 111.137 17.5371 110.833 17.9031 110.557C18.1671 110.357 18.4233 110.805 18.1617 111.004ZM13.1898 110.837L11.8041 111.604C11.5126 111.764 11.2517 111.318 11.5433 111.157L12.9289 110.39C13.2205 110.23 13.4814 110.676 13.1898 110.837ZM13.9226 98.2342C14.1758 97.4976 14.3614 96.7395 14.4773 95.9693C14.5272 95.6416 15.0243 95.7813 14.976 96.1066C14.8595 96.8768 14.6736 97.6349 14.4205 98.3716C14.3131 98.6846 13.8136 98.5496 13.9226 98.2342Z" fill="#FFD2D2"/>
<path d="M118.364 103.22C113.824 101.102 108.698 100.594 103.83 101.781C102.496 102.116 101.203 102.597 99.9738 103.215C99.9237 103.243 99.8842 103.286 99.8613 103.339C99.8384 103.391 99.8335 103.449 99.8472 103.505C99.8609 103.56 99.8926 103.61 99.9373 103.645C99.9819 103.681 100.037 103.701 100.094 103.702H118.234C118.476 103.702 118.605 103.333 118.364 103.22Z" fill="black"/>
<path d="M147.213 90.675C143.722 94.1738 143.12 95.607 140.922 97.7976C139.111 99.6223 136.922 101.029 134.51 101.918C134.449 101.929 134.394 101.962 134.354 102.009C134.314 102.057 134.292 102.117 134.291 102.179C134.29 102.241 134.311 102.302 134.35 102.35C134.389 102.399 134.443 102.433 134.504 102.446C137.153 103.48 140.977 102.472 143.726 98.416C145.268 96.0756 146.572 93.5873 147.619 90.9881C147.727 90.7349 147.438 90.4502 147.213 90.675Z" fill="black"/>
<path d="M91.3239 33.8738C91.581 34.0802 91.9493 33.7203 91.6899 33.5086L88.6017 31.0296C88.3454 30.8239 87.9771 31.183 88.2365 31.3955L91.3239 33.8738Z" fill="black"/>
<path d="M138.048 58.1393C137.89 57.0835 137.388 56.1093 136.62 55.3678C135.852 54.6262 134.861 54.1587 133.8 54.0378C132.739 53.9168 131.668 54.1491 130.753 54.6986C129.838 55.2482 129.129 56.0843 128.738 57.0774C128.14 59.0217 128.333 59.4835 127.518 60.9199C126.842 62.1122 125.846 62.1743 124.756 61.3457C123.956 60.7254 123.26 59.9822 122.692 59.1436C121.9 58.0217 121.207 56.8328 120.621 55.5904C120.264 54.749 120.139 53.8272 120.259 52.9211C120.327 52.4125 120.341 51.8982 120.301 51.3866C120.275 51.2 120.201 51.0236 120.084 50.8758C119.967 50.728 119.813 50.6143 119.637 50.5464C119.609 50.5357 119.588 50.5188 119.56 50.5104C119.359 50.4327 119.141 50.4098 118.928 50.4442C118.715 50.4786 118.515 50.5689 118.348 50.706C118.055 51.0365 117.857 51.4408 117.776 51.8754C117.535 52.8728 117.46 53.5441 117.263 54.7557C116.186 54.2228 115.004 53.9334 113.802 53.9078C113.253 53.8917 112.501 53.7943 112.068 54.2055C111.903 54.3636 111.791 54.5683 111.747 54.792C111.702 55.0157 111.727 55.2478 111.818 55.4569C112.053 56.0063 112.686 56.1352 113.194 56.3286C113.55 56.4636 113.906 56.5979 114.263 56.7275C114.334 56.7528 114.488 56.7682 114.516 56.848C114.551 56.9454 114.407 56.9247 114.356 56.9247C112.689 56.9731 111.977 56.6048 110.841 57.0636C110.644 57.1232 110.466 57.2341 110.326 57.3852C110.185 57.5362 110.088 57.7218 110.043 57.923C109.998 58.1242 110.008 58.3337 110.07 58.53C110.133 58.7263 110.247 58.9024 110.401 59.0401C110.76 59.2833 111.177 59.4276 111.609 59.4582C112.31 59.5793 113.018 59.6562 113.729 59.6884C113.953 59.7006 114.174 59.7364 114.39 59.7951C112.296 60.1518 111.398 60.1833 110.688 60.837C110.531 61.035 110.447 61.2811 110.45 61.534C110.453 61.7869 110.543 62.0309 110.705 62.225C111.181 62.8012 112.01 62.7275 112.672 62.739C115.073 62.7805 115.256 65.9731 119.025 70.015C122.425 73.6611 126.192 74.4652 129.291 73.5099C130.844 72.9606 132.268 72.0967 133.472 70.9722C134.677 69.8476 135.636 68.4866 136.291 66.9743C137.235 64.8261 137.811 62.5343 137.995 60.1948C138.107 59.5153 138.125 58.8237 138.048 58.1393ZM120.31 62.5319C120.47 62.6209 124.141 64.7247 124.141 64.7247C124.2 64.7592 124.243 64.8158 124.26 64.882C124.278 64.9482 124.268 65.0186 124.234 65.0777C124.199 65.1368 124.143 65.1798 124.076 65.1972C124.01 65.2146 123.94 65.205 123.881 65.1705C123.72 65.0815 120.049 62.9784 120.049 62.9784C120.02 62.9613 119.994 62.9386 119.974 62.9115C119.953 62.8845 119.938 62.8537 119.929 62.8208C119.921 62.788 119.919 62.7537 119.923 62.7201C119.928 62.6865 119.939 62.654 119.956 62.6247C119.973 62.5954 119.996 62.5697 120.023 62.5492C120.05 62.5287 120.081 62.5137 120.114 62.5051C120.147 62.4964 120.181 62.4944 120.215 62.499C120.248 62.5036 120.281 62.5148 120.31 62.5319ZM125.915 71.5004C126.674 71.7086 127.476 71.6967 128.229 71.4659C128.547 71.3646 128.682 71.8641 128.366 71.9639C127.526 72.2351 126.624 72.2474 125.777 71.9992C125.745 71.9901 125.714 71.9748 125.687 71.9539C125.66 71.933 125.638 71.9071 125.621 71.8776C125.587 71.8179 125.579 71.7473 125.597 71.6811C125.615 71.615 125.659 71.5588 125.718 71.5249C125.778 71.491 125.849 71.4822 125.915 71.5004ZM117.091 56.9163C117.419 56.97 117.279 57.4679 116.954 57.415L115.661 57.2055C115.333 57.1526 115.473 56.6546 115.798 56.7068L117.091 56.9163ZM115.805 59.8465C116.27 59.9846 116.751 60.065 117.236 60.0858C117.569 60.0997 117.569 60.6168 117.236 60.6022C116.705 60.5825 116.177 60.4962 115.667 60.3452C115.634 60.3362 115.604 60.3208 115.577 60.2999C115.55 60.2791 115.528 60.2531 115.511 60.2236C115.494 60.1941 115.483 60.1615 115.479 60.1278C115.475 60.0941 115.478 60.0599 115.487 60.0271C115.496 59.9944 115.511 59.9638 115.532 59.937C115.553 59.9102 115.579 59.8877 115.608 59.8709C115.638 59.8542 115.67 59.8434 115.704 59.8392C115.738 59.835 115.772 59.8374 115.805 59.8465Z" fill="#FC9070"/>
<path d="M104.288 28.5691L103.65 24.4535C103.599 24.1259 103.101 24.2655 103.151 24.5908L103.79 28.7064C103.84 29.034 104.339 28.8944 104.288 28.5691Z" fill="black"/>
<path d="M116.195 30.3189L118.33 25.9693C118.476 25.6724 118.03 25.41 117.884 25.7092L115.749 30.0581C115.603 30.355 116.048 30.6174 116.195 30.3189Z" fill="black"/>
<path d="M126.281 47.746C127.616 47.2749 128.966 46.8375 130.327 46.4355C130.359 46.4264 130.39 46.4111 130.417 46.3902C130.444 46.3693 130.466 46.3434 130.483 46.3139C130.5 46.2843 130.51 46.2518 130.515 46.2181C130.519 46.1844 130.516 46.1502 130.507 46.1174C130.498 46.0847 130.483 46.054 130.462 46.0272C130.441 46.0004 130.415 45.978 130.386 45.9612C130.356 45.9444 130.324 45.9336 130.29 45.9294C130.256 45.9252 130.222 45.9277 130.189 45.9367C128.817 46.292 127.479 46.7769 126.144 47.248C125.834 47.3577 125.966 47.8572 126.281 47.746Z" fill="black"/>
<path d="M80.3037 42.8024C80.2376 42.7842 80.1671 42.793 80.1076 42.8268C80.048 42.8606 80.0043 42.9167 79.986 42.9827C79.9691 43.0486 79.9785 43.1186 80.0121 43.1779C80.0457 43.2371 80.101 43.281 80.1663 43.3003L84.1561 44.9745C84.2221 44.9926 84.2927 44.9838 84.3522 44.95C84.4118 44.9162 84.4555 44.8602 84.4738 44.7942C84.4907 44.7282 84.4813 44.6582 84.4477 44.599C84.4141 44.5397 84.3588 44.4958 84.2934 44.4765L80.3037 42.8024Z" fill="black"/>
<path d="M149.97 62.6731H145.614C145.546 62.6731 145.48 62.7003 145.431 62.7488C145.383 62.7973 145.356 62.8631 145.356 62.9317C145.356 63.0002 145.383 63.066 145.431 63.1145C145.48 63.163 145.546 63.1902 145.614 63.1902H149.97C150.039 63.1902 150.104 63.163 150.153 63.1145C150.201 63.066 150.229 63.0002 150.229 62.9317C150.229 62.8631 150.201 62.7973 150.153 62.7488C150.104 62.7003 150.039 62.6731 149.97 62.6731Z" fill="black"/>
<path d="M141.256 52.4976H144.424C144.493 52.4976 144.558 52.4704 144.607 52.4219C144.655 52.3734 144.683 52.3076 144.683 52.2391C144.683 52.1705 144.655 52.1047 144.607 52.0562C144.558 52.0077 144.493 51.9805 144.424 51.9805H141.256C141.188 51.9805 141.122 52.0077 141.073 52.0562C141.025 52.1047 140.998 52.1705 140.998 52.2391C140.998 52.3076 141.025 52.3734 141.073 52.4219C141.122 52.4704 141.188 52.4976 141.256 52.4976Z" fill="black"/>
<path d="M150.365 47.3645H144.074C144.008 47.3681 143.946 47.3969 143.9 47.4449C143.855 47.4929 143.829 47.5566 143.829 47.6227C143.829 47.6888 143.855 47.7525 143.9 47.8005C143.946 47.8485 144.008 47.8773 144.074 47.8809H150.365C150.431 47.8773 150.494 47.8485 150.539 47.8005C150.584 47.7525 150.61 47.6888 150.61 47.6227C150.61 47.5566 150.584 47.4929 150.539 47.4449C150.494 47.3969 150.431 47.3681 150.365 47.3645Z" fill="black"/>
<path d="M53.1362 59.472C53.1224 59.1413 52.6053 59.139 52.6191 59.472C52.6659 59.908 52.5924 60.3485 52.4066 60.7457C52.3244 60.9193 52.1952 61.0664 52.0337 61.1704C51.8722 61.2744 51.6848 61.3312 51.4927 61.3342C51.1038 61.261 50.7481 61.0664 50.4767 60.7784C50.2053 60.4905 50.0321 60.1239 49.982 59.7314C49.9759 59.6934 49.9609 59.6574 49.9383 59.6262C49.9775 58.6802 49.8412 57.7351 49.5362 56.8388C49.5253 56.8055 49.5078 56.7747 49.4848 56.7484C49.4617 56.722 49.4335 56.7006 49.4019 56.6855C49.3703 56.6703 49.336 56.6617 49.301 56.6602C49.266 56.6586 49.2311 56.6642 49.1983 56.6766C49.1655 56.6889 49.1356 56.7078 49.1103 56.732C49.085 56.7562 49.0649 56.7853 49.0511 56.8176C49.0374 56.8498 49.0303 56.8845 49.0304 56.9195C49.0304 56.9545 49.0375 56.9892 49.0513 57.0214C49.2167 57.4955 49.3279 57.9869 49.3828 58.4861C49.4961 59.1426 49.4543 59.8166 49.2608 60.4541C49.1827 60.7125 49.008 60.9308 48.7731 61.0636C48.5381 61.1963 48.261 61.2334 47.9994 61.1669C46.4756 60.6743 47.1293 58.9219 46.5239 57.6421C46.382 57.3413 45.9385 57.603 46.0782 57.903C46.1493 58.0581 46.2036 58.2204 46.24 58.3871C46.0734 58.238 45.878 58.1246 45.6659 58.0538C45.4538 57.9831 45.2295 57.9564 45.0067 57.9755C44.7839 57.9946 44.5674 58.0591 44.3705 58.165C44.1735 58.2709 44.0003 58.4159 43.8615 58.5912C43.1464 59.6063 43.1081 60.7764 42.973 62.1713C42.9408 62.5019 43.4579 62.4996 43.4902 62.1713C43.4895 61.136 43.6983 60.1114 44.104 59.159C44.1903 58.9695 44.3264 58.8069 44.4978 58.6887C44.6693 58.5705 44.8695 58.501 45.0773 58.4876C45.2851 58.4742 45.4927 58.5174 45.6779 58.6127C45.863 58.708 46.0189 58.8517 46.1288 59.0285C46.7426 60.1794 45.9815 61.6871 46.6774 63.1012C46.8239 63.3996 47.2697 63.138 47.1239 62.8403C46.8888 62.2611 46.8067 61.6312 46.8853 61.0111C47.0537 61.2601 47.2884 61.457 47.5628 61.5796C47.8372 61.7022 48.1404 61.7456 48.4382 61.7049C48.736 61.6642 49.0165 61.541 49.2479 61.3493C49.4794 61.1575 49.6526 60.9049 49.748 60.6198C49.9113 60.9698 50.1661 61.269 50.4855 61.4859C50.805 61.7028 51.1771 61.8294 51.5626 61.8521C52.7012 61.7815 53.2505 60.5753 53.1362 59.472Z" fill="#FF4848"/>
<path d="M96.9998 109.204C96.9998 88.872 97.0435 84.5492 96.9829 83.5779C96.9637 83.271 96.9338 83.3016 96.8893 83.2709C96.8087 83.2103 76.223 70.4906 76.1463 70.4438C76.1068 70.4205 76.0618 70.4081 76.0159 70.4081C75.97 70.4081 75.9249 70.4205 75.8854 70.4438C75.4343 70.7139 54.9882 83.1267 54.9076 83.1873C54.6007 83.4175 54.7089 83.4106 54.702 83.475C54.702 110.957 54.6767 109.464 54.7373 109.678C54.7995 109.768 53.3225 108.723 75.5762 124.247C75.6155 124.272 75.6606 124.284 75.7066 124.284C75.7527 124.284 75.7978 124.272 75.8371 124.247C80.3808 121.121 96.8417 109.803 96.9238 109.73C97.0458 109.603 96.9998 109.365 96.9998 109.204ZM76.0174 70.9717C76.0174 70.9717 96.076 83.3799 96.2318 83.4781C96.2318 83.4781 76.0742 95.5809 75.8478 95.7382C75.1995 95.3485 56.2059 83.8909 55.4677 83.4666C58.5974 81.5669 75.9422 71.0254 76.0174 70.9717ZM76.1425 115.642C76.1425 115.71 76.1152 115.776 76.0667 115.825C76.0182 115.873 75.9525 115.9 75.8839 115.9C75.8153 115.9 75.7495 115.873 75.7011 115.825C75.6526 115.776 75.6253 115.71 75.6253 115.642V102.575C75.6279 102.506 75.6576 102.441 75.7077 102.395C75.7579 102.348 75.8246 102.323 75.8931 102.325C75.9587 102.327 76.0211 102.354 76.0675 102.4C76.1139 102.447 76.1407 102.509 76.1425 102.575C76.187 105.146 76.2008 112.274 76.1425 115.643V115.642Z" fill="#FFD500"/>
<path d="M91.2647 82.6106C90.9977 82.2136 90.6322 81.8927 90.204 81.6794C89.7757 81.4661 89.2994 81.3676 88.8217 81.3938C88.8217 81.3938 63.3002 81.3753 62.938 81.4053C62.4614 81.4087 61.9952 81.546 61.5928 81.8014C61.1903 82.0568 60.8676 82.4202 60.6616 82.85C60.2319 84.0408 61.4472 85.4587 63.7352 85.2991C63.7352 85.2991 88.3729 85.2945 88.7795 85.2991C90.7552 85.3198 91.9284 83.8482 91.2647 82.6106ZM83.2168 82.6398C83.2168 82.5712 83.2441 82.5055 83.2926 82.457C83.3411 82.4085 83.4068 82.3812 83.4754 82.3812C83.544 82.3812 83.6097 82.4085 83.6582 82.457C83.7067 82.5055 83.734 82.5712 83.734 82.6398V83.9572C83.734 84.0258 83.7067 84.0915 83.6582 84.14C83.6097 84.1885 83.544 84.2158 83.4754 84.2158C83.4068 84.2158 83.3411 84.1885 83.2926 84.14C83.2441 84.0915 83.2168 84.0258 83.2168 83.9572V82.6398ZM67.5079 82.6398C67.5115 82.5738 67.5402 82.5116 67.5883 82.4661C67.6363 82.4207 67.6999 82.3953 67.766 82.3953C67.8322 82.3953 67.8958 82.4207 67.9438 82.4661C67.9919 82.5116 68.0206 82.5738 68.0242 82.6398V83.8621C68.0206 83.9281 67.9919 83.9902 67.9438 84.0357C67.8958 84.0812 67.8322 84.1065 67.766 84.1065C67.6999 84.1065 67.6363 84.0812 67.5883 84.0357C67.5402 83.9902 67.5115 83.9281 67.5079 83.8621V82.6398Z" fill="#2755A0"/>
<path d="M39.3195 90.01L40.8356 90.5433C41.1502 90.6537 41.286 90.1543 40.9737 90.0445L39.4568 89.5121C39.1423 89.4016 39.0072 89.9011 39.3195 90.01Z" fill="#2755A0"/>
<path d="M124.147 64.7211C124.147 64.7211 120.476 62.6172 120.316 62.5282C120.256 62.4936 120.186 62.484 120.12 62.5014C120.053 62.5188 119.997 62.5619 119.962 62.6211C119.927 62.6803 119.918 62.7508 119.935 62.8172C119.953 62.8835 119.996 62.9402 120.055 62.9748C120.055 62.9748 123.726 65.0779 123.887 65.1669C123.945 65.1964 124.013 65.2024 124.076 65.1836C124.139 65.1649 124.193 65.1229 124.226 65.0661C124.259 65.0093 124.269 64.942 124.255 64.8779C124.24 64.8138 124.201 64.7577 124.147 64.7211Z" fill="black"/>
<path d="M96.4841 112.278V118.416C96.4877 118.482 96.5165 118.544 96.5645 118.589C96.6126 118.635 96.6762 118.66 96.7423 118.66C96.8085 118.66 96.8721 118.635 96.9201 118.589C96.9681 118.544 96.9969 118.482 97.0005 118.416V112.278C96.9969 112.212 96.9681 112.149 96.9201 112.104C96.8721 112.058 96.8085 112.033 96.7423 112.033C96.6762 112.033 96.6126 112.058 96.5645 112.104C96.5165 112.149 96.4877 112.212 96.4841 112.278Z" fill="black"/>
<path d="M12.9287 110.391L11.5431 111.158C11.2515 111.319 11.5124 111.765 11.8039 111.605L13.1896 110.838C13.4812 110.676 13.2203 110.23 12.9287 110.391Z" fill="#FF4848"/>
<path d="M55.8795 118.416V112.278C55.8795 112.209 55.8522 112.143 55.8037 112.095C55.7552 112.046 55.6895 112.019 55.6209 112.019C55.5523 112.019 55.4865 112.046 55.4381 112.095C55.3896 112.143 55.3623 112.209 55.3623 112.278V118.416C55.3623 118.484 55.3896 118.55 55.4381 118.598C55.4865 118.647 55.5523 118.674 55.6209 118.674C55.6895 118.674 55.7552 118.647 55.8037 118.598C55.8522 118.55 55.8795 118.484 55.8795 118.416Z" fill="black"/>
<path d="M75.4485 125.742V128.936C75.4485 129.004 75.4758 129.07 75.5243 129.118C75.5728 129.167 75.6385 129.194 75.7071 129.194C75.7757 129.194 75.8415 129.167 75.89 129.118C75.9384 129.07 75.9657 129.004 75.9657 128.936V125.742C75.9657 125.674 75.9384 125.608 75.89 125.559C75.8415 125.511 75.7757 125.484 75.7071 125.484C75.6385 125.484 75.5728 125.511 75.5243 125.559C75.4758 125.608 75.4485 125.674 75.4485 125.742Z" fill="black"/>
<path d="M17.9011 110.557C17.5351 110.833 17.1916 111.137 16.8738 111.466C16.6436 111.707 17.0088 112.073 17.239 111.832C17.5236 111.532 17.8315 111.255 18.1597 111.004C18.4229 110.805 18.1666 110.357 17.9011 110.557Z" fill="#FF4848"/>
<path d="M14.4777 95.9694C14.3619 96.7396 14.1762 97.4978 13.923 98.2344C13.8148 98.5497 14.3135 98.6847 14.4209 98.3717C14.674 97.635 14.8599 96.8769 14.9764 96.1067C15.0248 95.7814 14.5276 95.6418 14.4777 95.9694Z" fill="#FF4848"/>
<path d="M76.1428 115.643V102.575C76.1428 102.506 76.1156 102.44 76.0671 102.392C76.0186 102.343 75.9528 102.316 75.8843 102.316C75.8157 102.316 75.7499 102.343 75.7014 102.392C75.6529 102.44 75.6257 102.506 75.6257 102.575V115.643C75.6257 115.712 75.6529 115.778 75.7014 115.826C75.7499 115.875 75.8157 115.902 75.8843 115.902C75.9528 115.902 76.0186 115.875 76.0671 115.826C76.1156 115.778 76.1428 115.712 76.1428 115.643Z" fill="black"/>
<path d="M45.6603 94.52C45.6482 94.4857 45.6292 94.4544 45.6044 94.428C45.5795 94.4016 45.5494 94.3806 45.516 94.3665C45.3342 94.2898 45.0756 94.4248 45.1623 94.6581C46.8779 99.2962 46.5978 102.605 45.0856 106.756C45.0678 106.822 45.077 106.892 45.1112 106.952C45.1455 107.011 45.2019 107.055 45.2682 107.072C45.3344 107.09 45.405 107.081 45.4644 107.047C45.5239 107.012 45.5673 106.956 45.5851 106.89C46.1652 105.412 46.5571 103.867 46.7513 102.292C47.0148 99.6511 46.6406 96.9859 45.6603 94.52Z" fill="#2755A0"/>
<path d="M36.9145 34.5382C37.1884 34.7285 37.4454 34.2842 37.1754 34.0924C36.9737 33.9458 36.8031 33.7606 36.6734 33.5476C36.5437 33.3346 36.4575 33.098 36.4199 32.8515C36.3822 32.605 36.3938 32.3534 36.4539 32.1114C36.514 31.8694 36.6216 31.6417 36.7702 31.4415C36.9682 31.1737 36.5171 30.9144 36.3245 31.1806C36.141 31.4392 36.0106 31.7316 35.9409 32.0409C35.8713 32.3503 35.8636 32.6703 35.9185 32.9826C35.9734 33.2949 36.0897 33.5932 36.2606 33.8602C36.4316 34.1272 36.6538 34.3577 36.9145 34.5382Z" fill="black"/>
<path d="M23.8138 41.5272L24.1445 39.5247C24.1982 39.1994 23.7002 39.0597 23.6458 39.3873L23.3151 41.3899C23.2614 41.7152 23.7593 41.8549 23.8138 41.5272Z" fill="black"/>
<path d="M128.232 71.462C127.479 71.6928 126.677 71.7047 125.917 71.4966C125.885 71.4875 125.851 71.4851 125.817 71.4893C125.783 71.4935 125.751 71.5043 125.721 71.521C125.661 71.5549 125.618 71.6111 125.599 71.6772C125.581 71.7434 125.59 71.814 125.624 71.8737C125.658 71.9333 125.714 71.9771 125.78 71.9953C126.626 72.2428 127.527 72.2306 128.366 71.96C128.685 71.8602 128.55 71.3608 128.232 71.462Z" fill="#FF4848"/>
<path d="M115.662 57.2017L116.955 57.4112C117.28 57.4641 117.42 56.9661 117.092 56.9124L115.799 56.703C115.476 56.6508 115.334 57.1488 115.662 57.2017Z" fill="#FF4848"/>
<path d="M117.236 60.0889C116.751 60.067 116.27 59.9856 115.805 59.8464C115.772 59.8374 115.738 59.8349 115.704 59.8391C115.67 59.8433 115.638 59.8541 115.608 59.8709C115.579 59.8877 115.553 59.9101 115.532 59.9369C115.511 59.9637 115.496 59.9944 115.487 60.0271C115.478 60.0599 115.475 60.0941 115.479 60.1278C115.484 60.1615 115.494 60.194 115.511 60.2236C115.528 60.2531 115.55 60.279 115.577 60.2999C115.604 60.3207 115.635 60.3361 115.667 60.3451C116.177 60.4965 116.705 60.5829 117.236 60.6022C117.569 60.6198 117.569 60.1027 117.236 60.0889Z" fill="#FF4848"/>
<path d="M116.434 71.9546C115.227 72.7744 114.079 73.6792 113.001 74.6622C112.957 74.7117 112.934 74.7759 112.936 74.8418C112.939 74.9076 112.966 74.9702 113.012 75.0167C113.059 75.0633 113.121 75.0904 113.187 75.0926C113.253 75.0947 113.317 75.0717 113.367 75.0282C114.411 74.0723 115.523 73.194 116.695 72.4003C116.957 72.2231 116.716 71.7651 116.434 71.9546Z" fill="#FC9070"/>
<path d="M110.039 80.3778C109.494 80.9538 109.016 81.5905 108.615 82.2752C108.583 82.3343 108.576 82.4032 108.594 82.4676C108.612 82.5319 108.655 82.5867 108.713 82.6204C108.77 82.6541 108.839 82.664 108.904 82.6482C108.969 82.6323 109.025 82.5919 109.061 82.5353C109.449 81.8955 109.899 81.2952 110.405 80.743C110.63 80.499 110.266 80.133 110.039 80.3778Z" fill="#FC9070"/>
<path d="M85.8138 50.4404C85.6205 50.1734 85.1724 50.4312 85.3681 50.7005L85.9404 51.4916C86.1338 51.7586 86.5819 51.5008 86.3862 51.2307L85.8138 50.4404Z" fill="#FF4848"/>
<path d="M88.0704 48.2048C88.1067 48.2603 88.163 48.2998 88.2276 48.315C88.2921 48.3302 88.3601 48.32 88.4174 48.2864C88.4747 48.2529 88.5169 48.1987 88.5352 48.1349C88.5536 48.0711 88.5468 48.0028 88.5161 47.9439C88.319 47.5986 88.1003 47.2656 87.9023 46.9211C87.8677 46.8619 87.811 46.8189 87.7447 46.8015C87.6784 46.784 87.6078 46.7937 87.5486 46.8283C87.4894 46.8629 87.4464 46.9196 87.429 46.9859C87.4115 47.0523 87.4212 47.1228 87.4558 47.182C87.6591 47.5227 87.8609 47.8664 88.0704 48.2048Z" fill="#FF4848"/>
<path d="M120.644 38.5414C122.075 39.9086 124.355 40.0237 125.325 38.3112C126.571 37.6795 127.909 37.2496 129.289 37.0375C131.354 36.6002 130.702 34.6229 129.34 34.3697C131.614 32.6572 129.613 31.1794 127.531 32.2168C127.556 32.0201 127.525 31.8203 127.441 31.6405C127.357 31.4608 127.224 31.3086 127.057 31.2017C126.757 31.0496 126.424 30.9729 126.087 30.9779C125.75 30.983 125.42 31.0698 125.124 31.2309C123.517 31.842 122.178 33.0009 121.342 34.5032C120.964 34.6596 120.631 34.9091 120.376 35.2285C120.12 35.5479 119.95 35.9269 119.88 36.33C119.81 36.7332 119.844 37.1474 119.978 37.5341C120.111 37.9207 120.341 38.2673 120.644 38.5414ZM126.692 32.958C126.694 33.0269 126.716 33.0938 126.755 33.1507C126.794 33.2075 126.848 33.2519 126.912 33.2784C126.976 33.3049 127.046 33.3125 127.113 33.3001C127.181 33.2878 127.244 33.2561 127.294 33.2089C128.306 32.2782 130.388 32.3887 129.374 33.4022C128.821 33.9331 128.175 34.3574 127.468 34.6536C127.084 34.8178 127.346 35.4347 127.735 35.305L127.777 35.2912C128.376 35.0933 129.196 34.8224 129.69 35.3257C129.772 35.3972 129.834 35.4899 129.867 35.5939C129.9 35.6978 129.905 35.8088 129.879 35.915C129.485 36.6055 128.371 36.136 125.633 37.3728C125.818 35.7002 124.079 34.158 122.334 34.2585C123.226 32.9836 124.546 32.0711 126.054 31.6866C126.188 31.6472 126.332 31.6495 126.465 31.6933C126.599 31.7372 126.716 31.8204 126.801 31.9321C126.894 32.2122 126.739 32.3687 126.692 32.958ZM124.222 38.5168C122.747 39.6255 119.81 37.8969 120.708 36.047C121.6 34.2094 124.333 34.827 124.9 36.7981C124.961 37.1194 124.929 37.4512 124.809 37.7553C124.689 38.0594 124.486 38.3234 124.222 38.5168Z" fill="black"/>
<path d="M47.2054 32.8441C47.2846 33.384 47.5591 33.8761 47.9768 34.2272C48.3945 34.5783 48.9264 34.764 49.4719 34.7492C49.9648 34.7446 50.4462 34.5993 50.8594 34.3305C51.2726 34.0616 51.6004 33.6804 51.8044 33.2316C51.9132 32.9374 51.9397 32.619 51.8811 32.3109C52.008 30.943 52.0352 29.5678 51.9624 28.196C52.0392 26.7751 51.3064 26.4022 49.9384 26.2127C49.3265 26.0901 48.6938 26.1212 48.097 26.3032C47.8325 26.4315 47.6116 26.6346 47.4615 26.8874C47.3115 27.1401 47.239 27.4313 47.253 27.7249C47.1197 29.2543 47.1154 30.7922 47.2399 32.3224C47.2095 32.4945 47.198 32.6695 47.2054 32.8441ZM51.2558 31.0426C51.0387 30.8112 50.7765 30.6268 50.4854 30.5008C50.1943 30.3747 49.8804 30.3097 49.5632 30.3097C49.246 30.3097 48.9321 30.3747 48.641 30.5008C48.3499 30.6268 48.0877 30.8112 47.8706 31.0426C47.8182 29.8948 47.8536 28.7446 47.9765 27.6022C47.9736 27.4792 48.0026 27.3576 48.0607 27.2492C48.1188 27.1409 48.204 27.0494 48.308 26.9838C48.6009 26.8785 48.9133 26.8387 49.2233 26.8671C49.5895 26.8719 49.9539 26.918 50.3097 27.0045C51.0655 27.105 51.3425 27.5224 51.2658 28.4569C51.3069 29.3184 51.3035 30.1814 51.2558 31.0426ZM50.8192 31.6434C51.0528 31.9212 51.1896 32.2676 51.209 32.6301C51.2021 33.4556 50.1471 34.0963 49.3415 34.0418C49.0063 34.0167 48.6876 33.8863 48.4309 33.6693C48.1742 33.4523 47.9926 33.1597 47.912 32.8334C47.79 31.1277 49.9729 30.3835 50.8207 31.6434H50.8192Z" fill="black"/>
<path d="M28.4483 70.0013C29.1143 70.0637 29.7805 69.8845 30.3253 69.4964C30.8702 69.1084 31.2573 68.5373 31.416 67.8875C31.5549 67.3131 31.4995 66.7088 31.2585 66.1692C31.0175 65.6296 30.6045 65.1851 30.0841 64.9051C29.4816 64.6054 28.8004 64.5018 28.1361 64.6089C27.4717 64.7159 26.8575 65.0283 26.3797 65.5021C26.0879 65.9112 25.9092 66.3901 25.8619 66.8904C25.8146 67.3907 25.9002 67.8946 26.1101 68.3512C26.32 68.8077 26.6468 69.2008 27.0573 69.4906C27.4679 69.7803 27.9477 69.9565 28.4483 70.0013ZM27.5559 65.4798C28.9953 64.9282 30.6933 65.5673 30.7646 67.1479C30.79 67.6567 30.6242 68.1567 30.2998 68.5497C29.9754 68.9426 29.5159 69.2001 29.0114 69.2716C28.4523 69.3534 27.8834 69.2121 27.4276 68.878C26.9718 68.544 26.6657 68.044 26.5754 67.4862C26.4955 67.0905 26.5483 66.6795 26.7255 66.3168C26.9028 65.9541 27.1946 65.6599 27.5559 65.4798Z" fill="black"/>
<path d="M53.4633 29.6339C53.5428 29.6763 53.6354 29.6871 53.7225 29.664C53.8096 29.641 53.8848 29.5858 53.9329 29.5096L56.8086 24.6951C56.8559 24.6137 56.869 24.5168 56.8449 24.4258C56.8208 24.3348 56.7615 24.2571 56.6801 24.2098C56.5987 24.1624 56.5018 24.1494 56.4108 24.1735C56.3198 24.1976 56.2421 24.2569 56.1948 24.3383C55.2247 25.936 54.2662 27.5406 53.3191 29.1521C53.2963 29.1931 53.282 29.2382 53.277 29.2848C53.2719 29.3314 53.2763 29.3785 53.2897 29.4234C53.3031 29.4683 53.3254 29.5101 53.3552 29.5462C53.3851 29.5824 53.4218 29.6122 53.4633 29.6339Z" fill="black"/>
<path d="M55.3751 30.0475L58.3191 27.827C58.6804 27.5539 58.3114 26.9485 57.9423 27.227L54.9983 29.4521C54.6354 29.7221 55.0045 30.326 55.3751 30.0475Z" fill="black"/>
<path d="M143.768 89.8642C143.801 89.8306 143.827 89.7907 143.844 89.7471C143.861 89.7034 143.87 89.6566 143.869 89.6096C143.869 89.5626 143.859 89.5161 143.84 89.4729C143.822 89.4297 143.795 89.3906 143.761 89.3578C141.414 87.4236 135.73 82.6335 133.271 79.6458C134.892 78.7249 136.35 77.5413 137.584 76.1432C139.511 73.9258 140.37 70.9258 140.135 67.233C139.696 60.2724 140.129 52.6419 136.289 48.1573C134.135 45.6597 131.192 43.9743 127.948 43.3811C125.326 43.1329 122.681 43.4137 120.17 44.2066C119.471 41.1615 117.852 38.4055 115.531 36.3135C113.211 34.2216 110.302 32.8953 107.201 32.5152C104.1 32.135 100.957 32.7194 98.2003 34.1889C95.4432 35.6584 93.2058 37.9416 91.7925 40.7279C91.5278 41.2496 91.4027 41.5565 90.4452 43.757C90.1091 43.9872 89.7937 44.2834 89.5244 44.5051C88.0498 45.567 86.7172 46.8135 85.5592 48.2141C85.132 48.7966 84.8419 49.4682 84.7105 50.1785C84.5791 50.8889 84.6098 51.6198 84.8004 52.3166C84.9959 53.0061 85.3975 53.6195 85.9513 54.0744L84.5518 57.2862C84.5287 57.3273 84.5139 57.3725 84.5084 57.4193C84.5028 57.4661 84.5065 57.5135 84.5194 57.5589C84.5322 57.6042 84.5539 57.6466 84.5831 57.6836C84.6124 57.7205 84.6487 57.7513 84.6899 57.7742L90.4244 60.2747L89.0633 63.5248C89.037 63.6149 89.0475 63.7117 89.0925 63.794C89.1375 63.8763 89.2134 63.9373 89.3035 63.9637C89.3935 63.99 89.4903 63.9795 89.5726 63.9345C89.6549 63.8895 89.716 63.8136 89.7423 63.7235L91.0705 60.5563L104.465 66.3959L103.068 69.2463C102.866 69.656 103.482 70.0074 103.687 69.5916L105.114 66.676L111.228 69.3414C111.542 71.2033 112.044 73.0285 112.727 74.789C109.563 77.5128 105.478 81.5187 103.859 85.2162C101.965 89.5412 101.068 95.2558 100.858 99.1681C100.859 99.2618 100.897 99.3514 100.963 99.4176C101.03 99.4838 101.119 99.5212 101.213 99.5218H117.599C117.679 99.5203 117.755 99.4928 117.818 99.4434C117.88 99.394 117.924 99.3256 117.943 99.2486C118.319 96.3234 119.243 93.4951 120.665 90.9116C124.056 94.9415 128.368 98.0958 133.235 100.108C133.295 100.125 133.359 100.125 133.419 100.109C133.48 100.093 133.535 100.062 133.58 100.018C136.121 97.5238 142.981 90.6545 143.768 89.8642ZM132.655 80.0256C135.249 83.1307 140.679 87.7282 142.994 89.6417C139.542 93.0944 137.335 95.5121 133.25 99.3553C128.505 97.3592 124.315 94.2435 121.037 90.2747C124.015 85.576 128.229 82.7387 132.655 80.0256ZM101.588 98.8144C101.822 94.8435 102.584 90.9215 103.855 87.152C104.576 85.0535 105.718 82.6297 109.153 79.131C111.475 76.7472 113.98 74.5482 116.644 72.554C116.772 72.4688 116.821 72.4351 116.861 72.356C117.687 71.7284 118.526 71.1173 119.377 70.523C122.356 73.5154 125.976 74.6409 129.319 73.6105C132.247 72.5915 134.661 70.4682 136.044 67.6941H139.45C139.675 70.3602 138.958 73.0207 137.425 75.2133C135.091 78.3645 132.049 79.0903 126.308 83.4998C123.843 85.3071 121.772 87.5979 120.222 90.2323C118.672 92.8668 117.676 95.7895 117.293 98.8221L101.588 98.8144ZM112.654 45.9107C112.483 46.2619 112.204 46.55 111.86 46.734C111.592 46.9067 111.303 47.0422 110.999 47.1368C111.423 46.652 111.873 46.1909 112.347 45.7557C112.694 45.4772 112.73 45.755 112.654 45.9107ZM108.92 45.4688C108.965 43.8115 110.071 43.503 110.058 43.7309C110.058 44.2864 109.338 45.0936 108.92 45.4688ZM106.351 43.0596C106.352 42.6984 106.432 42.3418 106.585 42.0146C106.776 41.6977 107.15 41.8327 107.09 42.0399C106.931 42.4354 106.677 42.7857 106.351 43.0596ZM102.63 40.8406C102.652 40.7928 102.686 40.7513 102.729 40.7201C102.771 40.6889 102.821 40.669 102.873 40.6622C102.925 40.6555 102.978 40.6621 103.028 40.6815C103.077 40.7009 103.12 40.7324 103.153 40.7731C103.435 41.2235 103.354 41.6409 103.063 43.2483C102.771 42.9286 102.576 42.5329 102.499 42.1069C102.422 41.6809 102.468 41.2419 102.63 40.8406ZM103.561 44.4406C103.919 44.5814 104.303 44.6433 104.687 44.622C105.071 44.6006 105.446 44.4967 105.786 44.3171C105.919 45.2677 106.414 46.1303 107.167 46.7256C107.363 46.8238 107.581 46.872 107.8 46.8658C108.02 46.8597 108.234 46.7994 108.424 46.6903C108.612 47.1764 108.973 47.576 109.437 47.812C105.266 52.4484 101.778 57.6567 99.0792 63.2793L96.3938 62.1107C99.9282 56.7528 102.364 50.7468 103.561 44.4406ZM110.241 47.9739C111.276 47.9298 112.253 47.4822 112.962 46.7271C113.661 46.0788 113.439 44.8481 112.557 44.9002C111.97 45.0238 111.706 45.2839 109.941 47.2358C109.72 47.172 109.52 47.0523 109.36 46.8882C109.2 46.7242 109.085 46.5214 109.026 46.2997C109.769 45.7563 110.348 45.0196 110.702 44.1698C110.763 44.0416 110.791 43.9001 110.784 43.7582C110.776 43.6163 110.733 43.4786 110.658 43.3577C110.583 43.2368 110.48 43.1366 110.356 43.0663C110.233 42.9959 110.093 42.9578 109.951 42.9552C109.742 42.9697 109.538 43.0282 109.353 43.127C109.168 43.2258 109.006 43.3626 108.877 43.5284C108.611 43.8725 108.417 44.2671 108.307 44.6883C108.197 45.1095 108.174 45.5485 108.238 45.979C108.062 46.103 107.852 46.1692 107.637 46.1685C107.527 46.1255 107.428 46.0572 107.348 45.969C106.84 45.3965 106.517 44.6842 106.42 43.925C107.07 43.4783 107.556 42.8318 107.805 42.0836C107.917 41.288 107.015 40.9435 106.401 41.2396C106.228 41.3533 106.08 41.5022 105.968 41.6765C105.855 41.8508 105.781 42.0467 105.749 42.2516C105.656 42.6867 105.632 43.1334 105.677 43.5759C105.391 43.7728 105.058 43.8906 104.712 43.9176C104.366 43.9445 104.019 43.8796 103.707 43.7294C103.849 43.0708 103.956 42.4048 104.025 41.7345C104.081 41.1867 103.974 40.2 103.223 39.992C103.011 39.9365 102.787 39.9471 102.582 40.0224C102.376 40.0977 102.198 40.2341 102.072 40.4133C101.45 41.2864 101.689 43.0987 102.916 44.0693C101.754 50.4139 99.313 56.4555 95.7408 61.8261C94.7863 61.4072 86.3434 57.7036 85.3267 57.2724L86.4999 54.58C86.6807 54.8161 86.9217 54.9992 87.1976 55.1101C87.4736 55.2209 87.7743 55.2554 88.0682 55.21C88.236 55.17 88.3941 55.0969 88.5334 54.9951C88.6726 54.8932 88.7902 54.7647 88.8792 54.6169C89.295 53.9263 88.8469 53.2059 88.4518 52.5683C88.3232 52.359 88.1896 52.1528 88.0513 51.9499C88.9436 52.5637 89.4799 53.1399 90.1996 53.2089C90.8955 53.2757 91.2677 52.5591 91.1403 51.8977C90.9984 51.1626 90.373 50.7253 89.4822 49.3181C90.1051 49.9356 90.8764 50.3824 91.7219 50.6156C92.9395 50.7974 94.2439 49.1256 91.8822 48.0583C91.2446 47.7698 90.4743 47.3816 90.9224 46.8499C91.1925 46.588 91.4886 46.3546 91.8063 46.1532C93.4175 45.0023 92.7017 43.2077 91.3889 43.3672C91.3889 43.3672 91.8715 42.2616 92.0388 41.8757C93.4536 38.5872 96.0353 35.9386 99.2865 34.4402C102.538 32.9418 106.229 32.6996 109.648 33.7603C113.067 34.8209 115.973 37.1094 117.805 40.1849C119.637 43.2603 120.267 46.905 119.572 50.4169C119.355 50.3393 119.122 50.3197 118.896 50.3601C118.669 50.4004 118.457 50.4994 118.281 50.647C117.673 51.3307 117.612 52.0036 117.193 54.6169C116.134 54.1135 114.981 53.8407 113.809 53.8166C113.218 53.8005 112.468 53.7023 112.006 54.1404C111.828 54.3123 111.706 54.5345 111.658 54.7773C111.609 55.0201 111.635 55.2719 111.734 55.4992C112.012 56.1483 112.654 56.2082 114.279 56.8389C112.744 56.8726 111.947 56.5251 110.81 56.9823C110.595 57.0475 110.402 57.169 110.25 57.334C110.099 57.499 109.994 57.7017 109.947 57.9209C109.9 58.1402 109.913 58.368 109.983 58.5807C110.054 58.7934 110.181 58.9833 110.35 59.1307C110.72 59.3813 111.149 59.5308 111.595 59.5642C112.331 59.6888 113.074 59.7684 113.82 59.8028C112.387 60.033 111.33 60.1289 110.615 60.7872C110.445 61.0027 110.354 61.27 110.357 61.5446C110.36 61.8191 110.458 62.0842 110.633 62.2957C111.131 62.8995 111.937 62.8327 112.671 62.845C112.963 62.8506 113.251 62.9146 113.519 63.0332C113.786 63.1517 114.027 63.3226 114.227 63.5356C114.227 63.5356 112.169 68.2159 111.896 68.8742L99.7283 63.5693C102.453 57.8857 105.994 52.6316 110.241 47.9739ZM85.3421 50.8304L85.8623 51.5478C86.1255 51.9138 86.737 51.5524 86.4638 51.1749L85.8907 50.3839C85.8372 50.3097 85.758 50.258 85.6685 50.2389C85.5791 50.2197 85.4857 50.2345 85.4065 50.2803C85.7246 49.085 86.417 48.023 87.3822 47.2496C87.3822 47.2496 87.8503 48.033 87.9876 48.2555C88.0112 48.2958 88.0425 48.3311 88.0797 48.3593C88.1169 48.3875 88.1593 48.4081 88.2045 48.4199C88.2496 48.4317 88.2967 48.4346 88.3429 48.4282C88.3892 48.4218 88.4338 48.4064 88.4741 48.3828C88.5144 48.3593 88.5496 48.328 88.5778 48.2908C88.6061 48.2536 88.6267 48.2112 88.6385 48.166C88.6503 48.1208 88.6531 48.0738 88.6468 48.0275C88.6404 47.9813 88.625 47.9367 88.6014 47.8964C88.4027 47.5473 88.1894 47.2227 87.9876 46.8729C87.9659 46.8358 87.9375 46.803 87.904 46.7762C88.5738 46.1946 90.5695 44.5266 91.0007 44.2511C91.1411 44.1614 91.6206 43.8967 91.9076 44.2304C91.9868 44.342 92.0306 44.4749 92.0334 44.6117C92.0361 44.7485 91.9976 44.883 91.9229 44.9977C91.5938 45.6046 90.8649 45.8417 90.3991 46.3703C90.2746 46.5082 90.1838 46.6731 90.134 46.8521C90.0842 47.0311 90.0767 47.2192 90.1122 47.4015C90.4835 48.6828 91.992 48.488 92.4224 49.2997C92.4583 49.3565 92.4764 49.4226 92.4745 49.4897C92.4726 49.5568 92.4507 49.6219 92.4117 49.6765C92.3411 49.7618 92.2503 49.8282 92.1475 49.8695C92.0447 49.9107 91.9332 49.9256 91.8232 49.9128C90.8188 49.6757 90.34 49.0465 89.5605 48.4795C89.4243 48.3798 89.2543 48.3376 89.0873 48.362C88.9202 48.3864 88.7694 48.4755 88.6674 48.61C88.4334 48.9253 88.6344 49.2637 88.7948 49.536C89.7692 51.1903 90.7252 51.7765 90.4336 52.3749C90.2802 52.6857 89.7531 52.302 89.47 52.0949C89.229 51.9192 89.2874 51.9713 88.7533 51.5739C88.2193 51.1765 87.9638 50.9869 87.6193 51.0821C87.4573 51.1273 87.3197 51.2346 87.2363 51.3807C87.153 51.5268 87.1307 51.6999 87.1743 51.8624C87.2549 52.154 87.8342 52.7141 88.2485 53.6992C88.3008 53.7877 88.3288 53.8885 88.3296 53.9913C88.3304 54.0941 88.304 54.1953 88.2531 54.2846C88.1734 54.3989 88.0551 54.4804 87.9199 54.5141C87.7848 54.5478 87.642 54.5314 87.518 54.468C87.2267 54.2827 86.9605 54.0604 86.7262 53.8066C86.431 53.5748 86.1626 53.3108 85.926 53.0194C85.5143 52.3657 85.3107 51.6024 85.3421 50.8304ZM119.811 55.1762C120.407 56.6444 121.167 58.0403 122.078 59.3371C122.643 60.1627 124.627 62.8297 126.499 62.4921C128.125 62.1982 128.786 59.5703 128.954 58.7655C129.05 58.1022 129.241 57.4562 129.521 56.8473C130.057 55.8581 130.963 55.1219 132.041 54.8002C133.119 54.4786 134.281 54.5978 135.271 55.1317C135.912 55.4703 136.454 55.9701 136.842 56.5819C137.231 57.1938 137.454 57.8964 137.488 58.6205C137.495 59.3314 137.44 60.0416 137.322 60.7427C137.095 62.978 136.487 65.1579 135.524 67.1877C133.913 70.4371 130.581 73.2791 126.854 73.2791C121.581 73.2791 118.031 68.2703 115.809 64.4908C115.074 63.2394 114.176 62.1376 112.723 62.1376C112.179 62.1376 111.431 62.2389 111.15 61.7969C110.727 61.1317 111.776 60.8762 112.558 60.7266C114.255 60.399 115.076 60.5309 115.072 59.7944C115.072 59.1407 114.175 59.1 113.695 59.077C112.777 59.0512 111.866 58.9205 110.978 58.6872C110.874 58.6502 110.785 58.5827 110.72 58.4937C110.656 58.4047 110.62 58.2983 110.617 58.1885C110.637 57.7987 111.131 57.6054 111.276 57.5578C111.86 57.4275 112.464 57.409 113.055 57.5033C113.583 57.5756 114.117 57.58 114.646 57.5164C114.785 57.476 114.907 57.3925 114.994 57.278C115.082 57.1635 115.13 57.024 115.133 56.8799C115.136 56.7357 115.092 56.5945 115.009 56.4768C114.926 56.3592 114.807 56.2712 114.67 56.2258C114.312 56.0854 113.004 55.6043 112.706 55.49C112.597 55.4609 112.501 55.3946 112.436 55.3024C112.37 55.2103 112.339 55.0982 112.348 54.9855C112.356 54.8729 112.404 54.7667 112.483 54.6855C112.561 54.6043 112.666 54.5532 112.778 54.5409C114.339 54.4098 115.905 54.7372 117.283 55.4831C117.323 55.507 117.368 55.5226 117.414 55.529C117.461 55.5354 117.508 55.5324 117.554 55.5204C117.599 55.5083 117.642 55.4873 117.679 55.4587C117.716 55.43 117.747 55.3943 117.771 55.3534C117.857 55.0237 117.918 54.6876 117.952 54.3483C118.03 53.348 118.245 52.3631 118.591 51.4212C118.631 51.2935 118.718 51.1857 118.835 51.1197C118.952 51.0536 119.089 51.0342 119.219 51.0652C119.285 51.0649 119.349 51.0775 119.41 51.1023C119.47 51.1271 119.525 51.1636 119.572 51.2097C119.618 51.2559 119.655 51.3107 119.68 51.3711C119.705 51.4314 119.719 51.4962 119.719 51.5616C119.714 53.3785 119.416 53.6064 119.811 55.1762ZM113.538 66.8755L114.731 64.1394C115.107 64.665 115.595 65.5657 116.471 66.8839C115.901 66.8831 114.138 66.8793 113.538 66.8755ZM112.392 69.5026L113.224 67.5929H116.956C117.541 68.4407 118.184 69.2469 118.88 70.0059C117.316 71.1092 114.572 73.1478 113.283 74.2842C112.718 72.7909 112.288 71.2503 111.998 69.6806C112.074 69.6974 112.153 69.6892 112.224 69.6571C112.295 69.625 112.354 69.5708 112.392 69.5026ZM136.436 66.8839C137.337 64.763 137.895 62.5124 138.089 60.2164C138.374 58.9378 138.191 57.5995 137.573 56.4445C137.115 55.6279 136.434 54.958 135.611 54.5124C134.787 54.0669 133.854 53.864 132.92 53.9273C131.986 53.9906 131.089 54.3175 130.333 54.87C129.577 55.4226 128.993 56.1782 128.65 57.0491C128.053 58.9918 128.244 59.4506 127.439 60.8731C127.258 61.2056 126.993 61.4853 126.672 61.6849C126.12 62.0102 125.278 61.6197 124.818 61.2691C124.026 60.6553 123.336 59.9195 122.775 59.0893C122.201 58.2686 121.676 57.4147 121.202 56.532C120.906 56.0096 120.661 55.4591 120.473 54.8885C120.089 53.2327 120.537 52.9251 120.403 51.3759C120.375 51.1916 120.304 51.0162 120.197 50.8634C120.63 48.9049 120.671 46.88 120.317 44.9056C121.673 44.4998 123.064 44.2214 124.471 44.0739C125.887 43.8833 127.324 43.9389 128.721 44.2381C132.082 45.0714 134.989 47.1771 136.828 50.1115C139.293 54.2777 139.086 61.5691 139.411 66.8839H136.436Z" fill="black"/>
<path d="M97.0954 83.5551C97.1041 83.4872 97.0949 83.4183 97.0688 83.355C97.0427 83.2918 97.0006 83.2365 96.9466 83.1945C96.8522 83.1231 76.3839 70.474 76.1952 70.362C76.1408 70.3294 76.0786 70.3122 76.0152 70.3122C75.9518 70.3122 75.8897 70.3294 75.8353 70.362L64.8419 77.0487C64.8964 71.5244 65.1212 56.0985 63.9926 50.7983C63.7056 49.3563 63.1123 47.9929 62.2526 46.8002C61.393 45.6075 60.2871 44.6134 59.01 43.8852C55.9002 42.0768 51.6036 41.4054 46.2373 41.8903C43.1625 42.1052 40.2425 43.3205 37.9232 45.3507C35.7219 47.4223 32.1787 46.4394 31.7352 44.2704C31.2964 42.1289 32.56 38.8872 34.1084 38.1852C34.5173 37.9995 34.7514 38.3724 34.9639 38.7637C35.603 39.9369 36.4478 41.0363 37.5664 40.2982C39.1562 39.2517 36.9572 37.0542 37.8089 36.1381C38.197 35.7941 38.7051 35.6169 39.223 35.6448C41.1626 35.6103 42.1493 36.4635 43.2442 36.445C44.3368 36.4926 45.2299 35.3655 44.5363 34.4908C44.226 34.1046 43.8284 33.7977 43.3762 33.5954C42.6824 33.274 41.948 33.0489 41.1933 32.9264C41.026 32.9095 40.746 32.8803 40.7422 32.7507C40.7337 32.5159 41.0191 32.6379 42.4931 32.7706C42.9499 32.8399 43.4126 32.8633 43.8741 32.8404C44.0589 32.8408 44.2413 32.7986 44.4072 32.7171C44.5731 32.6357 44.718 32.5172 44.8308 32.3708C44.9435 32.2243 45.0211 32.0539 45.0574 31.8727C45.0938 31.6916 45.0879 31.5044 45.0404 31.3258C44.8797 30.9918 44.6189 30.7162 44.2941 30.5374C43.9694 30.3586 43.597 30.2856 43.2289 30.3284C42.4445 30.2583 41.6674 30.1228 40.9056 29.9233C41.8823 29.7246 42.4785 30.0698 43.5757 29.8305C43.8118 29.7461 44.0054 29.5723 44.1146 29.3465C44.2239 29.1207 44.24 28.8611 44.1595 28.6235C43.878 27.7903 42.5936 27.3192 40.2327 27.1811C37.8676 26.9954 35.4887 27.2639 33.2245 27.9721C22.8426 31.2714 19.0431 44.522 23.6337 51.3484C25.9447 54.7873 29.7081 56.9901 34.5212 57.7228C34.4334 62.4662 34.3513 67.2097 34.2749 71.9533C33.8956 71.7812 33.5074 71.6298 33.1117 71.4998C33.1731 68.4208 33.5398 65.6763 32.0375 63.8993C30.3657 61.9267 27.2145 62.2926 25.3953 64.0865C23.6467 65.809 23.0268 67.8707 22.2027 70.3451C21.968 71.0533 21.7815 71.6118 21.6864 71.7906C20.3654 73.8455 18.438 75.4388 16.1713 76.3497C14.837 76.876 13.3899 77.1484 12.1876 78.0323C11.0621 78.8599 10.2469 80.0415 9.8728 81.3876C9.68569 82.0382 9.69511 82.7297 9.89989 83.375C10.1047 84.0203 10.4957 84.5907 11.0237 85.0144C9.8495 85.4528 8.87629 86.3056 8.28763 87.4121C7.29019 89.4976 8.47715 91.4234 10.1575 91.6536C9.62756 92.2537 9.23179 92.9599 8.99659 93.7252C8.85388 94.1936 8.83887 94.6916 8.95312 95.1678C9.06737 95.644 9.30674 96.081 9.64646 96.4336C9.99251 96.7177 10.3991 96.9187 10.835 97.0212C11.2709 97.1236 11.7244 97.1247 12.1608 97.0244C12.2375 97.0114 12.2137 96.416 9.87357 110.017C8.69998 109.805 7.49211 109.889 6.35873 110.26C4.28712 110.986 4.37689 112.997 5.68967 113.441C6.31653 113.61 6.37484 113.565 9.24364 113.623C8.69428 116.096 8.07663 116.743 8.59914 117.602C8.78371 117.901 9.0728 118.122 9.41059 118.221C9.74839 118.321 10.1109 118.291 10.4283 118.139C11.438 117.538 13.4974 115.242 14.7603 114.284C15.0604 114.028 15.4029 113.827 15.7723 113.689C15.8836 113.646 16.0046 113.636 16.1215 113.659C16.2384 113.682 16.3464 113.738 16.4329 113.82C16.97 114.52 17.3038 116.275 17.9674 117.55C18.086 117.822 18.2982 118.043 18.5657 118.172C18.8331 118.302 19.1381 118.331 19.4252 118.255C19.7527 118.147 20.0483 117.96 20.2854 117.71C20.5225 117.459 20.6936 117.154 20.7833 116.821C21.0557 115.824 21.1539 114.244 21.5252 113.847C22.0114 113.58 22.5719 113.48 23.1204 113.563L27.8007 113.702C28.1542 113.714 28.5031 113.62 28.8038 113.434C29.1044 113.248 29.3434 112.977 29.4909 112.656C29.6383 112.334 29.6877 111.976 29.6327 111.627C29.5777 111.278 29.4208 110.952 29.1818 110.692C28.9838 110.46 28.7384 110.273 28.4622 110.145C28.186 110.016 27.8853 109.948 27.5805 109.945C26.8378 109.945 24.8183 109.896 24.8183 109.896C24.8007 109.169 24.79 108.398 24.7846 107.486H54.6066V109.021C54.5697 109.243 54.5807 109.471 54.6389 109.689C54.6389 109.793 54.0649 109.366 75.5261 124.336C75.581 124.369 75.644 124.387 75.7083 124.387C75.7726 124.387 75.8357 124.369 75.8905 124.336C75.8905 124.336 96.5077 110.152 96.9688 109.823C97.1637 109.787 97.0954 111.15 97.0954 83.5551ZM9.20912 116.424C9.54066 115.39 9.81121 114.338 10.0193 113.272C10.0185 113.179 9.98121 113.09 9.91536 113.024C9.84951 112.958 9.7604 112.92 9.66717 112.919C8.99965 112.908 6.79147 112.872 6.36794 112.847C6.22002 112.855 6.07213 112.83 5.93504 112.774C5.79794 112.718 5.67507 112.632 5.57535 112.522C5.48127 112.353 5.44484 112.158 5.47156 111.966C5.49827 111.774 5.58668 111.596 5.72343 111.459C5.98438 111.19 6.31264 110.996 6.67408 110.897C7.09733 110.759 7.53499 110.671 7.97842 110.633C8.70734 110.624 9.43609 110.663 10.1598 110.751C10.2388 110.75 10.3154 110.724 10.3776 110.675C10.4399 110.626 10.4841 110.558 10.5035 110.481C10.8871 108.232 13.9032 90.4328 14.8171 88.3413C15.0646 87.7739 15.4235 87.2619 15.8723 86.8356C16.3212 86.4093 16.851 86.0772 17.4304 85.8592C18.1534 85.5815 18.933 85.4828 19.7025 85.5717C20.4719 85.6606 21.2085 85.9343 21.8492 86.3696C22.49 86.8048 23.0159 87.3887 23.382 88.0712C23.7482 88.7538 23.9438 89.5148 23.9521 90.2894L24.1155 110.266C24.1165 110.36 24.1549 110.45 24.2222 110.516C24.2896 110.582 24.3803 110.619 24.4746 110.618C24.9703 110.592 26.8531 110.663 27.5774 110.652C27.902 110.653 28.2161 110.767 28.4666 110.973C28.7171 111.179 28.8887 111.466 28.9524 111.784C28.9743 112.082 28.877 112.377 28.6817 112.603C28.4865 112.83 28.2093 112.969 27.9112 112.991C27.7708 112.998 23.679 112.878 23.3022 112.858C22.7981 112.825 22.2918 112.857 21.7961 112.954C21.4486 113.027 21.1344 113.211 20.9015 113.479C20.7761 113.667 20.6823 113.875 20.6237 114.093C20.1311 115.921 20.3575 116.305 19.868 117.093C19.7778 117.234 19.6561 117.353 19.5124 117.439C19.3688 117.525 19.2071 117.577 19.0401 117.59C18.9674 117.587 18.8969 117.564 18.8354 117.525C18.774 117.486 18.7237 117.432 18.6894 117.368C18.2995 116.679 18.0003 115.943 17.7994 115.178C17.6428 114.447 17.3033 113.768 16.8127 113.204L16.8043 113.198C15.2782 112.004 13.0784 115.013 10.538 117.174C10.3444 117.402 10.0686 117.544 9.77076 117.569C9.64451 117.554 9.52388 117.509 9.41999 117.436C9.31611 117.362 9.23233 117.264 9.17637 117.15C9.1204 117.036 9.09407 116.91 9.0998 116.783C9.10552 116.656 9.14312 116.532 9.20912 116.424ZM9.89198 93.3216C10.25 92.6492 10.7047 92.0329 11.2416 91.4924C11.2946 91.4361 11.328 91.3641 11.3365 91.2872C11.345 91.2103 11.3284 91.1327 11.289 91.0661C11.2496 90.9995 11.1896 90.9476 11.1181 90.918C11.0466 90.8885 10.9674 90.883 10.8925 90.9024C10.65 90.957 10.399 90.9622 10.1545 90.9176C9.91002 90.8731 9.67699 90.7798 9.46933 90.6432C9.26167 90.5067 9.08364 90.3297 8.94587 90.1228C8.8081 89.916 8.7134 89.6835 8.66743 89.4392C8.58909 88.8517 8.67695 88.2539 8.92106 87.7138C9.16516 87.1736 9.55575 86.7127 10.0485 86.3832C10.6237 85.954 11.2655 85.6222 11.9483 85.4011C12.0206 85.3783 12.0838 85.333 12.1287 85.2718C12.1736 85.2106 12.1978 85.1367 12.1978 85.0608C12.1978 84.985 12.1736 84.911 12.1287 84.8498C12.0838 84.7887 12.0206 84.7434 11.9483 84.7206C11.4262 84.4985 10.996 84.1044 10.7292 83.6038C10.4625 83.1032 10.3752 82.5263 10.482 81.9692C10.6896 80.694 11.3756 79.546 12.4002 78.7589C13.4951 77.885 14.814 77.6003 16.1222 77.1231C18.446 76.266 20.4597 74.7323 21.9035 72.7198C22.27 72.2733 22.5322 71.7506 22.6708 71.1898C23.6736 68.1315 24.6825 64.5553 27.6626 63.5111C28.1717 63.3212 28.716 63.2439 29.2579 63.2845C29.7998 63.3252 30.3264 63.4828 30.8015 63.7466C31.27 64.0818 31.6575 64.5177 31.9355 65.0222C32.2135 65.5267 32.375 66.0871 32.4081 66.6622C32.5068 68.2052 32.5068 69.7528 32.4081 71.2957C30.9735 70.927 29.4837 70.823 28.0117 70.9888C18.9979 71.9863 15.3626 81.1581 13.9032 88.6666C13.881 88.7433 12.6756 94.4978 12.3257 96.2763C11.7516 96.4485 11.1363 96.4237 10.5779 96.2057C9.47919 95.7615 9.36257 94.3444 9.88891 93.3216H9.89198ZM40.1222 30.1588C40.2258 30.5095 40.6593 30.6146 40.9509 30.6836C42.8782 31.144 44.0099 30.9138 44.3406 31.467C44.3702 31.5133 44.3895 31.5655 44.3971 31.6199C44.4048 31.6743 44.4007 31.7297 44.3851 31.7824C44.3217 31.8983 44.2268 31.994 44.1115 32.0584C43.9961 32.1229 43.8649 32.1535 43.733 32.1468C42.7079 32.1154 41.0774 31.9166 41.0092 31.9059C40.8576 31.8875 40.704 31.9097 40.5639 31.9703C40.4238 32.0309 40.3023 32.1276 40.2119 32.2506C40.1215 32.3735 40.0654 32.5183 40.0493 32.6701C40.0333 32.8219 40.0579 32.9752 40.1207 33.1143C40.2015 33.2502 40.3144 33.3643 40.4495 33.4464C40.5846 33.5285 40.7378 33.5763 40.8956 33.5854C41.8683 33.7029 42.8017 34.0395 43.6255 34.5698C43.739 34.6397 43.8376 34.7314 43.9155 34.8395C43.9935 34.9476 44.0493 35.07 44.0798 35.1998C44.0632 35.318 44.0056 35.4266 43.9171 35.5067C43.2434 36.0975 42.1094 35.4438 41.303 35.2189C40.0194 34.8614 38.1956 34.7018 37.2872 35.6747C37.1481 35.8216 37.0412 35.9959 36.9732 36.1863C36.9052 36.3768 36.8775 36.5794 36.892 36.7811C36.9639 37.3541 37.1059 37.9161 37.3148 38.4545C37.4253 38.8074 37.578 39.2893 37.3547 39.5686C37.2945 39.6488 37.2159 39.7136 37.1256 39.7573C37.0352 39.801 36.9357 39.8225 36.8354 39.8199C36.7351 39.8174 36.6368 39.7909 36.5488 39.7426C36.4609 39.6943 36.3857 39.6257 36.3296 39.5425C35.3905 38.4016 35.5217 37.8545 34.6823 37.4954C34.4635 37.4382 34.2343 37.4337 34.0134 37.4822C33.7925 37.5308 33.5863 37.631 33.4117 37.7747C32.7124 38.3431 32.1383 39.0502 31.7255 39.8513C31.3127 40.6524 31.0702 41.5303 31.0132 42.4297H22.5634C22.9285 39.5524 23.9855 36.8066 25.6439 34.4271C29.112 29.4484 35.1028 27.0614 41.6713 28.0496C42.0488 28.1044 42.4198 28.1975 42.7785 28.3274C43.0716 28.4164 43.6094 28.7333 43.4874 29.0179C43.4452 29.1131 43.3248 29.1714 43.1468 29.1913C42.1493 29.2834 41.679 29.031 40.6739 29.268C40.4827 29.3135 40.3172 29.4326 40.2133 29.5994C40.1094 29.7662 40.0756 29.9672 40.1191 30.1588H40.1222ZM22.4828 43.1402H30.9457C30.6173 46.9911 35.5854 48.511 38.3882 45.8862C40.9516 43.4832 44.6168 42.3568 49.5826 42.455C55.6179 42.5686 59.4803 44.1108 61.7391 47.3087C62.5043 48.4126 63.0366 49.6607 63.3036 50.977C63.6944 53.0917 63.9143 55.2345 63.9611 57.3845C64.1606 63.0661 64.2427 66.9062 64.1268 77.4868C58.1345 81.1313 54.7946 83.1461 54.7171 83.2213C54.5468 83.3556 54.6051 83.0986 54.6051 93.7413L45.424 93.7022C45.3365 93.472 45.157 93.0592 45.0818 92.862C45.2583 92.4277 44.2378 87.518 44.122 87.0001C46.9232 84.4405 49.1241 81.2933 50.567 77.7837C52.9822 71.9982 53.8984 65.6968 53.2309 59.463C53.1527 58.8822 53.0143 58.3111 52.8181 57.7589C52.6645 57.1805 52.3799 56.6453 51.9864 56.1944C51.8168 55.9831 51.601 55.8134 51.3557 55.6982C51.1104 55.583 50.842 55.5255 50.571 55.5299C50.3001 55.5344 50.0337 55.6007 49.7923 55.7238C49.5509 55.847 49.3409 56.0237 49.1782 56.2405C48.6234 55.6724 47.8813 55.3249 47.0897 55.2625C46.2981 55.2002 45.5108 55.4271 44.8739 55.9013C44.7672 54.6469 44.5263 52.4801 44.3138 51.3445C44.3038 50.9925 44.164 50.6566 43.9213 50.4013C43.6787 50.1461 43.3502 49.9895 42.9991 49.9617C42.6481 49.934 42.2991 50.0369 42.0193 50.2508C41.7395 50.4647 41.5486 50.7744 41.4833 51.1205C41.4342 51.9133 41.4491 52.7087 41.5278 53.499C41.9644 65.3103 41.6414 62.8965 41.6445 66.4343C41.6445 70.0405 41.0698 72.8402 38.2562 74.7975C37.3024 73.7977 36.1958 72.9557 34.9777 72.3032C35.0007 70.7863 35.2332 57.5279 35.234 57.4259C35.2342 57.3482 35.2089 57.2726 35.1619 57.2107C35.1148 57.1489 35.0488 57.1042 34.9739 57.0837H34.96C32.1488 56.7388 29.4684 55.6962 27.1631 54.0507C23.6935 51.5602 22.0355 47.6893 22.4828 43.1402ZM37.7751 99.5502C37.9493 99.1229 37.2703 98.9203 37.0992 99.3408C36.1034 101.789 35.1868 104.268 34.3508 106.776C34.1912 106.788 28.2956 106.776 24.7754 106.776C24.7708 105.778 24.7501 102.526 24.7439 101.658C25.4732 99.7246 26.3955 97.8697 27.4969 96.1213C28.7384 93.9023 30.2958 91.8755 32.1204 90.1045C36.7033 85.7709 42.1048 87.2403 44.0422 92.1139C45.8836 96.7436 46.7214 100.266 45.5713 104.57C45.4117 105.166 45.0764 106.405 44.9836 106.776H35.0997C35.9148 104.339 36.8076 101.93 37.7767 99.5502H37.7751ZM52.3217 60.7052C52.2476 60.8618 52.1316 60.9949 51.9866 61.0896C51.8416 61.1844 51.6732 61.2373 51.5 61.2423C50.4841 61.1809 50.2516 60.1389 50.0345 59.6103C50.0698 58.6863 49.9399 57.7633 49.6509 56.885C49.7044 56.6931 49.8208 56.5246 49.9812 56.4066C50.1417 56.2885 50.3371 56.2276 50.5363 56.2336C50.776 56.2542 51.0073 56.3319 51.2109 56.4601C51.4144 56.5884 51.5843 56.7636 51.7064 56.9709C51.9297 57.3503 52.0993 57.7588 52.2105 58.1847C52.3572 58.6083 52.4623 59.0451 52.5243 59.4891C52.5729 59.9054 52.5027 60.3271 52.3217 60.7052ZM42.3757 65.8413C42.535 61.9924 42.4956 58.1379 42.2575 54.2931C42.2 52.9596 42.1547 51.9062 42.1624 51.4006C42.1731 50.654 43.3478 50.3341 43.5434 51.1389C43.7147 51.8907 43.8339 52.6534 43.9002 53.4215C43.9639 54.0492 44.1933 55.9619 44.2225 56.644C44.225 56.7135 44.2476 56.7807 44.2878 56.8375C44.3279 56.8943 44.3837 56.9381 44.4483 56.9637C44.5129 56.9893 44.5836 56.9954 44.6517 56.9815C44.7198 56.9675 44.7823 56.9339 44.8317 56.885C45.0899 56.581 45.4143 56.3401 45.7799 56.1806C46.1455 56.0211 46.5428 55.9473 46.9413 55.9649C47.3398 55.9824 47.729 56.0908 48.0792 56.2818C48.4294 56.4728 48.7313 56.7413 48.9619 57.0668C49.1231 57.5322 49.2314 58.0143 49.2849 58.5039C49.3953 59.1453 49.3546 59.8037 49.166 60.4267C49.096 60.661 48.9384 60.8594 48.7259 60.9805C48.5133 61.1015 48.2623 61.1359 48.025 61.0765C46.5672 60.6062 47.2255 58.9113 46.6071 57.6016C46.4099 57.1834 45.7954 57.5325 45.9872 57.9446C46.0201 58.0145 46.049 58.0862 46.0739 58.1594C45.7161 57.9168 45.2788 57.8207 44.8523 57.8909C44.4258 57.9612 44.0424 58.1924 43.7813 58.5369C43.0455 59.5811 43.0048 60.8057 42.8759 62.163C42.8322 62.6233 43.5396 62.6341 43.5833 62.1814C43.5828 61.1553 43.7903 60.1397 44.1933 59.196C44.2729 59.0235 44.3975 58.8757 44.5541 58.7681C44.7107 58.6605 44.8934 58.5972 45.083 58.5848C45.2725 58.5724 45.4619 58.6113 45.6312 58.6976C45.8005 58.7838 45.9433 58.9141 46.0447 59.0747C46.6409 60.1896 45.8828 61.7034 46.5918 63.1412C46.7982 63.5602 47.4089 63.198 47.2125 62.8021C47.0121 62.3075 46.9258 61.7741 46.9601 61.2415C47.1444 61.4537 47.3789 61.6164 47.6423 61.7147C47.9056 61.8131 48.1894 61.8439 48.4677 61.8043C48.746 61.7648 49.01 61.6562 49.2356 61.4885C49.4611 61.3208 49.6411 61.0992 49.759 60.8441C49.9464 61.1636 50.21 61.4318 50.5262 61.6247C50.8424 61.8176 51.2015 61.9293 51.5713 61.9497C51.9992 61.9229 52.3997 61.7302 52.6877 61.4126C53.2248 71.1569 49.8097 80.8451 43.9332 86.2213C42.8099 81.6177 41.1542 78.1451 38.7312 75.317C42.2452 72.8456 42.3143 69.1259 42.3757 65.8413ZM31.3271 89.8351C28.7797 92.2996 26.224 96.5019 24.7286 99.729C24.7232 99.0868 24.6519 91.4656 24.6611 90.8786C24.696 89.9952 24.56 89.1133 24.2605 88.2814C23.9128 87.4108 23.3474 86.6441 22.6183 86.0548C21.8892 85.4654 21.021 85.0732 20.0968 84.9157C19.1727 84.7582 18.2236 84.8407 17.3404 85.1553C16.4573 85.4699 15.6698 86.0061 15.0534 86.7124C16.3393 81.33 19.6915 72.6553 27.9918 71.7008C29.9898 71.4517 32.0181 71.7432 33.8652 72.5448C40.3708 75.3914 43.0225 83.8651 44.0982 90.6722C41 85.6658 35.6398 85.662 31.3271 89.8351ZM45.7516 94.4886L45.7447 94.471H54.6059V106.775H45.7309C47.3521 102.445 47.3552 98.9878 45.7493 94.4886H45.7516ZM55.6562 83.4692C67.2542 76.4149 75.9496 71.1369 76.0225 71.0886C77.1228 71.7691 94.3601 82.4326 96.0481 83.4807C94.1921 84.5947 76.9547 94.9451 75.8468 95.6303C75.846 95.6303 57.2 84.386 55.6539 83.4692H55.6562ZM55.3171 84.1037L75.6734 96.3515C75.7277 96.3839 75.7897 96.401 75.8529 96.401C75.9162 96.401 75.9782 96.3839 76.0325 96.3515C76.1721 96.2687 94.4131 85.3129 96.3895 84.1091V109.364C95.1236 110.232 76.8926 122.751 75.7018 123.591C75.7018 123.591 56.1028 109.897 55.3171 109.361V84.1037Z" fill="black"/>
<path d="M118.403 103.133C115.52 101.769 112.37 101.06 109.181 101.057C105.991 101.055 102.841 101.758 99.9555 103.117C99.8819 103.149 99.8213 103.205 99.7836 103.276C99.746 103.347 99.7334 103.428 99.748 103.507C99.7626 103.586 99.8035 103.658 99.864 103.711C99.9245 103.763 100.001 103.794 100.081 103.798H118.232C118.31 103.796 118.385 103.769 118.446 103.721C118.507 103.673 118.55 103.606 118.57 103.53C118.589 103.455 118.583 103.375 118.553 103.304C118.523 103.232 118.47 103.172 118.403 103.133ZM116.465 103.089H101.767C106.509 101.331 111.723 101.331 116.465 103.089Z" fill="black"/>
<path d="M147.146 90.607C143.74 94.0198 142.982 95.6096 140.854 97.7295C139.059 99.5446 136.886 100.942 134.49 101.823C134.409 101.839 134.336 101.882 134.282 101.945C134.228 102.008 134.198 102.088 134.195 102.17C134.193 102.253 134.219 102.334 134.268 102.401C134.318 102.467 134.389 102.514 134.469 102.535C137.096 103.562 140.976 102.643 143.806 98.4684C145.354 96.1255 146.661 93.632 147.708 91.0259C147.747 90.9511 147.758 90.8649 147.739 90.7827C147.72 90.7005 147.673 90.6277 147.605 90.5773C147.537 90.5269 147.454 90.5022 147.37 90.5077C147.286 90.5131 147.206 90.5483 147.146 90.607ZM146.259 92.5797C145.49 94.269 144.608 95.9051 143.621 97.4771C142.142 99.8441 140.471 101.26 138.36 101.932C137.486 102.21 136.559 102.276 135.654 102.124C140.958 99.8119 142.867 96.3178 146.259 92.5797Z" fill="black"/>
<path d="M88.1759 31.4701C91.5219 34.1555 91.3117 34.0312 91.492 34.0312C91.5637 34.0373 91.6354 34.0206 91.6971 33.9836C91.7588 33.9466 91.8073 33.8911 91.8358 33.825C91.8642 33.7589 91.8711 33.6855 91.8555 33.6153C91.84 33.545 91.8027 33.4814 91.749 33.4335L88.6608 30.9553C88.3063 30.6699 87.8152 31.1809 88.1759 31.4701Z" fill="black"/>
<path d="M103.695 28.721C103.765 29.1752 104.452 29.0072 104.385 28.5537L103.747 24.4389C103.678 23.9885 102.99 24.1504 103.057 24.6054L103.695 28.721Z" fill="black"/>
<path d="M116.281 30.3614L118.415 26.0118C118.616 25.6029 118.001 25.2514 117.797 25.6665L115.661 30.0162C115.46 30.4259 116.076 30.7765 116.281 30.3614Z" fill="black"/>
<path d="M130.164 45.8448C128.792 46.1993 127.444 46.6888 126.112 47.1576C126.034 47.1844 125.968 47.2366 125.924 47.3058C125.881 47.375 125.862 47.457 125.871 47.5385C125.88 47.6199 125.916 47.6958 125.974 47.7539C126.031 47.812 126.107 47.8487 126.188 47.8581C126.346 47.8581 127.473 47.3786 130.349 46.5277C130.437 46.5 130.51 46.4395 130.554 46.3588C130.598 46.2782 130.608 46.1837 130.584 46.0953C130.56 46.0068 130.502 45.9313 130.423 45.8846C130.344 45.8379 130.25 45.8236 130.161 45.8448H130.164Z" fill="black"/>
<path d="M80.1284 43.3895C84.4711 45.2117 84.1274 45.0774 84.221 45.0774C84.2987 45.0775 84.3744 45.052 84.4362 45.0049C84.498 44.9577 84.5427 44.8916 84.5632 44.8166C84.5862 44.7281 84.5746 44.6342 84.5307 44.554C84.4867 44.4739 84.4138 44.4135 84.3269 44.3854L80.3279 42.7074C80.239 42.6848 80.1448 42.6976 80.0651 42.7431C79.9854 42.7886 79.9265 42.8631 79.9007 42.9512C79.8748 43.0392 79.8841 43.1338 79.9266 43.2151C79.9691 43.2964 80.0414 43.3581 80.1284 43.3872V43.3895Z" fill="black"/>
<path d="M149.97 62.578H145.61C145.519 62.5823 145.433 62.6214 145.37 62.6874C145.307 62.7533 145.272 62.8409 145.272 62.9321C145.272 63.0233 145.307 63.1109 145.37 63.1769C145.433 63.2428 145.519 63.282 145.61 63.2862H149.966C150.014 63.2884 150.062 63.2809 150.107 63.2641C150.152 63.2473 150.193 63.2216 150.228 63.1885C150.262 63.1554 150.29 63.1156 150.309 63.0716C150.328 63.0275 150.337 62.98 150.337 62.9321C150.337 62.8842 150.328 62.8367 150.309 62.7927C150.29 62.7486 150.262 62.7088 150.228 62.6757C150.193 62.6426 150.152 62.6169 150.107 62.6001C150.062 62.5833 150.014 62.5758 149.966 62.578H149.97Z" fill="black"/>
<path d="M141.255 52.5928H144.431C144.522 52.5886 144.608 52.5494 144.671 52.4835C144.734 52.4175 144.769 52.3299 144.769 52.2387C144.769 52.1476 144.734 52.0599 144.671 51.994C144.608 51.928 144.522 51.8889 144.431 51.8846H141.255C141.164 51.8889 141.078 51.928 141.015 51.994C140.952 52.0599 140.917 52.1476 140.917 52.2387C140.917 52.3299 140.952 52.4175 141.015 52.4835C141.078 52.5494 141.164 52.5886 141.255 52.5928Z" fill="black"/>
<path d="M150.367 47.2688H144.068C143.977 47.2731 143.891 47.3122 143.828 47.3782C143.765 47.4441 143.73 47.5318 143.73 47.6229C143.73 47.7141 143.765 47.8018 143.828 47.8677C143.891 47.9336 143.977 47.9728 144.068 47.977H150.366C150.457 47.9728 150.543 47.9336 150.606 47.8677C150.669 47.8018 150.704 47.7141 150.704 47.6229C150.704 47.5318 150.669 47.4441 150.606 47.3782C150.543 47.3122 150.457 47.2731 150.366 47.2688H150.367Z" fill="black"/>
<path d="M88.7742 85.3966C89.2605 85.4283 89.7468 85.3355 90.1872 85.1268C90.6276 84.9182 91.0074 84.6007 91.2908 84.2042C92.0443 82.9605 91.0246 81.3224 88.8172 81.3001C87.7745 81.3001 63.288 81.2825 62.9251 81.3117C62.4299 81.3161 61.9461 81.46 61.5289 81.7268C61.1118 81.9936 60.7782 82.3725 60.5665 82.8201C60.1146 84.0723 61.3836 85.5692 63.7307 85.3966C63.9801 85.3966 88.3752 85.3904 88.7742 85.3966ZM89.1479 84.6715C88.841 84.6991 64.7189 84.6715 63.255 84.6884C62.3734 84.7037 61.2893 84.284 61.1834 83.3978C61.1834 82.3766 62.3642 82.0083 63.6271 82.0083H88.8149C89.5775 82.0168 90.7453 82.3567 90.8335 83.2605C90.9226 84.073 89.955 84.5994 89.1509 84.6692L89.1479 84.6715Z" fill="black"/>
<path d="M41.0049 89.9538L39.4887 89.4213C39.0552 89.2679 38.855 89.9484 39.2877 90.1003C39.8167 90.3299 40.3639 90.5152 40.9235 90.6543C41.0052 90.6457 41.0814 90.6095 41.1398 90.5518C41.1981 90.494 41.2351 90.4181 41.2446 90.3366C41.254 90.2551 41.2354 90.1727 41.1919 90.1031C41.1483 90.0336 41.0824 89.9809 41.0049 89.9538Z" fill="black"/>
<path d="M120.002 63.0568C120.002 63.0568 123.677 65.1622 123.839 65.2512C123.89 65.28 123.948 65.2951 124.007 65.2949C124.085 65.2949 124.16 65.2696 124.222 65.223C124.283 65.1764 124.328 65.1109 124.349 65.0366C124.37 64.9622 124.366 64.883 124.338 64.8109C124.31 64.7389 124.26 64.678 124.194 64.6374C122.917 63.9028 121.638 63.1719 120.358 62.4445C120.317 62.4221 120.272 62.4079 120.225 62.4029C120.179 62.3979 120.132 62.4022 120.087 62.4155C120.043 62.4288 120.001 62.4508 119.965 62.4803C119.929 62.5097 119.899 62.5461 119.877 62.5872C119.834 62.6669 119.824 62.7596 119.847 62.8467C119.871 62.9338 119.926 63.0088 120.002 63.0568Z" fill="black"/>
<path d="M96.7289 111.932C96.6393 111.936 96.5544 111.973 96.491 112.036C96.4277 112.1 96.3907 112.185 96.3875 112.274V118.419C96.3917 118.51 96.4309 118.596 96.4968 118.659C96.5628 118.722 96.6504 118.757 96.7416 118.757C96.8327 118.757 96.9204 118.722 96.9863 118.659C97.0523 118.596 97.0914 118.51 97.0957 118.419V112.277C97.0949 112.231 97.0847 112.184 97.0658 112.141C97.0468 112.098 97.0194 112.06 96.9852 112.027C96.951 111.995 96.9107 111.97 96.8667 111.954C96.8227 111.938 96.7758 111.93 96.7289 111.932Z" fill="black"/>
<path d="M67.7518 82.2944C67.6616 82.2977 67.576 82.3352 67.5124 82.3993C67.4488 82.4635 67.4121 82.5494 67.4096 82.6397V83.8673C67.4096 83.9613 67.4469 84.0515 67.5134 84.1179C67.5799 84.1844 67.6701 84.2218 67.7641 84.2218C67.8581 84.2218 67.9482 84.1844 68.0147 84.1179C68.0812 84.0515 68.1185 83.9613 68.1185 83.8673V82.6397C68.118 82.5926 68.1079 82.5462 68.089 82.5032C68.0701 82.4601 68.0428 82.4213 68.0085 82.3891C67.9743 82.3569 67.9339 82.3319 67.8898 82.3156C67.8457 82.2993 67.7988 82.2921 67.7518 82.2944Z" fill="black"/>
<path d="M83.4627 82.2944C83.3725 82.2979 83.287 82.3354 83.2235 82.3995C83.16 82.4636 83.1232 82.5495 83.1205 82.6397V83.9601C83.1205 84.0541 83.1579 84.1443 83.2243 84.2108C83.2908 84.2773 83.381 84.3146 83.475 84.3146C83.569 84.3146 83.6592 84.2773 83.7256 84.2108C83.7921 84.1443 83.8295 84.0541 83.8295 83.9601V82.6343C83.8279 82.5878 83.8171 82.5422 83.7978 82.4999C83.7785 82.4576 83.751 82.4196 83.7169 82.388C83.6828 82.3564 83.6428 82.3318 83.5991 82.3158C83.5555 82.2997 83.5091 82.2924 83.4627 82.2944Z" fill="black"/>
<path d="M11.6781 111.731C11.7986 111.731 11.7219 111.754 13.2349 110.921C13.3113 110.872 13.3659 110.795 13.3874 110.707C13.4088 110.618 13.3955 110.525 13.3502 110.446C13.3049 110.368 13.231 110.309 13.1439 110.283C13.0567 110.257 12.963 110.266 12.882 110.307L11.4955 111.075C11.4312 111.116 11.3818 111.176 11.3546 111.247C11.3273 111.319 11.3236 111.397 11.3441 111.47C11.3645 111.544 11.408 111.609 11.4681 111.655C11.5283 111.702 11.6019 111.729 11.6781 111.731Z" fill="black"/>
<path d="M55.2657 112.278V118.416C55.2657 118.51 55.303 118.6 55.3695 118.666C55.436 118.733 55.5262 118.77 55.6202 118.77C55.7142 118.77 55.8043 118.733 55.8708 118.666C55.9373 118.6 55.9746 118.51 55.9746 118.416V112.271C55.9737 112.177 55.9355 112.087 55.8684 112.021C55.8013 111.955 55.7107 111.919 55.6167 111.92C55.5227 111.921 55.4329 111.959 55.3671 112.026C55.3012 112.093 55.2648 112.184 55.2657 112.278Z" fill="black"/>
<path d="M75.695 125.398C75.6054 125.401 75.5203 125.438 75.4568 125.501C75.3934 125.565 75.3562 125.65 75.3528 125.739V128.939C75.3528 129.033 75.3901 129.123 75.4566 129.189C75.5231 129.256 75.6132 129.293 75.7072 129.293C75.8012 129.293 75.8914 129.256 75.9579 129.189C76.0244 129.123 76.0617 129.033 76.0617 128.939V125.739C76.0606 125.693 76.0502 125.647 76.0311 125.604C76.012 125.561 75.9845 125.523 75.9503 125.491C75.9162 125.459 75.8759 125.435 75.8321 125.419C75.7882 125.403 75.7416 125.396 75.695 125.398Z" fill="black"/>
<path d="M16.989 111.998C17.3074 112.074 17.2905 111.787 18.2166 111.081C18.578 110.805 18.2089 110.203 17.8399 110.481C17.4699 110.76 17.1227 111.068 16.8018 111.402C16.7588 111.449 16.7289 111.506 16.7151 111.567C16.7013 111.629 16.704 111.694 16.723 111.754C16.742 111.814 16.7766 111.869 16.8233 111.911C16.87 111.954 16.9271 111.984 16.989 111.998Z" fill="black"/>
<path d="M14.5106 98.4031C14.766 97.661 14.9532 96.8972 15.07 96.1212C15.1375 95.6708 14.4516 95.499 14.3794 95.9555C14.2636 96.7198 14.0792 97.4722 13.8285 98.2036C13.6805 98.6417 14.3618 98.8343 14.5106 98.4031Z" fill="black"/>
<path d="M75.8844 115.989C75.9767 115.988 76.0653 115.952 76.1314 115.888C76.1976 115.823 76.2361 115.736 76.2389 115.643V102.572C76.2337 102.478 76.1927 102.39 76.1243 102.327C76.056 102.263 75.9656 102.228 75.8721 102.229C75.7824 102.233 75.6974 102.27 75.6339 102.333C75.5705 102.397 75.5333 102.482 75.5299 102.572V115.647C75.5331 115.739 75.5719 115.826 75.638 115.89C75.7042 115.953 75.7925 115.989 75.8844 115.989Z" fill="black"/>
<path d="M37.2307 34.0142C37.0392 33.8751 36.8772 33.6993 36.7541 33.4971C36.631 33.295 36.5493 33.0704 36.5136 32.8364C36.4779 32.6024 36.489 32.3636 36.5463 32.1339C36.6035 31.9043 36.7057 31.6882 36.8471 31.4983C37.1218 31.1255 36.5118 30.7572 36.2455 31.1247C36.0544 31.3936 35.9186 31.6977 35.846 32.0195C35.7733 32.3413 35.7653 32.6744 35.8224 32.9993C35.8795 33.3242 36.0006 33.6345 36.1786 33.9123C36.3566 34.19 36.588 34.4297 36.8594 34.6173C37.2376 34.8797 37.6051 34.2797 37.2307 34.0142Z" fill="black"/>
<path d="M23.551 39.372L23.2203 41.3738C23.1436 41.8234 23.8341 41.9983 23.9109 41.5426L24.2416 39.54C24.3129 39.0927 23.627 38.9155 23.551 39.372Z" fill="black"/>
<path d="M125.751 72.0876C126.617 72.3423 127.539 72.3297 128.397 72.0515C128.483 72.0222 128.555 71.9608 128.597 71.8801C128.639 71.7994 128.648 71.7055 128.623 71.618C128.598 71.5305 128.54 71.456 128.462 71.41C128.383 71.364 128.29 71.35 128.201 71.371C127.466 71.5962 126.682 71.6079 125.94 71.4047C125.851 71.3836 125.757 71.3978 125.678 71.4445C125.599 71.4913 125.541 71.5668 125.517 71.6552C125.492 71.7436 125.503 71.8381 125.547 71.9187C125.591 71.9994 125.664 72.0599 125.751 72.0876Z" fill="black"/>
<path d="M115.646 57.2962C116.958 57.5095 116.95 57.5111 117.001 57.5111C117.406 57.5111 117.538 56.888 117.106 56.8205L115.814 56.6111C115.364 56.5366 115.19 57.2226 115.646 57.2962Z" fill="black"/>
<path d="M117.24 59.9931C116.761 59.9722 116.287 59.8926 115.827 59.756C115.737 59.7333 115.642 59.7468 115.562 59.7936C115.482 59.8403 115.423 59.9166 115.398 60.0061C115.374 60.0955 115.386 60.191 115.431 60.2721C115.476 60.3531 115.551 60.4133 115.64 60.4396C116.157 60.5964 116.692 60.6844 117.232 60.7012C117.701 60.7166 117.689 60.0122 117.24 59.9931Z" fill="black"/>
<path d="M109.967 80.3126C109.416 80.8946 108.934 81.5383 108.53 82.2308C108.501 82.2848 108.486 82.3456 108.487 82.4072C108.488 82.4688 108.505 82.5291 108.536 82.5821C108.568 82.635 108.613 82.6789 108.666 82.7093C108.72 82.7398 108.78 82.7557 108.842 82.7556C109.259 82.7556 109.157 82.2316 110.474 80.8114C110.785 80.4722 110.28 79.9743 109.967 80.3126Z" fill="black"/>
</g>
<defs>
<filter id="filter0_d_2_777" x="-3" y="0" width="161.453" height="161.453" filterUnits="userSpaceOnUse" color-interpolation-filters="sRGB">
<feFlood flood-opacity="0" result="BackgroundImageFix"/>
<feColorMatrix in="SourceAlpha" type="matrix" values="0 0 0 0 0 0 0 0 0 0 0 0 0 0 0 0 0 0 127 0" result="hardAlpha"/>
<feOffset dy="4"/>
<feGaussianBlur stdDeviation="2"/>
<feComposite in2="hardAlpha" operator="out"/>
<feColorMatrix type="matrix" values="0 0 0 0 0 0 0 0 0 0 0 0 0 0 0 0 0 0 0.25 0"/>
<feBlend mode="normal" in2="BackgroundImageFix" result="effect1_dropShadow_2_777"/>
<feBlend mode="normal" in="SourceGraphic" in2="effect1_dropShadow_2_777" result="shape"/>
</filter>
</defs>
</svg>
